<?xml version="1.0" encoding="UTF-8"?>
<svg width="16px" height="16px" viewBox="0 0 16 16" version="1.1" xmlns="http://www.w3.org/2000/svg" xmlns:xlink="http://www.w3.org/1999/xlink">
    <title>chart-up</title>
    <g id="Page-1" stroke="none" stroke-width="1" fill="none" fill-rule="evenodd">
        <g id="Members-Love-Us-Copy-3" transform="translate(-496.000000, -21.000000)" fill="#454EC2" fill-rule="nonzero">
            <g id="Group-46-Copy-6" transform="translate(481.000000, 0.000000)">
                <g id="Group-26" transform="translate(14.000000, 17.000000)">
                    <g id="chart-up" transform="translate(1.000000, 4.000000)">
                        <path d="M4.18976744,13.1348837 C3.88465116,13.1348837 3.63162791,12.9146765 3.63162791,12.6491324 L3.63162791,11.3084589 C3.63162791,11.0429148 3.88465116,10.8227076 4.18976744,10.8227076 C4.49488372,10.8227076 4.74790698,11.0429148 4.74790698,11.3084589 L4.74790698,12.6491324 C4.74790698,12.9211532 4.49488372,13.1348837 4.18976744,13.1348837 Z" id="Path"></path>
                        <path d="M8,13.1348837 C7.69488372,13.1348837 7.44186047,12.9146765 7.44186047,12.6491324 L7.44186047,9.96130859 C7.44186047,9.69576455 7.69488372,9.4755573 8,9.4755573 C8.30511628,9.4755573 8.55813953,9.69576455 8.55813953,9.96130859 L8.55813953,12.6491324 C8.55813953,12.9211532 8.30511628,13.1348837 8,13.1348837 Z" id="Path"></path>
                        <path d="M11.8102326,13.1348837 C11.5051163,13.1348837 11.252093,12.9146765 11.252093,12.6491324 L11.252093,8.62063502 C11.252093,8.35509097 11.5051163,8.13488372 11.8102326,8.13488372 C12.1153488,8.13488372 12.3683721,8.35509097 12.3683721,8.62063502 L12.3683721,12.6491324 C12.3683721,12.9211532 12.1227907,13.1348837 11.8102326,13.1348837 Z" id="Path"></path>
                        <path d="M4.18976744,9.87813953 C3.93674419,9.87813953 3.71348837,9.70697674 3.64651163,9.45395349 C3.57209302,9.15627907 3.75069767,8.85116279 4.05581395,8.77674419 C6.7944186,8.09209302 9.2055814,6.59627907 11.0437209,4.46046512 L11.3860465,4.05860465 C11.5869767,3.82790698 11.9367442,3.79813953 12.1748837,3.99906977 C12.4055814,4.2 12.4353488,4.54976744 12.2344186,4.78790698 L11.892093,5.18976744 C9.90511628,7.51162791 7.2855814,9.12651163 4.32372093,9.86325581 C4.27906977,9.87813953 4.2344186,9.87813953 4.18976744,9.87813953 L4.18976744,9.87813953 Z" id="Path"></path>
                        <path d="M11.8102326,7.1544186 C11.5051163,7.1544186 11.252093,6.90139535 11.252093,6.59627907 L11.252093,4.98139535 L9.62976744,4.98139535 C9.32465116,4.98139535 9.07162791,4.72837209 9.07162791,4.42325581 C9.07162791,4.11813953 9.32465116,3.86511628 9.62976744,3.86511628 L11.8102326,3.86511628 C12.1153488,3.86511628 12.3683721,4.11813953 12.3683721,4.42325581 L12.3683721,6.60372093 C12.3683721,6.90883721 12.1227907,7.1544186 11.8102326,7.1544186 Z" id="Path"></path>
                        <path d="M10.2325581,16 L5.76744186,16 C1.72651163,16 0,14.2734884 0,10.2325581 L0,5.76744186 C0,1.72651163 1.72651163,0 5.76744186,0 L10.2325581,0 C14.2734884,0 16,1.72651163 16,5.76744186 L16,10.2325581 C16,14.2734884 14.2734884,16 10.2325581,16 Z M5.76744186,1.11627907 C2.33674419,1.11627907 1.11627907,2.33674419 1.11627907,5.76744186 L1.11627907,10.2325581 C1.11627907,13.6632558 2.33674419,14.8837209 5.76744186,14.8837209 L10.2325581,14.8837209 C13.6632558,14.8837209 14.8837209,13.6632558 14.8837209,10.2325581 L14.8837209,5.76744186 C14.8837209,2.33674419 13.6632558,1.11627907 10.2325581,1.11627907 L5.76744186,1.11627907 Z" id="Shape"></path>
                    </g>
                </g>
            </g>
        </g>
    </g>
</svg>