<svg width="15" height="18" viewBox="0 0 15 18" xmlns="http://www.w3.org/2000/svg">
    <g opacity=".7">
        <g opacity=".6" fill="#000" fill-rule="nonzero">
            <path d="M7.102 2.635c.255 0 .463.174.463.387a.352.352 0 0 0 .703 0c0-.486-.343-.9-.815-1.04v-.048a.352.352 0 0 0-.703 0v.048c-.472.14-.815.554-.815 1.04 0 .602.524 1.091 1.167 1.091.255 0 .463.174.463.388 0 .214-.208.388-.463.388-.256 0-.463-.174-.463-.388a.352.352 0 0 0-.704 0c0 .487.343.9.815 1.04v.049a.352.352 0 0 0 .703 0V5.54c.472-.14.815-.553.815-1.04 0-.602-.523-1.09-1.166-1.09-.256 0-.463-.175-.463-.388 0-.214.207-.388.463-.388z"/>
            <path d="M13.852 9.64h-1.607a3.779 3.779 0 0 0-3.775 3.776v1.46l-1.017 1.018V7.507a3.767 3.767 0 0 0 3.22-4.93.352.352 0 0 0-.668.221A3.062 3.062 0 0 1 7.101 6.82a3.062 3.062 0 0 1-3.058-3.058A3.062 3.062 0 0 1 8.011.84a.352.352 0 0 0 .21-.672 3.766 3.766 0 0 0-4.88 3.593c-.001 1.955 1.499 3.567 3.409 3.745v5.355l-1.017-1.017v-1.46A3.779 3.779 0 0 0 1.958 6.61H.352A.352.352 0 0 0 0 6.96v1.607a3.779 3.779 0 0 0 3.775 3.774h1.46l1.515 1.515v3.44H3.229a.352.352 0 0 0 0 .703h7.745a.352.352 0 0 0 0-.703h-3.52v-.409l1.513-1.514h1.461a3.779 3.779 0 0 0 3.775-3.775V9.992a.352.352 0 0 0-.351-.351zm-10.077 2A3.075 3.075 0 0 1 .703 8.567V7.313h1.255a3.075 3.075 0 0 1 3.072 3.071v.758L3.477 9.59a.352.352 0 0 0-.497.497l1.553 1.552h-.758zm9.725-.04a3.075 3.075 0 0 1-3.072 3.07H9.67l1.553-1.552a.352.352 0 0 0-.497-.497l-1.553 1.553v-.758a3.075 3.075 0 0 1 3.072-3.072H13.5V11.6z"/>
            <path d="M9.506 1.695a.354.354 0 0 0 .351-.352.354.354 0 0 0-.351-.352.354.354 0 0 0-.352.352.354.354 0 0 0 .352.352z"/>
        </g>
    </g>
</svg>
