<?xml version="1.0" encoding="UTF-8"?>
<svg width="16px" height="16px" viewBox="0 0 16 16" version="1.1" xmlns="http://www.w3.org/2000/svg" xmlns:xlink="http://www.w3.org/1999/xlink">
    <title>statistics (2)</title>
    <g id="Page-1" stroke="none" stroke-width="1" fill="none" fill-rule="evenodd">
        <g id="Members-Love-Us-Copy-3" transform="translate(-349.000000, -21.000000)" fill="#454EC2" fill-rule="nonzero">
            <g id="Group-46-Copy-3" transform="translate(334.000000, 0.000000)">
                <g id="Group-26" transform="translate(15.000000, 17.000000)">
                    <g id="statistics-(2)" transform="translate(0.000000, 4.000000)">
                        <path d="M3.53488372,10.7906994 C3.30928993,10.7904992 3.10599758,10.6545153 3.01969341,10.4460826 C2.93338925,10.2376499 2.98104536,9.99775763 3.14046512,9.83813953 L6.1172093,6.86139535 C6.30524337,6.67333757 6.59984445,6.64406431 6.8212093,6.79144186 L8.66976744,8.02604651 L12.0706977,4.62883721 C12.2906119,4.42391899 12.6333096,4.42996549 12.8458581,4.64251401 C13.0584066,4.85506253 13.0644531,5.19776018 12.8595349,5.41767442 L9.13860465,9.13860465 C8.95043889,9.32638414 8.65604385,9.35563692 8.43460465,9.20855814 L6.58604651,7.97395349 L3.92930233,10.6269767 C3.82501214,10.7320971 3.68296005,10.7910621 3.53488372,10.7906994 L3.53488372,10.7906994 Z" id="Path"></path>
                        <path d="M12.4651163,7.81395349 C12.1568643,7.81395349 11.9069767,7.56406591 11.9069767,7.25581395 L11.9069767,5.58139535 L10.2325581,5.58139535 C9.92430619,5.58139535 9.6744186,5.33150777 9.6744186,5.02325581 C9.6744186,4.71500386 9.92430619,4.46511628 10.2325581,4.46511628 L12.4651163,4.46511628 C12.7733682,4.46511628 13.0232558,4.71500386 13.0232558,5.02325581 L13.0232558,7.25581395 C13.0232558,7.56406591 12.7733682,7.81395349 12.4651163,7.81395349 Z" id="Path"></path>
                        <path d="M12.4651163,16 L3.53488372,16 C1.58364125,15.9975399 0.00246006908,14.4163587 0,12.4651163 L0,3.53488372 C0.00246006908,1.58364125 1.58364125,0.00246006908 3.53488372,0 L12.4651163,0 C14.4163587,0.00246006908 15.9975399,1.58364125 16,3.53488372 L16,12.4651163 C15.9975399,14.4163587 14.4163587,15.9975399 12.4651163,16 L12.4651163,16 Z M3.53488372,1.11627907 C2.19980522,1.11791922 1.11791922,2.19980522 1.11627907,3.53488372 L1.11627907,12.4651163 C1.11791922,13.8001948 2.19980522,14.8820808 3.53488372,14.8837209 L12.4651163,14.8837209 C13.8001948,14.8820808 14.8820808,13.8001948 14.8837209,12.4651163 L14.8837209,3.53488372 C14.8820808,2.19980522 13.8001948,1.11791922 12.4651163,1.11627907 L3.53488372,1.11627907 Z" id="Shape"></path>
                    </g>
                </g>
            </g>
        </g>
    </g>
</svg>