<svg width="16" height="16" viewBox="0 0 16 16" xmlns="http://www.w3.org/2000/svg">
    <g opacity=".7">
        <g opacity=".6" fill-rule="nonzero" fill="none">
            <path fill="#FCDCA4" d="M7.442 8.186h1.116V16H7.442z"/>
            <path d="M9.86 4.837A2.419 2.419 0 1 1 9.86 0a2.419 2.419 0 0 1 0 4.837zm0-3.72a1.302 1.302 0 1 0 0 2.604 1.302 1.302 0 0 0 0-2.605z" fill="#000"/>
            <path d="M6.14 4.837A2.419 2.419 0 1 1 6.14 0a2.419 2.419 0 0 1 0 4.837zm0-3.72a1.302 1.302 0 1 0 0 2.604 1.302 1.302 0 0 0 0-2.605z" fill="#000"/>
            <g fill="#000">
                <path d="M8 16a.558.558 0 0 1-.558-.558V4.279a.558.558 0 0 1 1.116 0v11.163c0 .308-.25.558-.558.558z"/>
                <path d="M13.953 9.302H2.047A2.048 2.048 0 0 1 0 7.256V5.767c0-1.13.917-2.045 2.047-2.046h11.906c1.13 0 2.046.917 2.047 2.046v1.489c0 1.13-.917 2.046-2.047 2.046zM2.047 4.837a.932.932 0 0 0-.93.93v1.489c0 .513.416.93.93.93h11.906c.514 0 .93-.417.93-.93V5.767a.932.932 0 0 0-.93-.93H2.047z"/>
                <path d="M12.837 16H3.163a2.048 2.048 0 0 1-2.047-2.047V8.744c0-.308.25-.558.558-.558h12.652a.558.558 0 1 1 0 1.116H2.233v4.651c0 .514.416.93.93.93h9.674c.514 0 .93-.416.93-.93v-2.976a.558.558 0 0 1 1.117 0v2.976c-.001 1.13-.917 2.046-2.047 2.047z"/>
            </g>
        </g>
    </g>
</svg>
