<?xml version="1.0" encoding="UTF-8"?>
<svg width="16px" height="16px" viewBox="0 0 16 16" version="1.1" xmlns="http://www.w3.org/2000/svg" xmlns:xlink="http://www.w3.org/1999/xlink">
    <title>amc</title>
    <g id="Page-1" stroke="none" stroke-width="1" fill="none" fill-rule="evenodd" opacity="0.600000024">
        <g id="05B_Filters_Mob_MF_UM-V-2.0" transform="translate(-153.000000, -693.000000)" fill-rule="nonzero">
            <g id="Group-20" transform="translate(0.000000, 354.000000)">
                <g transform="translate(0.000000, 16.000000)" id="Group">
                    <g transform="translate(0.000000, 33.000000)">
                        <g id="Group-16-Copy" transform="translate(0.000000, 290.741862)">
                            <g id="Group-13-Copy-2" transform="translate(149.000000, 0.000000)">
                                <g id="amc" transform="translate(4.391631, 0.000000)">
                                    <g id="shadow" transform="translate(0.468750, 0.468750)" fill="#D5DBE1">
                                        <path d="M1.40625,12.8125 L1.40625,1.25 C1.40625,0.559375 1.965625,0 2.65625,0 L1.25,0 C0.559375,0 0,0.559375 0,1.25 L0,12.8125 C0,13.503125 0.559375,14.0625 1.25,14.0625 L2.65625,14.0625 C1.965625,14.0625 1.40625,13.503125 1.40625,12.8125 Z" id="Path"></path>
                                    </g>
                                    <g id="_x31_.5" fill="#939393">
                                        <path d="M13.28125,15 L1.71875,15 C0.770625,15 0,14.229375 0,13.28125 L0,1.71875 C0,0.770625 0.770625,0 1.71875,0 L13.28125,0 C14.229375,0 15,0.770625 15,1.71875 L15,13.28125 C15,14.229375 14.229375,15 13.28125,15 Z M1.71875,0.9375 C1.288125,0.9375 0.9375,1.288125 0.9375,1.71875 L0.9375,13.28125 C0.9375,13.711875 1.288125,14.0625 1.71875,14.0625 L13.28125,14.0625 C13.711875,14.0625 14.0625,13.711875 14.0625,13.28125 L14.0625,1.71875 C14.0625,1.288125 13.711875,0.9375 13.28125,0.9375 L1.71875,0.9375 Z" id="Shape"></path>
                                        <polygon id="Path" points="8.59375 3.125 12.65625 3.125 12.65625 4.0625 8.59375 4.0625"></polygon>
                                        <polygon id="Path" points="8.59375 5.625 12.65625 5.625 12.65625 6.5625 8.59375 6.5625"></polygon>
                                        <path d="M3.504375,6.71875 C3.36625,6.71875 3.235,6.6575 3.14625,6.551875 L1.985625,5.176875 L2.701875,4.5725 L3.504375,5.523125 L6.0475,2.510625 L6.76375,3.115 L3.861875,6.5525 C3.77375,6.6575 3.6425,6.71875 3.504375,6.71875 L3.504375,6.71875 Z" id="Path"></path>
                                        <path d="M5.15625,13.125 L2.96875,13.125 C2.365625,13.125 1.875,12.634375 1.875,12.03125 L1.875,9.84375 C1.875,9.240625 2.365625,8.75 2.96875,8.75 L5.15625,8.75 C5.759375,8.75 6.25,9.240625 6.25,9.84375 L6.25,12.03125 C6.25,12.634375 5.759375,13.125 5.15625,13.125 Z M2.96875,9.6875 C2.8825,9.6875 2.8125,9.7575 2.8125,9.84375 L2.8125,12.03125 C2.8125,12.1175 2.8825,12.1875 2.96875,12.1875 L5.15625,12.1875 C5.2425,12.1875 5.3125,12.1175 5.3125,12.03125 L5.3125,9.84375 C5.3125,9.7575 5.2425,9.6875 5.15625,9.6875 L2.96875,9.6875 Z" id="Shape"></path>
                                        <polygon id="Path" points="8.59375 9.375 12.65625 9.375 12.65625 10.3125 8.59375 10.3125"></polygon>
                                        <polygon id="Path" points="8.59375 11.875 12.65625 11.875 12.65625 12.8125 8.59375 12.8125"></polygon>
                                    </g>
                                </g>
                            </g>
                        </g>
                    </g>
                </g>
            </g>
        </g>
    </g>
</svg>