<svg width="248" height="110" viewBox="0 0 248 110" fill="none" xmlns="http://www.w3.org/2000/svg">
    <path d="M21.048 22h-8.232v-.672l2.268-.252-2.576-6.44h-6.3L3.968 20.6l2.492.728V22H.608v-.672l2.128-.728L9.512 3.296h1.96l7.42 17.78 2.156.252V22zm-8.96-8.4L9.344 6.796 6.6 13.6h5.488z" fill="#000"/>
    <path d="M30.807 8.028c1.643 0 3.015.541 4.116 1.624 1.12 1.064 1.68 2.763 1.68 5.096 0 2.315-.653 4.163-1.96 5.544-1.288 1.363-3.145 2.044-5.572 2.044-1.082 0-2.006-.252-2.772-.756v6.608l1.932.168V29h-7.224v-.644l1.708-.168V9.316l-2.436-.14v-.644l5.936-.364-.084 2.352c1.027-1.661 2.586-2.492 4.676-2.492zM26.3 12.34v8.232a3.894 3.894 0 0 0 2.548.924c.952 0 1.68-.205 2.184-.616.504-.43.868-1.027 1.092-1.792.392-1.25.588-2.875.588-4.872 0-3.547-.914-5.32-2.744-5.32-.97 0-1.83.392-2.576 1.176-.728.784-1.092 1.54-1.092 2.268zM48.335 8.028c1.642 0 3.014.541 4.116 1.624 1.12 1.064 1.68 2.763 1.68 5.096 0 2.315-.654 4.163-1.96 5.544-1.288 1.363-3.146 2.044-5.572 2.044-1.083 0-2.007-.252-2.772-.756v6.608l1.932.168V29h-7.224v-.644l1.708-.168V9.316l-2.436-.14v-.644l5.936-.364-.084 2.352c1.026-1.661 2.585-2.492 4.676-2.492zm-4.508 4.312v8.232a3.894 3.894 0 0 0 2.548.924c.952 0 1.68-.205 2.184-.616.504-.43.868-1.027 1.092-1.792.392-1.25.588-2.875.588-4.872 0-3.547-.915-5.32-2.744-5.32-.971 0-1.83.392-2.576 1.176-.728.784-1.092 1.54-1.092 2.268zM63.034 22H55.81v-.644l1.82-.168V1.896l-2.408-.084V1.14l5.992-.644v20.692l1.82.168V22z" fill="#000"/>
    <path d="M72.69 8.336h5.348v.7l-1.96.56L71.542 22c-.784 2.053-1.615 3.733-2.492 5.04-1.064 1.587-2.352 2.38-3.864 2.38a2.58 2.58 0 0 1-.364-.028c-.616 0-1.11-.187-1.484-.56-.374-.355-.56-.83-.56-1.428 0-.579.261-1.167.784-1.764.616.69 1.288 1.036 2.016 1.036 1.026 0 1.894-.383 2.604-1.148.71-.747 1.372-1.923 1.988-3.528L64.794 9.204l-1.4-.28v-.588h6.468v.588l-1.652.252 3.584 9.128 3.108-8.708-2.212-.56v-.7zM99.137 3.296h5.656v.672l-1.96.672V22h-1.904L88.469 6.656v13.972l2.352.7V22h-5.6v-.672l2.044-.7V4.22l-2.436-.252v-.672h5.264l11.2 13.944V4.612l-2.156-.644v-.672zM119.174 20.292c-1.307 1.344-3.09 2.016-5.348 2.016-2.259 0-4.042-.672-5.348-2.016-1.307-1.344-1.96-3.052-1.96-5.124 0-2.072.653-3.78 1.96-5.124 1.306-1.344 3.089-2.016 5.348-2.016 2.258 0 4.041.672 5.348 2.016 1.306 1.344 1.96 3.052 1.96 5.124 0 2.072-.654 3.78-1.96 5.124zm-8.764-5.124c0 4.312 1.138 6.468 3.416 6.468 2.277 0 3.416-2.156 3.416-6.468 0-2.11-.252-3.705-.756-4.788-.504-1.101-1.391-1.652-2.66-1.652-1.27 0-2.156.55-2.66 1.652-.504 1.083-.756 2.679-.756 4.788zM139.694 8.336h4.704v.728l-1.708.532L137.93 22h-1.12l-3.416-8.092L130.202 22h-1.82l-5.404-12.796-1.176-.14v-.728h6.384v.728l-1.848.224 3.976 9.716 2.464-6.524-1.372-3.276-1.148-.14v-.728h6.328v.728l-1.848.224 3.612 8.904 3.164-8.596-1.82-.532v-.728zM22.448 60.992a6.64 6.64 0 0 0 1.036-.084c0 .224-.159.467-.476.728-.56.485-1.419.728-2.576.728a9.623 9.623 0 0 1-3.388-.616c-1.083-.41-1.932-.924-2.548-1.54-1.437 1.4-3.37 2.1-5.796 2.1-1.773 0-3.285-.42-4.536-1.26-1.232-.84-1.857-2.044-1.876-3.612 0-1.157.42-2.193 1.26-3.108.84-.915 1.96-1.577 3.36-1.988-1.55-1.363-2.324-2.893-2.324-4.592 0-1.325.485-2.427 1.456-3.304.99-.877 2.352-1.316 4.088-1.316 1.755 0 3.108.373 4.06 1.12.952.747 1.428 1.727 1.428 2.94 0 .15-.01.308-.028.476-.13 1.195-.737 2.193-1.82 2.996-1.064.803-2.063 1.223-2.996 1.26l-.168-.112c.97 1.027 2.781 2.865 5.432 5.516.43-1.064.644-2.119.644-3.164 0-1.064-.065-1.96-.196-2.688.243-.13.457-.196.644-.196.467 0 .7.523.7 1.568 0 1.997-.345 3.733-1.036 5.208l.084.084c1.997 1.904 3.855 2.856 5.572 2.856zM6.096 57.268c0 1.157.299 2.1.896 2.828.616.728 1.381 1.092 2.296 1.092 1.83 0 3.323-.55 4.48-1.652-.635-.71-1.643-1.764-3.024-3.164-1.381-1.4-2.399-2.483-3.052-3.248l-.112-.112c-.99 1.288-1.484 2.707-1.484 4.256zm6.132-10.584c0-.765-.177-1.419-.532-1.96-.355-.56-.887-.84-1.596-.84-.69 0-1.27.29-1.736.868-.448.56-.672 1.353-.672 2.38 0 .523.121 1.045.364 1.568.261.504.495.877.7 1.12l1.372 1.484c1.213-.765 1.904-2.081 2.072-3.948.019-.243.028-.467.028-.672zM32.933 61.048c-.784-.504-1.176-1.148-1.176-1.932 0-1.083.858-1.755 2.576-2.016.298 1.736.933 2.94 1.904 3.612.858.597 1.764.896 2.716.896.97 0 1.8-.29 2.492-.868.709-.597 1.064-1.568 1.064-2.912 0-1.008-.364-1.801-1.092-2.38-.71-.597-1.615-1.12-2.716-1.568a158.84 158.84 0 0 1-2.24-.924 23.028 23.028 0 0 1-1.512-.812c-.598-.355-1.046-.69-1.344-1.008-.747-.859-1.12-1.848-1.12-2.968 0-1.755.653-3.08 1.96-3.976 1.306-.896 3.126-1.344 5.46-1.344 1.325 0 2.865.15 4.62.448v4.144H43.6l-1.12-3.304a9.315 9.315 0 0 0-2.856-.448c-.952 0-1.783.308-2.492.924-.71.597-1.064 1.493-1.064 2.688 0 1.363.616 2.38 1.848 3.052.616.317 1.344.635 2.184.952.84.317 1.446.56 1.82.728.373.15.868.401 1.484.756.616.336 1.073.672 1.372 1.008.298.336.569.784.812 1.344a4.33 4.33 0 0 1 .364 1.792c0 1.587-.672 2.884-2.016 3.892-1.344 1.008-3.183 1.512-5.516 1.512-2.315 0-4.144-.43-5.488-1.288zM55.843 55.448c-2.166 0-3.528.57-4.088 1.708-.243.485-.364 1.092-.364 1.82 0 1.25.43 1.979 1.288 2.184.13.037.27.056.42.056.597 0 1.194-.308 1.792-.924.597-.635.914-1.447.952-2.436v-2.408zm-4.48-2.744c-.41.28-.84.42-1.288.42-.448 0-.83-.15-1.148-.448-.318-.299-.476-.737-.476-1.316 0-.597.177-1.13.532-1.596a3.163 3.163 0 0 1 1.372-1.036c1.101-.467 2.146-.7 3.136-.7 2.202 0 3.705.392 4.508 1.176.802.765 1.204 1.95 1.204 3.556v8.428l2.352.168v.616l-5.348.336-.252-2.352c-.878 1.587-2.39 2.38-4.536 2.38-.97 0-1.81-.29-2.52-.868-.69-.597-1.036-1.428-1.036-2.492.018-1.419.728-2.483 2.128-3.192 1.4-.728 3.35-1.092 5.852-1.092v-2.408c0-1.139-.159-2.016-.476-2.632-.318-.616-.906-.924-1.764-.924-.859 0-1.503.355-1.932 1.064-.28.467-.42.961-.42 1.484s.037.999.112 1.428zM70.228 48.336h5.376v.672l-1.988.588L69.08 62h-1.512l-5.236-12.796-1.26-.196v-.672H67.4v.672l-1.652.196 3.584 9.1 3.108-8.708-2.212-.56v-.7zM85.518 52.228c0-2.277-.793-3.416-2.38-3.416-1.661 0-2.67 1.456-3.024 4.368h5.348c.037-.373.056-.69.056-.952zm-2.632 10.08c-1.997 0-3.621-.653-4.872-1.96-1.232-1.307-1.848-3.033-1.848-5.18s.644-3.873 1.932-5.18c1.307-1.307 2.959-1.96 4.956-1.96 1.998 0 3.49.43 4.48 1.288.99.84 1.484 2.016 1.484 3.528 0 .43-.037.877-.112 1.344H80.03v.98c0 2.09.261 3.677.784 4.76.523 1.064 1.307 1.596 2.352 1.596 1.064 0 2.026-.215 2.884-.644.877-.448 1.559-1.073 2.044-1.876.41.13.616.327.616.588 0 .467-.438 1.008-1.316 1.624-.43.299-1.045.56-1.848.784-.784.205-1.67.308-2.66.308zM114.451 55.448c0 1.4-.196 2.53-.588 3.388-.392.84-.831 1.484-1.316 1.932-.467.448-1.111.821-1.932 1.12-.821.299-1.783.448-2.884.448-2.688 0-4.695-.513-6.02-1.54-1.307-1.045-1.96-2.697-1.96-4.956V44.22l-2.352-.252v-.672h8.512v.672l-2.436.252v11.06c0 2.09.364 3.63 1.092 4.62.728.97 1.932 1.456 3.612 1.456 1.68 0 2.921-.457 3.724-1.372.803-.933 1.204-2.53 1.204-4.788V44.388l-2.072-.28v-.812h5.684v.868l-2.268.224v11.06zM127.741 48.028c1.642 0 3.014.541 4.116 1.624 1.12 1.064 1.68 2.763 1.68 5.096 0 2.315-.654 4.163-1.96 5.544-1.288 1.363-3.146 2.044-5.572 2.044-1.083 0-2.007-.252-2.772-.756v6.608l1.932.168V69h-7.224v-.644l1.708-.168V49.316l-2.436-.14v-.644l5.936-.364-.084 2.352c1.026-1.661 2.585-2.492 4.676-2.492zm-4.508 4.312v8.232a3.893 3.893 0 0 0 2.548.924c.952 0 1.68-.205 2.184-.616.504-.43.868-1.027 1.092-1.792.392-1.25.588-2.875.588-4.872 0-3.547-.915-5.32-2.744-5.32-.971 0-1.83.392-2.576 1.176-.728.784-1.092 1.54-1.092 2.268zM140.648 62.308c-1.792 0-2.931-.625-3.416-1.876-.205-.541-.308-1.223-.308-2.044 0-3.099.047-6.207.14-9.324h-1.904v-.728h1.932l.028-4.116h3.584l-.084 4.116h3.92v.728h-3.92l-.056 2.268a451.947 451.947 0 0 0-.084 8.316c0 .728.075 1.223.224 1.484.168.261.457.392.868.392.429 0 .896-.29 1.4-.868a5.292 5.292 0 0 0 1.12-2.128c.373 0 .56.13.56.392a.806.806 0 0 1-.028.196c-.299.97-.812 1.745-1.54 2.324a3.744 3.744 0 0 1-2.436.868zM158.795 60.292c-1.307 1.344-3.09 2.016-5.348 2.016-2.259 0-4.042-.672-5.348-2.016-1.307-1.344-1.96-3.052-1.96-5.124 0-2.072.653-3.78 1.96-5.124 1.306-1.344 3.089-2.016 5.348-2.016 2.258 0 4.041.672 5.348 2.016 1.306 1.344 1.96 3.052 1.96 5.124 0 2.072-.654 3.78-1.96 5.124zm-8.764-5.124c0 4.312 1.138 6.468 3.416 6.468 2.277 0 3.416-2.156 3.416-6.468 0-2.11-.252-3.705-.756-4.788-.504-1.101-1.391-1.652-2.66-1.652-1.27 0-2.156.55-2.66 1.652-.504 1.083-.756 2.679-.756 4.788z" fill="#000"/>
    <path d="m175.477 62-5.04-8.792v-2.072h1.68c.672 0 1.26-.093 1.764-.28a3.34 3.34 0 0 0 1.288-.868c.355-.373.597-.821.728-1.344h-5.46v-2.072h5.432a3.389 3.389 0 0 0-.588-1.288 2.576 2.576 0 0 0-1.064-.868c-.429-.224-.952-.336-1.568-.336h-2.212v-2.072h12.628v2.072h-4.396c.317.355.579.737.784 1.148.224.41.373.859.448 1.344h3.164v2.072h-3.108c-.187 1.381-.719 2.464-1.596 3.248-.877.765-2.007 1.288-3.388 1.568l5.488 8.54h-4.984zM198.165 48.364l-9.184 19.348-1.736-.84 7.7-16.324h-9.52l.196-2.184h12.544zM206.573 62.308c-2.203 0-3.883-.803-5.04-2.408-1.139-1.605-1.708-3.92-1.708-6.944s.728-5.46 2.184-7.308c1.456-1.867 3.388-2.8 5.796-2.8 1.456 0 2.66.308 3.612.924.952.616 1.428 1.437 1.428 2.464 0 .728-.336 1.26-1.008 1.596-.336.15-.672.224-1.008.224a2.07 2.07 0 0 1-.98-.252 4.88 4.88 0 0 0 .14-1.232c0-.485-.112-1.008-.336-1.568-.373-.915-1.027-1.372-1.96-1.372-2.781 0-4.172 3.23-4.172 9.688 0 2.501.28 4.48.84 5.936.579 1.456 1.456 2.184 2.632 2.184.933 0 1.633-.42 2.1-1.26.467-.84.7-2.007.7-3.5 0-2.93-1.027-4.396-3.08-4.396-.616 0-1.4.187-2.352.56l-.336-.84c1.139-.71 2.445-1.064 3.92-1.064s2.753.457 3.836 1.372c1.101.896 1.652 2.221 1.652 3.976 0 1.736-.597 3.173-1.792 4.312-1.176 1.139-2.865 1.708-5.068 1.708zM230.621 55.168c0 2.053-.663 3.761-1.988 5.124-1.307 1.344-3.043 2.016-5.208 2.016-2.147 0-3.883-.672-5.208-2.016-1.326-1.363-1.988-3.07-1.988-5.124 0-2.053.662-3.752 1.988-5.096 1.325-1.363 3.061-2.044 5.208-2.044 2.165 0 3.901.681 5.208 2.044 1.325 1.344 1.988 3.043 1.988 5.096zm-10.528 0c0 2.053.28 3.65.84 4.788.56 1.12 1.39 1.68 2.492 1.68 1.12 0 1.95-.56 2.492-1.68.56-1.139.84-2.735.84-4.788 0-4.293-1.102-6.44-3.304-6.44-2.24 0-3.36 2.147-3.36 6.44zM247.875 55.168c0 2.053-.663 3.761-1.988 5.124-1.307 1.344-3.043 2.016-5.208 2.016-2.147 0-3.883-.672-5.208-2.016-1.326-1.363-1.988-3.07-1.988-5.124 0-2.053.662-3.752 1.988-5.096 1.325-1.363 3.061-2.044 5.208-2.044 2.165 0 3.901.681 5.208 2.044 1.325 1.344 1.988 3.043 1.988 5.096zm-10.528 0c0 2.053.28 3.65.84 4.788.56 1.12 1.39 1.68 2.492 1.68 1.12 0 1.95-.56 2.492-1.68.56-1.139.84-2.735.84-4.788 0-4.293-1.102-6.44-3.304-6.44-2.24 0-3.36 2.147-3.36 6.44z" fill="#9E1A22"/>
    <path d="M21.048 102h-8.232v-.672l2.268-.252-2.576-6.44h-6.3l-2.24 5.964 2.492.728V102H.608v-.672l2.128-.728 6.776-17.304h1.96l7.42 17.78 2.156.252V102zm-8.96-8.4-2.744-6.804L6.6 93.6h5.488z" fill="#000"/>
    <path d="m32.095 101.188.168-8.876c0-1.101-.14-1.904-.42-2.408-.28-.504-.84-.756-1.68-.756s-1.661.504-2.464 1.512c-.784.99-1.194 1.848-1.232 2.576v7.952l2.1.168V102h-7.504v-.644l1.848-.168V89.26l-2.296-.112v-.588l5.74-.336-.14 2.856h.28c.504-.933 1.186-1.652 2.044-2.156a5.238 5.238 0 0 1 2.772-.784c2.987 0 4.48 1.437 4.48 4.312 0 2.072-.065 4.984-.196 8.736l1.932.168V102h-6.776v-.644l1.344-.168zM49.923 101.188l.168-8.876c0-1.101-.14-1.904-.42-2.408-.28-.504-.84-.756-1.68-.756s-1.661.504-2.464 1.512c-.784.99-1.194 1.848-1.232 2.576v7.952l2.1.168V102h-7.504v-.644l1.848-.168V89.26l-2.296-.112v-.588l5.74-.336-.14 2.856h.28c.504-.933 1.186-1.652 2.044-2.156a5.238 5.238 0 0 1 2.772-.784c2.987 0 4.48 1.437 4.48 4.312 0 2.072-.065 4.984-.196 8.736l1.932.168V102H48.58v-.644l1.344-.168zM61.563 98.108c0 1.101.131 1.904.392 2.408.28.504.831.756 1.653.756.82 0 1.633-.513 2.435-1.54.803-1.027 1.204-1.913 1.204-2.66v-7.84l-2.212-.112v-.644l5.797-.364v12.992l2.268.112v.644l-5.74.336.14-2.8h-.28c-1.083 1.923-2.651 2.884-4.704 2.884-2.987 0-4.48-1.437-4.48-4.312s.102-5.787.307-8.736l-2.072-.112v-.644l5.572-.308c-.186 4.219-.28 7.532-.28 9.94zM82.311 95.448c-2.165 0-3.528.57-4.088 1.708-.242.485-.364 1.092-.364 1.82 0 1.251.43 1.979 1.288 2.184.131.037.271.056.42.056.598 0 1.195-.308 1.793-.924.597-.635.914-1.447.951-2.436v-2.408zm-4.48-2.744c-.41.28-.84.42-1.288.42-.448 0-.83-.15-1.148-.448-.317-.299-.475-.737-.475-1.316 0-.597.177-1.13.531-1.596a3.163 3.163 0 0 1 1.373-1.036c1.1-.467 2.146-.7 3.136-.7 2.202 0 3.705.392 4.508 1.176.802.765 1.203 1.95 1.203 3.556v8.428l2.352.168v.616l-5.347.336-.252-2.352c-.878 1.587-2.39 2.38-4.537 2.38-.97 0-1.81-.289-2.52-.868-.69-.597-1.035-1.428-1.035-2.492.018-1.419.728-2.483 2.128-3.192 1.4-.728 3.35-1.092 5.852-1.092v-2.408c0-1.139-.16-2.016-.477-2.632-.317-.616-.905-.924-1.763-.924-.86 0-1.503.355-1.933 1.064-.28.467-.42.961-.42 1.484s.038.999.113 1.428zM95.682 102h-7.224v-.644l1.82-.168V81.896l-2.408-.084v-.672l5.992-.644v20.692l1.82.168V102zM104.022 102h-7.224v-.644l1.82-.168V81.896l-2.408-.084v-.672l5.992-.644v20.692l1.82.168V102z" fill="#000"/>
    <path d="M113.678 88.336h5.348v.7l-1.96.56L112.53 102c-.784 2.053-1.615 3.733-2.492 5.04-1.064 1.587-2.352 2.38-3.864 2.38a2.54 2.54 0 0 1-.364-.028c-.616 0-1.111-.187-1.484-.56-.373-.355-.56-.831-.56-1.428 0-.579.261-1.167.784-1.764.616.691 1.288 1.036 2.016 1.036 1.027 0 1.895-.383 2.604-1.148.709-.747 1.372-1.923 1.988-3.528l-5.376-12.796-1.4-.28v-.588h6.468v.588l-1.652.252 3.584 9.128 3.108-8.708-2.212-.56v-.7zM127.105 86.656c0-1.213.103-2.072.308-2.576.28-.653.868-.98 1.764-.98.429 0 .943.056 1.54.168-.317 1.512-.607 3.752-.868 6.72l-.392 6.664c-.075.056-.224.093-.448.112a1.527 1.527 0 0 1-.728-.14c-.261-.112-.429-.317-.504-.616-.448-2.912-.672-6.03-.672-9.352zm3.64 13.692c0 .523-.196.989-.588 1.4-.373.392-.84.588-1.4.588a1.962 1.962 0 0 1-1.988-1.988c0-.56.196-1.036.588-1.428a1.912 1.912 0 0 1 1.4-.588c.541 0 1.008.205 1.4.616.392.392.588.859.588 1.4z" fill="#000"/>
</svg>
