<svg width="16" height="15" viewBox="0 0 16 15" xmlns="http://www.w3.org/2000/svg">
    <g fill="#414141" fill-rule="nonzero">
        <path d="M14.319 13.636H.682a.682.682 0 1 0 0 1.364h13.636a.682.682 0 1 0 0-1.364zM1.534 11.863a.682.682 0 1 0 0 1.364h11.932a.682.682 0 0 0 0-1.364h-.17V5.726h.17a.34.34 0 1 0 0-.681H1.534a.34.34 0 1 0 0 .681h.17v6.137h-.17zm10.398-6.137v6.137H9.887V5.726h2.045zm-3.41 0v6.137H6.478V5.726h2.046zm-5.454 0h2.046v6.137H3.068V5.726zM.682 4.432H14.325a.682.682 0 0 0 .221-1.328L7.781.06a.683.683 0 0 0-.56 0L.402 3.128a.682.682 0 0 0 .28 1.304z"/>
    </g>
</svg>
