<svg width="19" height="20" viewBox="0 0 19 20" xmlns="http://www.w3.org/2000/svg" xmlns:xlink="http://www.w3.org/1999/xlink">
    <defs>
        <path id="l3oqaum8va" d="M0 0h16.421v16.421H0z"/>
    </defs>
    <g fill="none" fill-rule="evenodd">
        <g transform="translate(2.579 2.263)">
            <mask id="aixcmlcmob" fill="#fff">
                <use xlink:href="#l3oqaum8va"/>
            </mask>
            <path d="M16.421 8.21A8.21 8.21 0 1 1 0 8.21a8.21 8.21 0 0 1 16.421 0" fill="#E9EAEB" mask="url(#aixcmlcmob)"/>
        </g>
        <path d="m14.822 11.207-1.857.881-.102.039a.733.733 0 0 0-.668-.39H10.3c-.434 0-1.094-.632-1.618-.632H6.827c-.764 0-1.446.625-1.83.983-.594.594-1.787 1.792-1.787 1.792l2.903 2.906c.475-.474 1.034-.944 1.518-.944h3.79c.591 0 1.18-.181 1.598-.6l3.143-3.142.893-2.233c-.544-.544-1.786.037-2.233 1.34" fill="#FFF"/>
        <path d="M8.895 13.632h3.3c.523 0 .805-.413.805-.936v-.006c0-.523-.282-.953-.805-.953H10.3c-.434 0-1.095-.632-1.617-.632H6.826c-.763 0-1.445.625-1.83.983L3.212 13.88l2.902 2.906c.475-.474 1.034-.944 1.519-.944h3.79c.59 0 1.18-.181 1.597-.6l3.143-3.142.893-2.233c-.544-.544-1.786.037-2.233 1.34l-1.857.881" stroke="#2A5082" stroke-linecap="round"/>
        <path fill="#A3D4FF" d="M2.895 13 1 14.895 5.105 19 7 17.105z"/>
        <path stroke="#2A5082" d="M2.895 13 1 14.895 5.105 19 7 17.105zM3.401 15.336l-.632-.632"/>
        <path stroke="#BCC0C4" d="M4.789 1.316v.631M4.789 2.579v.632M4.474 2.263h-.632M5.737 2.263h-.632M2.895 4.158v.631M2.895 5.421v.632M2.579 5.105h-.632M3.842 5.105h-.631M16.158 2.579l-.632.632M17.737 1l-.632.632M17.105 2.579l.632.632M15.526 1l.632.632"/>
        <path d="M8.895 4.158a1.263 1.263 0 1 0 0 2.526 1.263 1.263 0 0 0 0-2.526zM12.684 9.842h0a1.263 1.263 0 1 1 0-2.526 1.263 1.263 0 0 1 0 2.526zM8.263 9.842l5.053-5.684" stroke="#2A5082" stroke-linecap="round"/>
    </g>
</svg>
