<svg width="1496" height="839" viewBox="0 0 1496 839" xmlns="http://www.w3.org/2000/svg">
    <defs>
        <linearGradient x1="99.154%" y1="100%" x2="99.154%" y2="3.405%" id="eqbztqn2wa">
            <stop stop-color="#F2F6FE" offset="0%"/>
            <stop stop-color="#FFF" offset="100%"/>
        </linearGradient>
    </defs>
    <g fill="none" fill-rule="evenodd">
        <path d="M43.733 561.95c122.443 55.933 248.88 69.78 379.31 41.538 190.996-41.356 224.46-89.988 531.339-227.243 200.597-89.72 379.826-88.177 537.686 4.627-120.045-116.248-258.367-169.807-414.966-160.677-121.8 7.102-358.21 145.713-591.8 216.29-94.859 28.66-299.485 54.296-455.544-22.953-1.29-.638 3.369 48.834 13.975 148.417z" stroke="#474EBB" opacity=".3"/>
        <path d="M35.482 274.13h1445l-.753 484.393c-295.433 114.392-554.6 103.933-777.497-31.375-222.899-135.308-445.149-149.08-666.75-41.313V274.13z" fill="url(#eqbztqn2wa)" transform="matrix(1 0 0 -1 1.037 1113.13)"/>
    </g>
</svg>
