<svg width="30" height="30" viewBox="0 0 30 30" xmlns="http://www.w3.org/2000/svg">
    <defs>
        <linearGradient x1="50%" y1="100%" x2="50%" y2="0%" id="aast4p69qa">
            <stop stop-color="#FD3A84" offset="0%"/>
            <stop stop-color="#FFA68D" offset="100%"/>
        </linearGradient>
        <linearGradient x1="50%" y1="100%" x2="50%" y2="0%" id="cg5tw8v59b">
            <stop stop-color="#FFC2CC" offset="0%"/>
            <stop stop-color="#FFF2F4" offset="100%"/>
        </linearGradient>
    </defs>
    <g fill-rule="nonzero" fill="none">
        <path d="M11.426 0h-8.79A2.64 2.64 0 0 0 0 2.637v8.789a2.64 2.64 0 0 0 2.637 2.636h8.789a2.64 2.64 0 0 0 2.636-2.636v-8.79A2.64 2.64 0 0 0 11.427 0zm15.937 0h-8.789a2.64 2.64 0 0 0-2.637 2.637v8.789a2.64 2.64 0 0 0 2.637 2.636h8.79A2.64 2.64 0 0 0 30 11.427v-8.79A2.64 2.64 0 0 0 27.363 0zM11.426 15.938h-8.79A2.64 2.64 0 0 0 0 18.573v8.79A2.64 2.64 0 0 0 2.637 30h8.789a2.64 2.64 0 0 0 2.636-2.637v-8.789a2.64 2.64 0 0 0-2.636-2.637zm15.937 0h-8.789a2.64 2.64 0 0 0-2.637 2.636v8.79A2.64 2.64 0 0 0 18.575 30h8.79A2.64 2.64 0 0 0 30 27.363v-8.789a2.64 2.64 0 0 0-2.637-2.637z" fill="url(#aast4p69qa)"/>
        <path d="M20.332 7.91h5.273a.878.878 0 1 0 0-1.758h-5.273a.878.878 0 1 0 0 1.758zM9.668 6.152H7.91V4.395a.878.878 0 1 0-1.758 0v1.757H4.395a.878.878 0 1 0 0 1.758h1.757v1.758a.878.878 0 1 0 1.758 0V7.91h1.758a.878.878 0 1 0 0-1.758zm-.151 14.331a.879.879 0 0 0-1.243 0l-1.243 1.243-1.243-1.243a.879.879 0 1 0-1.242 1.243l1.242 1.243-1.242 1.243a.879.879 0 1 0 1.242 1.242l1.243-1.242 1.243 1.242a.879.879 0 1 0 1.243-1.242l-1.243-1.243 1.243-1.243a.879.879 0 0 0 0-1.243zm16.088-.151h-5.273a.878.878 0 1 0 0 1.758h5.273a.878.878 0 1 0 0-1.758zm0 3.516h-5.273a.878.878 0 1 0 0 1.757h5.273a.878.878 0 1 0 0-1.757z" fill="url(#cg5tw8v59b)"/>
    </g>
</svg>
