<svg width="50" height="50" viewBox="0 0 50 50" fill="none" xmlns="http://www.w3.org/2000/svg">
<path d="M45.1204 0H16.2329C13.5423 0 11.3533 2.19043 11.3533 4.88281V22.1365C4.89164 23.3999 0 29.1073 0 35.9375C0 43.6916 6.3043 50 14.0534 50H45.1204C47.811 50 50 47.8096 50 45.1172V4.88281C50 2.19033 47.811 0 45.1204 0V0ZM1.95186 35.9375C1.95186 29.2604 7.38055 23.8281 14.0534 23.8281C20.7262 23.8281 26.1549 29.2604 26.1549 35.9375C26.1549 42.6146 20.7262 48.0469 14.0534 48.0469C7.38055 48.0469 1.95186 42.6146 1.95186 35.9375ZM17.9896 21.6797V19.3359C17.9896 18.7975 18.4274 18.3594 18.9655 18.3594H21.3077C21.8459 18.3594 22.2837 18.7975 22.2837 19.3359V21.6797C22.2837 22.2182 21.8459 22.6562 21.3077 22.6562H18.9655C18.4274 22.6562 17.9896 22.2182 17.9896 21.6797ZM48.0481 45.1172C48.0481 46.7326 46.7347 48.0469 45.1204 48.0469H21.1904C23.4842 46.688 25.361 44.6961 26.5777 42.3124V42.7734C26.5777 44.3889 27.8911 45.7031 29.5055 45.7031H31.8477C33.4621 45.7031 34.7755 44.3889 34.7755 42.7734V40.4297C34.7755 38.8143 33.4621 37.5 31.8477 37.5H29.5055C28.94 37.5 28.4117 37.6617 27.9635 37.9408C28.0571 37.2862 28.1067 36.6176 28.1067 35.9375C28.1067 35.5448 28.0897 35.1562 28.058 34.7716C28.4853 35.0158 28.9792 35.1562 29.5055 35.1562H31.8477C33.4621 35.1562 34.7755 33.842 34.7755 32.2266V29.8828C34.7755 28.2674 33.4621 26.9531 31.8477 26.9531H29.5055C27.9893 26.9531 26.7388 28.1125 26.5923 29.5918C25.5561 27.5502 24.037 25.7937 22.1857 24.4746C23.3724 24.1005 24.2355 22.9892 24.2355 21.6797V19.3359C24.2355 17.7205 22.9221 16.4062 21.3077 16.4062H18.9655C17.3511 16.4062 16.0377 17.7205 16.0377 19.3359V21.6797C16.0377 21.7944 16.045 21.9073 16.0579 22.0187C15.403 21.9246 14.7339 21.875 14.0534 21.875C13.8024 21.875 13.5529 21.8819 13.3051 21.895V4.88281C13.3051 3.26738 14.6185 1.95312 16.2329 1.95312H45.1204C46.7347 1.95312 48.0481 3.26738 48.0481 4.88281V45.1172ZM28.5296 42.7734V40.4297C28.5296 39.8912 28.9674 39.4531 29.5055 39.4531H31.8477C32.3859 39.4531 32.8237 39.8912 32.8237 40.4297V42.7734C32.8237 43.3119 32.3859 43.75 31.8477 43.75H29.5055C28.9674 43.75 28.5296 43.3119 28.5296 42.7734ZM28.5296 32.2266V29.8828C28.5296 29.3443 28.9674 28.9062 29.5055 28.9062H31.8477C32.3859 28.9062 32.8237 29.3443 32.8237 29.8828V32.2266C32.8237 32.765 32.3859 33.2031 31.8477 33.2031H29.5055C28.9674 33.2031 28.5296 32.765 28.5296 32.2266Z" fill="black"/>
<path d="M44.3395 4.29688H35.0682C34.5293 4.29688 34.0923 4.73408 34.0923 5.27344C34.0923 5.81279 34.5293 6.25 35.0682 6.25H43.3636V12.1094H17.9895V6.25H26.2848C26.8237 6.25 27.2608 5.81279 27.2608 5.27344C27.2608 4.73408 26.8237 4.29688 26.2848 4.29688H17.0135C16.4746 4.29688 16.0376 4.73408 16.0376 5.27344V13.0859C16.0376 13.6253 16.4746 14.0625 17.0135 14.0625H44.3395C44.8784 14.0625 45.3154 13.6253 45.3154 13.0859V5.27344C45.3154 4.73408 44.8784 4.29688 44.3395 4.29688Z" fill="black"/>
<path d="M31.8476 16.4067H29.5054C27.891 16.4067 26.5776 17.721 26.5776 19.3364V21.6802C26.5776 23.2956 27.891 24.6099 29.5054 24.6099H31.8476C33.462 24.6099 34.7754 23.2956 34.7754 21.6802V19.3364C34.7754 17.721 33.462 16.4067 31.8476 16.4067ZM32.8236 21.6802C32.8236 22.2187 32.3858 22.6567 31.8476 22.6567H29.5054C28.9673 22.6567 28.5295 22.2187 28.5295 21.6802V19.3364C28.5295 18.7979 28.9673 18.3599 29.5054 18.3599H31.8476C32.3858 18.3599 32.8236 18.7979 32.8236 19.3364V21.6802Z" fill="black"/>
<path d="M42.3877 16.4067H40.0455C38.4311 16.4067 37.1177 17.721 37.1177 19.3364V21.6802C37.1177 23.2956 38.4311 24.6099 40.0455 24.6099H42.3877C44.0021 24.6099 45.3155 23.2956 45.3155 21.6802V19.3364C45.3155 17.721 44.0021 16.4067 42.3877 16.4067ZM43.3636 21.6802C43.3636 22.2187 42.9258 22.6567 42.3877 22.6567H40.0455C39.5073 22.6567 39.0695 22.2187 39.0695 21.6802V19.3364C39.0695 18.7979 39.5073 18.3599 40.0455 18.3599H42.3877C42.9258 18.3599 43.3636 18.7979 43.3636 19.3364V21.6802Z" fill="black"/>
<path d="M42.3877 26.9536H40.0455C38.4311 26.9536 37.1177 28.2679 37.1177 29.8833V42.7739C37.1177 44.3894 38.4311 45.7036 40.0455 45.7036H42.3877C44.0021 45.7036 45.3155 44.3894 45.3155 42.7739V29.8833C45.3155 28.2679 44.0021 26.9536 42.3877 26.9536ZM43.3636 42.7739C43.3636 43.3124 42.9258 43.7505 42.3877 43.7505H40.0455C39.5073 43.7505 39.0695 43.3124 39.0695 42.7739V29.8833C39.0695 29.3448 39.5073 28.9067 40.0455 28.9067H42.3877C42.9258 28.9067 43.3636 29.3448 43.3636 29.8833V42.7739Z" fill="black"/>
<path d="M30.6766 6.25C30.9333 6.25 31.1851 6.14551 31.3665 5.96387C31.548 5.78223 31.6525 5.53027 31.6525 5.27344C31.6525 5.0166 31.5481 4.76465 31.3665 4.58301C31.1851 4.40137 30.9333 4.29688 30.6766 4.29688C30.4199 4.29688 30.1682 4.40137 29.9866 4.58301C29.8051 4.76465 29.7007 5.0166 29.7007 5.27344C29.7007 5.53027 29.805 5.78223 29.9866 5.96387C30.1682 6.14551 30.4199 6.25 30.6766 6.25Z" fill="black"/>
<path d="M17.2353 29.5104C16.7506 29.2749 16.1665 29.477 15.9311 29.9622L10.5612 41.0272C10.3257 41.5123 10.5279 42.0967 11.0127 42.3323C11.15 42.399 11.2953 42.4306 11.4383 42.4306C11.8003 42.4306 12.1481 42.2282 12.3169 41.8804L17.6868 30.8155C17.9224 30.3303 17.7202 29.746 17.2353 29.5104V29.5104Z" fill="black"/>
<path d="M11.5866 28.9623C10.3688 27.7437 8.38721 27.7436 7.16925 28.9623C5.95139 30.1809 5.95139 32.1639 7.16925 33.3825C7.77823 33.9918 8.5781 34.2964 9.37788 34.2964C10.1777 34.2964 10.9777 33.9917 11.5866 33.3825C12.8044 32.1639 12.8044 30.1809 11.5866 28.9623V28.9623ZM10.2063 32.0015C9.74951 32.4585 9.00624 32.4587 8.54941 32.0015C8.09248 31.5443 8.09248 30.8006 8.54941 30.3434C8.77778 30.1148 9.07778 30.0006 9.37788 30.0006C9.67788 30.0006 9.97788 30.1148 10.2062 30.3434C10.6633 30.8006 10.6633 31.5443 10.2063 32.0015V32.0015Z" fill="black"/>
<path d="M16.6937 38.493C15.4758 39.7116 15.4758 41.6945 16.6937 42.9132C17.3025 43.5225 18.1025 43.8272 18.9023 43.8272C19.7022 43.8272 20.5021 43.5225 21.111 42.9132C22.3289 41.6945 22.3289 39.7116 21.111 38.493C19.893 37.2744 17.9114 37.2745 16.6937 38.493ZM19.7308 41.532C19.2739 41.9894 18.5305 41.9892 18.0738 41.532C17.6169 41.0749 17.6169 40.3312 18.0738 39.874C18.3022 39.6455 18.6022 39.5312 18.9023 39.5312C19.2023 39.5312 19.5023 39.6454 19.7307 39.874C20.1876 40.3312 20.1876 41.0749 19.7308 41.532Z" fill="black"/>
</svg>
