<svg width="16" height="16" viewBox="0 0 16 16" fill="none" xmlns="http://www.w3.org/2000/svg">
<path d="M13.6415 2.27296C12.1239 0.812676 10.094 0.00598909 7.98807 0.0262516C5.88209 0.0465141 3.8681 0.892109 2.37889 2.38133C0.889667 3.87054 0.0440727 5.88453 0.0238102 7.99051C0.00354768 10.0965 0.810235 12.1264 2.27052 13.644C3.29806 14.6705 4.58411 15.4001 5.99246 15.7553C7.4008 16.1106 8.87901 16.0783 10.2705 15.662C10.4701 15.602 10.6377 15.4653 10.7364 15.2818C10.8352 15.0983 10.857 14.883 10.797 14.6835C10.7371 14.4839 10.6003 14.3163 10.4168 14.2176C10.2333 14.1188 10.0181 14.097 9.81852 14.157C8.85225 14.4464 7.83171 14.5061 6.83828 14.3313C5.84486 14.1564 4.90601 13.7519 4.0966 13.15C3.28719 12.5481 2.62961 11.7654 2.17628 10.8643C1.72295 9.96319 1.48641 8.96866 1.48552 7.95996C1.48737 6.24449 2.1696 4.59979 3.38253 3.38668C4.59546 2.17356 6.24005 1.49108 7.95552 1.48896C9.67117 1.49055 11.3161 2.17266 12.5295 3.38562C13.7428 4.59857 14.4254 6.24332 14.4275 7.95896C14.4297 9.22046 14.0615 10.4548 13.3685 11.509C13.2541 11.6831 13.2135 11.8955 13.2557 12.0996C13.2979 12.3036 13.4194 12.4825 13.5935 12.597C13.7676 12.7114 13.9801 12.752 14.1841 12.7098C14.3882 12.6676 14.5671 12.5461 14.6815 12.372C15.6951 10.8256 16.145 8.97736 15.9556 7.13819C15.7662 5.29902 14.949 3.58125 13.6415 2.27396V2.27296Z" fill="#F77700"/>
<path d="M7.17188 4.12606V9.12106C7.17188 9.32939 7.25463 9.52919 7.40194 9.6765C7.54925 9.82381 7.74905 9.90656 7.95738 9.90656C8.1657 9.90656 8.3655 9.82381 8.51281 9.6765C8.66012 9.52919 8.74288 9.32939 8.74288 9.12106V4.12606C8.74288 3.91787 8.66017 3.7182 8.51295 3.57099C8.36574 3.42377 8.16607 3.34106 7.95788 3.34106C7.74968 3.34106 7.55001 3.42377 7.4028 3.57099C7.25558 3.7182 7.17287 3.91787 7.17287 4.12606H7.17188ZM7.95788 12.5761C7.85479 12.5761 7.75271 12.5558 7.65747 12.5163C7.56223 12.4769 7.47569 12.419 7.4028 12.3461C7.3299 12.2732 7.27208 12.1867 7.23263 12.0915C7.19318 11.9962 7.17287 11.8942 7.17287 11.7911C7.17287 11.688 7.19318 11.5859 7.23263 11.4907C7.27208 11.3954 7.3299 11.3089 7.4028 11.236C7.47569 11.1631 7.56223 11.1053 7.65747 11.0658C7.75271 11.0264 7.85479 11.0061 7.95788 11.0061C8.16607 11.0061 8.36574 11.0888 8.51295 11.236C8.66017 11.3832 8.74288 11.5829 8.74288 11.7911C8.74288 11.9993 8.66017 12.1989 8.51295 12.3461C8.36574 12.4934 8.16607 12.5761 7.95788 12.5761V12.5761Z" fill="#F77700"/>
</svg>
