<svg width="353" height="217" viewBox="0 0 353 217" fill="none" xmlns="http://www.w3.org/2000/svg">
    <path fill-rule="evenodd" clip-rule="evenodd" d="M277.134 25.709c-1.687 6.096-1.208 13.014-.995 19.19.261 7.626 1.796 15.29 4.821 22.31 5.564 12.917 16.388 23.842 29.847 27.953 6.471 1.977 13.725 2.307 19.816-.638 5.933-2.87 10.163-8.614 12.154-14.892 2.562-8.077 1.312-17.787-4.837-23.62-6.604-6.262-17.329-7.03-23.211-13.975-2.862-3.38-4.16-7.78-6.328-11.643a28.902 28.902 0 0 0-11.55-11.3c-4.352-2.318-11.124-3.788-15.465-.65-1.671 1.208-2.757 3.07-3.503 4.992-.287.743-.535 1.501-.749 2.273z" fill="#F6F9FF"/>
    <path fill-rule="evenodd" clip-rule="evenodd" d="M23 28.125a3.457 3.457 0 0 1-3.46 3.456 3.458 3.458 0 0 1-3.458-3.456 3.458 3.458 0 0 1 3.459-3.456A3.457 3.457 0 0 1 23 28.125zM38.674 28.125a3.457 3.457 0 0 1-3.458 3.456 3.458 3.458 0 0 1-3.46-3.456 3.458 3.458 0 0 1 3.46-3.456 3.457 3.457 0 0 1 3.458 3.456zM54.35 28.125a3.457 3.457 0 0 1-3.46 3.456 3.458 3.458 0 0 1-3.458-3.456 3.458 3.458 0 0 1 3.459-3.456 3.457 3.457 0 0 1 3.459 3.456zM70.025 28.125a3.458 3.458 0 0 1-3.459 3.456 3.458 3.458 0 0 1-3.459-3.456 3.458 3.458 0 0 1 3.46-3.456 3.458 3.458 0 0 1 3.458 3.456zM23 40.558a3.457 3.457 0 0 1-3.46 3.456 3.458 3.458 0 0 1-3.458-3.456 3.457 3.457 0 0 1 3.459-3.456A3.457 3.457 0 0 1 23 40.558zM38.674 40.558a3.457 3.457 0 0 1-3.458 3.456 3.458 3.458 0 0 1-3.46-3.456 3.457 3.457 0 0 1 3.46-3.456 3.457 3.457 0 0 1 3.458 3.456zM54.35 40.558a3.457 3.457 0 0 1-3.46 3.456 3.458 3.458 0 0 1-3.458-3.456 3.457 3.457 0 0 1 3.459-3.456 3.457 3.457 0 0 1 3.459 3.456zM70.025 40.558a3.458 3.458 0 0 1-3.459 3.456 3.458 3.458 0 0 1-3.459-3.456 3.457 3.457 0 0 1 3.46-3.456 3.457 3.457 0 0 1 3.458 3.456zM23 52.99a3.457 3.457 0 0 1-3.46 3.457 3.458 3.458 0 0 1-3.458-3.456 3.457 3.457 0 0 1 3.459-3.456A3.457 3.457 0 0 1 23 52.99zM38.674 52.99a3.457 3.457 0 0 1-3.458 3.457 3.458 3.458 0 0 1-3.46-3.456 3.457 3.457 0 0 1 3.46-3.456 3.457 3.457 0 0 1 3.458 3.456zM54.35 52.99a3.457 3.457 0 0 1-3.46 3.457 3.458 3.458 0 0 1-3.458-3.456 3.457 3.457 0 0 1 3.459-3.456 3.457 3.457 0 0 1 3.459 3.456zM70.025 52.99a3.458 3.458 0 0 1-3.459 3.457 3.458 3.458 0 0 1-3.459-3.456 3.457 3.457 0 0 1 3.46-3.456 3.457 3.457 0 0 1 3.458 3.456zM23 65.424a3.457 3.457 0 0 1-3.46 3.456 3.458 3.458 0 0 1-3.458-3.456 3.458 3.458 0 0 1 3.459-3.457A3.457 3.457 0 0 1 23 65.424zM38.674 65.424a3.457 3.457 0 0 1-3.458 3.456 3.458 3.458 0 0 1-3.46-3.456 3.458 3.458 0 0 1 3.46-3.457 3.457 3.457 0 0 1 3.458 3.457zM54.35 65.424a3.457 3.457 0 0 1-3.46 3.456 3.458 3.458 0 0 1-3.458-3.456 3.458 3.458 0 0 1 3.459-3.457 3.457 3.457 0 0 1 3.459 3.457zM70.025 65.424a3.458 3.458 0 0 1-3.459 3.456 3.458 3.458 0 0 1-3.459-3.456 3.458 3.458 0 0 1 3.46-3.457 3.458 3.458 0 0 1 3.458 3.457zM23 77.856a3.457 3.457 0 0 1-3.46 3.457 3.458 3.458 0 0 1-3.458-3.457 3.457 3.457 0 0 1 3.459-3.456A3.457 3.457 0 0 1 23 77.856zM38.674 77.856a3.457 3.457 0 0 1-3.458 3.457 3.458 3.458 0 0 1-3.46-3.457 3.457 3.457 0 0 1 3.46-3.456 3.457 3.457 0 0 1 3.458 3.456zM54.35 77.856a3.457 3.457 0 0 1-3.46 3.457 3.458 3.458 0 0 1-3.458-3.457 3.457 3.457 0 0 1 3.459-3.456 3.457 3.457 0 0 1 3.459 3.456zM70.025 77.856a3.458 3.458 0 0 1-3.459 3.457 3.458 3.458 0 0 1-3.459-3.457 3.457 3.457 0 0 1 3.46-3.456 3.457 3.457 0 0 1 3.458 3.456zM23 90.29a3.458 3.458 0 0 1-3.46 3.455 3.458 3.458 0 0 1-3.458-3.456 3.458 3.458 0 0 1 3.459-3.456A3.457 3.457 0 0 1 23 90.289zM38.674 90.29a3.458 3.458 0 0 1-3.458 3.455 3.458 3.458 0 0 1-3.46-3.456 3.458 3.458 0 0 1 3.46-3.456 3.457 3.457 0 0 1 3.458 3.456zM54.35 90.29a3.458 3.458 0 0 1-3.46 3.455 3.458 3.458 0 0 1-3.458-3.456 3.458 3.458 0 0 1 3.459-3.456 3.457 3.457 0 0 1 3.459 3.456zM70.025 90.29a3.458 3.458 0 0 1-3.459 3.455 3.458 3.458 0 0 1-3.459-3.456 3.458 3.458 0 0 1 3.46-3.456 3.458 3.458 0 0 1 3.458 3.456zM23 102.721a3.457 3.457 0 0 1-3.46 3.456 3.457 3.457 0 1 1 0-6.911A3.457 3.457 0 0 1 23 102.72zM38.674 102.721a3.457 3.457 0 0 1-3.458 3.456 3.457 3.457 0 1 1 0-6.911 3.457 3.457 0 0 1 3.458 3.455zM54.35 102.721a3.457 3.457 0 0 1-3.46 3.456 3.457 3.457 0 1 1 0-6.911 3.457 3.457 0 0 1 3.46 3.455zM70.025 102.721a3.457 3.457 0 0 1-3.459 3.456 3.457 3.457 0 1 1 0-6.911 3.457 3.457 0 0 1 3.459 3.455z" fill="#EAF2FC"/>
    <path fill-rule="evenodd" clip-rule="evenodd" d="M11.299 216.351H332.44c5.517-14.255 11.525-28.961 13.163-44.155 1.638-15.195-1.086-31.473-10.676-43.378-8.77-10.888-22.064-16.883-33.563-24.845a109.82 109.82 0 0 1-29.216-29.944c-9.122-13.898-15.097-29.891-25.916-42.516-8.409-9.815-19.423-17.153-31.146-22.604-22.628-10.52-51.412-13.504-71.097 1.825-10.774 8.391-17.347 21.164-21.223 34.253-3.875 13.089-5.36 26.744-7.93 40.15-3.979 20.772-13.006 43.684-32.933 50.812-8.015 2.865-16.697 2.703-25.351 2.542-9.566-.18-19.097-.36-27.654 3.551-6.976 3.188-12.578 8.86-16.872 15.212-11.557 17.093-8.358 39.929-.727 59.097z" fill="#F6F9FF"/>
    <mask id="10dnoesqma" style="mask-type:alpha" maskUnits="userSpaceOnUse" x="4" y="0" width="343" height="217">
        <path d="M11.299 216.351H332.44c5.517-14.255 11.525-28.961 13.163-44.155 1.638-15.195-1.086-31.473-10.676-43.378-8.77-10.888-22.064-16.883-33.563-24.845a109.82 109.82 0 0 1-29.216-29.944c-9.122-13.898-15.097-29.891-25.916-42.516-8.409-9.815-19.423-17.153-31.146-22.604-22.628-10.52-51.412-13.504-71.097 1.825-10.774 8.391-17.347 21.164-21.223 34.253-3.875 13.089-5.36 26.744-7.93 40.15-3.979 20.772-13.006 43.684-32.933 50.812-8.015 2.865-16.697 2.703-25.351 2.542-9.566-.18-19.097-.36-27.654 3.551-6.976 3.188-12.578 8.86-16.872 15.212-11.557 17.093-8.358 39.929-.727 59.097z" fill="#fff"/>
    </mask>
    <g mask="url(#10dnoesqma)">
        <path fill-rule="evenodd" clip-rule="evenodd" d="M332.44 216.351h-56.711a4.227 4.227 0 0 0 4.228-4.226v-29.113c19.105 7.077 37.258 16.761 54.906 27.092-.807 2.091-1.621 4.174-2.423 6.247zm-157.441 0h-163.7c-4.054-10.184-6.857-21.402-6.861-32.243-.004-9.567 2.17-18.841 7.588-26.854 3.108-4.598 6.902-8.84 11.406-12.041 5.328.139 10.667 1.148 15.819 2.57 15.737 4.342 30.388 12.559 42.295 23.718 10.208 9.569 19.083 21.679 32.371 26.066 3.716 1.226 7.565 1.759 11.445 1.759 7.421 0 14.957-1.949 21.903-4.726 8.076-3.228 15.673-7.531 23.505-11.31v28.835a4.227 4.227 0 0 0 4.229 4.226z" fill="#EFF3FF"/>
    </g>
    <path fill-rule="evenodd" clip-rule="evenodd" d="M272.961 216.595h19.943c17.75 0 28.473-21.934 35.678-38.143-12.158 3.238-23.704 9.24-32.981 17.733 7.602-16.226 11.181-34.318 10.329-52.214-9.47 10.547-16.872 23.118-21.397 36.545-.027-21.777-1.484-44.428-12.025-63.487-5.195 22.473-10.315 45.94-6.418 68.674 1.712 9.993 3.364 21.379 6.871 30.892z" fill="#EAF2FC"/>
    <path fill-rule="evenodd" clip-rule="evenodd" d="M66.735 122.726c-1.021.271-31.288 25.27-31.288 25.27l4.093 27.275 66.898-10.023-4.092-27.275s-34.59-15.518-35.61-15.247z" fill="#6880E4"/>
    <path fill-rule="evenodd" clip-rule="evenodd" d="m96.35 167.161-48.824 7.314a1.889 1.889 0 0 1-2.15-1.586l-5.988-39.91a1.89 1.89 0 0 1 1.59-2.149l48.823-7.314a1.89 1.89 0 0 1 2.15 1.587l5.988 39.91a1.889 1.889 0 0 1-1.589 2.148z" fill="#EAF2FC"/>
    <path fill-rule="evenodd" clip-rule="evenodd" d="m87.546 133.542-41.47 6.213a.39.39 0 0 1-.443-.328l-.243-1.619a.388.388 0 0 1 .327-.442l41.47-6.214a.391.391 0 0 1 .444.328l.243 1.618a.391.391 0 0 1-.328.444zM88.172 137.712l-41.47 6.213a.389.389 0 0 1-.443-.327l-.243-1.619a.39.39 0 0 1 .327-.443l41.47-6.212a.388.388 0 0 1 .443.326l.243 1.62a.388.388 0 0 1-.327.442zM88.798 141.884l-41.47 6.212a.388.388 0 0 1-.444-.326l-.242-1.62a.388.388 0 0 1 .327-.442l41.47-6.214a.39.39 0 0 1 .443.327l.243 1.62a.39.39 0 0 1-.327.443zM89.424 146.054l-41.47 6.214a.391.391 0 0 1-.444-.328l-.242-1.618a.39.39 0 0 1 .327-.444l41.47-6.213a.39.39 0 0 1 .443.328l.243 1.618a.389.389 0 0 1-.327.443zM90.05 150.225l-41.471 6.213a.388.388 0 0 1-.443-.326l-.243-1.62a.389.389 0 0 1 .328-.442l41.47-6.213a.388.388 0 0 1 .443.326l.243 1.62a.39.39 0 0 1-.328.442zM90.675 154.396l-41.47 6.214a.391.391 0 0 1-.443-.328l-.243-1.618a.39.39 0 0 1 .328-.444l41.47-6.213a.39.39 0 0 1 .443.328l.243 1.618a.39.39 0 0 1-.328.443z" fill="#fff"/>
    <path fill-rule="evenodd" clip-rule="evenodd" d="M36.033 151.901s32.809 14.813 35.67 13.957c2.86-.855 31.229-23.98 31.229-23.98l6.479 43.185a1.58 1.58 0 0 1-1.33 1.798l-63.77 9.554a1.581 1.581 0 0 1-1.798-1.329l-6.48-43.185z" fill="#D4DFFF"/>
    <path fill-rule="evenodd" clip-rule="evenodd" d="m58.34 176.635-14.611 2.19a.363.363 0 0 1-.412-.305l-.624-4.157a.364.364 0 0 1 .305-.413l14.61-2.188a.362.362 0 0 1 .413.304l.624 4.157a.363.363 0 0 1-.305.412zM102.998 166.866l-22.083 3.309a.249.249 0 0 1-.28-.208l-.207-1.374a.248.248 0 0 1 .208-.281l22.082-3.308a.248.248 0 0 1 .281.208l.206 1.373a.247.247 0 0 1-.207.281z" fill="#8C9EF4"/>
    <path fill-rule="evenodd" clip-rule="evenodd" d="m103.402 169.565-22.082 3.308a.248.248 0 0 1-.281-.208l-.206-1.373a.246.246 0 0 1 .208-.281l22.081-3.31a.25.25 0 0 1 .282.209l.206 1.374a.248.248 0 0 1-.208.281zM103.807 172.263l-22.082 3.309a.248.248 0 0 1-.281-.208l-.206-1.373a.25.25 0 0 1 .208-.283l22.081-3.307a.246.246 0 0 1 .281.208l.207 1.373a.247.247 0 0 1-.208.281zM104.212 174.962 82.13 178.27a.249.249 0 0 1-.281-.209l-.206-1.373a.247.247 0 0 1 .208-.281l22.082-3.307a.245.245 0 0 1 .281.206l.207 1.375a.248.248 0 0 1-.209.281zM178.919 216.351c-.072-4.299-.143-8.67-.214-12.967-.12-7.253-.25-14.576-1.975-21.62-1.965-8.02-5.924-15.389-9.845-22.656l-12.855-23.831c-4.003 13.023-8.038 26.84-4.741 40.059a147.181 147.181 0 0 0-18.996-18.572c1.94 14.721 9.493 28.632 20.787 38.282a57.884 57.884 0 0 0-19.818-6.693c9.707 14.056 24.692 23.936 41.292 27.998h6.365z" fill="#EAF2FC"/>
    <path fill-rule="evenodd" clip-rule="evenodd" d="M299.231 189.419c-14.749 0-26.749-11.991-26.749-26.73s12-26.729 26.749-26.729c14.751 0 26.75 11.99 26.75 26.729 0 14.739-11.999 26.73-26.75 26.73zm46.676-34.032h-7.287a39.545 39.545 0 0 0-6.369-15.365l5.154-5.15a1.66 1.66 0 0 0 0-2.347l-7.986-7.98a1.663 1.663 0 0 0-2.35 0l-5.153 5.15a39.588 39.588 0 0 0-15.377-6.364v-7.283a1.66 1.66 0 0 0-1.66-1.66h-11.294c-.917 0-1.662.743-1.662 1.66v7.283a39.577 39.577 0 0 0-15.376 6.364l-5.154-5.15a1.661 1.661 0 0 0-2.348 0l-7.986 7.98a1.658 1.658 0 0 0 0 2.347l5.152 5.15a39.543 39.543 0 0 0-6.368 15.365h-7.288a1.66 1.66 0 0 0-1.661 1.66v11.285a1.66 1.66 0 0 0 1.661 1.659h7.288a39.553 39.553 0 0 0 6.368 15.366l-5.152 5.149a1.658 1.658 0 0 0 0 2.347l7.986 7.98a1.663 1.663 0 0 0 2.348 0l5.154-5.15a39.579 39.579 0 0 0 15.376 6.365v7.283c0 .916.745 1.659 1.662 1.659h11.294a1.66 1.66 0 0 0 1.66-1.659v-7.283a39.59 39.59 0 0 0 15.377-6.365l5.153 5.15a1.665 1.665 0 0 0 2.35 0l7.986-7.98a1.66 1.66 0 0 0 0-2.347l-5.154-5.149a39.555 39.555 0 0 0 6.369-15.366h7.287c.918 0 1.663-.743 1.663-1.659v-11.285c0-.917-.745-1.66-1.663-1.66z" fill="#D40221"/>
    <path fill-rule="evenodd" clip-rule="evenodd" d="M296.65 189.419c-14.749 0-26.749-11.991-26.749-26.73s12-26.729 26.749-26.729c14.751 0 26.75 11.99 26.75 26.729 0 14.739-11.999 26.73-26.75 26.73zm46.678-34.032h-7.289a39.545 39.545 0 0 0-6.369-15.365l5.154-5.15a1.662 1.662 0 0 0 0-2.347l-7.986-7.98a1.663 1.663 0 0 0-2.35 0l-5.153 5.15a39.588 39.588 0 0 0-15.377-6.364v-7.283a1.66 1.66 0 0 0-1.661-1.66h-11.293c-.917 0-1.662.743-1.662 1.66v7.283a39.577 39.577 0 0 0-15.376 6.364l-5.154-5.15a1.661 1.661 0 0 0-2.348 0l-7.986 7.98a1.658 1.658 0 0 0 0 2.347l5.152 5.15a39.543 39.543 0 0 0-6.368 15.365h-7.288a1.66 1.66 0 0 0-1.661 1.66v11.285a1.66 1.66 0 0 0 1.661 1.659h7.288a39.553 39.553 0 0 0 6.368 15.366l-5.152 5.149a1.658 1.658 0 0 0 0 2.347l7.986 7.98a1.663 1.663 0 0 0 2.348 0l5.154-5.15a39.579 39.579 0 0 0 15.376 6.365v7.283c0 .916.745 1.659 1.662 1.659h11.293a1.66 1.66 0 0 0 1.661-1.659v-7.283a39.59 39.59 0 0 0 15.377-6.365l5.153 5.15c.649.647 1.7.647 2.35 0l7.986-7.98a1.662 1.662 0 0 0 0-2.347l-5.154-5.149a39.555 39.555 0 0 0 6.369-15.366h7.289c.916 0 1.661-.743 1.661-1.659v-11.285c0-.917-.745-1.66-1.661-1.66z" fill="#FC476A"/>
    <mask id="ft6h70fk6b" style="mask-type:alpha" maskUnits="userSpaceOnUse" x="248" y="114" width="97" height="97">
        <path d="M296.65 189.419c-14.749 0-26.749-11.991-26.749-26.73s12-26.729 26.749-26.729c14.751 0 26.75 11.99 26.75 26.729 0 14.739-11.999 26.73-26.75 26.73zm46.678-34.032h-7.289a39.545 39.545 0 0 0-6.369-15.365l5.154-5.15a1.66 1.66 0 0 0 0-2.347l-7.986-7.98a1.663 1.663 0 0 0-2.35 0l-5.153 5.15a39.588 39.588 0 0 0-15.377-6.364v-7.283a1.66 1.66 0 0 0-1.661-1.66h-11.293c-.917 0-1.662.743-1.662 1.66v7.283a39.577 39.577 0 0 0-15.376 6.364l-5.154-5.15a1.661 1.661 0 0 0-2.348 0l-7.986 7.98a1.658 1.658 0 0 0 0 2.347l5.152 5.15a39.543 39.543 0 0 0-6.368 15.365h-7.288a1.66 1.66 0 0 0-1.661 1.66v11.285a1.66 1.66 0 0 0 1.661 1.659h7.288a39.553 39.553 0 0 0 6.368 15.366l-5.152 5.149a1.658 1.658 0 0 0 0 2.347l7.986 7.98a1.663 1.663 0 0 0 2.348 0l5.154-5.15a39.579 39.579 0 0 0 15.376 6.365v7.283c0 .916.745 1.659 1.662 1.659h11.293a1.66 1.66 0 0 0 1.661-1.659v-7.283a39.62 39.62 0 0 0 15.377-6.365l5.153 5.15c.649.647 1.7.647 2.35 0l7.986-7.98a1.66 1.66 0 0 0 0-2.347l-5.154-5.149a39.555 39.555 0 0 0 6.369-15.366h7.289c.916 0 1.661-.743 1.661-1.659v-11.285c0-.917-.745-1.66-1.661-1.66z" fill="#fff"/>
    </mask>
    <g mask="url(#ft6h70fk6b)">
        <path fill-rule="evenodd" clip-rule="evenodd" d="M285.094 117.029s.542 95.952 0 95.952c-.544 0-35.575-.273-35.575-.273v-97.004l35.575 1.325z" fill="#D40221"/>
    </g>
    <path fill-rule="evenodd" clip-rule="evenodd" d="M275.73 216.351H174.999a4.227 4.227 0 0 1-4.229-4.226V33.392a4.227 4.227 0 0 1 4.229-4.226H275.73a4.227 4.227 0 0 1 4.227 4.226v178.733a4.227 4.227 0 0 1-4.227 4.226z" fill="#6880E4"/>
    <path fill-rule="evenodd" clip-rule="evenodd" d="M265.66 199.051h-84.45a3.543 3.543 0 0 1-3.546-3.543V45.662a3.544 3.544 0 0 1 3.546-3.542h84.45a3.545 3.545 0 0 1 3.546 3.542v149.846a3.544 3.544 0 0 1-3.546 3.543z" fill="#fff"/>
    <mask id="93vvq12quc" style="mask-type:alpha" maskUnits="userSpaceOnUse" x="177" y="42" width="93" height="158">
        <path d="M265.66 199.051h-84.45a3.543 3.543 0 0 1-3.546-3.543V45.662a3.544 3.544 0 0 1 3.546-3.542h84.45a3.545 3.545 0 0 1 3.546 3.542v149.846a3.544 3.544 0 0 1-3.546 3.543z" fill="#fff"/>
    </mask>
    <g mask="url(#93vvq12quc)">
        <path fill-rule="evenodd" clip-rule="evenodd" d="M283.568 120.585s-11.356-18.481-38.912-2.249c-27.555 16.233-95.494 58.007-95.494 58.007v24.945h136.813l-2.407-80.703z" fill="#D4DFFF"/>
    </g>
    <path fill-rule="evenodd" clip-rule="evenodd" d="M244.656 51.106a2.58 2.58 0 1 1-5.16-.003 2.58 2.58 0 0 1 5.16.003zM253.475 51.106a2.58 2.58 0 1 1-5.163-.002 2.58 2.58 0 0 1 5.163.002zM262.295 51.106a2.58 2.58 0 0 1-2.582 2.579 2.58 2.58 0 1 1 2.582-2.58zM244.656 60.545a2.58 2.58 0 1 1-5.16-.002 2.58 2.58 0 0 1 5.16.002zM253.475 60.545a2.58 2.58 0 1 1-5.163-.002 2.58 2.58 0 0 1 5.163.002zM262.295 60.545a2.58 2.58 0 0 1-2.582 2.58 2.58 2.58 0 1 1 2.582-2.58zM244.656 69.985a2.58 2.58 0 1 1-5.16-.002 2.58 2.58 0 0 1 5.16.002zM253.475 69.985a2.58 2.58 0 1 1-5.163-.002 2.58 2.58 0 0 1 5.163.002zM262.295 69.985a2.58 2.58 0 0 1-2.582 2.58 2.58 2.58 0 1 1 2.582-2.58zM244.656 79.425a2.58 2.58 0 1 1-5.16-.002 2.58 2.58 0 0 1 5.16.002zM253.475 79.425a2.58 2.58 0 1 1-5.163-.002 2.58 2.58 0 0 1 5.163.002zM262.295 79.425a2.58 2.58 0 0 1-2.582 2.58 2.58 2.58 0 1 1 2.582-2.58zM244.656 88.866a2.58 2.58 0 1 1-5.16-.003 2.58 2.58 0 0 1 5.16.003zM253.475 88.866a2.58 2.58 0 1 1-5.163-.002 2.58 2.58 0 0 1 5.163.002zM262.295 88.866a2.58 2.58 0 0 1-2.582 2.579 2.58 2.58 0 1 1 2.582-2.58z" fill="#EAF2FC"/>
    <path fill-rule="evenodd" clip-rule="evenodd" d="M240.809 211.203h-20.248a3.257 3.257 0 0 1-3.259-3.255v-1.809a3.258 3.258 0 0 1 3.259-3.257h20.248a3.257 3.257 0 0 1 3.257 3.257v1.809a3.256 3.256 0 0 1-3.257 3.255zM161.51 165.499s.629 40.69 13.489 50.852h31.502s5.263-38.168-9.233-48.445l-35.758-2.407z" fill="#1B3D9E"/>
    <mask id="2z06n3ppnd" style="mask-type:alpha" maskUnits="userSpaceOnUse" x="161" y="165" width="47" height="52">
        <path d="M161.51 165.499s.629 40.69 13.489 50.852h31.502s5.263-38.168-9.233-48.445l-35.758-2.407z" fill="#fff"/>
    </mask>
    <g mask="url(#2z06n3ppnd)">
        <path fill-rule="evenodd" clip-rule="evenodd" d="M178.739 218.636c0-.612-3.98-38.997-5.663-40.527-1.683-1.529-1.225 40.374.766 40.833 1.989.459 4.897-.306 4.897-.306z" fill="#1C056D"/>
    </g>
    <path fill-rule="evenodd" clip-rule="evenodd" d="M176.841 97.268s-23.142 12.658-30.353 17.842c-13.014 9.354 1.587-27.733-.739-29.319-2.324-1.585-18.976-1.794-21.447 2.71-2.473 4.504-9.58 50.752 7.432 49.59 17.013-1.162 34.821-9.324 34.821-9.324s14.51-24.346 10.286-31.499z" fill="#F9C438"/>
    <mask id="dh20874bme" style="mask-type:alpha" maskUnits="userSpaceOnUse" x="120" y="84" width="58" height="55">
        <path d="M176.841 97.268s-23.142 12.658-30.353 17.842c-13.014 9.354 1.587-27.733-.738-29.319-2.325-1.585-18.977-1.794-21.448 2.71-2.473 4.504-9.58 50.752 7.432 49.59 17.013-1.162 34.821-9.324 34.821-9.324s14.51-24.346 10.286-31.499z" fill="#fff"/>
    </mask>
    <g mask="url(#dh20874bme)" fill-rule="evenodd" clip-rule="evenodd" fill="#F6AB36">
        <path d="M147.498 114.404s-11.921 12.343-11.921 10.11c0-2.233 5.696-15.203 5.696-15.203s1.679 6.501 6.225 5.093zM130.333 84.762s-2.605 6.332-.937 8c1.668 1.666 10.208 3.436 11.566 2.707 1.36-.729 4.175-10.707 4.175-10.707s-10.633-1.436-14.804 0z"/>
    </g>
    <path fill-rule="evenodd" clip-rule="evenodd" d="M194.587 93.311s18.225 15.969 17.129 26.25c-1.094 10.281-10.945 46.594-14.448 48.344s-32.111 4.375-35.758-2.406c-3.647-6.781-.363-52.281 4.453-59.719 4.817-7.437 14.674-9.842 14.674-9.842l13.95-2.627z" fill="#F9C438"/>
    <mask id="ods79fap4f" style="mask-type:alpha" maskUnits="userSpaceOnUse" x="159" y="93" width="53" height="77">
        <path d="M194.587 93.311s18.225 15.969 17.129 26.25c-1.094 10.281-10.945 46.594-14.448 48.344s-32.111 4.375-35.758-2.406c-3.647-6.781-.363-52.281 4.453-59.719 4.817-7.437 14.674-9.842 14.674-9.842l13.95-2.627z" fill="#fff"/>
    </mask>
    <g mask="url(#ods79fap4f)" fill-rule="evenodd" clip-rule="evenodd" fill="#fff">
        <path d="M159.239 133.188s19.577 9.145 49.33 5.756l-.617 5.7s-40.081 2.972-50.409-6.678l1.696-4.778zM158.171 144.731s18.994 6.873 40.916 5.244l-1.247 4.432s-29.016 2.515-40.423-5.531l.754-4.145z"/>
    </g>
    <path fill-rule="evenodd" clip-rule="evenodd" d="M161.016 131.039s1.1-11.551 4.469-20.288c0 0-9.137 8.574-10.55 22.438 0 0 3.073-1.124 6.081-2.15z" fill="#F6AB36"/>
    <path fill-rule="evenodd" clip-rule="evenodd" d="M178.653 99.002s-.184 1.619.388 1.732c.574.113 7.445-.278 14.296-3.465l1.384.837s-9.435 5.003-14.73 4.37-1.338-3.474-1.338-3.474z" fill="#fff"/>
    <path fill-rule="evenodd" clip-rule="evenodd" d="M183.48 56.984c-1.746.22-3.507.445-5.166 1.028-1.661.582-3.234 1.56-4.224 3.014-1.438 2.115-1.454 4.897-2.587 7.19-1.404 2.842-4.367 4.646-5.875 7.433-.842 1.555-1.185 3.395-.842 5.129.469 2.368 2.164 4.357 4.19 5.671 2.028 1.314 4.377 2.035 6.712 2.653a96.754 96.754 0 0 0 14.271 2.645c1.781-4 3.171-8.163 4.347-12.38 1.451-5.21 2.405-10.876.499-15.936-.507-1.343-1.218-2.63-2.237-3.643-2.21-2.2-5.993-3.195-9.088-2.804z" fill="#1B3D9E"/>
    <mask id="42zjfxq4qg" style="mask-type:alpha" maskUnits="userSpaceOnUse" x="168" y="63" width="12" height="26">
        <path d="M176.263 63.688c-2.935 6.582-8.002 19.402-4.035 21.62 1.141.639 2.503.905 3.955.905.94 0 1.919-.112 2.902-.306a52.453 52.453 0 0 0-.137 1.786 9.74 9.74 0 0 1-2.723.404c-1.72 0-3.596-.505-5.455-1.94-6.268-4.838 3.792-22.359 3.792-22.359l1.701-.11z" fill="#fff"/>
    </mask>
    <g mask="url(#42zjfxq4qg)">
        <path fill-rule="evenodd" clip-rule="evenodd" d="M168.716 88.097h10.37V63.688h-10.37v24.409z" fill="#1B3092"/>
    </g>
    <path fill-rule="evenodd" clip-rule="evenodd" d="M195.912 64.24c-1.264-2.378-7.003-5.934-12.228-6.095-2.946-.09-5.643 1.648-6.87 4.326-2.777 6.06-8.815 20.473-4.586 22.838 1.882 1.053 4.36 1.092 6.857.598-.388 3.974-.483 13.193-.409 14.444.104 1.76 12.382-1.426 14.661-3.082 2.278-1.657-3.837-16.592-3.837-16.592 1.655-2.384 8.17-13.131 6.412-16.438z" fill="#FE8E9C"/>
    <mask id="eoei5esahh" style="mask-type:alpha" maskUnits="userSpaceOnUse" x="170" y="58" width="27" height="43">
        <path d="M195.912 64.24c-1.264-2.378-7.003-5.934-12.228-6.095-2.946-.09-5.643 1.648-6.87 4.326-2.777 6.06-8.815 20.473-4.586 22.838 1.882 1.053 4.36 1.093 6.857.598-.388 3.974-.483 13.193-.409 14.444.104 1.76 12.382-1.426 14.661-3.082 2.278-1.656-3.837-16.592-3.837-16.592 1.655-2.384 8.17-13.131 6.412-16.438z" fill="#fff"/>
    </mask>
    <g mask="url(#eoei5esahh)" fill-rule="evenodd" clip-rule="evenodd" fill="#E57492">
        <path d="M179.085 85.907s3.432-1.382 6.426-3.252c0 0-2.584 8.282-7.762 8.068l1.336-4.816zM173.172 67.8c.274-.062 2.405.376 6.29-2.817 0 0 1.441 2.066 6.267-.877l.751-4.007-9.963-1.315-3.345 9.016z"/>
    </g>
    <path fill-rule="evenodd" clip-rule="evenodd" d="M180.637 68.326s-6.843 3.758-6.347 4.75c.495.99 5.355-.373 5.852-.126.495.248-.986 1.417-1.654 1.372-.668-.044-5.315.075-5.315-1.17 0-1.246 2.179-3.021 7.464-4.826z" fill="#E57492"/>
    <path fill-rule="evenodd" clip-rule="evenodd" d="M174.297 76.91s3.173 1.763 6.936 0c0 0-2.14 2.929-4.428 2.78-3.017-.195-2.508-2.78-2.508-2.78z" fill="#fff"/>
    <path fill-rule="evenodd" clip-rule="evenodd" d="M184.911 67.63c.754 1.64 2.226 2.865 2.991 4.5 1.337 2.86.241 6.19-.527 9.252-1.113 4.439-1.408 9.445 1.056 13.304 1.594 2.497 4.202 4.231 6.999 5.211 2.798.979 5.791 1.26 8.755 1.33a64.852 64.852 0 0 0 19.25-2.462c-1.333-.51-2.734-1.07-3.602-2.203-1.111-1.453-1.06-3.444-1.104-5.272-.073-3.04-.56-6.1-1.759-8.894-1.2-2.794-3.147-5.315-5.739-6.908-1.934-1.19-4.245-1.894-5.723-3.618-1.651-1.926-1.868-4.644-2.446-7.114a21.948 21.948 0 0 0-2.304-5.858c-.717-1.255-1.621-2.492-2.934-3.098-1.243-.572-2.685-.5-4.031-.258-4.581.824-8.681 3.533-9.361 8.5-.167 1.216-.034 2.468.479 3.589z" fill="#1B3D9E"/>
    <mask id="vakav4t4xi" style="mask-type:alpha" maskUnits="userSpaceOnUse" x="184" y="55" width="40" height="47">
        <path d="M184.911 67.63c.754 1.64 2.226 2.865 2.991 4.5 1.337 2.86.241 6.19-.527 9.252-1.113 4.439-1.408 9.445 1.056 13.304 1.594 2.497 4.202 4.231 6.999 5.211 2.798.979 5.791 1.26 8.755 1.33a64.852 64.852 0 0 0 19.25-2.462c-1.333-.51-2.734-1.07-3.602-2.203-1.111-1.453-1.06-3.444-1.104-5.273-.073-3.039-.56-6.099-1.759-8.893-1.2-2.794-3.147-5.315-5.739-6.908-1.934-1.19-4.245-1.894-5.723-3.618-1.651-1.926-1.868-4.644-2.446-7.114a21.948 21.948 0 0 0-2.304-5.858c-.717-1.255-1.621-2.492-2.934-3.098-1.243-.572-2.685-.5-4.031-.258-4.581.824-8.681 3.533-9.361 8.5-.167 1.216-.034 2.468.479 3.589z" fill="#fff"/>
    </mask>
    <g mask="url(#vakav4t4xi)">
        <path fill-rule="evenodd" clip-rule="evenodd" d="M205.69 101.244c-.502 0-1.004-.006-1.505-.017-2.964-.07-5.957-.351-8.755-1.33a15.638 15.638 0 0 1-3.654-1.829 13.04 13.04 0 0 1-.781-.575c2.048.59 4.246.833 6.482.833 8.889 0 18.362-3.854 21.313-5.157.081 1.231.307 2.43 1.043 3.393.868 1.133 2.269 1.693 3.601 2.203a64.806 64.806 0 0 1-17.744 2.479z" fill="#1B3092"/>
    </g>
    <path fill-rule="evenodd" clip-rule="evenodd" d="M181.393 63.522a.887.887 0 0 1-.367-.084c-.293-.161-.331-.572-.247-.895.083-.322.25-.634.233-.966-1.771 2.311-4.73 3.4-7.611 3.832-.147.022-.322.033-.42-.078a.468.468 0 0 1-.081-.175c-.87-3.021-.141-6.455 1.884-8.862.993-1.18 2.258-2.108 3.598-2.872 3.747-2.136 8.39-3.03 12.439-1.544 1.306.479 2.571 1.237 3.306 2.418.273.435.468.934.458 1.447-.013.806-.526 1.525-1.133 2.058-.746.654-1.643 1.102-2.571 1.44-.464.169-.939.297-1.408.446-.293.094-.541.219-.748.448-.579.643-1.111 1.27-1.82 1.783a8.644 8.644 0 0 1-2.467 1.24 8.196 8.196 0 0 1-3.045.364zM140.507 72.364s-10.706 15.74-8.163 17.528c2.542 1.788 5.902 2.363 6.412 1.375.508-.988 7.023-18.307 7.023-18.307l-5.272-.596z" fill="#1B3D9E"/>
    <mask id="iozhymoyqj" style="mask-type:alpha" maskUnits="userSpaceOnUse" x="131" y="72" width="15" height="20">
        <path d="M140.507 72.364s-10.706 15.74-8.163 17.528c2.542 1.788 5.902 2.363 6.412 1.375.508-.988 7.023-18.307 7.023-18.307l-5.272-.596z" fill="#fff"/>
    </mask>
    <g mask="url(#iozhymoyqj)">
        <path fill-rule="evenodd" clip-rule="evenodd" d="M136.564 77.047s9.254.922 9.595.148c.341-.773 1.227-3.729 1.227-3.729s-9.84-2.782-10.194-1.874c-.352.908-.628 5.455-.628 5.455z" fill="#1C056D"/>
    </g>
    <path fill-rule="evenodd" clip-rule="evenodd" d="M154.825 72.284a2.346 2.346 0 0 0-.943-2.662c-6.936-4.592-36.067-23.766-37.81-23.153-1.982.697-10.359 24.472-8.712 27.632 1.462 2.804 37.344.395 45.393-.181a2.348 2.348 0 0 0 2.072-1.636z" fill="#68A9FD"/>
    <mask id="bsw7ad0bqk" style="mask-type:alpha" maskUnits="userSpaceOnUse" x="107" y="46" width="48" height="30">
        <path d="M154.825 72.284a2.346 2.346 0 0 0-.943-2.662c-6.936-4.592-36.067-23.766-37.81-23.153-1.982.697-10.359 24.472-8.712 27.632 1.462 2.804 37.344.396 45.393-.181a2.348 2.348 0 0 0 2.072-1.636z" fill="#fff"/>
    </mask>
    <g mask="url(#bsw7ad0bqk)" fill-rule="evenodd" clip-rule="evenodd">
        <path d="M147.08 63.027s1.993 6.822-3.68 14.462c0 0 13.456-1.258 13.93-2.758.472-1.5 1.544-2.884.87-3.912-.673-1.028-11.12-7.792-11.12-7.792z" fill="#1B3D9E"/>
        <path d="M119.055 75.432c-6.365 0-11.179-.34-11.695-1.331-.146-.28-.213-.72-.213-1.29-.001-1.443.425-3.72 1.096-6.347a29.49 29.49 0 0 1 3.731-.23c3.541 0 8.547.6 13.324 3.259 4.292 2.39 10.614 2.995 15.915 2.995a77 77 0 0 0 5.041-.17 19.91 19.91 0 0 1-.931 2.096l-.094.006c-1.926.12-4.065.244-6.312.364-6.464.345-13.853.648-19.862.648z" fill="#5682DB"/>
        <path d="M145.323 74.415a20.11 20.11 0 0 0 .931-2.098c2.858-.188 4.76-.465 4.76-.465l-.7 2.238c-1.394.095-3.089.207-4.991.325z" fill="#1B3092"/>
    </g>
    <path fill-rule="evenodd" clip-rule="evenodd" d="M114.839 61.356c-2.434 7.72-5.746 13.559-7.397 13.039-1.65-.52-1.015-7.2 1.419-14.921 2.434-7.721 5.746-13.56 7.396-13.04 1.651.52 1.016 7.2-1.418 14.922z" fill="#1B3D9E"/>
    <mask id="tpw2hr5etl" style="mask-type:alpha" maskUnits="userSpaceOnUse" x="106" y="46" width="12" height="29">
        <path d="M114.839 61.356c-2.434 7.72-5.746 13.559-7.397 13.039-1.65-.52-1.015-7.2 1.419-14.921 2.434-7.721 5.746-13.56 7.396-13.04 1.651.52 1.016 7.2-1.418 14.922z" fill="#fff"/>
    </mask>
    <g mask="url(#tpw2hr5etl)" fill-rule="evenodd" clip-rule="evenodd">
        <path d="M116.406 59.805s-5.07-3.508-6.12-.274c-1.05 3.235-.993 4.372 5.387 4.964l.733-4.69z" fill="#fff"/>
        <path d="M114.517 46.973s1.605.718 1.114 4.613c-.424 3.369-4.664 20.604-9.503 22.395 0 0 .956 2.084 2.388 1.89 1.432-.193 6.048-6.395 6.98-10.372.93-3.977 4.346-15.068 4.195-16.888-.152-1.82-4.193-3.401-5.174-1.638z" fill="#1C056D"/>
    </g>
    <path fill-rule="evenodd" clip-rule="evenodd" d="M199.351 164.71s-8.152 4.201-9.179 3.836c-1.027-.365-5.112-2.408-6.773-4.44 0 0-.655 4.585 3.436 5.493 0 0 7.394-.263 10.433-1.693 0 0 1.288-.482 2.083-3.196z" fill="#F6AB36"/>
    <path fill-rule="evenodd" clip-rule="evenodd" d="M184.756 157.247s-7.59 2.642-9.727 4.21c-.002.001-10.806 6.965-9.258 7.545.854.319 3.993-1.196 6.642-2.623-1.449 3.471-2.893 7.58-2.211 7.429 1.096-.244 6.376-8.08 6.376-8.08s-3.541 9.011-2.978 9.027c.564.016 4.104-2.894 5.061-8.183 0 0-1.07 7.427-.338 7.595.732.169 3.097-7.315 3.097-7.315s6.392-2.488 6.537-3.76c.146-1.273-3.201-5.845-3.201-5.845z" fill="#FE8E9C"/>
    <mask id="48za50ca2m" style="mask-type:alpha" maskUnits="userSpaceOnUse" x="165" y="157" width="23" height="18">
        <path d="M184.755 157.247s-7.589 2.642-9.726 4.21c-.002.001-10.806 6.965-9.258 7.545.854.319 3.993-1.196 6.642-2.623-1.449 3.471-2.893 7.58-2.211 7.429 1.096-.244 6.376-8.08 6.376-8.08s-3.541 9.011-2.978 9.027c.564.016 4.104-2.894 5.061-8.183 0 0-1.07 7.427-.338 7.595.732.169 3.097-7.315 3.097-7.315s6.392-2.488 6.537-3.761c.146-1.272-3.202-5.844-3.202-5.844z" fill="#fff"/>
    </mask>
    <g mask="url(#48za50ca2m)" fill-rule="evenodd" clip-rule="evenodd" fill="#E57492">
        <path d="M175.515 160.464c-.065.594 5.074 5.743 8.958 5.743 3.884 0 4.239-2.653 4.239-2.653l-5.864-7.682s-7.213 3.525-7.333 4.592zM165.771 169.002s6.995-4.079 7.516-4.377c.522-.297-1.34 2.455-1.34 2.455s-6.265 2.876-6.176 1.922z"/>
    </g>
    <path fill-rule="evenodd" clip-rule="evenodd" d="M207.285 107.619s21.665 28.258 20.102 35.729c-1.566 7.473-34.433 25.892-37.215 25.198-2.782-.696-10.537-5.922-9.791-11.302.748-5.381 24.397-21.889 24.397-21.889s-12.556-8.166-12.016-14.771c.539-6.602 14.523-12.965 14.523-12.965z" fill="#F9C438"/>
    <path fill-rule="evenodd" clip-rule="evenodd" d="M181.233 155.346s15.615-14.875 23.545-19.991c0 0-8.775-3.732-12.016-14.771 0 0 .64 14.328 7.48 15.24 0 0-19.093 12.156-19.009 19.522zM204.779 107.062s-8.977 3.662-11.344 11.274c0 0-1.351-7.72 11.344-11.274z" fill="#F6AB36"/>
    <path fill-rule="evenodd" clip-rule="evenodd" d="M144.065 77.504s-6.459 2.159-6.165 2.806c.294.646 5.034.18 5.034.18l-1.668 4.382s2.074.15 2.969.39c0 0 3.404-5.423 3.109-6.481-.294-1.059-3.279-1.277-3.279-1.277z" fill="#FE8E9C"/>
    <mask id="2ct9cgwnpn" style="mask-type:alpha" maskUnits="userSpaceOnUse" x="137" y="77" width="11" height="9">
        <path d="M144.065 77.504s-6.459 2.159-6.165 2.806c.294.646 5.034.18 5.034.18l-1.668 4.382s2.074.15 2.969.39c0 0 3.404-5.423 3.109-6.481-.294-1.059-3.279-1.277-3.279-1.277z" fill="#fff"/>
    </mask>
    <g mask="url(#2ct9cgwnpn)" fill-rule="evenodd" clip-rule="evenodd" fill="#E57492">
        <path d="M143.004 85.86s1.95-5.728 1.662-5.68c-.29.048-2.216.353-2.216.353l-1.735 4.73 2.289.597zM138.967 80.703s3.282-.484 3.66-1.13c.377-.645-2.574-.857-2.574-.857s-2.567 1.517-2.163 1.767c.404.25 1.077.22 1.077.22z"/>
    </g>
    <path fill-rule="evenodd" clip-rule="evenodd" d="M135.479 78.89c.231-.125.493-.177.754-.174 1.138.016 5.114.108 5.752.645.746.628-5.996 1.606-6.719 1.46-.641-.13-.833-1.369.213-1.932z" fill="#FE8E9C"/>
    <path fill-rule="evenodd" clip-rule="evenodd" d="M140.904 81.245c-.637-.537-4.614-.63-5.75-.645a1.55 1.55 0 0 0-.756.173c-.825.443-.877 1.306-.549 1.716-.953.581-.758 1.757-.133 1.883.722.146 6.785-.975 6.038-1.602-.343-.29-.977-.307-2.292-.396 1.914-.313 3.862-.776 3.442-1.13z" fill="#FE8E9C"/>
    <path fill-rule="evenodd" clip-rule="evenodd" d="M137.462 82.374s-2.496.51-3.613.114c0 0 3.193-.274 4.542-.554 1.348-.28 2.514-.69 2.514-.69s.305.166-.428.441c-.734.275-3.015.689-3.015.689z" fill="#E57492"/>
    <path fill-rule="evenodd" clip-rule="evenodd" d="m107.094 42.08-2.959-19.719a4.726 4.726 0 0 0-5.375-3.97l-41.25 6.18a4.723 4.723 0 0 0-3.973 5.37l2.96 19.72a4.726 4.726 0 0 0 5.374 3.97L84.115 50.3c2.868 4.21 14.672 11.286 13.828 9.48-.618-1.323-2.028-7.71-2.76-11.138l7.938-1.19a4.724 4.724 0 0 0 3.973-5.37z" fill="#FC476A"/>
    <path fill-rule="evenodd" clip-rule="evenodd" d="M57.284 30.125a.466.466 0 0 1-.065-.926l41.68-5.921a.466.466 0 0 1 .131.92L57.35 30.12a.46.46 0 0 1-.066.005zM58.244 36.047a.466.466 0 0 1-.065-.926l41.68-5.922a.465.465 0 0 1 .132.921l-41.68 5.922a.448.448 0 0 1-.067.005zM59.205 41.968a.466.466 0 0 1-.065-.926l41.68-5.921a.466.466 0 0 1 .131.921l-41.68 5.922a.465.465 0 0 1-.066.004zM60.166 47.89a.466.466 0 0 1-.065-.926l41.68-5.922a.465.465 0 1 1 .131.921l-41.68 5.922a.48.48 0 0 1-.066.005z" fill="#fff"/>
    <path fill-rule="evenodd" clip-rule="evenodd" d="M352.387 216.882H.55a.532.532 0 0 1 0-1.063h351.837a.532.532 0 0 1 0 1.063z" fill="#1C056D"/>
    <path fill-rule="evenodd" clip-rule="evenodd" d="M121.505 30.162a95.492 95.492 0 0 0 16.965-5.911c5.308-2.43 10.526-5.31 15.199-8.822 2.179-1.637 4.241-3.447 5.964-5.566.875-1.075 1.697-2.218 2.35-3.443.503-.94 1.136-2.2.811-3.291-.535-1.797-3.176-2.168-4.128-.529-.535.923-.638 2.216-.661 3.26-.024 1.179.152 2.378.48 3.51 3.386 11.688 18.295 10.808 27.776 9.457 6.394-.91 12.675-2.438 18.976-3.82 6.064-1.33 12.172-2.502 18.332-3.294 12.175-1.564 24.722-1.722 36.667 1.44 1.436.38 2.859.81 4.27 1.281.975.327 1.394-1.213.424-1.538-10.917-3.653-22.56-4.391-33.98-3.535-5.805.435-11.575 1.263-17.298 2.314-5.819 1.07-11.57 2.436-17.353 3.68-5.89 1.267-11.853 2.392-17.887 2.644-4.928.206-10.266-.261-14.38-3.251-1.832-1.331-3.184-3.262-3.886-5.409a10.494 10.494 0 0 1-.545-3.28c0-.52.037-1.041.134-1.553.068-.36.118-.972.411-1.234.366-.326 1.068-.08 1.142.407.069.46-.278 1.1-.465 1.501-.266.572-.598 1.115-.939 1.645-1.396 2.173-3.197 4.059-5.156 5.732-4.131 3.526-8.981 6.31-13.812 8.752a92.834 92.834 0 0 1-19.834 7.315c-.998.245-.575 1.783.423 1.538zM270.607 15.989l3.169 1.26c.18.073.455.014.615-.08a.81.81 0 0 0 .367-.476c.105-.46-.14-.816-.557-.981l-3.169-1.261c-.179-.072-.455-.013-.615.08a.812.812 0 0 0-.366.477c-.106.46.141.815.556.981z" fill="#D4DFFF"/>
</svg>
