<svg width="14" height="16" viewBox="0 0 14 16" xmlns="http://www.w3.org/2000/svg">
    <g fill="#000" fill-rule="nonzero" opacity=".8">
        <path d="M.587 4.265V6.4a.535.535 0 1 0 1.065 0V4.265h.535v.05a.535.535 0 0 0 1.065 0V3.15a.535.535 0 1 0-1.065 0v.05h-1.6a.535.535 0 1 0 0 1.065zM.587 8.535v2.135a.535.535 0 1 0 1.065 0V8.535h.535v.05a.535.535 0 1 0 1.065 0V7.42a.535.535 0 1 0-1.065 0v.05h-1.6a.535.535 0 0 0 0 1.065z"/>
        <path d="M11.252 0h-8a2.66 2.66 0 0 0-2.58 2 .535.535 0 0 0 1.035.265c.18-.706.816-1.2 1.545-1.2h8a1.6 1.6 0 0 1 1.6 1.6v10.67a1.6 1.6 0 0 1-1.6 1.6h-8a1.6 1.6 0 0 1-1.6-1.6V12.8h.535v.05a.535.535 0 1 0 1.065 0v-1.165a.535.535 0 0 0-1.065 0v.05h-1.6a.535.535 0 1 0 0 1.065v.535A2.67 2.67 0 0 0 3.252 16h8a2.67 2.67 0 0 0 2.665-2.665V2.665A2.67 2.67 0 0 0 11.252 0z"/>
        <path d="M7.522 8.675a2 2 0 1 1 0-4 2 2 0 0 1 0 4zm0-2.9a.915.915 0 1 0 0 1.83.915.915 0 0 0 0-1.83zM9.652 11.17a.53.53 0 0 1-.395-.17 2.36 2.36 0 0 0-3.5 0 .535.535 0 1 1-.77-.725 3.425 3.425 0 0 1 5.05 0 .535.535 0 0 1-.395.895h.01z"/>
    </g>
</svg>
