<?xml version="1.0" encoding="UTF-8"?>
<svg width="530px" height="380px" viewBox="0 0 530 380" version="1.1" xmlns="http://www.w3.org/2000/svg" xmlns:xlink="http://www.w3.org/1999/xlink">
    <title>contact us</title>
    <defs>
        <polygon id="path-1" points="0 0 46.0730776 0 46.0730776 54.1193036 0 54.1193036"></polygon>
        <polygon id="path-3" points="0 0 79.1442978 0 79.1442978 35.061795 0 35.061795"></polygon>
        <polygon id="path-5" points="0 0 46.0730776 0 46.0730776 54.1193036 0 54.1193036"></polygon>
        <path d="M0.0953377503,0 C0.0645142671,0 0.0304650706,0 0,0 L0,0 L0,122.658286 L188.396713,122.658286 L188.396713,0 C188.396713,0 188.396713,0 188.396713,0 L188.396713,0 L0.0953377503,0 Z" id="path-7"></path>
        <path d="M0,0 L94.1981774,60.9282988 L188.396713,0 C188.396713,0 188.396713,0 188.396713,0 L188.396713,0 L0,0 Z" id="path-9"></path>
    </defs>
    <g id="Page-1" stroke="none" stroke-width="1" fill="none" fill-rule="evenodd" opacity="0.400000006">
        <g id="24_Urban-Money_Contact-us" transform="translate(-832.000000, -108.000000)">
            <g id="contact-us" transform="translate(832.000000, 108.000224)">
                <g id="Group-127">
                    <path d="M92.7992052,328.321793 C92.7992052,328.321793 58.616375,327.318758 44.8043203,300.475831 C33.9404318,279.36264 40.0132818,248.349179 85.5981465,240.119919 C113.947303,235.002612 64.0361456,178.677833 125.254813,165.078984 C186.473479,151.479776 185.890578,90.7923857 246.234534,78.8297848 C306.578848,66.8671838 306.683756,151.891168 360.707809,160.876198 C414.731862,169.861229 452.875775,193.54275 439.634091,237.72145 C426.392407,281.899792 456.807499,283.617028 461.342175,303.360587 C465.876852,323.103789 453.050145,328.321793 453.050145,328.321793 L92.7992052,328.321793 Z" id="Fill-1" fill="#EFF1FE" opacity="0.100000001"></path>
                    <path d="M524.909529,328.861225 L7.39608746,328.861225 C7.14724419,328.861225 6.94566323,328.659471 6.94566323,328.410414 C6.94566323,328.160999 7.14724419,327.959246 7.39608746,327.959246 L524.909529,327.959246 C525.158372,327.959246 525.360311,328.160999 525.360311,328.410414 C525.360311,328.659471 525.158372,328.861225 524.909529,328.861225" id="Fill-3" fill="#44465F"></path>
                    <path d="M63.4832123,297.696252 C63.4832123,297.696252 50.2511952,302.692793 50.317076,293.931734 C50.3829568,285.170675 54.4636284,282.996895 48.5400844,279.703256 C42.6165404,276.409975 38.9311537,275.224179 39.9841725,268.834712 C41.0371913,262.444887 27.2158274,257.043405 28.5978921,249.929345 C29.9799569,242.815285 40.7081453,244.198534 44.9861012,249.007298 C49.2640572,253.815703 59.5310799,250.061219 61.4398331,260.9957 C63.3485863,271.93054 63.9407975,270.481353 70.7855986,275.816898 C77.6303998,281.152443 75.201403,294.676037 63.4832123,297.696252" id="Fill-5" fill="#44465F"></path>
                    <path d="M65.25247,307.631496 C65.237074,307.631496 65.2213199,307.631496 65.2055658,307.630421 C64.6255282,307.60462 64.1758201,307.113673 64.2012415,306.53278 C64.2058961,306.426349 64.4694194,299.205857 61.6755718,289.480107 C59.0983432,280.507261 53.3119316,267.495397 40.3824649,256.460935 C39.9406339,256.083946 39.8880008,255.419914 40.2646672,254.977704 C40.6413335,254.534778 41.3047962,254.482099 41.7469854,254.859447 C55.1036031,266.258714 61.0686807,279.707413 63.7203832,288.981636 C66.5972978,299.043164 66.315537,306.320634 66.3022664,306.625594 C66.2772031,307.190361 65.8117408,307.631496 65.25247,307.631496" id="Fill-7" fill="#44465F"></path>
                    <path d="M69.6593232,298.806973 C69.6593232,298.806973 81.2368011,303.178543 81.1791554,295.512975 C81.1215097,287.847765 77.5514144,285.945618 82.7341573,283.064087 C87.9169003,280.182197 91.1414794,279.14476 90.2202222,273.554066 C89.298607,267.963731 101.391674,263.237389 100.182546,257.012765 C98.9730605,250.7885 89.5868355,251.998665 85.8438031,256.206109 C82.1004126,260.413194 73.1173496,257.128156 71.4470563,266.695513 C69.777121,276.26287 69.2590257,274.995011 63.269959,279.663299 C57.2812503,284.331946 59.4062644,296.164464 69.6593232,298.806973" id="Fill-9" fill="#FFAE2C"></path>
                    <path d="M68.1110526,307.631209 C67.5517819,307.631209 67.0863196,307.190075 67.0616143,306.625666 C67.0498646,306.357975 66.8023877,299.969942 69.325551,291.146171 C71.6507139,283.014024 76.8810772,271.221642 88.592465,261.226767 C89.0346541,260.849061 89.6977588,260.90174 90.0747832,261.344666 C90.4514495,261.786876 90.3988165,262.450908 89.9569854,262.827897 C78.6723907,272.458325 73.6206933,283.813872 71.3700044,291.644284 C68.9234633,300.156286 69.1597749,306.470857 69.1622812,306.533569 C69.1869865,307.114103 68.7372784,307.60505 68.1575989,307.630134 C68.1418448,307.631209 68.1264487,307.631209 68.1110526,307.631209" id="Fill-11" fill="#44465F"></path>
                    <path d="M77.6706444,328.419373 L57.1269317,328.419373 C56.1770307,328.419373 55.3631879,327.739216 55.1941893,326.803551 L51.9560043,308.895127 C51.7379532,307.688905 52.664223,306.57908 53.8891048,306.57908 L80.9088293,306.57908 C82.133353,306.57908 83.0596229,307.688905 82.8415717,308.895127 L79.6033868,326.803551 C79.4343882,327.739216 78.6205454,328.419373 77.6706444,328.419373" id="Fill-13" fill="#44465F"></path>
                    <g id="Group-17" transform="translate(483.842784, 244.995594)">
                        <mask id="mask-2" fill="white">
                            <use xlink:href="#path-1"></use>
                        </mask>
                        <g id="Clip-16"></g>
                        <path d="M11.090619,52.7006575 C11.090619,52.7006575 24.3226361,57.6971989 24.2567553,48.93614 C24.1908745,40.1750811 20.110561,38.0013007 26.0337469,34.7076614 C31.9572909,31.4143805 35.6426776,30.2285844 34.5896588,23.8391178 C33.53664,17.4492928 47.358004,12.0478104 45.9759392,4.93375031 C44.5938744,-2.18030979 33.865686,-0.797060145 29.5877301,4.01170333 C25.3097741,8.82010845 15.0427514,5.06562489 13.1339982,16.0001058 C11.225245,26.9349451 10.6330338,25.4857582 3.78823268,30.8213033 C-3.05656847,36.1568484 -0.627571712,49.680443 11.090619,52.7006575" id="Fill-15" fill="#44465F" mask="url(#mask-2)"></path>
                    </g>
                    <path d="M493.164145,307.631496 C493.179541,307.631496 493.195296,307.631496 493.21105,307.630421 C493.791087,307.60462 494.240795,307.113673 494.215374,306.53278 C494.210719,306.426349 493.947196,299.205857 496.741044,289.480107 C499.318272,280.507261 505.104684,267.495397 518.03415,256.460935 C518.475982,256.083946 518.528973,255.419914 518.151948,254.977704 C517.77564,254.534778 517.111819,254.482099 516.669988,254.859447 C503.313012,266.258714 497.347935,279.707413 494.696232,288.981636 C491.819318,299.043164 492.101277,306.320634 492.114707,306.625594 C492.139412,307.190361 492.604875,307.631496 493.164145,307.631496" id="Fill-18" fill="#44465F"></path>
                    <path d="M488.757292,298.806973 C488.757292,298.806973 477.179814,303.178543 477.23746,295.512975 C477.295106,287.847765 480.865201,285.945618 475.682458,283.064087 C470.500073,280.182197 467.275136,279.14476 468.196393,273.554066 C469.118008,267.963731 457.024942,263.237389 458.234069,257.012765 C459.443555,250.7885 468.82978,251.998665 472.57317,256.206109 C476.316203,260.413194 485.299624,257.128156 486.969559,266.695513 C488.639494,276.26287 489.15759,274.995011 495.146656,279.663299 C501.135365,284.331946 499.010351,296.164464 488.757292,298.806973" id="Fill-20" fill="#FFAE2C"></path>
                    <path d="M490.305563,307.631209 C490.864834,307.631209 491.330296,307.190075 491.355001,306.625666 C491.366751,306.357975 491.614228,299.969942 489.091064,291.146171 C486.765902,283.014024 481.535538,271.221642 469.82415,261.226767 C469.381961,260.849061 468.718857,260.90174 468.341832,261.344666 C467.965166,261.786876 468.017799,262.450908 468.45963,262.827897 C479.744225,272.458325 484.795922,283.813872 487.046611,291.644284 C489.493152,300.156286 489.256841,306.470857 489.254334,306.533569 C489.229629,307.114103 489.679337,307.60505 490.259017,307.630134 C490.274771,307.631209 490.290167,307.631209 490.305563,307.631209" id="Fill-22" fill="#44465F"></path>
                    <path d="M480.745971,328.419373 L501.289684,328.419373 C502.239585,328.419373 503.053428,327.739216 503.222426,326.803551 L506.460611,308.895127 C506.678662,307.688905 505.752392,306.57908 504.527511,306.57908 L477.508144,306.57908 C476.283262,306.57908 475.356993,307.688905 475.575044,308.895127 L478.813229,326.803551 C478.982227,327.739216 479.79607,328.419373 480.745971,328.419373" id="Fill-24" fill="#44465F"></path>
                    <g id="Group-28" transform="translate(0.000000, 108.331454)">
                        <mask id="mask-4" fill="white">
                            <use xlink:href="#path-3"></use>
                        </mask>
                        <g id="Clip-27"></g>
                        <path d="M0.0909083544,35.0607199 L79.1442978,35.0607199 C79.1442978,29.3256092 75.3421874,24.4810103 70.1239978,22.9089076 C68.7143633,16.5989958 63.1255941,11.8712205 56.415777,11.7880822 C52.8156056,4.78797889 45.5253929,0 37.1177128,0 C26.3794991,0 17.4651813,7.80998518 15.7325876,18.0639503 C15.630544,18.0621585 15.5292165,18.0564249 15.4264567,18.0564249 C6.90670763,18.0564249 -3.58047871e-05,24.9690895 -3.58047871e-05,33.4961427 C-3.58047871e-05,34.0247161 0.0268177855,34.5468391 0.0787347268,35.061795 C0.0862537321,35.0610783 0.0909083544,35.0607199 0.0909083544,35.0607199" id="Fill-26" fill="#EFF1FE" opacity="0.100000001" mask="url(#mask-4)"></path>
                    </g>
                    <path d="M197.575398,149.169606 C196.007865,145.683889 194.057936,142.590211 191.799012,139.845213 C187.644224,153.726804 179.01169,178.734238 173.162978,169.24536 C169.189721,162.798915 174.093545,151.85225 179.993458,142.512807 C183.315426,137.255025 181.357262,130.280006 175.759541,127.575861 C175.709773,127.551851 175.660004,127.527841 175.610235,127.50419 C173.790278,126.631237 171.628385,127.665091 171.174738,129.633176 C167.857425,144.023631 160.975029,169.291946 155.081203,161.237563 C150.526118,155.01294 155.566,141.300851 160.855799,130.48176 C162.699745,126.710075 160.425067,122.241391 156.297491,121.489562 C156.259538,121.482753 156.221585,121.475586 156.183632,121.468778 C154.853484,121.228322 153.571673,122.095182 153.292038,123.418945 C150.801098,135.210969 145.816714,152.911906 139.025978,148.132886 C134.516007,144.958937 136.533607,136.493162 140.09869,128.16858 C141.831999,124.120603 138.849819,119.625042 134.44941,119.600286 C134.408951,119.600286 134.368491,119.600286 134.328032,119.600286 C132.960289,119.593865 131.820623,120.639903 131.69638,122.003443 C130.97384,129.930969 129.185032,140.911677 124.850505,139.396195 C122.72191,138.651892 122.340231,135.54173 122.809632,131.64498 C123.555804,125.453683 118.318638,120.181567 112.131928,120.922645 C103.820921,121.918513 98.4376715,123.111476 98.4376715,123.111476 C98.4376715,123.111476 98.1591103,129.392003 98.7588404,138.71102 C99.02487,142.84321 102.997053,145.64662 106.998596,144.59449 C110.934616,143.55992 114.931147,143.697169 117.51482,146.884736 C122.133638,152.582577 110.691502,153.790233 103.129531,153.990554 C101.67156,154.029256 100.577366,155.345493 100.817974,156.785363 C100.826209,156.833024 100.834086,156.880685 100.841963,156.928346 C101.744602,162.297219 107.116752,165.661812 112.361437,164.216925 C116.299248,163.132185 120.233478,163.337523 122.502785,166.885594 C126.450979,173.057897 114.549468,174.493467 106.647351,174.784809 C105.835299,174.814911 105.283905,175.614759 105.537045,176.387372 C105.554947,176.442559 105.573208,176.497387 105.59111,176.552215 C107.851824,183.411485 115.99061,186.195902 122.056657,182.283743 C128.235489,178.298837 135.162284,175.661704 140.272701,178.866829 C148.283306,183.890964 130.973123,191.473394 119.279996,195.749284 C117.337586,196.459901 116.640825,198.870196 117.933378,200.486018 C118.08519,200.675588 118.238077,200.864082 118.392395,201.051502 C121.692523,205.064359 127.527629,205.858832 131.762619,202.850801 C136.802501,199.271195 142.81305,196.714333 148.222438,198.980928 C155.24125,201.921946 147.728332,206.986574 139.968002,210.799111 C137.982627,211.774553 138.328501,214.725605 140.494691,215.172474 C172.41609,221.759394 214.636737,187.112216 197.575398,149.169606" id="Fill-29" fill="#DCDFFE" opacity="0.100000001"></path>
                    <path d="M192.954826,165.261171 C193.040042,165.101345 192.979532,164.902458 192.819842,164.81717 C192.659795,164.731165 192.461436,164.792443 192.376221,164.952269 C192.26451,165.16119 181.155001,185.812821 168.744703,193.108925 C166.237652,190.062551 163.588814,186.961706 160.867292,183.862654 C160.859057,183.844378 160.855119,183.825027 160.842945,183.808184 C160.814301,183.768048 160.77778,183.738305 160.737679,183.71537 C159.059866,181.806056 157.354843,179.898174 155.639435,178.004627 C164.120515,173.340639 168.960606,163.872188 171.533538,156.697208 C174.351733,148.839561 175.135858,141.965957 175.143735,141.897511 C175.163428,141.717259 175.033814,141.554924 174.853716,141.534856 C174.675766,141.516222 174.51178,141.644513 174.49173,141.825124 C174.461654,142.094607 171.321932,168.777349 155.186863,177.505081 C151.870623,173.853087 148.520727,170.259863 145.254973,166.820373 C145.246738,166.804964 145.243515,166.787763 145.232416,166.77307 C145.202698,166.732576 145.164029,166.70355 145.122495,166.681332 C143.2141,164.672394 141.335423,162.71721 139.509737,160.834056 C149.559782,155.769785 154.506572,137.579336 154.714598,136.797406 C154.761144,136.621812 154.65731,136.442276 154.482224,136.39569 C154.306781,136.347312 154.127399,136.453027 154.080853,136.627904 C154.030368,136.817832 148.939643,155.539363 139.028878,160.338451 C136.574818,157.811691 134.222086,155.420748 132.02761,153.211849 C132.000757,153.166337 131.96352,153.131935 131.921628,153.105059 C130.581813,151.757286 129.30215,150.47796 128.095529,149.277829 C134.051297,144.232193 135.7087,127.665091 135.7087,127.508132 C135.7087,127.330388 135.566913,127.188121 135.388964,127.183462 C135.214594,127.183462 135.062066,127.320712 135.052757,127.498456 C135.04488,127.658999 133.333769,144.059466 127.627202,148.812685 C121.377118,142.605979 117.203354,138.641141 117.056913,138.502458 C116.925509,138.378109 116.717483,138.383484 116.593241,138.515359 C116.46864,138.647233 116.474369,138.854721 116.605772,138.979428 C116.781932,139.146063 122.771715,144.836379 131.190852,153.300004 C121.227454,158.466405 107.019757,157.646131 106.875821,157.636814 C106.692501,157.629289 106.539256,157.762955 106.527132,157.943924 C106.516341,158.124893 106.653832,158.281136 106.834646,158.292245 C106.870093,158.294395 107.753755,158.34564 109.216738,158.34564 C113.783639,158.34564 123.995522,157.842868 131.673859,153.785933 C135.551517,157.690567 139.920418,162.160327 144.460106,166.934688 C133.041602,175.253179 115.55705,177.93869 115.380175,177.965208 C115.201151,177.992085 115.077266,178.159078 115.10412,178.338256 C115.128467,178.501307 115.268106,178.618131 115.427795,178.618131 C115.444265,178.618131 115.460377,178.616698 115.476847,178.614547 C115.655513,178.588029 133.365635,175.869191 144.915901,167.414526 C149.917472,172.684133 155.111673,178.311379 160.074216,183.951168 C141.856382,196.852658 126.153119,198.540868 125.995578,198.556635 C125.81548,198.574553 125.684076,198.735096 125.70162,198.915707 C125.718449,199.08485 125.860952,199.21135 126.027802,199.21135 C126.038544,199.21135 126.049285,199.210991 126.060384,199.209916 C126.219358,199.194149 142.116325,197.492322 160.50996,184.447131 C164.781113,189.315023 168.869662,194.18399 172.503132,198.833285 C159.63883,209.02848 153.432786,208.284894 153.355448,208.273427 C153.17535,208.248342 153.009932,208.369107 152.982362,208.547926 C152.954792,208.726745 153.077245,208.894814 153.256269,208.922407 C153.296012,208.928499 153.472888,208.952509 153.790834,208.952509 C155.568184,208.952509 161.748448,208.195305 172.906294,199.351108 C177.245834,204.936785 180.90938,210.190267 183.415715,214.721305 C183.475509,214.829887 183.587578,214.890807 183.702869,214.890807 C183.756576,214.890807 183.811,214.877548 183.861484,214.849596 C184.019742,214.761799 184.077387,214.562196 183.989666,214.403444 C181.437142,209.788551 177.691962,204.430071 173.257181,198.736888 C173.247155,198.717178 173.241427,198.696035 173.227105,198.678476 C173.214573,198.662708 173.197387,198.654108 173.183065,198.641207 C171.897673,196.992775 170.554277,195.316749 169.166126,193.622448 C181.698875,186.186227 192.842757,165.471526 192.954826,165.261171" id="Fill-31" fill="#CDD0FD" opacity="0.200000003"></path>
                    <path d="M463.117627,245.847181 C466.355454,243.819968 469.152882,241.466294 471.563619,238.853529 C457.258174,236.61847 431.33157,231.452785 439.931163,224.365243 C445.772714,219.550387 457.274644,222.926806 467.320393,227.509448 C472.976117,230.089603 479.614683,227.201263 481.531671,221.283391 C481.548858,221.231071 481.565686,221.178393 481.582514,221.125715 C482.199431,219.202783 480.882889,217.199221 478.872808,217.01646 C464.177449,215.680513 438.230436,212.285818 445.403209,205.348427 C450.946864,199.986364 465.20433,203.123043 476.632144,206.899387 C480.616143,208.215982 484.730829,205.353802 484.914866,201.158901 C484.916298,201.120198 484.918088,201.081854 484.91952,201.043152 C484.977524,199.691438 483.944914,198.538252 482.596864,198.440421 C470.58579,197.571052 452.387291,195.03175 456.196204,187.648924 C458.725812,182.746271 467.379829,183.597722 476.104382,186.002641 C480.346533,187.172312 484.391758,183.604531 483.818523,179.238336 C483.813152,179.197842 483.807782,179.157706 483.802411,179.11757 C483.623387,177.76048 482.432878,176.772496 481.066567,176.834491 C473.121127,177.193921 462.008395,176.910821 462.920343,172.407018 C463.367903,170.195252 466.395198,169.394687 470.31618,169.331258 C476.546213,169.23056 481.054035,163.322006 479.480415,157.287669 C477.366858,149.181683 475.454883,144.005605 475.454883,144.005605 C475.454883,144.005605 469.200145,144.58184 460.056676,146.441702 C456.0025,147.266634 453.766491,151.585885 455.350853,155.410965 C456.909435,159.173332 457.316178,163.154654 454.511589,166.149425 C449.49856,171.502888 446.749469,160.320784 445.524945,152.849803 C445.288634,151.409216 443.837108,150.502937 442.444301,150.937263 C442.398471,150.951597 442.352283,150.965931 442.306095,150.980265 C437.114401,152.603971 434.512825,158.387818 436.655025,163.392243 C438.263376,167.149594 438.594213,171.078596 435.390042,173.810693 C429.815595,178.563195 426.779349,166.956799 425.418051,159.16079 C425.278412,158.359508 424.411578,157.92124 423.681161,158.277445 C423.629244,158.30253 423.576969,158.327973 423.525052,158.353416 C417.042237,161.525931 415.39092,169.974147 420.086718,175.458409 C424.86988,181.044444 428.420998,187.555035 425.941875,193.057573 C422.055981,201.682815 412.200356,185.547172 406.380288,174.533137 C405.4132,172.703377 402.932645,172.339647 401.508688,173.840795 C401.341838,174.017106 401.175704,174.194133 401.01136,174.372594 C397.487095,178.189431 397.492465,184.083651 401.045016,187.874687 C405.272846,192.386016 408.619519,197.999286 407.110347,203.670968 C405.151825,211.029784 399.118361,204.26727 394.291159,197.089782 C393.055894,195.253571 390.181486,195.997516 390.033254,198.206057 C387.84594,230.752918 427.874259,267.915389 463.117627,245.847181" id="Fill-33" fill="#DCDFFE" opacity="0.100000001"></path>
                    <path d="M446.561386,243.449823 C446.731101,243.512536 446.919792,243.425814 446.982451,243.255595 C447.045825,243.085377 446.958461,242.896882 446.788747,242.833812 C446.566757,242.751748 424.615558,234.538972 415.708401,223.22356 C418.383735,220.324111 421.093799,217.276303 423.792048,214.157183 C423.809234,214.146432 423.827853,214.139624 423.842891,214.125648 C423.878696,214.091604 423.903401,214.051468 423.920587,214.008824 C425.582646,212.085534 427.239691,210.136083 428.881341,208.178033 C434.649492,215.954332 444.679487,219.468718 452.131179,221.046196 C460.291806,222.773825 467.202488,222.618657 467.271233,222.616865 C467.452406,222.612207 467.595267,222.461339 467.59097,222.28037 C467.585241,222.101193 467.435935,221.956059 467.254405,221.960718 C466.983363,221.967526 440.144452,222.476032 429.31422,207.661285 C432.479364,203.877058 435.58149,200.067746 438.542904,196.362715 C438.557226,196.352323 438.573696,196.346589 438.586944,196.334047 C438.622749,196.29857 438.64638,196.256642 438.66285,196.212206 C440.392222,194.047385 442.07254,191.919116 443.688768,189.8532 C450.066317,199.131365 468.7446,201.567103 469.546628,201.667442 C469.726726,201.68966 469.890353,201.562086 469.91291,201.382192 C469.9369,201.201581 469.807644,201.038171 469.628262,201.015953 C469.433484,200.991226 450.210252,198.485251 444.114129,189.308859 C446.282109,186.532684 448.329785,183.874766 450.218487,181.399251 C450.260021,181.366282 450.288665,181.324713 450.309432,181.279561 C451.462346,179.76802 452.55475,178.325283 453.578767,176.966044 C459.382007,182.186915 476.006527,181.581295 476.16192,181.560152 C476.33808,181.536143 476.459816,181.375958 476.440123,181.198931 C476.416134,181.026204 476.259667,180.893254 476.082791,180.908305 C475.922744,180.922281 459.455764,181.451929 453.975842,176.438545 C459.27137,169.398306 462.629501,164.721417 462.74694,164.557649 C462.852206,164.410365 462.81855,164.205028 462.671392,164.099672 C462.523877,163.993957 462.319073,164.027642 462.213449,164.174926 C462.072378,164.372021 457.252696,171.084366 450.017264,180.581485 C443.55092,171.402943 442.434169,157.203491 442.423785,157.059433 C442.406599,156.876672 442.253354,156.742647 442.07254,156.756264 C441.892084,156.769524 441.756026,156.926841 441.769632,157.107452 C441.772138,157.143288 441.841241,158.026274 442.039958,159.476894 C442.660097,164.005424 444.543787,174.063011 449.601929,181.126185 C446.263133,185.501697 442.43202,190.440185 438.321631,195.590102 C428.537615,185.396341 423.50561,168.423581 423.455483,168.251571 C423.404282,168.077769 423.222394,167.977788 423.048383,168.028674 C422.890842,168.074902 422.793811,168.229353 422.815652,168.387746 C422.8178,168.403872 422.82138,168.419639 422.825677,168.435765 C422.87652,168.609209 427.971541,185.801282 437.908802,196.10685 C433.371261,201.781757 428.506106,207.696045 423.596912,213.382778 C408.352666,197.069391 404.549839,181.727504 404.512961,181.573412 C404.470711,181.397101 404.294193,181.288519 404.117676,181.330447 C403.952616,181.370224 403.846633,181.528617 403.86919,181.693819 C403.870623,181.704569 403.872771,181.71532 403.875277,181.726071 C403.912156,181.881597 407.755084,197.41377 423.165106,213.882325 C418.926178,218.778168 414.661469,223.493401 410.552512,227.727364 C398.714017,216.355331 398.607319,210.100248 398.608393,210.022127 C398.608751,209.840082 398.466606,209.69244 398.285792,209.689215 C398.104978,209.68599 397.955314,209.830407 397.952449,210.011734 C397.951733,210.05187 397.952091,210.230689 397.995057,210.546041 C398.236381,212.308072 399.82504,218.333808 410.094211,228.197525 C405.154582,233.25857 400.451265,237.604339 396.306145,240.704825 C396.206966,240.779005 396.161852,240.897979 396.177606,241.012652 C396.184767,241.065689 396.205176,241.118009 396.239548,241.164236 C396.348037,241.30937 396.553556,241.339472 396.698924,241.230532 C400.920666,238.073068 405.716359,233.631976 410.750154,228.461991 C410.768415,228.449449 410.788108,228.440848 410.803862,228.424364 C410.817825,228.409671 410.823912,228.391395 410.834654,228.375269 C412.291909,226.876988 413.768856,225.317427 415.257619,223.710923 C424.320169,235.128824 446.338323,243.367402 446.561386,243.449823" id="Fill-35" fill="#CDD0FD" opacity="0.300000012"></path>
                    <path d="M524.909529,328.861225 L7.39608746,328.861225 C7.14724419,328.861225 6.94566323,328.659471 6.94566323,328.410414 C6.94566323,328.160999 7.14724419,327.959246 7.39608746,327.959246 L524.909529,327.959246 C525.158372,327.959246 525.360311,328.160999 525.360311,328.410414 C525.360311,328.659471 525.158372,328.861225 524.909529,328.861225" id="Fill-37" fill="#44465F"></path>
                    <path d="M63.4832123,297.696252 C63.4832123,297.696252 50.2511952,302.692793 50.317076,293.931734 C50.3829568,285.170675 54.4636284,282.996895 48.5400844,279.703256 C42.6165404,276.409975 38.9311537,275.224179 39.9841725,268.834712 C41.0371913,262.444887 27.2158274,257.043405 28.5978921,249.929345 C29.9799569,242.815285 40.7081453,244.198534 44.9861012,249.007298 C49.2640572,253.815703 59.5310799,250.061219 61.4398331,260.9957 C63.3485863,271.93054 63.9407975,270.481353 70.7855986,275.816898 C77.6303998,281.152443 75.201403,294.676037 63.4832123,297.696252" id="Fill-39" fill="#4A63FE"></path>
                    <path d="M65.25247,307.631496 C65.237074,307.631496 65.2213199,307.631496 65.2055658,307.630421 C64.6255282,307.60462 64.1758201,307.113673 64.2012415,306.53278 C64.2058961,306.426349 64.4694194,299.205857 61.6755718,289.480107 C59.0983432,280.507261 53.3119316,267.495397 40.3824649,256.460935 C39.9406339,256.083946 39.8880008,255.419914 40.2646672,254.977704 C40.6413335,254.534778 41.3047962,254.482099 41.7469854,254.859447 C55.1036031,266.258714 61.0686807,279.707413 63.7203832,288.981636 C66.5972978,299.043164 66.315537,306.320634 66.3022664,306.625594 C66.2772031,307.190361 65.8117408,307.631496 65.25247,307.631496" id="Fill-41" fill="#44465F"></path>
                    <path d="M69.6593232,298.806973 C69.6593232,298.806973 81.2368011,303.178543 81.1791554,295.512975 C81.1215097,287.847765 77.5514144,285.945618 82.7341573,283.064087 C87.9169003,280.182197 91.1414794,279.14476 90.2202222,273.554066 C89.298607,267.963731 101.391674,263.237389 100.182546,257.012765 C98.9730605,250.7885 89.5868355,251.998665 85.8438031,256.206109 C82.1004126,260.413194 73.1173496,257.128156 71.4470563,266.695513 C69.777121,276.26287 69.2590257,274.995011 63.269959,279.663299 C57.2812503,284.331946 59.4062644,296.164464 69.6593232,298.806973" id="Fill-43" fill="#7C87ED"></path>
                    <path d="M68.1110526,307.631209 C67.5517819,307.631209 67.0863196,307.190075 67.0616143,306.625666 C67.0498646,306.357975 66.8023877,299.969942 69.325551,291.146171 C71.6507139,283.014024 76.8810772,271.221642 88.592465,261.226767 C89.0346541,260.849061 89.6977588,260.90174 90.0747832,261.344666 C90.4514495,261.786876 90.3988165,262.450908 89.9569854,262.827897 C78.6723907,272.458325 73.6206933,283.813872 71.3700044,291.644284 C68.9234633,300.156286 69.1597749,306.470857 69.1622812,306.533569 C69.1869865,307.114103 68.7372784,307.60505 68.1575989,307.630134 C68.1418448,307.631209 68.1264487,307.631209 68.1110526,307.631209" id="Fill-45" fill="#44465F"></path>
                    <path d="M77.6706444,328.419373 L57.1269317,328.419373 C56.1770307,328.419373 55.3631879,327.739216 55.1941893,326.803551 L51.9560043,308.895127 C51.7379532,307.688905 52.664223,306.57908 53.8891048,306.57908 L80.9088293,306.57908 C82.133353,306.57908 83.0596229,307.688905 82.8415717,308.895127 L79.6033868,326.803551 C79.4343882,327.739216 78.6205454,328.419373 77.6706444,328.419373" id="Fill-47" fill="#44465F"></path>
                    <g id="Group-51" transform="translate(483.842784, 244.995594)">
                        <mask id="mask-6" fill="white">
                            <use xlink:href="#path-5"></use>
                        </mask>
                        <g id="Clip-50"></g>
                        <path d="M11.090619,52.7006575 C11.090619,52.7006575 24.3226361,57.6971989 24.2567553,48.93614 C24.1908745,40.1750811 20.110561,38.0013007 26.0337469,34.7076614 C31.9572909,31.4143805 35.6426776,30.2285844 34.5896588,23.8391178 C33.53664,17.4492928 47.358004,12.0478104 45.9759392,4.93375031 C44.5938744,-2.18030979 33.865686,-0.797060145 29.5877301,4.01170333 C25.3097741,8.82010845 15.0427514,5.06562489 13.1339982,16.0001058 C11.225245,26.9349451 10.6330338,25.4857582 3.78823268,30.8213033 C-3.05656847,36.1568484 -0.627571712,49.680443 11.090619,52.7006575" id="Fill-49" fill="#4A63FE" mask="url(#mask-6)"></path>
                    </g>
                    <path d="M493.164145,307.631496 C493.179541,307.631496 493.195296,307.631496 493.21105,307.630421 C493.791087,307.60462 494.240795,307.113673 494.215374,306.53278 C494.210719,306.426349 493.947196,299.205857 496.741044,289.480107 C499.318272,280.507261 505.104684,267.495397 518.03415,256.460935 C518.475982,256.083946 518.528973,255.419914 518.151948,254.977704 C517.77564,254.534778 517.111819,254.482099 516.669988,254.859447 C503.313012,266.258714 497.347935,279.707413 494.696232,288.981636 C491.819318,299.043164 492.101277,306.320634 492.114707,306.625594 C492.139412,307.190361 492.604875,307.631496 493.164145,307.631496" id="Fill-52" fill="#44465F"></path>
                    <path d="M488.757292,298.806973 C488.757292,298.806973 477.179814,303.178543 477.23746,295.512975 C477.295106,287.847765 480.865201,285.945618 475.682458,283.064087 C470.500073,280.182197 467.275136,279.14476 468.196393,273.554066 C469.118008,267.963731 457.024942,263.237389 458.234069,257.012765 C459.443555,250.7885 468.82978,251.998665 472.57317,256.206109 C476.316203,260.413194 485.299624,257.128156 486.969559,266.695513 C488.639494,276.26287 489.15759,274.995011 495.146656,279.663299 C501.135365,284.331946 499.010351,296.164464 488.757292,298.806973" id="Fill-54" fill="#7C87ED"></path>
                    <path d="M490.305563,307.631209 C490.864834,307.631209 491.330296,307.190075 491.355001,306.625666 C491.366751,306.357975 491.614228,299.969942 489.091064,291.146171 C486.765902,283.014024 481.535538,271.221642 469.82415,261.226767 C469.381961,260.849061 468.718857,260.90174 468.341832,261.344666 C467.965166,261.786876 468.017799,262.450908 468.45963,262.827897 C479.744225,272.458325 484.795922,283.813872 487.046611,291.644284 C489.493152,300.156286 489.256841,306.470857 489.254334,306.533569 C489.229629,307.114103 489.679337,307.60505 490.259017,307.630134 C490.274771,307.631209 490.290167,307.631209 490.305563,307.631209" id="Fill-56" fill="#44465F"></path>
                    <path d="M480.745971,328.419373 L501.289684,328.419373 C502.239585,328.419373 503.053428,327.739216 503.222426,326.803551 L506.460611,308.895127 C506.678662,307.688905 505.752392,306.57908 504.527511,306.57908 L477.508144,306.57908 C476.283262,306.57908 475.356993,307.688905 475.575044,308.895127 L478.813229,326.803551 C478.982227,327.739216 479.79607,328.419373 480.745971,328.419373" id="Fill-58" fill="#44465F"></path>
                    <path d="M383.44904,40.7413607 L475.311234,40.7413607 C475.311234,34.0770359 470.892923,28.4472815 464.829025,26.620747 C463.190956,19.2884488 456.696683,13.7945109 448.899833,13.6981134 C444.716402,5.5638171 436.244989,0 426.474937,0 C413.996968,0 403.638285,9.07533609 401.624982,20.9906342 C401.506468,20.9884841 401.388671,20.9816753 401.269441,20.9816753 C391.369059,20.9816753 383.343416,29.0145572 383.343416,38.9230683 C383.343416,39.5372885 383.374566,40.1443416 383.434718,40.7424358 C383.443311,40.7417191 383.44904,40.7413607 383.44904,40.7413607" id="Fill-60" fill="#EFF1FE" opacity="0.100000001"></path>
                    <path d="M439.612501,380 L129.76038,380 C125.69582,380 122.369913,376.6716 122.369913,372.603198 L122.369913,372.603198 C122.369913,368.534796 125.69582,365.206396 129.76038,365.206396 L439.612501,365.206396 C443.677418,365.206396 447.002967,368.534796 447.002967,372.603198 L447.002967,372.603198 C447.002967,376.6716 443.677418,380 439.612501,380" id="Fill-62" fill="#EFF1FE" opacity="0.100000001"></path>
                    <path d="M103.950248,380 L84.951154,380 C80.8865945,380 77.5606879,376.6716 77.5606879,372.603198 L77.5606879,372.603198 C77.5606879,368.534796 80.8865945,365.206396 84.951154,365.206396 L103.950248,365.206396 C108.015166,365.206396 111.340714,368.534796 111.340714,372.603198 L111.340714,372.603198 C111.340714,376.6716 108.015166,380 103.950248,380" id="Fill-64" fill="#EFF1FE" opacity="0.100000001"></path>
                    <path d="M381.120619,350.412684 L362.121525,350.412684 C358.056965,350.412684 354.731059,347.084285 354.731059,343.015882 L354.731059,343.015882 C354.731059,338.94748 358.056965,335.61908 362.121525,335.61908 L381.120619,335.61908 C385.185536,335.61908 388.511085,338.94748 388.511085,343.015882 L388.511085,343.015882 C388.511085,347.084285 385.185536,350.412684 381.120619,350.412684" id="Fill-66" fill="#EFF1FE" opacity="0.100000001"></path>
                    <path d="M167.626806,350.412684 L107.441824,350.412684 C103.376906,350.412684 100.051357,347.084285 100.051357,343.015882 L100.051357,343.015882 C100.051357,338.94748 103.376906,335.61908 107.441824,335.61908 L167.626806,335.61908 C171.691366,335.61908 175.017272,338.94748 175.017272,343.015882 L175.017272,343.015882 C175.017272,347.084285 171.691366,350.412684 167.626806,350.412684" id="Fill-68" fill="#EFF1FE" opacity="0.100000001"></path>
                    <path d="M413.364334,350.412684 L406.520249,350.412684 C402.455689,350.412684 399.129782,347.084285 399.129782,343.015882 L399.129782,343.015882 C399.129782,338.94748 402.455689,335.61908 406.520249,335.61908 L413.364334,335.61908 C417.429251,335.61908 420.7548,338.94748 420.7548,343.015882 L420.7548,343.015882 C420.7548,347.084285 417.429251,350.412684 413.364334,350.412684" id="Fill-70" fill="#EFF1FE" opacity="0.100000001"></path>
                    <path d="M335.157405,350.412684 L195.6462,350.412684 C191.581641,350.412684 188.255734,347.084285 188.255734,343.015882 L188.255734,343.015882 C188.255734,338.94748 191.581641,335.61908 195.6462,335.61908 L335.157405,335.61908 C339.222323,335.61908 342.547871,338.94748 342.547871,343.015882 L342.547871,343.015882 C342.547871,347.084285 339.222323,350.412684 335.157405,350.412684" id="Fill-72" fill="#EFF1FE" opacity="0.100000001"></path>
                    <path d="M320.154054,357.809522 L320.154054,357.809522 C320.154054,353.74112 323.47996,350.41272 327.54452,350.41272 L210.525166,350.41272 C214.590084,350.41272 217.915632,353.74112 217.915632,357.809522 C217.915632,361.877925 214.590084,365.206324 210.525166,365.206324 L327.54452,365.206324 C323.47996,365.206324 320.154054,361.877925 320.154054,357.809522" id="Fill-74" fill="#EFF1FE" opacity="0.100000001"></path>
                    <path d="M322.787209,327.869442 L192.030633,327.869442 C184.796992,327.869442 178.932526,322.000306 178.932526,314.760105 L178.932526,44.1122613 C178.932526,36.8720603 184.796992,31.0029248 192.030633,31.0029248 L322.787209,31.0029248 C330.02085,31.0029248 335.884958,36.8720603 335.884958,44.1122613 L335.884958,314.760105 C335.884958,322.000306 330.02085,327.869442 322.787209,327.869442" id="Fill-76" fill="#44465F"></path>
                    <polygon id="Fill-78" fill="#EFF1FE" points="186.032006 295.301761 328.785693 295.301761 328.785693 65.4493887 186.032006 65.4493887"></polygon>
                    <path d="M309.863686,249.89953 L203.287515,249.89953 C202.298587,249.89953 201.497276,249.097173 201.497276,248.107755 L201.497276,185.41537 C201.497276,184.425594 202.298587,183.623595 203.287515,183.623595 L309.863686,183.623595 C310.852256,183.623595 311.653925,184.425594 311.653925,185.41537 L311.653925,248.107755 C311.653925,249.097173 310.852256,249.89953 309.863686,249.89953" id="Fill-80" fill="#FFFFFF"></path>
                    <polygon id="Fill-81" fill="#7C87ED" points="210.880421 193.322576 210.87326 189.997044 209.22624 192.74885 208.810905 192.74885 207.163884 190.040046 207.163884 193.322576 206.275926 193.322576 206.275926 188.305609 207.042148 188.305609 209.032894 191.630783 210.987836 188.305609 211.754058 188.305609 211.761219 193.322576"></polygon>
                    <polygon id="Fill-82" fill="#7C87ED" points="216.873856 192.541148 216.873856 193.32272 213.114354 193.32272 213.114354 188.305752 216.773603 188.305752 216.773603 189.086607 214.045278 189.086607 214.045278 190.391019 216.465682 190.391019 216.465682 191.158257 214.045278 191.158257 214.045278 192.541148"></polygon>
                    <path d="M218.345397,193.229512 C217.984843,193.119497 217.699837,192.973646 217.489663,192.79196 L217.811906,192.068442 C218.017067,192.230777 218.269133,192.363368 218.567387,192.465858 C218.865641,192.568705 219.165327,192.620308 219.466087,192.620308 C219.838457,192.620308 220.11666,192.560463 220.300339,192.441131 C220.484017,192.321799 220.576035,192.163764 220.576035,191.967744 C220.576035,191.824402 220.524835,191.706504 220.422075,191.612973 C220.319315,191.519801 220.189344,191.447055 220.031803,191.394735 C219.874262,191.342057 219.659433,191.282212 219.387316,191.215558 C219.005279,191.124535 218.696284,191.033872 218.459972,190.942849 C218.223661,190.852186 218.020648,190.710277 217.851291,190.516766 C217.681576,190.323254 217.597077,190.061297 217.597077,189.73161 C217.597077,189.45496 217.672267,189.202678 217.822647,188.97584 C217.973027,188.748643 218.199672,188.56839 218.502938,188.434366 C218.806205,188.300699 219.177142,188.234045 219.616467,188.234045 C219.921882,188.234045 220.222642,188.272031 220.518748,188.348719 C220.814495,188.425048 221.070141,188.534705 221.28497,188.678405 L220.991371,189.401924 C220.771888,189.273274 220.542737,189.175443 220.303919,189.108431 C220.065101,189.04106 219.833802,189.008092 219.609306,189.008092 C219.241591,189.008092 218.9684,189.070087 218.789377,189.194078 C218.610353,189.318427 218.520841,189.483629 218.520841,189.688608 C218.520841,189.832308 218.572041,189.94949 218.674801,190.040154 C218.777203,190.130817 218.907532,190.202488 219.065073,190.254808 C219.222614,190.307845 219.437443,190.367332 219.70956,190.433986 C220.081929,190.519991 220.387344,190.609579 220.626162,190.702752 C220.86498,190.796282 221.069067,190.938191 221.238424,191.129552 C221.407781,191.320555 221.492638,191.578571 221.492638,191.903599 C221.492638,192.180607 221.417448,192.431455 221.267068,192.655786 C221.116688,192.880474 220.888611,193.059651 220.583196,193.193318 C220.277423,193.326984 219.905412,193.394355 219.466087,193.394355 C219.079395,193.394355 218.705951,193.339168 218.345397,193.229512" id="Fill-83" fill="#7C87ED"></path>
                    <path d="M222.849675,193.229512 C222.489121,193.119497 222.204115,192.973646 221.993941,192.79196 L222.316184,192.068442 C222.521345,192.230777 222.773411,192.363368 223.071665,192.465858 C223.369919,192.568705 223.669605,192.620308 223.970365,192.620308 C224.342735,192.620308 224.620938,192.560463 224.804617,192.441131 C224.988295,192.321799 225.080313,192.163764 225.080313,191.967744 C225.080313,191.824402 225.029113,191.706504 224.926353,191.612973 C224.823593,191.519801 224.693622,191.447055 224.536081,191.394735 C224.37854,191.342057 224.163711,191.282212 223.891594,191.215558 C223.509557,191.124535 223.200562,191.033872 222.96425,190.942849 C222.727939,190.852186 222.524926,190.710277 222.355569,190.516766 C222.185854,190.323254 222.101355,190.061297 222.101355,189.73161 C222.101355,189.45496 222.176545,189.202678 222.326925,188.97584 C222.477305,188.748643 222.70395,188.56839 223.007216,188.434366 C223.310483,188.300699 223.68142,188.234045 224.120745,188.234045 C224.42616,188.234045 224.72692,188.272031 225.023026,188.348719 C225.318773,188.425048 225.574419,188.534705 225.789248,188.678405 L225.495649,189.401924 C225.276166,189.273274 225.047015,189.175443 224.808197,189.108431 C224.569379,189.04106 224.33808,189.008092 224.113584,189.008092 C223.745869,189.008092 223.472678,189.070087 223.293655,189.194078 C223.114631,189.318427 223.025119,189.483629 223.025119,189.688608 C223.025119,189.832308 223.076319,189.94949 223.179079,190.040154 C223.281481,190.130817 223.41181,190.202488 223.569351,190.254808 C223.726892,190.307845 223.941721,190.367332 224.213838,190.433986 C224.586207,190.519991 224.891622,190.609579 225.13044,190.702752 C225.369258,190.796282 225.573345,190.938191 225.742702,191.129552 C225.912059,191.320555 225.996916,191.578571 225.996916,191.903599 C225.996916,192.180607 225.921726,192.431455 225.771346,192.655786 C225.620966,192.880474 225.393247,193.059651 225.087474,193.193318 C224.781701,193.326984 224.40969,193.394355 223.970365,193.394355 C223.583673,193.394355 223.210229,193.339168 222.849675,193.229512" id="Fill-84" fill="#7C87ED"></path>
                    <path d="M229.86394,191.430391 L228.918694,189.23726 L227.980609,191.430391 L229.86394,191.430391 Z M230.171862,192.161435 L227.665526,192.161435 L227.17142,193.322505 L226.211852,193.322505 L228.467554,188.305537 L229.384156,188.305537 L231.647019,193.322505 L230.673129,193.322505 L230.171862,192.161435 Z" id="Fill-85" fill="#7C87ED"></path>
                    <path d="M235.635529,190.75672 L236.516327,190.75672 L236.516327,192.75634 C236.258532,192.961677 235.957772,193.119712 235.614046,193.229368 C235.27032,193.339025 234.916927,193.394212 234.554224,193.394212 C234.04329,193.394212 233.58284,193.283122 233.172159,193.060942 C232.761479,192.838762 232.439235,192.531651 232.20543,192.13997 C231.971625,191.748288 231.854543,191.306078 231.854543,190.814057 C231.854543,190.322036 231.971625,189.880184 232.20543,189.488144 C232.439235,189.096462 232.762911,188.789352 233.17574,188.567172 C233.588569,188.344992 234.052957,188.233902 234.568546,188.233902 C234.988536,188.233902 235.370573,188.303064 235.714299,188.441748 C236.058025,188.580431 236.34697,188.78326 236.580775,189.050951 L235.993577,189.624319 C235.61154,189.241954 235.150732,189.050951 234.611512,189.050951 C234.258119,189.050951 233.944469,189.12513 233.669846,189.273131 C233.395223,189.421132 233.180395,189.629336 233.02536,189.896668 C232.870325,190.164359 232.792629,190.470036 232.792629,190.814057 C232.792629,191.14876 232.870325,191.449778 233.02536,191.717111 C233.180395,191.984802 233.395223,192.195156 233.669846,192.347457 C233.944469,192.500833 234.255612,192.577163 234.604351,192.577163 C234.995697,192.577163 235.339423,192.491157 235.635529,192.319147 L235.635529,190.75672 Z" id="Fill-86" fill="#7C87ED"></path>
                    <polygon id="Fill-87" fill="#7C87ED" points="241.500317 192.541148 241.500317 193.32272 237.740815 193.32272 237.740815 188.305752 241.400064 188.305752 241.400064 189.086607 238.671739 189.086607 238.671739 190.391019 241.092143 190.391019 241.092143 191.158257 238.671739 191.158257 238.671739 192.541148"></polygon>
                    <path d="M309.863686,175.22512 L203.287515,175.22512 C202.298587,175.22512 201.497276,174.422763 201.497276,173.433346 L201.497276,162.535417 C201.497276,161.545641 202.298587,160.743643 203.287515,160.743643 L309.863686,160.743643 C310.852256,160.743643 311.653925,161.545641 311.653925,162.535417 L311.653925,173.433346 C311.653925,174.422763 310.852256,175.22512 309.863686,175.22512" id="Fill-88" fill="#FFFFFF"></path>
                    <path d="M209.219008,167.998608 C209.428824,167.826956 209.53409,167.580766 209.53409,167.260397 C209.53409,166.940386 209.428824,166.694196 209.219008,166.522186 C209.008833,166.350176 208.700912,166.264529 208.295244,166.264529 L207.206779,166.264529 L207.206779,168.256624 L208.295244,168.256624 C208.700912,168.256624 209.008833,168.170977 209.219008,167.998608 M209.473222,165.690803 C209.795465,165.834503 210.042518,166.039841 210.214381,166.307173 C210.386244,166.574864 210.472175,166.892725 210.472175,167.260397 C210.472175,167.623769 210.386244,167.940196 210.214381,168.210037 C210.042518,168.480237 209.795465,168.686649 209.473222,168.829991 C209.150978,168.973333 208.772522,169.045004 208.33821,169.045004 L207.206779,169.045004 L207.206779,170.492758 L206.275854,170.492758 L206.275854,165.476148 L208.33821,165.476148 C208.772522,165.476148 209.150978,165.547819 209.473222,165.690803" id="Fill-89" fill="#7C87ED"></path>
                    <polygon id="Fill-90" fill="#7C87ED" points="215.857251 165.475969 215.857251 170.492937 214.926326 170.492937 214.926326 168.342808 212.33406 168.342808 212.33406 170.492937 211.403135 170.492937 211.403135 165.475969 212.33406 165.475969 212.33406 167.54726 214.926326 167.54726 214.926326 165.475969"></polygon>
                    <path d="M220.447353,169.521616 C220.714815,169.371107 220.924631,169.160753 221.077517,168.890912 C221.230046,168.62107 221.306668,168.318977 221.306668,167.984274 C221.306668,167.649929 221.230046,167.347836 221.077517,167.077995 C220.924631,166.807795 220.714815,166.597441 220.447353,166.446932 C220.179891,166.296423 219.879131,166.221526 219.545072,166.221526 C219.210656,166.221526 218.910253,166.296423 218.642792,166.446932 C218.37533,166.597441 218.165156,166.807795 218.012627,167.077995 C217.859741,167.347836 217.783477,167.649929 217.783477,167.984274 C217.783477,168.318977 217.859741,168.62107 218.012627,168.890912 C218.165156,169.160753 218.37533,169.371107 218.642792,169.521616 C218.910253,169.672125 219.210656,169.74738 219.545072,169.74738 C219.879131,169.74738 220.179891,169.672125 220.447353,169.521616 M218.163008,170.231517 C217.752327,170.008979 217.430084,169.700794 217.196278,169.306603 C216.962473,168.912413 216.845391,168.471636 216.845391,167.984274 C216.845391,167.49727 216.962473,167.056493 217.196278,166.662303 C217.430084,166.267754 217.752327,165.959569 218.163008,165.737389 C218.573688,165.515209 219.034138,165.404119 219.545072,165.404119 C220.056007,165.404119 220.516456,165.515209 220.927137,165.737389 C221.337818,165.959569 221.660061,166.267038 221.893866,166.658361 C222.127672,167.050401 222.244753,167.492253 222.244753,167.984274 C222.244753,168.476653 222.127672,168.918505 221.893866,169.310187 C221.660061,169.702227 221.337818,170.008979 220.927137,170.231517 C220.516456,170.453697 220.056007,170.564429 219.545072,170.564429 C219.034138,170.564429 218.573688,170.453697 218.163008,170.231517" id="Fill-91" fill="#7C87ED"></path>
                    <polygon id="Fill-92" fill="#7C87ED" points="227.686974 165.475969 227.686974 170.492937 226.920751 170.492937 224.156622 167.095733 224.156622 170.492937 223.232858 170.492937 223.232858 165.475969 223.99908 165.475969 226.76321 168.873173 226.76321 165.475969"></polygon>
                    <polygon id="Fill-93" fill="#7C87ED" points="232.792844 169.711652 232.792844 170.492865 229.033341 170.492865 229.033341 165.475898 232.69259 165.475898 232.69259 166.257111 229.964265 166.257111 229.964265 167.561523 232.384669 167.561523 232.384669 168.328402 229.964265 168.328402 229.964265 169.711652"></polygon>
                    <polygon id="Fill-94" fill="#7C87ED" points="240.261507 165.475969 240.261507 170.492937 239.495285 170.492937 236.731155 167.095733 236.731155 170.492937 235.807392 170.492937 235.807392 165.475969 236.573614 165.475969 239.337744 168.873173 239.337744 165.475969"></polygon>
                    <path d="M242.144947,169.980418 C241.758255,169.590886 241.564909,169.032928 241.564909,168.306901 L241.564909,165.475898 L242.495833,165.475898 L242.495833,168.270707 C242.495833,169.255466 242.920478,169.747487 243.770484,169.747487 C244.615477,169.747487 245.037973,169.255466 245.037973,168.270707 L245.037973,165.475898 L245.954576,165.475898 L245.954576,168.306901 C245.954576,169.032928 245.762304,169.590886 245.378119,169.980418 C244.993933,170.369949 244.455429,170.564536 243.763323,170.564536 C243.071216,170.564536 242.531638,170.369949 242.144947,169.980418" id="Fill-95" fill="#7C87ED"></path>
                    <polygon id="Fill-96" fill="#7C87ED" points="251.862223 170.492758 251.855062 167.167583 250.208041 169.91939 249.792706 169.91939 248.145686 167.210227 248.145686 170.492758 247.257727 170.492758 247.257727 165.47579 248.023949 165.47579 250.014696 168.801323 251.969637 165.47579 252.735859 165.47579 252.74302 170.492758"></polygon>
                    <path d="M257.612471,169.03798 C257.612471,168.555276 257.251917,168.314104 256.531167,168.314104 L255.027366,168.314104 L255.027366,169.761857 L256.531167,169.761857 C257.251917,169.761857 257.612471,169.520684 257.612471,169.03798 L257.612471,169.03798 Z M255.027366,166.206977 L255.027366,167.590227 L256.344982,167.590227 C256.669373,167.590227 256.918933,167.531815 257.093302,167.414633 C257.267313,167.297451 257.354677,167.126874 257.354677,166.902186 C257.354677,166.672839 257.267313,166.499753 257.093302,166.382571 C256.918933,166.265747 256.669373,166.206977 256.344982,166.206977 L255.027366,166.206977 Z M258.307084,168.339189 C258.46928,168.551693 258.550557,168.8158 258.550557,169.131153 C258.550557,169.566195 258.383348,169.901616 258.04929,170.137771 C257.714873,170.374644 257.227928,170.492901 256.588454,170.492901 L254.096441,170.492901 L254.096441,165.475933 L256.445235,165.475933 C257.037088,165.475933 257.493241,165.591682 257.812978,165.823538 C258.132715,166.055393 258.292762,166.374329 258.292762,166.780345 C258.292762,167.028685 258.235475,167.248715 258.120899,167.439718 C258.006324,167.630721 257.848783,167.778722 257.648276,167.884078 C257.925047,167.974742 258.14453,168.126684 258.307084,168.339189 L258.307084,168.339189 Z" id="Fill-97" fill="#7C87ED"></path>
                    <polygon id="Fill-98" fill="#7C87ED" points="263.305218 169.711652 263.305218 170.492865 259.545715 170.492865 259.545715 165.475898 263.204964 165.475898 263.204964 166.257111 260.476639 166.257111 260.476639 167.561523 262.897043 167.561523 262.897043 168.328402 260.476639 168.328402 260.476639 169.711652"></polygon>
                    <path d="M267.286817,166.52233 C267.076643,166.350319 266.768722,166.264314 266.363054,166.264314 L265.274588,166.264314 L265.274588,168.263934 L266.363054,168.263934 C266.768722,168.263934 267.076643,168.176854 267.286817,168.001977 C267.496633,167.827816 267.6019,167.58091 267.6019,167.26054 C267.6019,166.94053 267.496633,166.69434 267.286817,166.52233 L267.286817,166.52233 Z M267.623382,170.492901 L266.599365,169.023646 C266.5564,169.028663 266.491951,169.030813 266.40602,169.030813 L265.274588,169.030813 L265.274588,170.492901 L264.343664,170.492901 L264.343664,165.475933 L266.40602,165.475933 C266.840332,165.475933 267.218788,165.547604 267.541031,165.690946 C267.863274,165.834288 268.110328,166.039626 268.28219,166.307317 C268.454053,166.575008 268.539985,166.892868 268.539985,167.26054 C268.539985,167.637888 268.447967,167.962916 268.264288,168.235266 C268.080251,168.507257 267.816728,168.710802 267.473002,168.844469 L268.625916,170.492901 L267.623382,170.492901 Z" id="Fill-99" fill="#7C87ED"></path>
                    <path d="M309.863686,152.288547 L203.287515,152.288547 C202.298587,152.288547 201.497276,151.486191 201.497276,150.496773 L201.497276,139.598844 C201.497276,138.609427 202.298587,137.80707 203.287515,137.80707 L309.863686,137.80707 C310.852256,137.80707 311.653925,138.609427 311.653925,139.598844 L311.653925,150.496773 C311.653925,151.486191 310.852256,152.288547 309.863686,152.288547" id="Fill-100" fill="#FFFFFF"></path>
                    <polygon id="Fill-101" fill="#7C87ED" points="210.035285 146.775007 210.035285 147.556221 206.275782 147.556221 206.275782 142.539253 209.935032 142.539253 209.935032 143.320467 207.206707 143.320467 207.206707 144.624878 209.627111 144.624878 209.627111 145.391758 207.206707 145.391758 207.206707 146.775007"></polygon>
                    <polygon id="Fill-102" fill="#7C87ED" points="210.651378 145.9366 212.620641 145.9366 212.620641 145.191222 210.651378 145.191222"></polygon>
                    <polygon id="Fill-103" fill="#7C87ED" points="218.292084 147.556257 218.284923 144.230724 216.637903 146.982889 216.222567 146.982889 214.575547 144.273727 214.575547 147.556257 213.687588 147.556257 213.687588 142.539289 214.453811 142.539289 216.444557 145.864822 218.399498 142.539289 219.165721 142.539289 219.172882 147.556257"></polygon>
                    <path d="M223.469277,145.664251 L222.524031,143.471119 L221.585945,145.664251 L223.469277,145.664251 Z M223.777198,146.395295 L221.270863,146.395295 L220.776757,147.556364 L219.817189,147.556364 L222.07289,142.539397 L222.989493,142.539397 L225.252355,147.556364 L224.278465,147.556364 L223.777198,146.395295 Z" id="Fill-104" fill="#7C87ED"></path>
                    <polygon id="Fill-105" fill="#7C87ED" points="225.889537 147.556364 226.820462 147.556364 226.820462 142.539397 225.889537 142.539397"></polygon>
                    <polygon id="Fill-106" fill="#7C87ED" points="228.173704 142.539289 229.104628 142.539289 229.104628 146.767876 231.725539 146.767876 231.725539 147.556257 228.173704 147.556257"></polygon>
                    <path d="M221.76701,93.7432586 C221.116079,93.3888456 220.605503,92.8993329 220.236355,92.2743621 C219.86685,91.6493913 219.682455,90.9445073 219.682455,90.1593519 C219.682455,89.3745548 219.868998,88.6696709 220.242084,88.0447 C220.61517,87.4197292 221.127178,86.9298582 221.778468,86.5754452 C222.429399,86.2210323 223.158384,86.044005 223.965782,86.044005 C224.620652,86.044005 225.218233,86.1583202 225.758886,86.3869506 C226.299538,86.615581 226.756407,86.9470592 227.129493,87.3813853 L226.169925,88.2847978 C225.591319,87.659827 224.87952,87.3473415 224.034169,87.3473415 C223.485998,87.3473415 222.994756,87.4673904 222.560802,87.7071298 C222.126848,87.9472275 221.787777,88.2808559 221.544304,88.7076565 C221.300474,89.1344571 221.178737,89.6182361 221.178737,90.1593519 C221.178737,90.7008261 221.300474,91.1846051 221.544304,91.6114057 C221.787777,92.0382063 222.126848,92.3714763 222.560802,92.611574 C222.994756,92.8516717 223.485998,92.9717206 224.034169,92.9717206 C224.87952,92.9717206 225.591319,92.6556517 226.169925,92.022797 L227.129493,92.9373186 C226.756407,93.3716446 226.29739,93.7031228 225.753157,93.9317532 C225.208566,94.1603836 224.609194,94.2746988 223.954324,94.2746988 C223.146927,94.2746988 222.417941,94.0976715 221.76701,93.7432586" id="Fill-107" fill="#7C87ED"></path>
                    <path d="M233.559997,92.6115382 C233.986432,92.3714404 234.321207,92.0360203 234.565037,91.6056362 C234.808868,91.175252 234.930604,90.6929064 234.930604,90.1593161 C234.930604,89.6260841 234.808868,89.1440968 234.565037,88.7133543 C234.321207,88.2829702 233.986432,87.9475501 233.559997,87.7074523 C233.133562,87.4673546 232.653778,87.3473057 232.121003,87.3473057 C231.587869,87.3473057 231.108085,87.4673546 230.68165,87.7074523 C230.255215,87.9475501 229.920082,88.2829702 229.67661,88.7133543 C229.432779,89.1440968 229.311043,89.6260841 229.311043,90.1593161 C229.311043,90.6929064 229.432779,91.175252 229.67661,91.6056362 C229.920082,92.0360203 230.255215,92.3714404 230.68165,92.6115382 C231.108085,92.8516359 231.587869,92.9716848 232.121003,92.9716848 C232.653778,92.9716848 233.133562,92.8516359 233.559997,92.6115382 M229.916502,93.7432227 C229.261274,93.3888098 228.747476,92.897147 228.37439,92.2685926 C228.001304,91.6400382 227.814761,90.9365877 227.814761,90.1593161 C227.814761,89.3820444 228.001304,88.6789523 228.37439,88.0503979 C228.747476,87.4214852 229.261274,86.9298223 229.916502,86.5754094 C230.571371,86.2209965 231.306086,86.0439692 232.121003,86.0439692 C232.935561,86.0439692 233.670276,86.2209965 234.325503,86.5754094 C234.980015,86.9298223 235.494172,87.4196934 235.867257,88.0446642 C236.240343,88.669635 236.426886,89.374519 236.426886,90.1593161 C236.426886,90.9444715 236.240343,91.6493555 235.867257,92.2743263 C235.494172,92.8992971 234.980015,93.3888098 234.325503,93.7432227 C233.670276,94.0976357 232.935561,94.2746629 232.121003,94.2746629 C231.306086,94.2746629 230.571371,94.0976357 229.916502,93.7432227" id="Fill-108" fill="#7C87ED"></path>
                    <polygon id="Fill-109" fill="#7C87ED" points="245.107649 86.1583561 245.107649 94.1604194 243.885274 94.1604194 239.476631 88.741736 239.476631 94.1604194 238.003264 94.1604194 238.003264 86.1583561 239.225281 86.1583561 243.634282 91.5770395 243.634282 86.1583561"></polygon>
                    <polygon id="Fill-110" fill="#7C87ED" points="248.876855 87.4158232 246.226943 87.4158232 246.226943 86.1583561 253.011592 86.1583561 253.011592 87.4158232 250.36168 87.4158232 250.36168 94.1604194 248.876855 94.1604194"></polygon>
                    <path d="M258.425562,91.1425701 L256.917823,87.6446686 L255.421541,91.1425701 L258.425562,91.1425701 Z M258.916804,92.3086567 L254.918841,92.3086567 L254.130778,94.1606344 L252.600481,94.1606344 L256.198146,86.1582127 L257.660414,86.1582127 L261.269537,94.1606344 L259.716325,94.1606344 L258.916804,92.3086567 Z" id="Fill-111" fill="#7C87ED"></path>
                    <path d="M263.6855,93.7432586 C263.034569,93.3888456 262.523993,92.8993329 262.154846,92.2743621 C261.78534,91.6493913 261.600946,90.9445073 261.600946,90.1593519 C261.600946,89.3745548 261.787489,88.6696709 262.160574,88.0447 C262.53366,87.4197292 263.045669,86.9298582 263.696958,86.5754452 C264.347889,86.2210323 265.076874,86.044005 265.884272,86.044005 C266.539142,86.044005 267.136724,86.1583202 267.677376,86.3869506 C268.218028,86.615581 268.674897,86.9470592 269.047983,87.3813853 L268.088415,88.2847978 C267.50981,87.659827 266.79801,87.3473415 265.952659,87.3473415 C265.404488,87.3473415 264.913246,87.4673904 264.479292,87.7071298 C264.045338,87.9472275 263.706267,88.2808559 263.462795,88.7076565 C263.218964,89.1344571 263.097228,89.6182361 263.097228,90.1593519 C263.097228,90.7008261 263.218964,91.1846051 263.462795,91.6114057 C263.706267,92.0382063 264.045338,92.3714763 264.479292,92.611574 C264.913246,92.8516717 265.404488,92.9717206 265.952659,92.9717206 C266.79801,92.9717206 267.50981,92.6556517 268.088415,92.022797 L269.047983,92.9373186 C268.674897,93.3716446 268.21588,93.7031228 267.671647,93.9317532 C267.127056,94.1603836 266.527684,94.2746988 265.872815,94.2746988 C265.065417,94.2746988 264.336431,94.0976715 263.6855,93.7432586" id="Fill-112" fill="#7C87ED"></path>
                    <polygon id="Fill-113" fill="#7C87ED" points="272.006318 87.4158232 269.356406 87.4158232 269.356406 86.1583561 276.141055 86.1583561 276.141055 87.4158232 273.491143 87.4158232 273.491143 94.1604194 272.006318 94.1604194"></polygon>
                    <path d="M281.269303,93.3432271 C280.652386,92.7221981 280.344107,91.8324031 280.344107,90.6738419 L280.344107,86.1582127 L281.828932,86.1582127 L281.828932,90.6165052 C281.828932,92.186816 282.506716,92.9716131 283.861928,92.9716131 C285.20962,92.9716131 285.883824,92.186816 285.883824,90.6165052 L285.883824,86.1582127 L287.345733,86.1582127 L287.345733,90.6738419 C287.345733,91.8324031 287.039244,92.7221981 286.426266,93.3432271 C285.813288,93.964256 284.95469,94.2749496 283.850828,94.2749496 C282.74625,94.2749496 281.885861,93.964256 281.269303,93.3432271" id="Fill-114" fill="#7C87ED"></path>
                    <path d="M290.115484,94.0119889 C289.540459,93.8367533 289.085739,93.6045394 288.750606,93.3146304 L289.264404,92.1600111 C289.592018,92.4191016 289.99339,92.630531 290.469594,92.7946575 C290.945439,92.9584257 291.423433,93.0404889 291.903217,93.0404889 C292.497219,93.0404889 292.940482,92.9451665 293.233723,92.7545218 C293.526606,92.5642353 293.673406,92.3126702 293.673406,91.9998265 C293.673406,91.7711961 293.591413,91.5827015 293.427785,91.4339842 C293.264157,91.2856253 293.056489,91.1695183 292.80514,91.085305 C292.554148,91.0018083 292.211138,90.9064859 291.777184,90.7996962 C291.168145,90.6549208 290.675113,90.5101454 290.298089,90.3653701 C289.921422,90.2205947 289.597747,89.9937561 289.327421,89.6848543 C289.057095,89.3763108 288.921753,88.9591857 288.921753,88.4334792 C288.921753,87.9912693 289.042057,87.5891952 289.281591,87.2272568 C289.521483,86.8653185 289.883111,86.5775595 290.366834,86.3639801 C290.850198,86.1507589 291.442052,86.0439692 292.142751,86.0439692 C292.630054,86.0439692 293.109839,86.1052479 293.582104,86.2270885 C294.054011,86.3489292 294.461469,86.5241647 294.804121,86.752795 L294.335794,87.9074143 C293.985624,87.7017186 293.620057,87.5454759 293.239452,87.4386862 C292.858489,87.3318965 292.489342,87.2785016 292.131294,87.2785016 C291.545169,87.2785016 291.109067,87.3777659 290.823703,87.5759361 C290.537981,87.7741063 290.395478,88.0371388 290.395478,88.3646751 C290.395478,88.5933055 290.477113,88.7800083 290.64074,88.9247837 C290.804368,89.069559 291.012036,89.1842326 291.263386,89.2677293 C291.514735,89.3519426 291.857387,89.4469067 292.291341,89.5536964 C292.885343,89.6909463 293.372646,89.8335715 293.753251,89.9822888 C294.134214,90.131006 294.459679,90.3578446 294.730005,90.6624463 C295.000331,90.9674062 295.135315,91.3787976 295.135315,91.8969786 C295.135315,92.3391885 295.015369,92.7394709 294.775477,93.0974673 C294.535585,93.4558222 294.171809,93.741431 293.684863,93.9546521 C293.19756,94.1682316 292.603559,94.2750213 291.903217,94.2750213 C291.286301,94.2750213 290.690151,94.1872244 290.115484,94.0119889" id="Fill-115" fill="#7C87ED"></path>
                    <path d="M309.863686,129.332624 L203.287515,129.332624 C202.298587,129.332624 201.497276,128.530267 201.497276,127.540849 L201.497276,116.642921 C201.497276,115.653145 202.298587,114.851146 203.287515,114.851146 L309.863686,114.851146 C310.852256,114.851146 311.653925,115.653145 311.653925,116.642921 L311.653925,127.540849 C311.653925,128.530267 310.852256,129.332624 309.863686,129.332624" id="Fill-116" fill="#FFFFFF"></path>
                    <polygon id="Fill-117" fill="#7C87ED" points="207.206743 120.328779 207.206743 121.855371 209.627146 121.855371 209.627146 122.643751 207.206743 122.643751 207.206743 124.564533 206.275818 124.564533 206.275818 119.547566 209.935067 119.547566 209.935067 120.328779"></polygon>
                    <path d="M211.374313,124.051943 C210.987621,123.662769 210.794275,123.104811 210.794275,122.378426 L210.794275,119.547422 L211.725199,119.547422 L211.725199,122.34259 C211.725199,123.326991 212.150202,123.819012 212.99985,123.819012 C213.844843,123.819012 214.267339,123.326991 214.267339,122.34259 L214.267339,119.547422 L215.183942,119.547422 L215.183942,122.378426 C215.183942,123.104811 214.99167,123.662769 214.607485,124.051943 C214.222941,124.441474 213.684795,124.636061 212.992689,124.636061 C212.300582,124.636061 211.761004,124.441474 211.374313,124.051943" id="Fill-118" fill="#7C87ED"></path>
                    <polygon id="Fill-119" fill="#7C87ED" points="216.487165 119.547494 217.418089 119.547494 217.418089 123.776081 220.038999 123.776081 220.038999 124.564462 216.487165 124.564462"></polygon>
                    <polygon id="Fill-120" fill="#7C87ED" points="220.776542 119.547494 221.707467 119.547494 221.707467 123.776081 224.328377 123.776081 224.328377 124.564462 220.776542 124.564462"></polygon>
                    <polygon id="Fill-121" fill="#7C87ED" points="231.496316 119.547494 231.496316 124.564462 230.730094 124.564462 227.965964 121.167258 227.965964 124.564462 227.042201 124.564462 227.042201 119.547494 227.808423 119.547494 230.572553 122.944698 230.572553 119.547494"></polygon>
                    <path d="M235.785909,122.67242 L234.840663,120.479288 L233.902577,122.67242 L235.785909,122.67242 Z M236.09383,123.403464 L233.587495,123.403464 L233.093389,124.564533 L232.133821,124.564533 L234.389522,119.547566 L235.306125,119.547566 L237.568987,124.564533 L236.595097,124.564533 L236.09383,123.403464 Z" id="Fill-122" fill="#7C87ED"></path>
                    <polygon id="Fill-123" fill="#7C87ED" points="242.810844 124.564462 242.803683 121.238929 241.156663 123.991094 240.741327 123.991094 239.094307 121.281931 239.094307 124.564462 238.206348 124.564462 238.206348 119.547494 238.972571 119.547494 240.963317 122.873027 242.918258 119.547494 243.684481 119.547494 243.691642 124.564462"></polygon>
                    <polygon id="Fill-124" fill="#7C87ED" points="248.804279 123.783176 248.804279 124.56439 245.044776 124.56439 245.044776 119.547422 248.704025 119.547422 248.704025 120.328636 245.975701 120.328636 245.975701 121.633047 248.396104 121.633047 248.396104 122.399927 245.975701 122.399927 245.975701 123.783176"></polygon>
                    <path d="M268.286308,317.590356 L245.344033,317.590356 C241.663659,317.590356 238.652476,314.576592 238.652476,310.893063 C238.652476,307.209533 241.663659,304.195769 245.344033,304.195769 L268.286308,304.195769 C271.966682,304.195769 274.977865,307.209533 274.977865,310.893063 C274.977865,314.576592 271.966682,317.590356 268.286308,317.590356" id="Fill-125" fill="#7C87ED"></path>
                    <path d="M269.060372,49.2567315 L245.757542,49.2567315 C244.337882,49.2567315 243.187116,48.1049791 243.187116,46.6844606 C243.187116,45.2635837 244.337882,44.1118312 245.757542,44.1118312 L269.060372,44.1118312 C270.479673,44.1118312 271.630439,45.2635837 271.630439,46.6844606 C271.630439,48.1049791 270.479673,49.2567315 269.060372,49.2567315" id="Fill-126" fill="#7C87ED"></path>
                </g>
                <g id="Group-130" transform="translate(268.565527, 205.231985)">
                    <mask id="mask-8" fill="white">
                        <use xlink:href="#path-7"></use>
                    </mask>
                    <g id="Clip-129"></g>
                    <path d="M0.0953377503,0 C0.0645142671,0 0.0304650706,0 0,0 L0,0 L0,122.658286 L188.396713,122.658286 L188.396713,0 C188.396713,0 188.396713,0 188.396713,0 L188.396713,0 L0.0953377503,0 Z" id="Fill-128" mask="url(#mask-8)"></path>
                </g>
                <polygon id="Fill-131" fill="#FFFFFF" points="268.565527 205.231985 362.763884 266.160284 456.962241 205.231985"></polygon>
                <g id="Group-135" transform="translate(268.565527, 205.231985)">
                    <mask id="mask-10" fill="white">
                        <use xlink:href="#path-9"></use>
                    </mask>
                    <g id="Clip-134"></g>
                    <path d="M0,0 L94.1981774,60.9282988 L188.396713,0 C188.396713,0 188.396713,0 188.396713,0 L188.396713,0 L0,0 Z" id="Fill-133" mask="url(#mask-10)"></path>
                </g>
                <g id="Group-210" transform="translate(98.607641, 75.358506)">
                    <path d="M269.095917,179.955908 L272.673079,191.309157 C272.834047,191.820807 272.528601,192.362153 272.006618,192.489171 L251.829248,197.408877 C251.228036,197.555574 250.739752,196.919053 251.040896,196.379138 C251.73783,195.128996 253.62966,193.16326 258.745165,191.25191 L257.273861,184.981521 L269.095917,179.955908 Z" id="Fill-136" fill="#FE4E1C"></path>
                    <path d="M262.961613,102.412472 L243.613465,102.330041 C233.540554,102.287243 226.489839,112.250452 229.89922,121.710599 L253.787474,187.99782 L274.694759,181.872339 L259.36545,118.999573 L262.961613,102.412472 Z" id="Fill-138" fill="#35384C"></path>
                    <path d="M262.346777,21.6866486 C262.346777,21.6866486 261.363398,25.1039656 263.510483,28.064734 C265.657569,31.0255024 268.550703,33.844941 267.062191,36.2643628 C265.573679,38.6837847 266.624815,46.9696425 273.411312,47.9263911 C280.198167,48.8834975 280.183468,38.5163358 280.183468,38.5163358 L275.82154,28.2472104 L262.346777,21.6866486 Z" id="Fill-140" fill="#44465F"></path>
                    <path d="M241.58318,192.069905 L240.563592,203.927648 C240.517345,204.462196 240.028703,204.84647 239.49704,204.765966 L218.961883,201.654565 C218.349915,201.561896 218.141265,200.787981 218.625247,200.402634 C219.746291,199.511005 222.245429,198.411495 227.70474,198.586458 L228.734366,192.228767 L241.58318,192.069905 Z" id="Fill-142" fill="#FE4E1C"></path>
                    <path d="M238.88475,118.230489 C240.728182,108.960332 248.922527,102.312826 258.391715,102.405853 L316.952765,102.405853 C316.952765,102.405853 320.585494,112.627033 315.828852,121.923667 C310.434071,132.467938 296.272413,131.121549 296.272413,131.121549 L263.90301,131.345888 L263.873255,131.295438 L245.103375,198.121501 L223.792413,194.120975 L238.88475,118.230489 Z" id="Fill-144" fill="#44465F"></path>
                    <path d="M249.536897,86.7073044 C249.536897,86.7073044 236.366504,86.7073044 235.771028,96.2361482 L254.436224,95.1112352 L249.536897,86.7073044 Z" id="Fill-146" fill="#EF8FC5"></path>
                    <polygon id="Fill-148" fill="#FF9DCA" points="285.592016 20.539409 291.204768 35.0666739 277.510241 39.1831259 274.41025 32.4726472"></polygon>
                    <polygon id="Fill-150" fill="#EF8FC5" points="285.592016 20.539409 285.352176 27.6813905 275.577541 34.9994081 274.41025 32.4726472"></polygon>
                    <polygon id="Fill-152" fill="#CE3815" points="275.616224 47.2535185 265.083352 73.7458655 247.3811 84.345953 250.921693 91.5813195 258.67687 92.300491 285.876274 78.826222"></polygon>
                    <path d="M257.006632,90.2027285 C257.006632,90.2027285 240.749871,90.9748539 240.749871,98.6023657 L259.365594,97.7529561 L257.006632,90.2027285 Z" id="Fill-154" fill="#FF9DCA"></path>
                    <path d="M233.123039,102.531296 L270.317917,102.531296 C270.800464,102.531296 271.191952,102.14094 271.191952,101.659346 L271.191952,98.5962474 C271.191952,98.1146529 270.800464,97.7242966 270.317917,97.7242966 L233.123039,97.7242966 C232.640492,97.7242966 232.249363,98.1146529 232.249363,98.5962474 L232.249363,101.659346 C232.249363,102.14094 232.640492,102.531296 233.123039,102.531296" id="Fill-156" fill="#44465F"></path>
                    <path d="M241.143617,71.470739 L201.64678,71.6020546 C201.150609,71.6034857 200.876711,72.1967128 201.073531,72.840747 L209.895976,101.676663 C210.047265,102.171138 210.43696,102.531439 210.820919,102.531439 L249.759923,102.531439 C250.252508,102.531439 250.536086,101.955387 250.354682,101.321371 L242.078956,72.3534278 C241.933045,71.8428518 241.537255,71.469312 241.143617,71.470739" id="Fill-158" fill="#7C87ED"></path>
                    <path d="M275.937552,41.841055 C284.540593,69.4830031 277.221716,102.329821 277.221716,102.329821 C297.933258,103.828632 307.011676,113.556053 319.347828,111.432171 C319.347828,111.432171 323.041145,91.5515508 318.106684,72.8770634 C314.013635,57.3869674 311.399417,52.0944374 304.074446,42.6951159 C295.256303,31.3790771 289.363558,31.2781785 289.363558,31.2781785 L276.922723,36.4859106 C275.35785,37.1245779 275.436004,40.2298961 275.937552,41.841055" id="Fill-160" fill="#FE4E1C"></path>
                    <path d="M276.415547,42.7427029 C276.415547,42.7427029 273.494808,55.3045901 271.632016,59.8436 C270.06069,63.6727412 271.162375,70.8780528 282.6754,76.6475259 C293.034397,81.8380838 276.415547,42.7427029 276.415547,42.7427029" id="Fill-162" fill="#FE4E1C"></path>
                    <path d="M284.211234,51.1196558 L279.244867,74.2505021 L253.787438,89.3938931 L259.182577,98.647949 L287.141653,88.2382095 C290.011126,87.1698283 292.177212,84.7704431 292.943695,81.8111059 L300.655852,52.0406247" id="Fill-164" fill="#FE4E1C"></path>
                    <path d="M299.693589,55.7549489 C299.175549,58.0888573 298.613055,60.411674 298.073864,62.7402154 L296.381363,69.7065188 C295.826756,72.0311245 295.222675,74.3432073 294.641897,76.6610148 L293.763202,80.1359371 L293.323675,81.8733983 C293.169518,82.4684144 292.967321,83.0602102 292.710273,83.624098 C291.654476,85.8735663 289.698474,87.6743575 287.376079,88.5430881 C285.120725,89.3660207 282.882938,90.200045 280.622207,90.9914915 L273.853277,93.3890877 C271.587884,94.1637177 269.331096,94.9616045 267.058176,95.7158402 C269.274453,94.8091831 271.506862,93.9461773 273.731026,93.0599147 L280.430406,90.4751907 C282.657797,89.60324 284.912793,88.7846009 287.142334,87.9351914 C289.30125,87.1051028 291.099511,85.4123663 292.061379,83.3221175 C292.304445,82.7997342 292.494811,82.2598188 292.645742,81.6995091 L293.101043,79.9659837 L294.011287,76.4992907 C294.623255,74.1893546 295.211561,71.8733361 295.8497,69.5701982 L297.735435,62.6532708 C298.38899,60.3540687 299.019241,58.0487841 299.693589,55.7549489" id="Fill-166" fill="#35384C"></path>
                    <path d="M283.112525,56.2368654 C282.850099,57.7507036 282.560786,59.2591748 282.280076,60.7690772 C282.002594,62.2796952 281.703601,63.7860197 281.411419,65.2934175 C280.818094,68.306782 280.202899,71.3151373 279.579101,74.3220615 L279.549345,74.4666114 L279.419925,74.5438955 C277.300444,75.8090649 275.189209,77.0881884 273.061483,78.3394037 C270.938776,79.5992062 268.810691,80.8500637 266.676153,82.0898296 C264.541974,83.3306688 262.403851,84.5647099 260.256407,85.7826502 L257.028071,87.5984688 C255.951122,88.202072 254.873456,88.8046018 253.787545,89.3938931 C254.823266,88.7208773 255.867232,88.0614578 256.911556,87.4034696 L260.047398,85.4334405 C262.142859,84.1274822 264.247641,82.8376248 266.356367,81.5545656 C268.464734,80.2704329 270.579195,78.997392 272.699393,77.733296 C274.814571,76.4606128 276.946241,75.2158378 279.069665,73.9574665 L278.910489,74.1789428 C279.575874,71.1813213 280.250222,68.1851311 280.94608,65.19395 C281.29849,63.699075 281.64373,62.2031267 282.011198,60.7114719 C282.37508,59.2194593 282.730358,57.7253 283.112525,56.2368654" id="Fill-168" fill="#35384C"></path>
                    <path d="M277.672178,8.11577449 L284.779536,27.8611476 L274.275703,33.4674654 C274.275703,33.4674654 269.486795,36.2360969 267.148268,33.028091 C265.654378,30.9793466 259.18946,13.2472959 259.18946,13.2472959 L277.672178,8.11577449 Z" id="Fill-170" fill="#FF9DCA"></path>
                    <path d="M262.278266,20.2776091 C262.278266,20.2776091 252.593258,15.7936998 258.52974,8.5282784 C258.52974,8.5282784 269.354794,-6.05945415 282.168115,2.92267624 C294.981437,11.9051644 284.068549,25.8860736 284.068549,25.8860736 C284.068549,25.8860736 281.283325,27.5394526 273.235609,20.8991021 C269.102048,17.4885832 260.126879,15.6745535 259.98276,13.9299364 C259.838282,12.1849615 260.449533,16.4130461 262.278266,20.2776091" id="Fill-172" fill="#44465F"></path>
                    <path d="M276.06794,0.241025143 C276.06794,0.241025143 287.611079,1.52336881 294.822763,14.236604 C298.99325,21.5889701 299.480816,22.177188 304.736856,24.374418 C309.992895,26.571648 312.554054,29.733856 314.76101,35.621402 C316.968324,41.508948 309.37304,49.3797616 303.668511,48.8398463 C297.963982,48.3002887 295.752007,40.3078243 295.978224,37.2962488 C296.20444,34.2846732 282.608144,35.1723671 277.39871,24.1289694 C272.188918,13.0859296 288.35892,15.0831512 288.35892,15.0831512 L276.06794,0.241025143 Z" id="Fill-174" fill="#44465F"></path>
                    <path d="M273.283469,21.4776237 C273.283469,21.4776237 276.079448,18.4710574 278.74529,19.8367677 C281.411132,21.2021202 277.398746,24.1292557 277.398746,24.1292557 L273.283469,21.4776237 Z" id="Fill-176" fill="#FF9DCA"></path>
                    <polygon id="Fill-178" fill="#FF9DCA" points="68.6381124 28.29859 70.0983026 43.323908 56.2345617 43.6173014 55.0862707 36.5450902"></polygon>
                    <polygon id="Fill-180" fill="#EF8FC5" points="68.6381124 28.29859 66.5544822 34.9074543 55.5186276 39.2081716 55.0862707 36.5450902"></polygon>
                    <path d="M66.9006186,10.4179105 L69.2430893,34.5237531 L55.0860915,36.5453049 C55.0860915,36.5453049 50.7195024,37.9210335 49.1105327,33.9097738 C48.0826993,31.347591 46.0112583,10.9002206 46.0112583,10.9002206 L66.9006186,10.4179105 Z" id="Fill-182" fill="#FF9DCA"></path>
                    <path d="M62.4265857,25.6083518 C62.4265857,25.6083518 64.0251588,30.2153431 71.6039512,33.1685977 C71.6039512,33.1685977 69.3769191,22.850812 70.1688563,20.1730609 C70.9611521,17.494952 71.8387719,7.63335709 66.3697805,7.23834945 C66.3697805,7.23834945 61.8655256,-0.836050506 54.2878087,2.78771529 C46.7100918,6.41112329 45.4022661,9.34541469 39.3818943,9.0108747 C39.3818943,9.0108747 42.0115273,16.491332 47.5963158,16.0791501 C53.1811043,15.6669682 54.420097,17.1221277 54.420097,17.1221277 L57.8298366,21.7294769 C57.8298366,21.7294769 58.932956,18.6187917 61.7744654,19.7011269 C64.6156163,20.78382 62.4265857,25.6083518 62.4265857,25.6083518" id="Fill-184" fill="#44465F"></path>
                    <path d="M61.9074707,238.540837 L62.7506741,251.456585 C62.7886756,252.038721 62.3258459,252.531765 61.7411244,252.531765 L39.1524512,252.531765 C38.4791791,252.531765 38.1278443,251.73352 38.585655,251.240834 C39.6450368,250.099462 42.1524197,248.510129 48.0508999,247.808847 L48.1179403,240.804975 L61.9074707,238.540837 Z" id="Fill-186" fill="#4A63FE"></path>
                    <path d="M66.9745065,186.173235 L79.6290105,191.826782 C80.2122979,191.787782 80.7073931,192.248624 80.7084686,192.831833 L80.7518496,215.376251 C80.7532817,216.047835 79.9541744,216.399907 79.4594377,215.944432 C78.3136562,214.888931 76.7165171,212.389721 76.0023755,206.504322 L67.0476415,202.562474 L66.9745065,186.173235 Z" id="Fill-188" fill="#4A63FE"></path>
                    <path d="M27.7813945,102.634163 C23.9966588,100.860564 57.083788,117.965755 55.75015,120.833496 C52.6157421,127.571883 45.1412746,144.57868 36.7637334,163.685385 C59.5556789,176.675198 78.6815539,187.685678 78.3588995,188.053135 C77.6411728,188.871059 68.2949515,207.42318 68.2949515,207.42318 C68.2949515,207.42318 44.3235251,196.088893 17.4715122,183.388539 C8.64834941,179.215555 4.40401055,169.065576 7.63557323,159.870556 C18.0616111,130.204194 31.5661301,104.407762 27.7813945,102.634163" id="Fill-190" fill="#35384C"></path>
                    <path d="M62.3280686,115.075007 C62.4202043,136.006119 66.0407448,245.32377 64.9680983,245.134137 C63.8954518,244.945221 43.1534369,246.572123 43.1534369,246.572123 C43.1534369,246.572123 29.2111835,110.465869 29.2605258,110.465869 C33.4418992,110.465869 62.3140869,111.913515 62.3280686,115.075007" id="Fill-192" fill="#44465F"></path>
                    <path d="M62.3280686,115.075007 C62.3280686,115.075007 64.1256119,119.130992 65.1667099,126.690164 C66.2074495,134.249337 62.8407305,140.707927 62.8407305,140.707927 L54.0150582,130.746506 L62.3280686,115.075007 Z" id="Fill-194" fill="#44465F"></path>
                    <path d="M16.7833263,59.8079993 C16.7833263,59.8079993 14.0335941,57.1227344 9.735121,55.9763535 C5.43700641,54.8303305 4.72429878,55.774914 4.57157572,56.6218189 C4.41921116,57.4687239 5.36745647,58.6891687 5.36745647,58.6891687 C5.36745647,58.6891687 4.45434463,65.1441805 6.43042334,67.372181 C8.40650205,69.6001816 9.21815701,67.8727387 9.21815701,67.8727387 L15.5253328,70.1909041 L16.7833263,59.8079993 Z" id="Fill-196" fill="#EF8FC5"></path>
                    <path d="M0.0439463276,44.0739574 L6.97097694,63.2704703 C7.10900131,63.6536706 7.53239553,63.8526056 7.91635422,63.7144961 L8.61149512,63.4647539 C8.9954538,63.3266444 9.1947825,62.9040864 9.05639963,62.520886 L2.12972752,43.3243731 C1.99134465,42.9411728 1.56795042,42.7422378 1.18399174,42.8803473 L0.48885084,43.1300895 C0.104892151,43.268199 -0.0944365426,43.690757 0.0439463276,44.0739574" id="Fill-198" fill="#35384C"></path>
                    <path d="M16.3909427,61.9854789 C16.3909427,61.9854789 13.6412105,59.3002141 9.34273745,58.1538332 C5.04462286,57.0078101 2.67884939,58.3316582 2.52612632,59.1785632 C2.37376176,60.0251104 4.97507292,60.8666484 4.97507292,60.8666484 C4.97507292,60.8666484 4.06196108,67.3216601 6.03803979,69.5496607 C8.01411849,71.7776612 8.82613197,70.0502184 8.82613197,70.0502184 L15.1329492,72.3683837 L16.3909427,61.9854789 Z" id="Fill-200" fill="#FF9DCA"></path>
                    <path d="M74.1769405,56.1476666 L57.7448709,80.9705339 C56.2843222,83.1767089 53.5080607,84.1102007 51.0074894,83.2361031 L14.3521615,70.420538 L16.4010167,59.0490407 L51.0702277,68.0343913 L60.2909724,48.2682659" id="Fill-202" fill="#3855E5"></path>
                    <path d="M53.2423369,42.0585955 C44.2646586,50.4457098 32.8871488,78.4569042 25.0341002,110.465762 L66.1291521,119.859001 C66.1291521,119.859001 67.491112,98.8767243 71.7182426,88.8419557 C75.9453732,78.807545 85.178307,66.5093541 78.2007272,52.8654894 C72.9816137,42.6596941 69.7683347,42.3952822 69.7683347,42.3952822 L57.2970267,40.085704 C55.6608106,39.8141363 54.4533663,40.927242 53.2423369,42.0585955" id="Fill-204" fill="#4A63FE"></path>
                    <path d="M73.7845928,58.3251821 L57.3525232,83.1480493 C55.8919745,85.3542243 53.115713,86.2877161 50.6151417,85.4136186 L13.9598138,72.5980535 L16.008669,61.2265562 L50.67788,70.2119067 L59.8986246,50.4457814" id="Fill-206" fill="#4A63FE"></path>
                    <path d="M68.8502755,64.9873581 L59.6915522,79.3979813 L57.3852906,82.9899032 C56.6560917,84.2378983 55.4497229,85.2812337 54.0268172,85.7095165 C53.3205626,85.9334973 52.5720045,86.0258088 51.8306165,85.9782219 C51.089587,85.946378 50.353218,85.6973514 49.6978712,85.4640679 L45.6546535,84.0793944 C40.2616652,82.2396033 34.8855265,80.3522253 29.4997082,78.4906086 L13.351933,72.8817863 C13.1848697,72.8238232 13.0891489,72.6531542 13.1196218,72.4846319 L15.1910628,61.1174281 C15.2229698,60.9374564 15.3950521,60.8175944 15.57538,60.8494384 C15.5836256,60.8508695 15.5936638,60.8530163 15.6019094,60.8551631 L32.924505,65.3923841 L50.2324019,69.9879259 L50.0244691,70.0856045 L57.3630633,54.7790582 L50.3499915,70.2369525 C50.314141,70.3160256 50.2266658,70.3560988 50.1449267,70.3353466 L50.1420587,70.334631 L32.7807446,65.9448223 L15.4348461,61.4970505 L15.8453342,61.2347855 L13.8187063,72.6102185 L13.5863952,72.2130641 L29.7166036,77.8716202 C35.0905913,79.7661542 40.4735415,81.634569 45.8400005,83.5509285 L49.8663685,84.983189 C50.5464522,85.233289 51.1752697,85.4544074 51.8661085,85.495554 C52.5458337,85.5470768 53.235597,85.4701504 53.8891513,85.2715732 C55.2127512,84.8833637 56.3212482,83.9616792 57.0418429,82.7673536 L59.3904082,79.2026242 L68.8502755,64.9873581 Z" id="Fill-208" fill="#35384C"></path>
                </g>
            </g>
        </g>
    </g>
</svg>