<svg width="16" height="16" viewBox="0 0 16 16" xmlns="http://www.w3.org/2000/svg">
    <g fill="#000" fill-rule="nonzero" opacity=".8">
        <path d="M12 1.333A2.67 2.67 0 0 1 14.667 4v8A2.67 2.67 0 0 1 12 14.667H4A2.67 2.67 0 0 1 1.333 12V4A2.67 2.67 0 0 1 4 1.333h8zM12 0H4a4 4 0 0 0-4 4v8a4 4 0 0 0 4 4h8a4 4 0 0 0 4-4V4a4 4 0 0 0-4-4z"/>
        <path d="M4.667 12A.666.666 0 0 1 4 11.333v-4a.667.667 0 0 1 1.333 0v4a.666.666 0 0 1-.666.667zM8 12a.666.666 0 0 1-.667-.667V4.667a.667.667 0 0 1 1.334 0v6.666A.666.666 0 0 1 8 12zM11.333 12a.666.666 0 0 1-.666-.667v-4a.666.666 0 1 1 1.333 0v4a.666.666 0 0 1-.667.667z"/>
    </g>
</svg>
