<svg width="19" height="20" viewBox="0 0 19 20" xmlns="http://www.w3.org/2000/svg">
    <g fill-rule="nonzero" fill="none">
        <path d="m16.457 7.407-9.05 9.051c-.41.41-1.073.41-1.482 0L.6 11.132a1.047 1.047 0 0 1 0-1.481L9.65.6a1.047 1.047 0 0 1 1.481 0l5.326 5.326a1.047 1.047 0 0 1 0 1.481z" fill="#8CBAFA"/>
        <path d="m16.457 5.926-.664-.665c.364.364.327.991-.081 1.4L6.66 15.712c-.408.41-1.035.446-1.4.081l.665.665c.41.41 1.072.41 1.481 0l9.051-9.05a1.047 1.047 0 0 0 0-1.482z" fill="#5692D8"/>
        <path d="m9.502 2.663-.887.886a.892.892 0 1 0 1.263 1.263l.887-.887a.893.893 0 1 0-1.263-1.262zM17.312 10.08h-12.8c-.578 0-1.047.469-1.047 1.047v7.533c0 .578.469 1.047 1.047 1.047h12.8c.578 0 1.047-.469 1.047-1.047v-7.533c0-.578-.469-1.047-1.047-1.047z" fill="#FFCD34"/>
        <path d="M17.312 10.08h-.937c.578 0 1.047.469 1.047 1.047v7.533c0 .578-.47 1.047-1.047 1.047h.937c.578 0 1.047-.469 1.047-1.047v-7.533c0-.578-.469-1.047-1.047-1.047z" fill="#E69012"/>
        <path fill="#575B7A" d="M3.465 12.446h14.894v1.81H3.465z"/>
        <path fill="#252D4C" d="M17.422 12.446h.937v1.81h-.937z"/>
        <path d="M14.698 17.147v1.116c0 .087.07.156.157.156h1.775c.086 0 .156-.07.156-.156v-1.116a.156.156 0 0 0-.156-.156h-1.775a.156.156 0 0 0-.157.156zM9.346 17.147v1.116c0 .087.07.156.156.156h3.755c.087 0 .156-.07.156-.156v-1.116a.156.156 0 0 0-.156-.156H9.502a.156.156 0 0 0-.156.156z" fill="#E9E9EA"/>
        <path d="M.806 10.925a.755.755 0 0 1 0-1.067l7.18-7.18a.293.293 0 1 0-.415-.413L.391 9.444a1.342 1.342 0 0 0 0 1.895l1.81 1.808a.292.292 0 1 0 .413-.414L.806 10.925z" fill="#000"/>
        <path d="m6.566 5.835-4.434 4.433a.293.293 0 0 0 .415.414L6.98 6.25a.293.293 0 0 0-.414-.414zM9.247 5.366c.303 0 .607-.115.838-.347l.887-.886a1.187 1.187 0 0 0 0-1.677 1.187 1.187 0 0 0-1.677 0l-.887.886a1.178 1.178 0 0 0-.347.839 1.182 1.182 0 0 0 1.186 1.185zm-.425-1.61.887-.886a.6.6 0 0 1 .848.848l-.886.887a.6.6 0 0 1-.849-.848z" fill="#000"/>
        <path d="M17.312 9.787h-2.82l2.173-2.173a1.342 1.342 0 0 0 0-1.895L11.338.393A1.332 1.332 0 0 0 10.391 0c-.358 0-.695.14-.948.393L8.399 1.436a.293.293 0 0 0 .414.415L9.857.807a.749.749 0 0 1 .534-.221.75.75 0 0 1 .533.22l5.326 5.327a.755.755 0 0 1 0 1.067l-2.587 2.587H6.259l2.13-2.13a.293.293 0 1 0-.414-.414L5.43 9.787h-.919c-.74 0-1.34.601-1.34 1.34v7.533c0 .739.6 1.34 1.34 1.34h12.8c.739 0 1.34-.601 1.34-1.34v-1.083a.293.293 0 1 0-.586 0v1.083a.755.755 0 0 1-.754.754h-12.8a.755.755 0 0 1-.754-.754v-4.111h14.308v1.856a.293.293 0 1 0 .586 0v-5.278c0-.739-.601-1.34-1.34-1.34zm-12.8.586h12.8c.416 0 .754.339.754.754v1.026H3.758v-1.026c0-.415.338-.754.754-.754zm-.754 3.59v-1.224h14.308v1.224H3.758z" fill="#000"/>
        <path d="M14.855 16.698a.45.45 0 0 0-.45.45v1.115c0 .248.202.45.45.45h1.775a.45.45 0 0 0 .45-.45v-1.116a.45.45 0 0 0-.45-.449h-1.775zm1.638 1.429h-1.502v-.843h1.502v.843zM9.502 16.698a.45.45 0 0 0-.449.45v1.115c0 .248.202.45.45.45h3.754a.45.45 0 0 0 .45-.45v-1.116a.45.45 0 0 0-.45-.449H9.502zm3.618 1.429H9.64v-.843h3.48v.843zM5.945 18.127a.293.293 0 0 0 0 .585h1.87a.293.293 0 1 0 0-.585h-1.87z" fill="#000"/>
    </g>
</svg>
