<svg xmlns="http://www.w3.org/2000/svg" width="21" height="16" viewBox="0 0 21 16"><g opacity=".7"><path d="M17.1062747,3.02139056 C16.8391114,2.75426656 16.4197719,2.71487609 16.1074786,2.92767112 C14.9310323,3.72955415 9.03016693,7.76180952 8.39598823,8.39594891 C7.4763269,9.31564955 7.4763269,10.8120157 8.39598823,11.7317163 C8.85581889,12.1915077 9.45988472,12.4214426 10.0638719,12.4214426 C10.6678591,12.4214426 11.2718856,12.1915077 11.7317556,11.7317163 C12.365895,11.0975376 16.3981111,5.19667225 17.2000334,4.02022594 C17.4127498,3.70797195 17.3733987,3.28859318 17.1062747,3.02139056 Z M10.6197807,10.6197807 C10.3132663,10.9263738 9.81443826,10.9263738 9.50792379,10.6197807 C9.20137002,10.3132663 9.20133071,9.81459551 9.50776655,9.50804173 C9.7541732,9.26454415 11.4295261,8.0696999 13.4908035,6.63690105 C12.0580439,8.69817839 10.8631997,10.3734527 10.6197807,10.6197807 Z"/><path d="M3.62577088 13.7207778 2.6551614 14.1942497C1.94495359 12.9267571 1.57247385 11.5120417 1.57247385 10.0638326 1.57247385 9.00276657 1.7681289 7.98651604 2.1251984 7.04928231L3.23736984 7.58274407C3.34704989 7.63534332 3.46282328 7.66026703 3.57686694 7.66026703 3.86985813 7.66026703 4.15113439 7.49574695 4.28632783 7.21388101 4.47408121 6.82237434 4.30897145 6.35271571 3.91742547 6.16492302L2.81936698 5.63822291C4.18415634 3.41238618 6.545501 1.86055105 9.277635 1.60856212L9.277635 2.79110176C9.277635 3.22534042 9.62963327 3.57733869 10.0638719 3.57733869 10.4981106 3.57733869 10.8501088 3.22534042 10.8501088 2.79110176L10.8501088 1.60797244C11.7868315 1.69323984 12.6932054 1.93178412 13.5536238 2.32018516 13.9492975 2.4988575 14.415025 2.32277974 14.5936973 1.92710601 14.7723697 1.53131434 14.5963705 1.06566552 14.2005789.886993184 12.8967622.298455536 11.5049656 0 10.0638326 0 7.37568857 0 4.84844792 1.04679584 2.94760222 2.94760222 1.04683515 4.84844792 0 7.37568857 0 10.0638326 0 12.0502602.589599068 13.9822016 1.7050727 15.6506356 1.85532258 15.8753028 2.10373413 15.9999607 2.35918251 15.9999607 2.4753097 15.9999607 2.59293075 15.9742114 2.70343635 15.9203149L4.31522204 15.134078C4.70551005 14.9436907 4.86755348 14.47301 4.67716621 14.082722 4.48677893 13.6924733 4.01605889 13.5304691 3.62577088 13.7207778ZM19.2406327 5.92712567C19.0619997 5.53137331 18.5964295 5.35525624 18.2005199 5.5340072 17.8047675 5.71267954 17.6287684 6.17832836 17.8074407 6.57408072 18.3036349 7.67316131 18.5551914 8.84728822 18.5551914 10.0638326 18.5551914 11.5142039 18.181493 12.9311994 17.4692016 14.2001464L16.4558602 13.7175935C16.0638817 13.5309409 15.5946949 13.6973479 15.4079636 14.0894443 15.2212716 14.481462 15.3877573 14.9506489 15.7798143 15.1373408L17.4309119 15.9235778C17.5395305 15.9752728 17.6546749 16 17.768522 16 18.024049 16 18.2724999 15.8751849 18.4225532 15.6506749 19.5380662 13.9822016 20.1276652 12.0502602 20.1276652 10.0638326 20.1276652 8.62269964 19.8292097 7.23090304 19.2406327 5.92712567Z"/></g></svg>