<svg width="21" height="16" viewBox="0 0 21 16" xmlns="http://www.w3.org/2000/svg">
    <g fill="#1B1DC7" fill-rule="nonzero">
        <path d="M17.106 3.021a.786.786 0 0 0-.999-.093c-1.176.802-7.077 4.834-7.711 5.468-.92.92-.92 2.416 0 3.336.46.46 1.064.69 1.668.69.604 0 1.208-.23 1.668-.69.634-.634 4.666-6.535 5.468-7.712a.786.786 0 0 0-.094-.999zM10.62 10.62a.787.787 0 0 1-1.112-1.112c.246-.243 1.922-1.438 3.983-2.871-1.433 2.061-2.628 3.736-2.871 3.983z"/>
        <path d="m3.626 13.72-.97.474a8.45 8.45 0 0 1-.53-7.145l1.111.534a.783.783 0 0 0 1.05-.37.786.786 0 0 0-.37-1.048L2.82 5.638a8.502 8.502 0 0 1 6.459-4.03v1.183a.786.786 0 1 0 1.572 0V1.608a8.394 8.394 0 0 1 2.704.712A.786.786 0 0 0 14.2.887 9.987 9.987 0 0 0 10.064 0a9.998 9.998 0 0 0-7.116 2.948A9.998 9.998 0 0 0 0 10.064c0 1.986.59 3.918 1.705 5.587a.786.786 0 0 0 .998.27l1.612-.787a.786.786 0 1 0-.69-1.413zM19.24 5.927a.786.786 0 1 0-1.433.647c.497 1.1.748 2.273.748 3.49 0 1.45-.374 2.867-1.086 4.136l-1.013-.482a.786.786 0 0 0-.676 1.42l1.65.786a.784.784 0 0 0 .993-.273 10.024 10.024 0 0 0 1.705-5.587 9.987 9.987 0 0 0-.887-4.137z"/>
    </g>
</svg>
