<svg width="200" height="131" viewBox="0 0 200 131" fill="none" xmlns="http://www.w3.org/2000/svg">
    <g clip-path="url(#059timr77a)" fill-rule="evenodd" clip-rule="evenodd">
        <path d="M1.897 130.674H199.32a.632.632 0 1 0 0-1.265H1.897a.632.632 0 0 0 0 1.265z" fill="#2E5B99"/>
        <path d="M168.641 108.654h-42.717V70.267h42.717v38.387z" fill="#E6F6FF"/>
        <path d="M71.689 40.24V34.91a4.38 4.38 0 0 0-4.38-4.381H20.672a4.382 4.382 0 0 0-4.381 4.381v94.186h120.635V40.239H71.689z" fill="#fff"/>
        <path d="M72.076 40.24V34.91a4.38 4.38 0 0 0-4.38-4.381H21.06a4.382 4.382 0 0 0-4.382 4.381v94.186h120.635V40.239H72.076z" fill="#888DE2"/>
        <path d="M20.72 43.92v85.177H132.47V43.502L20.72 43.92z" fill="#BBBFFF"/>
        <path d="M26.855 43.92v85.177h111.751V43.502l-111.75.418z" fill="#474FC0"/>
        <path d="M143.111 40.24H32.709c-2.266 0-3.935 1.533-4.26 3.653v85.204H148.94V46.055c.027-3.06-2.734-5.815-5.83-5.815z" fill="#fff"/>
        <path d="m102.615 71.87-64.526.18-.137-49.038 64.525-.18.138 49.037z" fill="#EBF3FF"/>
        <path d="m100.924 69.518-61.225.171-.126-45.081 61.225-.172.126 45.082z" fill="#8F95EF"/>
        <path d="m44.86 66.056 39.346-.11-21.513-20.639L44.86 66.056z" fill="#E3EEFF"/>
        <path d="m62.75 66.006 33.06-.092-17.94-17.058-15.12 17.15zM79.538 40.704a4.557 4.557 0 1 1-9.113.025 4.557 4.557 0 0 1 9.113-.025z" fill="#E3EEFF"/>
        <path d="m111.196 65.996-59.82.191-.141-52.022 59.82-.192.141 52.023z" fill="#EBF3FF"/>
        <path d="m109.458 63.5-56.424.183-.13-47.825 56.424-.182.13 47.825z" fill="#8F95EF"/>
        <path d="M80.906 24.434H58.434V22.46h22.472v1.974zM104.153 29.765H58.435v-1.974h45.718v1.974zM104.153 35.194H58.435v-1.975h45.718v1.974z" fill="#CCE5FF"/>
        <path d="M143.642 40.24H33.241c-2.267 0-3.935 1.533-4.26 3.653v85.51h120.492V46.055c.027-3.06-2.735-5.815-5.831-5.815z" fill="#474EBB"/>
        <path d="M28.449 129.097H16.29v-.489h12.158v.489z" fill="#fff"/>
        <path d="M16.678 76.53v-.252h-.387l.387.253z" fill="#7F7F7F"/>
        <path d="M20.72 79.168v-2.89h-4.042v.253l4.042 2.637z" fill="#1E247D"/>
        <path d="M26.855 79.387v-3.11h-6.136v2.89h5.852l.284.22zM28.449 80.612v-4.334h-1.594v3.109l1.594 1.225z" fill="#2D349B"/>
        <path d="M28.98 79.24h-.531v-2.962h.531v2.962z" fill="#7F7F7F"/>
        <path d="M148.941 79.24H28.981v-2.962h119.96v2.962z" fill="#2D349B"/>
        <path d="M151.396 77.6H14.58V62.141h136.816v15.46z" fill="#9DA3FF"/>
        <path d="M151.396 77.6h-124.5V62.141h124.5v15.46z" fill="#6B74FF"/>
        <path d="M61.315 62.141v15.454h10.817l-7.584-15.454h-3.233z" fill="#0E0E0E"/>
        <path d="M62.332 72.4c.538-.17.957-1.222.957-2.547 0-1.289-.419-2.342-.957-2.512-.538.17-.957 1.223-.957 2.512 0 1.325.419 2.377.957 2.547zm2.72-2.547c0 2.14-.372 4.075-1 5.467-.613 1.426-1.466 2.275-2.407 2.275h-2.873V62.147h2.873c1.884 0 3.408 3.462 3.408 7.706z" fill="#6B74FF"/>
        <path d="M62.213 69.853c0-1.289-.813-2.342-1.376-2.512-.564.17-1 1.223-1 2.512 0 1.325.436 2.377 1 2.547.563-.17 1.376-1.222 1.376-2.547zm1.377 0c0 2.14-.391 4.075-1.049 5.467-.64 1.426-1.532 2.275-2.518 2.275h-1.251V62.147h1.251c1.97 0 3.567 3.462 3.567 7.706z" fill="#3F9EE6"/>
        <path d="M60.956 72.4c.538-.17.956-1.222.956-2.547 0-1.289-.418-2.342-.956-2.512-.538.17-.957 1.223-.957 2.512 0 1.325.419 2.377.957 2.547zm2.72-2.547c0 2.14-.373 4.075-1 5.467-.613 1.426-1.466 2.275-2.407 2.275h-2.873V62.147h2.873c1.883 0 3.408 3.462 3.408 7.706z" fill="#6B74FF"/>
        <path d="M60.837 69.853c0-1.289-.438-2.342-1-2.512-.564.17-1.002 1.223-1.002 2.512 0 1.325.438 2.377 1.001 2.547.563-.17 1.001-1.222 1.001-2.547zm1.377 0c0 2.14-.391 4.075-1.048 5.467-.642 1.426-1.533 2.275-2.518 2.275h-1.252V62.147h1.252c1.97 0 3.566 3.462 3.566 7.706z" fill="#9DA3FF"/>
        <path d="M60.283 77.695c.121 0 .821-.032 1.562-.743.84-.806 1.841-2.628 1.841-6.728 0-3.906-.913-5.915-1.679-6.915-.844-1.1-1.686-1.256-1.721-1.262a.1.1 0 0 0-.117.083.1.1 0 0 0 .082.115c.008.002.813.157 1.61 1.205.741.975 1.624 2.942 1.624 6.774 0 4.019-.964 5.795-1.772 6.576-.735.71-1.435.695-1.44.694a.1.1 0 0 0-.104.097.1.1 0 0 0 .096.104h.018z" fill="#3941C8"/>
        <path d="M59.837 72.193c-.136.034-.237.068-.373.102.034.034.034.034 0 .034-5.466 1.63-9.506 6.654-9.506 12.663v12.906h-4.346V84.992c0-8.35 5.873-15.346 13.716-17.11.17-.069.34-.103.51-.136 1.256-.272 1.358 4.244 0 4.447zM64.981 67.515v4.322c5.602.721 10.126 4.877 11.328 10.308.035.135.068.237.068.338.068.306.102.578.136.883.068.543.102 1.087.102 1.63v12.905h4.312V84.996c0-9.127-7.015-16.605-15.946-17.48z" fill="#E6E6E6"/>
        <path d="M59.937 70.918C49.747 72.705 48.435 83.8 48.435 83.8V97.9h1.529V84.996c0-6.137 4.207-11.266 9.87-12.794.432-.14.702-1.408.702-1.408s-.267.06-.599.124z" fill="#999"/>
        <path d="M64.981 70.918v.919c5.602.721 10.126 4.877 11.328 10.308-.244-3.17-2.872-10.097-11.328-11.227z" fill="gray"/>
        <path d="M59.837 72.193c-.136.034-.237.068-.373.102.103-.272.655-.889.723-2.179.068-1.324-.382-2.22-.859-2.235.17-.068.34-.102.51-.135 1.256-.272 1.358 4.244 0 4.447z" fill="#666"/>
        <path d="M84.696 129.376H41.883V94.38h42.813v34.996z" fill="#F7AF0C"/>
        <path d="M62.645 103.025c.136-.035.272-.035.408-.035a5.3 5.3 0 0 1 5.296 5.313c0 2.159-1.29 4.01-3.124 4.867v9.014c0 1.199-.984 2.193-2.172 2.193-.102 0-.238 0-.34-.034h-.101a2.203 2.203 0 0 1-1.733-2.159v-9.014a5.348 5.348 0 0 1-3.123-4.867 5.265 5.265 0 0 1 4.89-5.278z" fill="#CC840A"/>
        <path d="M62.645 103.025c2.75.171 4.924 2.467 4.924 5.278 0 2.158-1.29 4.01-3.125 4.867v9.014a2.203 2.203 0 0 1-1.73 2.159h-.102a2.203 2.203 0 0 1-1.733-2.159v-9.014c-1.832-.823-3.123-2.709-3.123-4.867a5.264 5.264 0 0 1 4.89-5.278z" fill="#803D00"/>
        <path d="M95.233 96.927s4.392-.143 8.72.064c4.497.22 8.929.815 8.295 2.365a1.645 1.645 0 0 0-.09 1.021c.904 4.147 17.3 7.248 20.917 4.703 2.7-1.9 10.143.542 13.191 1.86 5.807-38.87 5.969-78.605.827-81.37-5.142-2.752-19.393.737-19.393.737s-7.222 1.912-10.167 21.666c-2.959 19.742-22.3 48.954-22.3 48.954z" fill="#B4B8F3"/>
        <path d="M112.248 99.356a1.645 1.645 0 0 0-.09 1.021c4.444-13.553 14.909-52.274 11.111-41.718-3.643 10.18-15.078 30.8-19.316 38.333 4.497.22 8.929.814 8.295 2.364zM147.63 35.848c4.225 5.168 5 6.42 8.954 6.693-1.331.839-2.119 1.976-2.662 3.204h-.013c-1.163 2.545-1.33 5.516-3.359 7.183l2.429 2.39.62.62s.091-.077.246-.22c1.059-.98 5.271-4.948 7.777-8.591 1.473-2.119 2.365-4.122 1.745-5.375-1.008-3.643-3.592-11.124-10.168-13.359-4.316-4.69-8.54-2.17-10.039-.22-2.003 2.61.013 8.192 4.47 7.675z" fill="#8F95EF"/>
        <path d="m150.55 52.928 2.429 2.39.866.4c.995-.93 4.793-4.495 7.325-7.958.155-.206.31-.426.453-.633-1.254-.013-5.285-.117-7.701-1.382h-.012c-.104.22-.194.438-.272.658-.93 2.378-1.228 5-3.088 6.525z" fill="#231F20"/>
        <path d="M153.638 46.403c2.675 1.629 5.737 1.577 7.532 1.357.155-.206.31-.426.453-.633-1.254-.013-5.285-.117-7.701-1.382h-.012c-.104.22-.194.438-.272.658z" fill="#474EBB"/>
        <path d="M152.37 50.722s-2.767.257-3.605.985c-.699.61-.272 1.369-.272 1.369-1.489.837 0 4.086 2.6 4.887 2.6.803 4.304-4.096 4.304-4.096s-.396-2.97-3.027-3.145zM117.456 129.549h9.388c.193-.11.336-.235.421-.377.483-6.982 1.179-10.344 1.179-10.344l-6.538-.266-1.481 5.194c-2.19 1.497-4.801 4.709-2.969 5.793z" fill="#231F20"/>
        <path d="M127.555 129.675h-11.13c-.282 0-.188-1.548.095-1.548l11.063.063c.291 0 .262 1.485-.028 1.485z" fill="#231F20"/>
        <path d="M131.434 55.184c-1.519 4.087-7.984 22.814-6.138 36.296-2.539 8.965-1.741 16.56-4.031 29.654l6.663.351c2.709-15.976 5.689-12.928 6.552-28.749 5.49-12.405 8.337-24.158 9.799-36.257 1.421-9.122-9.778-13.912-12.845-1.295z" fill="#8F95EF"/>
        <path d="M127.859 122.166s.499-4.754 3.634-13.837c.973-2.791 1.501-4.639 1.775-5.775.274-1.151.308-1.589.308-1.589-1.652-1.913-3.75-4.794-5.612-8.257-2.04 3.192-4.466 6.383-4.466 6.383s-.062.75-.172 1.977c-.491 5.142-1.814 18.733-2.611 21.615-.984 3.566 5.211 5.594 7.144-.517z" fill="#231F20"/>
        <path d="M123.326 101.068c1.064-1.189 2.981-3.424 4.583-5.866.727 2.636 3.778 5.828 5.359 7.352.274-1.151.308-1.589.308-1.589-1.652-1.913-3.75-4.794-5.612-8.257-2.04 3.192-4.466 6.383-4.466 6.383s-.061.75-.172 1.977z" fill="#474EBB"/>
        <path d="M139.314 56.917c.47 17.803 3.644 32.924 3.644 32.924-1.344 12.146 1.712 14.41 3.092 31.787l6.023-.08c.015-7.053.424-15.787.852-29.929 3.792-14.78 1.966-25.664.552-34.5-1.508-10.034-15.126-13.355-14.163-.202z" fill="#8F95EF"/>
        <path d="M146.05 121.627c-.537 2.877-.922 5.122-.697 7.726l14.586.283s1.443-1.406-.372-3.515-5.262-.889-7.494-4.574l-6.023.08z" fill="#231F20"/>
        <path d="M160.601 129.675h-15.496c-.282 0-.208-1.548.074-1.548l15.431.063c.29 0 .282 1.485-.009 1.485zM143.154 101.985l.281 1.396c.734 3.836 2.702 14.547 2.472 19.366 2.737 3.269 6.296-.362 6.296-.362l1.435-26.473.098-1.782a33.006 33.006 0 0 1-10.582 7.855z" fill="#231F20"/>
        <path d="m143.154 101.985.281 1.396c5.32-1.551 8.595-5.195 10.203-7.469l.098-1.782a33.005 33.005 0 0 1-10.582 7.855z" fill="#474EBB"/>
        <path d="M153.028 56.075c0 3.079-21.863 2.188-21.863-.89.073-5.08-.627-9.26-1.583-12.716-6.555-6.422-6.164-11.406-4.503-14.11 2.864-4.663 17.333-4.399 22.543-2.395 2.068.796 4.846 4.039 5.734 9.208.457 2.658-1.5 5.753-1.809 7.901-.715 4.972 1.335 12.288 1.481 13.002z" fill="#8F95EF"/>
        <path d="M139.399 28.08c-1.079-.857-5.382-2.18-6.526-3.116l.258-7.47 4.231-.412c1.227.102 2.454.396 3.509.813l.953 4.918.21 1.066c.479 1.05-.471 2.316-2.635 4.2z" fill="#F7A594"/>
        <path d="M134.555 19.186c.663 1.021 3.442 3.637 7.269 3.627L141 18.558l-6.445.628z" fill="#E6836F"/>
        <path d="M143.919 9.346c.332 1.471 1.016 4.702.904 6.19-.17 2.265-2.286 4.778-4.131 5.107-2.136.218-5.016-.418-6.579-1.761-.87-1.02-2.554-3.439-3.329-5.556-1.617-4.417 1.504-8.29 5.463-9.184 3.959-.895 6.638.616 7.672 5.204z" fill="#F7A594"/>
        <path d="M132.109 16.244c-.825-1.454.272-2.042 1.475-.914-.206-1.097-1.456-4.31-.348-5.375 1.25-1.236 6.753-.698 9.71-3.78 0 0-2.204-4.832-9.436-1.979-8.17 4.332-1.401 12.048-1.401 12.048z" fill="#73382A"/>
        <path d="M133.134 14.862c.625.76.652 1.77.059 2.254s-1.58.26-2.206-.501c-.625-.76-.652-1.77-.059-2.254s1.58-.26 2.206.501z" fill="#F7A594"/>
        <path d="M141.792 22.382c-.723 1.292-8.161.62-8.833-.465l-.413 4.133 6.922 3.925 3.616-3.977-1.292-3.616z" fill="#8F95EF"/>
        <path d="M129.569 8.67c.204-3.618 7.204-8.722 12.226-6.827 3.387 1.278 2.592 4.874-.357 5.553-2.6.598-9.803-2.519-11.869 1.273z" fill="#231F20"/>
        <path d="M142.42 1.854s-.149-1.031-.705-1.802c3.929 2.574 1.973 5.652 1.927 5.783-1.558-4.732-5.276-4.515-6.597-4.498 3.397-1.599 5.341.376 5.375.517z" fill="#231F20"/>
        <path d="M153.301 57.12c-5.704 2.46-18.88 1.918-22.818.033l-1.006 3.337c8.567 2.018 16.763 2.075 24.544-.064l-.72-3.306z" fill="#474EBB"/>
        <path d="M115.137 49.297c3.773 4.044 11.731 8.657 11.731 8.657l2.442-3.515c-2.533-1.395-3.928-5.013-6.344-7.493-.827-.853-1.77-1.563-2.907-2.029 3.851-.994 5.789-1.95 8.993-7.803 4.483-.31 5.451-6.176 3.01-8.36-1.835-1.64-6.46-3.359-9.845 2.042-6.047 3.398-8.631 10.814-8.954 14.587-.297 1.072.517 2.454 1.874 3.914z" fill="#8F95EF"/>
        <path d="M127.12 52.6s2.768-.253 3.724.31c.799.47.518 1.296.518 1.296 1.618.55.747 4.017-1.663 5.28-2.41 1.264-4.98-3.24-4.98-3.24s-.153-2.994 2.401-3.646z" fill="#231F20"/>
        <path d="M115.137 49.297c.232.246.478.504.736.75 3.979 3.85 10.995 7.907 10.995 7.907l2.442-3.514c-2.184-1.202-3.515-4.044-5.388-6.395-.297-.388-.62-.75-.956-1.099-.943.555-3.76 2.041-7.829 2.352z" fill="#231F20"/>
        <path d="M115.137 49.297c.232.246.478.504.736.75 3.411-.168 6.615-1.395 8.049-2.002-.297-.388-.62-.75-.956-1.099-.943.555-3.76 2.041-7.829 2.352z" fill="#474EBB"/>
        <path d="m137.292 34.232-.002-.02.002.02zM137.292 34.232l-.002-.02.002.02zM144.122 33.252l-.003-.02.003.02zM144.122 33.252l-.003-.02.003.02z" fill="#D9FFFF"/>
        <path d="M140.468 31.665c-.679 1.069-1.854 2.037-3.171 2.57l.381 3.25c.406 3.45 3.552 4.7 4.04 4.89.414-.293 3.188-2.418 2.782-5.869l-.382-3.25c-1.397-.144-2.746-.75-3.65-1.591z" fill="#fff"/>
        <path d="m140.827 33.497.006.005c.656.518 1.523.877 2.446 1.011l.26 2.207c.118 1.01-.138 1.974-.761 2.865-.392.56-.826.942-1.068 1.131l-.032.025a5.034 5.034 0 0 1-1.33-.808c-.808-.685-1.278-1.545-1.397-2.555l-.26-2.207c.864-.39 1.621-.985 2.136-1.674z" fill="#F7AF0C"/>
        <path d="M142.698 24.895c-.371.953-1.609 1.793-3.005 2.612-2.834-.464-5.009-1.342-7.136-2.587-2.093-.01-3.599.796-5.148 1.39l12.358 2.011 7.259-2.74c-.965-.351-2.347-.59-4.328-.686z" fill="#474EBB"/>
        <path d="m100.241 50.54.001-.093-.001.093zM100.241 50.54l.001-.093-.001.093zM136.7 50.942l.002-.094-.002.094zM136.7 50.942l.002-.094-.002.094z" fill="#D9FFFF"/>
        <path d="M118.611 40.855c-4.279 4.503-11.084 8.171-18.349 9.705l-.172 15.472c-.182 16.43 15.473 24.56 17.904 25.81 2.37-1.068 18.33-8.98 18.513-25.41l.171-15.47c-7.229-1.694-13.889-5.511-18.067-10.107z" fill="#fff"/>
        <path d="M118.548 43.825c-4.186 3.772-9.97 6.72-16.32 8.306l-.155 13.92c-.07 6.37 2.434 12.15 7.444 17.178 3.291 3.304 6.761 5.362 8.523 6.29l.242-.123.302-45.539-.036-.032z" fill="#007880"/>
        <path d="m118.584 43.857-.302 45.538c1.844-.94 5.198-2.885 8.419-5.977 5.119-4.918 7.751-10.64 7.822-17.01l.155-13.92c-6.294-1.72-11.996-4.783-16.094-8.631z" fill="#008F99"/>
        <path d="M120.243 68.005a1.81 1.81 0 0 0-1.804-1.82 1.817 1.817 0 0 0-1.835 1.796 1.817 1.817 0 0 0 1.064 1.656l-.02 3.064a.747.747 0 0 0 .743.75.747.747 0 0 0 .747-.74l.02-3.057a1.804 1.804 0 0 0 1.085-1.649zm5.573-4.035-.072 10.785c-.007 1.2-14.738 1.103-14.729-.097l.071-10.785 14.73.097zM124.532 63.193l-1.491-.01.005-.725c.016-2.517-2.027-4.577-4.554-4.594-2.528-.017-4.598 2.018-4.615 4.533l-.004.726-1.491-.009.004-.726c.022-3.335 2.765-6.03 6.116-6.008 3.349.022 6.056 2.753 6.034 6.088l-.004.725z" fill="#fff"/>
    </g>
    <defs>
        <clipPath id="059timr77a">
            <path fill="#fff" transform="matrix(-1 0 0 1 200 0)" d="M0 0h200v130.74H0z"/>
        </clipPath>
    </defs>
</svg>
