<svg width="19" height="15" viewBox="0 0 19 15" xmlns="http://www.w3.org/2000/svg">
    <g fill="#414141" fill-rule="nonzero">
        <path d="M16.037 2.833a.737.737 0 0 0-.936-.088c-1.103.751-6.635 4.532-7.23 5.126a2.214 2.214 0 0 0 0 3.127c.431.432.998.647 1.564.647.566 0 1.132-.215 1.564-.647.594-.594 4.374-6.126 5.126-7.229a.737.737 0 0 0-.088-.936zM9.956 9.956a.738.738 0 0 1-1.042-1.042c.23-.228 1.801-1.349 3.734-2.692-1.344 1.933-2.464 3.503-2.692 3.734z"/>
        <path d="m3.4 12.863-.91.444a7.922 7.922 0 0 1-.497-6.698l1.042.5a.734.734 0 0 0 .983-.346.737.737 0 0 0-.345-.983l-1.03-.494a7.97 7.97 0 0 1 6.055-3.778v1.109a.737.737 0 1 0 1.474 0v-1.11a7.87 7.87 0 0 1 2.535.668.737.737 0 0 0 .606-1.343A9.363 9.363 0 0 0 9.435 0c-2.52 0-4.89.981-6.672 2.763A9.373 9.373 0 0 0 0 9.435c0 1.862.553 3.673 1.599 5.237a.737.737 0 0 0 .935.253l1.512-.737a.737.737 0 1 0-.647-1.325zM18.038 5.557a.737.737 0 1 0-1.344.606 7.898 7.898 0 0 1 .701 3.272c0 1.36-.35 2.688-1.018 3.878l-.95-.453a.737.737 0 0 0-.633 1.331l1.547.737a.735.735 0 0 0 .93-.255 9.398 9.398 0 0 0 1.599-5.238c0-1.351-.28-2.656-.832-3.878z"/>
    </g>
</svg>
