<svg width="14" height="14" viewBox="0 0 14 14" xmlns="http://www.w3.org/2000/svg">
    <g fill="#FFF" fill-rule="evenodd">
        <path d="M6.588 10.33a.591.591 0 0 0 .042.038l.021.015.025.019.026.015.023.014.027.013.025.012.026.01c.01.002.018.006.028.009l.026.007.029.007.03.004.026.004a.587.587 0 0 0 .116 0c.008 0 .017-.002.025-.004l.03-.004.03-.007.026-.007.028-.01.026-.01.025-.011.027-.013.023-.014.026-.015.025-.019.02-.015a.584.584 0 0 0 .043-.038l2.917-2.918a.583.583 0 0 0-.825-.824l-1.92 1.92V.583a.583.583 0 1 0-1.167 0v7.925l-1.921-1.92a.583.583 0 0 0-.825.824l2.917 2.917z"/>
        <path d="M13.417 9.917a.583.583 0 0 0-.584.583v2.333H1.167V10.5A.583.583 0 1 0 0 10.5v2.917c0 .322.261.583.583.583h12.834a.583.583 0 0 0 .583-.583V10.5a.583.583 0 0 0-.583-.583z"/>
    </g>
</svg>
