<svg width="50" height="50" viewBox="0 0 50 50" fill="none" xmlns="http://www.w3.org/2000/svg">
<path d="M17.6471 11.7647H17.0513C18.3251 10.518 19.1176 8.78157 19.1176 6.86275C19.1176 3.07863 16.039 0 12.2549 0C8.47079 0 5.39216 3.07863 5.39216 6.86275C5.39216 8.78157 6.18471 10.518 7.45853 11.7647H6.86275C3.07863 11.7647 0 14.8433 0 18.6275V31.3725C0 31.914 0.438922 32.3529 0.980392 32.3529H3.92157V49.0196C3.92157 49.5611 4.36049 50 4.90196 50H19.6078C20.1493 50 20.5882 49.5611 20.5882 49.0196V32.3529H23.5294C24.0709 32.3529 24.5098 31.914 24.5098 31.3725V18.6275C24.5098 14.8433 21.4312 11.7647 17.6471 11.7647ZM7.35294 6.86275C7.35294 4.1598 9.55196 1.96078 12.2549 1.96078C14.9578 1.96078 17.1569 4.1598 17.1569 6.86275C17.1569 9.56569 14.9578 11.7647 12.2549 11.7647C9.55196 11.7647 7.35294 9.56569 7.35294 6.86275ZM22.549 30.3922H20.5882V22.549C20.5882 22.0075 20.1493 21.5686 19.6078 21.5686C19.0664 21.5686 18.6275 22.0075 18.6275 22.549V48.0392H13.2353V32.3529C13.2353 31.8115 12.7964 31.3725 12.2549 31.3725C11.7134 31.3725 11.2745 31.8115 11.2745 32.3529V48.0392H5.88235V22.549C5.88235 22.0075 5.44343 21.5686 4.90196 21.5686C4.36049 21.5686 3.92157 22.0075 3.92157 22.549V30.3922H1.96078V18.6275C1.96078 15.9245 4.1598 13.7255 6.86275 13.7255H17.6471C20.35 13.7255 22.549 15.9245 22.549 18.6275V30.3922Z" fill="black"/>
<path d="M41.7507 11.3933C42.1333 11.7761 42.7543 11.7761 43.1372 11.3934L45.9102 8.62048C46.293 8.23763 46.293 7.61685 45.9102 7.23391C45.5272 6.85107 44.9066 6.85107 44.5236 7.23391L42.444 9.31361L41.7509 8.62038C41.3681 8.23754 40.7475 8.23754 40.3643 8.62038C39.9814 9.00322 39.9814 9.62401 40.3643 10.0068L41.7507 11.3933Z" fill="black"/>
<path d="M49.0195 2.45117H37.2548C36.7134 2.45117 36.2744 2.89009 36.2744 3.43156V15.1963C36.2744 15.7377 36.7134 16.1767 37.2548 16.1767H49.0195C49.5609 16.1767 49.9999 15.7377 49.9999 15.1963V3.43156C49.9999 2.89009 49.5609 2.45117 49.0195 2.45117ZM48.0391 14.2159H38.2352V4.41196H48.0391V14.2159Z" fill="black"/>
<path d="M41.7507 42.766C42.1333 43.1487 42.7543 43.1487 43.1372 42.766L45.9102 39.993C46.293 39.6102 46.293 38.9894 45.9102 38.6065C45.5272 38.2236 44.9066 38.2236 44.5236 38.6065L42.444 40.6863L41.7509 39.993C41.3681 39.6102 40.7475 39.6102 40.3643 39.9929C39.9814 40.3758 39.9814 40.9966 40.3643 41.3794L41.7507 42.766Z" fill="black"/>
<path d="M49.0195 33.8237H37.2548C36.7134 33.8237 36.2744 34.2627 36.2744 34.8041V46.5688C36.2744 47.1103 36.7134 47.5492 37.2548 47.5492H49.0195C49.5609 47.5492 49.9999 47.1103 49.9999 46.5688V34.8041C49.9999 34.2627 49.5609 33.8237 49.0195 33.8237ZM48.0391 45.5884H38.2352V35.7845H48.0391V45.5884Z" fill="black"/>
<path d="M40.483 27.6539C40.6745 27.8453 40.9253 27.941 41.1763 27.941C41.4272 27.941 41.678 27.8453 41.8695 27.6539L43.137 26.3864L44.4046 27.654C44.7875 28.0368 45.4081 28.0368 45.7912 27.654C46.174 27.2711 46.174 26.6503 45.7912 26.2674L44.5236 24.9998L45.7912 23.7323C46.174 23.3495 46.174 22.7287 45.7912 22.3457C45.4082 21.9629 44.7876 21.9629 44.4046 22.3457L43.137 23.6133L41.8695 22.3457C41.4866 21.9629 40.866 21.9629 40.4829 22.3457C40.1001 22.7286 40.1001 23.3494 40.4829 23.7323L41.7505 24.9998L40.4829 26.2674C40.1001 26.6502 40.1001 27.271 40.483 27.6539V27.6539Z" fill="black"/>
<path d="M49.0195 18.1372H37.2548C36.7134 18.1372 36.2744 18.5761 36.2744 19.1176V30.8823C36.2744 31.4238 36.7134 31.8627 37.2548 31.8627H49.0195C49.5609 31.8627 49.9999 31.4238 49.9999 30.8823V19.1176C49.9999 18.5761 49.5609 18.1372 49.0195 18.1372ZM48.0391 29.9019H38.2352V20.098H48.0391V29.9019Z" fill="black"/>
<path d="M33.3335 4.41162H27.4511C26.9096 4.41162 26.4707 4.85054 26.4707 5.39201C26.4707 5.93348 26.9096 6.3724 27.4511 6.3724H33.3335C33.8748 6.3724 34.3139 5.93348 34.3139 5.39201C34.3139 4.85054 33.8748 4.41162 33.3335 4.41162Z" fill="black"/>
<path d="M33.3335 8.3335H27.4511C26.9096 8.3335 26.4707 8.77242 26.4707 9.31389C26.4707 9.85536 26.9096 10.2943 27.4511 10.2943H33.3335C33.8748 10.2943 34.3139 9.85536 34.3139 9.31389C34.3139 8.77242 33.8748 8.3335 33.3335 8.3335Z" fill="black"/>
<path d="M27.4511 14.2157H31.3727C31.914 14.2157 32.3531 13.7767 32.3531 13.2353C32.3531 12.6938 31.914 12.2549 31.3727 12.2549H27.4511C26.9096 12.2549 26.4707 12.6938 26.4707 13.2353C26.4707 13.7767 26.9096 14.2157 27.4511 14.2157Z" fill="black"/>
<path d="M33.3335 19.1177H27.4511C26.9096 19.1177 26.4707 19.5566 26.4707 20.0981C26.4707 20.6395 26.9096 21.0785 27.4511 21.0785H33.3335C33.8748 21.0785 34.3139 20.6395 34.3139 20.0981C34.3139 19.5566 33.8748 19.1177 33.3335 19.1177Z" fill="black"/>
<path d="M33.3335 23.0391H27.4511C26.9096 23.0391 26.4707 23.478 26.4707 24.0195C26.4707 24.5609 26.9096 24.9998 27.4511 24.9998H33.3335C33.8748 24.9998 34.3139 24.5609 34.3139 24.0195C34.3139 23.478 33.8748 23.0391 33.3335 23.0391Z" fill="black"/>
<path d="M27.4511 28.9217H31.3727C31.914 28.9217 32.3531 28.4828 32.3531 27.9413C32.3531 27.3999 31.914 26.9609 31.3727 26.9609H27.4511C26.9096 26.9609 26.4707 27.3999 26.4707 27.9413C26.4707 28.4828 26.9096 28.9217 27.4511 28.9217Z" fill="black"/>
<path d="M33.3335 35.7842H27.4511C26.9096 35.7842 26.4707 36.2231 26.4707 36.7646C26.4707 37.306 26.9096 37.745 27.4511 37.745H33.3335C33.8748 37.745 34.3139 37.306 34.3139 36.7646C34.3139 36.2231 33.8748 35.7842 33.3335 35.7842Z" fill="black"/>
<path d="M33.3335 39.7061H27.4511C26.9096 39.7061 26.4707 40.145 26.4707 40.6864C26.4707 41.2279 26.9096 41.6668 27.4511 41.6668H33.3335C33.8748 41.6668 34.3139 41.2279 34.3139 40.6864C34.3139 40.145 33.8748 39.7061 33.3335 39.7061Z" fill="black"/>
<path d="M31.3727 43.6274H27.4511C26.9096 43.6274 26.4707 44.0664 26.4707 44.6078C26.4707 45.1493 26.9096 45.5882 27.4511 45.5882H31.3727C31.914 45.5882 32.3531 45.1493 32.3531 44.6078C32.3531 44.0664 31.914 43.6274 31.3727 43.6274Z" fill="black"/>
</svg>
