<svg width="16" height="16" viewBox="0 0 16 16" xmlns="http://www.w3.org/2000/svg">
    <g fill="#000" fill-rule="nonzero" opacity=".8">
        <path d="M1.6 13.87a1.59 1.59 0 0 1-.84-.24A1.61 1.61 0 0 1 0 12.265v-9.6A2.665 2.665 0 0 1 2.665 0h10.67A2.665 2.665 0 0 1 16 2.665v7.06a2.665 2.665 0 0 1-2.665 2.665h-8.41l-2.61 1.31a1.6 1.6 0 0 1-.715.17zM2.665 1.065a1.6 1.6 0 0 0-1.6 1.6v9.6c0 .186.097.358.255.455a.525.525 0 0 0 .5 0l2.725-1.36a.535.535 0 0 1 .24-.055h8.55a1.6 1.6 0 0 0 1.6-1.6v-7.04a1.6 1.6 0 0 0-1.6-1.6H2.665z"/>
        <path d="M14.4 16c-.248 0-.493-.058-.715-.17l-2.61-1.305h-5.74a.535.535 0 1 1 0-1.065H11.2c.083 0 .165.018.24.055l2.725 1.36a.535.535 0 0 0 .77-.5v-.915a.535.535 0 1 1 1.065 0v.94a1.6 1.6 0 0 1-1.6 1.6zM8 7.69a.535.535 0 0 1-.535-.535v-.63c0-.701.569-1.27 1.27-1.27a.5.5 0 0 0 .36-.15.6.6 0 0 0 .15-.5.63.63 0 0 0-.64-.605H7.3a.535.535 0 1 1 0-1.065h1.3c.936 0 1.695.759 1.695 1.695a1.66 1.66 0 0 1-.46 1.235 1.565 1.565 0 0 1-1.115.46.2.2 0 0 0-.2.2v.635a.535.535 0 0 1-.52.53zM8 9.455a.535.535 0 0 1-.535-.535V8.8a.535.535 0 1 1 1.065 0v.125a.535.535 0 0 1-.53.53z"/>
    </g>
</svg>
