<svg width="24" height="24" viewBox="0 0 24 24" xmlns="http://www.w3.org/2000/svg">
    <g fill="#000" fill-rule="nonzero" opacity=".7">
        <path d="M16 8a1 1 0 0 0-1.414 0L12 10.586 9.414 8A1 1 0 0 0 8 9.414L10.586 12 8 14.586A1 1 0 0 0 9.414 16L12 13.414 14.586 16A1 1 0 0 0 16 14.586L13.414 12 16 9.414A1 1 0 0 0 16 8z"/>
        <path d="M12 0C5.373 0 0 5.373 0 12s5.373 12 12 12 12-5.373 12-12C23.993 5.376 18.624.007 12 0zm0 22C6.477 22 2 17.523 2 12S6.477 2 12 2s10 4.477 10 10c-.006 5.52-4.48 9.994-10 10z"/>
    </g>
</svg>
