<svg id="Capa_1" enable-background="new 0 0 512 512" height="512" viewBox="0 0 512 512" width="512" xmlns="http://www.w3.org/2000/svg"><g><g><circle cx="322.615" cy="193.321" fill="#80b4fb" r="189.385"/><path d="m336.369 382.211c-4.542.336-9.125.499-13.748.499-104.599 0-189.39-84.791-189.39-189.39 0-104.588 84.791-189.38 189.39-189.38 4.623 0 9.206.163 13.748.499-98.183 7.037-175.631 88.916-175.631 188.881-.001 99.976 77.448 181.854 175.631 188.891z" fill="#61a2f9"/><circle cx="322.615" cy="193.321" fill="#d3effb" r="145.625"/><path d="m345.626 337.137c-7.495 1.192-15.174 1.813-23.005 1.813-80.432 0-145.63-65.197-145.63-145.63 0-80.422 65.197-145.619 145.63-145.619 7.831 0 15.51.621 23.005 1.813-69.495 11.019-122.624 71.206-122.624 143.807 0 72.611 53.129 132.797 122.624 143.816z" fill="#b1e4f9"/><path d="m322.615 213.688c-11.249 0-20.368-9.119-20.368-20.368v-74.593c0-11.249 9.119-20.368 20.368-20.368s20.368 9.119 20.368 20.368v74.593c0 11.249-9.119 20.368-20.368 20.368z" fill="#665e66"/><g fill="#756e78"><path d="m369.548 213.688h-46.933c-11.249 0-20.368-9.119-20.368-20.368s9.119-20.368 20.368-20.368h46.933c11.249 0 20.368 9.119 20.368 20.368s-9.119 20.368-20.368 20.368z"/><path d="m201.74 201.047h-24.749c-4.267 0-7.726-3.459-7.726-7.726s3.459-7.726 7.726-7.726h24.749c4.267 0 7.726 3.459 7.726 7.726s-3.459 7.726-7.726 7.726z"/><path d="m468.24 201.047h-24.749c-4.267 0-7.726-3.459-7.726-7.726s3.459-7.726 7.726-7.726h24.749c4.267 0 7.726 3.459 7.726 7.726s-3.459 7.726-7.726 7.726z"/><path d="m322.615 80.171c-4.267 0-7.726-3.459-7.726-7.726v-24.749c0-4.267 3.459-7.726 7.726-7.726s7.726 3.459 7.726 7.726v24.749c.001 4.267-3.459 7.726-7.726 7.726z"/><path d="m322.615 346.671c-4.267 0-7.726-3.459-7.726-7.726v-24.749c0-4.267 3.459-7.726 7.726-7.726s7.726 3.459 7.726 7.726v24.749c.001 4.267-3.459 7.726-7.726 7.726z"/></g><circle cx="398.053" cy="121.529" fill="#fff" r="23.169"/><path d="m322.615 346.671c-84.558 0-153.351-68.793-153.351-153.351s68.793-153.35 153.351-153.35 153.351 68.793 153.351 153.351-68.793 153.35-153.351 153.35zm0-291.249c-76.037 0-137.898 61.861-137.898 137.898s61.861 137.898 137.898 137.898 137.898-61.861 137.898-137.898-61.861-137.898-137.898-137.898z" fill="#61a2f9"/></g><g><path d="m255.807 444.658v-46.748c0-55.214-44.76-99.973-99.973-99.973h-24.208c-55.214 0-99.973 44.76-99.973 99.973v46.748c-17.482 0-31.653 14.17-31.653 31.651 0 17.481 14.171 31.652 31.652 31.652h224.155c17.481 0 31.652-14.171 31.652-31.652 0-17.481-14.171-31.651-31.652-31.651z" fill="#c6865c"/><path d="m172.032 299.249c-47.514 7.728-83.779 48.964-83.779 98.663v46.741c-17.479 0-31.657 14.178-31.657 31.657 0 8.74 3.54 16.649 9.274 22.383 5.734 5.725 13.643 9.264 22.383 9.264h-56.596c-8.739 0-16.649-3.54-22.383-9.264-5.734-5.735-9.274-13.644-9.274-22.384 0-17.479 14.178-31.657 31.657-31.657v-46.741c0-55.213 44.756-99.979 99.97-99.979h24.215c5.514 0 10.914.448 16.19 1.317z" fill="#aa7a63"/><path d="m169.309 209.908c-14.04-.5-25.579 10.734-25.579 24.663 0-13.928-11.539-25.162-25.579-24.663-13.373.475-23.779 11.873-23.779 25.254v13.415c0 27.26 22.098 49.358 49.358 49.358 27.26 0 49.358-22.098 49.358-49.358v-13.415c-.001-13.381-10.406-24.778-23.779-25.254z" fill="#c6865c"/><path d="m156.54 296.253c-4.084 1.097-8.386 1.679-12.813 1.679-27.258 0-49.355-22.097-49.355-49.355v-13.414c0-13.386 10.4-24.787 23.776-25.255 5.066-.181 9.808 1.164 13.796 3.616-7.203 4.465-11.945 12.604-11.945 21.639v13.414c-.001 22.822 15.494 42.037 36.541 47.676z" fill="#aa7a63"/></g><g fill="#f6e266"><path d="m98.3 470.379c-1.134 0-2.285-.25-3.373-.779-3.838-1.866-5.436-6.489-3.57-10.327l45.518-93.622c1.866-3.838 6.49-5.434 10.327-3.57 3.838 1.866 5.436 6.489 3.57 10.327l-45.518 93.622c-1.337 2.749-4.09 4.349-6.954 4.349z"/><path d="m89.592 412.74c-15.35 0-27.839-12.516-27.839-27.9 0-15.385 12.488-27.901 27.839-27.901s27.839 12.516 27.839 27.901c-.001 15.384-12.489 27.9-27.839 27.9zm0-40.348c-6.829 0-12.386 5.584-12.386 12.448s5.556 12.448 12.386 12.448c6.829 0 12.386-5.584 12.386-12.448-.001-6.864-5.557-12.448-12.386-12.448z"/><path d="m151.065 476.751c-15.35 0-27.839-12.516-27.839-27.9 0-15.385 12.488-27.901 27.839-27.901s27.839 12.516 27.839 27.901c0 15.384-12.489 27.9-27.839 27.9zm0-40.348c-6.829 0-12.386 5.584-12.386 12.448s5.556 12.448 12.386 12.448c6.829 0 12.386-5.584 12.386-12.448s-5.556-12.448-12.386-12.448z"/></g><g><path d="m333.523 395.585c0-12.424-10.072-22.496-22.496-22.496h-96.08c-12.424 0-22.496 10.072-22.496 22.496 0 12.424 10.072 22.496 22.496 22.496-12.424 0-22.496 10.072-22.496 22.496 0 12.424 10.072 22.496 22.496 22.496-12.424 0-22.496 10.072-22.496 22.496s10.072 22.496 22.496 22.496h96.08c12.424 0 22.496-10.072 22.496-22.496s-10.072-22.496-22.496-22.496c12.424 0 22.496-10.072 22.496-22.496 0-12.424-10.072-22.496-22.496-22.496 12.424 0 22.496-10.072 22.496-22.496z" fill="#f6e266"/><path d="m238.521 395.585c0-12.424 10.075-22.499 22.499-22.499h-46.07c-12.424 0-22.499 10.075-22.499 22.499 0 6.212 2.514 11.837 6.593 15.906 4.069 4.069 9.694 6.583 15.906 6.583h.012l-.012.004c-12.424 0-22.499 10.075-22.499 22.499 0 6.212 2.514 11.837 6.593 15.906 4.069 4.069 9.694 6.583 15.906 6.583l.007.004h-.007c-12.424 0-22.499 10.075-22.499 22.499 0 6.212 2.514 11.837 6.593 15.906 4.069 4.069 9.694 6.583 15.906 6.583h46.07c-6.212 0-11.837-2.514-15.906-6.583-4.08-4.069-6.593-9.694-6.593-15.906 0-12.424 10.075-22.499 22.499-22.499v-.004c-6.212 0-11.837-2.514-15.906-6.583-4.08-4.069-6.593-9.694-6.593-15.906 0-12.424 10.075-22.499 22.499-22.499v-.004c-6.212 0-11.837-2.514-15.906-6.583-4.08-4.069-6.593-9.694-6.593-15.906z" fill="#ffd064"/><g><path d="m393.757 440.577c0-12.424-10.072-22.496-22.496-22.496h-96.08c-12.424 0-22.496 10.072-22.496 22.496 0 12.424 10.072 22.496 22.496 22.496-12.424 0-22.496 10.072-22.496 22.496s10.072 22.496 22.496 22.496h96.08c12.424 0 22.496-10.072 22.496-22.496s-10.072-22.496-22.496-22.496c12.424 0 22.496-10.072 22.496-22.496z" fill="#f6e266"/><path d="m305.348 456.483c-4.08-4.069-6.593-9.694-6.593-15.906 0-12.424 10.075-22.499 22.499-22.499h-46.07c-12.424 0-22.499 10.075-22.499 22.499 0 6.212 2.514 11.837 6.593 15.906 4.069 4.069 9.694 6.583 15.906 6.583h.006l-.006.004c-12.424 0-22.499 10.075-22.499 22.499 0 6.212 2.514 11.837 6.593 15.906 4.069 4.069 9.694 6.583 15.906 6.583h46.07c-6.212 0-11.837-2.514-15.906-6.583-4.08-4.069-6.593-9.694-6.593-15.906 0-12.424 10.075-22.499 22.499-22.499v-.004c-6.212 0-11.837-2.514-15.906-6.583z" fill="#ffd064"/></g></g></g></svg>