<svg id="Capa_1" enable-background="new 0 0 512 512" height="512" viewBox="0 0 512 512" width="512" xmlns="http://www.w3.org/2000/svg"><g><path d="m199.338 20.59-146.612 32.237c-14.877 3.271-25.474 16.452-25.474 31.684v249.387c0 13.926 3.487 27.63 10.182 39.841 17.652 32.201 61.817 90.321 159.1 116.609 10.321 2.789 20.924 4.184 31.526 4.184h.001c10.603 0 21.205-1.395 31.526-4.184 97.413-26.323 141.566-84.563 159.171-116.737 6.661-12.174 10.111-25.836 10.111-39.713v-249.387c0-15.232-10.597-28.413-25.474-31.684l-146.613-32.237c-18.922-4.16-38.522-4.16-57.444 0z" fill="#94dfb6"/><path d="m428.872 84.507v249.387c0 13.885-3.458 27.543-10.118 39.719-17.6 32.174-61.755 90.409-159.173 116.737-5.157 1.389-10.385 2.439-15.655 3.139-5.26.69-10.57 1.04-15.871 1.04-3.458 0-6.906-.144-10.354-.453 1.884-.154 3.767-.36 5.64-.607 5.27-.72 10.498-1.781 15.655-3.201 97.418-26.802 141.573-86.117 159.173-118.888 6.659-12.392 10.118-26.308 10.118-40.439v-253.988c0-10.251-4.621-19.587-12.052-25.7l7.164 1.575c14.872 3.272 25.473 16.447 25.473 31.679z" fill="#6fd4a2"/><path d="m204.556 62.081-127.561 28.048c-7.746 1.703-13.264 8.566-13.264 16.497v214.395c0 11.396 2.854 22.61 8.332 32.604 14.445 26.351 50.587 73.913 130.197 95.425 8.446 2.282 17.122 3.424 25.799 3.424 8.676 0 17.353-1.141 25.799-3.424 79.478-21.477 115.632-68.916 130.125-95.294 5.513-10.033 8.404-21.287 8.404-32.735v-214.394c0-7.931-5.518-14.794-13.264-16.497l-127.56-28.048c-15.484-3.405-31.523-3.405-47.007-.001z" fill="#f5f8f9"/><path d="m392.386 106.626v214.392c0 11.456-2.892 22.705-8.399 32.74-14.492 26.38-50.649 73.818-130.128 95.288-4.22 1.142-8.502 1.997-12.814 2.573-3.705.484-7.431.772-11.147.834 1.132-.268 2.254-.566 3.376-.885 79.479-22.51 115.636-72.253 130.128-99.909 5.506-10.519 8.399-22.314 8.399-34.315v-224.778c0-1.431-.165-2.82-.473-4.158l7.802 1.719c7.739 1.709 13.256 8.563 13.256 16.499z" fill="#e8edf2"/><g><g><path d="m469.722 2.002c-3.686 8.551-11.316 21.135-25.913 28.013-2.513 1.184-2.513 4.767 0 5.951 14.597 6.878 22.226 19.462 25.913 28.013 1.151 2.669 4.91 2.669 6.061 0 3.686-8.551 11.316-21.135 25.913-28.013 2.513-1.184 2.513-4.767 0-5.951-14.597-6.878-22.226-19.462-25.913-28.013-1.151-2.669-4.911-2.669-6.061 0z" fill="#fef0ae"/><path d="m501.692 35.964c-14.595 6.875-22.221 19.463-25.906 28.016-1.153 2.666-4.909 2.666-6.062 0-1.853-4.313-4.714-9.644-8.965-14.749 4.066-9.006 12.104-21.635 26.997-28.654.103-.051.206-.103.309-.185 3.664 3.664 8.162 7.05 13.627 9.624 2.521 1.182 2.521 4.764 0 5.948z" fill="#fee45a"/></g><g><path d="m36.214 448.021c-3.686 8.551-11.316 21.135-25.912 28.013-2.513 1.184-2.513 4.767 0 5.951 14.597 6.878 22.226 19.462 25.912 28.013 1.151 2.669 4.91 2.669 6.061 0 3.686-8.551 11.316-21.135 25.913-28.013 2.513-1.184 2.513-4.767 0-5.951-14.597-6.878-22.226-19.462-25.913-28.013-1.15-2.669-4.91-2.669-6.061 0z" fill="#fef0ae"/><path d="m68.185 481.983c-14.595 6.875-22.222 19.463-25.906 28.016-1.153 2.666-4.909 2.666-6.062 0-1.853-4.313-4.714-9.644-8.965-14.749 4.066-9.006 12.104-21.635 26.997-28.654.103-.051.206-.103.309-.185 3.664 3.664 8.162 7.05 13.627 9.624 2.521 1.182 2.521 4.764 0 5.948z" fill="#fee45a"/></g></g><g><path d="m314.651 187.214-.003-.003c-11.228-11.228-29.432-11.228-40.66 0l-73.163 73.163-18.697-18.697c-11.228-11.228-29.432-11.228-40.66 0-11.231 11.231-11.227 29.442.009 40.669l44.946 44.907c7.956 7.949 20.848 7.948 28.802-.002l99.419-99.37c11.234-11.229 11.237-29.437.007-40.667z" fill="#978ecb"/><path d="m314.642 227.877-99.415 99.374c-7.956 7.946-20.852 7.946-28.798 0l-8.45-8.44c6.392 1.07 13.185-.865 18.115-5.784l101.369-101.237c8.471-8.46 10.673-20.811 6.618-31.289 3.86 1.379 7.483 3.623 10.57 6.711 11.23 11.229 11.23 29.436-.009 40.665z" fill="#8379c1"/></g></g></svg>