<svg width="147" height="147" viewBox="0 0 147 147" xmlns="http://www.w3.org/2000/svg">
    <g fill="none" fill-rule="evenodd" opacity=".5">
        <path fill="#000" opacity=".04" d="M23 0h124v124H23z"/>
        <g opacity=".2" fill="#3D464A">
            <path d="M3.71 29.863a1.86 1.86 0 0 1-1.855 1.864A1.86 1.86 0 0 1 0 29.863C0 28.834.83 28 1.855 28a1.86 1.86 0 0 1 1.856 1.863M14.843 29.863a1.86 1.86 0 0 1-1.855 1.864 1.86 1.86 0 0 1-1.855-1.864c0-1.029.83-1.863 1.855-1.863a1.86 1.86 0 0 1 1.855 1.863M25.048 29.863a1.86 1.86 0 0 1-1.855 1.864 1.86 1.86 0 0 1-1.856-1.864c0-1.029.83-1.863 1.856-1.863a1.86 1.86 0 0 1 1.855 1.863M36.18 29.863a1.86 1.86 0 0 1-1.856 1.864 1.859 1.859 0 0 1-1.854-1.864c0-1.029.83-1.863 1.854-1.863a1.86 1.86 0 0 1 1.857 1.863M46.385 29.863a1.86 1.86 0 0 1-1.855 1.864 1.86 1.86 0 0 1-1.855-1.864c0-1.029.83-1.863 1.855-1.863a1.86 1.86 0 0 1 1.855 1.863M3.71 40.113a1.86 1.86 0 0 1-1.855 1.863A1.86 1.86 0 0 1 0 40.113a1.86 1.86 0 0 1 1.855-1.864 1.86 1.86 0 0 1 1.856 1.864M14.843 40.113a1.86 1.86 0 0 1-1.855 1.863 1.86 1.86 0 0 1-1.855-1.863 1.86 1.86 0 0 1 1.855-1.864 1.86 1.86 0 0 1 1.855 1.864M25.048 40.113a1.86 1.86 0 0 1-1.855 1.863 1.86 1.86 0 0 1-1.856-1.863 1.86 1.86 0 0 1 1.856-1.864 1.86 1.86 0 0 1 1.855 1.864M36.18 40.113a1.86 1.86 0 0 1-1.856 1.863 1.859 1.859 0 0 1-1.854-1.863c0-1.03.83-1.864 1.854-1.864a1.86 1.86 0 0 1 1.857 1.864M46.385 40.113a1.86 1.86 0 0 1-1.855 1.863 1.86 1.86 0 0 1-1.855-1.863 1.86 1.86 0 0 1 1.855-1.864 1.86 1.86 0 0 1 1.855 1.864M3.71 51.76c0 1.285-.83 2.329-1.855 2.329C.83 54.089 0 53.045 0 51.759s.83-2.33 1.855-2.33 1.856 1.044 1.856 2.33M14.843 51.76c0 1.285-.83 2.329-1.855 2.329s-1.855-1.044-1.855-2.33.83-2.33 1.855-2.33 1.855 1.044 1.855 2.33M25.048 51.76c0 1.285-.83 2.329-1.855 2.329s-1.856-1.044-1.856-2.33.83-2.33 1.856-2.33c1.024 0 1.855 1.044 1.855 2.33M36.18 51.76c0 1.285-.83 2.329-1.856 2.329-1.024 0-1.854-1.044-1.854-2.33s.83-2.33 1.854-2.33c1.026 0 1.857 1.044 1.857 2.33M46.385 51.76c0 1.285-.83 2.329-1.855 2.329s-1.855-1.044-1.855-2.33.83-2.33 1.855-2.33 1.855 1.044 1.855 2.33M3.71 62.008c0 1.287-.83 2.33-1.855 2.33C.83 64.338 0 63.295 0 62.008c0-1.286.83-2.329 1.855-2.329s1.856 1.043 1.856 2.33M14.843 62.008c0 1.287-.83 2.33-1.855 2.33s-1.855-1.043-1.855-2.33c0-1.286.83-2.329 1.855-2.329s1.855 1.043 1.855 2.33M25.048 62.008c0 1.287-.83 2.33-1.855 2.33s-1.856-1.043-1.856-2.33c0-1.286.83-2.329 1.856-2.329 1.024 0 1.855 1.043 1.855 2.33M36.18 62.008c0 1.287-.83 2.33-1.856 2.33-1.024 0-1.854-1.043-1.854-2.33 0-1.286.83-2.329 1.854-2.329 1.026 0 1.857 1.043 1.857 2.33M46.385 62.008c0 1.287-.83 2.33-1.855 2.33s-1.855-1.043-1.855-2.33c0-1.286.83-2.329 1.855-2.329s1.855 1.043 1.855 2.33M3.71 72.723a1.86 1.86 0 0 1-1.855 1.864A1.86 1.86 0 0 1 0 72.723c0-1.029.83-1.863 1.855-1.863a1.86 1.86 0 0 1 1.856 1.863M14.843 72.723a1.86 1.86 0 0 1-1.855 1.864 1.86 1.86 0 0 1-1.855-1.864c0-1.029.83-1.863 1.855-1.863a1.86 1.86 0 0 1 1.855 1.863M25.048 72.723a1.86 1.86 0 0 1-1.855 1.864 1.86 1.86 0 0 1-1.856-1.864c0-1.029.83-1.863 1.856-1.863a1.86 1.86 0 0 1 1.855 1.863M36.18 72.723a1.86 1.86 0 0 1-1.856 1.864 1.859 1.859 0 0 1-1.854-1.864c0-1.029.83-1.863 1.854-1.863a1.86 1.86 0 0 1 1.857 1.863M46.385 72.723a1.86 1.86 0 0 1-1.855 1.864 1.86 1.86 0 0 1-1.855-1.864c0-1.029.83-1.863 1.855-1.863a1.86 1.86 0 0 1 1.855 1.863M3.71 82.972a1.86 1.86 0 0 1-1.855 1.864A1.86 1.86 0 0 1 0 82.972c0-1.029.83-1.863 1.855-1.863a1.86 1.86 0 0 1 1.856 1.863M14.843 82.972a1.86 1.86 0 0 1-1.855 1.864 1.86 1.86 0 0 1-1.855-1.864c0-1.029.83-1.863 1.855-1.863a1.86 1.86 0 0 1 1.855 1.863M25.048 82.972a1.86 1.86 0 0 1-1.855 1.864 1.86 1.86 0 0 1-1.856-1.864c0-1.029.83-1.863 1.856-1.863a1.86 1.86 0 0 1 1.855 1.863M36.18 82.972a1.86 1.86 0 0 1-1.856 1.864 1.859 1.859 0 0 1-1.854-1.864c0-1.029.83-1.863 1.854-1.863a1.86 1.86 0 0 1 1.857 1.863M46.385 82.972a1.86 1.86 0 0 1-1.855 1.864 1.86 1.86 0 0 1-1.855-1.864c0-1.029.83-1.863 1.855-1.863a1.86 1.86 0 0 1 1.855 1.863M57.518 29.863a1.86 1.86 0 0 1-1.856 1.864 1.86 1.86 0 0 1-1.855-1.864c0-1.029.83-1.863 1.855-1.863a1.86 1.86 0 0 1 1.856 1.863M57.518 40.113a1.86 1.86 0 0 1-1.856 1.863 1.86 1.86 0 0 1-1.855-1.863 1.86 1.86 0 0 1 1.855-1.864 1.86 1.86 0 0 1 1.856 1.864M57.518 51.76c0 1.285-.83 2.329-1.856 2.329-1.024 0-1.855-1.044-1.855-2.33s.83-2.33 1.855-2.33c1.026 0 1.856 1.044 1.856 2.33M57.518 62.008c0 1.287-.83 2.33-1.856 2.33-1.024 0-1.855-1.043-1.855-2.33 0-1.286.83-2.329 1.855-2.329 1.026 0 1.856 1.043 1.856 2.33M57.518 72.723a1.86 1.86 0 0 1-1.856 1.864 1.86 1.86 0 0 1-1.855-1.864c0-1.029.83-1.863 1.855-1.863a1.86 1.86 0 0 1 1.856 1.863M57.518 82.972a1.86 1.86 0 0 1-1.856 1.864 1.86 1.86 0 0 1-1.855-1.864c0-1.029.83-1.863 1.855-1.863a1.86 1.86 0 0 1 1.856 1.863"/>
            <g>
                <path d="M3.71 92.028a1.86 1.86 0 0 1-1.855 1.863A1.86 1.86 0 0 1 0 92.028c0-1.03.83-1.864 1.855-1.864a1.86 1.86 0 0 1 1.856 1.864M14.843 92.028a1.86 1.86 0 0 1-1.855 1.863 1.86 1.86 0 0 1-1.855-1.863c0-1.03.83-1.864 1.855-1.864a1.86 1.86 0 0 1 1.855 1.864M25.048 92.028a1.86 1.86 0 0 1-1.855 1.863 1.86 1.86 0 0 1-1.856-1.863c0-1.03.83-1.864 1.856-1.864a1.86 1.86 0 0 1 1.855 1.864M36.18 92.028a1.86 1.86 0 0 1-1.856 1.863 1.859 1.859 0 0 1-1.854-1.863c0-1.03.83-1.864 1.854-1.864a1.86 1.86 0 0 1 1.857 1.864M46.385 92.028a1.86 1.86 0 0 1-1.855 1.863 1.86 1.86 0 0 1-1.855-1.863c0-1.03.83-1.864 1.855-1.864a1.86 1.86 0 0 1 1.855 1.864M3.71 102.277a1.86 1.86 0 0 1-1.855 1.863A1.86 1.86 0 0 1 0 102.277a1.86 1.86 0 0 1 1.855-1.864 1.86 1.86 0 0 1 1.856 1.864M14.843 102.277a1.86 1.86 0 0 1-1.855 1.863 1.86 1.86 0 0 1-1.855-1.863 1.86 1.86 0 0 1 1.855-1.864 1.86 1.86 0 0 1 1.855 1.864M25.048 102.277a1.86 1.86 0 0 1-1.855 1.863 1.86 1.86 0 0 1-1.856-1.863 1.86 1.86 0 0 1 1.856-1.864 1.86 1.86 0 0 1 1.855 1.864M36.18 102.277a1.86 1.86 0 0 1-1.856 1.863 1.859 1.859 0 0 1-1.854-1.863c0-1.03.83-1.864 1.854-1.864a1.86 1.86 0 0 1 1.857 1.864M46.385 102.277a1.86 1.86 0 0 1-1.855 1.863 1.86 1.86 0 0 1-1.855-1.863 1.86 1.86 0 0 1 1.855-1.864 1.86 1.86 0 0 1 1.855 1.864M3.71 113.924c0 1.286-.83 2.329-1.855 2.329-1.024 0-1.855-1.043-1.855-2.33 0-1.286.83-2.329 1.855-2.329s1.856 1.043 1.856 2.33M14.843 113.924c0 1.286-.83 2.329-1.855 2.329s-1.855-1.043-1.855-2.33c0-1.286.83-2.329 1.855-2.329s1.855 1.043 1.855 2.33M25.048 113.924c0 1.286-.83 2.329-1.855 2.329s-1.856-1.043-1.856-2.33c0-1.286.83-2.329 1.856-2.329 1.024 0 1.855 1.043 1.855 2.33M36.18 113.924c0 1.286-.83 2.329-1.856 2.329-1.024 0-1.854-1.043-1.854-2.33 0-1.286.83-2.329 1.854-2.329 1.026 0 1.857 1.043 1.857 2.33M46.385 113.924c0 1.286-.83 2.329-1.855 2.329s-1.855-1.043-1.855-2.33c0-1.286.83-2.329 1.855-2.329s1.855 1.043 1.855 2.33M3.71 124.172c0 1.287-.83 2.33-1.855 2.33-1.024 0-1.855-1.043-1.855-2.33 0-1.286.83-2.329 1.855-2.329s1.856 1.043 1.856 2.33M14.843 124.172c0 1.287-.83 2.33-1.855 2.33s-1.855-1.043-1.855-2.33c0-1.286.83-2.329 1.855-2.329s1.855 1.043 1.855 2.33M25.048 124.172c0 1.287-.83 2.33-1.855 2.33s-1.856-1.043-1.856-2.33c0-1.286.83-2.329 1.856-2.329 1.024 0 1.855 1.043 1.855 2.33M36.18 124.172c0 1.287-.83 2.33-1.856 2.33-1.024 0-1.854-1.043-1.854-2.33 0-1.286.83-2.329 1.854-2.329 1.026 0 1.857 1.043 1.857 2.33M46.385 124.172c0 1.287-.83 2.33-1.855 2.33s-1.855-1.043-1.855-2.33c0-1.286.83-2.329 1.855-2.329s1.855 1.043 1.855 2.33M3.71 134.887a1.86 1.86 0 0 1-1.855 1.864A1.86 1.86 0 0 1 0 134.887c0-1.029.83-1.863 1.855-1.863a1.86 1.86 0 0 1 1.856 1.863M14.843 134.887a1.86 1.86 0 0 1-1.855 1.864 1.86 1.86 0 0 1-1.855-1.864c0-1.029.83-1.863 1.855-1.863a1.86 1.86 0 0 1 1.855 1.863M25.048 134.887a1.86 1.86 0 0 1-1.855 1.864 1.86 1.86 0 0 1-1.856-1.864c0-1.029.83-1.863 1.856-1.863a1.86 1.86 0 0 1 1.855 1.863M36.18 134.887a1.86 1.86 0 0 1-1.856 1.864 1.859 1.859 0 0 1-1.854-1.864c0-1.029.83-1.863 1.854-1.863a1.86 1.86 0 0 1 1.857 1.863M46.385 134.887a1.86 1.86 0 0 1-1.855 1.864 1.86 1.86 0 0 1-1.855-1.864c0-1.029.83-1.863 1.855-1.863a1.86 1.86 0 0 1 1.855 1.863M3.71 145.137A1.86 1.86 0 0 1 1.856 147 1.86 1.86 0 0 1 0 145.137c0-1.03.83-1.864 1.855-1.864a1.86 1.86 0 0 1 1.856 1.864M14.843 145.137A1.86 1.86 0 0 1 12.988 147a1.86 1.86 0 0 1-1.855-1.863c0-1.03.83-1.864 1.855-1.864a1.86 1.86 0 0 1 1.855 1.864M25.048 145.137A1.86 1.86 0 0 1 23.193 147a1.86 1.86 0 0 1-1.856-1.863c0-1.03.83-1.864 1.856-1.864a1.86 1.86 0 0 1 1.855 1.864M36.18 145.137A1.86 1.86 0 0 1 34.325 147a1.859 1.859 0 0 1-1.854-1.863c0-1.03.83-1.864 1.854-1.864a1.86 1.86 0 0 1 1.857 1.864M46.385 145.137A1.86 1.86 0 0 1 44.53 147a1.86 1.86 0 0 1-1.855-1.863c0-1.03.83-1.864 1.855-1.864a1.86 1.86 0 0 1 1.855 1.864M57.518 92.028a1.86 1.86 0 0 1-1.856 1.863 1.86 1.86 0 0 1-1.855-1.863c0-1.03.83-1.864 1.855-1.864a1.86 1.86 0 0 1 1.856 1.864M57.518 102.277a1.86 1.86 0 0 1-1.856 1.863 1.86 1.86 0 0 1-1.855-1.863 1.86 1.86 0 0 1 1.855-1.864 1.86 1.86 0 0 1 1.856 1.864M57.518 113.924c0 1.286-.83 2.329-1.856 2.329-1.024 0-1.855-1.043-1.855-2.33 0-1.286.83-2.329 1.855-2.329 1.026 0 1.856 1.043 1.856 2.33M57.518 124.172c0 1.287-.83 2.33-1.856 2.33-1.024 0-1.855-1.043-1.855-2.33 0-1.286.83-2.329 1.855-2.329 1.026 0 1.856 1.043 1.856 2.33M57.518 134.887a1.86 1.86 0 0 1-1.856 1.864 1.86 1.86 0 0 1-1.855-1.864c0-1.029.83-1.863 1.855-1.863a1.86 1.86 0 0 1 1.856 1.863M57.518 145.137A1.86 1.86 0 0 1 55.662 147a1.86 1.86 0 0 1-1.855-1.863c0-1.03.83-1.864 1.855-1.864a1.86 1.86 0 0 1 1.856 1.864"/>
            </g>
            <g>
                <path d="M69.193 29.863a1.86 1.86 0 0 1-1.856 1.864 1.86 1.86 0 0 1-1.855-1.864c0-1.029.83-1.863 1.855-1.863a1.86 1.86 0 0 1 1.856 1.863M80.325 29.863a1.86 1.86 0 0 1-1.855 1.864 1.86 1.86 0 0 1-1.855-1.864c0-1.029.83-1.863 1.855-1.863a1.86 1.86 0 0 1 1.855 1.863M90.53 29.863a1.86 1.86 0 0 1-1.855 1.864 1.86 1.86 0 0 1-1.856-1.864c0-1.029.83-1.863 1.856-1.863a1.86 1.86 0 0 1 1.855 1.863M101.663 29.863a1.86 1.86 0 0 1-1.857 1.864 1.859 1.859 0 0 1-1.854-1.864c0-1.029.83-1.863 1.854-1.863a1.86 1.86 0 0 1 1.857 1.863M111.867 29.863a1.86 1.86 0 0 1-1.855 1.864 1.86 1.86 0 0 1-1.855-1.864c0-1.029.83-1.863 1.855-1.863a1.86 1.86 0 0 1 1.855 1.863M69.193 40.113a1.86 1.86 0 0 1-1.856 1.863 1.86 1.86 0 0 1-1.855-1.863 1.86 1.86 0 0 1 1.855-1.864 1.86 1.86 0 0 1 1.856 1.864M80.325 40.113a1.86 1.86 0 0 1-1.855 1.863 1.86 1.86 0 0 1-1.855-1.863 1.86 1.86 0 0 1 1.855-1.864 1.86 1.86 0 0 1 1.855 1.864M90.53 40.113a1.86 1.86 0 0 1-1.855 1.863 1.86 1.86 0 0 1-1.856-1.863 1.86 1.86 0 0 1 1.856-1.864 1.86 1.86 0 0 1 1.855 1.864M101.663 40.113a1.86 1.86 0 0 1-1.857 1.863 1.859 1.859 0 0 1-1.854-1.863c0-1.03.83-1.864 1.854-1.864a1.86 1.86 0 0 1 1.857 1.864M111.867 40.113a1.86 1.86 0 0 1-1.855 1.863 1.86 1.86 0 0 1-1.855-1.863 1.86 1.86 0 0 1 1.855-1.864 1.86 1.86 0 0 1 1.855 1.864M69.193 51.76c0 1.285-.83 2.329-1.856 2.329-1.024 0-1.855-1.044-1.855-2.33s.83-2.33 1.855-2.33 1.856 1.044 1.856 2.33M80.325 51.76c0 1.285-.83 2.329-1.855 2.329s-1.855-1.044-1.855-2.33.83-2.33 1.855-2.33 1.855 1.044 1.855 2.33M90.53 51.76c0 1.285-.83 2.329-1.855 2.329s-1.856-1.044-1.856-2.33.83-2.33 1.856-2.33c1.024 0 1.855 1.044 1.855 2.33M101.663 51.76c0 1.285-.831 2.329-1.857 2.329-1.024 0-1.854-1.044-1.854-2.33s.83-2.33 1.854-2.33c1.026 0 1.857 1.044 1.857 2.33M111.867 51.76c0 1.285-.83 2.329-1.855 2.329s-1.855-1.044-1.855-2.33.83-2.33 1.855-2.33 1.855 1.044 1.855 2.33M69.193 62.008c0 1.287-.83 2.33-1.856 2.33-1.024 0-1.855-1.043-1.855-2.33 0-1.286.83-2.329 1.855-2.329s1.856 1.043 1.856 2.33M80.325 62.008c0 1.287-.83 2.33-1.855 2.33s-1.855-1.043-1.855-2.33c0-1.286.83-2.329 1.855-2.329s1.855 1.043 1.855 2.33M90.53 62.008c0 1.287-.83 2.33-1.855 2.33s-1.856-1.043-1.856-2.33c0-1.286.83-2.329 1.856-2.329 1.024 0 1.855 1.043 1.855 2.33M101.663 62.008c0 1.287-.831 2.33-1.857 2.33-1.024 0-1.854-1.043-1.854-2.33 0-1.286.83-2.329 1.854-2.329 1.026 0 1.857 1.043 1.857 2.33M111.867 62.008c0 1.287-.83 2.33-1.855 2.33s-1.855-1.043-1.855-2.33c0-1.286.83-2.329 1.855-2.329s1.855 1.043 1.855 2.33M69.193 72.723a1.86 1.86 0 0 1-1.856 1.864 1.86 1.86 0 0 1-1.855-1.864c0-1.029.83-1.863 1.855-1.863a1.86 1.86 0 0 1 1.856 1.863M80.325 72.723a1.86 1.86 0 0 1-1.855 1.864 1.86 1.86 0 0 1-1.855-1.864c0-1.029.83-1.863 1.855-1.863a1.86 1.86 0 0 1 1.855 1.863M90.53 72.723a1.86 1.86 0 0 1-1.855 1.864 1.86 1.86 0 0 1-1.856-1.864c0-1.029.83-1.863 1.856-1.863a1.86 1.86 0 0 1 1.855 1.863M101.663 72.723a1.86 1.86 0 0 1-1.857 1.864 1.859 1.859 0 0 1-1.854-1.864c0-1.029.83-1.863 1.854-1.863a1.86 1.86 0 0 1 1.857 1.863M111.867 72.723a1.86 1.86 0 0 1-1.855 1.864 1.86 1.86 0 0 1-1.855-1.864c0-1.029.83-1.863 1.855-1.863a1.86 1.86 0 0 1 1.855 1.863M69.193 82.972a1.86 1.86 0 0 1-1.856 1.864 1.86 1.86 0 0 1-1.855-1.864c0-1.029.83-1.863 1.855-1.863a1.86 1.86 0 0 1 1.856 1.863M80.325 82.972a1.86 1.86 0 0 1-1.855 1.864 1.86 1.86 0 0 1-1.855-1.864c0-1.029.83-1.863 1.855-1.863a1.86 1.86 0 0 1 1.855 1.863M90.53 82.972a1.86 1.86 0 0 1-1.855 1.864 1.86 1.86 0 0 1-1.856-1.864c0-1.029.83-1.863 1.856-1.863a1.86 1.86 0 0 1 1.855 1.863M101.663 82.972a1.86 1.86 0 0 1-1.857 1.864 1.859 1.859 0 0 1-1.854-1.864c0-1.029.83-1.863 1.854-1.863a1.86 1.86 0 0 1 1.857 1.863M111.867 82.972a1.86 1.86 0 0 1-1.855 1.864 1.86 1.86 0 0 1-1.855-1.864c0-1.029.83-1.863 1.855-1.863a1.86 1.86 0 0 1 1.855 1.863M123 29.863a1.86 1.86 0 0 1-1.856 1.864 1.86 1.86 0 0 1-1.855-1.864c0-1.029.83-1.863 1.855-1.863A1.86 1.86 0 0 1 123 29.863M123 40.113a1.86 1.86 0 0 1-1.856 1.863 1.86 1.86 0 0 1-1.855-1.863 1.86 1.86 0 0 1 1.855-1.864A1.86 1.86 0 0 1 123 40.113M123 51.76c0 1.285-.83 2.329-1.856 2.329-1.024 0-1.855-1.044-1.855-2.33s.83-2.33 1.855-2.33c1.026 0 1.856 1.044 1.856 2.33M123 62.008c0 1.287-.83 2.33-1.856 2.33-1.024 0-1.855-1.043-1.855-2.33 0-1.286.83-2.329 1.855-2.329 1.026 0 1.856 1.043 1.856 2.33M123 72.723a1.86 1.86 0 0 1-1.856 1.864 1.86 1.86 0 0 1-1.855-1.864c0-1.029.83-1.863 1.855-1.863A1.86 1.86 0 0 1 123 72.723M123 82.972a1.86 1.86 0 0 1-1.856 1.864 1.86 1.86 0 0 1-1.855-1.864c0-1.029.83-1.863 1.855-1.863A1.86 1.86 0 0 1 123 82.972"/>
            </g>
            <g>
                <path d="M69.193 92.028a1.86 1.86 0 0 1-1.856 1.863 1.86 1.86 0 0 1-1.855-1.863c0-1.03.83-1.864 1.855-1.864a1.86 1.86 0 0 1 1.856 1.864M80.325 92.028a1.86 1.86 0 0 1-1.855 1.863 1.86 1.86 0 0 1-1.855-1.863c0-1.03.83-1.864 1.855-1.864a1.86 1.86 0 0 1 1.855 1.864M90.53 92.028a1.86 1.86 0 0 1-1.855 1.863 1.86 1.86 0 0 1-1.856-1.863c0-1.03.83-1.864 1.856-1.864a1.86 1.86 0 0 1 1.855 1.864M101.663 92.028a1.86 1.86 0 0 1-1.857 1.863 1.859 1.859 0 0 1-1.854-1.863c0-1.03.83-1.864 1.854-1.864a1.86 1.86 0 0 1 1.857 1.864M111.867 92.028a1.86 1.86 0 0 1-1.855 1.863 1.86 1.86 0 0 1-1.855-1.863c0-1.03.83-1.864 1.855-1.864a1.86 1.86 0 0 1 1.855 1.864M69.193 102.277a1.86 1.86 0 0 1-1.856 1.863 1.86 1.86 0 0 1-1.855-1.863 1.86 1.86 0 0 1 1.855-1.864 1.86 1.86 0 0 1 1.856 1.864M80.325 102.277a1.86 1.86 0 0 1-1.855 1.863 1.86 1.86 0 0 1-1.855-1.863 1.86 1.86 0 0 1 1.855-1.864 1.86 1.86 0 0 1 1.855 1.864M90.53 102.277a1.86 1.86 0 0 1-1.855 1.863 1.86 1.86 0 0 1-1.856-1.863 1.86 1.86 0 0 1 1.856-1.864 1.86 1.86 0 0 1 1.855 1.864M101.663 102.277a1.86 1.86 0 0 1-1.857 1.863 1.859 1.859 0 0 1-1.854-1.863c0-1.03.83-1.864 1.854-1.864a1.86 1.86 0 0 1 1.857 1.864M111.867 102.277a1.86 1.86 0 0 1-1.855 1.863 1.86 1.86 0 0 1-1.855-1.863 1.86 1.86 0 0 1 1.855-1.864 1.86 1.86 0 0 1 1.855 1.864M69.193 113.924c0 1.286-.83 2.329-1.856 2.329-1.024 0-1.855-1.043-1.855-2.33 0-1.286.83-2.329 1.855-2.329s1.856 1.043 1.856 2.33M80.325 113.924c0 1.286-.83 2.329-1.855 2.329s-1.855-1.043-1.855-2.33c0-1.286.83-2.329 1.855-2.329s1.855 1.043 1.855 2.33M90.53 113.924c0 1.286-.83 2.329-1.855 2.329s-1.856-1.043-1.856-2.33c0-1.286.83-2.329 1.856-2.329 1.024 0 1.855 1.043 1.855 2.33M101.663 113.924c0 1.286-.831 2.329-1.857 2.329-1.024 0-1.854-1.043-1.854-2.33 0-1.286.83-2.329 1.854-2.329 1.026 0 1.857 1.043 1.857 2.33M111.867 113.924c0 1.286-.83 2.329-1.855 2.329s-1.855-1.043-1.855-2.33c0-1.286.83-2.329 1.855-2.329s1.855 1.043 1.855 2.33M69.193 124.172c0 1.287-.83 2.33-1.856 2.33-1.024 0-1.855-1.043-1.855-2.33 0-1.286.83-2.329 1.855-2.329s1.856 1.043 1.856 2.33M80.325 124.172c0 1.287-.83 2.33-1.855 2.33s-1.855-1.043-1.855-2.33c0-1.286.83-2.329 1.855-2.329s1.855 1.043 1.855 2.33M90.53 124.172c0 1.287-.83 2.33-1.855 2.33s-1.856-1.043-1.856-2.33c0-1.286.83-2.329 1.856-2.329 1.024 0 1.855 1.043 1.855 2.33M101.663 124.172c0 1.287-.831 2.33-1.857 2.33-1.024 0-1.854-1.043-1.854-2.33 0-1.286.83-2.329 1.854-2.329 1.026 0 1.857 1.043 1.857 2.33M111.867 124.172c0 1.287-.83 2.33-1.855 2.33s-1.855-1.043-1.855-2.33c0-1.286.83-2.329 1.855-2.329s1.855 1.043 1.855 2.33M69.193 134.887a1.86 1.86 0 0 1-1.856 1.864 1.86 1.86 0 0 1-1.855-1.864c0-1.029.83-1.863 1.855-1.863a1.86 1.86 0 0 1 1.856 1.863M80.325 134.887a1.86 1.86 0 0 1-1.855 1.864 1.86 1.86 0 0 1-1.855-1.864c0-1.029.83-1.863 1.855-1.863a1.86 1.86 0 0 1 1.855 1.863M90.53 134.887a1.86 1.86 0 0 1-1.855 1.864 1.86 1.86 0 0 1-1.856-1.864c0-1.029.83-1.863 1.856-1.863a1.86 1.86 0 0 1 1.855 1.863M101.663 134.887a1.86 1.86 0 0 1-1.857 1.864 1.859 1.859 0 0 1-1.854-1.864c0-1.029.83-1.863 1.854-1.863a1.86 1.86 0 0 1 1.857 1.863M111.867 134.887a1.86 1.86 0 0 1-1.855 1.864 1.86 1.86 0 0 1-1.855-1.864c0-1.029.83-1.863 1.855-1.863a1.86 1.86 0 0 1 1.855 1.863M69.193 145.137A1.86 1.86 0 0 1 67.337 147a1.86 1.86 0 0 1-1.855-1.863c0-1.03.83-1.864 1.855-1.864a1.86 1.86 0 0 1 1.856 1.864M80.325 145.137A1.86 1.86 0 0 1 78.47 147a1.86 1.86 0 0 1-1.855-1.863c0-1.03.83-1.864 1.855-1.864a1.86 1.86 0 0 1 1.855 1.864M90.53 145.137A1.86 1.86 0 0 1 88.675 147a1.86 1.86 0 0 1-1.856-1.863c0-1.03.83-1.864 1.856-1.864a1.86 1.86 0 0 1 1.855 1.864M101.663 145.137A1.86 1.86 0 0 1 99.806 147a1.859 1.859 0 0 1-1.854-1.863c0-1.03.83-1.864 1.854-1.864a1.86 1.86 0 0 1 1.857 1.864M111.867 145.137a1.86 1.86 0 0 1-1.855 1.863 1.86 1.86 0 0 1-1.855-1.863c0-1.03.83-1.864 1.855-1.864a1.86 1.86 0 0 1 1.855 1.864M123 92.028a1.86 1.86 0 0 1-1.856 1.863 1.86 1.86 0 0 1-1.855-1.863c0-1.03.83-1.864 1.855-1.864A1.86 1.86 0 0 1 123 92.028M123 102.277a1.86 1.86 0 0 1-1.856 1.863 1.86 1.86 0 0 1-1.855-1.863 1.86 1.86 0 0 1 1.855-1.864 1.86 1.86 0 0 1 1.856 1.864M123 113.924c0 1.286-.83 2.329-1.856 2.329-1.024 0-1.855-1.043-1.855-2.33 0-1.286.83-2.329 1.855-2.329 1.026 0 1.856 1.043 1.856 2.33M123 124.172c0 1.287-.83 2.33-1.856 2.33-1.024 0-1.855-1.043-1.855-2.33 0-1.286.83-2.329 1.855-2.329 1.026 0 1.856 1.043 1.856 2.33M123 134.887a1.86 1.86 0 0 1-1.856 1.864 1.86 1.86 0 0 1-1.855-1.864c0-1.029.83-1.863 1.855-1.863a1.86 1.86 0 0 1 1.856 1.863M123 145.137a1.86 1.86 0 0 1-1.856 1.863 1.86 1.86 0 0 1-1.855-1.863c0-1.03.83-1.864 1.855-1.864a1.86 1.86 0 0 1 1.856 1.864"/>
            </g>
        </g>
    </g>
</svg>
