<?xml version="1.0" encoding="UTF-8"?>
<svg width="294px" height="243px" viewBox="0 0 294 243" version="1.1" xmlns="http://www.w3.org/2000/svg" xmlns:xlink="http://www.w3.org/1999/xlink">
    <title>home-loan</title>
    <g id="Page-1" stroke="none" stroke-width="1" fill="none" fill-rule="evenodd">
        <g id="home-loan">
            <path d="M106.62379,126.396964 C106.62379,126.396964 -9.0203166,91.0848206 59.9379358,16.8217412 C103.193242,-29.7611287 137.388085,36.1903468 167.764716,26.7991876 C207.642414,14.4706423 245.129598,6.56232325 269.118185,71.4914393 C293.106772,136.420555 239.339153,193.452281 186.951169,172.643945 C134.563186,151.835487 106.62379,126.396964 106.62379,126.396964" id="Fill-1" fill="#1499B2" opacity="0.0480580351"></path>
            <polygon id="Fill-3" fill="#CCD2FF" points="76.9723646 188 58 200.9223 85.744566 208 103 195.426072"></polygon>
            <polygon id="Fill-5" fill="#1A3482" points="36 121 51 116.37904 46.3333083 111"></polygon>
            <path d="M146,205.734732 L185.460399,222 L235.16449,210.496651 L291.770072,166.706119 C295.61313,163.732996 294.249283,157.59799 289.513422,156.555047 L196.176473,136 L146,205.734732 Z" id="Fill-7" fill="#E0DCF2"></path>
            <polygon id="Fill-9" fill="#CCD2FF" points="45 177.061177 45.0686919 113.033305 78.2810617 88.2268633 90.5668786 84 142 115.60465 141.912696 203 123.346771 198.024626 123.346771 198.057085"></polygon>
            <polygon id="Fill-11" fill="#B8AFDB" points="141.086346 116.498561 154.079933 107.74256 154.080176 107.513567 155.181812 107 199 109.290906 199 166.171719 163.886487 187.656582 163.886608 187.577217 141 203"></polygon>
            <polygon id="Fill-13" fill="#26459E" points="145.160837 46 202 104.718387 141.497156 145 85 84.9078624"></polygon>
            <polygon id="Fill-15" fill="#4363CC" points="85.6119748 84.3504029 36 114 127.228225 53.0688979 146 45"></polygon>
            <polygon id="Fill-17" fill="#1A3482" points="203 104 203 109.56639 143 150 143.11673 143.922768"></polygon>
            <polygon id="Fill-19" fill="#3B57B3" points="142.862979 150 85 88.4655909 86.5733129 84 143 143.882916"></polygon>
            <polygon id="Fill-21" fill="#3B57B3" points="87 89.2399753 37 121 37.0713272 114.09786 86.1998056 84"></polygon>
            <polygon id="Fill-23" fill="#3B57B3" points="140.995101 206 141 201.18929 44.003552 177 44 180.505295"></polygon>
            <polygon id="Fill-25" fill="#183078" points="141 206 141.004851 201.097217 198.980112 162 199 166.4966"></polygon>
            <polygon id="Fill-27" fill="#B8AFDB" points="76.6118114 188.759348 100.027201 197 101.993208 195.57396 102 147.334772 75.7739347 140 74 141.067862"></polygon>
            <path d="M134.822108,109.682865 L167.248558,89.1463825 C168.528331,88.3358424 168.13308,87.1194233 166.370098,86.4432424 C164.607116,85.7670615 162.117588,85.8770581 160.837691,86.6875982 L129.930145,106.262006 C128.650372,107.072546 127.319878,108.611038 128.392438,110.474159 L128.670042,110.770163 C130.433024,111.446344 133.542335,110.493405 134.822108,109.682865" id="Fill-29" fill="#6F8BE8"></path>
            <path d="M135.10185,110.322923 L167.254894,90.0985624 C168.523876,89.3003413 168.131958,88.1025298 166.38384,87.4365058 L166.38384,87.4365058 C164.635723,86.7706018 162.167186,86.8789266 160.898204,87.6771478 L128.74516,107.901388 C127.476054,108.699609 127.868096,109.897541 129.616213,110.563445 L129.616213,110.563445 C131.36433,111.229349 133.832867,111.121144 135.10185,110.322923" id="Fill-31" fill="#172E73"></path>
            <path d="M251,100 C250.93911,94.9237822 248.309742,90.3941469 244.49967,89.3065149 C243.897418,89.1346252 243.297221,89.0607692 242.706567,89.0711138 C241.466062,84.7474094 238.696671,81.3307868 235.106479,80.3060646 C231.436429,79.2583677 227.815671,80.9682428 225.404853,84.3983375 C224.685292,83.8418914 223.891794,83.4238952 223.038372,83.1803147 C219.22818,82.0926826 215.294396,86.7393567 217.776132,90.5161176 L251,100 Z" id="Fill-33" fill="#FFFCFA"></path>
            <path d="M89,53 C88.9534442,49.1928572 86.9427777,45.7955994 84.0292747,44.9799295 C83.5686565,44.8510189 83.1096436,44.7955476 82.6580402,44.8033859 C81.7093889,41.5606037 79.5915329,38.9981896 76.8461001,38.2295497 C74.0396631,37.4437861 71.2707671,38.7261388 69.4273062,41.2986825 C68.8770341,40.881321 68.2702036,40.5679079 67.6175582,40.3850937 C64.7039317,39.5694238 61.6957118,43.0543504 63.5935083,45.8868859 L89,53 Z" id="Fill-35" fill="#FFFCFA"></path>
            <path d="M193,50 C192.958903,46.4466959 191.180235,43.2759576 188.602828,42.514562 C188.19536,42.3942629 187.789343,42.3425817 187.389852,42.3498046 C186.550621,39.3232757 184.677308,36.9316167 182.248577,36.2141813 C179.765936,35.4809302 177.316535,36.6778182 175.685697,39.0789417 C175.198935,38.689402 174.662131,38.3967491 174.084835,38.2262632 C171.507428,37.4649922 168.846255,40.7175487 170.52496,43.3613873 L193,50 Z" id="Fill-37" fill="#FFFCFA"></path>
            <path d="M135.301155,100.654415 C134.418785,100.416769 128.590605,97.1233456 127.903156,96.3661436 C125.487173,94.3788665 124.013746,90.9192723 124,86.311358 C123.970299,76.2009402 130.964921,64.4155109 139.622906,59.9877964 C143.658448,57.9240855 146.961787,57.3588145 149.965859,58.8069435 C151.633377,59.5076668 156.159071,61.7110628 156.159071,61.7110628 C157.010221,62.4573802 155.446812,62.9787502 156.024098,64.091756 C157.271739,66.0767353 157.990408,68.722286 158,71.9270607 C158.029701,82.0374785 151.035079,93.8229078 142.377094,98.2506223 C138.730802,100.115267 137.971296,101.730776 135.301155,100.654415" id="Fill-39" fill="#E69357"></path>
            <path d="M146.439077,100.422335 C155.551751,96.0198294 162.966196,83.7552915 163,73.0287058 C163.033452,62.3019964 155.673475,57.1752831 146.560801,61.577665 C137.448249,65.9800469 130.033681,78.2447085 130,88.9712942 C129.966426,99.6980036 137.326403,104.824717 146.439077,100.422335" id="Fill-41" fill="#FFFFFF"></path>
            <path d="M147.439077,100.422285 C156.551751,96.0197851 163.966196,83.7552623 164,73.0286898 C164.033452,62.3019936 156.673475,57.1752865 147.560801,61.577663 C138.448249,65.9801632 131.033681,78.244686 131,88.9712585 C130.966426,99.6979547 138.326403,104.824785 147.439077,100.422285" id="Fill-43" fill="#FFB575"></path>
            <path d="M147.457526,94.9106446 C153.808717,91.8708916 158.976385,83.4024322 159,75.996042 C159.023333,68.5895297 153.893666,65.0495842 147.542474,68.0893372 C141.191283,71.1290903 136.023615,79.5975496 136,87.004062 C135.976667,94.4105743 141.106334,97.9503977 147.457526,94.9106446" id="Fill-45" fill="#FFFFFF"></path>
            <path d="M157.883486,75.8845543 C157.859334,83.1408429 152.528434,91.4374198 145.97678,94.4155186 C143.365198,95.6027611 140.954293,95.7645545 139,95.0714279 C141.113494,96.3064186 143.958883,96.3579963 147.093212,94.9332095 C153.644992,91.954991 158.975765,83.6584141 159,76.4021255 C159.014459,72.0383719 157.106068,69.0456734 154.157748,68 C156.461929,69.3464032 157.896131,72.0997624 157.883486,75.8845543" id="Fill-47" fill="#E69357"></path>
            <path d="M147.251279,74.2225111 C148.49951,73.7724136 149.988574,73.6314177 151,74.1044162 L149.694614,76.9622134 C148.601106,76.6413518 147.66358,76.6486553 146.650517,77.1415839 C145.468381,77.7168322 144.951463,78.4845728 144.972487,79.5071952 C145.019697,81.7965525 150.590344,79.04051 150.672678,83.0413765 C150.717496,85.2196949 149.52428,87.3268344 147.549394,88.7145112 L147.596479,91.0037446 L145.54933,92 L145.503253,89.7553307 C144.148391,90.2123604 143.162899,89.9736948 142.3208,89.4630644 L143.844233,86.8360103 C144.619105,87.1997029 145.281177,87.2589979 146.167465,86.8277164 C147.180528,86.3346641 147.720483,85.6455297 147.699963,84.6451892 C147.65653,82.5338409 142.088527,85.4229567 142.001283,81.1776065 C141.957346,79.0438523 143.042168,76.8545168 145.206019,75.3076471 L145.158432,72.9961316 L147.20558,72 L147.251279,74.2225111 Z" id="Fill-49" fill="#FFB575"></path>
            <line x1="132" y1="75" x2="127" y2="73" id="Stroke-51" stroke="#FFB575" stroke-width="4.333" stroke-linecap="round" stroke-linejoin="round"></line>
            <line x1="130" y1="80" x2="125" y2="78" id="Stroke-53" stroke="#FFB575" stroke-width="4.333" stroke-linecap="round" stroke-linejoin="round"></line>
            <line x1="129" y1="87" x2="124" y2="85" id="Stroke-55" stroke="#FFB575" stroke-width="4.333" stroke-linecap="round" stroke-linejoin="round"></line>
            <line x1="128" y1="92" x2="124" y2="90" id="Stroke-57" stroke="#FFB575" stroke-width="4.333" stroke-linecap="round" stroke-linejoin="round"></line>
            <line x1="130" y1="96" x2="126" y2="94" id="Stroke-59" stroke="#FFB575" stroke-width="4.333" stroke-linecap="round" stroke-linejoin="round"></line>
            <line x1="135" y1="70" x2="130" y2="68" id="Stroke-61" stroke="#FFB575" stroke-width="4.333" stroke-linecap="round" stroke-linejoin="round"></line>
            <line x1="140" y1="66" x2="135" y2="64" id="Stroke-63" stroke="#FFB575" stroke-width="4.333" stroke-linecap="round" stroke-linejoin="round"></line>
            <line x1="144" y1="63" x2="140" y2="61" id="Stroke-65" stroke="#FFB575" stroke-width="4.333" stroke-linecap="round" stroke-linejoin="round"></line>
            <line x1="149" y1="60" x2="144" y2="58" id="Stroke-67" stroke="#FFB575" stroke-width="4.333" stroke-linecap="round" stroke-linejoin="round"></line>
            <path d="M57.5086179,84.4046212 C46.6089333,80.2434143 36.6088276,85.6409403 35.1728297,96.4602483 C33.7367094,107.279677 41.4085798,119.423838 52.3082643,123.585166 C63.2079489,127.746373 73.1050288,122.417613 74.7484242,111.679319 C76.5549233,99.875225 68.4083024,88.5658282 57.5086179,84.4046212" id="Fill-69" fill="#4A70D6"></path>
            <path d="M49.3832013,89.3377596 C39.0284494,85.3746586 29.5283829,90.5151604 28.1641666,100.819272 C26.7999502,111.123504 34.0882141,122.68942 44.4428436,126.652521 C54.7975955,130.615622 64.1997459,125.540552 65.7610184,115.313669 C67.4771208,104.071627 59.7379532,93.3008606 49.3832013,89.3377596" id="Fill-71" fill="#1A3482"></path>
            <path d="M44.3832013,94.3377613 C34.0285718,90.3746554 24.5283829,95.5151635 23.1641666,105.819288 C21.7999502,116.123533 29.0882141,127.689464 39.4428436,131.65257 C49.7975955,135.615554 59.1997459,130.540599 60.7610184,120.313703 C62.4771208,109.071647 54.7379532,98.3008672 44.3832013,94.3377613" id="Fill-73" fill="#51DEA0"></path>
            <polyline id="Stroke-75" stroke="#FFFFFF" stroke-width="5" stroke-linecap="round" stroke-linejoin="round" points="32 109.761119 39.5113039 121 48 105"></polyline>
            <polygon id="Fill-77" fill="#FFFFFF" points="74 190.350459 100.568108 197 101 148.183331 74.0454112 141"></polygon>
            <polygon id="Fill-79" fill="#B8AFDB" points="77 188.111403 96.951192 193 97 150.281674 77 145"></polygon>
            <polygon id="Fill-81" fill="#142B6B" points="95 152.892486 80.0137791 149 80 163.107393 94.9862209 167"></polygon>
            <path d="M80.4986367,171.984042 L80.4986367,171.984042 C80.224138,171.897033 79.9997596,171.477006 80,171.050703 L80.0018446,167.632892 C80.0020852,167.206589 80.2268646,166.92895 80.5013633,167.015958 C80.775862,167.102967 81.0002404,167.522994 81,167.949297 L80.9981554,171.367108 C80.9979148,171.793411 80.7731354,172.07105 80.4986367,171.984042" id="Fill-83" fill="#142B6B"></path>
            <polygon id="Fill-85" fill="#958CBA" points="165.023966 145.288821 165 168.051111 167.416848 169 179.55906 158.76229 182 136.948889 179.583026 136"></polygon>
            <polygon id="Fill-87" fill="#FFFFFF" points="167 170 167.024652 146.563821 182 137 181.975219 160.436179"></polygon>
            <polygon id="Fill-89" fill="#223B82" points="169 165 169.018054 147.955433 180 141 179.981821 158.044567"></polygon>
            <polygon id="Fill-91" fill="#958CBA" points="127 153.875771 126.949359 176.609622 125.210729 178 110.880589 171.564914 108 150.015816 109.626576 149"></polygon>
            <polygon id="Fill-93" fill="#FFFFFF" points="125 178 124.971993 154.656321 108 150 108.028007 173.343679"></polygon>
            <polygon id="Fill-95" fill="#223B82" points="123 174 122.978568 156.492225 110 153 110.021432 170.507775"></polygon>
            <polygon id="Fill-97" fill="#958CBA" points="70 138.875771 69.9493591 161.609622 68.210729 163 53.8805888 156.564914 51 135.015816 52.6265762 134"></polygon>
            <polygon id="Fill-99" fill="#FFFFFF" points="68 163 67.9719932 139.656321 51 135 51.0280068 158.343679"></polygon>
            <polygon id="Fill-101" fill="#223B82" points="66 159 65.9785681 141.492225 53 138 53.0214319 155.507775"></polygon>
            <polygon id="Fill-103" fill="#ACACD1" points="5.75699143 147 2 161.910114 5.16820919 168 10 158.706429"></polygon>
            <path d="M1.69458384,183 L1.69458384,183 C2.93442766,183.00366 3.97175785,182.198318 4,181.210508 L3.1836546,177.536958 C3.21189675,176.547375 3.09705426,177.241666 1.85520271,177.237994 L1.85506886,177.237994 C0.615358893,177.234322 0.486328402,176.292603 0.0134396833,178.181232 L5.47776306e-05,180.975743 C-0.00181910917,181.33916 0.0442249665,181.702577 0.162815231,182.044847 C0.383130779,182.680763 0.718824214,182.997075 1.69458384,183" id="Fill-105" fill="#ED5353"></path>
            <path d="M1.11483822,168.582242 L0,179.687745 L3.98223006,180 L5.80399405,170.307229 C6.13546886,169.440731 6.04273921,168.471684 5.55446922,167.699238 L2.58405805,163 L1.11483822,168.582242 Z" id="Fill-107" fill="#ACACD1"></path>
            <path d="M5.65762574,218.713948 C9.13215626,216.674684 14.6877467,216.418721 18.0664557,218.142153 C19.1840911,218.712234 19.9211053,219.427902 20.2845246,220.203703 C23.5156854,218.462469 28.3278411,218.171824 31.6273247,219.468782 C32.5485925,219.305261 33.5184374,219.193962 34.5222014,219.145169 C40.737519,218.843315 45.8751772,221.022231 45.9977707,224.012027 C46.1202429,227.001824 41.1812539,229.670248 34.9660575,229.972103 C31.3547602,230.147492 28.1096684,229.484177 25.9983235,228.312101 C23.7436704,228.419709 21.4990718,228.05416 19.8029941,227.189081 C18.6853587,226.619 17.9483444,225.903332 17.5849251,225.127531 C14.0975538,227.006835 8.76473938,227.200027 5.48403247,225.526574 C2.1053235,223.803275 2.18309522,220.753081 5.65762574,218.713948" id="Fill-109" fill="#ECEAF5"></path>
            <path d="M20.822813,148 C20.822813,148 38.4369179,154.036447 42,160.75197 L38.6930271,164 L18,157.358748 L20.822813,148 Z" id="Fill-111" fill="#C5C5E0"></path>
            <path d="M16.888664,145 C16.888664,145 19.7813933,145.529198 19.9272633,146.705662 C20.073014,147.882127 19.9546735,149 19.9546735,149 L11,148.520642 L11.5047052,145.223287 L16.888664,145 Z" id="Fill-113" fill="#27427A"></path>
            <path d="M7.37985563,219.673079 L11.5995269,216.257325 C12.246325,215.994637 13.0342327,215.902627 13.9538061,216.126096 C14.3665928,216.226502 14.4247937,215.903317 14.4120554,216.30448 L14.8833724,217.974001 C15.3151568,219.084561 14.4960623,219.817305 13.2819706,220.282185 L9.15234597,221.790228 C8.29877014,222.136875 7.06403367,222.044175 6.40867017,221.584011 L6.22297652,221.453702 C5.5675032,220.993537 6.47917006,220.255617 7.37985563,219.673079" id="Fill-115" fill="#27427A"></path>
            <path d="M15,215.874787 C15.0002155,217.374721 12.0007543,217.375246 12.0005388,215.875311 L12,211.000524 L14.9994612,211 L15,215.874787 Z" id="Fill-117" fill="#596FFF"></path>
            <path d="M15.8813244,214.112925 C14.5805956,215.254181 13.2258493,215.290582 11.8181331,214.24326 C11.8181331,214.24326 8.02642669,186.373443 8,171.944862 L18,168 C17.2024261,176.896003 15.2176302,191.543478 15.2176302,191.543478 C18.5643903,198.626029 16.391115,207.768043 15.8813244,214.112925" id="Fill-119" fill="#27427A"></path>
            <path d="M18,168 L14.8940797,169.106214 C14.342366,174.378321 13.4047491,181.282265 12.7273235,186.065639 C12.2859783,189.182485 12.5318577,192.335122 13.2897389,195.396755 C14.8644246,201.758708 13.114516,208.988555 12.6440314,214.276175 C12.4307725,214.445112 12.2159665,214.586931 12,214.707496 C13.2573762,215.240326 14.4754271,215.046836 15.6535081,214.11359 C16.1553239,208.473559 18.1128183,200.623421 15.9384549,193.974288 C15.2904266,191.992606 15.1652305,189.891215 15.4608789,187.83563 C16.1704094,182.903719 17.3942624,174.099813 18,168" id="Fill-121" fill="#223A6B"></path>
            <path d="M23.9960603,218.616108 C24.1343411,220.036429 20.5874375,220.593723 20.4492847,219.173401 L20,214.557294 L23.5469036,214 L23.9960603,218.616108 Z" id="Fill-123" fill="#596FFF"></path>
            <path d="M23.9647548,216.807042 C22.3963139,218.073818 20.8813395,218.360108 19.4272831,217.529333 C19.4272831,217.529333 18.2131074,208.314315 16.2622952,198.534381 C14.7522884,190.964737 12.482376,183.401417 12,177.338137 L22.6866545,171 C22.5437719,176.419554 22.8682318,188.315282 23.0223569,193.417899 C23.0583063,194.610123 23.3707395,195.757957 23.921877,196.803509 C26.3223839,201.358114 23.9647548,216.807042 23.9647548,216.807042" id="Fill-125" fill="#27427A"></path>
            <path d="M6.08279542,171.960227 C6.1433167,167.000231 5.7859292,159.846931 5.10721738,153.658151 C4.60869674,147.588058 5.57042353,143.847924 14.0302999,144.004746 L16.2969154,144.622988 C22.89648,148.205811 24.6350005,146.928257 25,154.941084 L24.3783154,171.284169 C24.283478,179.054123 5.54833638,181.089874 6.08279542,171.960227" id="Fill-127" fill="#C5C5E0"></path>
            <path d="M25,155 L24.3422234,171.301215 C24.2837338,175.820851 17.5180882,178.395279 12,177.950399 C18.2937682,174.611177 22.2578558,166.14919 25,155" id="Fill-129" fill="#ACACD1"></path>
            <path d="M19.9817681,146.607289 C19.9817681,146.607289 20.4147148,148.688614 17.0610601,150.663887 C15.3310754,151.682772 14.5116722,153.272859 14.123654,154.573602 C13.8970898,155.333201 13.3984323,154.993837 13.2781827,154.214956 C12.9652454,152.188642 12.8646971,151.601448 12.3344455,150.120361 C11.476721,147.724399 12.5222079,144.035974 12.6692464,144.000359 C12.816405,143.964631 19.9817681,146.607289 19.9817681,146.607289" id="Fill-131" fill="#FFFFFF"></path>
            <path d="M15,145.629014 C15,145.629014 11.8081988,146.788398 12.6263638,149.610152 L12.79151,153 C12.79151,153 10.1923199,149.301085 11.2554261,145.631604 C12.3186506,141.962006 15,145.629014 15,145.629014" id="Fill-133" fill="#27427A"></path>
            <path d="M13,144.978736 C13,144.978736 13.6442498,145.830101 14.0352641,145.992147 C14.4262785,146.154193 19.6370749,143.798632 18.9350349,139.81887 C18.4904467,137.298316 13.2617924,138.13223 13.2617924,138.13223 L13,144.978736 Z" id="Fill-135" fill="#27427A"></path>
            <path d="M16.1076563,148.918292 L15.8556583,148.969015 C15.0047311,149.140208 14.1682893,148.58452 13.9969785,147.734059 L13.0310061,142.939108 C12.8596954,142.088767 13.415767,141.252901 14.2666942,141.081589 L14.5186922,141.030985 C15.3696194,140.859792 16.2060612,141.415481 16.377372,142.265821 L17.9834552,146.73705 C18.154766,147.587391 16.9587033,148.747099 16.1076563,148.918292" id="Fill-137" fill="#ED5353"></path>
            <path d="M13,145.811391 C13,145.811391 14.8494555,145.795058 16,144 C16,144 14.9193893,146.719366 13.2408712,147 L13,145.811391 Z" id="Fill-139" fill="#BA4141"></path>
            <path d="M17.4730063,145 C17.4730063,145 19.9835622,147.43745 15.6339888,149.703619 C15.6339888,149.703619 13.9752672,151.32602 14.0002801,153 C14.0002801,153 15.4470906,151.908558 16.286228,151.31143 C17.1253655,150.714302 23.4154044,146.926709 17.4730063,145" id="Fill-141" fill="#27427A"></path>
            <path d="M13.4393037,144.264532 C12.5680325,146.225418 10.9934662,146.577191 9.92249393,145.050455 C8.85141035,143.523605 8.68944541,140.696239 9.56060527,138.735468 C10.4318764,136.774582 12.0064428,136.422809 13.0775264,137.949545 C14.14861,139.476395 14.3105749,142.303647 13.4393037,144.264532" id="Fill-143" fill="#ED5353"></path>
            <path d="M16.5942667,143.647155 C15.6160719,145.730053 11.7087914,146.847296 10.5063878,145.225561 C9.30385926,143.603706 10.4948899,139.92623 11.4730848,137.843453 C12.4512797,135.760556 14.2190791,135.386895 15.4216077,137.008629 C16.6240113,138.630484 17.5724616,141.564258 16.5942667,143.647155" id="Fill-145" fill="#ED5353"></path>
            <path d="M15.3268955,138.82151 C15.3268955,138.82151 14.6402996,142.906225 17.8525579,144 C17.8525579,144 21.643058,142.073136 19.1520972,137.974161 C16.9565721,134.361086 13,136.812622 13,136.812622 L15.3268955,138.82151 Z" id="Fill-147" fill="#27427A"></path>
            <path d="M9.16170911,141 C9.16170911,141 9.71532331,138.994834 12,138.266585 L10.286585,137 C10.286585,137 8.45642486,137.349782 9.16170911,141" id="Fill-149" fill="#27427A"></path>
            <path d="M16.3731069,141 C15.6958077,139.96008 14.1371773,139.887343 11.8788717,140.581971 C11.5351694,140.687583 11.1682488,140.726343 10.8210578,140.633734 C9.19144939,140.198656 9.05069626,138.101767 9.05069626,138.101767 C8.76714488,136.689694 9.70393512,136.10914 11.0888496,135.820028 L14.6957387,135.067135 C16.7368996,134.629481 18.6000138,136.421557 18.8835652,137.83363 L18.9650095,138.067913 C19.2484406,139.479985 17.7580214,140.710888 16.3731069,141" id="Fill-151" fill="#27427A"></path>
            <path d="M17.9104949,143.41292 C17.6824367,143.915769 17.089941,144.138552 16.5870865,143.910496 C16.0842321,143.68244 15.861447,143.089951 16.0895051,142.586982 C16.3175633,142.084132 16.910059,141.861469 17.4129135,142.089525 C17.9157679,142.317581 18.138553,142.91007 17.9104949,143.41292" id="Fill-153" fill="#ED5353"></path>
            <path d="M21,218.475921 L21.1869204,221.363085 C21.2089669,221.703961 21.4814361,223.491435 21.6041158,223.794271 C21.9587582,224.669789 22.5497938,224.992322 23.1226858,225 C23.8824983,225.010049 25.4217435,223.337308 24.8909402,221.424145 C24.4283861,219.756452 23.9273297,218 23.9273297,218 C22.8506386,218.647036 21.8528507,218.912695 21,218.475921" id="Fill-155" fill="#27427A"></path>
            <path d="M11.1807217,143.988175 L11.1807217,143.988175 C10.6335087,143.910179 10.104767,143.467817 10,143 L11.9817711,143.282371 C12.0866825,143.750106 11.728079,144.066172 11.1807217,143.988175" id="Fill-157" fill="#FFFFFF"></path>
            <path d="M27.4785039,223.347869 L31.2569923,218.463737 C31.8608799,218.10575 33.0132724,217.920181 33.9653129,218.032804 C34.3926325,218.083271 34.6306992,218.348979 34.6807589,218.76811 L34.8252752,219.542755 C35.0270996,220.843535 35.2128415,221.265363 34.4158502,221.737771 L29.683396,224.542994 C28.7242204,225.369005 25.8785187,225.135218 27.4785039,223.347869" id="Fill-159" fill="#27427A"></path>
            <path d="M31.8309993,219.017581 C31.8309993,219.017581 29.7297799,221.718392 30.0292117,221.886964 C31.2719421,222.586229 34,219.812576 34,219.812576 C34,219.812576 32.3428419,218.860086 31.8309993,219.017581" id="Fill-161" fill="#E34F4F"></path>
            <path d="M33.2825812,219.342337 C32.8089207,220.610085 30.9358302,219.876217 30.6749754,218.569362 C29.8026723,211.23105 27.6134941,205.519253 26.7941863,198.659503 C25.8743052,190.957474 26.3940127,190.806864 25,179 L31.9337911,179.906012 C31.711093,188.438314 32.4856492,199.179646 32.4856492,199.179646 C35.2854513,207.34786 33.3605432,209.181664 33.2825812,219.342337" id="Fill-163" fill="#E34F4F"></path>
            <path d="M29,199 C29,199 30.1107091,206.279632 32.1700239,207.836645 C34.2293387,209.39354 31.8079815,199.309022 31.8079815,199.309022 L29,199 Z" id="Fill-165" fill="#BA4141"></path>
            <path d="M24.7072286,143 C24.7072286,143 21.9311406,152.607676 27.379148,152.985936 C32.8271554,153.364316 33,145.982228 33,145.982228 L24.7072286,143 Z" id="Fill-167" fill="#27427A"></path>
            <path d="M22.146524,180.982002 L22.146524,180.982002 C23.076868,181.108215 23.9109773,180.556958 24,179.756917 L23.6396269,176.690621 C23.728875,175.889244 23.5950029,176.442081 22.6630812,176.315625 L22.6629685,176.315625 C21.7326245,176.189411 21.7005087,175.411358 21.2158419,176.899074 L21.0135687,179.168609 C20.9873126,179.463796 20.996891,179.763598 21.0623622,180.053561 C21.1840641,180.592186 21.4142837,180.882635 22.146524,180.982002" id="Fill-169" fill="#ED5353"></path>
            <path d="M23.7161784,155.268768 L22.4358779,164.527991 C22.4358779,164.527991 21.5294645,167.971965 22.330827,176.589 L24.4784964,177 L26,165.674171 L25.98926,153.093978 C24.93629,152.620982 23.8641894,154.024531 23.7161784,155.268768" id="Fill-171" fill="#ED5353"></path>
            <path d="M36.0155384,226.376373 L36.1973964,221.171605 C36.4281702,220.766885 37.105708,220.497185 37.7922681,220.542908 C38.1004374,220.563507 37.7556356,220.387856 37.9889095,220.807855 L38.8027592,220 C39.557584,221.299834 39.9372791,221.468241 40,222.668479 C39.5843246,224.811253 38.9127654,226.344797 38.051413,227.42654 C37.8078124,228.329576 35.8045484,228.296529 36.0155384,226.376373" id="Fill-173" fill="#27427A"></path>
            <path d="M36,221.072593 C36,221.072593 36.3882956,224.008615 36.6468176,224 C37.9362666,223.957168 38,221.282283 38,221.282283 C38,221.282283 36.1941051,220.827303 36,221.072593" id="Fill-175" fill="#ED5353"></path>
            <path d="M37.5885258,221.15654 C37.1020229,222.527827 35.0500448,222.102576 34.7631637,220.773788 C33.7748301,213.245521 32.1473202,208.770343 31.2193317,201.733494 C30.1775322,193.832637 33.2722753,193.113476 31.6921967,181 L39,181.156496 C38.8470853,190.049607 36.8392799,201.321749 36.8392799,201.321749 C39.864626,209.494212 37.5736809,210.587327 37.5885258,221.15654" id="Fill-177" fill="#ED5353"></path>
            <path d="M25.6131313,170.000715 C25.6131313,170.000715 23.9970287,169.482674 26.0123742,196.336174 C26.0123742,196.336174 27.8763,197.818975 32.8611478,198.828549 C37.5599112,199.780232 36.5887492,196.41035 40.4051269,197.488156 C40.4051269,197.488156 41.5849755,190.485448 41.7835342,188.065704 C41.9822179,185.64596 42.8743565,171.515135 38.6923708,171.23341 C34.5102601,170.951685 25.6131313,170.000715 25.6131313,170.000715" id="Fill-179" fill="#AEAECF"></path>
            <path d="M39.5328618,197.555709 C39.5328618,197.555709 40.6182507,190.551306 40.8009889,188.128961 C40.9836121,185.706735 41.8041515,171.560605 37.9577942,171.278696 C37.0802139,171.214317 35.9759646,171.114953 34.7955839,171 C35.1634753,173.331072 35.8645276,177.14761 37.1892358,183.380423 C38.9552067,191.690126 36.5008337,196.434024 34,199 C37.5064113,198.724636 36.4210223,196.599194 39.5328618,197.555709" id="Fill-181" fill="#9A9AB5"></path>
            <path d="M25.0207226,156.820865 C25.0207226,156.820865 24.5427014,150.723495 28.1784157,150.55867 C28.6847177,150.535765 29.4961025,150.044053 30.0818662,150.028859 C33.1210551,149.950475 32.6934638,149.996516 34.9563062,150.619443 C35.8088608,150.854135 36.5167577,153.018612 36.4521873,153.85229 L38,156.22959 C33.1786178,158.021025 28.6604413,158.835941 25.0207226,156.820865" id="Fill-183" fill="#ED5353"></path>
            <path d="M26.8741702,150.136686 C27.1832383,150.074803 27.4310888,150.385568 27.2977264,150.668652 C26.878268,151.558132 26.2916719,153.104574 25.8273868,154.377282 C25.3895507,155.577773 26.2146842,156.888865 27.4993843,156.984457 C33.5884852,157.437563 33.2451452,149.894939 33.4522667,150.001111 L34.6731416,150.38077 C41.2305011,151.798649 39.8185231,153.654133 38.5149486,157.17441 C38.5149486,157.17441 37.0750316,163.304445 37.2039238,165.765588 C37.3155558,167.893452 39.5059781,171.018814 39.9268025,171.669131 C40.4725455,172.512354 38.0540162,178.260024 29.7173732,177.990842 C23.1524391,177.778867 23.6712364,175.06306 23.5189995,171.540569 C23.4231375,169.324003 24.2976922,163.319577 24.1207448,161.571495 C23.9437974,159.823414 22.4826467,158.620585 23.1939131,155.731679 C23.5881642,154.130737 24.0846103,152.704369 24.4488115,151.750792 C24.7402469,150.988151 25.4094184,150.430227 26.2161743,150.26857 L26.8741702,150.136686 Z" id="Fill-185" fill="#18AD79"></path>
            <path d="M30.2525557,151.938963 L30.0427445,151.976831 C29.3341042,152.104904 28.6730129,151.68892 28.5735698,151.052509 L28.0126664,147.464193 C27.9130992,146.827782 28.4115559,146.202223 29.120072,146.074263 L29.3298832,146.036395 C30.0385235,145.908322 31.1235824,146.111905 31.2231496,146.748316 L31.9938642,150.543268 C32.0933072,151.179678 30.961196,151.810889 30.2525557,151.938963" id="Fill-187" fill="#ED5353"></path>
            <path d="M28,149.217618 C28,149.217618 29.1988324,149.192967 30,148 C30,148 29.2153873,149.802174 28.1191949,150 L28,149.217618 Z" id="Fill-189" fill="#BA4141"></path>
            <path d="M25.1278478,144.239383 C25.1278478,144.239383 24.4107187,148.053159 26.3733344,148.931149 C28.3359502,149.809139 29,142 29,142 L25.1278478,144.239383 Z" id="Fill-191" fill="#27427A"></path>
            <path d="M32.1596386,142.050737 C31.5843618,140.972576 30.6602042,140.736002 29.7776842,141.286442 C28.9438423,140.871822 27.9044837,141.350772 27.1063311,142.671803 C25.9947443,144.511296 25.6170937,147.505008 26.456034,149.077306 C26.8223952,149.763936 27.43761,149.942107 28.0224768,149.988409 C28.5695907,150.031748 29.1277512,149.951738 29.6621189,149.778753 C31.5763499,149.158798 31.5997785,149.44476 32.3401485,148.21942 C33.451614,146.380051 32.9985789,143.623158 32.1596386,142.050737" id="Fill-193" fill="#ED5353"></path>
            <path d="M31,142.040308 C31.6238013,143.70571 31.6440591,147.495223 31.7303295,148 C31.7303295,148 35.3860517,147.951622 34.9664586,144.048092 C34.4441793,139.188663 31.4809487,141.596553 31.4809487,141.596553 L31,142.040308 Z" id="Fill-195" fill="#27427A"></path>
            <path d="M31.7386822,143.041609 C29.7749457,142.231655 28.1509556,141.590226 25.0463366,144 C24.8231506,143.581062 25.4444209,142.198105 26.0921455,141.758088 C27.4458172,140.838434 28.1315481,140.340918 29.5887263,140.059051 L29.9412955,140.027488 C32.0705732,139.83667 33.1831531,140.633711 33.6038795,142.594639 C33.6408461,142.767136 33.9904118,143.557114 34,143.701799 L33.3231642,143.473348 C33.3996389,144.630503 32.9610068,142.900344 31.7386822,143.041609" id="Fill-197" fill="#27427A"></path>
            <path d="M27.534312,146.983634 L27.534312,146.983634 C27.2584715,146.89316 27.0192723,146.452786 27,146 L27.9987518,146.327656 C28.0181034,146.780359 27.8101524,147.074108 27.534312,146.983634" id="Fill-199" fill="#FFFFFF"></path>
            <path d="M38.9599252,171.557986 C38.5517365,170.912555 36.8095292,167.747428 36.7014013,165.635553 C36.6306005,164.252749 36.215428,157.952288 36.5903836,156 C34.9678636,160.078693 34.7116318,162.680564 31.8599701,163.266043 C32.5832708,169.563207 32.550399,176.247678 29,177.767969 C35.7814716,179.356149 39.4277167,172.297802 38.9599252,171.557986" id="Fill-201" fill="#169C6D"></path>
            <path d="M30.9152238,182.813892 L30.9152238,182.813892 C31.9019545,183.213722 32.9887057,182.947724 33.330356,182.222839 L33.8667353,179.232332 C34.2090334,178.506138 33.8931656,178.985147 32.9047506,178.584722 L32.9047506,178.584603 C31.9181495,178.184893 32.1194861,177.443934 31.1326258,178.695574 L30.2189671,180.767354 C30.1001604,181.036686 30.0194443,181.321377 30.0032493,181.613688 C29.9734505,182.156638 30.1386398,182.499196 30.9152238,182.813892" id="Fill-203" fill="#ED5353"></path>
            <path d="M41.3278315,156.530679 C40.779612,153.128987 39.0372602,152 39.0372602,152 L37.999878,157.290744 C37.5248705,159.713106 37.4754437,162.207164 37.8539182,164.64831 L38.4682721,168.610444 C38.6340723,169.679888 38.4050383,170.749945 37.8280446,171.602333 L33,178.734494 L34.3312742,180 L41.004237,174.372868 C43.6383593,172.363625 42.92608,167.640566 42.8737526,166.84011 C42.8737526,166.84011 41.94439,160.356294 41.3278315,156.530679" id="Fill-205" fill="#ED5353"></path>
            <path d="M31.7501825,147.866864 C31.7501825,147.866864 31.4612372,149.219598 31.0604165,150.856113 C30.5812263,152.813263 33.0855322,153.887123 33.8833119,152.0618 C34.6238477,150.367171 35.1093984,148.041711 34.9787824,144.857238 C34.7586661,139.491585 33.3804971,143.329531 33.3804971,143.329531 L31.7501825,147.866864 Z" id="Fill-207" fill="#27427A"></path>
            <path d="M32.9989843,146.955475 C33.0236437,147.507245 32.5962886,147.974436 32.0445208,147.998984 C31.4928646,148.023644 31.0255635,147.596398 31.0010157,147.044628 C30.9763563,146.492858 31.4037114,146.025667 31.9553676,146.001007 C32.5071354,145.976459 32.9743249,146.403704 32.9989843,146.955475" id="Fill-209" fill="#ED5353"></path>
            <path d="M41.8141326,164.976778 L41.8141326,164.976778 C42.5496595,164.842554 43.0789328,164.1628 42.9903091,163.466012 L42.6822247,161.044829 C42.5937245,160.349001 41.9204069,159.889234 41.1858674,160.023218 L41.1858674,160.023218 C40.4503405,160.157441 39.9210672,160.837316 40.0096909,161.533983 L40.3177753,163.955287 C40.4062755,164.651115 41.0795931,165.110762 41.8141326,164.976778" id="Fill-211" fill="#ED5353"></path>
            <path d="M265.341039,158.732739 C256.207502,153.929084 239.248761,153.7363 227.462409,158.302203 C215.676058,162.868106 213.525547,170.463606 222.658961,175.267261 C231.792498,180.070916 248.751361,180.2637 260.537591,175.697797 C272.323942,171.131894 274.474453,163.536394 265.341039,158.732739" id="Fill-213" fill="#E0DCF2"></path>
            <path d="M258.91146,157.973295 C259.140918,158.811993 258.897234,165.131401 258.492034,166.043701 C257.756076,168.94496 255.012882,171.731764 250.316537,173.828865 C240.012022,178.430147 224.239639,177.969947 215.087933,172.801038 C210.822296,170.391778 208.477925,167.910821 208.348909,164.766481 C208.172063,163.067767 208,158.320827 208,158.320827 C208.306475,157.277756 209.675129,158.337025 210.502453,157.354932 C211.861173,155.422665 214.177092,153.629744 217.443342,152.171135 C227.747856,147.569853 243.520362,148.030053 252.672068,153.198962 C256.52625,155.375859 258.581561,155.273791 258.91146,157.973295" id="Fill-215" fill="#E69357"></path>
            <path d="M252.060893,150.389427 C243.127341,145.010583 227.351252,144.505206 216.82419,149.260637 C206.297248,154.016068 205.005394,162.23164 213.939067,167.610484 C222.87274,172.989448 238.648708,173.494824 249.17577,168.739274 C259.702833,163.983843 260.994566,155.768271 252.060893,150.389427" id="Fill-217" fill="#FFFFFF"></path>
            <path d="M252.060893,149.389427 C243.127341,144.010583 227.351252,143.505206 216.82419,148.260637 C206.297248,153.016068 205.005394,161.23164 213.939067,166.610484 C222.87274,171.989448 238.648708,172.494824 249.17577,167.739274 C259.702833,162.983843 260.994566,154.768271 252.060893,149.389427" id="Fill-219" fill="#FFB575"></path>
            <path d="M245.842634,151.207665 C239.589059,147.276938 228.545895,146.907652 221.176915,150.382823 C213.808056,153.857868 212.903823,159.861609 219.157277,163.792335 C225.410851,167.723062 236.454016,168.092348 243.822995,164.617177 C251.191975,161.142007 252.096208,155.138391 245.842634,151.207665" id="Fill-221" fill="#FFFFFF"></path>
            <path d="M221.202453,151.411596 C228.571937,148.068479 239.615857,148.423852 245.869859,152.205095 C248.362757,153.712477 249.717029,155.536752 249.979084,157.397457 C250.187861,155.160268 248.835396,152.894852 245.843461,151.085776 C239.589579,147.304413 228.545539,146.949161 221.176175,150.292278 C216.744384,152.302684 214.651921,155.192838 215.047173,158 C215.274874,155.560878 217.358658,153.155291 221.202453,151.411596" id="Fill-223" fill="#F2C97B"></path>
            <path d="M225.216521,159.793695 C224.12654,159.007169 223.225432,157.891646 223.186393,156.87895 L226.731959,156.631659 C226.965942,157.641097 227.451259,158.380072 228.46465,158.961066 C229.64696,159.639093 230.684269,159.704265 231.704104,159.229356 C233.9873,158.166091 228.369842,154.991141 232.359827,153.133023 C234.532352,152.121292 237.264057,152.121654 239.669326,153.063265 L241.952522,152 L244,153.174057 L241.761419,154.216684 C242.912746,155.084313 243.17449,155.971493 243.089225,156.866881 L239.665113,156.838278 C239.636484,156.061768 239.358877,155.511067 238.472393,155.002728 C237.459002,154.421734 236.489236,154.302976 235.491584,154.767627 C233.385859,155.74822 239.136048,158.861377 234.902165,160.833064 C232.774131,161.824036 230.014789,161.946294 227.352858,160.926477 L225.047478,162 L223,160.825943 L225.216521,159.793695 Z" id="Fill-225" fill="#FFB575"></path>
            <line x1="233.95" y1="172" x2="234.05" y2="178" id="Stroke-227" stroke="#FFB575" stroke-width="4.335" stroke-linecap="round" stroke-linejoin="round"></line>
            <line x1="239.95" y1="172" x2="240.05" y2="177" id="Stroke-229" stroke="#FFB575" stroke-width="4.335" stroke-linecap="round" stroke-linejoin="round"></line>
            <line x1="245.95" y1="171" x2="246.05" y2="176" id="Stroke-231" stroke="#FFB575" stroke-width="4.335" stroke-linecap="round" stroke-linejoin="round"></line>
            <line x1="250.95" y1="168" x2="251.05" y2="173" id="Stroke-233" stroke="#FFB575" stroke-width="4.335" stroke-linecap="round" stroke-linejoin="round"></line>
            <line x1="256.00275" y1="165" x2="255.99725" y2="170" id="Stroke-235" stroke="#FFB575" stroke-width="4.335" stroke-linecap="round" stroke-linejoin="round"></line>
            <line x1="226.95705" y1="172" x2="227.04295" y2="177" id="Stroke-237" stroke="#FFB575" stroke-width="4.335" stroke-linecap="round" stroke-linejoin="round"></line>
            <line x1="219.95705" y1="171" x2="220.04295" y2="176" id="Stroke-239" stroke="#FFB575" stroke-width="4.335" stroke-linecap="round" stroke-linejoin="round"></line>
            <line x1="214.9604" y1="168" x2="215.0396" y2="173" id="Stroke-241" stroke="#FFB575" stroke-width="4.335" stroke-linecap="round" stroke-linejoin="round"></line>
            <line x1="209.95" y1="165" x2="210.05" y2="170" id="Stroke-243" stroke="#FFB575" stroke-width="4.335" stroke-linecap="round" stroke-linejoin="round"></line>
            <path d="M257.911479,148.973301 C258.140937,149.81188 257.89713,156.131412 257.492053,157.043713 C256.756095,159.944854 254.0129,162.731779 249.316552,164.828762 C239.012034,169.430166 223.239645,168.969966 214.087936,163.801054 C209.822297,161.391792 207.477925,158.910833 207.348909,155.766491 C207.172063,154.067658 207,149.320714 207,149.320714 C207.306475,148.277761 208.67513,149.337031 209.502454,148.354937 C210.861174,146.422669 213.177094,144.629628 216.443345,143.171137 C226.747863,138.569853 242.520375,139.030052 251.672085,144.198965 C255.526268,146.375863 257.58158,146.273795 257.911479,148.973301" id="Fill-245" fill="#E69357"></path>
            <path d="M251.060893,140.389427 C242.127341,135.010583 226.351252,134.505206 215.82419,139.260637 C205.297248,144.016068 204.005394,152.23164 212.939067,157.610484 C221.87274,162.989448 237.648708,163.494824 248.17577,158.739274 C258.702833,153.983843 259.994566,145.768271 251.060893,140.389427" id="Fill-247" fill="#FFFFFF"></path>
            <path d="M251.060893,139.389427 C242.127341,134.010583 226.351252,133.505206 215.82419,138.260637 C205.297248,143.016068 204.005394,151.23164 212.939067,156.610484 C221.87274,161.989448 237.648708,162.494824 248.17577,157.739274 C258.702833,152.983843 259.994566,144.768271 251.060893,139.389427" id="Fill-249" fill="#FFB575"></path>
            <path d="M245.842634,142.207681 C239.589059,138.276958 228.545895,137.907673 221.176915,141.382715 C213.808056,144.857881 212.903823,150.861616 219.157277,154.792339 C225.410851,158.723061 236.454016,159.092346 243.822995,155.61718 C251.191975,152.142013 252.096208,146.138404 245.842634,142.207681" id="Fill-251" fill="#FFFFFF"></path>
            <path d="M221.202453,142.411596 C228.571936,139.068479 239.615856,139.423852 245.869858,143.205095 C248.362756,144.712477 249.717028,146.536752 249.979083,148.397457 C250.187859,146.160268 248.835515,143.894852 245.84358,142.085776 C239.589578,138.304413 228.545538,137.949161 221.176175,141.292278 C216.744383,143.302684 214.651921,146.192838 215.047173,149 C215.274874,146.560878 217.358658,144.155291 221.202453,142.411596" id="Fill-253" fill="#E69357"></path>
            <path d="M224.216521,150.793695 C223.12654,150.007169 222.225432,148.891646 222.186393,147.87895 L225.731959,147.631659 C225.965942,148.641097 226.451259,149.380072 227.46465,149.961066 C228.64696,150.639093 229.684269,150.704265 230.704104,150.229356 C232.987176,149.166091 227.369842,145.991141 231.359827,144.133023 C233.532352,143.121292 236.264057,143.121654 238.669326,144.063265 L240.952522,143 L243,144.174057 L240.761296,145.216684 C241.912746,146.084313 242.17449,146.971493 242.089225,147.866881 L238.665113,147.838278 C238.636484,147.061768 238.358877,146.511067 237.472393,146.002728 C236.459002,145.421734 235.489236,145.302976 234.491584,145.767627 C232.385859,146.74822 238.136048,149.861377 233.902165,151.833064 C231.774131,152.824036 229.014789,152.946294 226.352858,151.926477 L224.047478,153 L222,151.825943 L224.216521,150.793695 Z" id="Fill-255" fill="#FFB575"></path>
            <line x1="232.95" y1="163" x2="233.05" y2="169" id="Stroke-257" stroke="#FFB575" stroke-width="4.335" stroke-linecap="round" stroke-linejoin="round"></line>
            <line x1="238.95" y1="162" x2="239.05" y2="167" id="Stroke-259" stroke="#FFB575" stroke-width="4.335" stroke-linecap="round" stroke-linejoin="round"></line>
            <line x1="244.95" y1="161" x2="245.05" y2="166" id="Stroke-261" stroke="#FFB575" stroke-width="4.335" stroke-linecap="round" stroke-linejoin="round"></line>
            <line x1="249.95" y1="158" x2="250.05" y2="163" id="Stroke-263" stroke="#FFB575" stroke-width="4.335" stroke-linecap="round" stroke-linejoin="round"></line>
            <line x1="256.00275" y1="154" x2="255.99725" y2="159" id="Stroke-265" stroke="#FFB575" stroke-width="4.335" stroke-linecap="round" stroke-linejoin="round"></line>
            <line x1="225.95705" y1="163" x2="226.04295" y2="168" id="Stroke-267" stroke="#FFB575" stroke-width="4.335" stroke-linecap="round" stroke-linejoin="round"></line>
            <line x1="219.95705" y1="161" x2="220.04295" y2="166" id="Stroke-269" stroke="#FFB575" stroke-width="4.335" stroke-linecap="round" stroke-linejoin="round"></line>
            <line x1="213.9604" y1="159" x2="214.0396" y2="164" id="Stroke-271" stroke="#FFB575" stroke-width="4.335" stroke-linecap="round" stroke-linejoin="round"></line>
            <line x1="209.95" y1="154" x2="210.05" y2="159" id="Stroke-273" stroke="#FFB575" stroke-width="4.335" stroke-linecap="round" stroke-linejoin="round"></line>
            <path d="M257.911479,138.973301 C258.140937,139.81188 257.89713,146.131412 257.492053,147.043713 C256.756095,149.944854 254.0129,152.731779 249.316552,154.828762 C239.012034,159.430166 223.239645,158.969966 214.087936,153.801054 C209.822297,151.391792 207.477925,148.910833 207.348909,145.766491 C207.172063,144.067658 207,139.320714 207,139.320714 C207.306475,138.277761 208.67513,139.337031 209.502454,138.354937 C210.861174,136.422669 213.177094,134.629628 216.443345,133.171137 C226.747863,128.569853 242.520375,129.030052 251.672085,134.198965 C255.526268,136.375863 257.58158,136.273795 257.911479,138.973301" id="Fill-275" fill="#E69357"></path>
            <path d="M251.060893,130.389427 C242.127341,125.010583 226.351252,124.505206 215.82419,129.260637 C205.297248,134.016068 204.005394,142.23164 212.939067,147.610484 C221.87274,152.989448 237.648708,153.494824 248.17577,148.739274 C258.702833,143.983843 259.994566,135.768271 251.060893,130.389427" id="Fill-277" fill="#FFFFFF"></path>
            <path d="M251.060893,130.389427 C242.127341,125.010583 226.351252,124.505206 215.82419,129.260637 C205.297248,134.016068 204.005394,142.23164 212.939067,147.610484 C221.87274,152.989448 237.648708,153.494824 248.17577,148.739274 C258.702833,143.983843 259.994566,135.768271 251.060893,130.389427" id="Fill-279" fill="#FFB575"></path>
            <path d="M245.842634,132.207681 C239.589059,128.276958 228.545895,127.907673 221.176915,131.382715 C213.808056,134.857881 212.903823,140.861616 219.157277,144.792339 C225.410851,148.723061 236.454016,149.092346 243.822995,145.61718 C251.191975,142.142013 252.096208,136.138404 245.842634,132.207681" id="Fill-281" fill="#FFFFFF"></path>
            <path d="M221.202453,133.411596 C228.571936,130.068479 239.615856,130.423852 245.869858,134.205095 C248.362756,135.712477 249.717028,137.536752 249.979083,139.397457 C250.187859,137.160268 248.835515,134.894852 245.84358,133.085776 C239.589578,129.304413 228.545538,128.949161 221.176175,132.292278 C216.744383,134.302684 214.651921,137.192838 215.047173,140 C215.274874,137.560878 217.358658,135.155291 221.202453,133.411596" id="Fill-283" fill="#E69357"></path>
            <path d="M224.216521,141.793695 C223.12654,141.007169 222.225432,139.891646 222.186393,138.87895 L225.731959,138.631659 C225.965942,139.641097 226.451259,140.380072 227.46465,140.961066 C228.64696,141.639093 229.684269,141.704265 230.704104,141.229356 C232.987176,140.166091 227.369842,136.991141 231.359827,135.133023 C233.532352,134.121292 236.264057,134.121654 238.669326,135.063265 L240.952522,134 L243,135.174057 L240.761296,136.216684 C241.912746,137.084313 242.17449,137.971493 242.089225,138.866881 L238.665113,138.838278 C238.636484,138.061768 238.358877,137.511067 237.472393,137.002728 C236.459002,136.421734 235.489236,136.302976 234.491584,136.767627 C232.385859,137.74822 238.136048,140.861377 233.902165,142.833064 C231.774131,143.824036 229.014789,143.946294 226.352858,142.926477 L224.047478,144 L222,142.825943 L224.216521,141.793695 Z" id="Fill-285" fill="#FFB575"></path>
            <line x1="232.95" y1="152" x2="233.05" y2="158" id="Stroke-287" stroke="#FFB575" stroke-width="4.335" stroke-linecap="round" stroke-linejoin="round"></line>
            <line x1="238.95" y1="152" x2="239.05" y2="157" id="Stroke-289" stroke="#FFB575" stroke-width="4.335" stroke-linecap="round" stroke-linejoin="round"></line>
            <line x1="244.95" y1="151" x2="245.05" y2="156" id="Stroke-291" stroke="#FFB575" stroke-width="4.335" stroke-linecap="round" stroke-linejoin="round"></line>
            <line x1="249.95" y1="148" x2="250.05" y2="153" id="Stroke-293" stroke="#FFB575" stroke-width="4.335" stroke-linecap="round" stroke-linejoin="round"></line>
            <line x1="256.00275" y1="145" x2="255.99725" y2="150" id="Stroke-295" stroke="#FFB575" stroke-width="4.335" stroke-linecap="round" stroke-linejoin="round"></line>
            <line x1="225.95705" y1="152" x2="226.04295" y2="157" id="Stroke-297" stroke="#FFB575" stroke-width="4.335" stroke-linecap="round" stroke-linejoin="round"></line>
            <line x1="219.95705" y1="151" x2="220.04295" y2="156" id="Stroke-299" stroke="#FFB575" stroke-width="4.335" stroke-linecap="round" stroke-linejoin="round"></line>
            <line x1="213.9604" y1="149" x2="214.0396" y2="154" id="Stroke-301" stroke="#FFB575" stroke-width="4.335" stroke-linecap="round" stroke-linejoin="round"></line>
            <line x1="209.95" y1="146" x2="210.05" y2="151" id="Stroke-303" stroke="#FFB575" stroke-width="4.335" stroke-linecap="round" stroke-linejoin="round"></line>
            <path d="M257.911479,129.973295 C258.140937,130.811993 257.89713,137.131401 257.492053,138.043701 C256.756095,140.94496 254.0129,143.731764 249.316552,145.828865 C239.012034,150.430147 223.239645,149.969947 214.087936,144.801038 C209.822297,142.391778 207.477925,139.910821 207.348909,136.766481 C207.172063,135.067767 207,130.320827 207,130.320827 C207.306475,129.277756 208.67513,130.337025 209.502454,129.354932 C210.861174,127.422665 213.177094,125.629744 216.443345,124.171135 C226.747863,119.569853 242.520375,120.030053 251.672085,125.198962 C255.526268,127.375859 257.58158,127.27391 257.911479,129.973295" id="Fill-305" fill="#E69357"></path>
            <path d="M251.060893,121.389427 C242.127341,116.010583 226.351252,115.505206 215.82419,120.260637 C205.297248,125.016068 204.005394,133.23164 212.939067,138.610484 C221.87274,143.989448 237.648708,144.494824 248.17577,139.739274 C258.702833,134.983843 259.994566,126.768271 251.060893,121.389427" id="Fill-307" fill="#FFFFFF"></path>
            <path d="M251.060893,120.389427 C242.127341,115.010583 226.351252,114.505206 215.82419,119.260637 C205.297248,124.016068 204.005394,132.23164 212.939067,137.610484 C221.87274,142.989448 237.648708,143.494824 248.17577,138.739274 C258.702833,133.983843 259.994566,125.768271 251.060893,120.389427" id="Fill-309" fill="#FFB575"></path>
            <path d="M245.842634,123.207665 C239.589059,119.276938 228.545895,118.907652 221.176915,122.382823 C213.808056,125.857868 212.903823,131.861609 219.157277,135.792335 C225.410851,139.723062 236.454016,140.092348 243.822995,136.617177 C251.191975,133.142007 252.096208,127.138391 245.842634,123.207665" id="Fill-311" fill="#FFFFFF"></path>
            <path d="M221.202453,123.411596 C228.571936,120.068479 239.615856,120.423852 245.869858,124.205215 C248.362756,125.712477 249.717028,127.536752 249.979083,129.397457 C250.187859,127.160268 248.835515,124.894852 245.84358,123.085776 C239.589578,119.304413 228.545538,118.949161 221.176175,122.292278 C216.744383,124.302684 214.651921,127.192838 215.047173,130 C215.274874,127.560878 217.358658,125.155291 221.202453,123.411596" id="Fill-313" fill="#E69357"></path>
            <path d="M224.216521,131.793695 C223.12654,131.007169 222.225432,129.891646 222.186393,128.87895 L225.731959,128.631659 C225.965942,129.641097 226.451259,130.380072 227.46465,130.961187 C228.64696,131.639093 229.684269,131.704265 230.704104,131.229356 C232.987176,130.166091 227.369842,126.991141 231.359827,125.133023 C233.532352,124.121292 236.264057,124.121654 238.669326,125.063265 L240.952522,124 L243,125.174178 L240.761296,126.216684 C241.912746,127.084313 242.17449,127.971493 242.089225,128.866881 L238.665113,128.838278 C238.636484,128.061768 238.358877,127.511067 237.472393,127.002728 C236.459002,126.421734 235.489236,126.302976 234.491584,126.767627 C232.385859,127.74822 238.136048,130.861377 233.902165,132.833064 C231.774131,133.824036 229.014789,133.946294 226.352858,132.926477 L224.047478,134 L222,132.825943 L224.216521,131.793695 Z" id="Fill-315" fill="#FFB575"></path>
            <line x1="232.95" y1="144" x2="233.05" y2="150" id="Stroke-317" stroke="#FFB575" stroke-width="4.335" stroke-linecap="round" stroke-linejoin="round"></line>
            <line x1="238.95" y1="143" x2="239.05" y2="148" id="Stroke-319" stroke="#FFB575" stroke-width="4.335" stroke-linecap="round" stroke-linejoin="round"></line>
            <line x1="244.95" y1="142" x2="245.05" y2="147" id="Stroke-321" stroke="#FFB575" stroke-width="4.335" stroke-linecap="round" stroke-linejoin="round"></line>
            <line x1="249.95" y1="139" x2="250.05" y2="144" id="Stroke-323" stroke="#FFB575" stroke-width="4.335" stroke-linecap="round" stroke-linejoin="round"></line>
            <line x1="256.00275" y1="136" x2="255.99725" y2="141" id="Stroke-325" stroke="#FFB575" stroke-width="4.335" stroke-linecap="round" stroke-linejoin="round"></line>
            <line x1="225.95705" y1="143" x2="226.04295" y2="148" id="Stroke-327" stroke="#FFB575" stroke-width="4.335" stroke-linecap="round" stroke-linejoin="round"></line>
            <line x1="219.95705" y1="142" x2="220.04295" y2="147" id="Stroke-329" stroke="#FFB575" stroke-width="4.335" stroke-linecap="round" stroke-linejoin="round"></line>
            <line x1="213.9604" y1="140" x2="214.0396" y2="145" id="Stroke-331" stroke="#FFB575" stroke-width="4.335" stroke-linecap="round" stroke-linejoin="round"></line>
            <line x1="209.95" y1="136" x2="210.05" y2="141" id="Stroke-333" stroke="#FFB575" stroke-width="4.335" stroke-linecap="round" stroke-linejoin="round"></line>
            <path d="M236,183.373107 L235.897505,172 L199.091769,173.136376 C198.726448,173.039846 198.289867,173.058059 198.116846,173.177052 L143,198.418461 L143.408516,209.810752 C143.464522,210.410813 143.433408,211.040136 143.798851,211.136666 L184.679376,221.938003 C185.044698,222.034533 185.481278,222.01632 185.654422,221.897449 L235.095359,185.256463 C235.640169,184.824934 235.968153,184.227059 236,183.373107" id="Fill-335" fill="#18AD79"></path>
            <path d="M236,183.265858 L235.89816,174.195516 L199.32748,173.000707 C198.964491,172.90391 184.171916,182.778706 184,182.898028 C184,182.898028 185.282463,221.993342 185.418008,221.998577 C185.652726,222.007709 185.866833,221.972765 185.975948,221.897153 L235.101136,185.154443 C235.642467,184.721716 235.968357,184.12218 236,183.265858" id="Fill-337" fill="#169E6F"></path>
            <path d="M185.256753,209.897232 L235.929331,172.270771 C236.102402,172.151598 235.94665,171.411023 235.581481,171.314347 L198.688503,161.06218 C198.323333,160.965383 197.887057,160.983623 197.713986,161.102796 L143.070646,198.729257 C142.897575,198.84843 143.053449,199.02342 143.418619,199.120096 L184.282236,209.93797 C184.647405,210.034524 185.083681,210.016405 185.256753,209.897232" id="Fill-339" fill="#51DEA0"></path>
            <path d="M180.813678,183.182251 C184.235727,181.052378 191.346557,180.363532 196.696103,181.6436 C202.045772,182.923668 203.60837,185.687877 200.186322,187.817749 C196.764273,189.947622 189.653443,190.636468 184.303897,189.3564 C178.954228,188.076332 177.39163,185.312123 180.813678,183.182251" id="Fill-341" fill="#169E6F"></path>
            <path d="M175.567448,202.347242 L160.029268,198.213542 C161.621788,196.687405 160.797112,194.914516 158.023985,193.826643 L194.230314,168.772708 C197.734489,169.354789 201.802251,168.883552 204.280287,167.592972 L219.818224,171.726793 C218.188787,173.288702 219.093976,175.108192 222.025335,176.187913 L185.86248,201.211673 C182.304752,200.565227 178.103652,201.026366 175.567448,202.347242 L175.567448,202.347242 Z M152.346944,196.802994 C152.717448,197.243692 153.41923,197.626595 154.31021,197.863491 L180.181554,204.746135 C180.988986,204.960887 181.849971,205.037176 182.589278,204.983396 C183.232527,204.936552 183.782635,204.791519 184.126787,204.554014 L227.619434,174.458217 C228.048591,174.161215 228.118174,173.739985 227.810939,173.302694 C227.803653,173.292352 227.793574,173.282497 227.785924,173.272155 L227.847856,173.229326 L227.723869,173.196353 C227.353123,172.755777 226.650734,172.372995 225.759875,172.136099 L199.889382,165.253455 C198.378831,164.852301 196.68309,164.935403 195.944149,165.445576 L152.451501,195.541373 C152.060961,195.811607 151.971705,196.184898 152.189684,196.579482 L152,196.710766 L152.346944,196.802994 Z" id="Fill-343" fill="#169E6F"></path>
            <path d="M143,205.597829 L183.542457,215.913433 C184.912929,216.277811 186.677955,215.42596 187.823299,214.5881 L236,178" id="Stroke-345" stroke="#51DEA0" stroke-width="4.651" stroke-linecap="round" stroke-linejoin="round"></path>
            <path d="M236,167.373107 L235.897505,156 L199.091769,157.136376 C198.726448,157.039846 198.289867,157.058059 198.116846,157.177052 L143,182.418461 L143.408516,193.810631 C143.464522,194.410813 143.433408,195.040136 143.798851,195.136666 L184.679376,205.938003 C185.044698,206.034533 185.481278,206.01632 185.654422,205.897449 L235.095359,169.256463 C235.640169,168.824934 235.968153,168.227059 236,167.373107" id="Fill-347" fill="#18AD79"></path>
            <path d="M236,167.265858 L235.89816,158.195516 L199.32748,157.000707 C198.964491,156.90391 184.171916,166.778706 184,166.898028 C184,166.898028 185.282463,205.993342 185.418008,205.998577 C185.652726,206.007709 185.866833,205.972765 185.975948,205.897153 L235.101136,169.154443 C235.642467,168.721716 235.968357,168.12218 236,167.265858" id="Fill-349" fill="#169E6F"></path>
            <path d="M185.256753,194.897181 L235.929331,157.27076 C236.102402,157.151587 235.94665,156.411012 235.581481,156.314336 L198.688503,146.06218 C198.323333,145.965383 197.887057,145.983623 197.713986,146.102796 L143.070646,183.729218 C142.897575,183.848391 143.053449,184.023381 143.418619,184.120057 L184.282236,194.937919 C184.647405,195.034595 185.083681,195.016354 185.256753,194.897181" id="Fill-351" fill="#51DEA0"></path>
            <path d="M180.813678,167.182251 C184.235727,165.052378 191.346557,164.363532 196.696103,165.6436 C202.045772,166.923668 203.60837,169.687877 200.186322,171.817749 C196.764273,173.947622 189.653443,174.636468 184.303897,173.3564 C178.954228,172.076332 177.39163,169.312123 180.813678,167.182251" id="Fill-353" fill="#169E6F"></path>
            <path d="M175.567448,187.347242 L160.029268,183.213542 C161.621788,181.687405 160.797112,179.914516 158.023985,178.826643 L194.230314,153.772708 C197.734489,154.354789 201.802251,153.88343 204.280287,152.592972 L219.818224,156.726793 C218.188787,158.288702 219.093976,160.108192 222.025335,161.187913 L185.86248,186.211673 C182.304752,185.565227 178.103652,186.026366 175.567448,187.347242 L175.567448,187.347242 Z M152.346944,181.802994 C152.717448,182.243692 153.41923,182.626595 154.31021,182.863491 L180.181554,189.746135 C180.988986,189.960887 181.849971,190.037176 182.589278,189.983396 C183.232527,189.936552 183.782635,189.791519 184.126787,189.554014 L227.619434,159.458217 C228.048591,159.161215 228.118174,158.739985 227.810939,158.302694 C227.803653,158.292352 227.793574,158.282497 227.785924,158.272155 L227.847856,158.229326 L227.723869,158.196353 C227.353123,157.755777 226.650734,157.372995 225.759875,157.136099 L199.889382,150.253455 C198.378831,149.852301 196.68309,149.935403 195.944149,150.445576 L152.451501,180.541373 C152.060961,180.811607 151.971705,181.184898 152.189684,181.579482 L152,181.710766 L152.346944,181.802994 Z" id="Fill-355" fill="#169E6F"></path>
            <path d="M143,189.597829 L183.542457,199.913433 C184.912929,200.277811 186.677955,199.42596 187.823299,198.5881 L236,162" id="Stroke-357" stroke="#51DEA0" stroke-width="4.651" stroke-linecap="round" stroke-linejoin="round"></path>
            <path d="M277.340984,193.732739 C268.20758,188.929084 251.248736,188.7363 239.462398,193.302203 C227.67606,197.868106 225.525551,205.463606 234.658955,210.267261 C243.792482,215.070916 260.751326,215.2637 272.537664,210.697797 C284.32388,206.131894 286.474511,198.536394 277.340984,193.732739" id="Fill-359" fill="#E0DCF2"></path>
            <path d="M268.91146,192.973295 C269.140918,193.811993 268.897234,200.131401 268.492034,201.043701 C267.756076,203.944841 265.012882,206.731764 260.316537,208.828865 C250.012022,213.430147 234.239639,212.969947 225.087933,207.801038 C220.822296,205.391778 218.477925,202.910821 218.348909,199.766481 C218.172185,198.067767 218,193.320827 218,193.320827 C218.306475,192.277756 219.675129,193.337025 220.502453,192.354932 C221.861173,190.422665 224.177092,188.629744 227.443464,187.171135 C237.747979,182.569853 253.520362,183.030053 262.672068,188.198962 C266.52625,190.375859 268.581683,190.27391 268.91146,192.973295" id="Fill-361" fill="#E69357"></path>
            <path d="M263.060893,184.389427 C254.127341,179.010583 238.351252,178.505206 227.82419,183.260637 C217.297248,188.016068 216.005394,196.23164 224.939067,201.610484 C233.87274,206.989448 249.648708,207.494824 260.17577,202.739274 C270.702833,197.983843 271.994566,189.768271 263.060893,184.389427" id="Fill-363" fill="#FFFFFF"></path>
            <path d="M263.060893,183.389427 C254.127341,178.010583 238.351252,177.505206 227.82419,182.260637 C217.297248,187.016068 216.005394,195.23164 224.939067,200.610484 C233.87274,205.989448 249.648708,206.494824 260.17577,201.739274 C270.702833,196.983843 271.994566,188.768271 263.060893,183.389427" id="Fill-365" fill="#FFB575"></path>
            <path d="M256.842631,185.207665 C250.589053,181.276938 239.545882,180.907652 232.176898,184.382823 C224.808035,187.857868 223.903801,193.861609 230.157379,197.792335 C236.410837,201.723062 247.454128,202.092348 254.822992,198.617177 C262.191976,195.142007 263.096209,189.138391 256.842631,185.207665" id="Fill-367" fill="#FFFFFF"></path>
            <path d="M232.202453,186.411596 C239.571936,183.068479 250.615856,183.423852 256.869858,187.205215 C259.362756,188.712477 260.717028,190.536752 260.979083,192.397457 C261.187859,190.160268 259.835515,187.894852 256.84358,186.085776 C250.589578,182.304413 239.545538,181.949161 232.176175,185.292278 C227.744383,187.302684 225.651921,190.192838 226.047173,193 C226.274874,190.560878 228.358658,188.155291 232.202453,186.411596" id="Fill-369" fill="#F2C97B"></path>
            <path d="M236.216521,194.793695 C235.12654,194.007169 234.225432,192.891646 234.186393,191.87895 L237.731959,191.631659 C237.965942,192.641097 238.451259,193.380072 239.46465,193.961187 C240.64696,194.639093 241.684269,194.704265 242.704104,194.229356 C244.9873,193.166091 239.369842,189.991141 243.359827,188.133023 C245.532352,187.121292 248.264057,187.121654 250.669326,188.063265 L252.952522,187 L255,188.174178 L252.761419,189.216684 C253.912746,190.084313 254.17449,190.971493 254.089225,191.866881 L250.665113,191.838278 C250.636608,191.061768 250.358877,190.511067 249.472393,190.002728 C248.459002,189.421734 247.489236,189.302976 246.491584,189.767627 C244.385859,190.74822 250.136048,193.861377 245.902165,195.833064 C243.774131,196.824036 241.014789,196.946294 238.352858,195.926477 L236.047478,197 L234,195.825943 L236.216521,194.793695 Z" id="Fill-371" fill="#FFB575"></path>
            <line x1="243.95" y1="207" x2="244.05" y2="213" id="Stroke-373" stroke="#FFB575" stroke-width="4.335" stroke-linecap="round" stroke-linejoin="round"></line>
            <line x1="249.95" y1="207" x2="250.05" y2="212" id="Stroke-375" stroke="#FFB575" stroke-width="4.335" stroke-linecap="round" stroke-linejoin="round"></line>
            <line x1="257.95" y1="205" x2="258.05" y2="210" id="Stroke-377" stroke="#FFB575" stroke-width="4.335" stroke-linecap="round" stroke-linejoin="round"></line>
            <line x1="262.95" y1="201" x2="263.05" y2="206" id="Stroke-379" stroke="#FFB575" stroke-width="4.335" stroke-linecap="round" stroke-linejoin="round"></line>
            <line x1="267.00275" y1="198" x2="266.99725" y2="203" id="Stroke-381" stroke="#FFB575" stroke-width="4.335" stroke-linecap="round" stroke-linejoin="round"></line>
            <line x1="236.95705" y1="207" x2="237.04295" y2="212" id="Stroke-383" stroke="#FFB575" stroke-width="4.335" stroke-linecap="round" stroke-linejoin="round"></line>
            <line x1="231.95705" y1="206" x2="232.04295" y2="211" id="Stroke-385" stroke="#FFB575" stroke-width="4.335" stroke-linecap="round" stroke-linejoin="round"></line>
            <line x1="224.9604" y1="202" x2="225.0396" y2="207" id="Stroke-387" stroke="#FFB575" stroke-width="4.335" stroke-linecap="round" stroke-linejoin="round"></line>
            <line x1="220.95" y1="199" x2="221.05" y2="204" id="Stroke-389" stroke="#FFB575" stroke-width="4.335" stroke-linecap="round" stroke-linejoin="round"></line>
            <path d="M267.91146,181.973301 C268.140918,182.81188 267.897234,189.131412 267.492034,190.043713 C266.756076,192.944854 264.012882,195.731779 259.316537,197.828762 C249.012022,202.430166 233.239639,201.969966 224.087933,196.801054 C219.822296,194.391792 217.477925,191.910833 217.348909,188.766491 C217.172185,187.067658 217,182.320714 217,182.320714 C217.306475,181.277761 218.675129,182.337031 219.502453,181.354937 C220.861173,179.422669 223.177092,177.629628 226.443464,176.171137 C236.747979,171.569853 252.520362,172.030052 261.672068,177.198965 C265.52625,179.375863 267.581561,179.273795 267.91146,181.973301" id="Fill-391" fill="#E69357"></path>
            <path d="M262.060893,174.389427 C253.127341,169.010583 237.351252,168.505206 226.82419,173.260637 C216.297248,178.016068 215.005394,186.23164 223.939067,191.610484 C232.87274,196.989448 248.648708,197.494824 259.17577,192.739274 C269.702833,187.983843 270.994566,179.768271 262.060893,174.389427" id="Fill-393" fill="#FFFFFF"></path>
            <path d="M262.060893,173.389427 C253.127341,168.010583 237.351252,167.505206 226.82419,172.260637 C216.297248,177.016068 215.005394,185.23164 223.939067,190.610484 C232.87274,195.989448 248.648708,196.494824 259.17577,191.739274 C269.702833,186.983843 270.994566,178.768271 262.060893,173.389427" id="Fill-395" fill="#FFB575"></path>
            <path d="M256.842631,176.207665 C250.589053,172.276938 239.545882,171.907652 232.176898,175.382823 C224.808035,178.857868 223.903801,184.861609 230.157379,188.792335 C236.410837,192.723062 247.454128,193.092348 254.822992,189.617177 C262.191976,186.142007 263.096209,180.138391 256.842631,176.207665" id="Fill-397" fill="#FFFFFF"></path>
            <path d="M232.202453,176.411596 C239.571936,173.068479 250.615856,173.423852 256.869858,177.205215 C259.362756,178.712477 260.717028,180.536752 260.979083,182.397457 C261.187859,180.160268 259.835515,177.894852 256.84358,176.085776 C250.589578,172.304413 239.545538,171.949161 232.176175,175.292278 C227.744383,177.302684 225.651921,180.192838 226.047173,183 C226.274874,180.560878 228.358658,178.155291 232.202453,176.411596" id="Fill-399" fill="#E69357"></path>
            <path d="M235.216521,185.793695 C234.12654,185.007169 233.225432,183.891646 233.186393,182.87895 L236.731959,182.631659 C236.965942,183.641097 237.451259,184.380072 238.46465,184.961066 C239.64696,185.639093 240.684269,185.704265 241.704104,185.229356 C243.9873,184.166091 238.369842,180.991141 242.359827,179.133023 C244.532352,178.121292 247.264057,178.121654 249.669326,179.063265 L251.952522,178 L254,179.174178 L251.761419,180.216684 C252.912746,181.084313 253.17449,181.971493 253.089225,182.866881 L249.665113,182.838278 C249.636608,182.061768 249.358877,181.511067 248.472393,181.002728 C247.459002,180.421734 246.489236,180.302976 245.491584,180.767627 C243.385859,181.74822 249.136048,184.861377 244.902165,186.833064 C242.774131,187.824036 240.014789,187.946294 237.352858,186.926477 L235.047478,188 L233,186.825943 L235.216521,185.793695 Z" id="Fill-401" fill="#FFB575"></path>
            <line x1="243.95" y1="196" x2="244.05" y2="202" id="Stroke-403" stroke="#FFB575" stroke-width="4.335" stroke-linecap="round" stroke-linejoin="round"></line>
            <line x1="249.95" y1="196" x2="250.05" y2="201" id="Stroke-405" stroke="#FFB575" stroke-width="4.335" stroke-linecap="round" stroke-linejoin="round"></line>
            <line x1="256.95" y1="195" x2="257.05" y2="200" id="Stroke-407" stroke="#FFB575" stroke-width="4.335" stroke-linecap="round" stroke-linejoin="round"></line>
            <line x1="261.95" y1="192" x2="262.05" y2="197" id="Stroke-409" stroke="#FFB575" stroke-width="4.335" stroke-linecap="round" stroke-linejoin="round"></line>
            <line x1="266.00275" y1="188" x2="265.99725" y2="193" id="Stroke-411" stroke="#FFB575" stroke-width="4.335" stroke-linecap="round" stroke-linejoin="round"></line>
            <line x1="236.95705" y1="196" x2="237.04295" y2="201" id="Stroke-413" stroke="#FFB575" stroke-width="4.335" stroke-linecap="round" stroke-linejoin="round"></line>
            <line x1="229.95705" y1="195" x2="230.04295" y2="200" id="Stroke-415" stroke="#FFB575" stroke-width="4.335" stroke-linecap="round" stroke-linejoin="round"></line>
            <line x1="224.9604" y1="193" x2="225.0396" y2="198" id="Stroke-417" stroke="#FFB575" stroke-width="4.335" stroke-linecap="round" stroke-linejoin="round"></line>
            <line x1="219.95" y1="189" x2="220.05" y2="194" id="Stroke-419" stroke="#FFB575" stroke-width="4.335" stroke-linecap="round" stroke-linejoin="round"></line>
            <polygon id="Fill-421" fill="#E0DCF2" points="117.346158 217.59787 131.115592 227 134 218.687872 116 214"></polygon>
            <path d="M117.761137,214.185568 L117.523828,214.119295 C117.379088,213.022017 116.531885,212.008908 114.980519,211.300756 L105.340623,206.901155 C101.950475,205.353908 96.491879,205.848429 93.1485618,208.005837 L88.4494523,211.03813 C86.4352362,212.337807 85.6503932,213.944293 86.0844894,215.354796 C85.6445697,216.863168 86.4618061,218.353397 88.5345002,219.299369 L89.6038473,219.787349 L70,234.649903 L70.2117099,237.027729 L73.6374058,238.644458 L79.1959724,236.771274 L96.4765922,223.669967 L98.0864364,224.11969 L86.8767332,238.742696 L86.8767332,241.849407 L90.996522,243 L95.4077304,240.870361 L106.456558,226.457282 L109.339452,227.262438 C112.575519,228.166325 116.847084,226.748911 118.880226,224.096735 L119.939261,222.71511 C120.939939,221.409755 121.210369,220.048988 120.842637,218.89531 C121.444767,216.818862 120.298015,214.89409 117.761137,214.185568" id="Fill-423" fill="#E0DCF2"></path>
            <path d="M107.555325,226.733454 L94.1793557,223.010782 C91.0033726,222.126914 90.0462792,219.307663 92.0416725,216.713874 L93.081044,215.362666 C95.0764372,212.768877 99.268692,211.382666 102.444675,212.266534 L115.820644,215.989206 C118.996627,216.873074 119.953721,219.692446 117.958328,222.286235 L116.918956,223.637322 C114.923563,226.231232 110.731308,227.617322 107.555325,226.733454" id="Fill-425" fill="#867BAB"></path>
            <polygon id="Fill-427" fill="#867BAB" points="92.3803113 239.837181 88.0469005 242 84 240.831481 84 237.676242 98.7047553 221 105 222.817766"></polygon>
            <path d="M107.555325,223.733454 L94.1793557,220.010782 C91.0033726,219.126914 90.0462792,216.307663 92.0416725,213.713874 L93.081044,212.362666 C95.0764372,209.768877 99.268692,208.382666 102.444675,209.266534 L115.820644,212.989206 C118.996627,213.873074 119.953721,216.692446 117.958328,219.286235 L116.918956,220.637322 C114.923563,223.231232 110.731308,224.617322 107.555325,223.733454" id="Fill-429" fill="#988FBA"></path>
            <polygon id="Fill-431" fill="#988FBA" points="92.3803113 236.837181 88.0469005 239 84 237.831481 98.7047553 218 105 219.817766"></polygon>
            <path d="M95.9828344,222.101315 L86.5204427,217.713768 C83.1927191,216.170761 83.1553249,213.175699 86.4370799,211.024326 L91.0495433,208.000341 C94.3312984,205.848845 99.6893824,205.355678 103.017106,206.898685 L112.479498,211.286232 C115.80734,212.829362 115.844616,215.824301 112.56298,217.975797 L107.950397,220.999659 C104.668642,223.151155 99.3106771,223.644322 95.9828344,222.101315" id="Fill-433" fill="#A9A1C9"></path>
            <polygon id="Fill-435" fill="#A9A1C9" points="76.1018175 236.141144 70.6000434 238 67.2095422 236.395638 67 234.036123 92.7257803 217 98 219.495702"></polygon>
            <polygon id="Fill-437" fill="#B8AFDB" points="76.952791 234.141144 71.413575 236 68 234.395638 93.689887 215 99 217.495702"></polygon>
            <path d="M95.9828344,221.101315 L86.5204427,216.713768 C83.1927191,215.170761 83.1553249,212.175699 86.4370799,210.024326 L91.0495433,207.000341 C94.3312984,204.848845 99.6893824,204.355678 103.017106,205.898685 L112.479498,210.286232 C115.80734,211.829362 115.844616,214.824301 112.56298,216.975797 L107.950397,219.999659 C104.668642,222.151155 99.3106771,222.644322 95.9828344,221.101315" id="Fill-439" fill="#B8AFDB"></path>
            <path d="M97.5039513,218.418465 L90.788709,215.579454 C88.4270997,214.580986 88.4005785,212.643129 90.7294335,211.251032 L94.0029079,209.294289 C96.3318852,207.902192 100.134439,207.583074 102.496049,208.581542 L109.211291,211.420553 C111.5729,212.418906 111.599422,214.356878 109.270566,215.748975 L105.997092,217.705603 C103.668115,219.097815 99.8655607,219.416933 97.5039513,218.418465 Z" id="Stroke-441" stroke="#FFFFFF" stroke-width="3.146"></path>
            <path d="M105.325102,210.87209 C104.497805,211.142163 103.233786,210.970597 102.502015,210.48892 C101.770133,210.007242 101.847602,209.397877 102.674898,209.127914 C103.502195,208.857841 104.766214,209.029406 105.497985,209.510974 C106.229867,209.992652 106.152398,210.602017 105.325102,210.87209" id="Fill-443" fill="#867BAB"></path>
            <path d="M103,210.334312 C103.718953,206.224846 106.540332,202.410044 109.911332,201.306207 C113.826287,200.024357 117,202.884304 117,207.694209 C117,209.889346 116.338928,212.111139 115.248184,214" id="Stroke-445" stroke="#142B6B" stroke-width="2" stroke-linecap="round" stroke-linejoin="round"></path>
            <line x1="70" y1="235" x2="91" y2="219" id="Stroke-447" stroke="#FFFFFF" stroke-width="3.146"></line>
            <line x1="98" y1="224" x2="87" y2="239" id="Stroke-449" stroke="#FFFFFF" stroke-width="3.146"></line>
            <path d="M117.380112,205.886439 C117.296568,206.088594 116.995228,205.931015 117,205.687176 C117.060905,202.566665 124.317439,195.81134 130.907067,203.652615 C139.106133,213.409062 138.700363,225.67594 145,227.101988 C139.906687,228.238537 139.128106,226.996694 137.022713,225.869782 C139.437534,229.308826 143.525658,230.862576 143.525658,230.862576 C144.132321,231.234238 129.176056,231.672521 127.958263,220.213781 C126.698939,208.363741 119.651265,200.388138 117.380112,205.886439" id="Fill-451" fill="#ED5353"></path>
        </g>
    </g>
</svg>