<svg xmlns="http://www.w3.org/2000/svg" xmlns:xlink="http://www.w3.org/1999/xlink" width="580" height="450" xmlns:v="https://vecta.io/nano"><style><![CDATA[.B{fill:#fff}.C{fill:#ffb575}.D{fill:#27427a}.E{fill:#e69357}.F{fill:#ed5353}.G{stroke-linecap:round}.H{stroke-linejoin:round}.I{stroke:#ffb575}.J{stroke-width:4.335}.K{fill:#e0dcf2}.L{fill:#b8afdb}.M{fill:#169e6f}.N{fill:#1499b2}.O{fill:#1a3482}.P{fill:#51dea0}.Q{fill:#958cba}.R{fill:#223b82}.S{fill:#acacd1}.T{fill:#ba4141}.U{fill:#18ad79}.V{stroke-width:4.651}.W{stroke-width:3.146}]]></style><defs><linearGradient x1="13.82%" y1="40.44%" x2="234.607%" y2="43.807%" id="A"><stop stop-color="#f4f9fd" offset="0"/><stop stop-color="#fff" offset="100%"/></linearGradient><filter x="0" y="0" width="100%" height="100%" id="B"><feGaussianBlur in="SourceGraphic"/></filter><path id="C" d="M510.732 229.266c-8.21-5.013-22.71-5.484-32.386-1.052s-10.862 12.088-2.651 17.101 22.71 5.484 32.386 1.052 10.862-12.088 2.651-17.101"/><path id="D" d="M497.809 271.065l-.133-11.754-47.597-1.549c-.472-.125-19.725 12.672-19.949 12.827l1.846 50.672c.305.012.584-.034.726-.132l63.937-47.616c.705-.561 1.129-1.338 1.17-2.448"/><path id="E" d="m315.61 321.785-12.496-5.607c-4.395-1.971-4.444-5.799-.11-8.548l6.091-3.864c4.335-2.75 11.411-3.38 15.806-1.408l12.497 5.607c4.395 1.972 4.444 5.799.11 8.548l-6.092 3.864c-4.334 2.75-11.41 3.38-15.805 1.408"/></defs><g fill="none" fill-rule="evenodd"><path d="M570 1v286.58L418.574 311l-281.318-26.555-53.76-3.276-36.083-36.036c-44.55-44.51-44.55-116.644.0-161.138L135.521 1H570z" class="B"/><path fill="#9bdbe7" opacity=".4" d="M259 450h-3.137L124 318l3.61.463z"/><path fill="#a5d1da" d="M275 450h-3.132L149 330l3.605.462z"/><g class="N"><path d="M35.845 245.975c-43.614-44.447-43.614-116.756.0-161.187L123 0h-4.435L33.628 82.529c-44.837 45.677-44.837 120.012.0 165.706L43.214 258h4.435l-11.804-12.025z"/><path d="M49 256.5a4.5 4.5.0 11-9 0 4.5 4.5.0 019 0"/></g><path d="M580 0v450H338.527L191.17 335.19l-51.612-50.236-67.337-65.54c-30.961-30.136-30.961-78.984.0-109.12L189.646.0H580z" fill="url(#A)" filter="url(#B)"/><path d="M330.922 197.084s-149.627-45.841-60.405-142.247C326.483-5.635 370.727 79.981 410.03 67.79c51.596-16.005 100.1-26.271 131.137 58.017s-38.53 158.325-106.313 131.313-103.932-60.036-103.932-60.036" opacity=".048" class="N"/><path fill="#ccd2ff" d="m292.341 276.979-24.307 16.196 35.546 8.87 22.107-15.759z"/><path d="m238.79 189.247 19.218-6.178-5.979-7.191z" class="O"/><path d="m381.668 300.245 51.239 21.018 64.54-14.865 73.501-56.585c4.99-3.842 3.22-11.77-2.93-13.117l-121.196-26.56-65.154 90.109z" class="K"/><path fill="#ccd2ff" d="m250.488 263.52.089-82.72 42.913-32.047 15.874-5.461 66.456 40.83-.113 112.91-23.989-6.428v.042z"/><path d="m375.096 184.854 16.847-11.355v-.297l1.428-.666 56.812 2.97v73.766l-45.526 27.862v-.103l-29.673 20z" class="L"/><path fill="#26459e" d="m381.32 92.324 73.876 75.822-78.637 52.016-73.432-77.597z"/><path fill="#4363cc" d="m302.854 141.998-64.064 38.058 117.803-78.21 24.24-10.358z"/><path d="M455.196 167.523v7.28l-78.54 52.879.152-7.948z" class="O"/><g fill="#3b57b3"><path d="m376.478 227.682-75.022-79.46 2.04-5.766 73.16 77.327z"/><path d="m303.963 149.083-65.173 40.164.093-8.729 64.037-38.062zm71.015 151.291.006-6.376-125.327-32.059-.004 4.646z"/></g><path fill="#183078" d="m374.984 299.538.006-6.33 75.167-50.487.026 5.807z"/><path d="m291.517 277.925 30.744 10.751 2.582-1.86.008-62.934-34.434-9.569-2.33 1.393z" class="L"/><path d="M366.966 174.161l41.318-26.768c1.63-1.057 1.127-2.642-1.12-3.523s-5.418-.738-7.049.318l-39.382 25.514c-1.631 1.057-3.326 3.062-1.96 5.49l.354.386c2.246.882 6.208-.36 7.839-1.417" fill="#6f8be8"/><path d="M367.47 175.818l41.642-26.756c1.643-1.056 1.136-2.64-1.128-3.522s-5.461-.737-7.105.319l-41.64 26.755c-1.644 1.056-1.137 2.641 1.127 3.522s5.461.738 7.105-.318" fill="#172e73"/><path d="M517.862 163.345c-.08-6.574-3.504-12.44-8.466-13.85a8.01 8.01.0 00-2.336-.304c-1.616-5.6-5.223-10.025-9.899-11.352-4.78-1.357-9.496.858-12.636 5.3a9.162 9.162.0 00-3.082-1.577c-4.963-1.409-10.086 4.61-6.854 9.5l43.273 12.283zM306.47 101.515c-.06-4.878-2.645-9.23-6.39-10.275a6.14 6.14.0 00-1.763-.227c-1.22-4.154-3.942-7.437-7.47-8.422-3.608-1.007-7.168.636-9.537 3.932a6.962 6.962.0 00-2.327-1.17c-3.745-1.045-7.612 3.42-5.172 7.049l32.658 9.113zm135.358-3.343c-.054-4.453-2.38-8.427-5.751-9.381a5.457 5.457.0 00-1.586-.207c-1.098-3.793-3.548-6.79-6.724-7.69-3.247-.919-6.45.582-8.583 3.59a6.229 6.229.0 00-2.094-1.068c-3.37-.954-6.85 3.123-4.655 6.436l29.393 8.32z" fill="#fffcfa"/><path d="M367.421 163.73c-1.17-.309-8.905-4.597-9.817-5.582-3.206-2.588-5.161-7.092-5.18-13.09-.039-13.163 9.243-28.507 20.733-34.271 5.355-2.687 9.739-3.423 13.725-1.538 2.213.913 8.219 3.781 8.219 3.781 1.13.972-.945 1.65-.18 3.1 1.656 2.584 2.61 6.028 2.623 10.2.04 13.163-9.243 28.507-20.732 34.271-4.84 2.428-5.847 4.53-9.39 3.13" class="E"/><path d="M381.172 163.007c11.767-5.605 21.341-21.22 21.385-34.878s-9.46-20.184-21.228-14.58-21.341 21.221-21.385 34.879 9.46 20.184 21.228 14.58" class="B"/><path d="M382.008 163.843c11.767-5.606 21.34-21.22 21.385-34.878s-9.461-20.185-21.228-14.58-21.342 21.221-21.385 34.878 9.46 20.185 21.228 14.58" class="C"/><path d="M382.032 156.084c8.076-3.942 14.646-14.921 14.676-24.524s-6.492-14.192-14.568-10.251-14.646 14.92-14.676 24.523 6.493 14.193 14.568 10.252" class="B"/><path d="M395.309 131.084c-.03 9.528-6.712 20.421-14.923 24.332-3.273 1.558-6.295 1.77-8.744.86 2.649 1.622 6.215 1.69 10.143-.18 8.212-3.911 14.893-14.804 14.923-24.332.018-5.73-2.373-9.659-6.069-11.032 2.888 1.768 4.686 5.383 4.67 10.352" class="E"/><path d="M382.645 129.46c1.622-.584 3.558-.766 4.872-.154l-1.696 3.701c-1.422-.415-2.64-.406-3.957.233-1.536.745-2.208 1.739-2.18 3.063.06 2.965 7.3-.604 7.408 4.578.058 2.82-1.493 5.55-4.06 7.347l.062 2.965-2.661 1.29-.06-2.907c-1.761.592-3.042.283-4.136-.379l1.98-3.402c1.007.47 1.867.548 3.02-.01 1.316-.64 2.018-1.532 1.991-2.827-.056-2.735-7.293 1.007-7.407-4.491-.057-2.764 1.353-5.599 4.166-7.602l-.062-2.994 2.66-1.29.06 2.878z" class="C"/><path stroke-width="4.333" d="M364.122 130.759l-6.684-3.343m3.342 10.027l-6.685-3.342m5.014 10.862l-6.685-3.342m6.685 10.026l-5.849-3.342m7.52 10.027l-5.849-3.343m13.369-30.915l-6.685-3.342m11.698-1.671l-6.684-3.342m12.533-.836l-5.849-3.342m12.533.836l-6.684-3.343" class="G H I"/><path d="M267.106 143.437c-14.116-5.38-27.068 1.599-28.927 15.59s8.076 29.693 22.192 35.075 26.933-1.51 29.062-15.396c2.34-15.264-8.211-29.888-22.327-35.269" fill="#4a70d6"/><path d="M255.669 149.202c-13.434-5.133-25.758 1.525-27.528 14.87s7.686 28.324 21.119 33.456 25.63-1.44 27.655-14.685c2.227-14.56-7.813-28.508-21.246-33.641" class="O"/><path d="M248.984 154.215c-13.433-5.132-25.757 1.525-27.527 14.87s7.685 28.324 21.118 33.456 25.63-1.44 27.656-14.684c2.226-14.56-7.814-28.51-21.247-33.642" class="P"/><path stroke="#fff" stroke-width="5" d="m233.777 175.16 9.414 14.087 10.64-20.053" class="G H"/><path d="m288.088 280.045 34.531 8.631.561-63.367-35.033-9.325z" class="B"/><path d="m292.265 277.28 25.839 6.383.063-55.77-25.902-6.896z" class="L"/><path fill="#142b6b" d="M314.825 231.07l-19.2-5.06-.018 18.336 19.2 5.06zm-18.385 24.999c-.458-.116-.833-.678-.833-1.248l.004-4.57c0-.569.376-.94.834-.824s.834.678.834 1.248l-.004 4.57c0 .569-.376.94-.834.824"/><path d="m405.93 220.694-.03 29.97 3.088 1.248 15.516-13.479 3.12-28.72-3.09-1.249z" class="Q"/><path d="m409.241 252.748.03-30.263 18.352-12.35-.03 30.263z" class="B"/><path d="m411.748 246.9.023-22.55 14.181-9.201-.023 22.549z" class="R"/><path d="m357.438 232.332-.065 29.475-2.217 1.803-18.275-8.343-3.674-27.94 2.074-1.316z" class="Q"/><path d="m354.931 263.61-.036-29.954-21.688-5.974.036 29.953z" class="B"/><path d="m352.424 259.432-.027-22.987-16.683-4.586.027 22.988z" class="R"/><path d="m282.239 213.115-.065 29.475-2.217 1.803-18.275-8.344-3.674-27.939 2.074-1.317z" class="Q"/><path d="m279.732 243.557-.036-29.954-21.688-5.974.036 29.953z" class="B"/><path d="m277.225 239.38-.027-22.988-16.683-4.586.027 22.988z" class="R"/><path d="m200.443 224.34-5.1 18.983 4.3 7.754 6.561-11.833z" class="S"/><path d="M194.124 271.13c1.554.005 2.854-1.005 2.89-2.243l-1.024-4.604c.036-1.24-.108-.37-1.665-.375s-1.715-1.185-2.308 1.183l-.017 3.502a4.03 4.03 0 0 0 .204 1.34c.276.797.697 1.193 1.92 1.197" class="F"/><path d="M193.397 250.69 192 264.883l4.991.4 2.283-12.387a3.805 3.805.0 00-.312-3.333l-3.723-6.005-1.842 7.134z" class="S"/><path d="M198.802 316.671c4.524-2.49 11.756-2.803 16.155-.698 1.455.696 2.415 1.57 2.888 2.518 4.206-2.127 10.471-2.482 14.767-.898 1.2-.2 2.462-.336 3.769-.395 8.091-.369 14.78 2.292 14.94 5.943s-6.27 6.91-14.362 7.279c-4.702.214-8.927-.596-11.675-2.028-2.936.132-5.858-.315-8.066-1.371-1.455-.696-2.415-1.57-2.888-2.518-4.54 2.295-11.483 2.531-15.754.488-4.399-2.105-4.297-5.83.226-8.32" fill="#eceaf5"/><path d="M218.294 224.34s23.303 7.88 28.016 16.648l-4.375 4.24-27.375-8.67 3.734-12.218z" fill="#c5c5e0"/><path d="M213.022 220.162s3.76.774 3.95 2.494.035 3.355.035 3.355l-11.638-.701.656-4.822 6.997-.326zm-11.581 97.025 5.877-4.757c.9-.366 1.998-.494 3.278-.183.575.14.656-.31.638.249l.657 2.325c.6 1.546-.54 2.566-2.23 3.214l-5.751 2.1c-1.189.483-2.908.354-3.821-.287l-.259-.182c-.912-.64.357-1.668 1.611-2.48" class="D"/><path d="M211.218 312.332c0 1.88-4.177 1.881-4.177.001l-.001-6.11h4.177v6.11z" fill="#596fff"/><path d="M211.727 310.92c-1.739 1.481-3.55 1.529-5.432.17.0.0-5.069-36.169-5.104-54.894l13.369-5.12c-1.067 11.546-3.72 30.555-3.72 30.555 4.474 9.191 1.569 21.055.887 29.29" class="D"/><path d="M214.56 251.077l-3.893 1.436c-.691 6.841-1.867 15.801-2.716 22.009-.553 4.045-.245 8.136.705 12.11 1.974 8.256-.22 17.638-.809 24.5a5.93 5.93 0 0 1-.807.56c1.576.692 3.102.44 4.579-.77.629-7.32 3.082-17.508.357-26.137-.812-2.571-.97-5.299-.599-7.966l3.183-25.742" fill="#223a6b"/><path d="M222.91 316.186c.173 1.78-4.272 2.479-4.445.698l-.563-5.785 4.445-.698.563 5.785z" fill="#596fff"/><path d="M223.322 313.866c-1.915 1.644-3.765 2.015-5.541.937.0.0-1.483-11.959-3.865-24.65-1.844-9.824-4.616-19.64-5.205-27.509l13.05-8.225c-.174 7.033.222 22.471.41 29.093a10.537 10.537.0 001.099 4.394c2.931 5.91.052 25.96.052 25.96" class="D"/><path d="M200.041 256.579c.076-6.46-.372-15.777-1.222-23.838-.625-7.906.58-12.777 11.183-12.573l2.841.805c8.271 4.667 10.45 3.003 10.908 13.44l-.78 21.285c-.118 10.12-23.6 12.772-22.93.881" fill="#c5c5e0"/><path d="m224.586 234.366-.803 21.319c-.071 5.91-8.334 9.278-15.072 8.696 7.686-4.367 12.527-15.434 15.875-30.015" class="S"/><path d="M217.042 222.891s.587 2.846-3.966 5.546c-2.349 1.394-3.462 3.568-3.988 5.346-.308 1.039-.985.575-1.148-.49-.425-2.77-.562-3.574-1.282-5.599-1.164-3.276.255-8.319.455-8.367s9.929 3.564 9.929 3.564" class="B"/><g class="D"><path d="M210.382 221.444s-4 1.506-2.975 5.174l.207 4.406s-3.258-4.808-1.925-9.577 4.693-.003 4.693-.003"/><path d="M208.71 221.282s.808 1.156 1.298 1.376 7.021-2.978 6.141-8.382c-.557-3.422-7.11-2.29-7.11-2.29l-.328 9.296z"/></g><path d="m212.03 225.9-.337.069c-1.138.232-2.256-.523-2.485-1.677l-1.291-6.51c-.23-1.155.514-2.29 1.652-2.523l.337-.068c1.137-.233 2.255.522 2.484 1.676l2.148 6.071c.229 1.155-1.37 2.73-2.508 2.962" class="F"/><path d="M208.71 221.849s2.576-.023 4.179-2.523c0 0-1.505 3.787-3.843 4.178l-.335-1.655z" class="T"/><path d="M214.735 220.997s3.146 3.31-2.305 6.387c0 0-2.079 2.203-2.048 4.475l2.865-2.292c1.052-.811 8.935-5.954 1.488-8.57" class="D"/><g class="F"><path d="M210.468 219.416c-1.165 2.73-3.27 3.22-4.702 1.095s-1.648-6.064-.483-8.794 3.27-3.221 4.701-1.095 1.649 6.063.484 8.794"/><path d="M213.191 218.687c-1.284 2.785-6.414 4.279-7.993 2.11s-.015-7.084 1.27-9.868 3.605-3.284 5.184-1.116 2.824 6.09 1.54 8.874"/></g><g class="D"><path d="M210.93 212.295s-.901 5.546 3.317 7.031c0 0 4.977-2.616 1.706-8.181-2.883-4.906-8.078-1.577-8.078-1.577l3.056 2.727zm-7.007 2.854s.77-2.514 3.952-3.426l-2.386-1.588s-2.548.439-1.566 5.014"/><path d="M212.719 215.149c-.906-1.304-2.99-1.395-6.008-.524-.46.132-.95.18-1.414.064-2.179-.545-2.367-3.173-2.367-3.173-.38-1.77.873-2.497 2.725-2.86l4.822-.943c2.728-.549 5.219 1.697 5.598 3.467l.109.294c.379 1.77-1.614 3.312-3.465 3.675"/></g><path d="M214.448 218.59a1.253 1.253.0 11-2.283-1.035 1.253 1.253.0 012.283 1.035" class="F"/><path d="m218.737 316.874.274 3.791c.032.448.43 2.795.61 3.192.518 1.15 1.383 1.573 2.22 1.583 1.111.014 3.362-2.183 2.586-4.695a679.873 679.873.0 00-1.41-4.496c-1.574.85-3.033 1.199-4.28.625" class="D"/><path d="M206.849 220.142c-.686-.13-1.349-.87-1.48-1.651l2.483.472c.132.781-.317 1.31-1.003 1.179" class="B"/><path d="m227.743 323.074 5.13-6.996c.82-.513 2.384-.779 3.677-.617.58.072.903.453.971 1.053l.197 1.11c.274 1.863.526 2.467-.556 3.144l-6.426 4.018c-1.302 1.183-5.166.848-2.993-1.712" class="D"/><g fill="#e34f4f"><path d="M233.112 317.11s-3.072 3.76-2.634 3.995c1.817.974 5.806-2.889 5.806-2.889s-2.423-1.326-3.172-1.107"/><path d="M235.351 317.912c-.615 1.627-3.05.685-3.389-.993-1.134-9.421-3.979-16.755-5.044-25.562-1.195-9.888-.52-10.082-2.332-25.24l9.012 1.163c-.29 10.954.718 24.745.718 24.745 3.639 10.487 1.137 12.841 1.035 25.887"/></g><path d="M229.6 291.183s1.624 9.462 4.635 11.485-.53-11.083-.53-11.083l-4.106-.402z" class="T"/><path d="M224.67 217.655s-3.608 12.844 3.473 13.35 7.305-9.363 7.305-9.363l-10.778-3.987z" class="D"/><g class="F"><path d="M221.17 268.6c1.295.168 2.457-.569 2.58-1.638l-.501-4.1c.124-1.071-.062-.332-1.36-.501s-1.34-1.209-2.015.78l-.282 3.034c-.037.395-.023.795.068 1.183.17.72.49 1.108 1.51 1.241"/><path d="m222.082 234.782-1.872 11.927s-1.325 4.436-.153 15.536l3.14.53 2.225-14.59-.016-16.205c-1.54-.609-3.107 1.2-3.324 2.802"/></g><path d="m237.142 326.578.266-7.067c.337-.55 1.328-.916 2.332-.853.45.028-.054-.211.288.36l1.19-1.098c1.103 1.765 1.658 1.994 1.75 3.624-.608 2.909-1.59 4.991-2.85 6.46-.355 1.226-3.284 1.181-2.976-1.426" class="D"/><g class="F"><path d="M237.955 319.693s.649 4.088 1.08 4.076c2.156-.06 2.262-3.784 2.262-3.784s-3.018-.634-3.342-.292"/><path d="M241.887 320.18c-.66 1.76-3.446 1.214-3.836-.492-1.342-9.665-3.552-15.41-4.812-24.445-1.414-10.144 2.788-11.067.642-26.62l9.923.201c-.208 11.418-2.934 25.89-2.934 25.89 4.108 10.493.997 11.896 1.017 25.466"/></g><path d="M224.534 253.585s-2.065-.687.51 34.903c0 0 2.382 1.965 8.752 3.303 6.005 1.262 4.764-3.205 9.64-1.776 0 0 1.508-9.281 1.762-12.488s1.394-21.935-3.95-22.309-16.714-1.633-16.714-1.633" fill="#aeaecf"/><path d="M242.713 290.122s1.425-9.197 1.665-12.377 1.317-21.754-3.733-22.124a184.387 184.387 0 0 1-4.152-.366c.483 3.06 1.403 8.071 3.143 16.255 2.318 10.91-.904 17.14-4.188 20.509 4.604-.362 3.18-3.153 7.265-1.897" fill="#9a9ab5"/><path d="M223.777 236.943s-.614-8.279 4.06-8.503c.65-.03 1.693-.698 2.446-.72 3.907-.106 3.357-.043 6.266.803 1.096.318 2.006 3.257 1.923 4.39l1.99 3.227c-6.198 2.432-12.006 3.539-16.685.803" class="F"/><path d="M227.03 227.857a.49.49 0 0 1 .542.683c-.536 1.141-1.286 3.125-1.88 4.758-.559 1.54.496 3.223 2.137 3.346 7.781.581 7.343-9.097 7.607-8.96l1.56.486c8.38 1.82 6.576 4.2 4.91 8.718 0 0-1.84 7.865-1.675 11.023.142 2.73 2.941 6.741 3.48 7.576.697 1.082-2.394 8.457-13.047 8.111-8.39-.272-7.727-3.756-7.921-8.276-.123-2.845.995-10.55.769-12.792s-2.094-3.787-1.185-7.494a44.504 44.504 0 0 1 1.604-5.108 3.056 3.056 0 0 1 2.258-1.902l.841-.169z" class="U"/><path d="m231.587 230.103-.263.053c-.888.178-1.717-.4-1.841-1.287l-.703-4.997c-.125-.886.5-1.757 1.388-1.936l.263-.052c.888-.179 2.248.105 2.373.991l.965 5.285c.125.886-1.294 1.765-2.182 1.943" class="F"/><path d="M228.764 226.374s2.003-.04 3.342-2.034c0 0-1.311 3.011-3.143 3.342l-.2-1.308z" class="T"/><path d="M224.773 219.192s-1.048 5.462 1.821 6.72 3.841-9.928 3.841-9.928l-5.662 3.208z" class="D"/><path d="M233.51 216.514c-.756-1.401-1.97-1.709-3.128-.993-1.095-.54-2.46.083-3.508 1.8-1.46 2.391-1.955 6.282-.853 8.326.48.892 1.288 1.124 2.056 1.184a5.638 5.638.0 002.153-.272c2.513-.806 2.544-.435 3.516-2.027 1.46-2.39.865-5.974-.237-8.018" class="F"/><g class="D"><path d="M232.106 216.639c.782 2.385.807 7.813.915 8.536.0.0 4.582-.07 4.056-5.66-.654-6.96-4.368-3.512-4.368-3.512l-.603.636z"/><path d="M233.97 217.925c-2.734-1.184-4.996-2.122-9.32 1.401-.31-.612.555-2.634 1.457-3.278 1.885-1.345 2.84-2.072 4.87-2.484l.49-.046c2.965-.28 4.515.886 5.1 3.753.052.253.539 1.408.552 1.62l-.942-.335c.106 1.692-.505-.838-2.207-.631"/></g><path d="M227.986 224.312c-.461-.151-.861-.887-.893-1.644l1.669.548c.032.756-.315 1.247-.776 1.096" class="B"/><path d="M243.75 255.292c-.546-.834-2.875-4.921-3.02-7.648-.094-1.786-.649-9.921-.148-12.442-2.169 5.266-2.511 8.626-6.324 9.382.967 8.132.923 16.763-3.823 18.726 9.066 2.051 13.94-7.063 13.315-8.018" fill="#169c6d"/><g class="F"><path d="M232.418 270.046c1.236.534 2.598.179 3.027-.79l.672-3.998c.429-.971.033-.33-1.206-.866s-.984-1.525-2.22.148l-1.146 2.77c-.149.36-.25.74-.27 1.131-.038.726.17 1.184 1.143 1.605"/><path d="M244.91 236.002c-.732-4.365-3.062-5.814-3.062-5.814l-1.387 6.79a26.258 26.258 0 0 0-.195 9.44l.822 5.084c.221 1.372-.085 2.745-.856 3.84l-6.455 9.15 1.78 1.625 8.92-7.22c3.522-2.579 2.57-8.64 2.5-9.666l-2.067-13.23"/></g><path d="M233.203 225.231l-1.009 3.86c-.7 2.527 2.962 3.914 4.128 1.557 1.083-2.188 1.793-5.191 1.602-9.303-.322-6.929-2.337-1.973-2.337-1.973l-2.384 5.859z" class="D"/><path d="M234.611 223.03a1.253 1.253 0 1 1-2.503.112 1.253 1.253 0 0 1 2.503-.112m10.883 23.838c1.025-.18 1.762-1.088 1.638-2.02l-.429-3.236c-.123-.93-1.06-1.545-2.083-1.366s-1.762 1.088-1.638 2.02l.429 3.237c.123.93 1.06 1.544 2.083 1.365" class="F"/><path d="M536.409 240.01c-11.871-6.188-33.913-6.436-49.232-.555s-18.115 15.666-6.244 21.853 33.914 6.437 49.233.555 18.114-15.665 6.243-21.853" class="K"/><path d="M526.938 238.628c.297 1.101-.018 9.399-.542 10.596-.953 3.81-4.503 7.469-10.582 10.222-13.337 6.042-33.75 5.438-45.595-1.35-5.521-3.162-8.555-6.42-8.722-10.548-.23-2.23-.452-8.464-.452-8.464.397-1.37 2.168.022 3.239-1.268 1.759-2.537 4.756-4.891 8.983-6.806 13.337-6.042 33.751-5.437 45.596 1.35 4.988 2.858 7.648 2.724 8.075 6.268" class="E"/><path d="M518.476 227.616c-11.644-7.087-32.208-7.753-45.929-1.487s-15.405 17.09-3.76 24.178 32.207 7.753 45.929 1.487 15.405-17.09 3.76-24.178" class="B"/><path d="M518.476 226.78c-11.644-7.086-32.208-7.752-45.929-1.486s-15.405 17.09-3.76 24.177 32.207 7.753 45.929 1.487 15.405-17.09 3.76-24.177" class="C"/><use xlink:href="#C" class="B"/><path d="M478.38 229.736c9.676-4.47 24.177-3.994 32.388 1.06 3.273 2.016 5.051 4.455 5.396 6.942.274-2.99-1.502-6.02-5.43-8.438-8.212-5.055-22.713-5.53-32.389-1.06-5.819 2.687-8.566 6.551-8.047 10.304.299-3.261 3.035-6.477 8.082-8.808" fill="#f2c97b"/><path d="M483.92 241.443c-1.388-1.051-2.535-2.543-2.585-3.897l4.515-.33c.298 1.35.916 2.337 2.206 3.114 1.505.906 2.826.993 4.124.359 2.907-1.422-4.245-5.666.835-8.15 2.766-1.353 6.244-1.352 9.307-.094l2.907-1.421 2.607 1.57-2.85 1.393c1.465 1.16 1.798 2.346 1.69 3.543l-4.36-.038c-.036-1.038-.39-1.774-1.518-2.454-1.29-.777-2.525-.935-3.795-.314-2.681 1.31 4.64 5.473-.75 8.109-2.71 1.324-6.224 1.488-9.613.124l-2.935 1.436-2.607-1.57 2.822-1.38z" class="C"/><path d="M494.425 256.09l.1 7.52m8.256-7.52l.1 6.685m8.255-8.356l.1 6.684m6.584-10.862l.1 6.685m5.802-10.862l-.006 6.684m-37.639 3.342l.086 6.685m-8.442-8.356l.086 6.684m-7.602-10.026l.079 6.684m-5.939-10.862l.1 6.685" class="G H I J"/><path d="M526.103 225.26c.297 1.1-.019 9.398-.543 10.596-.952 3.809-4.503 7.468-10.581 10.222-13.337 6.041-33.75 5.437-45.596-1.35-5.52-3.163-8.555-6.42-8.722-10.55-.229-2.23-.451-8.462-.451-8.462.396-1.37 2.168.02 3.238-1.269 1.759-2.537 4.756-4.89 8.984-6.806 13.337-6.041 33.75-5.437 45.595 1.35 4.989 2.858 7.649 2.724 8.076 6.268" class="E"/><path d="M517.64 214.248c-11.644-7.087-32.207-7.753-45.929-1.488s-15.405 17.09-3.76 24.178 32.208 7.753 45.929 1.487 15.405-17.09 3.76-24.177" class="B"/><path d="M517.64 213.412c-11.644-7.087-32.207-7.753-45.929-1.487s-15.405 17.09-3.76 24.177 32.208 7.754 45.929 1.488 15.405-17.09 3.76-24.178" class="C"/><path d="M510.732 216.733c-8.21-5.013-22.71-5.484-32.386-1.052s-10.862 12.088-2.651 17.1 22.71 5.485 32.386 1.053 10.862-12.088 2.651-17.101" class="B"/><path d="M478.38 217.203c9.676-4.47 24.177-3.994 32.388 1.06 3.273 2.016 5.051 4.455 5.396 6.942.274-2.99-1.502-6.02-5.43-8.438-8.212-5.055-22.713-5.53-32.389-1.06-5.819 2.687-8.566 6.55-8.047 10.304.299-3.261 3.035-6.477 8.082-8.808" class="E"/><path d="M483.085 228.91c-1.388-1.052-2.535-2.543-2.585-3.897l4.514-.33c.298 1.35.916 2.337 2.206 3.114 1.506.906 2.826.993 4.125.358 2.907-1.421-4.245-5.666.835-8.15 2.766-1.352 6.244-1.352 9.306-.093l2.907-1.421 2.607 1.57-2.85 1.393c1.466 1.16 1.799 2.346 1.69 3.543l-4.36-.038c-.036-1.038-.39-1.774-1.518-2.454-1.29-.777-2.525-.936-3.795-.314-2.681 1.31 4.64 5.472-.75 8.108-2.71 1.325-6.223 1.489-9.612.125l-2.936 1.435-2.606-1.57 2.822-1.38z" class="C"/><path d="M493.59 243.557l.1 7.52m8.255-8.356l.1 6.685m8.255-8.356l.1 6.685m6.585-10.027l.1 6.685m5.801-11.698l-.005 6.684m-37.64 4.178l.086 6.684m-8.441-8.355l.086 6.684m-7.603-10.026l.079 6.684m-5.938-11.697l.1 6.684" class="G H I J"/><path d="M526.103 213.562c.297 1.1-.019 9.398-.543 10.596-.952 3.81-4.503 7.469-10.581 10.222-13.337 6.042-33.75 5.437-45.596-1.35-5.52-3.163-8.555-6.42-8.722-10.549-.229-2.23-.451-8.463-.451-8.463.396-1.37 2.168.021 3.238-1.268 1.759-2.537 4.756-4.891 8.984-6.806 13.337-6.042 33.75-5.438 45.595 1.35 4.989 2.857 7.649 2.723 8.076 6.268" class="E"/><path d="M517.64 202.55c-11.644-7.087-32.207-7.753-45.929-1.487s-15.405 17.09-3.76 24.177 32.208 7.753 45.929 1.488 15.405-17.09 3.76-24.178" class="B"/><path d="M517.64 201.714c-11.644-7.087-32.207-7.752-45.929-1.487s-15.405 17.09-3.76 24.178 32.208 7.753 45.929 1.487 15.405-17.09 3.76-24.178" class="C"/><path d="M510.732 204.2c-8.21-5.013-22.71-5.484-32.386-1.053s-10.862 12.089-2.651 17.102 22.71 5.484 32.386 1.052 10.862-12.089 2.651-17.101" class="B"/><path d="M478.38 204.67c9.676-4.47 24.177-3.995 32.388 1.06 3.273 2.016 5.051 4.454 5.396 6.942.274-2.99-1.502-6.02-5.43-8.438-8.212-5.055-22.713-5.53-32.389-1.06-5.819 2.687-8.566 6.55-8.047 10.303.299-3.26 3.035-6.476 8.082-8.807" class="E"/><path d="M483.085 216.377c-1.388-1.052-2.535-2.543-2.585-3.897l4.514-.33c.298 1.349.916 2.337 2.206 3.114 1.506.906 2.826.993 4.125.358 2.907-1.421-4.245-5.666.835-8.15 2.766-1.352 6.244-1.352 9.306-.093l2.907-1.421 2.607 1.57-2.85 1.393c1.466 1.16 1.799 2.346 1.69 3.543l-4.36-.038c-.036-1.038-.39-1.775-1.518-2.454-1.29-.777-2.525-.936-3.795-.314-2.681 1.31 4.64 5.472-.75 8.108-2.71 1.325-6.223 1.488-9.612.125l-2.936 1.435-2.606-1.57 2.822-1.38z" class="C"/><path d="M493.59 231.024l.1 7.52m8.255-7.52l.1 6.684m8.255-9.191l.1 6.685m6.585-10.027l.1 6.684m5.801-10.862l-.005 6.685m-37.64 3.342l.086 6.684m-8.441-8.355l.086 6.684m-7.603-10.026l.079 6.684m-5.938-10.862l.1 6.684" class="G H I J"/><path d="M526.103 201.029c.297 1.1-.019 9.398-.543 10.596-.952 3.81-4.503 7.468-10.581 10.222-13.337 6.041-33.75 5.437-45.596-1.35-5.52-3.163-8.555-6.42-8.722-10.549-.229-2.23-.451-8.463-.451-8.463.396-1.37 2.168.021 3.238-1.268 1.759-2.537 4.756-4.891 8.984-6.807 13.337-6.041 33.75-5.437 45.595 1.35 4.989 2.858 7.649 2.724 8.076 6.269" class="E"/><path d="M517.64 190.017c-11.644-7.087-32.207-7.753-45.929-1.487s-15.405 17.09-3.76 24.177 32.208 7.753 45.929 1.487 15.405-17.09 3.76-24.177" class="B"/><path d="M517.64 189.181c-11.644-7.087-32.207-7.753-45.929-1.487s-15.405 17.09-3.76 24.178 32.208 7.753 45.929 1.487 15.405-17.09 3.76-24.178" class="C"/><use xlink:href="#C" y="-36.764" class="B"/><path d="M478.38 192.972c9.676-4.47 24.177-3.994 32.388 1.061 3.273 2.015 5.051 4.454 5.396 6.941.274-2.99-1.502-6.02-5.43-8.438-8.212-5.055-22.713-5.53-32.389-1.06-5.819 2.687-8.566 6.551-8.047 10.304.299-3.26 3.035-6.477 8.082-8.808" class="E"/><path d="M483.085 204.68c-1.388-1.052-2.535-2.544-2.585-3.898l4.514-.33c.298 1.35.916 2.337 2.206 3.114 1.506.906 2.826.994 4.125.359 2.907-1.422-4.245-5.666.835-8.15 2.766-1.353 6.244-1.352 9.306-.094l2.907-1.421 2.607 1.57-2.85 1.393c1.466 1.16 1.799 2.346 1.69 3.543l-4.36-.038c-.036-1.038-.39-1.774-1.518-2.454-1.29-.777-2.525-.935-3.795-.314-2.681 1.31 4.64 5.473-.75 8.109-2.71 1.324-6.223 1.488-9.612.124l-2.936 1.436-2.606-1.57 2.822-1.38z" class="C"/><path d="M493.59 219.326l.1 7.52m8.255-8.355l.1 6.684m8.255-8.355l.1 6.684m6.585-10.027l.1 6.685m5.801-11.698l-.005 6.685m-37.64 3.342l.086 6.684m-8.441-8.355l.086 6.684m-7.603-9.191l.079 6.684M463.51 209.3l.1 6.684" class="G H I J"/><path d="m497.809 270.914-.133-14.824-47.617 1.481c-.472-.125-1.037-.102-1.261.053l-71.307 32.901.528 14.85c.073.782.032 1.602.505 1.728l52.89 14.079c.472.126 1.037.102 1.26-.053l63.965-47.76c.704-.562 1.129-1.341 1.17-2.455" class="U"/><use xlink:href="#D" class="M"/><path d="m432.16 305.254 65.558-48.762c.224-.154.022-1.114-.45-1.24l-47.73-13.285c-.473-.126-1.037-.102-1.261.052l-70.695 48.762c-.224.154-.022.381.45.507l52.867 14.019c.473.125 1.037.102 1.261-.053" class="P"/><path d="M427.423 269.991c4.35-2.966 13.392-3.925 20.194-2.142s8.789 5.631 4.438 8.597-13.393 3.926-20.194 2.143-8.79-5.632-4.438-8.598m-6.825 25.276l-20.158-5.353c2.066-1.977.996-4.273-2.601-5.682l46.97-32.447c4.546.754 9.823.144 13.038-1.528l20.157 5.354c-2.114 2.023-.94 4.38 2.863 5.778l-46.914 32.408c-4.615-.838-10.065-.24-13.355 1.47zm-30.124-7.18c.48.57 1.391 1.067 2.547 1.373l33.563 8.914a9.786 9.786 0 0 0 3.123.307c.835-.06 1.548-.248 1.995-.556l56.422-38.977c.557-.384.647-.93.249-1.496-.01-.013-.023-.026-.033-.04l.08-.055-.16-.043c-.481-.57-1.392-1.066-2.548-1.373l-33.562-8.914c-1.96-.52-4.16-.411-5.118.25l-56.422 38.976c-.507.35-.623.834-.34 1.345l-.246.17.45.119z" class="M"/><path d="m377.49 298.806 52.452 13.155c1.773.465 4.057-.621 5.539-1.69l62.328-46.66" stroke="#51dea0" class="G H V"/><path d="m497.809 250.861-.133-14.824-47.617 1.481c-.472-.125-1.037-.102-1.261.053l-71.307 32.901.528 14.85c.073.782.032 1.602.505 1.728l52.89 14.079c.472.126 1.037.102 1.26-.053l63.965-47.76c.704-.562 1.129-1.342 1.17-2.455" class="U"/><use xlink:href="#D" y="-20.053" class="M"/><path d="m432.16 285.201 65.558-48.762c.224-.154.022-1.114-.45-1.24l-47.73-13.286c-.473-.125-1.037-.101-1.261.053l-70.695 48.762c-.224.154-.022.381.45.506l52.867 14.02c.473.125 1.037.101 1.261-.053" class="P"/><path d="M427.423 249.103c4.35-2.966 13.392-3.926 20.194-2.143s8.789 5.632 4.438 8.598-13.393 3.925-20.194 2.143-8.79-5.632-4.438-8.598m-6.825 26.111l-20.158-5.353c2.066-1.977.996-4.273-2.601-5.682l46.97-32.447c4.546.754 9.823.144 13.038-1.528l20.157 5.354c-2.114 2.023-.94 4.38 2.863 5.778l-46.914 32.408c-4.615-.838-10.065-.24-13.355 1.47zm-30.124-7.18c.48.57 1.391 1.067 2.547 1.373l33.563 8.914a9.786 9.786 0 0 0 3.123.307c.835-.06 1.548-.248 1.995-.556l56.422-38.977c.557-.384.647-.93.249-1.496-.01-.013-.023-.026-.033-.04l.08-.055-.16-.043c-.481-.57-1.392-1.066-2.548-1.373l-33.562-8.914c-1.96-.52-4.16-.412-5.118.25L390.61 266.4c-.507.35-.623.833-.34 1.345l-.246.17.45.119z" class="M"/><path d="m377.49 278.753 52.452 13.155c1.773.465 4.057-.622 5.539-1.69l62.328-46.661" stroke="#51dea0" class="G H V"/><path d="M550.613 284.294c-11.871-6.188-33.913-6.436-49.232-.555s-18.114 15.666-6.243 21.853 33.913 6.436 49.232.555 18.114-15.666 6.243-21.853" class="K"/><path d="M540.307 282.912c.297 1.101-.018 9.398-.543 10.596-.952 3.81-4.503 7.469-10.581 10.222-13.337 6.042-33.75 5.437-45.595-1.35-5.521-3.163-8.556-6.42-8.723-10.549-.228-2.23-.451-8.463-.451-8.463.396-1.37 2.168.021 3.239-1.268 1.758-2.537 4.756-4.891 8.983-6.806 13.337-6.042 33.75-5.438 45.596 1.35 4.988 2.857 7.648 2.724 8.075 6.268" class="E"/><path d="M532.68 271.9c-11.644-7.087-32.207-7.753-45.929-1.487s-15.405 17.09-3.76 24.177 32.207 7.754 45.929 1.488 15.405-17.09 3.76-24.178" class="B"/><path d="M532.68 271.065c-11.644-7.087-32.207-7.753-45.929-1.488s-15.405 17.09-3.76 24.178 32.207 7.753 45.929 1.487 15.405-17.09 3.76-24.177" class="C"/><path d="M524.937 273.55c-8.211-5.013-22.711-5.484-32.386-1.052s-10.863 12.088-2.652 17.1 22.71 5.485 32.386 1.053 10.863-12.088 2.652-17.101" class="B"/><path d="M492.584 274.02c9.676-4.47 24.177-3.994 32.388 1.06 3.274 2.016 5.052 4.455 5.396 6.942.274-2.99-1.502-6.02-5.43-8.438-8.212-5.055-22.712-5.53-32.388-1.06-5.82 2.687-8.567 6.55-8.048 10.304.3-3.261 3.035-6.477 8.082-8.808" fill="#f2c97b"/><path d="M497.289 285.727c-1.388-1.052-2.535-2.543-2.585-3.897l4.514-.33c.298 1.35.916 2.337 2.206 3.114 1.506.906 2.827.993 4.125.358 2.907-1.421-4.245-5.666.835-8.15 2.766-1.352 6.244-1.352 9.306-.093l2.907-1.421 2.607 1.57-2.85 1.393c1.466 1.16 1.8 2.346 1.69 3.543l-4.359-.038c-.036-1.038-.39-1.774-1.519-2.454-1.29-.777-2.525-.936-3.795-.314-2.68 1.31 4.64 5.472-.75 8.108-2.71 1.325-6.223 1.489-9.612.125l-2.935 1.435-2.607-1.57 2.822-1.38z" class="C"/><path d="M508.629 300.374l.1 7.52m8.256-7.52l.1 6.684m8.255-9.191l.1 6.685m6.585-10.027l.1 6.685m5.801-10.863l-.005 6.685m-38.476 3.342l.086 6.684m-7.606-8.355l.086 6.684m-7.602-10.026l.079 6.684m-5.938-10.862l.1 6.684" class="G H I J"/><path d="M539.472 269.543c.297 1.101-.019 9.399-.543 10.597-.953 3.809-4.503 7.468-10.582 10.221-13.336 6.042-33.75 5.438-45.595-1.349-5.52-3.163-8.555-6.42-8.722-10.55-.229-2.23-.452-8.463-.452-8.463.397-1.369 2.168.022 3.24-1.268 1.758-2.537 4.755-4.891 8.983-6.806 13.337-6.042 33.75-5.437 45.595 1.35 4.988 2.858 7.649 2.724 8.076 6.268" class="E"/><path d="M531.845 258.531c-11.645-7.087-32.208-7.753-45.93-1.487s-15.405 17.09-3.76 24.178 32.208 7.753 45.93 1.487 15.404-17.09 3.76-24.178" class="B"/><path d="M531.845 257.696c-11.645-7.087-32.208-7.753-45.93-1.487s-15.405 17.09-3.76 24.177 32.208 7.753 45.93 1.487 15.404-17.09 3.76-24.177" class="C"/><path d="M524.101 261.016c-8.21-5.012-22.71-5.483-32.386-1.051s-10.863 12.088-2.652 17.1 22.711 5.485 32.386 1.053 10.863-12.089 2.652-17.102" class="B"/><path d="M491.749 261.487c9.676-4.47 24.176-3.995 32.388 1.06 3.273 2.016 5.051 4.454 5.395 6.942.274-2.99-1.501-6.02-5.43-8.438-8.211-5.055-22.712-5.53-32.388-1.06-5.819 2.687-8.566 6.55-8.047 10.303.299-3.26 3.035-6.476 8.082-8.807" class="E"/><path d="M496.453 273.194c-1.387-1.052-2.535-2.543-2.584-3.897l4.514-.33c.298 1.349.916 2.337 2.206 3.114 1.505.906 2.826.993 4.124.358 2.907-1.421-4.245-5.666.835-8.15 2.766-1.352 6.244-1.352 9.307-.093l2.907-1.421 2.607 1.57-2.85 1.393c1.465 1.16 1.799 2.346 1.69 3.543l-4.36-.038c-.036-1.038-.39-1.775-1.518-2.454-1.29-.777-2.525-.936-3.795-.315-2.681 1.311 4.64 5.473-.75 8.11-2.71 1.324-6.223 1.487-9.613.124l-2.935 1.435-2.607-1.57 2.822-1.38z" class="C"/><path d="M507.794 287.005l.1 7.52m8.255-7.52l.1 6.685m8.256-8.356l.1 6.685m6.584-10.027l.1 6.684m5.802-11.697l-.006 6.684m-38.475 3.342l.086 6.685m-7.606-8.356l.086 6.685m-7.603-9.191l.08 6.684m-5.939-11.698l.1 6.685" class="G H I J"/><g class="K"><path d="m344.085 315.025 17.257 12.086 3.616-10.684-22.56-6.026z"/><path d="m344.055 310.91-.307-.085c-.188-1.412-1.284-2.716-3.292-3.628l-12.477-5.663c-4.388-1.992-11.453-1.355-15.78 1.422l-6.082 3.903c-2.607 1.673-3.622 3.74-3.06 5.556-.57 1.942.488 3.86 3.17 5.078l1.384.628-25.372 19.13.274 3.062 4.434 2.08 7.194-2.41 22.366-16.864 2.083.578-14.508 18.823v3.999l5.332 1.481 5.71-2.741 14.3-18.553 3.73 1.037c4.19 1.163 9.718-.661 12.35-4.075l1.37-1.778c1.295-1.68 1.645-3.432 1.169-4.917.78-2.673-.705-5.15-3.988-6.063"/></g><g fill="#867bab"><path d="M330.713 326.77 313.151 322c-4.17-1.132-5.427-4.744-2.807-8.067l1.365-1.731c2.62-3.323 8.124-5.099 12.294-3.967l17.563 4.77c4.17 1.132 5.426 4.744 2.806 8.067l-1.364 1.731c-2.62 3.323-8.125 5.1-12.295 3.967"/><path d="m312.46 344.41-5.69 2.754-5.314-1.487v-4.018l19.308-21.232 8.265 2.314z"/></g><g fill="#988fba"><path d="m330.713 323.428-17.562-4.77c-4.17-1.132-5.427-4.744-2.807-8.067l1.365-1.731c2.62-3.323 8.124-5.1 12.294-3.967l17.563 4.77c4.17 1.132 5.426 4.744 2.806 8.067l-1.364 1.731c-2.62 3.323-8.125 5.1-12.295 3.967"/><path d="m312.46 340.233-5.69 2.754-5.314-1.488 19.308-25.25 8.265 2.315z"/></g><g fill="#a9a1c9"><use xlink:href="#E"/><path d="m290.917 338.949-7.266 2.367-4.478-2.043-.276-3.004 33.976-21.69 6.965 3.177z"/></g><g class="L"><path d="m291.315 335.607-7.167 2.366-4.416-2.042 33.236-24.695 6.87 3.178z"/><use xlink:href="#E" y="-1.671"/></g><path d="m317.45 316.29-8.67-3.882c-3.05-1.365-3.085-4.015-.077-5.918l4.227-2.675c3.007-1.904 7.917-2.34 10.967-.975l8.671 3.882c3.05 1.365 3.084 4.015.077 5.918l-4.227 2.675c-3.008 1.904-7.918 2.34-10.967.975z" stroke="#fff" class="W"/><path d="M328.878 306.063c-1.21.338-3.058.123-4.128-.48s-.957-1.368.253-1.707 3.058-.123 4.128.48.957 1.368-.253 1.707" fill="#867bab"/><path d="M326.523 305.089c.9-5.019 4.437-9.677 8.662-11.025 4.906-1.566 8.884 1.927 8.884 7.8.0 2.681-.829 5.394-2.196 7.701" stroke="#142b6b" stroke-width="2" class="G H"/><path stroke="#fff" d="M282.239 337.138l27.573-20.053m10.026 6.684l-15.04 18.382" class="W"/><path d="M343.733 299.793c-.11.267-.506.059-.5-.263.08-4.122 9.608-13.043 18.26-2.687 10.766 12.885 10.233 29.086 18.504 30.97-6.687 1.5-7.71-.14-10.474-1.628 3.17 4.542 8.539 6.594 8.539 6.594.796.49-18.841 1.07-20.44-14.064-1.654-15.65-10.907-26.184-13.89-18.922" class="F"/><path d="M286.465 450 171 335.095l15.333-.032L223.01 335l115.517 115z" class="N"/></g></svg>