<svg xmlns="http://www.w3.org/2000/svg" xmlns:xlink="http://www.w3.org/1999/xlink" width="294" height="243" xmlns:v="https://vecta.io/nano"><style><![CDATA[.B{fill:#fff}.C{fill:#ffb575}.D{fill:#27427a}.E{fill:#e69357}.F{fill:#ed5353}.G{stroke-linecap:round}.H{stroke-linejoin:round}.I{stroke:#ffb575}.J{stroke-width:4.335}.K{fill:#e0dcf2}.L{fill:#b8afdb}.M{fill:#169e6f}.N{fill:#1a3482}.O{fill:#51dea0}.P{fill:#958cba}.Q{fill:#223b82}.R{fill:#acacd1}.S{fill:#ba4141}.T{fill:#18ad79}.U{stroke-width:4.651}.V{stroke-width:3.146}]]></style><g fill="none" fill-rule="evenodd"><path d="M106.624 126.397S-9.02 91.085 59.938 16.822c43.255-46.583 77.45 19.369 107.827 9.977 39.878-12.329 77.365-20.237 101.353 44.692s-29.779 121.961-82.167 101.153-80.327-46.247-80.327-46.247" fill="#1499b2" opacity=".048"/><path fill="#ccd2ff" d="M76.972 188L58 200.922 85.745 208 103 195.426z"/><path d="M36 121l15-4.621L46.333 111z" class="N"/><path d="M146 205.735L185.46 222l49.704-11.503 56.606-43.791c3.843-2.973 2.479-9.108-2.257-10.151L196.176 136 146 205.735z" class="K"/><path fill="#ccd2ff" d="M45 177.061l.069-64.028 33.212-24.806L90.567 84 142 115.605 141.913 203l-18.566-4.975v.032z"/><path d="M141.086 116.499l12.994-8.756v-.229l1.102-.514L199 109.291v56.881l-35.114 21.485v-.079L141 203z" class="L"/><path fill="#26459e" d="M145.161 46L202 104.718 141.497 145 85 84.908z"/><path fill="#4363cc" d="M85.612 84.35L36 114l91.228-60.931L146 45z"/><path d="M203 104v5.566L143 150l.117-6.077z" class="N"/><g fill="#3b57b3"><path d="M142.863 150L85 88.466 86.573 84 143 143.883z"/><path d="M87 89.24L37 121l.071-6.902L86.2 84zM140.995 206l.005-4.811L44.004 177 44 180.505z"/></g><path fill="#183078" d="M141 206l.005-4.903L198.98 162l.02 4.497z"/><path d="M76.612 188.759L100.027 197l1.966-1.426.007-48.239L75.774 140 74 141.068z" class="L"/><path d="M134.822 109.683l32.426-20.536c1.28-.811.885-2.027-.878-2.703s-4.253-.566-5.532.244l-30.908 19.574c-1.28.811-2.61 2.349-1.538 4.212l.278.296c1.763.676 4.872-.277 6.152-1.087" fill="#6f8be8"/><path d="M135.102 110.323l32.153-20.224c1.269-.798.877-1.996-.871-2.662s-4.217-.558-5.486.241l-32.153 20.224c-1.269.798-.877 1.996.871 2.662s4.217.558 5.486-.241" fill="#172e73"/><path d="M251 100c-.061-5.076-2.69-9.606-6.5-10.693-.602-.172-1.202-.246-1.793-.235-1.241-4.324-4.01-7.74-7.6-8.765-3.67-1.048-7.291.662-9.702 4.092a7.02 7.02 0 0 0-2.366-1.218c-3.81-1.088-7.744 3.559-5.262 7.336L251 100zM89 53c-.047-3.807-2.057-7.204-4.971-8.02a4.76 4.76 0 0 0-1.371-.177c-.949-3.243-3.067-5.805-5.812-6.574-2.806-.786-5.575.497-7.419 3.069a5.41 5.41 0 0 0-1.81-.914c-2.914-.816-5.922 2.669-4.024 5.502L89 53zm104-3c-.041-3.553-1.82-6.724-4.397-7.485a4.01 4.01 0 0 0-1.213-.165c-.839-3.027-2.713-5.418-5.141-6.136-2.483-.733-4.932.464-6.563 2.865a4.7 4.7 0 0 0-1.601-.853c-2.577-.761-5.239 2.491-3.56 5.135L193 50z" fill="#fffcfa"/><path d="M135.301 100.654c-.882-.238-6.711-3.531-7.398-4.288-2.416-1.987-3.889-5.447-3.903-10.055-.03-10.11 6.965-21.896 15.623-26.324 4.036-2.064 7.339-2.629 10.343-1.181 1.668.701 6.193 2.904 6.193 2.904.851.746-.712 1.268-.135 2.381 1.248 1.985 1.966 4.631 1.976 7.835.03 10.11-6.965 21.896-15.623 26.324-3.646 1.865-4.406 3.48-7.076 2.404" class="E"/><path d="M146.439 100.422c9.113-4.403 16.527-16.667 16.561-27.394s-7.327-15.853-16.439-11.451S130.034 78.245 130 88.971s7.326 15.853 16.439 11.451" class="B"/><path d="M147.439 100.422c9.113-4.402 16.527-16.667 16.561-27.394s-7.327-15.853-16.439-11.451S131.034 78.245 131 88.971s7.326 15.854 16.439 11.451" class="C"/><path d="M147.458 94.911c6.351-3.04 11.519-11.508 11.542-18.915s-5.106-10.946-11.458-7.907S136.024 79.598 136 87.004s5.106 10.946 11.458 7.907" class="B"/><path d="M157.883 75.885c-.024 7.256-5.355 15.553-11.907 18.531-2.612 1.187-5.022 1.349-6.977.656 2.113 1.235 4.959 1.287 8.093-.138 6.552-2.978 11.883-11.275 11.907-18.531.014-4.364-1.894-7.356-4.842-8.402 2.304 1.346 3.738 4.1 3.726 7.885" class="E"/><path d="M147.251 74.223c1.248-.45 2.737-.591 3.749-.118l-1.305 2.858c-1.094-.321-2.031-.314-3.044.179-1.182.575-1.699 1.343-1.678 2.366.047 2.289 5.618-.467 5.7 3.534.045 2.178-1.148 4.285-3.123 5.673l.047 2.289-2.047.996-.046-2.245c-1.355.457-2.34.218-3.182-.292l1.523-2.627c.775.364 1.437.423 2.323-.008 1.013-.493 1.553-1.182 1.532-2.183-.043-2.111-5.611.778-5.699-3.468-.044-2.134 1.041-4.323 3.205-5.87l-.048-2.312 2.047-.996.046 2.223z" class="C"/><path d="M132 75l-5-2m3 7l-5-2m4 9l-5-2m4 7l-4-2m6 6l-4-2m9-24l-5-2m10-2l-5-2m9-1l-4-2m9-1l-5-2" stroke-width="4.333" class="G H I"/><path d="M57.509 84.405c-10.9-4.161-20.9 1.236-22.336 12.056s6.236 22.964 17.135 27.125 20.797-1.168 22.44-11.906c1.806-11.804-6.34-23.113-17.24-27.275" fill="#4a70d6"/><use xlink:href="#B" class="N"/><use xlink:href="#B" x="-5" y="5" class="O"/><path stroke="#fff" stroke-width="5" d="M32 109.761L39.511 121 48 105" class="G H"/><path d="M74 190.35l26.568 6.65.432-48.817L74.045 141z" class="B"/><path d="M77 188.111L96.951 193 97 150.282 77 145z" class="L"/><path d="M95 152.892L80.014 149 80 163.107 94.986 167zm-14.501 19.092c-.274-.087-.499-.507-.499-.933l.002-3.418c0-.426.225-.704.5-.617s.499.507.499.933l-.002 3.418c0 .426-.225.704-.5.617" fill="#142b6b"/><path d="M165.024 145.289L165 168.051l2.417.949 12.142-10.238L182 136.949l-2.417-.949z" class="P"/><path d="M167 170l.025-23.436L182 137l-.025 23.436z" class="B"/><path d="M169 165l.018-17.045L180 141l-.018 17.045z" class="Q"/><path d="M127 153.876l-.051 22.734-1.739 1.39-14.33-6.435L108 150.016l1.627-1.016z" class="P"/><path d="M125 178l-.028-23.344L108 150l.028 23.344z" class="B"/><path d="M123 174l-.021-17.508L110 153l.021 17.508z" class="Q"/><path d="M70 138.876l-.051 22.734-1.739 1.39-14.33-6.435L51 135.016 52.627 134z" class="P"/><path d="M68 163l-.028-23.344L51 135l.028 23.344z" class="B"/><path d="M66 159l-.021-17.508L53 138l.021 17.508z" class="Q"/><path d="M5.757 147L2 161.91 5.168 168 10 158.706z" class="R"/><path d="M1.695 183c1.24.004 2.277-.802 2.305-1.789l-.816-3.674c.028-.99-.087-.295-1.328-.299h0c-1.24-.004-1.369-.945-1.842.943L0 180.976a3.21 3.21 0 0 0 .163 1.069c.22.636.556.952 1.532.955" class="F"/><path d="M1.115 168.582L0 179.688l3.982.312 1.822-9.693c.331-.866.239-1.836-.25-2.608L2.584 163l-1.469 5.582z" class="R"/><path d="M5.658 218.714c3.475-2.039 9.03-2.295 12.409-.572 1.118.57 1.855 1.286 2.218 2.062 3.231-1.741 8.043-2.032 11.343-.735.921-.164 1.891-.275 2.895-.324 6.215-.302 11.353 1.877 11.476 4.867s-4.817 5.658-11.032 5.96c-3.611.175-6.856-.488-8.968-1.66-2.255.108-4.499-.258-6.195-1.123-1.118-.57-1.855-1.286-2.218-2.062-3.487 1.879-8.82 2.072-12.101.399-3.379-1.723-3.301-4.773.174-6.813" fill="#eceaf5"/><path d="M20.823 148S38.437 154.036 42 160.752L38.693 164 18 157.359 20.823 148z" fill="#c5c5e0"/><path d="M16.889 145s2.893.529 3.039 1.706.027 2.294.027 2.294L11 148.521l.505-3.297 5.384-.223zM7.38 219.673l4.22-3.416c.647-.263 1.435-.355 2.354-.131.413.1.471-.223.458.178l.471 1.67c.432 1.111-.387 1.843-1.601 2.308l-4.13 1.508c-.854.347-2.088.254-2.744-.206l-.186-.13c-.655-.46.256-1.198 1.157-1.781" class="D"/><path d="M15 215.875c0 1.5-2.999 1.5-2.999.001L12 211.001l2.999-.001.001 4.875z" fill="#596fff"/><path d="M15.881 214.113c-1.301 1.141-2.655 1.178-4.063.13 0 0-3.792-27.87-3.818-42.298L18 168c-.798 8.896-2.782 23.543-2.782 23.543 3.347 7.083 1.173 16.225.664 22.569" class="D"/><path d="M18 168l-3.106 1.106c-.552 5.272-1.489 12.176-2.167 16.959-.441 3.117-.195 6.269.562 9.331 1.575 6.362-.175 13.592-.646 18.879a4.81 4.81 0 0 1-.644.431c1.257.533 2.475.339 3.654-.594.502-5.64 2.459-13.49.285-20.139-.648-1.982-.773-4.083-.478-6.139C16.17 182.904 17.394 174.1 18 168" fill="#223a6b"/><path d="M23.996 218.616c.138 1.42-3.409 1.978-3.547.557L20 214.557l3.547-.557.449 4.616z" fill="#596fff"/><path d="M23.965 216.807c-1.568 1.267-3.083 1.553-4.537.722 0 0-1.214-9.215-3.165-18.995-1.51-7.57-3.78-15.133-4.262-21.196L22.687 171c-.143 5.42.182 17.315.336 22.418.036 1.192.348 2.34.9 3.386 2.401 4.555.043 20.004.043 20.004" class="D"/><path d="M6.083 171.96c.061-4.96-.297-12.113-.976-18.302-.499-6.07.463-9.81 8.923-9.653l2.267.618c6.6 3.583 8.338 2.305 8.703 10.318l-.622 16.343c-.095 7.77-18.83 9.806-18.296.676" fill="#c5c5e0"/><path d="M25 155l-.658 16.301c-.058 4.52-6.824 7.094-12.342 6.649 6.294-3.339 10.258-11.801 13-22.95" class="R"/><path d="M19.982 146.607s.433 2.081-2.921 4.057c-1.73 1.019-2.549 2.609-2.937 3.91-.227.76-.725.42-.845-.359-.313-2.026-.413-2.614-.944-4.095-.858-2.396.188-6.084.335-6.12s7.313 2.607 7.313 2.607" class="B"/><g class="D"><path d="M15 145.629s-3.192 1.159-2.374 3.981l.165 3.39s-2.599-3.699-1.536-7.368 3.745-.003 3.745-.003"/><path d="M13 144.979s.644.851 1.035 1.013 5.602-2.194 4.9-6.173c-.445-2.521-5.673-1.687-5.673-1.687L13 144.979z"/></g><path d="M16.108 148.918l-.252.051c-.851.171-1.687-.384-1.859-1.235l-.966-4.795c-.171-.85.385-1.686 1.236-1.858l.252-.051c.851-.171 1.687.384 1.859 1.235l1.606 4.471c.171.85-1.025 2.01-1.876 2.181" class="F"/><path d="M13 145.811s1.849-.016 3-1.811c0 0-1.081 2.719-2.759 3L13 145.811z" class="S"/><path d="M17.473 145s2.511 2.437-1.839 4.704c0 0-1.659 1.622-1.634 3.296l2.286-1.689c.839-.597 7.129-4.385 1.187-6.311" class="D"/><g class="F"><path d="M13.439 144.265c-.871 1.961-2.446 2.313-3.517.786s-1.233-4.354-.362-6.315 2.446-2.313 3.517-.786 1.233 4.354.362 6.315"/><path d="M16.594 143.647c-.978 2.083-4.885 3.2-6.088 1.578s-.011-5.299.967-7.382 2.746-2.457 3.949-.835 2.151 4.556 1.173 6.639"/></g><g class="D"><path d="M15.327 138.822s-.687 4.085 2.526 5.178c0 0 3.791-1.927 1.3-6.026-2.196-3.613-6.152-1.162-6.152-1.162l2.327 2.009zM9.162 141s.554-2.005 2.838-2.733L10.287 137s-1.83.35-1.125 4"/><path d="M16.373 141c-.677-1.04-2.236-1.113-4.494-.418-.344.106-.711.144-1.058.052-1.63-.435-1.77-2.532-1.77-2.532-.284-1.412.653-1.993 2.038-2.282l3.607-.753c2.041-.438 3.904 1.354 4.188 2.766l.081.234c.283 1.412-1.207 2.643-2.592 2.932"/></g><path d="M17.91 143.413a1 1 0 0 1-1.323.498 1 1 0 0 1-.498-1.324 1 1 0 0 1 1.323-.497 1 1 0 0 1 .498 1.323" class="F"/><path d="M21 218.476l.187 2.887c.022.341.295 2.128.417 2.431.355.876.946 1.198 1.519 1.206.76.01 2.299-1.663 1.768-3.576L23.927 218c-1.077.647-2.074.913-2.927.476" class="D"/><path d="M11.181 143.988c-.547-.078-1.076-.52-1.181-.988l1.982.282c.105.468-.254.784-.801.706" class="B"/><path d="M27.479 223.348l3.778-4.884c.604-.358 1.756-.544 2.708-.431a.76.76 0 0 1 .715.735l.145.775c.202 1.301.388 1.723-.409 2.195l-4.732 2.805c-.959.826-3.805.592-2.205-1.195" class="D"/><g fill="#e34f4f"><path d="M31.831 219.018s-2.101 2.701-1.802 2.869c1.243.699 3.971-2.074 3.971-2.074s-1.657-.952-2.169-.795"/><path d="M33.283 219.342c-.474 1.268-2.347.534-2.608-.773-.872-7.338-3.061-13.05-3.881-19.91-.92-7.702-.4-7.853-1.794-19.66l6.934.906c-.223 8.532.552 19.274.552 19.274 2.8 8.168.875 10.002.797 20.163"/></g><path d="M29 199s1.111 7.28 3.17 8.837-.362-8.528-.362-8.528L29 199z" class="S"/><path d="M24.707 143s-2.776 9.608 2.672 9.986S33 145.982 33 145.982L24.707 143z" class="D"/><g class="F"><path d="M22.147 180.982c.93.126 1.764-.425 1.853-1.225l-.36-3.066c.089-.801-.045-.249-.977-.375h0c-.93-.126-.962-.904-1.447.583l-.202 2.27c-.026.295-.017.595.049.885.122.539.352.829 1.084.928"/><path d="M23.716 155.269l-1.28 9.259s-.906 3.444-.105 12.061l2.148.411L26 165.674l-.011-12.58c-1.053-.473-2.125.931-2.273 2.175"/></g><path d="M36.016 226.376l.182-5.205c.231-.405.908-.674 1.595-.629.308.021-.037-.155.197.265l.814-.808c.755 1.3 1.135 1.468 1.197 2.668-.416 2.143-1.087 3.676-1.949 4.758-.244.903-2.247.87-2.036-1.05" class="D"/><g class="F"><path d="M36 221.073s.388 2.936.647 2.927c1.289-.043 1.353-2.718 1.353-2.718s-1.806-.455-2-.21"/><path d="M37.589 221.157c-.487 1.371-2.538.946-2.825-.383-.988-7.528-2.616-12.003-3.544-19.04-1.042-7.901 2.053-8.62.473-20.733l7.308.156c-.153 8.893-2.161 20.165-2.161 20.165 3.025 8.172.734 9.266.749 19.835"/></g><path d="M25.613 170.001s-1.616-.518.399 26.335c0 0 1.864 1.483 6.849 2.492 4.699.952 3.728-2.418 7.544-1.34l1.378-9.422s1.091-16.551-3.091-16.832-13.079-1.233-13.079-1.233" fill="#aeaecf"/><path d="M39.533 197.556l1.268-9.427c.183-2.422 1.003-16.568-2.843-16.85L34.796 171c.368 2.331 1.069 6.148 2.394 12.38 1.766 8.31-.688 13.054-3.189 15.62 3.506-.275 2.421-2.401 5.533-1.444" fill="#9a9ab5"/><path d="M25.021 156.821s-.478-6.097 3.158-6.262c.506-.023 1.318-.515 1.903-.53 3.039-.078 2.612-.032 4.874.591.853.235 1.56 2.399 1.496 3.233L38 156.23c-4.821 1.791-9.34 2.606-12.979.591" class="F"/><path d="M26.874 150.137a.38.38 0 0 1 .424.532c-.419.889-1.006 2.436-1.47 3.709-.438 1.2.387 2.512 1.672 2.607 6.089.453 5.746-7.09 5.953-6.983l1.221.38c6.557 1.418 5.145 3.273 3.842 6.794 0 0-1.44 6.13-1.311 8.591.112 2.128 2.302 5.253 2.723 5.904.546.843-1.873 6.591-10.209 6.322-6.565-.212-6.046-2.928-6.198-6.45-.096-2.217.779-8.221.602-9.969s-1.638-2.951-.927-5.84a34.58 34.58 0 0 1 1.255-3.981 2.39 2.39 0 0 1 1.767-1.482l.658-.132z" class="T"/><path d="M30.253 151.939l-.21.038c-.709.128-1.37-.288-1.469-.924l-.561-3.588c-.1-.636.399-1.262 1.107-1.39l.21-.038c.709-.128 1.794.076 1.893.712l.771 3.795c.099.636-1.033 1.268-1.741 1.396" class="F"/><path d="M28 149.218s1.199-.025 2-1.218c0 0-.785 1.802-1.881 2l-.119-.782z" class="S"/><path d="M25.128 144.239s-.717 3.814 1.245 4.692S29 142 29 142l-3.872 2.239z" class="D"/><path d="M32.16 142.051c-.575-1.078-1.499-1.315-2.382-.764-.834-.415-1.873.064-2.671 1.385-1.112 1.839-1.489 4.833-.65 6.406.366.687.982.865 1.566.911.547.043 1.105-.037 1.64-.21 1.914-.62 1.938-.334 2.678-1.559 1.111-1.839.658-4.596-.181-6.169" class="F"/><g class="D"><path d="M31 142.04c.624 1.665.644 5.455.73 5.96 0 0 3.656-.048 3.236-3.952-.522-4.859-3.486-2.452-3.486-2.452l-.481.444z"/><path d="M31.739 143.042c-1.964-.81-3.588-1.451-6.692.958-.223-.419.398-1.802 1.046-2.242 1.354-.92 2.039-1.417 3.497-1.699l.353-.032c2.129-.191 3.242.606 3.663 2.567.037.172.387.962.396 1.107l-.677-.228c.076 1.157-.362-.573-1.584-.432"/></g><path d="M27.534 146.984c-.276-.09-.515-.531-.534-.984l.999.328c.019.453-.189.746-.464.656" class="B"/><path d="M38.96 171.558c-.408-.645-2.15-3.811-2.259-5.922-.071-1.383-.486-7.683-.111-9.636-1.623 4.079-1.879 6.681-4.73 7.266.723 6.297.69 12.982-2.86 14.502 6.781 1.588 10.428-5.47 9.96-6.21" fill="#169c6d"/><g class="F"><path d="M30.915 182.814c.987.4 2.073.134 2.415-.591l.536-2.991c.342-.726.026-.247-.962-.648h0c-.987-.4-.785-1.141-1.772.111l-.914 2.072a2.44 2.44 0 0 0-.216.846c-.03.543.135.886.912 1.2"/><path d="M41.328 156.531c-.548-3.402-2.291-4.531-2.291-4.531L38 157.291c-.475 2.422-.524 4.916-.146 7.358l.614 3.962c.166 1.069-.063 2.14-.64 2.992L33 178.734 34.331 180l6.673-5.627c2.634-2.009 1.922-6.732 1.87-7.533l-1.546-10.309"/></g><path d="M31.75 147.867l-.69 2.989c-.479 1.957 2.025 3.031 2.823 1.206.741-1.695 1.226-4.02 1.095-7.205-.22-5.366-1.598-1.528-1.598-1.528l-1.63 4.537z" class="D"/><path d="M32.999 146.955a1 1 0 0 1-1.998.089 1 1 0 1 1 1.998-.089m8.815 18.022c.736-.134 1.265-.814 1.176-1.511l-.308-2.421c-.089-.696-.762-1.156-1.496-1.022s-1.265.814-1.176 1.511l.308 2.421c.089.696.762 1.155 1.496 1.021" class="F"/><path d="M265.341 158.733c-9.134-4.804-26.092-4.996-37.879-.431s-13.937 12.161-4.803 16.965 26.092 4.996 37.879.431 13.937-12.161 4.803-16.965" class="K"/><use xlink:href="#C" class="E"/><use xlink:href="#D" class="B"/><use xlink:href="#D" y="-1" class="C"/><use xlink:href="#E" class="B"/><use xlink:href="#F" fill="#f2c97b"/><path d="M225.217 159.794c-1.09-.787-1.991-1.902-2.03-2.915l3.546-.247c.234 1.009.719 1.748 1.733 2.329 1.182.678 2.22.743 3.239.268 2.283-1.063-3.334-4.238.656-6.096 2.173-1.012 4.904-1.011 7.309-.07l2.283-1.063 2.047 1.174-2.239 1.043c1.151.868 1.413 1.755 1.328 2.65l-3.424-.029c-.029-.777-.306-1.327-1.193-1.836-1.013-.581-1.983-.7-2.981-.235-2.106.981 3.644 4.094-.589 6.065-2.128.991-4.887 1.113-7.549.093L225.047 162 223 160.826l2.217-1.032z" class="C"/><path d="M233.95 172l.1 6m5.9-6l.1 5m5.9-6l.1 5m4.9-8l.1 5m4.953-8l-.005 5m-29.041 2l.086 5m-7.086-6l.086 5m-5.083-8l.079 5m-5.089-8l.1 5" class="G H I J"/><use xlink:href="#G" class="E"/><use xlink:href="#D" x="-1" y="-10" class="B"/><use xlink:href="#D" x="-1" y="-11" class="C"/><use xlink:href="#H" class="B"/><use xlink:href="#F" y="-9" class="E"/><path d="M224.217 150.794c-1.09-.787-1.991-1.902-2.03-2.915l3.546-.247c.234 1.009.719 1.748 1.733 2.329 1.182.678 2.22.743 3.239.268 2.283-1.063-3.334-4.238.656-6.096 2.173-1.012 4.904-1.011 7.309-.07l2.283-1.063 2.047 1.174-2.239 1.043c1.151.868 1.413 1.755 1.328 2.65l-3.424-.029c-.029-.777-.306-1.327-1.193-1.836-1.013-.581-1.983-.7-2.981-.235-2.106.981 3.644 4.094-.589 6.065-2.128.991-4.887 1.113-7.549.093L224.047 153 222 151.826l2.217-1.032z" class="C"/><path d="M232.95 163l.1 6m5.9-7l.1 5m5.9-6l.1 5m4.9-8l.1 5m5.953-9l-.005 5m-30.041 4l.086 5m-6.086-7l.086 5m-6.083-7l.079 5m-4.089-10l.1 5" class="G H I J"/><use xlink:href="#G" y="-10" class="E"/><use xlink:href="#D" x="-1" y="-20" class="B"/><use xlink:href="#D" x="-1" y="-20" class="C"/><use xlink:href="#H" y="-10" class="B"/><use xlink:href="#F" y="-18" class="E"/><path d="M224.217 141.794c-1.09-.787-1.991-1.902-2.03-2.915l3.546-.247c.234 1.009.719 1.748 1.733 2.329 1.182.678 2.22.743 3.239.268 2.283-1.063-3.334-4.238.656-6.096 2.173-1.012 4.904-1.011 7.309-.07l2.283-1.063 2.047 1.174-2.239 1.043c1.151.868 1.413 1.755 1.328 2.65l-3.424-.029c-.029-.777-.306-1.327-1.193-1.836-1.013-.581-1.983-.7-2.981-.235-2.106.981 3.644 4.094-.589 6.065-2.128.991-4.887 1.113-7.549.093L224.047 144 222 142.826l2.217-1.032z" class="C"/><path d="M232.95 152l.1 6m5.9-6l.1 5m5.9-6l.1 5m4.9-8l.1 5m5.953-8l-.005 5m-30.041 2l.086 5m-6.086-6l.086 5m-6.083-7l.079 5m-4.089-8l.1 5" class="G H I J"/><use xlink:href="#G" y="-19" class="E"/><use xlink:href="#D" x="-1" y="-29" class="B"/><use xlink:href="#D" x="-1" y="-30" class="C"/><use xlink:href="#E" y="-28" class="B"/><use xlink:href="#I" class="E"/><path d="M224.217 131.794c-1.09-.787-1.991-1.902-2.03-2.915l3.546-.247c.234 1.009.719 1.748 1.733 2.33 1.182.678 2.22.743 3.239.268 2.283-1.063-3.334-4.238.656-6.096 2.173-1.012 4.904-1.011 7.309-.07l2.283-1.063 2.047 1.174-2.239 1.043c1.151.868 1.413 1.755 1.328 2.65l-3.424-.029c-.029-.777-.306-1.327-1.193-1.836-1.013-.581-1.983-.7-2.981-.235-2.106.981 3.644 4.094-.589 6.065-2.128.991-4.887 1.113-7.549.093L224.047 134 222 132.826l2.217-1.032z" class="C"/><path d="M232.95 144l.1 6m5.9-7l.1 5m5.9-6l.1 5m4.9-8l.1 5m5.953-8l-.005 5m-30.041 2l.086 5m-6.086-6l.086 5m-6.083-7l.079 5m-4.089-9l.1 5" class="G H I J"/><path d="M236 183.373L235.898 172l-36.806 1.136c-.365-.097-.802-.078-.975.041L143 198.418l.409 11.392c.056.6.025 1.229.39 1.326l40.881 10.801c.365.097.802.078.975-.041l49.441-36.641c.545-.432.873-1.029.905-1.883" class="T"/><use xlink:href="#J" class="M"/><use xlink:href="#K" class="O"/><g class="M"><use xlink:href="#L"/><use xlink:href="#M"/></g><path d="M143 205.598l40.542 10.316c1.37.364 3.135-.487 4.281-1.325L236 178" stroke="#51dea0" class="G H U"/><path d="M236 167.373L235.898 156l-36.806 1.136c-.365-.097-.802-.078-.975.041L143 182.418l.409 11.392c.056.6.025 1.23.39 1.326l40.881 10.801c.365.097.802.078.975-.041l49.441-36.641c.545-.432.873-1.029.905-1.883" class="T"/><use xlink:href="#J" y="-16" class="M"/><use xlink:href="#K" y="-15" class="O"/><g class="M"><use xlink:href="#L" y="-16"/><use xlink:href="#M" y="-15"/></g><path d="M143 189.598l40.542 10.316c1.37.364 3.135-.487 4.281-1.325L236 162" stroke="#51dea0" class="G H U"/><path d="M277.341 193.733c-9.133-4.804-26.092-4.996-37.879-.431s-13.937 12.161-4.803 16.965 26.092 4.996 37.879.431 13.937-12.161 4.803-16.965" class="K"/><path d="M268.911 192.973c.229.839-.014 7.158-.419 8.07-.736 2.901-3.479 5.688-8.175 7.785-10.305 4.601-26.077 4.141-35.229-1.028-4.266-2.409-6.61-4.89-6.739-8.035-.177-1.699-.349-6.446-.349-6.446.306-1.043 1.675.016 2.502-.966 1.359-1.932 3.675-3.725 6.941-5.184 10.305-4.601 26.077-4.141 35.229 1.028 3.854 2.177 5.91 2.075 6.239 4.774" class="E"/><use xlink:href="#D" x="11" y="34" class="B"/><use xlink:href="#D" x="11" y="33" class="C"/><use xlink:href="#E" x="11" y="34" class="B"/><use xlink:href="#I" x="11" y="63" fill="#f2c97b"/><path d="M236.217 194.794c-1.09-.787-1.991-1.902-2.03-2.915l3.546-.247c.234 1.009.719 1.748 1.733 2.33 1.182.678 2.22.743 3.239.268 2.283-1.063-3.334-4.238.656-6.096 2.173-1.012 4.904-1.011 7.309-.07l2.283-1.063 2.047 1.174-2.239 1.043c1.151.868 1.413 1.755 1.328 2.65l-3.424-.029c-.029-.777-.306-1.327-1.193-1.836-1.013-.581-1.983-.7-2.981-.235-2.106.981 3.644 4.094-.589 6.065-2.128.991-4.887 1.113-7.549.093L236.047 197 234 195.826l2.217-1.032z" class="C"/><path d="M243.95 207l.1 6m5.9-6l.1 5m7.9-7l.1 5m4.9-9l.1 5m3.953-8l-.005 5m-30.041 4l.086 5m-5.086-6l.086 5m-7.083-9l.079 5m-4.089-8l.1 5" class="G H I J"/><use xlink:href="#C" x="9" y="24" class="E"/><use xlink:href="#D" x="10" y="24" class="B"/><use xlink:href="#D" x="10" y="23" class="C"/><use xlink:href="#E" x="11" y="25" class="B"/><use xlink:href="#I" x="11" y="53" class="E"/><path d="M235.217 185.794c-1.09-.787-1.991-1.902-2.03-2.915l3.546-.247c.234 1.009.719 1.748 1.733 2.329 1.182.678 2.22.743 3.239.268 2.283-1.063-3.334-4.238.656-6.096 2.173-1.012 4.904-1.011 7.309-.07l2.283-1.063 2.047 1.174-2.239 1.043c1.151.868 1.413 1.755 1.328 2.65l-3.424-.029c-.029-.777-.306-1.327-1.193-1.836-1.013-.581-1.983-.7-2.981-.235-2.106.981 3.644 4.094-.589 6.065-2.128.991-4.887 1.113-7.549.093L235.047 188 233 186.826l2.217-1.032z" class="C"/><path d="M243.95 196l.1 6m5.9-6l.1 5m6.9-6l.1 5m4.9-8l.1 5m3.953-9l-.005 5m-29.041 3l.086 5m-7.086-6l.086 5m-5.083-7l.079 5m-5.089-9l.1 5" class="G H I J"/><g class="K"><path d="M117.346 217.598L131.116 227l2.884-8.312L116 214z"/><path d="M117.761 214.186l-.237-.066c-.145-1.097-.992-2.11-2.543-2.819l-9.64-4.4c-3.39-1.547-8.849-1.053-12.192 1.105l-4.699 3.032c-2.014 1.3-2.799 2.906-2.365 4.317-.44 1.508.377 2.999 2.45 3.945l1.069.488L70 234.65l.212 2.378 3.426 1.617 5.559-1.873 17.281-13.101 1.61.45-11.21 14.623v3.107l4.12 1.151 4.411-2.13 11.049-14.413 2.883.805c3.236.904 7.508-.514 9.541-3.166l1.059-1.382c1.001-1.305 1.271-2.666.903-3.82.602-2.076-.545-4.001-3.081-4.71"/></g><g fill="#867bab"><use xlink:href="#N"/><path d="M92.38 239.837L88.047 242 84 240.831v-3.155L98.705 221l6.295 1.818z"/></g><g fill="#988fba"><use xlink:href="#N" y="-3"/><path d="M92.38 236.837L88.047 239 84 237.831 98.705 218l6.295 1.818z"/></g><g fill="#a9a1c9"><path d="M95.983 222.101l-9.462-4.388c-3.328-1.543-3.365-4.538-.083-6.689L91.05 208c3.282-2.151 8.64-2.645 11.968-1.102l9.462 4.388c3.328 1.543 3.365 4.538.083 6.69L107.95 221c-3.282 2.151-8.64 2.645-11.968 1.102"/><path d="M76.102 236.141L70.6 238l-3.391-1.604-.21-2.36L92.726 217 98 219.496z"/></g><g class="L"><path d="M76.953 234.141L71.414 236 68 234.396 93.69 215l5.31 2.496z"/><path d="M95.983 221.101l-9.462-4.388c-3.328-1.543-3.365-4.538-.083-6.689L91.05 207c3.282-2.151 8.64-2.645 11.968-1.102l9.462 4.388c3.328 1.543 3.365 4.538.083 6.69L107.95 220c-3.282 2.151-8.64 2.645-11.968 1.102"/></g><path d="M97.504 218.418l-6.715-2.839c-2.362-.998-2.388-2.936-.059-4.328l3.273-1.957c2.329-1.392 6.132-1.711 8.493-.713l6.715 2.839c2.362.998 2.388 2.936.059 4.328l-3.273 1.957c-2.329 1.392-6.132 1.711-8.493.713z" stroke="#fff" class="V"/><path d="M105.325 210.872c-.827.27-2.091.099-2.823-.383s-.654-1.091.173-1.361 2.091-.099 2.823.383.654 1.091-.173 1.361" fill="#867bab"/><path d="M103 210.334c.719-4.109 3.54-7.924 6.911-9.028 3.915-1.282 7.089 1.578 7.089 6.388 0 2.195-.661 4.417-1.752 6.306" stroke="#142b6b" stroke-width="2" class="G H"/><path d="M70 235l21-16m7 5l-11 15" stroke="#fff" class="V"/><path d="M117.38 205.886c-.084.202-.385.045-.38-.199.061-3.121 7.317-9.876 13.907-2.035 8.199 9.756 7.793 22.023 14.093 23.449-5.093 1.137-5.872-.105-7.977-1.232 2.415 3.439 6.503 4.993 6.503 4.993.607.372-14.35.81-15.567-10.649-1.259-11.85-8.307-19.826-10.578-14.327" class="F"/></g><defs ><path id="B" d="M49.383 89.338c-10.355-3.963-19.855 1.177-21.219 11.482s5.924 21.87 16.279 25.833 19.757-1.112 21.318-11.339c1.716-11.242-6.023-22.013-16.378-25.976"/><path id="C" d="M258.911 157.973c.229.839-.014 7.158-.419 8.07-.736 2.901-3.479 5.688-8.175 7.785-10.305 4.601-26.077 4.141-35.229-1.028-4.266-2.409-6.61-4.89-6.739-8.035-.177-1.699-.349-6.446-.349-6.446.306-1.043 1.675.016 2.502-.966 1.359-1.932 3.675-3.725 6.941-5.184 10.305-4.601 26.077-4.141 35.229 1.028 3.854 2.177 5.909 2.075 6.239 4.774"/><path id="D" d="M252.061 150.389c-8.934-5.379-24.71-5.884-35.237-1.129s-11.819 12.971-2.885 18.35 24.71 5.884 35.237 1.129 11.819-12.971 2.885-18.35"/><path id="E" d="M245.843 151.208c-6.254-3.931-17.297-4.3-24.666-.825s-8.273 9.479-2.02 13.41 17.297 4.3 24.666.825 8.273-9.479 2.02-13.41"/><path id="F" d="M221.202 151.412c7.369-3.343 18.413-2.988 24.667.793 2.493 1.507 3.847 3.332 4.109 5.192.209-2.237-1.144-4.503-4.136-6.312-6.254-3.781-17.298-4.137-24.667-.793-4.432 2.01-6.524 4.901-6.129 7.708.228-2.439 2.311-4.845 6.155-6.588"/><path id="G" d="M257.911 148.973c.229.839-.014 7.158-.419 8.07-.736 2.901-3.479 5.688-8.176 7.785-10.305 4.601-26.077 4.141-35.229-1.028-4.266-2.409-6.61-4.89-6.739-8.035-.177-1.699-.349-6.446-.349-6.446.306-1.043 1.675.016 2.502-.966 1.359-1.932 3.675-3.725 6.941-5.184 10.305-4.601 26.077-4.141 35.229 1.028 3.854 2.177 5.909 2.075 6.239 4.774"/><path id="H" d="M245.843 142.208c-6.254-3.931-17.297-4.3-24.666-.825s-8.273 9.479-2.02 13.41 17.297 4.3 24.666.825 8.273-9.479 2.02-13.409"/><path id="I" d="M221.202 123.412c7.369-3.343 18.413-2.988 24.667.794 2.493 1.507 3.847 3.332 4.109 5.192.209-2.237-1.144-4.503-4.136-6.312-6.254-3.781-17.298-4.137-24.667-.793-4.432 2.01-6.524 4.901-6.129 7.708.228-2.439 2.311-4.845 6.155-6.588"/><path id="J" d="M236 183.266l-.102-9.07-36.571-1.195c-.363-.097-15.156 9.778-15.327 9.897l1.418 39.101c.235.009.449-.026.558-.101l49.125-36.743c.541-.433.867-1.032.899-1.889"/><path id="K" d="M185.257 209.897l50.673-37.626c.173-.119.017-.86-.348-.956l-36.893-10.252c-.365-.097-.801-.079-.975.041l-54.643 37.626c-.173.119-.017.294.348.391l40.864 10.818c.365.097.801.078.975-.041"/><path id="L" d="M180.814 183.182c3.422-2.13 10.533-2.819 15.882-1.539s6.912 4.044 3.49 6.174-10.533 2.819-15.882 1.539-6.912-4.044-3.49-6.174"/><path id="M" d="M175.567 202.347l-15.538-4.134c1.593-1.526.768-3.299-2.005-4.387l36.206-25.054c3.504.582 7.572.111 10.05-1.18l15.538 4.134c-1.629 1.562-.724 3.381 2.207 4.461l-36.163 25.024c-3.558-.646-7.759-.185-10.295 1.136zm-23.221-5.544c.371.441 1.072.824 1.963 1.06l25.871 6.883a7.53 7.53 0 0 0 2.408.237c.643-.047 1.193-.192 1.538-.429l43.493-30.096c.429-.297.499-.718.192-1.156-.007-.01-.017-.02-.025-.031l.062-.043-.124-.033c-.371-.441-1.073-.823-1.964-1.06l-25.87-6.883c-1.511-.401-3.206-.318-3.945.192l-43.493 30.096c-.391.27-.48.644-.262 1.038l-.19.131.347.092z"/><path id="N" d="M107.555 226.733l-13.376-3.723c-3.176-.884-4.133-3.703-2.138-6.297l1.039-1.351c1.995-2.594 6.188-3.98 9.364-3.096l13.376 3.723c3.176.884 4.133 3.703 2.138 6.297l-1.039 1.351c-1.995 2.594-6.188 3.98-9.364 3.096"/></defs></svg>