<svg width="246" height="250" viewBox="0 0 246 250" fill="none" xmlns="http://www.w3.org/2000/svg">
    <path fill-rule="evenodd" clip-rule="evenodd" d="M73.447 116.222c1.167 12.47 3.906 28.957 7.199 43.165h2.067c-4.257-17.145-8.175-40.624-7.021-67.689 1.163-27.293 7.726-60.432-4.511-76.262C60.994 2.26 17.773.29 3.56 0 1.785-.035.77 2.048 1.874 3.465c5.449 6.982 16.859 23.154 17.852 37.275 1.31 18.613 15.514 33.222 29.626 39.303 14.114 6.082 21.713 10.72 24.095 36.179z" fill="#FBC343"/>
    <path fill-rule="evenodd" clip-rule="evenodd" d="M57.928 40.504c-1.185-2.205-2.551-4.312-4.037-6.323-1.358-1.756-2.778-3.472-4.354-5.04l-.58-.599-.602-.575c-.404-.383-.797-.776-1.209-1.15-.833-.735-1.657-1.483-2.53-2.173-3.437-2.828-7.214-5.228-11.139-7.333-3.925-2.1-8.054-3.874-12.292-5.188l-.02-.006a.32.32 0 0 1 .091-.624c.026 0 .052.003.077.01 8.742 2.26 17.01 6.322 24.245 11.885a53.828 53.828 0 0 1 9.741 9.661 50.532 50.532 0 0 1 3.568 5.306 15.27 15.27 0 0 0-.959 2.15z" fill="#fff"/>
    <path fill-rule="evenodd" clip-rule="evenodd" d="M77.54 136.505c4.94 12.928 2.543 18.983 1.56 24.351-.175.953-.428 2.298-.681 3.899l2.047.467c.077-2.259.278-4.507.661-6.671 2.623-14.846 5.094-40.643-3.912-58.468C68.21 82.256 54.912 77.78 34.65 87.488 17.765 95.578 7.542 99.272 2.07 99.142c-1.354-.032-2.355 1.306-1.995 2.632 1.917 7.055 8.098 23.667 24.248 26.286 7.206 1.168 15.279.971 22.94.773 14.243-.366 27.068-.734 30.279 7.672z" fill="#FED983"/>
    <path fill-rule="evenodd" clip-rule="evenodd" d="M36.502 107.49a.326.326 0 0 1-.297-.192.344.344 0 0 1 .132-.431c1.372-.832 2.786-1.541 4.23-2.208a48.18 48.18 0 0 1 4.419-1.793c3.001-1.051 6.125-1.821 9.33-2.109.829-.072 1.665-.112 2.502-.112h.223v1.765a27.028 27.028 0 0 0-2.613.047c-3.042.193-6.078.827-9.052 1.692a64.078 64.078 0 0 0-4.422 1.478 60.291 60.291 0 0 0-4.303 1.827l-.009.005a.333.333 0 0 1-.14.031z" fill="#fff"/>
    <path fill-rule="evenodd" clip-rule="evenodd" d="M67.713 33.245a4.45 4.45 0 0 1 5.047-4.438c17.788 2.412 78.959 9.873 129.536 5.99a4.113 4.113 0 0 1 4.43 3.881l10.083 189.702a4.734 4.734 0 0 1-4.448 4.979c-21.272 1.26-108.874 6.126-140.12 2.853a3.75 3.75 0 0 1-3.356-3.712L67.713 33.245z" fill="#91B3FA"/>
    <path fill-rule="evenodd" clip-rule="evenodd" d="M69.808 37.992a4.282 4.282 0 0 1 4.857-4.27c17.119 2.32 75.987 9.5 124.659 5.764a3.96 3.96 0 0 1 4.264 3.735l9.702 182.559a4.556 4.556 0 0 1-4.281 4.791c-20.47 1.212-104.773 5.895-134.843 2.745a3.609 3.609 0 0 1-3.23-3.572L69.808 37.992z" fill="#BDD0FB"/>
    <path fill-rule="evenodd" clip-rule="evenodd" d="M124.445 138.484H81.461a.524.524 0 0 1-.525-.525v-6.776c0-.289.235-.525.525-.525h43.18c-.064 2.48-.128 5.097-.196 7.826zM124.161 150.557H81.32a.384.384 0 0 1-.384-.384v-7.059c0-.211.171-.384.384-.384h43.023c-.061 2.536-.122 5.151-.182 7.827zM123.121 219.502H81.498a.462.462 0 0 1-.463-.462v-6.901c0-.255.207-.463.463-.463h41.661c-.019 2.685-.032 5.301-.038 7.826z" fill="#E3EBFD"/>
    <path fill-rule="evenodd" clip-rule="evenodd" d="M124.867 122.013H83.842a2.392 2.392 0 0 1-2.389-2.389V91.222l77.898.274.375 13.917a566.839 566.839 0 0 0-14.732-.218c-4.674 0-8.81.087-12.178.28-4.253.244-7.586 3.329-7.691 7.101-.071 2.519-.159 5.71-.258 9.437zM198.29 107.084c-12.342-.695-25.7-1.32-37.664-1.647l-.376-13.939 29.224.103a19.87 19.87 0 0 0 8.358 5.367l.458 10.116zM188.687 90.697l-28.462-.1-.154-5.688c4.695-1.309 7.935-5.29 8.52-9.848h15.877a19.7 19.7 0 0 0 .447 8.294 19.699 19.699 0 0 0 3.772 7.342zM159.327 90.594l-77.874-.274V77.45a2.392 2.392 0 0 1 2.39-2.389h61.388c.068.53.174 1.06.317 1.588 1.422 5.245 6.171 8.695 11.356 8.695.752 0 1.513-.072 2.275-.223l.148 5.473z" fill="#CEDCFC"/>
    <path fill-rule="evenodd" clip-rule="evenodd" d="M83.842 75.061a2.392 2.392 0 0 0-2.389 2.39v42.171a2.392 2.392 0 0 0 2.39 2.389h112.625c.659 0 1.272-.262 1.727-.739a2.367 2.367 0 0 0 .659-1.758l-1.909-42.17a2.386 2.386 0 0 0-2.387-2.282H83.842z" fill="#fff"/>
    <path fill-rule="evenodd" clip-rule="evenodd" d="M196.468 122.912H83.843a3.292 3.292 0 0 1-3.29-3.289V77.452a3.292 3.292 0 0 1 3.29-3.289h110.715a3.284 3.284 0 0 1 3.287 3.141l1.909 42.171a3.256 3.256 0 0 1-.908 2.421 3.261 3.261 0 0 1-2.378 1.016z" fill="#fff"/>
    <path fill-rule="evenodd" clip-rule="evenodd" d="M123.2 206.451H84.634a3.155 3.155 0 0 1-3.15-3.151v-40.647a3.155 3.155 0 0 1 3.15-3.151h39.329c-.327 15.357-.623 32.003-.763 46.949z" fill="#CEDCFC"/>
    <path fill-rule="evenodd" clip-rule="evenodd" d="M84.634 159.502a3.155 3.155 0 0 0-3.15 3.151V203.3a3.155 3.155 0 0 0 3.15 3.151h113.567c.865 0 1.67-.343 2.271-.966a3.13 3.13 0 0 0 .877-2.307l-1.575-40.646a3.143 3.143 0 0 0-3.149-3.03H84.635z" fill="#fff"/>
    <path fill-rule="evenodd" clip-rule="evenodd" d="M198.204 207.35H84.637a4.057 4.057 0 0 1-4.052-4.052v-40.647a4.056 4.056 0 0 1 4.052-4.051h111.991a4.039 4.039 0 0 1 4.048 3.895l1.575 40.646a4.02 4.02 0 0 1-1.128 2.967 4.015 4.015 0 0 1-2.919 1.242zM116.357 122.462l-.795-47.85.9-.014.796 47.85-.901.014zM160.186 122.47l-1.291-47.849.9-.023 1.292 47.849-.901.023z" fill="#fff"/>
    <path fill-rule="evenodd" clip-rule="evenodd" d="m198.601 91.635-117.308-.412.003-.9 117.307.412-.002.9zM81.296 108.217h117.306v-.901H81.296v.901zM116.462 206.908l-.9-.012.596-47.849.901.012-.597 47.849z" fill="#fff"/>
    <path fill-rule="evenodd" clip-rule="evenodd" d="M81.296 171.131h119.393v-.901H81.296v.901zM81.296 182.158h119.691v-.9H81.296v.9zM201.481 195.521l-120.452-1.503.011-.901 120.452 1.503-.011.901z" fill="#fff"/>
    <path fill-rule="evenodd" clip-rule="evenodd" d="M139.072 15.518a3.686 3.686 0 1 1 0-7.372 3.686 3.686 0 0 1 0 7.372z" fill="url(#890ng9i9ma)"/>
    <path fill-rule="evenodd" clip-rule="evenodd" d="M145.57 4.584c-4.706-3.274-8.797-3.209-11.677-2.359-2.628.775-4.331 3.312-4.081 6.04l1.242 13.557 14.781 1.312s8.962-12.13-.265-18.55z" fill="url(#id3e42oanb)"/>
    <path fill-rule="evenodd" clip-rule="evenodd" d="M132.145 11.889a.356.356 0 0 1-.355-.324l-.151-1.64c-.238-2.598 1.397-5.018 3.889-5.753a11.042 11.042 0 0 1 5.401-.222.357.357 0 0 1-.143.7 10.353 10.353 0 0 0-5.057.206c-2.165.64-3.586 2.744-3.379 5.005l.15 1.639a.357.357 0 0 1-.355.389zM132.534 16.118a.355.355 0 0 1-.354-.324l-.198-2.16a.356.356 0 1 1 .71-.064l.198 2.159a.357.357 0 0 1-.356.389z" fill="#BDD0FB"/>
    <path d="M110.883 28.088v-4.321a4.16 4.16 0 0 1 4.302-4.157l46.994 1.61a4.045 4.045 0 0 1 3.9 3.8l.109 1.814c-.39.402-.761.82-1.113 1.252l-54.192.002z" fill="#fff"/>
    <path fill-rule="evenodd" clip-rule="evenodd" d="M110.883 28.088v-4.321a4.16 4.16 0 0 1 4.302-4.157l46.994 1.61a4.045 4.045 0 0 1 3.9 3.8l.109 1.814c-.39.402-.761.82-1.113 1.252l-54.192.002z" fill="url(#ihklqd0u8c)"/>
    <path fill-rule="evenodd" clip-rule="evenodd" d="M66.483 245.172c-5.204 0-9.443-4.221-9.443-9.446V45.649a15.286 15.286 0 0 1 1.845-7.294 15.349 15.349 0 0 1 9.503-7.504 4.427 4.427 0 0 0-.676 2.387l1.172 199.255a3.75 3.75 0 0 0 3.357 3.712c7.626.8 18.602 1.113 31.159 1.113 6.286 0 12.97-.079 19.821-.215.041 2.317.094 4.435.161 6.324.008.241.034.479.075.711l-14.706.268-42.093.766h-.175z" fill="url(#mumo6t1y4d)"/>
    <path fill-rule="evenodd" clip-rule="evenodd" d="M91.946 31.147c-2.53-.279-4.901-.55-7.097-.811h7.455a4.436 4.436 0 0 0-.358.811z" fill="url(#m9zn1h9x2e)"/>
    <path fill-rule="evenodd" clip-rule="evenodd" d="M128.405 22.187h-2.022a.357.357 0 0 1 0-.713h2.022a.357.357 0 0 1 0 .713zM113.427 28.451a.357.357 0 0 1-.356-.356v-2.758a3.869 3.869 0 0 1 3.864-3.863h7.43a.357.357 0 1 1 0 .713h-7.43a3.155 3.155 0 0 0-3.151 3.15v2.758a.356.356 0 0 1-.357.356z" fill="#BDD0FB"/>
    <path d="M160.763 39.635h-65.82a3.39 3.39 0 0 1-3.388-3.554l.013-.274.168-3.5a4.436 4.436 0 0 1 4.423-4.216h14.726l54.191-.001a19.258 19.258 0 0 0-4.313 11.545z" fill="#fff"/>
    <path fill-rule="evenodd" clip-rule="evenodd" d="M160.763 39.635h-65.82a3.39 3.39 0 0 1-3.388-3.554l.013-.274.168-3.5a4.436 4.436 0 0 1 4.423-4.216h14.726l73.01-.001c3.508 4.218 3.508 10.468.168 11.545" fill="url(#u3aq2irebf)"/>
    <path fill-rule="evenodd" clip-rule="evenodd" d="M205.84 250c-28.946 0-64.216-.737-76.271-1.086-2.477-.072-4.594-1.383-5.587-3.258a5.17 5.17 0 0 1-.599-2.225c-.067-1.889-.12-4.008-.161-6.324-.016-.942-.031-1.917-.043-2.922a998.552 998.552 0 0 1-.057-14.684c.005-2.525.018-5.141.037-7.826.01-1.421.022-2.865.034-4.323l.008-.901c.141-14.946.437-31.591.764-46.949l.019-.9a6624.118 6624.118 0 0 1 .462-20.117 9060 9060 0 0 1 .42-16.474c.1-3.727.188-6.918.258-9.437.105-3.772 3.439-6.857 7.692-7.101 3.368-.194 7.504-.28 12.178-.28a566.839 566.839 0 0 1 15.634.242c11.963.327 25.321.952 37.663 1.647l.904.052a1798.424 1798.424 0 0 1 20.23 1.265c6.961.478 12.754.923 16.604 1.263 4.216.374 7.531 3.351 7.887 7.09.993 10.407 1.514 24.924 1.749 40.546.467 31.212-.215 66.846-.593 82.985-.118 5.037-4.64 9.115-10.326 9.326-7.583.282-17.774.391-28.906.391z" fill="#99CEFF"/>
    <path fill-rule="evenodd" clip-rule="evenodd" d="M194.82 218.546a6.246 6.246 0 0 0 0 12.491h7.604a6.246 6.246 0 1 0 0-12.491h-7.604z" fill="url(#jrzn3atugg)"/>
    <path fill-rule="evenodd" clip-rule="evenodd" d="M167.665 218.546a6.246 6.246 0 1 0 0 12.491h7.603a6.245 6.245 0 1 0 0-12.491h-7.603z" fill="url(#wn46n0gnbh)"/>
    <path fill-rule="evenodd" clip-rule="evenodd" d="M139.424 218.546a6.246 6.246 0 0 0 0 12.491h7.604a6.245 6.245 0 1 0 0-12.491h-7.604z" fill="url(#2da0qt5pji)"/>
    <path fill-rule="evenodd" clip-rule="evenodd" d="M194.82 199.533a6.246 6.246 0 0 0-6.245 6.246 6.246 6.246 0 0 0 6.245 6.247h7.604a6.247 6.247 0 0 0 0-12.493h-7.604z" fill="url(#u5iu6cypij)"/>
    <path fill-rule="evenodd" clip-rule="evenodd" d="M167.665 199.533a6.246 6.246 0 1 0 0 12.493h7.603a6.246 6.246 0 0 0 0-12.493h-7.603z" fill="url(#om1hmu7qgk)"/>
    <path fill-rule="evenodd" clip-rule="evenodd" d="M139.424 199.533a6.246 6.246 0 0 0 0 12.493h7.604a6.246 6.246 0 0 0 0-12.493h-7.604z" fill="url(#0gkyc0qrol)"/>
    <path fill-rule="evenodd" clip-rule="evenodd" d="M136.706 115.961a6.788 6.788 0 0 0-6.788 6.788v19.553a6.789 6.789 0 0 0 6.788 6.789h93.418a6.79 6.79 0 0 0 6.789-6.789v-19.553a6.789 6.789 0 0 0-6.789-6.788h-93.418z" fill="url(#tm402azxqm)"/>
    <path fill-rule="evenodd" clip-rule="evenodd" d="M129.918 122.749v19.553a6.789 6.789 0 0 0 6.788 6.789h93.418a6.79 6.79 0 0 0 6.789-6.789v-19.553a6.789 6.789 0 0 0-6.789-6.788h-93.418a6.788 6.788 0 0 0-6.788 6.788z" fill="#79B0E2"/>
    <path fill-rule="evenodd" clip-rule="evenodd" d="M135.097 147.344h98.327v-27.457h-98.327v27.457z" fill="#fff"/>
    <path d="M153.274 168.91a6.247 6.247 0 0 1-6.247 6.247h-7.603a6.246 6.246 0 0 1 0-12.492h7.603a6.245 6.245 0 0 1 6.247 6.245z" fill="#fff"/>
    <path fill-rule="evenodd" clip-rule="evenodd" d="M153.274 168.91a6.247 6.247 0 0 1-6.247 6.247h-7.603a6.246 6.246 0 0 1 0-12.492h7.603a6.245 6.245 0 0 1 6.247 6.245z" fill="#8B91FF"/>
    <path fill-rule="evenodd" clip-rule="evenodd" d="M181.514 168.91a6.246 6.246 0 0 1-6.246 6.247h-7.603a6.247 6.247 0 1 1 0-12.492h7.603a6.245 6.245 0 0 1 6.246 6.245z" fill="url(#253cv36cun)"/>
    <path d="M181.514 168.91a6.246 6.246 0 0 1-6.246 6.247h-7.603a6.247 6.247 0 1 1 0-12.492h7.603a6.245 6.245 0 0 1 6.246 6.245z" fill="#8B91FF"/>
    <path d="M208.67 168.91a6.247 6.247 0 0 1-6.246 6.247h-7.604a6.246 6.246 0 0 1 0-12.492h7.604a6.246 6.246 0 0 1 6.246 6.245z" fill="#fff"/>
    <path fill-rule="evenodd" clip-rule="evenodd" d="M208.67 168.91a6.247 6.247 0 0 1-6.246 6.247h-7.604a6.246 6.246 0 0 1 0-12.492h7.604a6.246 6.246 0 0 1 6.246 6.245z" fill="#8B91FF"/>
    <path d="M236.198 169.826a6.347 6.347 0 0 1-6.347 6.348h-7.35a6.347 6.347 0 0 1-6.346-6.348 6.347 6.347 0 0 1 6.346-6.347h7.35a6.347 6.347 0 0 1 6.347 6.347z" fill="#fff"/>
    <path fill-rule="evenodd" clip-rule="evenodd" d="M236.198 169.826a6.347 6.347 0 0 1-6.347 6.348h-7.35a6.347 6.347 0 0 1-6.346-6.348 6.347 6.347 0 0 1 6.346-6.347h7.35a6.347 6.347 0 0 1 6.347 6.347z" fill="#474DBB"/>
    <path d="M153.274 188.465a6.246 6.246 0 0 1-6.247 6.246h-7.603a6.246 6.246 0 0 1 0-12.491h7.603a6.245 6.245 0 0 1 6.247 6.245z" fill="#fff"/>
    <path fill-rule="evenodd" clip-rule="evenodd" d="M153.274 188.465a6.246 6.246 0 0 1-6.247 6.246h-7.603a6.246 6.246 0 0 1 0-12.491h7.603a6.245 6.245 0 0 1 6.247 6.245z" fill="#8B91FF"/>
    <path d="M181.514 188.465a6.246 6.246 0 0 1-6.246 6.246h-7.603a6.246 6.246 0 1 1 0-12.491h7.603a6.245 6.245 0 0 1 6.246 6.245z" fill="#fff"/>
    <path fill-rule="evenodd" clip-rule="evenodd" d="M181.514 188.465a6.246 6.246 0 0 1-6.246 6.246h-7.603a6.246 6.246 0 1 1 0-12.491h7.603a6.245 6.245 0 0 1 6.246 6.245z" fill="#8B91FF"/>
    <path d="M208.67 188.465a6.247 6.247 0 0 1-6.246 6.246h-7.604a6.246 6.246 0 0 1 0-12.491h7.604a6.246 6.246 0 0 1 6.246 6.245z" fill="#fff"/>
    <path fill-rule="evenodd" clip-rule="evenodd" d="M208.67 188.465a6.247 6.247 0 0 1-6.246 6.246h-7.604a6.246 6.246 0 0 1 0-12.491h7.604a6.246 6.246 0 0 1 6.246 6.245z" fill="#8B91FF"/>
    <path d="M236.913 188.465a6.247 6.247 0 0 1-6.246 6.246h-7.604a6.246 6.246 0 0 1 0-12.491h7.604a6.246 6.246 0 0 1 6.246 6.245z" fill="#fff"/>
    <path fill-rule="evenodd" clip-rule="evenodd" d="M236.913 188.465a6.247 6.247 0 0 1-6.246 6.246h-7.604a6.246 6.246 0 0 1 0-12.491h7.604a6.246 6.246 0 0 1 6.246 6.245z" fill="#8B91FF"/>
    <path fill="#fff" d="M133.09 199.46h20.273v12.659H133.09zM161.351 199.46h20.23v12.659h-20.23zM188.492 199.46h20.23v12.659h-20.23zM133.09 218.473h20.273v12.659H133.09zM161.351 218.473h20.23v12.659h-20.23zM188.492 218.473h20.23v12.659h-20.23zM234.197 224.279a7.906 7.906 0 0 1-7.906 7.906h-.481a7.906 7.906 0 0 1-7.906-7.906v-15.147a7.905 7.905 0 0 1 7.906-7.905h.481a7.905 7.905 0 0 1 7.906 7.905v15.147z"/>
    <path fill-rule="evenodd" clip-rule="evenodd" d="M234.197 224.279a7.906 7.906 0 0 1-7.906 7.906h-.481a7.906 7.906 0 0 1-7.906-7.906v-15.147a7.905 7.905 0 0 1 7.906-7.905h.481a7.905 7.905 0 0 1 7.906 7.905v15.147z" fill="#8B91FF"/>
    <path fill-rule="evenodd" clip-rule="evenodd" d="M221.977 126.821h-3.802a1.359 1.359 0 0 1 0-2.716h3.802a1.357 1.357 0 0 1 0 2.716zM221.977 145.29h-3.802a1.359 1.359 0 0 1 0-2.717h3.802a1.358 1.358 0 0 1 0 2.717zM216.001 134.426a1.359 1.359 0 0 1-1.357-1.359v-3.801a1.358 1.358 0 1 1 2.716 0v3.801a1.36 1.36 0 0 1-1.359 1.359zM216.001 142.032a1.358 1.358 0 0 1-1.357-1.358v-3.802a1.357 1.357 0 1 1 2.716 0v3.802c0 .75-.609 1.358-1.359 1.358zM225.235 134.426a1.36 1.36 0 0 1-1.358-1.359v-3.801a1.359 1.359 0 0 1 2.717 0v3.801a1.36 1.36 0 0 1-1.359 1.359zM225.235 142.032a1.359 1.359 0 0 1-1.358-1.358v-3.802a1.358 1.358 0 0 1 2.717 0v3.802c0 .75-.609 1.358-1.359 1.358z" fill="#474DBB"/>
    <path d="M62.348 239.155s-.652 3.499-.989 6.965a2.39 2.39 0 0 0 2.262 2.612c4.618.236 14.497.705 18.044.58a.777.777 0 0 0 .695-1.059 1.74 1.74 0 0 0-.88-.946l-16.254-7.659-2.878-.493z" fill="#fff"/>
    <path fill-rule="evenodd" clip-rule="evenodd" d="M62.348 239.155s-.652 3.499-.989 6.965a2.39 2.39 0 0 0 2.262 2.612c4.618.236 14.497.705 18.044.58a.777.777 0 0 0 .695-1.059 1.74 1.74 0 0 0-.88-.946l-16.254-7.659-2.878-.493z" fill="url(#dx1xjxsepo)"/>
    <path d="m61.863 237.092.457 4.197s2.847 1.358 4.814-.121l-1.14-4.684-4.131.608z" fill="#fff"/>
    <path fill-rule="evenodd" clip-rule="evenodd" d="m61.863 237.092.457 4.197s2.847 1.358 4.814-.121l-1.14-4.684-4.131.608z" fill="url(#a9kju9v8yp)"/>
    <path d="M62.988 158.289c-.226 1.093-1.675 54.619 3.819 78.664a.814.814 0 0 1-.487.943c-.881.351-2.606.853-4.67.903a1.402 1.402 0 0 1-1.381-1.02c-1.583-5.582-9.155-33.545-9.923-60.196-.859-29.78.01-1.014.01-1.014l.845-18.394 11.787.114z" fill="#fff"/>
    <path fill-rule="evenodd" clip-rule="evenodd" d="M62.988 158.289c-.226 1.093-1.675 54.619 3.819 78.664a.814.814 0 0 1-.487.943c-.881.351-2.606.853-4.67.903a1.402 1.402 0 0 1-1.381-1.02c-1.583-5.582-9.155-33.545-9.923-60.196-.859-29.78.01-1.014.01-1.014l.845-18.394 11.787.114z" fill="url(#yn03cojerq)"/>
    <path d="M43.554 240.807s-1.002 1.76-2.001 6.452a1.457 1.457 0 0 0 1.266 1.758c1.524.165 3.871.38 5.752.386a1.454 1.454 0 0 0 1.455-1.609c-.192-1.718-.814-4.54-2.798-6.753l-3.674-.234z" fill="#fff"/>
    <path fill-rule="evenodd" clip-rule="evenodd" d="M43.554 240.807s-1.002 1.76-2.001 6.452a1.457 1.457 0 0 0 1.266 1.758c1.524.165 3.871.38 5.752.386a1.454 1.454 0 0 0 1.455-1.609c-.192-1.718-.814-4.54-2.798-6.753l-3.674-.234z" fill="url(#29hxny2lxr)"/>
    <path d="m42.739 235.408 1.102 6.351s1.14.866 3.42.267l-.49-6.826-4.032.208z" fill="#fff"/>
    <path fill-rule="evenodd" clip-rule="evenodd" d="m42.739 235.408 1.102 6.351s1.14.866 3.42.267l-.49-6.826-4.032.208z" fill="url(#pecu7eovms)"/>
    <path d="M40.32 159.712c-4.949 28.2.35 69.82 2.193 77.975a1.27 1.27 0 0 0 1.016.973c.856.15 2.266.279 3.662-.111.48-.136.822-.565.846-1.063.32-6.575.242-46.958 4.755-62.874a3.623 3.623 0 0 1 1.417-1.986l8.521-5.937.743-9.72-23.152 2.743z" fill="#fff"/>
    <path fill-rule="evenodd" clip-rule="evenodd" d="M40.32 159.712c-4.949 28.2.35 69.82 2.193 77.975a1.27 1.27 0 0 0 1.016.973c.856.15 2.266.279 3.662-.111.48-.136.822-.565.846-1.063.32-6.575.242-46.958 4.755-62.874a3.623 3.623 0 0 1 1.417-1.986l8.521-5.937.743-9.72-23.152 2.743z" fill="url(#aq72p2eq5t)"/>
    <path d="M70.657 106.473c-14.024-.366-29.537 3.401-29.537 3.401-4.414 24.355-1.233 52.526-1.233 52.526 10.832 2.951 23.124-1.521 23.124-1.521 1.902-10.179 10.597-38.795 10.597-38.795 6.86-.785 12.525-2.709 17.199-5.278-3.507-4.145-5.129-9.391-5.825-12.49-4.974 1.494-10 2.269-14.325 2.157z" fill="#fff"/>
    <path fill-rule="evenodd" clip-rule="evenodd" d="M70.657 106.473c-14.024-.366-29.537 3.401-29.537 3.401-4.414 24.355-1.233 52.526-1.233 52.526 10.832 2.951 23.124-1.521 23.124-1.521 1.902-10.179 10.597-38.795 10.597-38.795 6.86-.785 12.525-2.709 17.199-5.278-3.507-4.145-5.129-9.391-5.825-12.49-4.974 1.494-10 2.269-14.325 2.157z" fill="#ED7545"/>
    <path d="M112.282 86.21c-1.361-1.678-3.113-.907-3.113-.907-2.148 8.699-13.037 15.665-24.188 19.014.696 3.099 2.318 8.345 5.825 12.49 18.551-10.199 21.476-30.597 21.476-30.597z" fill="#fff"/>
    <path fill-rule="evenodd" clip-rule="evenodd" d="M112.282 86.21c-1.361-1.678-3.113-.907-3.113-.907-2.148 8.699-13.037 15.665-24.188 19.014.696 3.099 2.318 8.345 5.825 12.49 18.551-10.199 21.476-30.597 21.476-30.597z" fill="url(#2isvws7sku)"/>
    <path d="M111.943 86.632c.14.46-1.537 1.142-2.502-.742-.025-.898-.535-4.753.009-5.48 2.896-3.87 8.485-8.703 8.485-8.703.929.933.148 1.834.148 1.834l-2.716 2.775c.553 1.022 1.231 1.886 1.54 3.12.235.932.077 1.926-.402 2.769-.479.846-1.134 1.945-1.751 2.805-1.169 1.626-2.811 1.622-2.811 1.622z" fill="#fff"/>
    <path fill-rule="evenodd" clip-rule="evenodd" d="M111.943 86.632c.14.46-1.537 1.142-2.502-.742-.025-.898-.535-4.753.009-5.48 2.896-3.87 8.485-8.703 8.485-8.703.929.933.148 1.834.148 1.834l-2.716 2.775c.553 1.022 1.231 1.886 1.54 3.12.235.932.077 1.926-.402 2.769-.479.846-1.134 1.945-1.751 2.805-1.169 1.626-2.811 1.622-2.811 1.622z" fill="url(#4dh1199kgv)"/>
    <path d="m114.173 78.12-2.47 2.054-.789 2.061 2.162 2.445s.773-4.097 1.328-4.98c.554-.883.275-1.316-.231-1.58z" fill="#fff"/>
    <path fill-rule="evenodd" clip-rule="evenodd" d="m114.173 78.12-2.47 2.054-.789 2.061 2.162 2.445s.773-4.097 1.328-4.98c.554-.883.275-1.316-.231-1.58z" fill="url(#9ufb4p2rkw)"/>
    <path d="m46.367 123.512-5.25-13.632s-13.186 8.776-15.448 20.042c2.473.206 6.972.892 11.36 3.161 1.019-5.32 9.338-9.571 9.338-9.571z" fill="#fff"/>
    <path fill-rule="evenodd" clip-rule="evenodd" d="m46.367 123.512-5.25-13.632s-13.186 8.776-15.448 20.042c2.473.206 6.972.892 11.36 3.161 1.019-5.32 9.338-9.571 9.338-9.571z" fill="#ED7545"/>
    <path d="M57.695 136.4s-14.788 8.172-19.684 1.027c-1.016-1.484-1.248-2.951-.981-4.344-4.388-2.27-8.886-2.956-11.36-3.162-.682 3.396-.373 7.019 1.591 10.695 8.542 15.985 32.346-.57 32.346-.57l-1.912-3.646z" fill="#fff"/>
    <path fill-rule="evenodd" clip-rule="evenodd" d="M57.695 136.4s-14.788 8.172-19.684 1.027c-1.016-1.484-1.248-2.951-.981-4.344-4.388-2.27-8.886-2.956-11.36-3.162-.682 3.396-.373 7.019 1.591 10.695 8.542 15.985 32.346-.57 32.346-.57l-1.912-3.646z" fill="url(#yxdanpd26x)"/>
    <path d="m56.555 94.954-4.586 12.864c-.076.213.01.45.207.561 1.21.685 5.574 2.671 10.888-.628a2.186 2.186 0 0 0 1.023-1.554L65.64 95.04l-9.084-.086z" fill="#fff"/>
    <path fill-rule="evenodd" clip-rule="evenodd" d="m56.555 94.954-4.586 12.864c-.076.213.01.45.207.561 1.21.685 5.574 2.671 10.888-.628a2.186 2.186 0 0 0 1.023-1.554L65.64 95.04l-9.084-.086z" fill="url(#gxd8hg6ady)"/>
    <path d="M66.381 83.096s4.813 9.271 4.149 12.991c-.663 3.721-6.735 3.396-12.01.318l-3.61-9.995 11.471-3.314z" fill="#fff"/>
    <path fill-rule="evenodd" clip-rule="evenodd" d="M66.381 83.096s4.813 9.271 4.149 12.991c-.663 3.721-6.735 3.396-12.01.318l-3.61-9.995 11.471-3.314z" fill="url(#nyxiej7vvz)"/>
    <path d="M58.8 91.515a.38.38 0 0 0 .172-.554c-.387-.604-1.111-1.835-1.336-2.908 0 0-.876-.573 2.254-1.29 3.132-.719 7.8-1.834 8.804-4.483.98-2.583-1.466-9.126-5.517-3.97a.38.38 0 0 1-.603-.002c-.647-.86-2.355-2.648-4.76-1.597-2.25.984-2.517 2.624-2.494 3.451a.379.379 0 0 1-.452.383c-1.13-.227-3.847-.439-5.142 2.338-1.067 2.287-.4 3.593.213 4.236a.379.379 0 0 1-.169.627c-.746.222-1.714.843-1.635 2.588.11 2.413 2.809 2.226 3.577 2.123a.38.38 0 0 1 .337.123c.65.735 3.586 3.855 6.792 4.259a.383.383 0 0 0 .407-.503l-1.35-4.05a.382.382 0 0 1 .21-.472l.693-.299z" fill="#fff"/>
    <path fill-rule="evenodd" clip-rule="evenodd" d="M58.8 91.515a.38.38 0 0 0 .172-.554c-.387-.604-1.111-1.835-1.336-2.908 0 0-.876-.573 2.254-1.29 3.132-.719 7.8-1.834 8.804-4.483.98-2.583-1.466-9.126-5.517-3.97a.38.38 0 0 1-.603-.002c-.647-.86-2.355-2.648-4.76-1.597-2.25.984-2.517 2.624-2.494 3.451a.379.379 0 0 1-.452.383c-1.13-.227-3.847-.439-5.142 2.338-1.067 2.287-.4 3.593.213 4.236a.379.379 0 0 1-.169.627c-.746.222-1.714.843-1.635 2.588.11 2.413 2.809 2.226 3.577 2.123a.38.38 0 0 1 .337.123c.65.735 3.586 3.855 6.792 4.259a.383.383 0 0 0 .407-.503l-1.35-4.05a.382.382 0 0 1 .21-.472l.693-.299z" fill="url(#10zkflb1uA)"/>
    <path d="M59.354 92.094s-3.466-2.427-3.74-.413c-.275 2.014 3.114 2.95 4.803 2.214l-1.063-1.8z" fill="#fff"/>
    <path fill-rule="evenodd" clip-rule="evenodd" d="M59.354 92.094s-3.466-2.427-3.74-.413c-.275 2.014 3.114 2.95 4.803 2.214l-1.063-1.8z" fill="url(#u7o4z4fzkB)"/>
    <path d="m54.671 149.313 7.867-27.472a1.851 1.851 0 0 1 1.569-1.331c1.86-.211 5.623-.622 9.885-.982 5.163-.436 11.057-.8 15.181-.651a1.854 1.854 0 0 1 1.59 2.68c-3.057 6.139-11.154 22.103-15.627 28.217a1.854 1.854 0 0 1-1.515.758l-18.167-.169a.823.823 0 0 1-.783-1.05z" fill="#fff"/>
    <path fill-rule="evenodd" clip-rule="evenodd" d="m54.671 149.313 7.867-27.472a1.851 1.851 0 0 1 1.569-1.331c1.86-.211 5.623-.622 9.885-.982 5.163-.436 11.057-.8 15.181-.651a1.854 1.854 0 0 1 1.59 2.68c-3.057 6.139-11.154 22.103-15.627 28.217a1.854 1.854 0 0 1-1.515.758l-18.167-.169a.823.823 0 0 1-.783-1.05z" fill="url(#el2yo4dvfC)"/>
    <path d="m55.63 151.125 7.866-27.472a1.852 1.852 0 0 1 1.57-1.331c1.86-.211 5.624-.622 9.886-.982 5.163-.437 11.056-.801 15.18-.651a1.853 1.853 0 0 1 1.59 2.68c-3.057 6.138-11.153 22.103-15.627 28.217a1.855 1.855 0 0 1-1.514.758l-18.167-.17a.822.822 0 0 1-.784-1.049z" fill="#fff"/>
    <path fill-rule="evenodd" clip-rule="evenodd" d="m55.63 151.125 7.866-27.472a1.852 1.852 0 0 1 1.57-1.331c1.86-.211 5.624-.622 9.886-.982 5.163-.437 11.056-.801 15.18-.651a1.853 1.853 0 0 1 1.59 2.68c-3.057 6.138-11.153 22.103-15.627 28.217a1.855 1.855 0 0 1-1.514.758l-18.167-.17a.822.822 0 0 1-.784-1.049z" fill="url(#6mx7kaa8bD)"/>
    <path d="M56.62 142.518s-1.124-4.614-.67-6.251c.452-1.638 1.329-3.743 4.252-3.275 2.924.468 6.373 1.699 6.373 1.699s-.175 2.133-2.397 1.445l1.378 1.066s-.197 1.707-2.074.795l1.281 1.414s-.805 1.403-2.186.503c-1.38-.9-2.043 3.16-5.958 2.604z" fill="#fff"/>
    <path fill-rule="evenodd" clip-rule="evenodd" d="M56.62 142.518s-1.124-4.614-.67-6.251c.452-1.638 1.329-3.743 4.252-3.275 2.924.468 6.373 1.699 6.373 1.699s-.175 2.133-2.397 1.445l1.378 1.066s-.197 1.707-2.074.795l1.281 1.414s-.805 1.403-2.186.503c-1.38-.9-2.043 3.16-5.958 2.604z" fill="url(#5ml7lt54sE)"/>
    <path fill-rule="evenodd" clip-rule="evenodd" d="m63.636 129.485-.598-.177 1.64-5.564a2.534 2.534 0 0 1 1.907-1.774c5.198-1.085 18.89-1.307 19.47-1.316l.01.625c-.141.002-14.213.229-19.353 1.302a1.91 1.91 0 0 0-1.436 1.341l-1.64 5.563z" fill="#91B3FA"/>
    <path d="M106.19 67.218V44.124h4.663v9.09h9.137v-9.09h4.663v23.094h-4.663V57.12h-9.137v10.098h-4.663zM129.489 67.218V44.124h9.814c2.468 0 4.261.207 5.379.622 1.119.415 2.014 1.153 2.686 2.213.672 1.061 1.008 2.274 1.008 3.64 0 1.732-.509 3.163-1.528 4.292-1.018 1.129-2.541 1.84-4.568 2.135 1.008.588 1.84 1.233 2.497 1.937.656.704 1.541 1.953 2.654 3.75l2.82 4.505h-5.577l-3.371-5.026c-1.197-1.795-2.016-2.927-2.457-3.394-.441-.468-.908-.788-1.402-.961-.494-.174-1.276-.26-2.347-.26h-.945v9.64h-4.663zm4.663-13.327h3.449c2.237 0 3.634-.095 4.191-.284a2.512 2.512 0 0 0 1.307-.977c.315-.462.473-1.04.473-1.732 0-.777-.208-1.405-.622-1.883-.415-.478-1.001-.78-1.757-.906-.378-.052-1.512-.078-3.403-.078h-3.638v5.86zM173.596 67.218h-5.072l-2.017-5.246h-9.231l-1.906 5.246h-4.946l8.995-23.094h4.93l9.247 23.094zm-8.585-9.137-3.182-8.57-3.119 8.57h6.301z" fill="#fff"/>
    <defs>
        <linearGradient id="890ng9i9ma" x1="146.585" y1="2.434" x2="124.451" y2="29.578" gradientUnits="userSpaceOnUse">
            <stop stop-color="#08005D"/>
            <stop offset="1" stop-color="#1A0F91"/>
        </linearGradient>
        <linearGradient id="id3e42oanb" x1="157.44" y1="-14.861" x2="100.396" y2="60.179" gradientUnits="userSpaceOnUse">
            <stop stop-color="#08005D"/>
            <stop offset="1" stop-color="#1A0F91"/>
        </linearGradient>
        <linearGradient id="ihklqd0u8c" x1="166.677" y1="23.055" x2="143.84" y2="53.096" gradientUnits="userSpaceOnUse">
            <stop stop-color="#08005D"/>
            <stop offset="1" stop-color="#1A0F91"/>
        </linearGradient>
        <linearGradient id="mumo6t1y4d" x1="85.921" y1="322.975" x2="162.949" y2="16.52" gradientUnits="userSpaceOnUse">
            <stop stop-color="#4F52FF"/>
            <stop offset="1" stop-color="#4042E1"/>
        </linearGradient>
        <linearGradient id="m9zn1h9x2e" x1="83.519" y1="30.75" x2="92.496" y2="29.546" gradientUnits="userSpaceOnUse">
            <stop stop-color="#4F52FF"/>
            <stop offset="1" stop-color="#4042E1"/>
        </linearGradient>
        <linearGradient id="u3aq2irebf" x1="155.898" y1="33.229" x2="155.717" y2="35.058" gradientUnits="userSpaceOnUse">
            <stop stop-color="#4F52FF"/>
            <stop offset="1" stop-color="#4042E1"/>
        </linearGradient>
        <linearGradient id="jrzn3atugg" x1="197.182" y1="227.649" x2="198.305" y2="222.2" gradientUnits="userSpaceOnUse">
            <stop stop-color="#08005D"/>
            <stop offset="1" stop-color="#1A0F91"/>
        </linearGradient>
        <linearGradient id="wn46n0gnbh" x1="170.026" y1="227.649" x2="171.148" y2="222.2" gradientUnits="userSpaceOnUse">
            <stop stop-color="#08005D"/>
            <stop offset="1" stop-color="#1A0F91"/>
        </linearGradient>
        <linearGradient id="2da0qt5pji" x1="141.786" y1="227.649" x2="142.908" y2="222.2" gradientUnits="userSpaceOnUse">
            <stop stop-color="#08005D"/>
            <stop offset="1" stop-color="#1A0F91"/>
        </linearGradient>
        <linearGradient id="u5iu6cypij" x1="197.182" y1="208.637" x2="198.305" y2="203.188" gradientUnits="userSpaceOnUse">
            <stop stop-color="#08005D"/>
            <stop offset="1" stop-color="#1A0F91"/>
        </linearGradient>
        <linearGradient id="om1hmu7qgk" x1="170.026" y1="208.637" x2="171.148" y2="203.188" gradientUnits="userSpaceOnUse">
            <stop stop-color="#08005D"/>
            <stop offset="1" stop-color="#1A0F91"/>
        </linearGradient>
        <linearGradient id="0gkyc0qrol" x1="141.786" y1="208.637" x2="142.908" y2="203.188" gradientUnits="userSpaceOnUse">
            <stop stop-color="#08005D"/>
            <stop offset="1" stop-color="#1A0F91"/>
        </linearGradient>
        <linearGradient id="tm402azxqm" x1="175.747" y1="134.406" x2="179.058" y2="126.4" gradientUnits="userSpaceOnUse">
            <stop stop-color="#08005D"/>
            <stop offset="1" stop-color="#1A0F91"/>
        </linearGradient>
        <linearGradient id="253cv36cun" x1="125.843" y1="185.883" x2="183.837" y2="130.05" gradientUnits="userSpaceOnUse">
            <stop stop-color="#4F52FF"/>
            <stop offset="1" stop-color="#4042E1"/>
        </linearGradient>
        <linearGradient id="dx1xjxsepo" x1="81.29" y1="241.968" x2="45.547" y2="280.112" gradientUnits="userSpaceOnUse">
            <stop stop-color="#08005D"/>
            <stop offset="1" stop-color="#1A0F91"/>
        </linearGradient>
        <linearGradient id="a9kju9v8yp" x1="61.944" y1="239.137" x2="67.052" y2="239.186" gradientUnits="userSpaceOnUse">
            <stop stop-color="#FDBAB9"/>
            <stop offset="1" stop-color="#FF928E"/>
        </linearGradient>
        <linearGradient id="yn03cojerq" x1="59.205" y1="158.195" x2="32.793" y2="216.679" gradientUnits="userSpaceOnUse">
            <stop stop-color="#08005D"/>
            <stop offset="1" stop-color="#1A0F91"/>
        </linearGradient>
        <linearGradient id="29hxny2lxr" x1="67.582" y1="222.037" x2="7.715" y2="285.926" gradientUnits="userSpaceOnUse">
            <stop stop-color="#08005D"/>
            <stop offset="1" stop-color="#1A0F91"/>
        </linearGradient>
        <linearGradient id="pecu7eovms" x1="44.053" y1="238.685" x2="45.946" y2="238.703" gradientUnits="userSpaceOnUse">
            <stop stop-color="#FDBAB9"/>
            <stop offset="1" stop-color="#FF928E"/>
        </linearGradient>
        <linearGradient id="aq72p2eq5t" x1="52.2" y1="152.787" x2="25.515" y2="211.876" gradientUnits="userSpaceOnUse">
            <stop stop-color="#08005D"/>
            <stop offset="1" stop-color="#1A0F91"/>
        </linearGradient>
        <linearGradient id="2isvws7sku" x1="88.518" y1="100.82" x2="108.665" y2="101.011" gradientUnits="userSpaceOnUse">
            <stop stop-color="#FDBAB9"/>
            <stop offset="1" stop-color="#FF928E"/>
        </linearGradient>
        <linearGradient id="4dh1199kgv" x1="111.08" y1="96.476" x2="94.512" y2="133.221" gradientUnits="userSpaceOnUse">
            <stop stop-color="#FDBAB9"/>
            <stop offset="1" stop-color="#FF928E"/>
        </linearGradient>
        <linearGradient id="9ufb4p2rkw" x1="112.601" y1="82.737" x2="118.738" y2="73.494" gradientUnits="userSpaceOnUse">
            <stop stop-color="#FDBAB9"/>
            <stop offset="1" stop-color="#FF928E"/>
        </linearGradient>
        <linearGradient id="yxdanpd26x" x1="25.288" y1="138.73" x2="59.615" y2="139.056" gradientUnits="userSpaceOnUse">
            <stop stop-color="#FDBAB9"/>
            <stop offset="1" stop-color="#FF928E"/>
        </linearGradient>
        <linearGradient id="gxd8hg6ady" x1="52.847" y1="102.231" x2="64.72" y2="102.344" gradientUnits="userSpaceOnUse">
            <stop stop-color="#FDBAB9"/>
            <stop offset="1" stop-color="#FF928E"/>
        </linearGradient>
        <linearGradient id="nyxiej7vvz" x1="68.868" y1="93.756" x2="54.055" y2="84.527" gradientUnits="userSpaceOnUse">
            <stop stop-color="#FDBAB9"/>
            <stop offset="1" stop-color="#FF928E"/>
        </linearGradient>
        <linearGradient id="10zkflb1uA" x1="46.235" y1="75.204" x2="65.139" y2="90.428" gradientUnits="userSpaceOnUse">
            <stop stop-color="#08005D"/>
            <stop offset="1" stop-color="#1A0F91"/>
        </linearGradient>
        <linearGradient id="u7o4z4fzkB" x1="64.929" y1="94.622" x2="53.601" y2="87.565" gradientUnits="userSpaceOnUse">
            <stop stop-color="#FDBAB9"/>
            <stop offset="1" stop-color="#FF928E"/>
        </linearGradient>
        <linearGradient id="el2yo4dvfC" x1="119.841" y1="82.016" x2="72.939" y2="146.592" gradientUnits="userSpaceOnUse">
            <stop stop-color="#4F52FF"/>
            <stop offset="1" stop-color="#4042E1"/>
        </linearGradient>
        <linearGradient id="6mx7kaa8bD" x1="100.684" y1="115.147" x2="-72.448" y2="277.773" gradientUnits="userSpaceOnUse">
            <stop stop-color="#08005D"/>
            <stop offset="1" stop-color="#1A0F91"/>
        </linearGradient>
        <linearGradient id="5ml7lt54sE" x1="55.841" y1="137.748" x2="66.574" y2="137.748" gradientUnits="userSpaceOnUse">
            <stop stop-color="#FDBAB9"/>
            <stop offset="1" stop-color="#FF928E"/>
        </linearGradient>
    </defs>
</svg>
