<svg width="26" height="36" viewBox="0 0 26 36" fill="none" xmlns="http://www.w3.org/2000/svg">
    <path d="M25.957 7.33a.52.52 0 0 0-.046-.075.561.561 0 0 0-.06-.099L19.634.188l-.01-.007a.595.595 0 0 0-.14-.103c-.015-.008-.027-.022-.043-.03A.555.555 0 0 0 19.217 0H.565A.573.573 0 0 0 0 .58v34.84c0 .32.253.58.565.58h24.87c.312 0 .565-.26.565-.58V7.547a.594.594 0 0 0-.043-.217zm-6.174-5.257 4.367 4.895h-4.367V2.073zM1.13 34.839V1.16h17.522v6.387c0 .321.253.581.565.581h5.653v26.71H1.13z" fill="#fff"/>
    <path d="M4.522 11.032a.573.573 0 0 0-.565.58c0 .321.253.581.565.581h7.913c.312 0 .565-.26.565-.58 0-.321-.253-.581-.565-.581h-1.13V7.548h1.13a.566.566 0 0 0 .53-.38.59.59 0 0 0-.163-.641L8.846 3.043a.553.553 0 0 0-.735 0L4.154 6.527a.59.59 0 0 0-.162.642c.082.227.294.379.53.379h1.13v3.484h-1.13zm3.956-6.784 2.43 2.139h-4.86l2.43-2.139zm-1.695 3.3h3.39v3.484h-3.39V7.548zM21.478 15.097H4.522a.573.573 0 0 0-.565.58c0 .321.253.581.565.581h16.956c.312 0 .566-.26.566-.58 0-.321-.254-.581-.566-.581zM4.522 20.904h10.174c.312 0 .565-.26.565-.581 0-.32-.253-.58-.565-.58H4.522a.573.573 0 0 0-.565.58c0 .32.253.58.565.58zM21.478 24.387H4.522a.573.573 0 0 0-.565.58c0 .321.253.581.565.581h16.956c.312 0 .566-.26.566-.58 0-.321-.254-.581-.566-.581zM9.609 29.032H4.522a.573.573 0 0 0-.565.58c0 .322.253.582.565.582h5.087c.312 0 .565-.26.565-.581 0-.32-.253-.58-.565-.58zM12.435 29.032h-1.13a.573.573 0 0 0-.566.58c0 .322.253.582.566.582h1.13c.312 0 .565-.26.565-.581 0-.32-.253-.58-.565-.58zM18.652 20.904c.312 0 .566-.26.566-.581 0-.32-.254-.58-.566-.58h-2.26a.573.573 0 0 0-.566.58c0 .32.253.58.565.58h2.261zM21.478 19.742h-1.13a.573.573 0 0 0-.565.58c0 .322.253.582.565.582h1.13c.313 0 .566-.26.566-.581 0-.32-.253-.58-.566-.58z" fill="#fff"/>
</svg>
