<svg width="20" height="20" viewBox="0 0 20 20" xmlns="http://www.w3.org/2000/svg">
    <g fill-rule="nonzero" fill="none">
        <path d="M11.562.39H1.172a.781.781 0 0 0-.781.782v17.656c0 .432.35.781.78.781h13.437c.432 0 .782-.35.782-.78V4.218L11.562.39z" fill="#FFF"/>
        <path d="m14.77 16.09 3.245 3.246a.934.934 0 1 0 1.32-1.321l-3.245-3.246-1.32 1.321z" fill="#FF5D5D"/>
        <path d="M16.797 12.11a4.688 4.688 0 1 1-9.375 0 4.688 4.688 0 0 1 9.375 0z" fill="#FFF"/>
        <path d="M15.156 12.11a3.047 3.047 0 1 1-6.093 0 3.047 3.047 0 0 1 6.093 0z" fill="#72D8FF"/>
        <path d="M12.343 4.218h3.047L11.562.391v3.046c0 .432.35.781.781.781z" fill="#FFB954"/>
        <path d="M12.11 8.672a3.441 3.441 0 0 0-3.438 3.437 3.441 3.441 0 0 0 3.438 3.438 3.441 3.441 0 0 0 3.437-3.438 3.441 3.441 0 0 0-3.437-3.437zm0 6.094a2.66 2.66 0 0 1-2.657-2.657 2.66 2.66 0 0 1 2.657-2.656 2.66 2.66 0 0 1 2.656 2.656 2.66 2.66 0 0 1-2.656 2.657z" fill="#000"/>
        <path d="m19.612 17.739-3.1-3.1c.43-.746.676-1.61.676-2.53a5.06 5.06 0 0 0-1.408-3.505V4.218a.39.39 0 0 0-.114-.276L11.838.114a.39.39 0 0 0-.276-.113V0H1.172C.526 0 0 .526 0 1.172v17.656C0 19.474.526 20 1.172 20h13.436c.647 0 1.172-.526 1.172-1.172v-1.174l1.959 1.958c.258.258.597.387.937.387.339 0 .678-.129.936-.387a1.326 1.326 0 0 0 0-1.873zm-7.502-1.333a4.302 4.302 0 0 1-4.297-4.297 4.302 4.302 0 0 1 4.297-4.296 4.302 4.302 0 0 1 4.296 4.296 4.302 4.302 0 0 1-4.296 4.297zm-.157-15.072 2.494 2.494h-2.104a.391.391 0 0 1-.39-.39V1.333zm3.046 17.494c0 .216-.175.39-.39.39H1.171a.391.391 0 0 1-.39-.39V1.172c0-.216.174-.39.39-.39h10v2.655c0 .646.525 1.172 1.171 1.172H15v3.327a5.048 5.048 0 0 0-2.89-.905 5.084 5.084 0 0 0-4.83 6.646H2.506a.39.39 0 0 0 0 .781h4.988a.387.387 0 0 0 .106-.015 5.083 5.083 0 0 0 4.51 2.745c.92 0 1.783-.247 2.529-.676l.36.36v1.956zm4.06.232a.544.544 0 0 1-.768 0l-2.997-2.998c.282-.228.54-.486.768-.768l2.998 2.997a.544.544 0 0 1 0 .769z" fill="#000"/>
        <path d="M12.11 10.352a.39.39 0 1 0 0 .781c.538 0 .976.438.976.976a.39.39 0 1 0 .781 0 1.76 1.76 0 0 0-1.757-1.757zM6.021 10.968H2.506a.39.39 0 0 0 0 .782h3.515a.39.39 0 1 0 0-.782zM6.253 8.26H2.506a.39.39 0 0 0 0 .781h3.747a.39.39 0 0 0 0-.78zM7.422 16.385a.393.393 0 0 0-.39.39.393.393 0 0 0 .39.391.393.393 0 0 0 .276-.667.394.394 0 0 0-.276-.114zM5.818 16.385H2.506a.39.39 0 0 0 0 .781h3.312a.39.39 0 0 0 0-.78zM2.506 6.333a.393.393 0 0 0 .39-.39.393.393 0 0 0-.39-.391.394.394 0 0 0-.276.114.394.394 0 0 0 0 .553.394.394 0 0 0 .276.114zM10 5.552H4.162a.39.39 0 0 0 0 .781H10a.39.39 0 0 0 0-.781zM2.506 3.625H10a.39.39 0 1 0 0-.782H2.506a.39.39 0 0 0 0 .782z" fill="#000"/>
    </g>
</svg>
