<svg width="19" height="20" viewBox="0 0 19 20" xmlns="http://www.w3.org/2000/svg">
    <g fill-rule="nonzero" fill="none">
        <path d="M14.333 19.667H1.667a1.333 1.333 0 0 1-1.334-1.334V1.667C.333.93.93.333 1.667.333h10l4 4v14c0 .737-.597 1.334-1.334 1.334z" fill="#E9EEF2"/>
        <path d="M15.667 4.333H13A1.333 1.333 0 0 1 11.667 3V.333l4 4z" fill="#C3C6C7"/>
        <circle fill="#F79539" cx="14" cy="15.333" r="4.333"/>
        <g fill="#000">
            <path d="M0 18.333C.001 19.253.747 20 1.667 20H14a4.666 4.666 0 0 0 2-8.882V4.333a.333.333 0 0 0-.098-.235l-4-4A.333.333 0 0 0 11.667 0h-10A1.669 1.669 0 0 0 0 1.667v16.666zm18-3a4 4 0 1 1-8 0 4 4 0 0 1 8 0zM12 1.138 14.862 4H13c-.552 0-1-.448-1-1V1.138zM.667 1.667c0-.552.448-1 1-1h9.666V3c.001.92.747 1.666 1.667 1.667h2.333v6.194a4.666 4.666 0 0 0-3.734 8.472H1.667c-.552 0-1-.448-1-1V1.667z"/>
            <path d="M5.333 6.333c0 .184.15.334.334.334h8a.333.333 0 0 0 0-.667h-8a.333.333 0 0 0-.334.333zM2.333 8.667H9A.333.333 0 0 0 9 8H2.333a.333.333 0 0 0 0 .667zM10.333 10H7.667a.333.333 0 0 0 0 .667h2.666a.333.333 0 0 0 0-.667zM2.333 12.667h6a.333.333 0 0 0 0-.667h-6a.333.333 0 0 0 0 .667zM2.333 6.667h2a.333.333 0 0 0 0-.667h-2a.333.333 0 0 0 0 .667zM13.667 8h-3.334a.333.333 0 0 0 0 .667h3.334a.333.333 0 0 0 0-.667zM2.333 10.667h4a.333.333 0 0 0 0-.667h-4a.333.333 0 0 0 0 .667zM7.667 16H6.333a.333.333 0 0 0 0 .667h1.334a.333.333 0 0 0 0-.667zM2.333 16.667H5A.333.333 0 0 0 5 16H2.333a.333.333 0 0 0 0 .667zM2.333 14.667h2a.333.333 0 0 0 0-.667h-2a.333.333 0 0 0 0 .667zM2.333 4.667h4a.333.333 0 0 0 0-.667h-4a.333.333 0 0 0 0 .667zM7.667 14h-2a.333.333 0 0 0 0 .667h2a.333.333 0 0 0 0-.667zM12.12 13.077a.333.333 0 0 0-.043.47s1.264 1.518 1.666 1.998a.331.331 0 0 0 .257.122h2.333a.333.333 0 0 0 0-.667h-2.177l-1.567-1.88a.333.333 0 0 0-.469-.043z"/>
        </g>
    </g>
</svg>
