<svg width="20" height="20" viewBox="0 0 20 20" xmlns="http://www.w3.org/2000/svg">
    <g fill-rule="nonzero" fill="none">
        <path d="M11.953 3.708S13.87 1.22 13.32.507c-.188-.243-.348.087-.737.087-.456 0-.456-.299-.912-.299-.457 0-.457.299-.913.299S10.3.295 9.844.295c-.456 0-.456.299-.912.299-.39 0-.549-.335-.738-.091-.551.71 1.337 3.205 1.337 3.205-8.34 5.482-5.65 12.939-.726 12.939h3.905c4.939 0 7.611-7.438-.757-12.94z" fill="#EABC6B"/>
        <path d="M11.953 3.708S13.87 1.22 13.32.507c-.188-.243-.348.087-.737.087-.456 0-.456-.299-.912-.299-.457 0-.457.299-.913.299a.897.897 0 0 1-.063-.003c-.184.786-1.01 2.01-1.483 2.666.186.273.32.45.32.45-.11.074-.22.147-.327.221 7.968 5.477 5.302 12.719.429 12.719h3.077c4.939 0 7.611-7.438-.757-12.94z" fill="#E8AE4D"/>
        <path d="M12.31 4.592a6.667 6.667 0 0 1-3.328 0c-.387-.098-.607-.533-.468-.93l.005-.013a.656.656 0 0 1 .774-.437 5.417 5.417 0 0 0 2.706 0 .656.656 0 0 1 .774.437l.005.013c.14.397-.08.832-.468.93z" fill="#FFE07D"/>
        <g>
            <path d="m1.84 17.926 4.24 1.579c.36.134.742.202 1.126.202h4.37c.612 0 1.211-.174 1.728-.501l5.472-3.468a.96.96 0 0 0 .156-1.258c-.297-.437-.788-.513-1.33-.257l-5.327 2.346.006-.865a1.547 1.547 0 0 0-1.323-1.378l-3.244-.374c-.749-.106-1.123-.357-1.775-.738a5.815 5.815 0 0 0-2.936-.796H1.839v5.508z" fill="#FFDDCE"/>
            <path d="m1.84 17.926 4.24 1.579c.36.134.742.202 1.126.202h4.37c.612 0 1.211-.174 1.728-.501l5.472-3.468a.96.96 0 0 0 .156-1.258c-.297-.437-.788-.513-1.33-.257l-5.327 2.346.006-.865a1.547 1.547 0 0 0-1.323-1.378l-3.244-.374c-.749-.106-1.123-.357-1.775-.738a5.815 5.815 0 0 0-2.936-.796H1.839v5.508z" fill="#FFDDCE"/>
            <path d="M18.933 14.48c-.298-.437-.79-.513-1.33-.257l-1.466.645.128.202a.96.96 0 0 1-.157 1.259l-3.188 2.02c-.42.193-.878.293-1.343.293H7.206c-.384 0-.766-.068-1.126-.202L1.84 16.86v1.065l4.24 1.579c.36.134.742.202 1.126.202h4.37c.612 0 1.211-.174 1.728-.5l5.472-3.469a.96.96 0 0 0 .157-1.258z" fill="#FFCBBE"/>
            <path d="M11.907 14.83v.06l.039-.017-.04-.042z" fill="#F5DBCC"/>
            <path d="M2.752 18.77c0 .308-.25.558-.557.558H.85a.557.557 0 0 1-.557-.557v-6.822c0-.308.25-.557.557-.557h1.345c.307 0 .557.249.557.557v6.822z" fill="#407093"/>
        </g>
        <g fill="#000">
            <path d="M19.175 14.315c-.373-.548-1.006-.682-1.694-.359l-.364.16c.574-1.224.646-2.589.36-3.878-.329-1.481-1.122-2.916-2.358-4.265a.293.293 0 1 0-.432.396c1.166 1.272 1.912 2.616 2.218 3.996.322 1.452.135 2.95-.688 4.148l-3.646 1.605.003-.411-.001-.031a1.836 1.836 0 0 0-1.581-1.641l-3.24-.373c-1.247-.178-1.568-.925-3.256-1.35-.116-.99.04-2.043.465-3.1.642-1.59 1.897-3.135 3.637-4.48.649.46 3.542.517 4.19-.077.331.252.648.512.943.775a.292.292 0 0 0 .413-.024.293.293 0 0 0-.023-.414 16.316 16.316 0 0 0-1.036-.846 1.043 1.043 0 0 0-.35-1.04c.917-1.39 1.184-2.301.816-2.778-.254-.328-.568-.174-.703-.108-.228.11-.352.117-.562-.02-.4-.262-.82-.27-1.233 0-.213.138-.38.138-.592 0-.4-.262-.82-.27-1.233 0-.213.138-.337.13-.562.018-.134-.067-.448-.223-.703.105-.36.463-.12 1.345.736 2.69a.954.954 0 0 0-.149.099c-.34-.36-.897-.734-1.703-.644a2.147 2.147 0 0 1-1.458-.345.293.293 0 0 0-.326.487 2.728 2.728 0 0 0 1.849.44c.622-.07 1.045.248 1.308.572a.99.99 0 0 0-.01.038c-.224.003-.56.024-.929.101-.888.185-1.547.607-1.906 1.22a.293.293 0 0 0 .505.296c.535-.912 1.838-1.024 2.356-1.031l.007.02C6.395 5.69 5.11 7.28 4.418 8.992c-.437 1.083-.611 2.168-.523 3.198a6.095 6.095 0 0 0-.85-.065v-.177a.851.851 0 0 0-.85-.85H.85a.851.851 0 0 0-.85.85v6.822c0 .468.381.85.85.85h1.345c.468 0 .85-.382.85-.85v-.084l2.933 1.092A3.51 3.51 0 0 0 7.206 20h4.37c.669 0 1.32-.19 1.885-.547 5.83-3.696 5.476-3.466 5.51-3.496.47-.417.557-1.123.204-1.642zM12.238 4.308a6.349 6.349 0 0 1-3.184 0c-.46-.116-.327-.936.167-.812.959.24 1.89.24 2.85 0 .485-.122.634.694.167.812zM8.398.74c.003 0 .006.002.008.003C8.802.94 9.15.95 9.548.69c.5-.327.554.197 1.209.197.315 0 .49-.114.617-.197.212-.14.38-.14.592 0 .4.262.74.249 1.147.052.06.217-.076.865-.945 2.158-.431-.007-1.057.417-2.829.022-.867-1.31-1-1.964-.94-2.182zm10.2 14.765-5.451 3.454a2.93 2.93 0 0 1-1.57.455H7.206c-.35 0-.695-.062-1.024-.184l-3.137-1.168v-3.154a.293.293 0 1 0-.586 0v3.863a.265.265 0 0 1-.264.264H.85a.265.265 0 0 1-.264-.264v-6.822c0-.146.118-.265.264-.265h1.345c.145 0 .264.119.264.265v1.59a.293.293 0 1 0 .586 0v-.827c2.423.018 2.968 1.295 4.628 1.53l.007.001 3.24.373a1.251 1.251 0 0 1 1.068 1.103l-.004.557H8.962a.293.293 0 0 0 0 .586h3.313c.037 0 .08-.008.117-.025l5.329-2.346c.383-.17.732-.194.97.154a.67.67 0 0 1-.093.86z"/>
            <path d="M10.723 13.29a.293.293 0 0 0 .293-.293v-.486c.822-.133 1.302-.799 1.407-1.42.13-.775-.276-1.45-1.036-1.718a14.598 14.598 0 0 1-.371-.137V7.37c.347.057.555.237.57.25a.293.293 0 0 0 .395-.432c-.02-.02-.38-.342-.965-.41v-.416a.293.293 0 1 0-.586 0v.44c-.07.013-.143.03-.217.053-.497.15-.868.576-.97 1.112-.091.486.063.954.403 1.22.195.154.441.294.784.444v2.316c-.339-.014-.547-.077-.91-.315a.293.293 0 1 0-.322.49c.479.313.798.394 1.232.411v.465c0 .162.131.293.293.293zm-.715-4.564c-.168-.131-.24-.38-.189-.652.048-.25.22-.556.563-.659.016-.005.032-.01.048-.013v1.582a2.47 2.47 0 0 1-.422-.258zm1.184 1.2c.73.257.684.883.653 1.068a1.14 1.14 0 0 1-.829.919V9.862l.176.063z"/>
        </g>
    </g>
</svg>
