<svg width="17" height="20" viewBox="0 0 17 20" xmlns="http://www.w3.org/2000/svg">
    <g fill-rule="nonzero" fill="none">
        <path d="M14.523 1.496v17.008a1.26 1.26 0 0 1-1.26 1.26H1.496a1.26 1.26 0 0 1-1.26-1.26V1.496C.236.8.8.236 1.496.236h11.767c.696 0 1.26.564 1.26 1.26z" fill="#FEFDFE"/>
        <path d="M14.523 1.496v17.008a1.26 1.26 0 0 1-1.26 1.26H11.1a1.26 1.26 0 0 0 1.26-1.26V1.496A1.26 1.26 0 0 0 11.1.236h2.164c.696 0 1.26.564 1.26 1.26z" fill="#3F8CF4" opacity=".2"/>
        <path d="M7.967 18.165a.587.587 0 1 1-1.175 0 .588.588 0 0 1 1.175 0zM8.501 4.654a1.122 1.122 0 1 1-2.243-.003 1.122 1.122 0 0 1 2.243.003zM5.254 9.203c0-1.481.95-2.686 2.123-2.686 1.174 0 2.128 1.205 2.128 2.686H5.254z" fill="#B8DAFF"/>
        <path d="M8.501 4.655a1.122 1.122 0 0 1-1.49 1.055 1.117 1.117 0 0 0 0-2.116 1.125 1.125 0 0 1 1.49 1.061zM9.506 9.203H8.501c0-1.263-.693-2.324-1.625-2.61.16-.051.328-.077.5-.077 1.176 0 2.13 1.207 2.13 2.687z" fill="#3F8CF4" opacity=".2"/>
        <path d="M16.742 4.906c0 1.228-.992 2.22-2.218 2.22a2.218 2.218 0 1 1 0-4.438c1.226 0 2.218.993 2.218 2.218z" fill="#B8DAFF"/>
        <path d="M16.74 4.907c0 1.228-.991 2.22-2.217 2.22-.182 0-.359-.022-.526-.066a2.211 2.211 0 0 0 1.689-2.154 2.21 2.21 0 0 0-1.689-2.151 2.217 2.217 0 0 1 2.743 2.151z" fill="#3F8CF4" opacity=".2"/>
        <path d="M9.683 1.615h.341a.236.236 0 0 0 0-.473h-.341a.236.236 0 0 0 0 .473zM4.735 1.615h3.74a.236.236 0 0 0 0-.473h-3.74a.236.236 0 0 0 0 .473zM7.38 17.341a.825.825 0 0 0 0 1.648.824.824 0 0 0 0-1.648zm0 1.176a.352.352 0 0 1 0-.704.351.351 0 0 1 0 .704zM7.378 3.295a1.358 1.358 0 1 0 .003 2.715 1.358 1.358 0 0 0-.003-2.715zm0 2.243a.885.885 0 1 1 .002-1.77.885.885 0 0 1-.002 1.77zM5.018 9.203c0 .13.105.236.236.236H9.51a.236.236 0 0 0 .23-.292C9.717 7.56 8.666 6.28 7.377 6.28c-1.3 0-2.36 1.31-2.36 2.922zm4.242-.236H5.5c.092-1.24.899-2.214 1.878-2.214.982 0 1.791.973 1.883 2.214zM3.016 11.385h8.727a.236.236 0 0 0 0-.472H3.016a.236.236 0 0 0 0 .472zM3.016 13.551h8.727a.236.236 0 0 0 0-.472H3.016a.236.236 0 0 0 0 .472zM9.544 15.245H5.215a.236.236 0 0 0 0 .473h4.329a.236.236 0 0 0 0-.473z" fill="#3F8CF4"/>
        <path d="M0 1.496v17.008C0 19.329.671 20 1.496 20h11.767c.825 0 1.496-.671 1.496-1.496V7.351a2.458 2.458 0 0 0 2.219-2.445 2.456 2.456 0 0 0-2.219-2.442v-.968C14.759.671 14.088 0 13.263 0H1.496C.671 0 0 .671 0 1.496zm14.525 1.429a1.983 1.983 0 0 1 0 3.965 1.987 1.987 0 0 1-1.985-1.984c0-1.093.89-1.981 1.985-1.981zM.472 1.496C.472.932.932.472 1.496.472h11.767c.564 0 1.024.46 1.024 1.024v.968a2.458 2.458 0 0 0-2.22 2.442 2.46 2.46 0 0 0 2.22 2.444v11.154c0 .564-.46 1.024-1.024 1.024H1.496c-.564 0-1.024-.46-1.024-1.024V1.496z" fill="#2566BF"/>
        <path d="M14.013 5.66a.236.236 0 0 0 .334 0L15.52 4.49a.236.236 0 1 0-.334-.335L14.18 5.16l-.32-.32a.236.236 0 1 0-.333.334l.486.487z" fill="#3F8CF4"/>
    </g>
</svg>
