<svg width="36" height="35" viewBox="0 0 36 35" xmlns="http://www.w3.org/2000/svg">
    <g fill-rule="nonzero" fill="none">
        <g transform="translate(.03)">
            <circle fill="#E6EDFF" cx="17.5" cy="17.5" r="17.5"/>
            <path d="m8.817 5.09.435.092-.503.143a.748.748 0 0 0-.526.558l-.093.421-.093-.421a.748.748 0 0 0-.527-.558l-.502-.143.434-.092a.748.748 0 0 0 .572-.555l.116-.475.115.475c.068.28.29.496.572.555z" fill="#E56AB9"/>
            <path d="m33.685 19.906.435.092-.503.143a.748.748 0 0 0-.526.558l-.093.421-.093-.421a.748.748 0 0 0-.526-.558l-.503-.143.435-.092a.748.748 0 0 0 .571-.555l.116-.475.116.475c.068.28.29.496.571.555z" fill="#7DB4BA"/>
        </g>
        <path d="M5.659 3.378 3.58.607a.582.582 0 0 0-.931 0L.572 3.378a.582.582 0 0 0 .466.932h.644v3.684h2.867V4.31h.644c.48 0 .754-.548.466-.932z" fill="#E56AB9"/>
        <path d="M4.075 6.637c-.66 0-1.196-.536-1.196-1.197V4.31c0-.482-.285-.897-.695-1.087l1.68-2.24L3.58.607a.581.581 0 0 0-.93 0L.57 3.378a.582.582 0 0 0 .467.931h.644v3.703h2.867V6.637h-.474z" fill="#BD50B6"/>
        <path d="M29.481 5.009 31.56 7.78c.233.31.699.31.931 0l2.078-2.771a.582.582 0 0 0-.465-.932h-.645V.393h-2.866v3.684h-.645a.582.582 0 0 0-.466.932z" fill="#E56AB9"/>
        <path d="M31.065 1.75c.66 0 1.197.536 1.197 1.197v1.13c0 .482.284.897.695 1.087l-1.68 2.24.282.376c.233.31.698.311.931 0l2.079-2.772a.582.582 0 0 0-.466-.93h-.645V.373h-2.867V1.75h.474z" fill="#BD50B6"/>
        <g>
            <path fill="#FFE578" d="M4.314 14.025h4.821v14.05h-4.82z"/>
            <path d="M5.81 23.587v-9.562H4.314v14.05h4.821v-1.496h-.333a2.991 2.991 0 0 1-2.992-2.992z" fill="#EAA192"/>
            <path d="M6.725 26.244a.374.374 0 0 1-.374-.374v-6.731a.374.374 0 1 1 .748 0v6.73a.374.374 0 0 1-.374.375z" fill="#333"/>
            <path fill="#F1F1F1" d="M3.36 14.025h6.73v2.911H3.36z"/>
            <path d="M4.556 14.025H3.359v2.911h6.731V15.74H6.052c-.826 0-1.496-.67-1.496-1.496v-.22z" fill="#D5D5D5"/>
            <path fill="#F1F1F1" d="M3.36 28.084h6.73v2.912H3.36z"/>
            <path d="M4.556 28.084H3.359v2.912h6.731V29.8H6.052c-.826 0-1.496-.67-1.496-1.496v-.22z" fill="#D5D5D5"/>
            <g>
                <path fill="#FFE578" d="M26.002 14.025h4.821v14.05h-4.82z"/>
                <path d="M27.498 23.587v-9.562h-1.496v14.05h4.821v-1.496h-.333a2.991 2.991 0 0 1-2.992-2.992z" fill="#EAA192"/>
                <path d="M28.413 26.244a.374.374 0 0 1-.374-.374v-6.731a.374.374 0 1 1 .748 0v6.73a.374.374 0 0 1-.374.375z" fill="#333"/>
                <path fill="#F1F1F1" d="M25.047 14.025h6.731v2.911h-6.73z"/>
                <path d="M26.244 14.025h-1.197v2.911h6.731V15.74H27.74c-.826 0-1.496-.67-1.496-1.496v-.22z" fill="#D5D5D5"/>
                <g>
                    <path fill="#F1F1F1" d="M25.047 28.084h6.731v2.912h-6.73z"/>
                    <path d="M26.244 28.084h-1.197v2.912h6.731V29.8H27.74c-.826 0-1.496-.67-1.496-1.496v-.22z" fill="#D5D5D5"/>
                </g>
            </g>
            <path fill="#80D8FF" d="M1.864 30.986h31.41v3.64H1.864z"/>
            <path d="M3.36 31.485v-.499H1.863v3.64h31.41V33.13H5.004a1.645 1.645 0 0 1-1.645-1.645z" fill="#8C9EFF"/>
            <g>
                <path d="M20.687 24.555h-6.314a1.608 1.608 0 0 0 0 3.215h6.314a1.608 1.608 0 0 0 0-3.215z" fill="#F1F1F1"/>
                <path d="M14.11 24.578a1.607 1.607 0 0 0-1.345 1.57c-.008.892.754 1.622 1.647 1.622h6.276c.798 0 1.459-.583 1.584-1.346h-6.815a1.346 1.346 0 0 1-1.346-1.346v-.5z" fill="#D5D5D5"/>
                <path d="M20.687 27.77h-6.314a1.608 1.608 0 0 0 0 3.216h6.314a1.608 1.608 0 0 0 0-3.216z" fill="#F1F1F1"/>
                <path d="M14.11 27.794a1.607 1.607 0 0 0-1.345 1.57c-.008.892.754 1.622 1.647 1.622h6.276c.798 0 1.459-.583 1.584-1.346h-6.815a1.346 1.346 0 0 1-1.346-1.346v-.5z" fill="#D5D5D5"/>
                <g>
                    <path d="M17.529 17.391c-1.949 0-3.528 1.602-3.528 3.58.001 1.979 1.581 3.583 3.53 3.584 1.949 0 3.528-1.603 3.527-3.58 0-1.979-1.58-3.583-3.53-3.584z" fill="#FFE578"/>
                    <path d="M15.497 20.224c0-1.104.492-2.09 1.265-2.747-1.58.355-2.761 1.784-2.76 3.495 0 1.978 1.58 3.582 3.53 3.583a3.48 3.48 0 0 0 2.262-.834 3.486 3.486 0 0 1-.767.086c-1.949 0-3.53-1.605-3.53-3.583z" fill="#EAA192"/>
                    <path d="M20.804 19.638a3.59 3.59 0 0 0-.94-1.348.56.56 0 0 0-.76.822l.014.013a3 3 0 0 1 .46.555l.285.443a.531.531 0 0 0 .73.162l.005-.003a.53.53 0 0 0 .206-.644z" fill="#FFF"/>
                    <path d="M18.715 21.71c0-.592-.479-1.074-1.068-1.074h-.234a.399.399 0 0 1-.395-.401c0-.221.177-.401.395-.401h.795a.337.337 0 0 0 0-.673h-.341v-.3a.337.337 0 0 0-.674 0v.323a1.075 1.075 0 0 0 .22 2.125h.234c.218 0 .395.18.395.402a.399.399 0 0 1-.395.401h-.795a.337.337 0 0 0 0 .673h.341v.3a.337.337 0 0 0 .674 0v-.323c.484-.102.848-.534.848-1.051z" fill="#333"/>
                </g>
            </g>
            <g>
                <path fill="#80D8FF" d="M17.53 2.741 1.825 11.113v2.912h31.41v-2.912z"/>
                <path d="M4.256 12.09a.711.711 0 0 1 .322-.9l14.401-7.676-1.449-.773-15.705 8.372v2.911h31.41V12.53H4.912a.71.71 0 0 1-.656-.439z" fill="#8C9EFF"/>
                <path d="M28.158 9.085a.598.598 0 0 0-.246-.81l-2.513-1.34a.598.598 0 0 0-.563 1.056l2.513 1.34a.598.598 0 0 0 .81-.246z" fill="#FFF"/>
            </g>
            <g transform="translate(10.943 7.209)">
                <path fill="#FFF" d="M.337 2.407h1.527"/>
                <path d="M1.864 2.907H.337c-.186 0-.337-.224-.337-.5s.15-.5.337-.5h1.527c.186 0 .337.224.337.5s-.15.5-.337.5zM12.838 2.58h-1.527a.337.337 0 0 1 0-.673h1.527a.337.337 0 0 1 0 .673z" fill="#333"/>
                <circle fill="#F1F1F1" cx="6.587" cy="2.244" r="2.244"/>
                <path d="M5.84 1.496c0-.571.213-1.092.564-1.488a2.243 2.243 0 1 0 1.862 3.723A2.244 2.244 0 0 1 5.84 1.495z" fill="#D5D5D5"/>
            </g>
        </g>
        <g fill="#333">
            <path d="M4.549 8.368H1.682a.374.374 0 0 1-.374-.374v-3.31h-.27C.273 4.71-.207 3.75.273 3.154L2.35.382c.357-.505 1.172-.505 1.53 0l2.077 2.772c.48.595-.001 1.556-.765 1.53h-.27v3.31a.374.374 0 0 1-.374.374zM2.056 7.62h2.119V4.31c0-.206.167-.374.374-.374h.644c.195-.027.262-.161.167-.333L3.282.83c-.055-.072-.235-.118-.333 0L.871 3.603c-.095.172-.028.306.167.333h.644c.207 0 .374.168.374.374v3.31zM31.26 8.005l-2.078-2.772c-.48-.595.001-1.556.765-1.53h.27V.393c0-.206.168-.373.375-.373h2.866c.207 0 .374.167.374.373v3.31h.27c.765-.026 1.245.934.766 1.53l-2.079 2.772c-.406.542-1.122.542-1.529 0zm-1.48-3.22 2.078 2.77c.12.119.214.119.333.001l2.078-2.772c.095-.172.029-.306-.166-.333h-.645a.374.374 0 0 1-.374-.374V.767h-2.119v3.31a.374.374 0 0 1-.374.374h-.644c-.194.027-.262.161-.166.334zM34.626 34.252h-.978v-3.266a.374.374 0 0 0-.374-.374h-1.122v-2.528a.374.374 0 0 0-.374-.374h-.581v-10.4h.581a.374.374 0 0 0 .374-.374v-2.538h1.083a.374.374 0 0 0 .374-.373v-2.912a.374.374 0 0 0-.198-.33L17.706 2.41a.374.374 0 0 0-.352 0L1.65 10.783a.374.374 0 0 0-.198.33v2.912c0 .206.167.373.374.373h1.16v2.538c0 .207.168.374.374.374h.582v10.4h-.582a.374.374 0 0 0-.374.374v2.528H1.864a.374.374 0 0 0-.374.374v3.266H.374a.374.374 0 1 0 0 .748h34.252a.374.374 0 1 0 0-.748zm-3.222-5.794v2.154h-5.983v-2.154h5.983zm-18.303.92c0-.7.57-1.271 1.272-1.271h6.314c.702 0 1.272.57 1.272 1.271 0 .598-.415 1.099-.971 1.234h-6.916a1.272 1.272 0 0 1-.97-1.234zm7.586-4.487a1.273 1.273 0 0 1 0 2.543h-6.314c-.701 0-1.272-.57-1.272-1.271 0-.702.57-1.272 1.272-1.272h6.314zm-3.156-.71c-1.74 0-3.155-1.44-3.155-3.21-.038-1.708 1.441-3.24 3.153-3.206 1.74 0 3.155 1.44 3.156 3.21.037 1.707-1.442 3.24-3.154 3.206zm4.248 3.59a1.944 1.944 0 0 0-1.092-3.553h-.925a3.96 3.96 0 0 0 1.67-3.244c0-2.181-1.751-3.956-3.903-3.957-2.114-.043-3.947 1.845-3.901 3.955a3.97 3.97 0 0 0 1.677 3.246h-.932a1.944 1.944 0 0 0-1.092 3.552 1.944 1.944 0 0 0-.41 2.842h-2.407v-2.528a.374.374 0 0 0-.374-.374H9.51v-10.4h.581a.374.374 0 0 0 .374-.374v-2.538h14.21v2.538c0 .207.167.374.373.374h.582v10.4h-.582a.374.374 0 0 0-.373.374v2.528h-2.485a1.944 1.944 0 0 0-.41-2.842zm4.597-.06v-10.4h4.073v10.4h-4.073zm5.028-11.149h-5.983v-2.164h5.983v2.164zM2.2 13.651v-2.314L17.53 3.165l15.331 8.172v2.314H2.2zm1.534 2.911v-2.164h5.983v2.164H3.733zm5.028.748v10.4H4.688v-10.4h4.073zM3.733 28.458h5.983v2.154H3.733v-2.154zM32.9 34.252H2.238V31.36H32.9v2.892z"/>
            <path d="M17.53 12.07a2.62 2.62 0 0 1-2.618-2.617 2.62 2.62 0 0 1 2.618-2.618 2.62 2.62 0 0 1 2.618 2.618 2.62 2.62 0 0 1-2.618 2.617zm0-4.487c-1.03 0-1.87.839-1.87 1.87 0 1.03.84 1.87 1.87 1.87 1.03 0 1.87-.84 1.87-1.87 0-1.031-.839-1.87-1.87-1.87z"/>
        </g>
    </g>
</svg>
