<svg width="35" height="35" viewBox="0 0 35 35" xmlns="http://www.w3.org/2000/svg">
    <g fill-rule="nonzero" fill="none">
        <path d="M24.334 32.449a.513.513 0 0 1-.512-.513V4.443a.513.513 0 1 1 1.025 0v27.493c0 .283-.23.513-.513.513z" fill="#000"/>
        <path d="M26.85 34.451H3.028a2.515 2.515 0 0 1-2.515-2.515V3.456A2.944 2.944 0 0 1 3.457.514H26.85V34.45z" fill="#EFF2FA"/>
        <path d="M26.85 34.451H3.028a2.515 2.515 0 0 1-2.515-2.515V3.456A2.944 2.944 0 0 1 3.457.514H26.85V34.45z" fill="#EFF2FA"/>
        <path d="M26.85 34.964a3.031 3.031 0 0 1-3.028-3.028V25.89c0-.283.23-.513.512-.513h4.153c.767 0 1.39.624 1.39 1.391v5.168a3.031 3.031 0 0 1-3.027 3.028zm-2.003-8.562v5.534c0 1.104.898 2.002 2.002 2.002a2.005 2.005 0 0 0 2.003-2.002v-5.168a.366.366 0 0 0-.365-.366h-3.64z" fill="#000"/>
        <path d="M26.85 34.451V3.695H13.157A2.605 2.605 0 0 0 10.552 6.3V34.45H26.85z" fill="#D7DEED"/>
        <path d="M24.334 9.074V3.028a2.515 2.515 0 0 1 5.03 0v4.894c0 .636-.515 1.152-1.15 1.152h-3.88z" fill="#AFB9D2"/>
        <path d="M32.625 34.487H14.27c-.666 0-1.205-.54-1.205-1.205V7.64c0-.665.54-1.205 1.205-1.205h18.356c.666 0 1.205.54 1.205 1.205v25.643c0 .666-.54 1.205-1.205 1.205z" fill="#515262"/>
        <path d="M32.625 6.434h-1.971v12.18c0 7.445-6.035 13.48-13.48 13.48h-4.11v1.188c0 .666.54 1.205 1.205 1.205h18.356c.666 0 1.205-.54 1.205-1.205V7.64c0-.665-.54-1.205-1.205-1.205z" fill="#373842"/>
        <path d="M31.052 13.517H15.666a.708.708 0 0 1-.708-.708V8.98c0-.392.317-.709.708-.709h15.386c.391 0 .708.317.708.708v3.831c0 .391-.317.708-.708.708z" fill="#53DB7D"/>
        <g fill="#EFF2FA">
            <path d="M17.17 18.264h-1.687a.525.525 0 0 1-.525-.525V16.09c0-.29.235-.525.525-.525h1.687c.29 0 .525.235.525.525v1.648c0 .29-.235.525-.525.525zM21.858 18.264h-1.687a.525.525 0 0 1-.525-.525V16.09c0-.29.235-.525.525-.525h1.687c.29 0 .526.235.526.525v1.648c0 .29-.236.525-.526.525zM26.547 18.264h-1.688a.525.525 0 0 1-.525-.525V16.09c0-.29.235-.525.525-.525h1.688c.29 0 .525.235.525.525v1.648c0 .29-.235.525-.525.525z"/>
        </g>
        <path d="M31.235 18.264h-1.687a.525.525 0 0 1-.525-.525V16.09c0-.29.235-.525.525-.525h1.687c.29 0 .525.235.525.525v1.648c0 .29-.235.525-.525.525z" fill="#FFBF6E"/>
        <g fill="#EFF2FA">
            <path d="M17.17 23.008h-1.687a.525.525 0 0 1-.525-.525v-1.647c0-.29.235-.525.525-.525h1.687c.29 0 .525.235.525.525v1.647c0 .29-.235.525-.525.525zM21.858 23.008h-1.687a.525.525 0 0 1-.525-.525v-1.647c0-.29.235-.525.525-.525h1.687c.29 0 .526.235.526.525v1.647c0 .29-.236.525-.526.525zM26.547 23.008h-1.688a.525.525 0 0 1-.525-.525v-1.647c0-.29.235-.525.525-.525h1.688c.29 0 .525.235.525.525v1.647c0 .29-.235.525-.525.525z"/>
        </g>
        <path d="M31.235 23.008h-1.687a.525.525 0 0 1-.525-.525v-1.647c0-.29.235-.525.525-.525h1.687c.29 0 .525.235.525.525v1.647c0 .29-.235.525-.525.525z" fill="#FF8DBB"/>
        <g fill="#EFF2FA">
            <path d="M17.17 27.753h-1.687a.525.525 0 0 1-.525-.525V25.58c0-.29.235-.525.525-.525h1.687c.29 0 .525.235.525.525v1.648c0 .29-.235.525-.525.525zM21.858 27.753h-1.687a.525.525 0 0 1-.525-.525V25.58c0-.29.235-.525.525-.525h1.687c.29 0 .526.235.526.525v1.648c0 .29-.236.525-.526.525zM26.547 27.753h-1.688a.525.525 0 0 1-.525-.525V25.58c0-.29.235-.525.525-.525h1.688c.29 0 .525.235.525.525v1.648c0 .29-.235.525-.525.525z"/>
        </g>
        <path d="M31.235 32.212h-1.687a.525.525 0 0 1-.525-.525V25.58c0-.29.235-.525.525-.525h1.687c.29 0 .525.235.525.525v6.107c0 .29-.235.525-.525.525z" fill="#FF6465"/>
        <path d="M17.17 32.212h-1.687a.525.525 0 0 1-.525-.525v-1.648c0-.29.235-.525.525-.525h1.687c.29 0 .525.235.525.525v1.648c0 .29-.235.525-.525.525z" fill="#AFB9D2"/>
        <path d="M21.858 32.212h-1.687a.525.525 0 0 1-.525-.525v-1.648c0-.29.235-.525.525-.525h1.687c.29 0 .526.235.526.525v1.648c0 .29-.236.525-.526.525z" fill="#EFF2FA"/>
        <path d="M26.547 32.212h-1.688a.525.525 0 0 1-.525-.525v-1.648c0-.29.235-.525.525-.525h1.688c.29 0 .525.235.525.525v1.648c0 .29-.235.525-.525.525z" fill="#AFB9D2"/>
        <path d="M4.706 9.36c.131 0 .263-.05.363-.15l1.656-1.657A.513.513 0 1 0 6 6.828L4.706 8.122l-.552-.552a.513.513 0 1 0-.725.725l.915.915c.1.1.231.15.362.15zM7.39 13.161c0-.557-.453-1.011-1.01-1.011H3.774c-.558 0-1.011.454-1.011 1.011v2.605c0 .557.453 1.011 1.011 1.011H6.38c.558 0 1.012-.454 1.012-1.011V13.16zm-1.025 2.59H3.79v-2.576h2.576v2.577zM7.39 20.357c0-.557-.453-1.011-1.01-1.011H3.774c-.558 0-1.011.454-1.011 1.011v2.605c0 .557.453 1.011 1.011 1.011H6.38c.558 0 1.012-.454 1.012-1.011v-2.605zm-1.025 2.59H3.79v-2.576h2.576v2.577zM6.38 26.695H3.774c-.558 0-1.011.454-1.011 1.011v2.605c0 .557.453 1.011 1.011 1.011H6.38c.558 0 1.012-.454 1.012-1.011v-2.605c0-.557-.454-1.011-1.012-1.011zm-.015 3.602H3.79V27.72h2.576v2.577z" fill="#000"/>
        <path d="M33.83 12.637c.283 0 .513-.229.513-.512V7.639a1.72 1.72 0 0 0-1.718-1.718h-2.747V3.028A3.031 3.031 0 0 0 26.85 0H3.457A3.46 3.46 0 0 0 0 3.457v28.48a3.031 3.031 0 0 0 3.028 3.027h8.208a.513.513 0 1 0 0-1.026H3.028a2.005 2.005 0 0 1-2.003-2.002V3.456c0-1.34 1.091-2.43 2.432-2.43H24.58a3.015 3.015 0 0 0-.76 2.002v1.415a.513.513 0 1 0 1.026 0V3.028c0-1.104.898-2.003 2.003-2.003 1.104 0 2.002.899 2.002 2.003V5.92H14.27A1.72 1.72 0 0 0 12.55 7.64v.355H9.887a.513.513 0 1 0 0 1.025h2.664v4.932H9.887a.513.513 0 1 0 0 1.025h2.664v6.17H9.887a.513.513 0 1 0 0 1.026h2.664v6.324H9.887a.513.513 0 1 0 0 1.025h2.664v3.761c0 .947.77 1.718 1.718 1.718h18.356a1.72 1.72 0 0 0 1.718-1.718V14.227a.513.513 0 1 0-1.025 0v19.055c0 .382-.31.693-.693.693H14.27a.693.693 0 0 1-.693-.693V7.64c0-.382.31-.692.693-.692h18.356c.382 0 .693.31.693.692v4.486c0 .283.23.512.512.512z" fill="#000"/>
        <path d="M32.273 8.978c0-.673-.548-1.22-1.22-1.22H15.665c-.673 0-1.22.547-1.22 1.22v3.831c0 .673.547 1.22 1.22 1.22h15.386c.673 0 1.22-.547 1.22-1.22V8.98zm-1.026 3.831a.195.195 0 0 1-.195.196H15.666a.195.195 0 0 1-.195-.196V8.98c0-.108.087-.196.195-.196h15.386c.108 0 .195.088.195.195v3.831zM18.208 16.091c0-.572-.466-1.038-1.038-1.038h-1.687c-.572 0-1.038.466-1.038 1.038v1.648c0 .572.466 1.038 1.038 1.038h1.687c.572 0 1.038-.466 1.038-1.038V16.09zm-1.025 1.648a.012.012 0 0 1-.013.012h-1.687a.012.012 0 0 1-.013-.012V16.09c0-.007.006-.012.013-.012h1.687c.007 0 .013.005.013.012v1.648zM22.896 16.091c0-.572-.465-1.038-1.038-1.038h-1.687c-.572 0-1.038.466-1.038 1.038v1.648c0 .572.466 1.038 1.038 1.038h1.687c.573 0 1.038-.466 1.038-1.038V16.09zm-1.025 1.648a.012.012 0 0 1-.013.012h-1.687a.012.012 0 0 1-.012-.012V16.09c0-.007.005-.012.012-.012h1.687c.007 0 .013.005.013.012v1.648zM27.584 16.091c0-.572-.465-1.038-1.037-1.038h-1.688c-.572 0-1.037.466-1.037 1.038v1.648c0 .572.465 1.038 1.037 1.038h1.688c.572 0 1.037-.466 1.037-1.038V16.09zM26.56 17.74a.012.012 0 0 1-.012.012h-1.688a.012.012 0 0 1-.012-.012V16.09c0-.007.006-.012.012-.012h1.688c.007 0 .012.005.012.012v1.648zM32.273 16.091c0-.572-.466-1.038-1.038-1.038h-1.687c-.572 0-1.038.466-1.038 1.038v1.648c0 .572.465 1.038 1.038 1.038h1.687c.572 0 1.038-.466 1.038-1.038V16.09zm-1.026 1.648a.012.012 0 0 1-.012.012h-1.687a.012.012 0 0 1-.013-.012V16.09c0-.007.006-.012.013-.012h1.687c.007 0 .012.005.012.012v1.648zM18.208 20.836c0-.573-.466-1.038-1.038-1.038h-1.687c-.572 0-1.038.465-1.038 1.038v1.647c0 .573.466 1.038 1.038 1.038h1.687c.572 0 1.038-.465 1.038-1.038v-1.647zm-1.025 1.647a.012.012 0 0 1-.013.013h-1.687a.012.012 0 0 1-.013-.013v-1.647c0-.007.006-.013.013-.013h1.687c.007 0 .013.006.013.013v1.647zM22.896 20.836c0-.573-.465-1.038-1.038-1.038h-1.687c-.572 0-1.038.465-1.038 1.038v1.647c0 .573.466 1.038 1.038 1.038h1.687c.573 0 1.038-.465 1.038-1.038v-1.647zm-1.025 1.647a.012.012 0 0 1-.013.013h-1.687a.012.012 0 0 1-.012-.013v-1.647c0-.007.005-.013.012-.013h1.687c.007 0 .013.006.013.013v1.647zM27.584 20.836c0-.573-.465-1.038-1.037-1.038h-1.688c-.572 0-1.037.465-1.037 1.038v1.647c0 .573.465 1.038 1.037 1.038h1.688c.572 0 1.037-.465 1.037-1.038v-1.647zm-1.025 1.647a.012.012 0 0 1-.012.013h-1.688a.012.012 0 0 1-.012-.013v-1.647c0-.007.006-.013.012-.013h1.688c.007 0 .012.006.012.013v1.647zM32.273 20.836c0-.573-.466-1.038-1.038-1.038h-1.687c-.572 0-1.038.465-1.038 1.038v1.647c0 .573.465 1.038 1.038 1.038h1.687c.572 0 1.038-.465 1.038-1.038v-1.647zm-1.026 1.647a.012.012 0 0 1-.012.013h-1.687a.012.012 0 0 1-.013-.013v-1.647c0-.007.006-.013.013-.013h1.687c.007 0 .012.006.012.013v1.647zM18.208 25.58c0-.572-.466-1.038-1.038-1.038h-1.687c-.572 0-1.038.466-1.038 1.038v1.648c0 .572.466 1.038 1.038 1.038h1.687c.572 0 1.038-.466 1.038-1.038V25.58zm-1.025 1.648a.012.012 0 0 1-.013.012h-1.687a.012.012 0 0 1-.013-.012V25.58c0-.007.006-.012.013-.012h1.687c.007 0 .013.005.013.012v1.648zM22.896 25.58c0-.572-.465-1.038-1.038-1.038h-1.687c-.572 0-1.038.466-1.038 1.038v1.648c0 .572.466 1.038 1.038 1.038h1.687c.573 0 1.038-.466 1.038-1.038V25.58zm-1.025 1.648a.012.012 0 0 1-.013.012h-1.687a.012.012 0 0 1-.012-.012V25.58c0-.007.005-.012.012-.012h1.687c.007 0 .013.005.013.012v1.648zM27.584 25.58c0-.572-.465-1.038-1.037-1.038h-1.688c-.572 0-1.037.466-1.037 1.038v1.648c0 .572.465 1.038 1.037 1.038h1.688c.572 0 1.037-.466 1.037-1.038V25.58zm-1.025 1.648a.012.012 0 0 1-.012.012h-1.688a.012.012 0 0 1-.012-.012V25.58c0-.007.006-.012.012-.012h1.688c.007 0 .012.005.012.012v1.648zM31.235 24.542h-1.687c-.572 0-1.038.466-1.038 1.038v6.107c0 .572.465 1.037 1.038 1.037h1.687c.572 0 1.038-.465 1.038-1.037V25.58c0-.572-.466-1.038-1.038-1.038zm.012 7.145a.012.012 0 0 1-.012.012h-1.687a.012.012 0 0 1-.013-.012V25.58c0-.007.006-.012.013-.012h1.687c.007 0 .012.005.012.012v6.107zM17.17 29.001h-1.687c-.572 0-1.038.466-1.038 1.038v1.648c0 .572.466 1.038 1.038 1.038h1.687c.572 0 1.038-.466 1.038-1.038v-1.648c0-.572-.466-1.038-1.038-1.038zm.013 2.686a.012.012 0 0 1-.013.012h-1.687a.012.012 0 0 1-.013-.012v-1.648c0-.007.006-.012.013-.012h1.687c.007 0 .013.005.013.012v1.648zM21.858 29.001h-1.687c-.572 0-1.038.466-1.038 1.038v1.648c0 .572.466 1.038 1.038 1.038h1.687c.573 0 1.038-.466 1.038-1.038v-1.648c0-.572-.465-1.038-1.038-1.038zm.013 2.686a.012.012 0 0 1-.013.012h-1.687a.012.012 0 0 1-.012-.012v-1.648c0-.007.005-.012.012-.012h1.687c.007 0 .013.005.013.012v1.648zM26.547 29.001h-1.688c-.572 0-1.037.466-1.037 1.038v1.648c0 .572.465 1.038 1.037 1.038h1.688c.572 0 1.038-.466 1.038-1.038v-1.648c0-.572-.466-1.038-1.038-1.038zm.012 2.686a.012.012 0 0 1-.012.012h-1.688a.012.012 0 0 1-.012-.012v-1.648c0-.007.006-.012.012-.012h1.688c.007 0 .012.005.012.012v1.648z" fill="#000"/>
    </g>
</svg>
