<?xml version="1.0" encoding="UTF-8"?>
<svg width="35px" height="35px" viewBox="0 0 35 35" version="1.1" xmlns="http://www.w3.org/2000/svg" xmlns:xlink="http://www.w3.org/1999/xlink">
    <title>3C54C552-C686-4AAD-8172-C8F073E3A0B0</title>
    <g id="Page-1" stroke="none" stroke-width="1" fill="none" fill-rule="evenodd">
        <g id="01_Urban-Money-|-Homepage-|-Web-" transform="translate(-1303.000000, -1212.000000)" fill-rule="nonzero">
            <g id="card-2" transform="translate(228.000000, 1079.000000)">
                <g id="Group-20" transform="translate(0.000000, 85.000000)">
                    <g id="Members-Love-Us-Copy" transform="translate(881.000000, 10.000000)">
                        <g id="ic_pre-payment" transform="translate(175.000000, 20.000000)">
                            <g id="ic_pre_paytm" transform="translate(19.000000, 18.000000)">
                                <path d="M22.7825368,1.54010254 C22.7833552,1.61618708 22.7539135,1.68948008 22.7006892,1.74385567 C22.6474649,1.79823126 22.5748187,1.82923459 22.498734,1.83004434 L22.4958653,1.83004434 C22.3386881,1.82997491 22.210834,1.70343834 22.2091365,1.54627029 C22.2081324,1.45447117 22.2057514,1.36166799 22.2017065,1.26895087 C22.1938597,1.16462871 22.2434251,1.06430668 22.3310506,1.00715387 C22.4186762,0.950001046 22.5304663,0.945080737 22.6227743,0.994313991 C22.7150823,1.04354725 22.7732701,1.13912665 22.7746191,1.2437348 C22.7789222,1.34316473 22.7815614,1.44195397 22.7825368,1.54010254 L22.7825368,1.54010254 Z M22.0151535,4.27686396 C21.8701235,4.2151974 21.7022308,4.27834346 21.6337855,4.42030009 C21.5563472,4.60036808 21.4682652,4.77566981 21.3700064,4.94527634 C21.2930211,5.0840808 21.341532,5.25897524 21.4790179,5.33829135 C21.5223625,5.36106494 21.5706224,5.37288368 21.6195853,5.37271602 C21.724196,5.37392829 21.8210777,5.31778095 21.8720329,5.22641116 C21.9753069,5.04264079 22.0728435,4.85046506 22.1587617,4.65553535 C22.1755072,4.61755833 22.1842941,4.57655303 22.1845802,4.535049 C22.1831128,4.42333592 22.1170353,4.32259741 22.0151535,4.27674921 L22.0151535,4.27686396 Z M22.4539246,2.48709658 C22.2996811,2.4655809 22.1557531,2.56906507 22.1270336,2.72213102 L22.1270336,2.72801191 C22.0983464,2.9173476 22.061053,3.11242074 22.0122847,3.30732176 C21.9767156,3.46146626 22.0709789,3.61574545 22.2243694,3.6544372 C22.2462148,3.65780475 22.2682535,3.65976907 22.29035,3.66031808 C22.4233374,3.66179692 22.5398173,3.57146557 22.5714848,3.44229516 C22.6202531,3.23861585 22.6604153,3.02633038 22.6948399,2.8140449 C22.7171992,2.65755844 22.6100031,2.51203063 22.4539246,2.48698183 L22.4539246,2.48709658 Z M20.7002171,5.90882291 C20.6409301,5.97859024 20.5800749,6.04713359 20.5176515,6.11445295 C20.4452073,6.18911792 20.4188635,6.29715212 20.4488061,6.3967838 C20.4787486,6.49641548 20.5602844,6.57202834 20.6618873,6.59438644 C20.7634902,6.61674454 20.8692349,6.58234346 20.938235,6.50448448 C21.0059942,6.4313703 21.07208,6.3570417 21.1364924,6.28149867 C21.2377531,6.16087946 21.2228399,5.98117958 21.1030811,5.87890268 C20.9833224,5.77662579 20.8035028,5.79001918 20.7002171,5.90890897 L20.7002171,5.90882291 Z" id="Shape" fill="#603913"></path>
                                <path d="M1.7948757,16.316434 C1.75432545,16.3163792 1.71426477,16.3075725 1.67743019,16.2906155 C1.60751072,16.2593857 1.55299783,16.2014724 1.52605081,16.1297933 C1.49910378,16.0581142 1.50196421,15.978632 1.53399406,15.9090754 C1.6028434,15.7570331 1.68870427,15.5734348 1.77479464,15.3869678 C1.84408816,15.2457516 2.01282805,15.184853 2.15633475,15.2492692 C2.22547684,15.2812873 2.27893808,15.3396332 2.30480429,15.4113041 C2.3306705,15.4829751 2.32679211,15.562015 2.29403344,15.6308093 C2.19936559,15.8316199 2.1247788,15.9980058 2.05592946,16.1473802 C2.00974448,16.2501792 1.90757298,16.3163436 1.7948757,16.316434 L1.7948757,16.316434 Z M2.53761668,14.764455 C2.37972724,14.7631452 2.25205425,14.6354722 2.25074442,14.4775828 C2.24956587,14.4325081 2.26046075,14.3879382 2.28230037,14.3484902 C2.37409949,14.1620233 2.46589862,13.9843346 2.54335413,13.8349889 C2.61752561,13.6957114 2.78922251,13.6409781 2.93031613,13.7116338 C2.99781082,13.7457207 3.04855003,13.8057794 3.07088354,13.8780197 C3.09412471,13.9510348 3.08794904,14.0302378 3.0536712,14.0987679 C2.96760952,14.2595598 2.88154784,14.4315398 2.79261744,14.6065318 C2.74476791,14.7035704 2.64581053,14.7648663 2.53761668,14.7644855 L2.53761668,14.764455 Z M3.33747394,13.2411633 C3.28919123,13.2403485 3.24187004,13.2275324 3.19977525,13.2038699 C3.10726539,13.1537061 3.04991728,13.0566554 3.05059561,12.9514223 C3.0504042,12.9042804 3.06225377,12.8578696 3.08502634,12.8165923 C3.17682547,12.6502064 3.27149332,12.4809518 3.36601773,12.3116971 C3.44666357,12.1760484 3.61984586,12.1279913 3.75886061,12.2026857 C3.8953843,12.2812469 3.94386298,12.4546603 3.86787207,12.5926312 C3.77320422,12.7618858 3.67873718,12.9282717 3.58983547,13.0917889 C3.53921506,13.1838349 3.44252098,13.2410467 3.33747394,13.2411059 L3.33747394,13.2411633 Z M4.19206642,11.7438335 C4.14040823,11.7451375 4.08951411,11.7311665 4.04576156,11.7036714 C3.95879733,11.6532511 3.90524455,11.5603535 3.90519415,11.45983 C3.90385074,11.408167 3.91782476,11.3572616 3.94535627,11.3135251 C4.03428667,11.1614828 4.13182324,11.0008343 4.2408347,10.8172361 C4.3258837,10.6845308 4.50058488,10.6427302 4.63648893,10.7225682 C4.70143029,10.7609287 4.74801777,10.8240081 4.76558145,10.8973595 C4.7830842,10.9718036 4.77072633,11.0501422 4.73115678,11.1155832 C4.62788277,11.2848379 4.52460875,11.4596005 4.43854707,11.6061348 C4.38611959,11.6919714 4.2926468,11.7441691 4.19206642,11.7437761 L4.19206642,11.7438335 Z M5.09230028,10.2779238 C5.03858455,10.2783084 4.98586074,10.2634462 4.94025798,10.2350575 C4.85740507,10.1827509 4.80666115,10.0920596 4.80542801,9.99408479 C4.80606919,9.9391909 4.82196089,9.8855564 4.85132757,9.83917377 C4.85341921,9.83482336 4.85634301,9.83092496 4.85993374,9.82769888 C4.98328882,9.63245362 5.07795666,9.48632088 5.16401834,9.35435964 C5.25230244,9.22508697 5.42680266,9.18839536 5.55967257,9.27116668 C5.6239317,9.31195527 5.66919356,9.37676506 5.68536188,9.45113932 C5.70153019,9.52551357 5.68725992,9.60326513 5.64573425,9.66705041 C5.53959152,9.82769888 5.4363175,9.99121607 5.33591221,10.1461271 C5.28263251,10.2288627 5.19070441,10.2785615 5.09230028,10.2778302 L5.09230028,10.2779238 Z" id="Shape" fill="#603913"></path>
                                <path d="M31.8414466,10.7558948 L31.2679889,10.7558948 C31.1095537,10.7558948 30.9811167,10.5320371 30.9811167,10.2558948 C30.9811167,9.97975238 31.1095537,9.75589475 31.2679889,9.75589475 L31.8414466,9.75589475 C31.9998818,9.75589475 32.1283188,9.97975238 32.1283188,10.2558948 C32.1283188,10.5320371 31.9998818,10.7558948 31.8414466,10.7558948 Z M30.1210449,10.7558948 L29.5475873,10.7558948 C29.3891521,10.7558948 29.260715,10.5320371 29.260715,10.2558948 C29.260715,9.97975238 29.3891521,9.75589475 29.5475873,9.75589475 L30.1210449,9.75589475 C30.2794801,9.75589475 30.4079172,9.97975238 30.4079172,10.2558948 C30.4079172,10.5320371 30.2794801,10.7558948 30.1210449,10.7558948 Z M28.4006719,10.7558948 L27.8272143,10.7558948 C27.6687791,10.7558948 27.540342,10.5320371 27.540342,10.2558948 C27.540342,9.97975238 27.6687791,9.75589475 27.8272143,9.75589475 L28.4006719,9.75589475 C28.5591071,9.75589475 28.6875442,9.97975238 28.6875442,10.2558948 C28.6875442,10.5320371 28.5591071,10.7558948 28.4006719,10.7558948 Z M26.6802703,10.7558948 L26.1068126,10.7558948 C25.9483774,10.7558948 25.8199403,10.5320371 25.8199403,10.2558948 C25.8199403,9.97975238 25.9483774,9.75589475 26.1068126,9.75589475 L26.6802703,9.75589475 C26.8387054,9.75589475 26.9671425,9.97975238 26.9671425,10.2558948 C26.9671425,10.5320371 26.8387054,10.7558948 26.6802703,10.7558948 Z M24.9598973,10.7558948 L24.3864396,10.7558948 C24.2280044,10.7558948 24.0995674,10.5320371 24.0995674,10.2558948 C24.0995674,9.97975238 24.2280044,9.75589475 24.3864396,9.75589475 L24.9598973,9.75589475 C25.1183325,9.75589475 25.2467695,9.97975238 25.2467695,10.2558948 C25.2467695,10.5320371 25.1183325,10.7558948 24.9598973,10.7558948 Z M23.2394956,10.7558948 L22.6660379,10.7558948 C22.5076028,10.7558948 22.3791657,10.5320371 22.3791657,10.2558948 C22.3791657,9.97975238 22.5076028,9.75589475 22.6660379,9.75589475 L23.2395243,9.75589475 C23.3979595,9.75589475 23.5263966,9.97975238 23.5263966,10.2558948 C23.5263966,10.5320371 23.3979595,10.7558948 23.2395243,10.7558948 L23.2394956,10.7558948 Z" id="Shape" fill="#603913"></path>
                                <path d="M18.3635851,7.74793232 L18.3635851,6.02669872 C20.3449258,4.83746974 20.8361371,2.86421886 20.7688943,1.33194802 C20.7416877,0.887951728 20.451953,0.50311782 20.0327829,0.354224015 C19.6136129,0.20533021 19.1460372,0.321159152 18.844842,0.648503533 C18.2198621,1.3293088 17.4561794,1.9974343 16.7017053,2.2426814 C15.725938,2.55993344 14.750142,2.19282301 14.0776273,1.80577494 C13.5353005,1.49202566 12.8666483,1.49202566 12.3243214,1.80577494 C11.6518068,2.19282301 10.6760108,2.55993344 9.70024343,2.2426814 C8.94597018,1.9974343 8.18220146,1.3293088 7.55722154,0.648560907 C7.25602632,0.321216526 6.78845065,0.205387585 6.36928059,0.35428139 C5.95011053,0.503175195 5.6603758,0.888009102 5.63316925,1.3320054 C5.56592639,2.86427623 6.05713777,4.83758449 8.03847845,6.0267561 L8.03847845,7.7479897 C8.03847845,7.7479897 -4.06715826,23.4392716 2.01129214,32.6392651 C2.89581451,33.9466393 4.37571541,34.7248516 5.95415063,34.7127762 L20.4479129,34.7127762 C22.0263703,34.7248536 23.5062887,33.9466162 24.3908001,32.6392078 C30.4692218,23.4392142 18.3635851,7.74793232 18.3635851,7.74793232 Z" id="Path" fill="#A97C50"></path>
                                <path d="M17.0012574,3.97570545 C14.2048552,5.08016368 9.85110956,2.44667627 9.85110956,2.44667627 L9.86832189,2.28889653 C10.7889811,2.51552562 11.6895592,2.16841018 12.3234034,1.80695112 C12.7718565,1.54574379 13.3135144,1.49840434 13.8004801,1.6778586 L13.8033488,1.68072732 C15.552868,3.64296231 19.7976308,2.8713046 17.0012574,3.97570545 L17.0012574,3.97570545 Z" id="Path" fill="#8B5E3C"></path>
                                <path d="M18.3635851,7.74793232 L18.3635851,6.88731552 L8.03847845,6.88731552 L8.03847845,7.74793232 C8.03847845,7.74793232 7.31188838,8.69030772 6.30499138,10.2461595 C6.30872475,10.2430325 8.61230905,8.32187767 8.89889444,8.60849175 C9.18547984,8.89510583 8.03847845,10.9034699 8.32514991,11.1903421 C8.61182137,11.4772144 11.1932415,8.60849175 12.9140734,8.89536401 C14.6349054,9.18223628 16.3613601,11.5049263 16.642581,12.9113749 C16.9294532,14.3457363 18.1262556,19.1225037 15.2085639,20.3697096 C12.2908721,21.6169155 7.47732761,19.8583885 3.88597371,23.9866238 C0.895932764,27.4237265 1.02637358,22.8985747 1.47050923,20.0164838 C0.0511800007,24.3226947 -0.398377528,28.990795 2.01269781,32.638634 C2.89594605,33.9463847 4.37534362,34.7249997 5.95337607,34.7127798 L20.4486875,34.7127798 C22.0267666,34.7250094 23.5062063,33.9463569 24.3894518,32.638548 C30.4697955,23.4390994 18.3635851,7.74793232 18.3635851,7.74793232 L18.3635851,7.74793232 Z" id="Path" fill="#8B5E3C"></path>
                                <path d="M20.4479416,34.999757 L5.95415063,34.999757 C4.27831093,35.016225 2.70653546,34.1885798 1.77206935,32.7973604 C-4.19243538,23.7697197 6.72715664,8.99929784 7.75169225,7.65071131 L7.75169225,6.1864292 C5.4563125,4.71881937 5.30355301,2.30346964 5.34666992,1.31935433 C5.3680905,0.761300633 5.72923516,0.273364846 6.25668612,0.0898484812 C6.78758797,-0.111805017 7.38782814,0.0329132279 7.76850296,0.454348383 C8.50309678,1.2549515 9.20171681,1.77880895 9.78905909,1.96986588 C10.6743182,2.25757008 11.5784535,1.90431557 12.1815738,1.55694194 C12.8117698,1.18997662 13.5905519,1.18997662 14.2207479,1.55694194 C14.8237534,1.90431557 15.727774,2.2572832 16.6132626,1.96986588 C17.2005762,1.77880895 17.8991962,1.2549515 18.6336753,0.454348383 C19.0144822,0.0331340796 19.6145806,-0.111538616 20.1454922,0.0898771684 C20.6729083,0.273377319 21.0339858,0.761333979 21.0552789,1.31935433 C21.0985392,2.30346964 20.9458084,4.7185325 18.6502565,6.1864292 L18.6502565,7.65071131 C19.6746774,8.99929784 30.5945563,23.7697197 24.6299081,32.7973604 C23.6955327,34.1886215 22.1237648,35.0162854 20.4479416,34.999757 L20.4479416,34.999757 Z M6.74827044,0.577301836 C6.64765476,0.5774122 6.54781239,0.594880734 6.45313625,0.628938844 C6.14531948,0.735514511 5.93379571,1.01925204 5.91955383,1.34468515 C5.87041261,2.46383124 6.09959487,4.52870912 8.18584474,5.78093525 C8.27222883,5.8327612 8.32506285,5.92613289 8.32500647,6.02687085 L8.32500647,7.74810445 C8.3249604,7.81155247 8.303942,7.87320577 8.26522229,7.92346946 C8.1455105,8.07863867 -3.64488228,23.5583809 2.25017067,32.480969 C3.07871741,33.7114308 4.47082655,34.4423647 5.95415063,34.4260392 L20.4479416,34.4260392 C21.9311908,34.4423685 23.3231916,33.7113255 24.1514625,32.4807682 C30.0468311,23.5581801 18.2562375,8.07843786 18.1365544,7.92326865 C18.0978346,7.87300496 18.0768163,7.81135166 18.0767702,7.74790363 L18.0767702,6.02667004 C18.0767138,5.92593208 18.1295478,5.83256039 18.2159319,5.78073444 C20.30244,4.52850831 20.5315075,2.46363042 20.4822228,1.34448434 C20.4680101,1.01920398 20.2567025,0.735546468 19.9490994,0.628824095 C19.6357828,0.510182784 19.2817875,0.594920117 19.0561521,0.842572621 C18.2437011,1.72780306 17.4813668,2.29087595 16.7905784,2.5155543 C15.704566,2.86840719 14.6384053,2.45952815 13.9348797,2.05443582 C13.4814944,1.7899958 12.9208846,1.7899958 12.4674994,2.05443582 C11.7638304,2.45958553 10.6974688,2.86852194 9.61165728,2.5155543 C8.92086886,2.29087595 8.1585345,1.72780306 7.3459688,0.842572621 C7.19403665,0.672471663 6.97633976,0.575866379 6.74827044,0.577301836 L6.74827044,0.577301836 Z" id="Shape" fill="#603913"></path>
                                <path d="M3.42987549,19.2570182 C3.33426783,19.2569143 3.2449953,19.2091869 3.19180634,19.1297403 C3.13861738,19.0502936 3.12850322,18.9495703 3.16483421,18.8611344 C3.28046285,18.5793494 3.39890285,18.300433 3.5201542,18.0243854 C3.56080245,17.9298162 3.6490242,17.8642924 3.75130503,17.8527058 C3.85358587,17.8411193 3.95422927,17.885248 4.01500199,17.968328 C4.07577471,18.0514081 4.08735027,18.1606896 4.04533125,18.2546578 C3.92604977,18.5266701 3.809331,18.8014841 3.69517497,19.0791 C3.65105097,19.1867566 3.54622358,19.2570572 3.42987549,19.2570182 L3.42987549,19.2570182 Z" id="Path" fill="#C49A6C"></path>
                                <path d="M4.50131472,16.8764087 C4.40240192,16.8762809 4.31053215,16.8252059 4.25821857,16.7412592 C4.20590498,16.6573125 4.2005279,16.5523373 4.2439903,16.4634847 C4.94304064,15.0333978 5.75087294,13.576144 6.64479561,12.1326028 C6.69709671,12.0419986 6.79457289,11.9870494 6.89916667,11.9892088 C7.00376045,11.9913682 7.0988856,12.0502938 7.14740256,12.1429795 C7.19591951,12.2356651 7.19013457,12.3474129 7.13230634,12.4345932 C6.24830945,13.8621557 5.44985787,15.3023405 4.75921289,16.7156167 C4.71103166,16.8140888 4.61094214,16.8764917 4.50131472,16.8764087 L4.50131472,16.8764087 Z" id="Path" fill="#C49A6C"></path>
                                <path d="M13.2011178,4.05938609 C13.1737814,4.05944352 13.1465795,4.05555914 13.1203346,4.0479112 C12.9781033,4.00617129 9.62313217,3.01230232 8.28441405,1.73818784 C8.20659581,1.66845165 8.17285087,1.56191836 8.19632728,1.46009659 C8.21980369,1.35827482 8.29678774,1.27727163 8.39728411,1.24864833 C8.49778049,1.22002502 8.60589178,1.24830949 8.67949453,1.32248124 C9.91878273,2.50152625 13.2481649,3.48736279 13.2816142,3.49717383 C13.4186973,3.53715629 13.5055036,3.67187269 13.485267,3.81322631 C13.4650304,3.95457993 13.3439126,4.05952923 13.2011178,4.05944352 L13.2011178,4.05938609 Z" id="Path" fill="#603913"></path>
                                <path d="M9.18547984,10.6165119 C9.08219494,10.6163639 8.98696275,10.5607055 8.93614413,10.4707874 C8.88532552,10.3808693 8.88676661,10.2705745 8.93991718,10.1820148 C9.54835584,9.20885599 10.2810086,8.31912835 11.1193718,7.5353026 C11.2369624,7.43034249 11.4172092,7.43991401 11.5230225,7.55673738 C11.6288358,7.67356075 11.6205766,7.85387247 11.5045266,7.96053336 C10.7095099,8.70804571 10.0129355,9.55376978 9.43161624,10.4772924 C9.37979253,10.5637855 9.28630998,10.6166608 9.18547984,10.6165119 L9.18547984,10.6165119 Z" id="Path" fill="#603913"></path>
                                <path d="M17.6219342,10.6165119 C17.5211041,10.6166608 17.4276215,10.5637855 17.3757978,10.4772924 C16.7947512,9.5536134 16.0982025,8.70786207 15.3030309,7.96053336 C15.2246978,7.89237038 15.189314,7.78719793 15.210516,7.68554779 C15.231718,7.58389765 15.3061956,7.50163988 15.4052463,7.47047532 C15.5042971,7.43931075 15.6124567,7.46410494 15.6880422,7.5353026 C16.5263966,8.31913663 17.2590484,9.20886305 17.8674969,10.1820148 C17.9206474,10.2705745 17.9220885,10.3808693 17.8712699,10.4707874 C17.8204513,10.5607055 17.7252191,10.6163639 17.6219342,10.6165119 Z" id="Path" fill="#603913"></path>
                                <rect id="Rectangle" fill="#FFBD5A" x="7.17811984" y="6.02684216" width="12.0460533" height="1.7212336" rx="0.860616799"></rect>
                                <path d="M18.3638146,8.0347759 L8.0381629,8.0347759 C7.40442218,8.0347759 6.89067383,7.52102755 6.89067383,6.88728684 C6.89067383,6.25354612 7.40442218,5.73979777 8.0381629,5.73979777 L18.3638146,5.73979777 C18.9975553,5.73979777 19.5113036,6.25354612 19.5113036,6.88728684 C19.5113036,7.52102755 18.9975553,8.0347759 18.3638146,8.0347759 Z M8.03827764,6.3135423 C7.72140729,6.3135423 7.46453311,6.57041648 7.46453311,6.88728684 C7.46453311,7.20415719 7.72140729,7.46103137 8.03827764,7.46103137 L18.3638146,7.46103137 C18.6806849,7.46103137 18.9375591,7.20415719 18.9375591,6.88728684 C18.9375591,6.57041648 18.6806849,6.3135423 18.3638146,6.3135423 L8.03827764,6.3135423 Z" id="Shape" fill="#603913"></path>
                                <path d="M13.1569108,22.664573 L10.950691,22.664573 L10.950691,34.7126344 L13.1569108,34.7126344 C15.3230979,34.733775 17.3338451,33.5902472 18.4230873,31.7177182 C19.5123296,29.8451892 19.5123296,27.5320183 18.4230873,25.6594892 C17.3338451,23.7869602 15.3230979,22.6434324 13.1569108,22.664573 L13.1569108,22.664573 Z" id="Path" fill="#FED18C"></path>
                                <path d="M13.1569108,22.664573 L11.7780306,22.664573 C13.9442177,22.6434324 15.9549648,23.7869602 17.0442071,25.6594892 C18.1334494,27.5320183 18.1334494,29.8451892 17.0442071,31.7177182 C15.9549648,33.5902472 13.9442177,34.733775 11.7780306,34.7126344 L13.1569108,34.7126344 C15.3230979,34.733775 17.3338451,33.5902472 18.4230873,31.7177182 C19.5123296,29.8451892 19.5123296,27.5320183 18.4230873,25.6594892 C17.3338451,23.7869602 15.3230979,22.6434324 13.1569108,22.664573 L13.1569108,22.664573 Z" id="Path" fill="#E4AD5D"></path>
                                <g id="Group" transform="translate(10.663790, 22.377542)" fill="#603913">
                                    <path d="M6.62981889,2.21687785 L0.838498948,2.21687785 C0.68006377,2.21687785 0.551626681,2.08844076 0.551626681,1.93000559 C0.551626681,1.77157041 0.68006377,1.64313332 0.838498948,1.64313332 L6.62981889,1.64313332 C6.78825407,1.64313332 6.91669116,1.77157041 6.91669116,1.93000559 C6.91669116,2.08844076 6.78825407,2.21687785 6.62981889,2.21687785 Z" id="Path"></path>
                                    <path d="M7.62652789,3.58591837 L0.838498948,3.58591837 C0.68006377,3.58591837 0.551626681,3.45748128 0.551626681,3.2990461 C0.551626681,3.14061093 0.68006377,3.01217384 0.838498948,3.01217384 L7.62652789,3.01217384 C7.78496307,3.01217384 7.91340016,3.14061093 7.91340016,3.2990461 C7.91340016,3.45748128 7.78496307,3.58591837 7.62652789,3.58591837 Z" id="Path"></path>
                                    <path d="M8.23343486,4.9549302 L0.838498948,4.9549302 C0.68006377,4.9549302 0.551626681,4.82649311 0.551626681,4.66805793 C0.551626681,4.50962276 0.68006377,4.38118567 0.838498948,4.38118567 L8.23343486,4.38118567 C8.39187004,4.38118567 8.52030713,4.50962276 8.52030713,4.66805793 C8.52030713,4.82649311 8.39187004,4.9549302 8.23343486,4.9549302 Z" id="Path"></path>
                                    <path d="M8.44933493,6.3242289 L0.838613697,6.3242289 C0.680178519,6.3242289 0.55174143,6.19579181 0.55174143,6.03735664 C0.55174143,5.87892146 0.680178519,5.75048437 0.838613697,5.75048437 L8.44933493,5.75048437 C8.6077701,5.75048437 8.73620719,5.87892146 8.73620719,6.03735664 C8.73620719,6.19579181 8.6077701,6.3242289 8.44933493,6.3242289 Z" id="Path"></path>
                                    <path d="M8.38186257,7.69326942 L0.838498948,7.69326942 C0.68006377,7.69326942 0.551626681,7.56483233 0.551626681,7.40639715 C0.551626681,7.24796198 0.68006377,7.11952489 0.838498948,7.11952489 L8.38186257,7.11952489 C8.54029775,7.11952489 8.66873484,7.24796198 8.66873484,7.40639715 C8.66873484,7.56483233 8.54029775,7.69326942 8.38186257,7.69326942 Z" id="Path"></path>
                                    <path d="M7.96366018,9.06228125 L0.838498948,9.06228125 C0.68006377,9.06228125 0.551626681,8.93384416 0.551626681,8.77540898 C0.551626681,8.61697381 0.68006377,8.48853672 0.838498948,8.48853672 L7.96366018,8.48853672 C8.12209536,8.48853672 8.25053245,8.61697381 8.25053245,8.77540898 C8.25053245,8.93384416 8.12209536,9.06228125 7.96366018,9.06228125 Z" id="Path"></path>
                                    <path d="M7.08694985,10.4312931 L0.838498948,10.4312931 C0.68006377,10.4312931 0.551626681,10.302856 0.551626681,10.1444208 C0.551626681,9.98598564 0.68006377,9.85754855 0.838498948,9.85754855 L7.08694985,9.85754855 C7.24538502,9.85754855 7.37382211,9.98598564 7.37382211,10.1444208 C7.37382211,10.302856 7.24538502,10.4312931 7.08694985,10.4312931 Z" id="Path"></path>
                                    <path d="M2.49309212,12.6219645 L0.286872266,12.6219645 C0.128437089,12.6219645 0,12.4935274 0,12.3350922 L0,0.287030742 C0,0.128595564 0.128437089,0.000158475924 0.286872266,0.000158475924 L2.49309212,0.000158475924 C4.75838756,-0.0158600642 6.85849472,1.18347292 7.9957918,3.14265014 C9.13308888,5.10182737 9.13308888,7.52026688 7.9957918,9.4794441 C6.85849472,11.4386213 4.75838756,12.6379543 2.49309212,12.6219358 L2.49309212,12.6219645 Z M0.573601097,12.0482199 L2.49309212,12.0482199 C4.55611104,12.0683285 6.4710821,10.9792487 7.50844003,9.19589789 C8.54579797,7.41254712 8.54579797,5.20954712 7.50844003,3.42619636 C6.4710821,1.64284559 4.55611104,0.553765784 2.49309212,0.573874322 L0.573601097,0.573874322 L0.573601097,12.0482199 Z" id="Shape"></path>
                                </g>
                                <ellipse id="Oval" fill="#E4AD5D" cx="10.950777" cy="28.6886037" rx="6.06706156" ry="6.02403072"></ellipse>
                                <ellipse id="Oval" fill="#FFBD5A" cx="10.950777" cy="28.6886037" rx="4.9640377" ry="4.92875241"></ellipse>
                                <path d="M11.5410454,28.0040691 L10.3156418,28.0040691 C10.0942979,28.0099672 9.90018257,27.8572793 9.85377747,27.6407741 C9.83236869,27.512963 9.86836488,27.382212 9.95217269,27.2833674 C10.0359805,27.1845229 10.1590843,27.1276282 10.2886758,27.1278465 L11.6125913,27.1278465 C11.76445,27.1279789 11.9056417,27.2059434 11.9866441,27.3343945 C12.0872225,27.4830785 12.2565453,27.5703667 12.4360008,27.5660439 L12.4377794,27.5660439 C12.6369172,27.5685887 12.8216664,27.4625801 12.9199573,27.2893714 C13.0182481,27.1161627 13.0145098,26.9031929 12.9102007,26.7335405 C12.6243194,26.2951731 12.1359389,26.0313485 11.6125913,26.0325682 L11.6125913,25.7039847 C11.6115001,25.4004491 11.3645576,25.1552662 11.061022,25.156342 L10.8404173,25.156342 C10.5368817,25.1552662 10.2899392,25.4004491 10.2888479,25.7039847 L10.2888479,26.0325682 C9.87963869,26.0312858 9.48672874,26.1928445 9.19678261,26.4816093 C8.9229471,26.7517312 8.76180023,27.1156906 8.74584812,27.5000059 C8.7433116,27.9276085 8.91307404,28.3382239 9.2168484,28.6391752 C9.52062276,28.9401266 9.93280514,29.1060481 10.3603652,29.0994909 L11.5857688,29.0994909 C11.8070593,29.0936629 12.0010943,29.2463351 12.0474897,29.4627859 C12.0688985,29.590597 12.0329023,29.721348 11.9490945,29.8201926 C11.8652867,29.9190371 11.7421828,29.9759318 11.6125913,29.9757135 L10.2888193,29.9757135 C10.1369606,29.9755811 9.99576894,29.8976166 9.91476651,29.7691655 C9.81418251,29.6204728 9.64484671,29.5331835 9.46538111,29.5375161 L9.46363119,29.5375161 C9.26449624,29.5349798 9.07975212,29.6409875 8.98145822,29.814191 C8.88316431,29.9873946 8.88688968,30.2003597 8.99118125,30.3700195 C9.2771103,30.8083386 9.76548611,31.0721224 10.2888193,31.0709058 L10.2888193,31.3994893 C10.2899105,31.7030248 10.536853,31.9482077 10.8403886,31.947132 L11.0609933,31.947132 C11.3645289,31.9482077 11.6114714,31.7030248 11.6125626,31.3994893 L11.6125626,31.0709058 C12.0217773,31.0721869 12.4146901,30.9106166 12.704628,30.6218359 C12.9784324,30.3517656 13.139569,29.9878678 13.1555343,29.6036115 C13.1580936,29.1760016 12.9883444,28.7653712 12.6845728,28.4644064 C12.3808013,28.1634417 11.9686129,27.9975115 11.5410454,28.0040691 L11.5410454,28.0040691 Z" id="Path" fill="#F0F0FF"></path>
                                <path d="M11.0609933,32.2340588 L10.8403599,32.2340588 C10.3786549,32.2345826 10.0036662,31.8612494 10.0021478,31.3995466 L10.0021478,31.3356602 C9.48900271,31.2561984 9.03396652,30.9620007 8.75089704,30.5266804 C8.58632505,30.2766764 8.57440656,29.9559052 8.71997221,29.6943779 C8.86754442,29.4210799 9.15309342,29.2507088 9.46368856,29.2506439 C9.74239463,29.2445406 10.0045344,29.3826379 10.1571162,29.615947 C10.1854921,29.6613707 10.2353184,29.6889146 10.2888766,29.6887839 L11.6125913,29.6887839 C11.6585618,29.6887805 11.7021563,29.6683601 11.731586,29.6330446 C11.760688,29.5994005 11.7729023,29.5543435 11.7647771,29.5106075 C11.7406591,29.4330033 11.6668521,29.3817452 11.5857114,29.3862484 L10.3602791,29.3862484 C9.83210237,29.3849692 9.32709888,29.1692077 8.96105966,28.7884353 C8.62215881,28.4423829 8.4407157,27.972044 8.45940613,27.4880433 C8.49902213,26.6207016 9.14420952,25.9013473 10.0021478,25.7679572 L10.0021478,25.7040707 C10.0036662,25.242368 10.3786549,24.8690348 10.8403599,24.8695586 L11.0609933,24.8695586 C11.5227477,24.8689714 11.8978146,25.2423185 11.8993489,25.7040707 L11.8993489,25.7679572 C12.4124615,25.8473848 12.8674571,26.1415967 13.1504275,26.576937 C13.3149553,26.8268031 13.3269395,27.147415 13.1815244,27.4088665 C13.0339569,27.682169 12.748405,27.852542 12.4378081,27.8526006 C12.1591203,27.8587612 11.896952,27.7207859 11.744237,27.4875843 C11.7158881,27.442204 11.6661273,27.4146663 11.61262,27.4147474 L10.2888766,27.4147474 C10.2428244,27.4147493 10.1991413,27.435162 10.1695951,27.4704867 C10.1405921,27.5040673 10.1284318,27.5490139 10.1365475,27.5926369 C10.1606636,27.6702462 10.2344674,27.7215139 10.3156131,27.7170247 L11.5410741,27.7170247 C12.0692905,27.7183145 12.5743345,27.9340712 12.940437,28.3148378 C13.2792685,28.6610284 13.4606407,29.1314383 13.4419184,29.615488 C13.4024338,30.4828109 12.7572724,31.2021926 11.8993489,31.3355168 L11.8993489,31.3994032 C11.8978936,31.8612115 11.5228036,32.2346458 11.0609933,32.2340588 L11.0609933,32.2340588 Z M9.46535242,29.824331 C9.36442422,29.823189 9.27132107,29.8785483 9.22412153,29.9677672 C9.18041781,30.0445789 9.18322886,30.1393579 9.23140809,30.2134446 C9.46428727,30.5707132 9.86241272,30.7855554 10.2888766,30.7840909 C10.4473118,30.7840909 10.5757489,30.912528 10.5757489,31.0709631 L10.5757489,31.3995753 C10.5770271,31.5446236 10.6954522,31.661278 10.8405033,31.6603762 L11.0611368,31.6603762 C11.2062116,31.6612784 11.3246779,31.5446467 11.3260346,31.3995753 L11.3260346,31.0709631 C11.325989,30.9948908 11.3561786,30.9219189 11.4099564,30.8681141 C11.4637343,30.8143093 11.5366911,30.7840833 11.6127635,30.7840909 C11.9462715,30.7852585 12.2665237,30.6536067 12.5027847,30.418214 C12.724946,30.1988225 12.8558447,29.9034805 12.8691779,29.5915342 C12.8806697,29.2637984 12.7567599,28.9457808 12.5265664,28.7122133 C12.2688823,28.4439024 11.9132268,28.2918262 11.5412175,28.290884 L10.3156131,28.290884 C9.95480869,28.2954585 9.6419648,28.0422803 9.57120829,27.6884523 C9.53565586,27.4774029 9.59494412,27.2614131 9.7332602,27.0980899 C9.87157627,26.9347666 10.0748539,26.8407194 10.2888766,26.8410316 L11.6125913,26.8410316 C11.862996,26.8403933 12.0960217,26.9689544 12.2290225,27.1811186 C12.2772145,27.2463881 12.3549492,27.2831111 12.4359721,27.2788847 C12.5369092,27.2800596 12.6300281,27.224691 12.677203,27.1354486 C12.7208988,27.0587521 12.718143,26.9640829 12.6700599,26.890058 C12.4371791,26.5328021 12.0390453,26.3179879 11.6125913,26.3194978 C11.5365189,26.3195054 11.4635622,26.2892793 11.4097843,26.2354746 C11.3560064,26.1816698 11.3258168,26.1086979 11.3258625,26.0326255 L11.3258625,25.704042 C11.3245058,25.5589707 11.2060395,25.442339 11.0609647,25.4432412 L10.8403312,25.4432412 C10.6952801,25.4423394 10.5768549,25.5589937 10.5755768,25.704042 L10.5755768,26.0326542 C10.5755768,26.1910894 10.4471397,26.3195265 10.2887045,26.3195265 C9.95511697,26.3183839 9.63478484,26.4500261 9.39839643,26.6854034 C9.17628298,26.9048212 9.04548853,27.2002029 9.03231873,27.5121406 C9.02087745,27.8398623 9.14476803,28.1578571 9.3749016,28.3914614 C9.63270139,28.6595902 9.98832108,28.8115534 10.3602791,28.8125325 L11.5857401,28.8125325 C11.9465126,28.8080502 12.259305,29.0611867 12.3301449,29.4149643 C12.3656842,29.6260133 12.3064188,29.8419994 12.168145,30.005355 C12.0298712,30.1687107 11.8266403,30.2628359 11.61262,30.2626432 L10.2888766,30.2626432 C10.0384193,30.2633079 9.80532999,30.1347477 9.67227339,29.9225561 C9.62384368,29.8575417 9.54634318,29.8207523 9.46535242,29.824331 L9.46535242,29.824331 Z" id="Shape" fill="#603913"></path>
                                <g id="Group" opacity="0.6" transform="translate(5.296898, 23.075030)" fill="#FED18C">
                                    <path d="M7.85456266,-4.0767001e-15 L-1.01917503e-15,7.79873731 C0.209153125,8.33151992 0.493434187,8.83164902 0.844207706,9.28393241 L9.35037203,0.838240763 C8.89396569,0.489424016 8.39033417,0.207192549 7.85456266,-4.0767001e-15 L7.85456266,-4.0767001e-15 Z" id="Path"></path>
                                    <path d="M11.2280658,3.23350944 C11.0022576,2.71291862 10.7039171,2.22690087 10.3419173,1.78991082 L1.8027627,10.2684493 C2.2437862,10.6284031 2.73321607,10.9245796 3.25668872,11.1482866 L11.2280658,3.23350944 Z" id="Path"></path>
                                </g>
                                <path d="M10.9506623,34.9995231 C7.47082208,34.9758902 4.66676638,32.1399375 4.68244449,28.6600528 C4.69825454,25.1801681 7.52785638,22.3697038 11.0077678,22.3775588 C14.4876792,22.3854469 17.3045387,25.2086834 17.3045387,28.6886037 C17.2886822,32.1842162 14.4463018,35.0073725 10.9506623,34.9995231 Z M10.9506623,22.9514248 C7.78763148,22.9751687 5.24048096,25.5543783 5.25624624,28.7174584 C5.27215845,31.8805385 7.84501076,34.4341104 11.0081205,34.4261749 C14.1712303,34.4182024 16.7311384,31.8517235 16.7311384,28.6886037 C16.7156159,25.5095885 14.1297043,22.9430553 10.9506623,22.9514248 L10.9506623,22.9514248 Z" id="Shape" fill="#603913"></path>
                                <rect id="Rectangle" fill="#8DC1F3" x="19.2241732" y="11.4771284" width="15.4876599" height="23.2355061" rx="7.74382996"></rect>
                                <path d="M33.5644588,11.477071 L29.5491364,11.477071 C30.1827762,11.477071 30.6963673,11.9909201 30.6963672,12.62456 L30.6963672,25.2026467 C30.6965879,27.7246316 29.6949449,30.1434103 27.9117883,31.9268789 C26.1286316,33.7103476 23.7100283,34.7126344 21.1880433,34.7126344 L33.5644588,34.7126344 C33.8687611,34.7126344 34.1605896,34.5917002 34.3757396,34.3765018 C34.5908896,34.1613034 34.7116897,33.8694477 34.7116897,33.5651454 L34.7116897,12.6245314 C34.7116897,11.9909027 34.1980875,11.477071 33.5644588,11.477071 L33.5644588,11.477071 Z" id="Path" fill="#7EAADA"></path>
                                <path d="M33.5647743,34.9995067 L20.3709451,34.9995067 C19.5793396,34.9983998 18.9379991,34.3567513 18.9372722,33.5651454 L18.9372722,12.6245314 C18.9379833,11.8329189 19.5793331,11.1912611 20.3709451,11.19017 L33.5647743,11.19017 C34.3563751,11.1912769 34.9977075,11.8329301 34.9984185,12.6245314 L34.9984185,33.5651454 C34.9976917,34.3567401 34.3563686,34.998384 33.5647743,34.9995067 L33.5647743,34.9995067 Z M20.3709451,11.7639146 C19.8959603,11.76456 19.511125,12.149575 19.5107299,12.62456 L19.5107299,33.5651454 C19.511125,34.0401304 19.8959603,34.4251454 20.3709451,34.4257622 L33.5647743,34.4257622 C34.0397479,34.4251296 34.4245658,34.0401192 34.4249608,33.5651454 L34.4249608,12.6245314 C34.4245658,12.1495575 34.0397479,11.7645472 33.5647743,11.7639146 L20.3709451,11.7639146 Z" id="Shape" fill="#603913"></path>
                                <rect id="Rectangle" fill="#DCDCF9" x="21.2317053" y="13.4852342" width="11.1854365" height="5.73715846" rx="2.86857923"></rect>
                                <polygon id="Path" fill="#F0F0FF" points="32.4171418 13.4852342 30.4242402 13.4852342 25.7272806 19.2223927 27.7198954 19.2223927"></polygon>
                                <polygon id="Path" fill="#F0F0FF" points="22.2042023 19.2223927 24.1971039 19.2223927 28.8943504 13.4852342 26.9014488 13.4852342"></polygon>
                                <path d="M31.8438276,19.5091215 L21.805163,19.5091215 C21.3301782,19.5085047 20.9453429,19.1234897 20.9449478,18.6485047 L20.9449478,14.0588066 C20.9453429,13.5838216 21.3301782,13.1988066 21.805163,13.1981898 L31.8438276,13.1981898 C32.3188012,13.1988224 32.7036191,13.5838328 32.7040141,14.0588066 L32.7040141,18.6485621 C32.7035874,19.1235135 32.3187788,19.508489 31.8438276,19.5091215 L31.8438276,19.5091215 Z M21.805163,13.7719344 C21.6467737,13.7720738 21.5184015,13.900446 21.5182907,14.0588353 L21.5182907,18.6485621 C21.5184015,18.8069514 21.6467737,18.9353236 21.805163,18.9354343 L31.8438276,18.9354343 C32.0021609,18.9352445 32.1304458,18.8068954 32.1305565,18.6485621 L32.1305565,14.0588066 C32.1304458,13.9004733 32.0021609,13.7721242 31.8438276,13.7719344 L21.805163,13.7719344 Z" id="Shape" fill="#603913"></path>
                                <rect id="Rectangle" fill="#F0F0FF" x="21.2317053" y="21.5170839" width="2.86814892" height="2.86872266" rx="1.43407446"></rect>
                                <rect id="Rectangle" fill="#F0F0FF" x="21.2317053" y="25.5332957" width="2.86814892" height="2.86872266" rx="1.43407446"></rect>
                                <path d="M29.2616904,27.2548161 L32.7047313,27.2548161 C33.6551047,27.2548161 34.4255346,28.025246 34.4255346,28.9756194 C34.4255346,29.9259928 33.6551047,30.6964227 32.7047313,30.6964227 L29.2616904,30.6964227 C28.3113169,30.6964227 27.5408871,29.9259928 27.5408871,28.9756194 C27.5408871,28.025246 28.3113169,27.2548161 29.2616904,27.2548161 Z" id="Rectangle" fill="#EA5A6B" transform="translate(30.983211, 28.975619) rotate(90.000000) translate(-30.983211, -28.975619) "></path>
                                <rect id="Rectangle" fill="#F0F0FF" x="21.2317053" y="29.5492205" width="2.86814892" height="2.86872266" rx="1.43407446"></rect>
                                <rect id="Rectangle" fill="#F0F0FF" x="25.2470564" y="21.5170839" width="2.86814892" height="2.86872266" rx="1.43407446"></rect>
                                <rect id="Rectangle" fill="#F0F0FF" x="29.2624075" y="21.5170839" width="3.44160658" height="2.86872266" rx="1.43436133"></rect>
                                <rect id="Rectangle" fill="#F0F0FF" x="25.2470564" y="25.5332957" width="2.86814892" height="2.86872266" rx="1.43407446"></rect>
                                <rect id="Rectangle" fill="#F0F0FF" x="25.2470564" y="29.5492205" width="2.86814892" height="2.86872266" rx="1.43407446"></rect>
                                <path d="M23.5262244,24.6725928 L21.805163,24.6725928 C21.3301847,24.6719602 20.9453587,24.2869545 20.9449478,23.811976 L20.9449478,22.0907424 C20.9453587,21.6157639 21.3301847,21.2307582 21.805163,21.2301256 L23.5262244,21.2301256 C24.0012027,21.2307582 24.3860287,21.6157639 24.3864396,22.0907424 L24.3864396,23.811976 C24.3860287,24.2869545 24.0012027,24.6719602 23.5262244,24.6725928 L23.5262244,24.6725928 Z M21.805163,21.8040136 C21.6467737,21.8041243 21.5184015,21.9324966 21.5182907,22.0908858 L21.5182907,23.8121194 C21.5184015,23.9705087 21.6467737,24.0988809 21.805163,24.0989917 L23.5262244,24.0989917 C23.6846072,24.0988652 23.8129702,23.9705022 23.8130967,23.8121194 L23.8130967,22.0908858 C23.8129702,21.9325031 23.6846072,21.8041401 23.5262244,21.8040136 L21.805163,21.8040136 Z" id="Shape" fill="#603913"></path>
                                <path d="M23.5262244,28.6886037 L21.805163,28.6886037 C21.3301782,28.6879869 20.9453429,28.3029719 20.9449478,27.8279869 L20.9449478,26.1067533 C20.9453429,25.6317683 21.3301782,25.2467533 21.805163,25.2461365 L23.5262244,25.2461365 C24.0012092,25.2467533 24.3860445,25.6317683 24.3864396,26.1067533 L24.3864396,27.8279869 C24.3860445,28.3029719 24.0012092,28.6879869 23.5262244,28.6886037 L23.5262244,28.6886037 Z M21.805163,25.8198811 C21.6467737,25.8199918 21.5184015,25.948364 21.5182907,26.1067533 L21.5182907,27.8279869 C21.5184015,27.9863762 21.6467737,28.1147484 21.805163,28.1148592 L23.5262244,28.1148592 C23.6846072,28.1147326 23.8129702,27.9863697 23.8130967,27.8279869 L23.8130967,26.1067533 C23.8129702,25.9483706 23.6846072,25.8200076 23.5262244,25.8198811 L21.805163,25.8198811 Z" id="Shape" fill="#603913"></path>
                                <path d="M32.1305565,32.7045286 L29.8357218,32.7045286 C29.3607482,32.703896 28.9759303,32.3188856 28.9755353,31.8439118 L28.9755353,26.1068968 C28.9759145,25.6319164 29.3607416,25.2468968 29.8357218,25.24628 L32.1305565,25.24628 C32.6055366,25.2468968 32.9903637,25.6319164 32.9907429,26.1068968 L32.9907429,31.8440552 C32.9902688,32.318973 32.6054741,32.7038961 32.1305565,32.7045286 L32.1305565,32.7045286 Z M29.8357218,25.8199097 C29.6773885,25.8200996 29.5491036,25.9484487 29.5489929,26.106782 L29.5489929,31.8439405 C29.5491194,32.0022673 29.677395,32.1306071 29.8357218,32.1308127 L32.1305565,32.1308127 C32.2888832,32.1306071 32.4171589,32.0022673 32.4172853,31.8439405 L32.4172853,26.1068968 C32.4171746,25.9485634 32.2888897,25.8202143 32.1305565,25.8200245 L29.8357218,25.8199097 Z" id="Shape" fill="#603913"></path>
                                <path d="M23.5262244,32.7045286 L21.805163,32.7045286 C21.3301847,32.703896 20.9453587,32.3188903 20.9449478,31.8439118 L20.9449478,30.1226782 C20.9453587,29.6476997 21.3301847,29.262694 21.805163,29.2620614 L23.5262244,29.2620614 C24.0012027,29.262694 24.3860287,29.6476997 24.3864396,30.1226782 L24.3864396,31.8439118 C24.3860287,32.3188903 24.0012027,32.703896 23.5262244,32.7045286 L23.5262244,32.7045286 Z M21.805163,29.8358059 C21.6467802,29.8359325 21.5184173,29.9642955 21.5182907,30.1226782 L21.5182907,31.8439118 C21.5184173,32.0022945 21.6467802,32.1306575 21.805163,32.130784 L23.5262244,32.130784 C23.6846006,32.1306417 23.8129544,32.002288 23.8130967,31.8439118 L23.8130967,30.1226782 C23.8129544,29.964302 23.6846006,29.8359483 23.5262244,29.8358059 L21.805163,29.8358059 Z" id="Shape" fill="#603913"></path>
                                <path d="M27.5416042,24.6725928 L25.8205141,24.6725928 C25.3455358,24.6719602 24.9607098,24.2869545 24.9602989,23.811976 L24.9602989,22.0907424 C24.9607098,21.6157639 25.3455358,21.2307582 25.8205141,21.2301256 L27.5416042,21.2301256 C28.0165713,21.230774 28.4013799,21.6157751 28.4017907,22.0907424 L28.4017907,23.811976 C28.4013799,24.2869433 28.0165713,24.6719444 27.5416042,24.6725928 L27.5416042,24.6725928 Z M25.8205141,21.8040136 C25.6621248,21.8041243 25.5337526,21.9324966 25.5336418,22.0908858 L25.5336418,23.8121194 C25.5337526,23.9705087 25.6621248,24.0988809 25.8205141,24.0989917 L27.5416042,24.0989917 C27.6999375,24.0988019 27.8282224,23.9704528 27.8283331,23.8121194 L27.8283331,22.0908858 C27.8282224,21.9325525 27.6999375,21.8042034 27.5416042,21.8040136 L25.8205141,21.8040136 Z" id="Shape" fill="#603913"></path>
                                <path d="M32.1305565,24.6725928 L29.8357218,24.6725928 C29.3607482,24.6719602 28.9759303,24.2869498 28.9755353,23.811976 L28.9755353,22.0907424 C28.9759303,21.6157686 29.3607482,21.2307582 29.8357218,21.2301256 L32.1305565,21.2301256 C32.60553,21.2307582 32.9903479,21.6157686 32.9907429,22.0907424 L32.9907429,23.811976 C32.9903479,24.2869498 32.60553,24.6719602 32.1305565,24.6725928 L32.1305565,24.6725928 Z M29.8357218,21.8040136 C29.6773885,21.8042034 29.5491036,21.9325525 29.5489929,22.0908858 L29.5489929,23.8121194 C29.5491036,23.9704528 29.6773885,24.0988019 29.8357218,24.0989917 L32.1305565,24.0989917 C32.2888897,24.0988019 32.4171746,23.9704528 32.4172853,23.8121194 L32.4172853,22.0908858 C32.4171746,21.9325525 32.2888897,21.8042034 32.1305565,21.8040136 L29.8357218,21.8040136 Z" id="Shape" fill="#603913"></path>
                                <path d="M27.5416042,28.6886037 L25.8205141,28.6886037 C25.3455293,28.6879869 24.960694,28.3029719 24.9602989,27.8279869 L24.9602989,26.1067533 C24.960694,25.6317683 25.3455293,25.2467533 25.8205141,25.2461365 L27.5416042,25.2461365 C28.0165778,25.2467691 28.4013957,25.6317795 28.4017907,26.1067533 L28.4017907,27.8279869 C28.4013957,28.3029608 28.0165778,28.6879711 27.5416042,28.6886037 L27.5416042,28.6886037 Z M25.8205141,25.8198811 C25.6621248,25.8199918 25.5337526,25.948364 25.5336418,26.1067533 L25.5336418,27.8279869 C25.5337526,27.9863762 25.6621248,28.1147484 25.8205141,28.1148592 L27.5416042,28.1148592 C27.6999375,28.1146694 27.8282224,27.9863203 27.8283331,27.8279869 L27.8283331,26.1067533 C27.8282224,25.94842 27.6999375,25.8200709 27.5416042,25.8198811 L25.8205141,25.8198811 Z" id="Shape" fill="#603913"></path>
                                <path d="M27.5416042,32.7045286 L25.8205141,32.7045286 C25.3455358,32.703896 24.9607098,32.3188903 24.9602989,31.8439118 L24.9602989,30.1226782 C24.9607098,29.6476997 25.3455358,29.262694 25.8205141,29.2620614 L27.5416042,29.2620614 C28.0165713,29.2627098 28.4013799,29.6477109 28.4017907,30.1226782 L28.4017907,31.8439118 C28.4013799,32.3188791 28.0165713,32.7038802 27.5416042,32.7045286 L27.5416042,32.7045286 Z M25.8205141,29.8358059 C25.6621313,29.8359325 25.5337684,29.9642955 25.5336418,30.1226782 L25.5336418,31.8439118 C25.5337684,32.0022945 25.6621313,32.1306575 25.8205141,32.130784 L27.5416042,32.130784 C27.699931,32.1305784 27.8282066,32.0022386 27.8283331,31.8439118 L27.8283331,30.1226782 C27.8282066,29.9643514 27.699931,29.8360115 27.5416042,29.8358059 L25.8205141,29.8358059 Z" id="Shape" fill="#603913"></path>
                            </g>
                        </g>
                    </g>
                </g>
            </g>
        </g>
    </g>
</svg>