<svg width="79" height="81" viewBox="0 0 79 81" xmlns="http://www.w3.org/2000/svg" xmlns:xlink="http://www.w3.org/1999/xlink">
    <defs>
        <path id="kbd167jhsa" d="M0 0h78.533v63.774H0z"/>
        <path id="v8e9b5t0yc" d="M0 0h52.885v59.198H0z"/>
        <path id="ku7kf0uqge" d="M0 0h1.27v1.27H0z"/>
    </defs>
    <g fill="none" fill-rule="evenodd">
        <g transform="translate(0 8.828)">
            <mask id="y8t319mo6b" fill="#fff">
                <use xlink:href="#kbd167jhsa"/>
            </mask>
            <path d="M8.31 63.774S-7.429 46.132 4.413 27.65c10.431-16.281 24.289-5.47 34.776-19.936 13.692-18.887 39.934.15 39.334 22.334-.6 22.185-11.995 33.727-11.995 33.727H8.31z" fill="#E5F8FF" mask="url(#y8t319mo6b)"/>
        </g>
        <g transform="translate(12.032 13.404)">
            <mask id="cvdyn0oo6d" fill="#fff">
                <use xlink:href="#v8e9b5t0yc"/>
            </mask>
            <path fill="#FFF" mask="url(#cvdyn0oo6d)" d="M2.974 59.198h47.014V2.472H2.974z"/>
            <path d="M49.934 88.386a4.525 4.525 0 0 1-4.525 4.523H7.5a4.523 4.523 0 0 1-4.527-4.523V6.996c0-2.5 2.025-4.524 4.527-4.524h37.908a4.522 4.522 0 0 1 4.525 4.524v81.39zm2.472-63.657V6.996A6.997 6.997 0 0 0 45.41 0H7.5c-3.866 0-7 3.133-7 6.996v5.923a.716.716 0 0 0-.501.683v2.736c0 .32.212.592.501.683v4.752a.715.715 0 0 0-.501.682v6.034c0 .321.212.594.501.684v1.453a.716.716 0 0 0-.501.683v6.034c0 .321.212.593.501.684v50.359c0 1.193.301 2.32.829 3.303a7.007 7.007 0 0 0 6.17 3.692H45.41a6.996 6.996 0 0 0 6.997-6.995V36.822a.715.715 0 0 0 .48-.674V25.403a.716.716 0 0 0-.48-.674z" fill="#27BDFF" mask="url(#cvdyn0oo6d)"/>
            <path d="M41.031 26.67a14.525 14.525 0 0 1-3.99 10.025 14.576 14.576 0 0 1-.848.827 14.536 14.536 0 0 1-9.75 3.737 14.538 14.538 0 0 1-10.319-4.275c-.004-.005-.008-.01-.013-.013a14.45 14.45 0 0 1-.858-.94 14.53 14.53 0 0 1-3.4-9.36 14.53 14.53 0 0 1 3.4-9.36l.01-.013a13.847 13.847 0 0 1 .848-.927l.013-.013c.092-.091.184-.182.277-.27a14.538 14.538 0 0 1 10.042-4.006 14.536 14.536 0 0 1 10.889 4.88 14.528 14.528 0 0 1 3.7 9.708" fill="#DAF4FF" mask="url(#cvdyn0oo6d)"/>
            <path d="M34.272 36.307a.622.622 0 0 1-.622-.622c0-3.974-3.233-7.207-7.207-7.207-3.975 0-7.208 3.233-7.208 7.207a.622.622 0 0 1-1.244 0c0-4.66 3.791-8.452 8.452-8.452 4.66 0 8.451 3.792 8.451 8.452a.622.622 0 0 1-.622.622" fill="#27BDFF" mask="url(#cvdyn0oo6d)"/>
            <path d="M26.452 18.278a4.488 4.488 0 0 0-4.482 4.483 4.488 4.488 0 0 0 4.482 4.482 4.488 4.488 0 0 0 4.483-4.482 4.488 4.488 0 0 0-4.483-4.483m0 10.21a5.733 5.733 0 0 1-5.726-5.727 5.733 5.733 0 0 1 5.726-5.727 5.733 5.733 0 0 1 5.727 5.727 5.733 5.733 0 0 1-5.727 5.726" fill="#27BDFF" mask="url(#cvdyn0oo6d)"/>
            <path d="M35.811 47.019H17.074a1.05 1.05 0 0 1 0-2.099h18.737a1.05 1.05 0 1 1 0 2.099M41.672 52.752h-30.46a1.05 1.05 0 0 1 0-2.098h30.46a1.05 1.05 0 0 1 0 2.098" fill="#BDEEFF" mask="url(#cvdyn0oo6d)"/>
        </g>
        <path d="M43.077 19.363h-9.205a.615.615 0 1 1 0-1.23h9.205a.615.615 0 0 1 0 1.23" fill="#27BDFF"/>
        <path d="M70.218 75H8.31a1.2 1.2 0 1 1 0-2.398h61.908a1.2 1.2 0 1 1 0 2.398" fill="#76E2FF"/>
        <path d="M20.431 33.01a1.111 1.111 0 0 1-.335-.817c0-.32.112-.593.335-.817.224-.223.496-.335.817-.335.32 0 .593.112.817.335.223.224.335.496.335.817 0 .321-.112.593-.335.817a1.112 1.112 0 0 1-.817.335c-.321 0-.593-.112-.817-.335m.49-11.1c1.57 0 2.688.267 3.353.8s.998 1.19.998 1.969c0 .986-.425 1.788-1.273 2.407-.32.24-.71.459-1.17.653l-.274.12c-.08.035-.158.273-.232.714-.075.442-.112.76-.112.955-.058.057-.22.123-.49.198-.27.074-.493.111-.67.111-.179 0-.313-.011-.405-.034-.126-.206-.189-.654-.189-1.341 0-.688.028-1.13.086-1.324 1.811-.436 2.717-1.17 2.717-2.201 0-.895-.826-1.342-2.476-1.342-.585 0-1.01.058-1.273.172-.069-.114-.103-.355-.103-.722s.052-.676.155-.928c.31-.138.762-.207 1.358-.207" fill="#BDEEFF"/>
        <path d="M43.635 3.071a.84.84 0 0 0 0 1.68.84.84 0 0 0 0-1.68m0 2.339a1.5 1.5 0 0 1-1.5-1.5 1.5 1.5 0 0 1 1.5-1.498 1.5 1.5 0 0 1 1.498 1.499 1.5 1.5 0 0 1-1.498 1.499M68.584 12.612a.577.577 0 0 1-.577-.577V6.262a.577.577 0 0 1 1.154 0v5.773a.577.577 0 0 1-.577.577" fill="#31ACFF"/>
        <path d="M71.47 9.726h-5.772a.577.577 0 0 1 0-1.154h5.772a.577.577 0 0 1 0 1.154" fill="#31ACFF"/>
        <path d="M20.488 7.323a.392.392 0 1 1-.784 0 .392.392 0 0 1 .784 0M71.809 24.446a.392.392 0 1 1-.784 0 .392.392 0 0 1 .784 0" fill="#6289A5"/>
        <g transform="translate(54.51)">
            <mask id="gw8yu6m1xf" fill="#fff">
                <use xlink:href="#ku7kf0uqge"/>
            </mask>
            <path d="M1.27.635a.635.635 0 1 1-1.27 0 .635.635 0 0 1 1.27 0" fill="#ED1C24" mask="url(#gw8yu6m1xf)"/>
        </g>
        <path d="M4.97 51.844a.635.635 0 1 1-1.272 0 .635.635 0 0 1 1.271 0" fill="#ED1C24"/>
        <path d="M65.094 77.305a9.534 9.534 0 0 1-8.17-4.627l-.003-.007-.076-.128a5.362 5.362 0 0 1-.132-.235l-.043-.08a9.25 9.25 0 0 1-.31-.64l-.046-.107-.044-.107a9.11 9.11 0 0 1-.28-.78l-.03-.1c-.013-.038-.023-.075-.034-.113a5.646 5.646 0 0 1-.05-.185l-.037-.143a8.18 8.18 0 0 1-.08-.36 8.619 8.619 0 0 1-.047-.242l-.014-.075a8.871 8.871 0 0 1-.11-.935l-.01-.14-.007-.158a3.175 3.175 0 0 1-.003-.104l-.002-.096a8.568 8.568 0 0 1-.002-.168c0-5.255 4.275-9.53 9.53-9.53a8.572 8.572 0 0 1 .368.007l.158.008.14.008a8.017 8.017 0 0 1 .546.054c.13.017.26.036.388.058l.076.013a8.544 8.544 0 0 1 .602.127l.143.037.082.022.103.029c.037.01.075.02.113.032l.1.03c.115.037.23.075.345.115l.08.03a3.67 3.67 0 0 1 .139.051c.072.027.144.055.215.085l.108.045.106.046c.218.095.432.198.641.31l.08.043c.047.025.094.05.14.077l.095.054.128.076.007.004a9.534 9.534 0 0 1 4.626 8.17c0 5.254-4.274 9.529-9.529 9.529m8.71-18.24a12.246 12.246 0 0 0-8.71-3.608c-3.29 0-6.384 1.281-8.71 3.608a12.235 12.235 0 0 0-3.608 8.71 12.245 12.245 0 0 0 3.608 8.71 12.237 12.237 0 0 0 8.71 3.607 12.231 12.231 0 0 0 8.71-3.607 12.268 12.268 0 0 0 1.199-1.389 12.23 12.23 0 0 0 2.408-7.32c0-3.291-1.28-6.384-3.607-8.71" fill="#BDD9E0"/>
        <path d="M74.623 67.775c0 5.255-4.274 9.53-9.529 9.53-2.45 0-4.69-.93-6.38-2.456a9.605 9.605 0 0 1-1.79-2.171 9.468 9.468 0 0 1-1.36-4.903c0-5.255 4.275-9.53 9.53-9.53 1.792 0 3.47.497 4.903 1.361a9.606 9.606 0 0 1 2.171 1.79 9.492 9.492 0 0 1 2.455 6.38" fill="#00A4FF"/>
        <path d="M74.623 67.775c0 5.255-4.274 9.53-9.529 9.53-2.45 0-4.69-.93-6.38-2.456a9.605 9.605 0 0 1-1.79-2.171 9.468 9.468 0 0 1-1.36-4.903c0-5.255 4.275-9.53 9.53-9.53 1.792 0 3.47.497 4.903 1.361a9.606 9.606 0 0 1 2.171 1.79 9.492 9.492 0 0 1 2.455 6.38" fill="#097EAC"/>
        <path d="M74.623 67.775c0 5.255-4.274 9.53-9.529 9.53-2.45 0-4.69-.93-6.38-2.456a9.576 9.576 0 0 1-1.436-2.092 9.468 9.468 0 0 1-1.022-4.29c0-5.255 4.275-9.53 9.53-9.53 1.542 0 3 .369 4.29 1.022.762.386 1.465.87 2.092 1.437a9.492 9.492 0 0 1 2.455 6.38" fill="#1DA9E7"/>
        <path d="m69.997 59.606-.007-.004a6.072 6.072 0 0 0-.223-.13 5.891 5.891 0 0 0-.14-.077l-.08-.044a9.225 9.225 0 0 0-1.07-.485c-.028-.012-.056-.021-.083-.031-.02-.008-.038-.015-.057-.02a9.112 9.112 0 0 0-.637-.206l-.103-.03a2.64 2.64 0 0 0-.585-.14 8.39 8.39 0 0 0-.706-.117 4.005 4.005 0 0 0-.24-.027 6.164 6.164 0 0 0-.306-.027l-.14-.008a7.615 7.615 0 0 0-.358-.013 8.562 8.562 0 0 0-.168-.002c-5.255 0-9.53 4.276-9.53 9.53a8.564 8.564 0 0 0 .014.526 5.614 5.614 0 0 0 .022.305 6.223 6.223 0 0 0 .041.381 8.79 8.79 0 0 0 .117.706l.02.097a8.361 8.361 0 0 0 .12.488l.028.103.033.113.03.1a8.98 8.98 0 0 0 .144.424l.02.057.031.082a7.245 7.245 0 0 0 .13.324l.046.106c.096.218.199.432.31.642l.043.08a5.52 5.52 0 0 0 .132.234l.076.128.004.007a10.68 10.68 0 0 1-3.734-1.715 12.381 12.381 0 0 1-.415-3.188c0-3.29 1.281-6.383 3.608-8.71a12.235 12.235 0 0 1 8.71-3.608c1.091 0 2.16.142 3.188.415a10.681 10.681 0 0 1 1.715 3.734" fill="#FFF" opacity=".3"/>
        <path d="M70.3 62.168a10.737 10.737 0 0 1-3.166 7.647 10.905 10.905 0 0 1-1.452 1.22 10.737 10.737 0 0 1-6.195 1.947c-.751 0-1.49-.076-2.21-.225a9.468 9.468 0 0 1-1.021-4.29c0-5.255 4.275-9.53 9.53-9.53 1.542 0 3 .368 4.29 1.022.149.719.225 1.458.225 2.209" fill="#FFF" opacity=".2"/>
        <path d="M68.881 72.44c-.261 0-.522-.1-.722-.3l-6.884-6.884a1.022 1.022 0 1 1 1.445-1.445l6.884 6.884a1.022 1.022 0 0 1-.723 1.744" fill="#FFF"/>
        <path d="M61.998 72.44a1.022 1.022 0 0 1-.722-1.744l6.883-6.885a1.022 1.022 0 1 1 1.445 1.445L62.72 72.14c-.2.2-.46.3-.722.3" fill="#FFF"/>
    </g>
</svg>
