<?xml version="1.0" encoding="UTF-8"?>
<svg width="79px" height="81px" viewBox="0 0 79 81" version="1.1" xmlns="http://www.w3.org/2000/svg" xmlns:xlink="http://www.w3.org/1999/xlink">
    <title>ic_result-not-found</title>
    <defs>
        <polygon id="path-1" points="1.55500975e-15 0 78.5330446 0 78.5330446 63.7741366 1.55500975e-15 63.7741366"></polygon>
        <polygon id="path-3" points="0 0 52.885152 0 52.885152 59.1979368 0 59.1979368"></polygon>
        <polygon id="path-5" points="6.22003901e-15 0 1.27085131 0 1.27085131 1.27082395 6.22003901e-15 1.27082395"></polygon>
    </defs>
    <g id="Page-1" stroke="none" stroke-width="1" fill="none" fill-rule="evenodd">
        <g id="23_Urban-Money_Query-submitted-popup" transform="translate(-691.000000, -253.000000)">
            <g id="otp" transform="translate(543.000000, 150.000000)">
                <g id="Rooms" transform="translate(40.000000, 103.000000)">
                    <g id="title" transform="translate(11.000000, 0.000000)">
                        <g id="ic_result-not-found" transform="translate(97.000000, 0.000000)">
                            <g id="Group-3" transform="translate(0.000000, 8.827506)">
                                <mask id="mask-2" fill="white">
                                    <use xlink:href="#path-1"></use>
                                </mask>
                                <g id="Clip-2"></g>
                                <path d="M8.31045082,63.7741366 C8.31045082,63.7741366 -7.42872637,46.1318557 4.41314795,27.6489243 C14.844327,11.367715 28.7017382,22.1797445 39.1892707,7.71256758 C52.8809044,-11.1744669 79.1225504,7.86247857 78.5229611,30.0472814 C77.9233719,52.2320295 66.5284402,63.7741366 66.5284402,63.7741366 L8.31045082,63.7741366 Z" id="Fill-1" fill="#E5F8FF" mask="url(#mask-2)"></path>
                            </g>
                            <g id="Group-12" transform="translate(12.032084, 13.403739)">
                                <mask id="mask-4" fill="white">
                                    <use xlink:href="#path-3"></use>
                                </mask>
                                <g id="Clip-5"></g>
                                <polygon id="Fill-4" fill="#FFFFFF" mask="url(#mask-4)" points="2.97365965 59.1978821 49.9883737 59.1978821 49.9883737 2.47227303 2.97365965 2.47227303"></polygon>
                                <path d="M49.9338203,88.3856621 C49.9338203,88.5067946 49.9300999,88.6261215 49.919814,88.7444637 C49.7362551,91.0760721 47.7867009,92.9090896 45.4085326,92.9090896 L7.50085679,92.9090896 C4.99871098,92.9090896 2.97370889,90.8850176 2.97370889,88.3856621 L2.97370889,6.99570051 C2.97370889,4.49634502 4.99871098,2.47227303 7.50085679,2.47227303 L45.4085326,2.47227303 C47.9097483,2.47227303 49.9338203,4.49634502 49.9338203,6.99570051 L49.9338203,88.3856621 Z M52.4061481,24.7287486 L52.4061481,6.99570051 C52.4061481,3.13297565 49.2731177,0 45.4085326,0 L7.50085679,0 C3.63534162,0 0.501381151,3.13297565 0.501381151,6.99570051 L0.501381151,12.9188262 C0.211571466,13.0092652 0,13.280418 0,13.601906 L0,16.3379458 C0,16.6585583 0.211571466,16.9297112 0.501381151,17.0210803 L0.501381151,21.7728212 C0.211571466,21.8632055 0,22.1343583 0,22.4549162 L0,28.4889978 C0,28.8104858 0.211571466,29.0825688 0.501381151,29.1730078 L0.501381151,30.6258313 C0.211571466,30.7162156 0,30.9882986 0,31.3088565 L0,37.3429381 C0,37.6644261 0.211571466,37.935579 0.501381151,38.0269481 L0.501381151,88.3856621 C0.501381151,89.5794242 0.802406805,90.7051791 1.32983089,91.6892299 C2.31016125,93.5148066 4.07708664,94.8539385 6.17753664,95.2555796 C6.60620548,95.3385778 7.0470204,95.3814173 7.50085679,95.3814173 L45.4085326,95.3814173 C49.1528606,95.3814173 52.2085829,92.4431618 52.3967923,88.7444637 C52.4024276,88.6251914 52.4061481,88.5049344 52.4061481,88.3856621 L52.4061481,36.8219701 C52.6838664,36.7250751 52.885152,36.4594481 52.885152,36.148246 L52.885152,25.4025274 C52.885152,25.0912706 52.6838664,24.8266285 52.4061481,24.7287486 L52.4061481,24.7287486 Z" id="Fill-6" fill="#27BDFF" mask="url(#mask-4)"></path>
                                <path d="M41.0312027,26.6706869 C41.0312027,28.9809029 40.4942587,31.1657188 39.537947,33.1071209 C39.3888019,33.4108275 39.2289881,33.7085157 39.059326,33.9996385 C38.6410525,34.7181717 38.1633616,35.3975311 37.6324907,36.0311513 C37.5340637,36.1487275 37.433886,36.2647717 37.3317933,36.3790652 C37.2366491,36.4858084 37.139754,36.5911837 37.0415459,36.6950272 C36.9492467,36.7925788 36.8555797,36.8890361 36.7606543,36.9839615 C36.6693946,37.0752212 36.5770954,37.1653319 36.4834831,37.2541843 C36.3879012,37.3447874 36.2910061,37.4342416 36.1932357,37.5224374 C33.6090766,39.8455107 30.1909965,41.2593246 26.442565,41.2593246 C22.5517729,41.2593246 19.016992,39.736196 16.4014829,37.2537466 C16.3078159,37.1648942 16.2155166,37.0747835 16.124257,36.9835238 C16.1199347,36.9792015 16.1155577,36.9748246 16.1112355,36.9705023 C15.9195792,36.7784084 15.7336677,36.5811714 15.5533368,36.3788463 C15.4545269,36.2684921 15.3580695,36.1567701 15.2629253,36.0433521 C15.2594237,36.039194 15.2559221,36.0350358 15.2526394,36.0309324 C13.1312347,33.4977102 11.8539274,30.2331521 11.8539274,26.6706869 C11.8539274,23.1082217 13.1312347,19.8436636 15.2526394,17.3104414 C15.2559221,17.306338 15.2594237,17.3021799 15.2629253,17.2980217 C15.3580695,17.1846037 15.4545269,17.0728817 15.5533368,16.9624728 C15.7336677,16.7602024 15.9195792,16.5629655 16.1112355,16.3708715 C16.1155577,16.3665492 16.1199347,16.3621723 16.124257,16.35785 C16.2155166,16.2665903 16.3078159,16.1764796 16.4014829,16.0876272 C19.016992,13.6051778 22.5517729,12.0820492 26.442565,12.0820492 C30.1909965,12.0820492 33.6090766,13.4958631 36.1932357,15.8189364 C36.2910061,15.9071322 36.3879012,15.9965864 36.4834831,16.0871895 C36.5770954,16.1760419 36.6693946,16.2661526 36.7606543,16.3574123 C36.8555797,16.4523377 36.9492467,16.548795 37.0415459,16.6463466 C37.139754,16.7501901 37.2366491,16.8555655 37.3317933,16.9623087 C37.433886,17.0766021 37.5340637,17.1926464 37.6324907,17.3102225 C39.7541689,19.8434448 41.0312027,23.107784 41.0312027,26.6706869" id="Fill-7" fill="#DAF4FF" mask="url(#mask-4)"></path>
                                <path d="M34.2722795,36.3072447 C33.9287426,36.3072447 33.6502583,36.0287057 33.6502583,35.6851687 C33.6502583,31.710886 30.4168313,28.4775138 26.4425486,28.4775138 C22.4682659,28.4775138 19.2349484,31.710886 19.2349484,35.6851687 C19.2349484,36.0287057 18.9564094,36.3072447 18.6128725,36.3072447 C18.2693356,36.3072447 17.9908513,36.0287057 17.9908513,35.6851687 C17.9908513,31.0249065 21.7822863,27.2334167 26.4425486,27.2334167 C31.1028109,27.2334167 34.8943554,31.0249065 34.8943554,35.6851687 C34.8943554,36.0287057 34.6158164,36.3072447 34.2722795,36.3072447" id="Fill-8" fill="#27BDFF" mask="url(#mask-4)"></path>
                                <path d="M26.4524406,18.2782208 C23.9807147,18.2782208 21.969883,20.2890525 21.969883,22.7607784 C21.969883,25.2325043 23.9807147,27.243336 26.4524406,27.243336 C28.9241665,27.243336 30.9349982,25.2325043 30.9349982,22.7607784 C30.9349982,20.2890525 28.9241665,18.2782208 26.4524406,18.2782208 M26.4524406,28.4874331 C23.2947351,28.4874331 20.7257859,25.9184839 20.7257859,22.7607784 C20.7257859,19.6030729 23.2947351,17.0341237 26.4524406,17.0341237 C29.6101461,17.0341237 32.1790953,19.6030729 32.1790953,22.7607784 C32.1790953,25.9184839 29.6101461,28.4874331 26.4524406,28.4874331" id="Fill-9" fill="#27BDFF" mask="url(#mask-4)"></path>
                                <path d="M35.8111487,47.0187573 L17.0739705,47.0187573 C16.4945152,47.0187573 16.0247029,46.5489997 16.0247029,45.9694897 C16.0247029,45.3899798 16.4945152,44.9202222 17.0739705,44.9202222 L35.8111487,44.9202222 C36.3906586,44.9202222 36.8604162,45.3899798 36.8604162,45.9694897 C36.8604162,46.5489997 36.3906586,47.0187573 35.8111487,47.0187573" id="Fill-10" fill="#BDEEFF" mask="url(#mask-4)"></path>
                                <path d="M41.6722309,52.7523276 L11.2128883,52.7523276 C10.633433,52.7523276 10.1636207,52.28257 10.1636207,51.70306 C10.1636207,51.1235501 10.633433,50.6537378 11.2128883,50.6537378 L41.6722309,50.6537378 C42.2517408,50.6537378 42.7214984,51.1235501 42.7214984,51.70306 C42.7214984,52.28257 42.2517408,52.7523276 41.6722309,52.7523276" id="Fill-11" fill="#BDEEFF" mask="url(#mask-4)"></path>
                            </g>
                            <g id="Group-60" transform="translate(3.698488, 0.000000)">
                                <path d="M39.3788006,19.3631606 L30.1735543,19.3631606 C29.8337925,19.3631606 29.5583173,19.0877402 29.5583173,18.7479784 C29.5583173,18.4082166 29.8337925,18.1327415 30.1735543,18.1327415 L39.3788006,18.1327415 C39.7185624,18.1327415 39.9939828,18.4082166 39.9939828,18.7479784 C39.9939828,19.0877402 39.7185624,19.3631606 39.3788006,19.3631606" id="Fill-39" fill="#27BDFF"></path>
                                <path d="M66.5195022,75 L4.61195156,75 C3.9496623,75 3.41277303,74.4631107 3.41277303,73.8008215 C3.41277303,73.1385322 3.9496623,72.6016429 4.61195156,72.6016429 L66.5195022,72.6016429 C67.1817915,72.6016429 67.7186807,73.1385322 67.7186807,73.8008215 C67.7186807,74.4631107 67.1817915,75 66.5195022,75" id="Fill-41" fill="#76E2FF"></path>
                                <path d="M16.7326549,33.0098374 C16.5091015,32.7863388 16.3973248,32.5140916 16.3973248,32.1930961 C16.3973248,31.8722647 16.5091015,31.5997987 16.7326549,31.3762453 C16.9561536,31.1527466 17.228346,31.0409699 17.5493962,31.0409699 C17.8702276,31.0409699 18.1426936,31.1527466 18.366247,31.3762453 C18.5897457,31.5997987 18.7015224,31.8722647 18.7015224,32.1930961 C18.7015224,32.5140916 18.5897457,32.7863388 18.366247,33.0098374 C18.1426936,33.2333908 17.8702276,33.3451675 17.5493962,33.3451675 C17.228346,33.3451675 16.9561536,33.2333908 16.7326549,33.0098374 M17.2227106,21.9101867 C18.7931651,21.9101867 19.9108774,22.176689 20.5757928,22.7098032 C21.2405441,23.2428079 21.5731386,23.8991882 21.5731386,24.6786707 C21.5731386,25.6647458 21.1489014,26.4669885 20.3007007,27.0860005 C19.9796504,27.3267882 19.5898271,27.5446516 19.1313949,27.7394265 L18.8563028,27.859793 C18.7759308,27.8942068 18.6985679,28.1322589 18.6241596,28.5734021 C18.5494776,29.0148736 18.5123829,29.3329694 18.5123829,29.5277443 C18.4548805,29.5852466 18.2915651,29.6510652 18.0223271,29.7255283 C17.7528156,29.8002102 17.5293169,29.8372503 17.3517216,29.8372503 C17.1737981,29.8372503 17.0392064,29.8260343 16.9475638,29.8028911 C16.8213431,29.596572 16.7584789,29.1494652 16.7584789,28.4616801 C16.7584789,27.7738403 16.7869292,27.3326424 16.8444316,27.137594 C18.6555643,26.7020861 19.5612674,25.9682882 19.5612674,24.9365833 C19.5612674,24.0423697 18.7359363,23.5953723 17.0851098,23.5953723 C16.5005117,23.5953723 16.0762745,23.6528746 15.8126719,23.7672775 C15.7438988,23.6528746 15.7095397,23.4120869 15.7095397,23.0450786 C15.7095397,22.6783437 15.7611331,22.3688377 15.8642653,22.1165605 C16.1738261,21.9789597 16.6265135,21.9101867 17.2227106,21.9101867" id="Fill-43" fill="#BDEEFF"></path>
                                <path d="M39.9360865,3.07104162 C39.4729491,3.07104162 39.0962019,3.44784345 39.0962019,3.91092617 C39.0962019,4.3740636 39.4729491,4.75086544 39.9360865,4.75086544 C40.3992239,4.75086544 40.7760258,4.3740636 40.7760258,3.91092617 C40.7760258,3.44784345 40.3992239,3.07104162 39.9360865,3.07104162 M39.9360865,5.40959842 C39.1097705,5.40959842 38.4374142,4.73729685 38.4374142,3.91092617 C38.4374142,3.08455549 39.1097705,2.41230863 39.9360865,2.41230863 C40.7624025,2.41230863 41.4347587,3.08455549 41.4347587,3.91092617 C41.4347587,4.73729685 40.7624025,5.40959842 39.9360865,5.40959842" id="Fill-45" fill="#31ACFF"></path>
                                <path d="M64.8854888,12.6124825 C64.5666817,12.6124825 64.308222,12.3540228 64.308222,12.0352157 L64.308222,6.26243878 C64.308222,5.94363172 64.5666817,5.68511732 64.8854888,5.68511732 C65.2042959,5.68511732 65.4627555,5.94363172 65.4627555,6.26243878 L65.4627555,12.0352157 C65.4627555,12.3540228 65.2042959,12.6124825 64.8854888,12.6124825" id="Fill-47" fill="#31ACFF"></path>
                                <path d="M67.7718827,9.72609401 L61.9991058,9.72609401 C61.6802987,9.72609401 61.421839,9.46763433 61.421839,9.14882726 C61.421839,8.83002019 61.6802987,8.57156051 61.9991058,8.57156051 L67.7718827,8.57156051 C68.0906898,8.57156051 68.3491495,8.83002019 68.3491495,9.14882726 C68.3491495,9.46763433 68.0906898,9.72609401 67.7718827,9.72609401" id="Fill-49" fill="#31ACFF"></path>
                                <path d="M16.7891669,7.32280192 C16.7891669,7.53918805 16.6137054,7.71464956 16.3973193,7.71464956 C16.1809332,7.71464956 16.0054716,7.53918805 16.0054716,7.32280192 C16.0054716,7.10636108 16.1809332,6.93095428 16.3973193,6.93095428 C16.6137054,6.93095428 16.7891669,7.10636108 16.7891669,7.32280192" id="Fill-51" fill="#6289A5"></path>
                                <path d="M68.1105229,24.4461883 C68.1105229,24.6625744 67.9351161,24.8380359 67.7186753,24.8380359 C67.5022892,24.8380359 67.3268276,24.6625744 67.3268276,24.4461883 C67.3268276,24.2297475 67.5022892,24.0543407 67.7186753,24.0543407 C67.9351161,24.0543407 68.1105229,24.2297475 68.1105229,24.4461883" id="Fill-53" fill="#6289A5"></path>
                                <g id="Group-57" transform="translate(50.812140, 0.000000)">
                                    <mask id="mask-6" fill="white">
                                        <use xlink:href="#path-5"></use>
                                    </mask>
                                    <g id="Clip-56"></g>
                                    <path d="M1.27085131,0.635398297 C1.27085131,0.986321333 0.986348689,1.27082395 0.635425653,1.27082395 C0.284502617,1.27082395 6.22003901e-15,0.986321333 6.22003901e-15,0.635398297 C6.22003901e-15,0.284475261 0.284502617,-2.73560209e-05 0.635425653,-2.73560209e-05 C0.986348689,-2.73560209e-05 1.27085131,0.284475261 1.27085131,0.635398297" id="Fill-55" fill="#ED1C24" mask="url(#mask-6)"></path>
                                </g>
                                <path d="M1.27085131,51.8436098 C1.27085131,52.1945328 0.986348689,52.4790354 0.635425653,52.4790354 C0.284502617,52.4790354 0,52.1945328 0,51.8436098 C0,51.4926868 0.284502617,51.2081841 0.635425653,51.2081841 C0.986348689,51.2081841 1.27085131,51.4926868 1.27085131,51.8436098" id="Fill-58" fill="#ED1C24"></path>
                                <g id="Group-26" transform="translate(49.077698, 55.457423)">
                                    <path d="M12.3177925,21.8471858 C8.85484852,21.8471858 5.8174548,19.9906421 4.14857339,17.2205714 C4.14742444,17.2183282 4.14578308,17.2161397 4.14468884,17.2138965 C4.11924774,17.1712758 4.09375193,17.1287099 4.06885795,17.0855421 C4.05058413,17.0539732 4.03236502,17.0224591 4.01463832,16.9903431 C3.98810298,16.9444397 3.96260716,16.8979345 3.93716607,16.8508821 C3.9227768,16.8243468 3.90838753,16.7977567 3.89399826,16.7712214 C3.78276868,16.5620572 3.67930821,16.3479143 3.58410926,16.1298868 C3.56862575,16.0944334 3.55314224,16.0590347 3.53820586,16.023636 C3.52266764,15.9882373 3.50833308,15.9522368 3.49339669,15.916291 C3.46401633,15.8448918 3.43583963,15.7723983 3.40815533,15.6999049 C3.39765062,15.6728224 3.38714591,15.6451381 3.37718832,15.6174538 C3.36996633,15.5986329 3.36279905,15.579812 3.3566713,15.5610457 C3.34671371,15.5344557 3.33730324,15.5079203 3.32794748,15.4813303 C3.28751528,15.3673651 3.24932628,15.252251 3.21338046,15.1360426 C3.20287575,15.1028324 3.19291816,15.0696222 3.18296057,15.0364667 C3.1713069,14.9988248 3.16080219,14.9611829 3.15029748,14.923541 C3.14033989,14.8892366 3.13092942,14.8554792 3.12151895,14.8206277 C3.11374984,14.7934905 3.10658256,14.766408 3.09936057,14.7387237 C3.0872145,14.6911243 3.07501371,14.6435795 3.06286764,14.59598 C3.04125638,14.5085502 3.0213412,14.4211203 3.00252026,14.3325415 C2.99535298,14.3004803 2.98873282,14.2683643 2.98205795,14.2357559 C2.9654802,14.1554934 2.9499967,14.0752308 2.93560743,13.9939287 C2.93117575,13.9684329 2.92674408,13.9435389 2.9223124,13.9180978 C2.90015403,13.7897434 2.8813878,13.66024 2.86475533,13.5296423 C2.85977654,13.4903591 2.85479774,13.4505287 2.85036607,13.4106436 C2.84538727,13.3708133 2.8409556,13.3309829 2.83707104,13.2906054 C2.83209225,13.2435531 2.82766057,13.1965007 2.82383073,13.1489559 C2.81885193,13.0941345 2.81496738,13.0393677 2.81108282,12.9839991 C2.80774539,12.9375486 2.80500978,12.8904963 2.80221947,12.8434986 C2.79948387,12.7909203 2.79669355,12.7383421 2.79505219,12.6857638 C2.79335612,12.6509122 2.79226188,12.6160607 2.79171476,12.5811544 C2.79062052,12.5490931 2.7900734,12.5175243 2.78947156,12.485463 C2.78837732,12.4295473 2.7878302,12.3736863 2.7878302,12.3177706 C2.7878302,7.06306197 7.06308386,2.78780832 12.3177925,2.78780832 C12.3736535,2.78780832 12.4295692,2.78841015 12.4854849,2.78950439 C12.5175462,2.79005151 12.549115,2.79059863 12.5811763,2.79169287 C12.6160278,2.79223999 12.6509341,2.79338895 12.6857857,2.79503031 C12.738364,2.79667167 12.7909422,2.79946198 12.8434658,2.80219759 C12.8905181,2.8049879 12.9375705,2.80777821 12.984021,2.81106094 C13.0393896,2.81494549 13.0941564,2.81883005 13.1489231,2.82380884 C13.1965226,2.8276934 13.2435749,2.83207036 13.2905726,2.83710387 C13.3310048,2.84093371 13.3708352,2.84536539 13.4106655,2.85034418 C13.4504959,2.85477586 13.490381,2.85975465 13.5296642,2.86473345 C13.6602619,2.88136591 13.7897105,2.90018685 13.9181197,2.92229052 C13.9435608,2.92672219 13.9684548,2.93115387 13.9938959,2.93558554 C14.0752527,2.94997481 14.1555153,2.96545832 14.2357231,2.98203607 C14.2683862,2.98871094 14.3005022,2.99533109 14.3325634,3.00255308 C14.4210875,3.02137403 14.5085174,3.04128921 14.5960019,3.06284575 C14.6435467,3.07504654 14.6911461,3.08719261 14.7387456,3.0993934 C14.7664299,3.10656067 14.7935124,3.11378266 14.8206496,3.12149706 C14.854954,3.13090753 14.8892585,3.140318 14.9235629,3.1502756 C14.9612048,3.16078031 14.9988467,3.17128502 15.0364338,3.18293868 C15.0696441,3.19289628 15.1028543,3.20285387 15.1360645,3.21335858 C15.2522728,3.24930439 15.3673323,3.2874934 15.4813522,3.3279256 C15.5078875,3.33733607 15.5344776,3.34674654 15.5610129,3.35670413 C15.5798338,3.36277717 15.5986548,3.36994444 15.6174757,3.37716643 C15.64516,3.38712402 15.6727896,3.39762874 15.6999268,3.40813345 C15.7724202,3.43527062 15.8449137,3.46404916 15.9163129,3.49337481 C15.9522587,3.5083112 15.9882045,3.52270046 16.0236579,3.53818397 C16.0590566,3.55312036 16.0944553,3.56860387 16.1299087,3.58408737 C16.3479362,3.67928633 16.5620791,3.7827468 16.7712433,3.89397638 C16.7977786,3.90836565 16.8243687,3.92275491 16.850904,3.93714418 C16.8979564,3.96258528 16.9444069,3.98808109 16.990365,4.01461643 C17.022481,4.03234313 17.0539951,4.05061695 17.0855092,4.06883606 C17.1287317,4.09378476 17.1712977,4.11922586 17.2139184,4.14466695 C17.2161069,4.1457612 17.2183501,4.14745727 17.2205386,4.14855151 C19.9906639,5.81748763 21.8472077,8.85488134 21.8472077,12.3177706 C21.8472077,17.5724792 17.5725011,21.8471858 12.3177925,21.8471858 M21.027676,3.60788711 C19.4727597,2.05297089 17.5752367,0.965076647 15.505699,0.414454659 C14.4786446,0.141113298 13.4090242,1.09424e-05 12.3177925,1.09424e-05 C9.02751972,1.09424e-05 5.93426501,1.28103869 3.607909,3.60788711 C1.28106057,5.93424313 3.2827225e-05,9.02749783 3.2827225e-05,12.3177706 C3.2827225e-05,13.4090023 0.141135183,14.4786227 0.414476544,15.5056771 C0.965098532,17.5752695 2.05299277,19.4727379 3.607909,21.0276541 C5.93426501,23.3539554 9.02751972,24.6349831 12.3177925,24.6349831 C14.8787537,24.6349831 17.3201692,23.858674 19.3742234,22.4177229 C19.6082815,22.253368 19.8379626,22.0801496 20.061516,21.898068 C20.396299,21.6269698 20.7188812,21.3364489 21.027676,21.0276541 C21.2595456,20.7957845 21.4808558,20.5567475 21.6911689,20.3099415 C21.8781747,20.0913669 22.0569189,19.8678135 22.2267998,19.6387342 C23.7900323,17.5309528 24.635005,14.9894143 24.635005,12.3177706 C24.635005,9.02749783 23.3539773,5.93424313 21.027676,3.60788711" id="Fill-23" fill="#BDD9E0"></path>
                                    <path d="M21.8471967,12.3177815 C21.8471967,17.5724902 17.5724902,21.8471967 12.3177815,21.8471967 C9.86695563,21.8471967 7.62863129,20.9175297 5.93868575,19.3919391 C5.24088837,18.7616564 4.63604674,18.0301017 4.14856245,17.2205276 C3.28476874,15.7873457 2.78781926,14.1095462 2.78781926,12.3177815 C2.78781926,7.06307292 7.06307292,2.78781926 12.3177815,2.78781926 C14.1095462,2.78781926 15.7873457,3.28476874 17.2205823,4.14856245 C18.0301564,4.63604674 18.7616564,5.24088837 19.3919391,5.93863103 C20.9175297,7.62863129 21.8471967,9.86695563 21.8471967,12.3177815" id="Fill-25" fill="#00A4FF"></path>
                                    <path d="M21.8471967,12.3177815 C21.8471967,17.5724902 17.5724902,21.8471967 12.3177815,21.8471967 C9.86695563,21.8471967 7.62863129,20.9175297 5.93868575,19.3919391 C5.24088837,18.7616564 4.63604674,18.0301017 4.14856245,17.2205276 C3.28476874,15.7873457 2.78781926,14.1095462 2.78781926,12.3177815 C2.78781926,7.06307292 7.06307292,2.78781926 12.3177815,2.78781926 C14.1095462,2.78781926 15.7873457,3.28476874 17.2205823,4.14856245 C18.0301564,4.63604674 18.7616564,5.24088837 19.3919391,5.93863103 C20.9175297,7.62863129 21.8471967,9.86695563 21.8471967,12.3177815" id="Fill-27" fill="#097EAC"></path>
                                    <path d="M21.8471967,12.3177815 C21.8471967,17.5724902 17.5724902,21.8471967 12.3177815,21.8471967 C9.86695563,21.8471967 7.62863129,20.9175297 5.93868575,19.3919391 C5.37203313,18.764392 4.88728444,18.0616705 4.50156455,17.2996959 C3.84808392,16.0098048 3.47954361,14.5516742 3.47954361,13.0095059 C3.47954361,7.75479726 7.75479726,3.47954361 13.0095059,3.47954361 C14.5517289,3.47954361 16.0098048,3.84808392 17.2996959,4.50156455 C18.0616705,4.88728444 18.7644467,5.37203313 19.3919391,5.93863103 C20.9175297,7.62863129 21.8471967,9.86695563 21.8471967,12.3177815" id="Fill-29" fill="#1DA9E7"></path>
                                    <path d="M17.2205604,4.14854057 C17.2183172,4.14744633 17.2161288,4.14575025 17.2139403,4.14465601 C17.1713196,4.11866779 17.1286989,4.09377381 17.0855311,4.06887983 C17.054017,4.05005889 17.0224481,4.03233219 16.9903869,4.01460549 C16.9444288,3.98807015 16.8979782,3.96262905 16.8509259,3.93713324 C16.8249377,3.92219685 16.7978005,3.9083547 16.7712104,3.89402015 C16.5620463,3.78279057 16.3479034,3.67927538 16.1298759,3.58413114 C16.0944772,3.5680458 16.0590785,3.55310942 16.0236251,3.53817303 C15.9882264,3.52268952 15.9522806,3.50775313 15.9162801,3.49336387 C15.8449356,3.46403821 15.7724421,3.43525968 15.6999487,3.40812251 C15.6728115,3.39707067 15.6451272,3.38711308 15.6174976,3.37715549 C15.5986767,3.36998821 15.5798557,3.36276622 15.5610348,3.35669319 C15.5344447,3.34618847 15.5079094,3.336778 15.4813741,3.32791465 C15.3673542,3.28753717 15.25224,3.24934816 15.1360316,3.21334764 C15.1028761,3.20284293 15.0696659,3.19288533 15.0364557,3.18292774 C14.9988138,3.17132879 14.961172,3.16076937 14.9235848,3.15026465 C14.8892803,3.14030706 14.8549212,3.13089659 14.8206167,3.12148612 C14.7935343,3.11377172 14.7663971,3.10654973 14.7387675,3.09938245 C14.691168,3.08663455 14.6435686,3.07448848 14.5959691,3.06283481 C14.5085392,3.04127827 14.4211094,3.02136308 14.3325853,3.00254214 C14.3004693,2.99532015 14.2684081,2.98815287 14.235745,2.98207984 C14.1554824,2.96544738 14.0752746,2.94996387 13.9939178,2.9355746 C13.9684767,2.93059581 13.9435827,2.92616413 13.9180869,2.92227958 C13.7897324,2.90017591 13.660229,2.88135497 13.5296314,2.86477722 C13.489801,2.85919659 13.4505178,2.85476492 13.4106874,2.85038795 C13.370857,2.84535444 13.330972,2.84097748 13.2905945,2.83709293 C13.2435968,2.83211413 13.1959974,2.82768245 13.148945,2.8237979 C13.0941782,2.8188191 13.0393568,2.81438743 12.9840429,2.81104999 C12.9375377,2.80776727 12.89054,2.80442984 12.8434877,2.80224136 C12.7909094,2.79945104 12.7383311,2.79671544 12.6858076,2.79501937 C12.6509013,2.793378 12.6160497,2.79228376 12.5811981,2.79168193 C12.5490822,2.79058769 12.517568,2.79004057 12.4854521,2.78949345 C12.4295911,2.78839921 12.3736754,2.78785209 12.3178144,2.78785209 C7.06310574,2.78785209 2.78785209,7.06310574 2.78785209,12.3177597 C2.78785209,12.3736754 2.78839921,12.4295911 2.78949345,12.4854521 C2.79004057,12.517568 2.79058769,12.5490822 2.79173664,12.5811981 C2.79228376,12.6160497 2.793378,12.6509013 2.79501937,12.6857529 C2.79671544,12.7383311 2.79945104,12.7909094 2.80224136,12.8434877 C2.80442984,12.8904853 2.80776727,12.9375377 2.81110471,12.9840429 C2.81438743,13.0393568 2.8188191,13.0941235 2.8237979,13.148945 C2.82768245,13.1959426 2.83211413,13.2435421 2.83709293,13.2905945 C2.84097748,13.330972 2.84540916,13.3708023 2.85038795,13.4106874 C2.85481963,13.4505178 2.85919659,13.489801 2.86477722,13.5296314 C2.88135497,13.660229 2.90017591,13.7897324 2.92233429,13.9180869 C2.92616413,13.9435827 2.93059581,13.9684767 2.9355746,13.9939178 C2.94996387,14.0752746 2.96550209,14.1554824 2.98207984,14.235745 C2.98815287,14.2683534 2.99537486,14.3004693 3.00254214,14.3325853 C3.02136308,14.4211094 3.04127827,14.5085392 3.06283481,14.5959691 C3.07448848,14.6435686 3.08663455,14.691168 3.09938245,14.7387128 C3.10660444,14.7663971 3.11377172,14.7935343 3.12154083,14.8206167 C3.1309513,14.8549212 3.14030706,14.8892256 3.15026465,14.9235301 C3.16082408,14.961172 3.17132879,14.9988138 3.18292774,15.0364557 C3.19288533,15.0696112 3.20284293,15.1028214 3.21340235,15.1360316 C3.24934816,15.25224 3.28753717,15.3673542 3.32791465,15.4813193 C3.336778,15.5079094 3.34618847,15.5344447 3.35669319,15.5610348 C3.36276622,15.5798557 3.36998821,15.5986767 3.37715549,15.6174429 C3.38711308,15.6451272 3.39707067,15.6728115 3.40817722,15.6998939 C3.43525968,15.7723874 3.46403821,15.8448809 3.49336387,15.9162801 C3.50775313,15.9522259 3.52268952,15.9882264 3.53817303,16.0236251 C3.55316413,16.0590238 3.56810052,16.0944772 3.58413114,16.1298759 C3.6793301,16.3479034 3.78279057,16.5620463 3.89402015,16.7712104 C3.90840942,16.7978005 3.92225156,16.8248829 3.93718795,16.8509259 C3.96262905,16.8979235 3.98807015,16.9444288 4.0146602,16.9903322 C4.03233219,17.0224481 4.05005889,17.0539623 4.06887983,17.0855311 C4.09377381,17.1286989 4.11866779,17.1713196 4.14465601,17.2138856 C4.14580497,17.2161288 4.14744633,17.2183172 4.14854057,17.2205604 C2.80612591,16.8962822 1.54167591,16.3163892 0.414498428,15.5056662 C0.141102356,14.4786665 0,13.4089913 0,12.3177597 C0,9.02748689 1.28102775,5.93423219 3.60793088,3.60793088 C5.93423219,1.28102775 9.0275416,0 12.3178144,0 C13.409046,0 14.4786665,0.141102356 15.5056662,0.414443716 C16.3163892,1.54167591 16.8962822,2.8060712 17.2205604,4.14854057" id="Fill-31" fill="#FFFFFF" opacity="0.300000012"></path>
                                    <path d="M17.5243436,6.71059606 C17.5243436,9.05626543 16.7822842,11.2874225 15.409942,13.1378385 C15.2611253,13.3392882 15.1039376,13.5351573 14.9395826,13.7271966 C14.7553671,13.9441298 14.5610847,14.1538411 14.3574465,14.3574793 C14.0863483,14.6286322 13.8029946,14.8836997 13.509191,15.1216424 C13.31272,15.2815657 13.111325,15.4332275 12.9054436,15.5776125 C11.1026271,16.8426097 8.95889988,17.5243217 6.71061794,17.5243217 C5.95969517,17.5243217 5.22042606,17.4485455 4.50156455,17.299674 C3.84808392,16.009783 3.47954361,14.551707 3.47954361,13.009484 C3.47954361,7.75477538 7.75479726,3.47952172 13.0095059,3.47952172 C14.5517289,3.47952172 16.0098048,3.84806203 17.2996959,4.50159737 C17.4485674,5.22040418 17.5243436,5.95967329 17.5243436,6.71059606" id="Fill-33" fill="#FFFFFF" opacity="0.200000003"></path>
                                    <path d="M16.1052719,16.981819 C15.843803,16.981819 15.5823342,16.8820789 15.3827994,16.6825441 L8.49893027,9.79867501 C8.09991535,9.39966009 8.09991535,8.75279962 8.49893027,8.35378469 C8.89794519,7.95471506 9.54491508,7.95471506 9.94387529,8.35378469 L16.8277444,15.2376538 C17.2267593,15.6366687 17.2267593,16.2835292 16.8277444,16.6825441 C16.6282643,16.8820789 16.3667407,16.981819 16.1052719,16.981819" id="Fill-35" fill="#FFFFFF"></path>
                                    <path d="M9.22140825,16.981819 C8.95993941,16.981819 8.69841585,16.8820789 8.49893574,16.6825441 C8.09992082,16.2835292 8.09992082,15.6366687 8.49893574,15.2376538 L15.3828048,8.35378469 C15.7818198,7.95471506 16.4287349,7.95471506 16.8277499,8.35378469 C17.2267648,8.75279962 17.2267648,9.39966009 16.8277499,9.79867501 L9.94388076,16.6825441 C9.74440066,16.8820789 9.4828771,16.981819 9.22140825,16.981819" id="Fill-37" fill="#FFFFFF"></path>
                                </g>
                            </g>
                        </g>
                    </g>
                </g>
            </g>
        </g>
    </g>
</svg>