<?xml version="1.0" encoding="UTF-8"?>
<svg width="60px" height="60px" viewBox="0 0 60 60" version="1.1" xmlns="http://www.w3.org/2000/svg" xmlns:xlink="http://www.w3.org/1999/xlink">
    <title>ic_tick</title>
    <g id="Page-1" stroke="none" stroke-width="1" fill="none" fill-rule="evenodd">
        <g id="23_Urban-Money_Query-submitted-popup" transform="translate(-696.000000, -268.000000)" fill="#6DD400" fill-rule="nonzero">
            <g id="otp" transform="translate(543.000000, 150.000000)">
                <g id="Rooms" transform="translate(40.000000, 118.000000)">
                    <g id="title" transform="translate(11.000000, 0.000000)">
                        <g id="ic_tick" transform="translate(102.000000, 0.000000)">
                            <path d="M30,0 C13.4314575,0 0,13.4314575 0,30 C0,46.5685425 13.4314575,60 30,60 C46.5685425,60 60,46.5685425 60,30 C59.9814004,13.4391678 46.5608322,0.0185995671 30,0 Z M30,55 C16.1928813,55 5,43.8071187 5,30 C5,16.1928813 16.1928813,5 30,5 C43.8071187,5 55,16.1928813 55,30 C54.9843285,43.8006222 43.8006222,54.9843285 30,55 L30,55 Z" id="Shape"></path>
                            <path d="M40.6602381,20.5192671 L26.2675024,34.9120027 L18.817049,29.3240923 C17.8213766,28.577338 16.4088606,28.779126 15.6621063,29.7747984 C14.915352,30.7704708 15.11714,32.1829867 16.1128124,32.929741 L25.1269343,39.6903324 C26.0241083,40.3632494 27.2795646,40.2740456 28.0725803,39.4810358 L43.8472935,23.7063225 C44.4166061,23.1370099 44.638948,22.3072187 44.4305652,21.5295232 C44.2221823,20.7518276 43.6147329,20.1443783 42.8370374,19.9359954 C42.0593419,19.7276125 41.2295507,19.9499544 40.6602381,20.5192671 L40.6602381,20.5192671 Z" id="Path"></path>
                        </g>
                    </g>
                </g>
            </g>
        </g>
    </g>
</svg>