<svg width="130" height="130" viewBox="0 0 130 130" xmlns="http://www.w3.org/2000/svg" xmlns:xlink="http://www.w3.org/1999/xlink">
    <defs>
        <path id="e7lnwil2aa" d="M0 0h129.885v127.206H0z"/>
    </defs>
    <g fill="none" fill-rule="evenodd">
        <g>
            <mask id="j1vpxnlebb" fill="#fff">
                <use xlink:href="#e7lnwil2aa"/>
            </mask>
            <path d="M129.313 39.808C124.438 10.412 90.19-5.058 61 1.488 28.626 8.746 12.512 40.833 9.859 46.367.629 65.62-7.29 100.64 11.238 118.203c20.59 19.518 58.657 3.076 77.114-9.593 4.838-3.32 46.896-33.004 40.96-68.802" fill="#F6F7F8" mask="url(#j1vpxnlebb)"/>
        </g>
        <path d="M13.722 28.416a3.707 3.707 0 1 1-7.414 0 3.707 3.707 0 0 1 7.414 0" fill="#0075F2"/>
        <path d="M34.32 126.293a3.707 3.707 0 1 1-7.413 0 3.707 3.707 0 0 1 7.413 0M100.402 15.288a2.488 2.488 0 1 1-4.976 0 2.488 2.488 0 0 1 4.976 0" fill="#52D1BD"/>
        <path d="m98.26 121.97-55.395-8.774a3.42 3.42 0 0 1-2.843-3.913l12.09-76.336a3.42 3.42 0 0 1 3.913-2.843l55.395 8.773a3.42 3.42 0 0 1 2.843 3.913l-12.09 76.337a3.42 3.42 0 0 1-3.914 2.842" fill="#FFF"/>
        <path d="m102.172 119.127 12.09-76.337a3.42 3.42 0 0 0-2.842-3.913l-5.404-.855a3.42 3.42 0 0 1 2.842 3.912l-5.782 36.506a4.11 4.11 0 0 1-3.768 3.451c-10.367.761-19.256 8.567-20.95 19.268-1.092 6.891 1.026 13.562 5.242 18.489l14.66 2.321a3.42 3.42 0 0 0 3.912-2.842" fill="#E4E3E8" fill-rule="nonzero" opacity=".3"/>
        <path d="m61.744 42.09.642-4.054a1.368 1.368 0 0 1 1.565-1.137l37.83 5.992a1.368 1.368 0 0 1 1.138 1.565l-.642 4.053a1.368 1.368 0 0 1-1.565 1.137l-37.83-5.991a1.368 1.368 0 0 1-1.138-1.566" fill="#FFE07D" fill-rule="nonzero"/>
        <path d="m101.782 42.89-5.404-.855a1.368 1.368 0 0 1 1.137 1.565l-.642 4.053a1.368 1.368 0 0 1-1.565 1.137l5.404.856a1.368 1.368 0 0 0 1.565-1.137l.642-4.053a1.368 1.368 0 0 0-1.137-1.565" fill="#E9C553" fill-rule="nonzero"/>
        <path fill="#FE7AB6" d="m58.388 72.027 5.404.856.856-5.404-5.404-.856z"/>
        <path fill="#FFD15B" d="m69.196 73.74 5.405.855 1.551-9.795-5.404-.856z"/>
        <path fill="#528FD8" d="m80.005 75.451 5.404.856 2.568-16.213-5.404-.856z"/>
        <path fill="#A2E62E" d="m90.814 77.163 5.404.856 3.424-21.617-5.404-.856z"/>
        <path d="M118.214 107.471c-1.507 9.514-10.44 16.005-19.955 14.498-9.513-1.506-16.004-10.44-14.497-19.954 1.506-9.514 10.44-16.005 19.954-14.498 9.514 1.506 16.005 10.44 14.498 19.954" fill="#F46969" fill-rule="nonzero"/>
        <path d="M113.385 92.485a17.348 17.348 0 0 1 1.738 10.731c-1.505 9.5-10.456 16.003-19.955 14.498a17.349 17.349 0 0 1-9.669-4.968c2.465 4.755 7.076 8.323 12.76 9.223 9.499 1.505 18.45-4.999 19.955-14.498.9-5.684-1.068-11.172-4.83-14.986" fill="#FD8181" fill-rule="nonzero"/>
        <path d="m98.779 103.921-1.322-1.819a3.287 3.287 0 0 0-5.318 3.864l3.495 4.811a2.876 2.876 0 0 0 4.017.637l10.098-7.337a3.287 3.287 0 0 0-3.864-5.319l-7.106 5.163z" fill="#DFF6FD"/>
        <path stroke="#759EDD" stroke-width="1.8" stroke-linecap="round" stroke-linejoin="round" d="m107.094 88.052 5.314-33.555M42.413 94.185l9.7-61.24a3.419 3.419 0 0 1 3.913-2.841l55.394 8.773a3.418 3.418 0 0 1 2.842 3.912l-.927 5.857M41.486 100.036l-1.465 9.248a3.419 3.419 0 0 0 2.844 3.912l55.394 8.773"/>
        <path d="m61.744 42.09.642-4.054a1.368 1.368 0 0 1 1.565-1.137l37.83 5.992a1.368 1.368 0 0 1 1.138 1.565l-.642 4.053a1.368 1.368 0 0 1-1.565 1.137l-37.83-5.991a1.368 1.368 0 0 1-1.138-1.566z" stroke="#597AAD" stroke-width="1.6" stroke-linecap="round" stroke-linejoin="round"/>
        <path stroke="#000" stroke-width="1.6" stroke-linecap="round" stroke-linejoin="round" d="m58.388 72.027 5.404.856.856-5.404-5.404-.856zM69.196 73.74l5.405.855 1.551-9.795-5.404-.856zM80.005 75.451l5.404.856 2.568-16.213-5.404-.856zM90.814 77.163l5.404.856 3.424-21.617-5.404-.856z"/>
        <path stroke="#52D1BD" stroke-width="1.6" stroke-linecap="round" stroke-linejoin="round" d="M77.708 83.398 62.17 80.937"/>
        <path stroke="#CED9E1" stroke-width="1.6" stroke-linecap="round" stroke-linejoin="round" d="m57.104 80.134-3.378-.535M67.056 87.25l-17.564-2.782M76.852 88.801l-4.391-.695M75.996 94.206l-17.564-2.782M53.027 90.568l-4.391-.695M65.344 98.06 47.78 95.276M75.14 99.61l-4.391-.695"/>
        <path stroke="#000" stroke-width="1.6" stroke-linecap="round" stroke-linejoin="round" d="m102.974 79.09-51.342-8.133"/>
        <path d="M113.91 116.447a17.334 17.334 0 0 0 4.305-8.976c1.504-9.498-5-18.45-14.499-19.954-9.498-1.504-18.45 5-19.955 14.497-1.505 9.5 5 18.451 14.498 19.955 3.928.622 7.76-.125 11.012-1.887" stroke="#759EDD" stroke-width="1.8" stroke-linecap="round" stroke-linejoin="round"/>
    </g>
</svg>
