<svg width="127" height="128" viewBox="0 0 127 128" xmlns="http://www.w3.org/2000/svg" xmlns:xlink="http://www.w3.org/1999/xlink">
    <defs>
        <path id="jyc4c4pcna" d="M0 0h126.922v124.305H0z"/>
    </defs>
    <g fill="none" fill-rule="evenodd">
        <g>
            <mask id="9ma8yi8vqb" fill="#fff">
                <use xlink:href="#jyc4c4pcna"/>
            </mask>
            <path d="M126.363 38.9C121.6 10.174 88.133-4.943 59.609 1.453 27.973 8.547 12.226 39.903 9.634 45.31.614 64.124-7.123 98.345 10.98 115.506c20.121 19.074 57.32 3.007 75.355-9.373 4.728-3.245 45.827-32.252 40.027-67.233" fill="#F6F7F8" mask="url(#9ma8yi8vqb)"/>
        </g>
        <path d="M13.409 27.768a3.622 3.622 0 1 1-7.245 0 3.622 3.622 0 0 1 7.245 0" fill="#0075F2"/>
        <path d="M33.537 123.412a3.622 3.622 0 1 1-7.244 0 3.622 3.622 0 0 1 7.244 0M98.111 14.94a2.431 2.431 0 1 1-4.862 0 2.431 2.431 0 0 1 4.862 0" fill="#52D1BD"/>
        <path d="m114.413 58.84-32.794 60.283a3.76 3.76 0 0 1-5.1 1.506L37.2 99.239a3.76 3.76 0 0 1-1.506-5.1l32.794-60.282a3.76 3.76 0 0 1 5.1-1.507l39.32 21.39a3.76 3.76 0 0 1 1.506 5.1z" fill="#FFF" fill-rule="nonzero"/>
        <path d="M106.755 47.238 94.84 114.82a3.76 3.76 0 0 1-4.357 3.05l-44.08-7.772a3.76 3.76 0 0 1-3.051-4.357L55.268 38.16a3.76 3.76 0 0 1 4.356-3.05l44.08 7.773a3.76 3.76 0 0 1 3.051 4.356z" fill="#FFF"/>
        <path d="m106.75 47.233-11.918 67.588a3.753 3.753 0 0 1-4.348 3.044l-6.481-1.143c2.054.363 4.001-1 4.36-3.042l11.918-67.587a3.756 3.756 0 0 0-3.058-4.35l6.482 1.143a3.753 3.753 0 0 1 3.044 4.347z" fill="#E4E3E8" fill-rule="nonzero" opacity=".2"/>
        <g transform="rotate(10 -226.573 394.083)" fill-rule="nonzero">
            <path d="M24.541 13.4v6.786a2.474 2.474 0 0 1-2.474 2.474H6.116a2.474 2.474 0 0 1-2.474-2.474v-6.784l9.624-8.077c.478-.4 1.174-.4 1.652 0L24.54 13.4z" fill="#F7F5FB"/>
            <path d="M26.002 14.058c-.439 0-.863-.154-1.198-.437l-9.887-8.295a1.283 1.283 0 0 0-1.65 0L3.38 13.621a1.865 1.865 0 1 1-2.398-2.857L12.888.774c.336-.282.76-.437 1.199-.437h.01c.438 0 .863.155 1.199.437l11.906 9.99a1.865 1.865 0 0 1-1.2 3.294z" fill="#F46969"/>
            <rect fill="#FFEBB9" x="7.239" y="12.229" width="13.705" height="7.018" rx="2"/>
            <path fill="#E9986B" d="M12.663 19.247h2.857v3.413h-2.857z"/>
            <path d="M11.604 22.66H6.116a2.474 2.474 0 0 1-2.474-2.474v-6.185a28.264 28.264 0 0 0 7.962 8.66z" fill="#E4E3E8"/>
            <path d="m3.408 13.597-.029.025A1.866 1.866 0 0 1 .98 10.764l.76-.637a27.974 27.974 0 0 0 1.668 3.47z" fill="#D36E7F"/>
            <path d="M22.068 22.998H6.116a2.811 2.811 0 0 1-2.812-2.812v-.923a.337.337 0 0 1 .675 0v.924c0 1.18.957 2.136 2.137 2.136h15.952c1.18 0 2.136-.956 2.136-2.136v-6.63l-9.502-7.973a.947.947 0 0 0-1.218 0L3.98 13.558v3.072a.337.337 0 1 1-.675 0v-3.228c0-.1.044-.195.12-.259l9.623-8.076a1.62 1.62 0 0 1 2.085 0l9.624 8.075c.076.065.12.16.12.26v6.785a2.811 2.811 0 0 1-2.81 2.81z" fill="#000"/>
            <path d="M3.643 18.538a.337.337 0 0 1-.338-.338v-.506a.337.337 0 0 1 .675 0v.506a.337.337 0 0 1-.337.338zM26.002 14.395a2.205 2.205 0 0 1-1.415-.515L14.7 5.584a.947.947 0 0 0-1.218 0L3.597 13.88a2.202 2.202 0 0 1-2.832-3.374L12.67.516A2.206 2.206 0 0 1 14.087 0h.01c.518 0 1.019.183 1.416.516l11.905 9.99a2.202 2.202 0 0 1-1.417 3.89zm-11.91-9.708c.381 0 .75.135 1.042.38l9.887 8.296a1.53 1.53 0 0 0 2.419-.647 1.528 1.528 0 0 0-.455-1.695L15.079 1.032a1.531 1.531 0 0 0-.982-.357h-.01c-.36 0-.707.127-.982.357l-11.906 9.99a1.528 1.528 0 0 0 1.963 2.341l9.887-8.296c.292-.245.661-.38 1.043-.38z" fill="#000"/>
            <path d="M19.68 19.584H8.504a1.604 1.604 0 0 1-1.602-1.602v-4.49c.002-.883.718-1.599 1.602-1.6H19.68c.884.001 1.6.718 1.602 1.602v4.488c-.001.884-.718 1.601-1.602 1.602zM8.504 12.567a.928.928 0 0 0-.928.927v4.488c.001.512.416.927.928.927H19.68a.928.928 0 0 0 .927-.927v-4.49a.928.928 0 0 0-.927-.925H8.504z" fill="#000"/>
            <path d="M15.52 22.998h-2.857a.337.337 0 0 1-.337-.338v-3.413c0-.187.151-.338.337-.338h2.857c.186 0 .337.151.337.338v3.413a.337.337 0 0 1-.337.338zM13 22.323h2.183v-2.739H13v2.739z" fill="#000"/>
        </g>
        <path d="m113.412 52.815-6-3.26.377-2.135a4.816 4.816 0 0 0-3.902-5.573L88.13 39.07 74.09 31.437c-2.307-1.28-5.253-.438-6.532 1.922l-1.03 1.901-6.722-1.185a4.816 4.816 0 0 0-5.573 3.902l-5.19 29.427-14.264 26.23a4.798 4.798 0 0 0 1.923 6.53l5.991 3.258-.377 2.137a4.816 4.816 0 0 0 3.903 5.573l15.742 2.776 14.055 7.651a4.825 4.825 0 0 0 6.527-1.942l1.027-1.899 6.73 1.187a4.816 4.816 0 0 0 5.572-3.903l5.189-29.426 14.277-26.238a4.817 4.817 0 0 0-1.926-6.523zM69.407 34.36a2.694 2.694 0 0 1 3.674-1.08l8.54 4.642-12.91-2.276.696-1.286zM37.704 98.318a2.695 2.695 0 0 1-1.082-3.675L47.897 73.91l-4.82 27.331-5.373-2.922zm42.992 20.299a2.721 2.721 0 0 1-3.678 1.095l-8.56-4.658 12.932 2.28-.694 1.283zm9.969-1.78-44.081-7.773a2.713 2.713 0 0 1-2.199-3.14l11.917-67.582a2.713 2.713 0 0 1 3.14-2.199l44.08 7.773a2.713 2.713 0 0 1 2.198 3.14l-11.916 67.582a2.713 2.713 0 0 1-3.139 2.199zm22.828-58.502-11.286 20.741 4.82-27.34 5.383 2.924a2.72 2.72 0 0 1 1.083 3.675z" fill="#86ACE7"/>
        <path d="m89.3 79.244-33.685-5.94c-.499-.088-.985.304-1.086.875-.1.57.222 1.105.722 1.194l33.684 5.939c.5.088.986-.304 1.087-.875.1-.57-.223-1.105-.722-1.193z" fill="#52D1BD"/>
        <path d="m88.09 86.106-33.685-5.939c-.499-.088-.986.304-1.086.875-.1.57.222 1.105.721 1.193l33.685 5.94c.5.088.986-.304 1.087-.875.1-.57-.223-1.106-.722-1.194zM69.473 89.899l-16.148-2.847a1.05 1.05 0 0 0-.364 2.068l16.147 2.847a1.05 1.05 0 0 0 .365-2.068zM79.202 62.974l-6.023-1.062c-.213-.038-.445.27-.519.687-.073.417.04.785.253.823l6.023 1.062c.213.037.445-.27.519-.687.073-.417-.04-.786-.253-.823zM68.263 96.76l-16.148-2.847a1.05 1.05 0 0 0-.364 2.069l16.147 2.847a1.05 1.05 0 0 0 .365-2.069zM67.053 103.623l-16.148-2.847a1.05 1.05 0 0 0-.364 2.069l16.147 2.847a1.05 1.05 0 0 0 .365-2.069zM86.787 93.934c.01-.038.06-.094.112-.133.394.28.94.264 1.314-.07.433-.386.47-1.05.083-1.482-1.15-1.292-3.354-.308-3.588 1.393-.175 1.264.58 2.388.9 2.943 1.741 3.03.075 4.22-.652 3.843-.314-.171-.527-.636-.772-1.172-.283-.62-.603-1.322-1.225-1.858-2.034-1.755-5.198-.18-5.028 2.5.144 2.263 2.386 3.134 3.073 4.474.802 1.562-.795 3.125-2.147 2.68-1.21-.377-2.045-2.106-2.292-4.742a1.056 1.056 0 0 0-1.144-.949 1.052 1.052 0 0 0-.949 1.144c1.138 12.113 13.547 5.372 6.796-1.014-.645-.61-1.204-1.136-1.241-1.724-.035-.574.395-.835.528-.9 1.601-.808 1.516 2.386 3.4 3.406 2.49 1.356 6.404-1.627 3.477-6.733-.702-1.212-.673-1.407-.645-1.606z" fill="#094067" fill-rule="nonzero" opacity=".2"/>
    </g>
</svg>
