<svg width="130" height="130" viewBox="0 0 130 130" xmlns="http://www.w3.org/2000/svg" xmlns:xlink="http://www.w3.org/1999/xlink">
    <defs>
        <path id="fg3bqhxx4a" d="M0 0h129.885v127.206H0z"/>
    </defs>
    <g fill="none" fill-rule="evenodd">
        <g>
            <mask id="e8i0fhk3sb" fill="#fff">
                <use xlink:href="#fg3bqhxx4a"/>
            </mask>
            <path d="M129.313 39.808C124.438 10.412 90.19-5.058 61 1.488 28.626 8.746 12.512 40.833 9.859 46.367.629 65.62-7.29 100.64 11.238 118.203c20.59 19.518 58.657 3.076 77.114-9.593 4.838-3.32 46.896-33.004 40.96-68.802" fill="#F6F7F8" mask="url(#e8i0fhk3sb)"/>
        </g>
        <path d="M13.722 28.416a3.707 3.707 0 1 1-7.414 0 3.707 3.707 0 0 1 7.414 0" fill="#0075F2"/>
        <path d="M34.32 126.293a3.707 3.707 0 1 1-7.413 0 3.707 3.707 0 0 1 7.413 0M100.402 15.288a2.488 2.488 0 1 1-4.976 0 2.488 2.488 0 0 1 4.976 0" fill="#52D1BD"/>
        <path d="m104.187 38.063-42.414-7.48a5.011 5.011 0 0 0-5.806 4.066L43.1 107.628a5.011 5.011 0 0 0 4.065 5.805l55.305 9.752a5.011 5.011 0 0 0 5.805-4.065l10.595-60.09a5.011 5.011 0 0 0-.83-3.744l-10.617-15.163a5.01 5.01 0 0 0-3.235-2.06z" fill="#FFF"/>
        <path d="m118.04 55.286-7.473-10.672-12.81 72.652a5.011 5.011 0 0 1-5.806 4.065l10.518 1.854a5.011 5.011 0 0 0 5.805-4.065l10.595-60.09a5.012 5.012 0 0 0-.83-3.744z" fill="#E4E3E8" fill-rule="nonzero" opacity=".3"/>
        <path d="m118.04 55.286-10.618-15.163a5.01 5.01 0 0 0-1.268-1.257l-2.165 12.278a3.107 3.107 0 0 0 2.52 3.6l12.277 2.164a5.01 5.01 0 0 0-.747-1.622z" fill="#F46969" fill-rule="nonzero"/>
        <g>
            <g transform="rotate(10 -265.49 230.306)">
                <path fill="#4A80AA" fill-rule="nonzero" d="m35.38 39.243 3.854-3.854 8.073 8.073-3.854 3.854z"/>
                <path d="M59.615 53.33 48.074 41.79a1.694 1.694 0 0 0-2.395 0l-3.89 3.89a1.694 1.694 0 0 0 0 2.395L53.33 59.616a4.444 4.444 0 0 0 6.285-6.285z" fill="#52D1BD"/>
                <circle fill="#FFF" fill-rule="nonzero" cx="23.36" cy="23.36" r="23.36"/>
                <circle stroke="#E6EBF3" fill="#E8F1FF" cx="23.36" cy="23.36" r="18.298"/>
            </g>
            <g fill-rule="nonzero">
                <path d="M57.283 85.75a.923.923 0 0 1-.638-1.039l.715-4.159-6.355-1.092-.715 4.159a.923.923 0 0 1-.948.765s-1.88 3.8 3.281 4.688c5.16.888 4.66-3.323 4.66-3.323z" fill="#FFCBBE"/>
                <path d="M62.622 87.944c-1.342-.897-4.017-1.787-5.34-2.195l-.01.01c-2.475 2.179-6.332 1.51-7.93-1.375-1.383-.057-4.201-.113-5.766.284-1.626.414-2.755 1.744-3.06 3.294 5.72 7.3 16.033 9.15 23.93 4.316.331-1.718-.366-3.36-1.824-4.334z" fill="#365E7D"/>
                <g>
                    <path d="M61.428 67.895a1.842 1.842 0 0 0-1.494-2.134l-6.035-1.064a4.46 4.46 0 0 0-5.167 3.617l-.576 3.27 1.297 1.414 11.729 2.068 1.946-2.262.36-2.044a1.842 1.842 0 0 0-1.494-2.134l-.062-.01a.622.622 0 0 1-.504-.721z" fill="#4A80AA"/>
                    <path d="m63.128 72.804-2.83-.777a5.76 5.76 0 0 0-3.637.195 5.76 5.76 0 0 1-3.11.313l-5.395-.952-.46 2.606a.97.97 0 0 0 .787 1.124c.164.029.28.18.26.345a6.204 6.204 0 0 0 5.088 6.802 6.192 6.192 0 0 0 7.102-4.662.305.305 0 0 1 .351-.228l.016.003a.98.98 0 0 0 1.138-.8c.244-1.44.69-3.969.69-3.969z" fill="#FFDDCE"/>
                </g>
            </g>
        </g>
        <path d="M88.121 51.501 63.32 47.128a1.46 1.46 0 0 1-1.185-1.693l.845-4.791a1.46 1.46 0 0 1 1.692-1.185l24.803 4.373a1.46 1.46 0 0 1 1.184 1.693l-.844 4.791a1.46 1.46 0 0 1-1.693 1.185z" fill="#FFE07D" fill-rule="nonzero"/>
        <g>
            <path d="M108.398 70.983 86.84 67.182a1.27 1.27 0 0 0-.441 2.5l21.558 3.801a1.27 1.27 0 1 0 .44-2.5z" fill="#52D1BD"/>
            <path d="M107.069 78.52 85.51 74.719a1.27 1.27 0 0 0-.441 2.5l21.558 3.801a1.27 1.27 0 1 0 .44-2.5zM106.77 87.527a1.27 1.27 0 0 0-1.03-1.47l-21.558-3.801a1.27 1.27 0 0 0-.441 2.5l21.558 3.801a1.27 1.27 0 0 0 1.47-1.03zM82.853 89.793a1.27 1.27 0 0 0-.441 2.5l10.779 1.9a1.27 1.27 0 0 0 .44-2.5l-10.778-1.9z" fill="#094067" fill-rule="nonzero" opacity=".2"/>
            <path d="m119.08 54.558-10.617-15.162a6.281 6.281 0 0 0-4.055-2.584l-42.415-7.478a6.288 6.288 0 0 0-7.276 5.094l-2.257 12.8a1.27 1.27 0 0 0 2.5.44l2.257-12.799a3.746 3.746 0 0 1 4.335-3.035l42.415 7.479c.27.047.53.123.779.226l-2.007 11.385a4.381 4.381 0 0 0 3.55 5.07L117.671 58c.012.27-.006.543-.053.81L107.024 118.9a3.746 3.746 0 0 1-4.335 3.035l-16.795-2.961a5.723 5.723 0 0 0 .554-7.229l-9.362-13.37a2.965 2.965 0 0 0-2.948-1.214l-2.016-2.879c8.594-8.37 9.915-21.814 2.96-31.746-7.718-11.023-23.06-13.92-34.301-6.049-11.125 7.79-13.839 23.178-6.049 34.302 6.949 9.924 20.05 13.268 30.844 8.075l2.016 2.88c-.559.967-.549 2.211.133 3.185l8.66 12.368-29-5.114a3.746 3.746 0 0 1-3.036-4.335l.707-4.006a1.27 1.27 0 0 0-2.5-.441l-.707 4.007a6.288 6.288 0 0 0 5.095 7.276l55.304 9.751a6.288 6.288 0 0 0 7.276-5.094l10.596-60.09a6.292 6.292 0 0 0-1.04-4.693zM36.811 89.333c-6.987-9.978-4.553-23.78 5.425-30.766 10.105-7.076 23.857-4.443 30.766 5.425 6.434 9.188 4.973 21.726-3.397 29.165a22.416 22.416 0 0 1-4.226 2.959c-9.79 5.287-22.114 2.434-28.568-6.783zm31.011 8.302a24.981 24.981 0 0 0 2.38-1.667l1.696 2.422-2.386 1.67-1.696-2.422.006-.003zm11.344 19.208-9.362-13.37a.424.424 0 0 1 .104-.591l.02-.014 4.486-3.141a.425.425 0 0 1 .591.104l9.362 13.37a3.179 3.179 0 0 1-.78 4.422 3.173 3.173 0 0 1-4.421-.78zm26.072-65.478 1.71-9.704 9.483 13.543-9.702-1.71a1.84 1.84 0 0 1-1.491-2.13z" fill="#759EDD"/>
            <path d="M89.694 42.582 64.89 38.21a2.733 2.733 0 0 0-3.163 2.215l-.845 4.791a2.733 2.733 0 0 0 2.215 3.163l24.803 4.373a2.733 2.733 0 0 0 3.163-2.214l.845-4.792a2.734 2.734 0 0 0-2.215-3.163zm-1.13 7.514a.192.192 0 0 1-.222.155l-24.803-4.373a.192.192 0 0 1-.155-.222l.845-4.792a.192.192 0 0 1 .221-.155l24.803 4.374a.192.192 0 0 1 .155.221l-.844 4.792z" fill="#5B80B8"/>
        </g>
    </g>
</svg>
