<svg width="40" height="40" viewBox="0 0 40 40" fill="none" xmlns="http://www.w3.org/2000/svg">
    <path d="M37.344 0H23.525a.781.781 0 0 0 0 1.563h9.879a5.79 5.79 0 0 0 5.033 5.033v8.995a5.79 5.79 0 0 0-5.033 5.034H22.969v-3.854a6.395 6.395 0 0 0 3.437-5.677A6.413 6.413 0 0 0 20 4.688a6.413 6.413 0 0 0-6.406 6.406 6.4 6.4 0 0 0 3.438 5.678v3.853H6.596a5.79 5.79 0 0 0-5.034-5.034V6.596a5.79 5.79 0 0 0 5.034-5.034h9.898a.781.781 0 0 0 0-1.562H2.656A2.66 2.66 0 0 0 0 2.656v16.875a2.66 2.66 0 0 0 2.656 2.657h9.174a2.523 2.523 0 0 0 2.33 3.477h1.821a10.194 10.194 0 0 0-.902 4.189c0 1.442.315 2.894.91 4.209h-.203a.781.781 0 0 0-.782.78v4.376c0 .431.35.781.782.781h13.437c.431 0 .781-.35.781-.781v-4.375a.781.781 0 0 0-.78-.782h-.976l1.416-2.701a12.58 12.58 0 0 0 1.43-5.814v-3.36h6.25A2.66 2.66 0 0 0 40 19.532V2.656A2.66 2.66 0 0 0 37.344 0zm-2.362 1.563h2.362c.603 0 1.093.49 1.093 1.093v2.362a4.228 4.228 0 0 1-3.455-3.455zm-9.825 20.625v1.132a1.095 1.095 0 0 1-2.188 0v-1.133h2.188zm-10-11.094A4.85 4.85 0 0 1 20 6.25a4.85 4.85 0 0 1 4.844 4.844 4.836 4.836 0 0 1-2.183 4.049A2.972 2.972 0 0 0 20 13.49a2.971 2.971 0 0 0-2.66 1.653 4.84 4.84 0 0 1-2.185-4.05zm-12.5-9.531h2.361a4.228 4.228 0 0 1-3.455 3.455V2.656c0-.603.49-1.094 1.093-1.094zM1.561 19.53V17.17a4.228 4.228 0 0 1 3.456 3.456H2.656c-.603 0-1.094-.49-1.094-1.094zm11.642 3.614c0-.528.429-.957.957-.957h2.87v1.582l-.197.332h-2.673a.958.958 0 0 1-.957-.957zm15.238 15.293H16.567v-2.813h11.875v2.813zm1.09-12.891a11.01 11.01 0 0 1-1.252 5.089l-1.796 3.427h-8.77l-.255-.542a8.631 8.631 0 0 1 .395-8.08l.63-1.057a.782.782 0 0 0 .11-.4v-7.526c0-.775.631-1.406 1.406-1.406.776 0 1.407.631 1.407 1.406v6.862a2.66 2.66 0 0 0 2.656 2.657 2.66 2.66 0 0 0 2.656-2.657v-1.133h2.813v3.36zm7.812-4.922h-2.362a4.228 4.228 0 0 1 3.456-3.456v2.362c0 .603-.491 1.094-1.094 1.094z" fill="#9E1A22"/>
    <path d="M33.905 11.094c0-1.379-1.121-2.5-2.5-2.5a2.503 2.503 0 0 0-2.5 2.5c0 1.378 1.122 2.5 2.5 2.5 1.379 0 2.5-1.122 2.5-2.5zm-3.437 0a.939.939 0 0 1 1.875 0 .939.939 0 0 1-1.875 0zM6.095 11.094c0 1.378 1.121 2.5 2.5 2.5 1.378 0 2.5-1.122 2.5-2.5 0-1.379-1.122-2.5-2.5-2.5a2.503 2.503 0 0 0-2.5 2.5zm3.437 0a.938.938 0 0 1-1.875 0 .939.939 0 0 1 1.875 0zM20 1.563a.787.787 0 0 0 .552-.23.786.786 0 0 0 .23-.552.787.787 0 0 0-.23-.552A.787.787 0 0 0 20 0a.787.787 0 0 0-.552.229.787.787 0 0 0-.23.552.787.787 0 0 0 .781.781z" fill="#9E1A22"/>
</svg>
