<svg width="40" height="40" viewBox="0 0 40 40" fill="none" xmlns="http://www.w3.org/2000/svg">
    <path d="M37.36 7.071a2.641 2.641 0 0 0-2.638 2.639v6.638c0 1.2-.254 2.381-.735 3.464a3.07 3.07 0 0 0-4.867-.761l-3.073 3.023a9.875 9.875 0 0 0-2.932 6.998v3.751c-.781.087-1.39.75-1.39 1.553v4.062c0 .861.7 1.562 1.562 1.562H34.85c.862 0 1.562-.7 1.562-1.562v-4.062c0-.831-.651-1.51-1.47-1.558l.976-1.684a.781.781 0 0 0-1.352-.784l-1.428 2.463h-8.46v-3.741c0-2.198.899-4.343 2.466-5.884l3.073-3.023a1.506 1.506 0 0 1 2.294 1.927l-3.344 3.98a.781.781 0 0 0 1.195 1.005l3.256-3.862c.045-.054.088-.109.129-.165l.14-.166a10.12 10.12 0 0 0 2.398-6.536V9.71c0-.594.483-1.077 1.076-1.077.593 0 1.076.483 1.076 1.077v11.81c0 .96-.17 1.904-.508 2.805a.782.782 0 0 0 1.464.547 9.537 9.537 0 0 0 .606-3.352V9.71A2.641 2.641 0 0 0 37.36 7.07zM34.85 38.438l-11.562.001V34.376h11.561v4.062zM16.884 32.823v-3.751a9.876 9.876 0 0 0-2.933-6.998l-3.073-3.023a3.07 3.07 0 0 0-4.865.76 8.548 8.548 0 0 1-.736-3.463V9.71A2.641 2.641 0 0 0 2.639 7.07 2.641 2.641 0 0 0 0 9.71v11.81c0 1.688.449 3.352 1.297 4.81l3.761 6.488a1.563 1.563 0 0 0-1.471 1.558v4.062c0 .861.701 1.562 1.563 1.562H16.71c.862 0 1.563-.7 1.563-1.562v-4.062c0-.804-.61-1.466-1.39-1.553zM1.562 21.52V9.71a1.077 1.077 0 0 1 2.152 0v6.638c0 2.391.852 4.713 2.398 6.537l.147.173c.04.053.08.106.123.157l3.255 3.862a.781.781 0 1 0 1.195-1.007l-3.255-3.862a1.503 1.503 0 0 1 .383-2.264 1.506 1.506 0 0 1 1.822.221l3.074 3.023a8.303 8.303 0 0 1 2.466 5.884v3.741h-8.46l-4.214-7.266a8.02 8.02 0 0 1-1.086-4.027zm15.15 16.918H5.15v-4.062H16.71v4.062zM23.007 11.976c.3.281.767.281 1.067 0a4.39 4.39 0 0 1 3.008-1.188 4.39 4.39 0 0 1 3.008 1.188.78.78 0 0 0 1.315-.57C31.405 5.116 26.288 0 19.999 0 13.71 0 8.594 5.117 8.594 11.406a.78.78 0 0 0 1.314.57 4.39 4.39 0 0 1 3.008-1.188 4.39 4.39 0 0 1 3.008 1.188c.3.281.767.281 1.067 0a4.39 4.39 0 0 1 2.227-1.118v7.578a.782.782 0 0 1-1.562 0v-.117a.781.781 0 0 0-1.563 0v.117a2.346 2.346 0 0 0 2.344 2.344 2.346 2.346 0 0 0 2.344-2.344V10.86c.828.148 1.6.532 2.226 1.117zM20 1.69c.425 0 1.147.658 1.784 2.51.534 1.554.87 3.541.97 5.7A5.95 5.95 0 0 0 20 9.226a5.95 5.95 0 0 0-2.754.673c.1-2.159.436-4.146.97-5.7.638-1.852 1.36-2.51 1.784-2.51zm9.719 8.15a5.95 5.95 0 0 0-2.636-.613c-.974 0-1.92.236-2.765.679-.141-3.171-.773-6.209-1.87-8.035a9.873 9.873 0 0 1 7.27 7.969zm-19.437 0a9.873 9.873 0 0 1 7.271-7.969c-1.097 1.826-1.729 4.864-1.87 8.035a5.947 5.947 0 0 0-2.766-.679 5.95 5.95 0 0 0-2.635.613z" fill="#9E1A22"/>
    <path d="M36.977 26.904a.786.786 0 0 0-.552.23.788.788 0 0 0-.229.552.784.784 0 0 0 1.333.552.783.783 0 0 0-.552-1.334z" fill="#9E1A22"/>
</svg>
