<svg width="50" height="50" viewBox="0 0 50 50" fill="none" xmlns="http://www.w3.org/2000/svg">
<path d="M18.6533 39.6504C19.1923 39.6504 19.6299 39.2132 19.6299 38.6738C19.6299 38.1344 19.1923 37.6973 18.6533 37.6973H6.93457C6.39517 37.6973 5.95801 38.1344 5.95801 38.6738C5.95801 39.2132 6.39517 39.6504 6.93457 39.6504H18.6533Z" fill="black"/>
<path d="M49.3145 25.7248L38.4003 22.3175C38.3003 22.2836 38.1947 22.2652 38.0867 22.2652C38.0863 22.2652 38.0856 22.2652 38.0852 22.2652C37.9776 22.2652 37.8716 22.2836 37.772 22.3171L36.3201 22.7707V9.57031C36.3201 9.30061 36.2106 9.05647 36.034 8.87985L27.4403 0.286102C27.2636 0.1091 27.0195 0 26.7498 0H2.92969C1.31416 0 0 1.31416 0 2.92969V18.6523C0 19.1917 0.437164 19.6289 0.976562 19.6289C1.51596 19.6289 1.95312 19.1917 1.95312 18.6523V2.92969C1.95312 2.39105 2.39105 1.95312 2.92969 1.95312H25.7732V7.75146C25.7732 9.29298 27.0271 10.5469 28.5683 10.5469H34.367V23.3803L26.8574 25.7248C26.4496 25.8522 26.1719 26.2299 26.1719 26.6571V26.7559H6.93474C6.39534 26.7559 5.95818 27.1931 5.95818 27.7325C5.95818 28.2719 6.39534 28.709 6.93474 28.709H26.1719V32.2266H6.93474C6.39534 32.2266 5.95818 32.6637 5.95818 33.2031C5.95818 33.7425 6.39534 34.1797 6.93474 34.1797H26.1719V35.791C26.1719 38.8725 27.1507 41.7645 28.8357 44.1406H2.92969C2.39105 44.1406 1.95312 43.7027 1.95312 43.1641V27.4414C1.95312 26.902 1.51596 26.4648 0.976562 26.4648C0.437164 26.4648 0 26.902 0 27.4414V43.1641C0 44.7796 1.31416 46.0938 2.92969 46.0938H30.4974C32.4753 48.0396 35.0212 49.4305 37.9021 49.9825C37.9627 49.9943 38.0245 50 38.0859 50C38.1474 50 38.2092 49.9943 38.2698 49.9825C45.0668 48.6801 50 42.7116 50 35.791V26.6571C50 26.2299 49.7223 25.8522 49.3145 25.7248V25.7248ZM28.5683 8.59375C28.104 8.59375 27.7264 8.21609 27.7264 7.75146V3.33405L32.9857 8.59375H28.5683ZM48.0469 35.791C48.0469 41.7137 43.8694 46.83 38.0859 48.0278C32.3025 46.83 28.125 41.7137 28.125 35.791V27.3754L38.0859 24.2653L48.0469 27.3754V35.791Z" fill="black"/>
<path d="M37.7949 26.4023L30.7636 28.5976C30.3558 28.725 30.0781 29.1023 30.0781 29.5295V35.7906C30.0781 40.5239 33.2649 44.7048 37.8273 45.9575C37.912 45.9808 37.999 45.9923 38.0859 45.9923C38.1729 45.9923 38.2599 45.9808 38.3446 45.9575C42.907 44.7048 46.0938 40.5239 46.0938 35.791V29.5299C46.0938 29.1027 45.816 28.725 45.4082 28.5976L38.377 26.4023C38.1874 26.3431 37.9845 26.3431 37.7949 26.4023V26.4023ZM44.1406 30.2479V35.7906C44.1406 39.5569 41.6641 42.894 38.0859 43.9987C34.5078 42.894 32.0312 39.5569 32.0312 35.7906V30.2479L38.0859 28.3577L44.1406 30.2479Z" fill="black"/>
<path d="M35.6514 34.995C35.2699 34.6135 34.6519 34.6135 34.2705 34.995C33.889 35.3765 33.889 35.9948 34.2705 36.3759L36.5204 38.6262C36.7111 38.8169 36.961 38.9123 37.2108 38.9123C37.4607 38.9123 37.7106 38.8169 37.9013 38.6262L41.9014 34.6261C42.2829 34.2446 42.2829 33.6263 41.9014 33.2448C41.5199 32.8637 40.9019 32.8637 40.5201 33.2448L37.2108 36.5544L35.6514 34.995Z" fill="black"/>
<path d="M20.9971 9.56934H16.3096C15.7702 9.56934 15.333 10.0069 15.333 10.5459V13.4756H12.4033C11.8639 13.4756 11.4268 13.9131 11.4268 14.4521V19.1396C11.4268 19.679 11.8639 20.1162 12.4033 20.1162H15.333V23.0459C15.333 23.5853 15.7702 24.0225 16.3096 24.0225H20.9971C21.5361 24.0225 21.9736 23.5853 21.9736 23.0459V20.1162H24.9033C25.4423 20.1162 25.8799 19.679 25.8799 19.1396V14.4521C25.8799 13.9131 25.4423 13.4756 24.9033 13.4756H21.9736V10.5459C21.9736 10.0069 21.5361 9.56934 20.9971 9.56934V9.56934ZM23.9268 15.4287V18.1631H20.9971C20.4577 18.1631 20.0205 18.6006 20.0205 19.1396V22.0693H17.2861V19.1396C17.2861 18.6006 16.8486 18.1631 16.3096 18.1631H13.3799V15.4287H16.3096C16.8486 15.4287 17.2861 14.9915 17.2861 14.4521V11.5225H20.0205V14.4521C20.0205 14.9915 20.4577 15.4287 20.9971 15.4287H23.9268Z" fill="black"/>
<path d="M0.976562 24.0234C1.23329 24.0234 1.48544 23.9189 1.66702 23.7373C1.8486 23.5558 1.95312 23.3036 1.95312 23.0469C1.95312 22.7901 1.8486 22.538 1.66702 22.3564C1.48544 22.1748 1.23329 22.0703 0.976562 22.0703C0.719833 22.0703 0.467682 22.1748 0.286102 22.3564C0.104523 22.538 0 22.7901 0 23.0469C0 23.3036 0.104523 23.5558 0.286102 23.7373C0.467682 23.9189 0.719833 24.0234 0.976562 24.0234Z" fill="black"/>
</svg>
