<svg width="50" height="50" viewBox="0 0 50 50" fill="none" xmlns="http://www.w3.org/2000/svg">
<path d="M49.5935 30.5341L49.5818 30.5149C49.0483 29.7026 48.2338 29.1156 47.2944 28.8664C46.355 28.6172 45.3567 28.7232 44.4906 29.1642L39.151 31.8956C38.5119 30.9974 37.571 30.359 36.5002 30.0968C35.4294 29.8346 34.3 29.9661 33.3182 30.4674L26.5946 33.9138C26.2436 34.0941 25.8542 34.187 25.4596 34.1845C25.065 34.182 24.6768 34.0843 24.3281 33.8996L19.7451 31.4665C18.0108 30.5407 16.0538 30.1134 14.0913 30.2323C12.1289 30.3511 10.2377 31.0114 8.62773 32.1398L8.10944 29.6717C8.08687 29.5642 8.0433 29.4623 7.98123 29.3718C7.91916 29.2813 7.83981 29.2039 7.74775 29.1441C7.65569 29.0844 7.55272 29.0434 7.44477 29.0235C7.33681 29.0036 7.226 29.0053 7.11869 29.0284L0.657557 30.4224C0.442452 30.4688 0.254435 30.5984 0.134541 30.783C0.0146478 30.9675 -0.0273874 31.192 0.0176104 31.4074L3.7798 49.3334C3.81816 49.5213 3.92018 49.6902 4.06865 49.8117C4.21711 49.9331 4.40292 49.9996 4.59473 50C4.65353 49.9997 4.71215 49.9936 4.76972 49.9816L11.2342 48.5901C11.4496 48.5439 11.638 48.4142 11.7581 48.2295C11.8782 48.0448 11.9202 47.82 11.875 47.6043L11.5417 45.9995L13.7506 45.5245C14.3942 45.3873 15.0566 45.3619 15.7088 45.4495L26.0988 46.5886C28.2558 46.8743 30.4428 46.361 32.2474 45.1454L48.8902 33.9796C49.4345 33.6111 49.8128 33.0442 49.9442 32.4002C50.0757 31.7563 49.9498 31.0864 49.5935 30.5341V30.5341ZM5.23884 48.1718L1.81829 31.8773L6.65123 30.8357L10.0743 47.1311L5.23884 48.1718ZM47.9628 32.5981L31.3209 43.7638C29.8446 44.753 28.0574 45.168 26.2963 44.9304L15.9071 43.7913C15.071 43.6794 14.2219 43.7133 13.3973 43.8913L11.1959 44.3646L8.99937 33.9138L9.56849 33.5172C10.9276 32.5612 12.5253 32.0011 14.1838 31.899C15.8423 31.7969 17.4966 32.1569 18.9627 32.9389L23.5457 35.372C24.1311 35.6835 24.7833 35.8486 25.4465 35.8531C26.1097 35.8576 26.764 35.7014 27.3537 35.3979L34.0806 31.9473C34.7529 31.6037 35.5313 31.5313 36.2554 31.745C36.9795 31.9586 37.5939 32.4421 37.972 33.0955C38.0834 33.2868 38.1149 33.5143 38.0597 33.7286C38.0045 33.9429 37.867 34.1269 37.677 34.2405L28.4061 39.74C26.7849 40.7078 24.8532 41.0137 23.0124 40.5941L14.6497 38.5943L14.2623 40.2158L22.6332 42.2156C24.8927 42.7333 27.2648 42.3599 29.256 41.1732L38.5278 35.6737C38.9073 35.4456 39.2195 35.1209 39.4324 34.7326C39.6453 34.3443 39.7512 33.9065 39.7393 33.4638L45.2464 30.6458C45.7451 30.3925 46.3195 30.3314 46.8603 30.4742C47.4012 30.6169 47.8706 30.9535 48.1795 31.4199L48.1886 31.4349C48.3086 31.6204 48.352 31.8451 48.3099 32.0619C48.2678 32.2788 48.1434 32.4709 47.9628 32.5981V32.5981Z" fill="black"/>
<path d="M5.39421 32.8151L3.76318 33.1572L4.10501 34.7866L5.73603 34.4445L5.39421 32.8151Z" fill="black"/>
<path d="M15.8323 21.665C15.6113 21.665 15.3993 21.7528 15.2431 21.9091C15.0868 22.0654 14.999 22.2773 14.999 22.4983V27.4979C14.999 27.7189 15.0868 27.9308 15.2431 28.0871C15.3993 28.2434 15.6113 28.3312 15.8323 28.3312H19.1653C19.3863 28.3312 19.5983 28.2434 19.7546 28.0871C19.9108 27.9308 19.9986 27.7189 19.9986 27.4979V22.4983C19.9986 22.2773 19.9108 22.0654 19.7546 21.9091C19.5983 21.7528 19.3863 21.665 19.1653 21.665H15.8323ZM18.3321 26.6646H16.6656V23.3316H18.3321V26.6646Z" fill="black"/>
<path d="M23.3313 15.832C23.1103 15.832 22.8984 15.9198 22.7421 16.0761C22.5858 16.2324 22.498 16.4443 22.498 16.6653V27.4977C22.498 27.7187 22.5858 27.9307 22.7421 28.0869C22.8984 28.2432 23.1103 28.331 23.3313 28.331H26.6644C26.8854 28.331 27.0973 28.2432 27.2536 28.0869C27.4098 27.9307 27.4976 27.7187 27.4976 27.4977V16.6653C27.4976 16.4443 27.4098 16.2324 27.2536 16.0761C27.0973 15.9198 26.8854 15.832 26.6644 15.832H23.3313ZM25.8311 26.6645H24.1646V17.4986H25.8311V26.6645Z" fill="black"/>
<path d="M30.8308 18.332C30.6098 18.332 30.3979 18.4198 30.2416 18.5761C30.0853 18.7324 29.9976 18.9443 29.9976 19.1653V27.4979C29.9976 27.7189 30.0853 27.9309 30.2416 28.0871C30.3979 28.2434 30.6098 28.3312 30.8308 28.3312H34.1639C34.3849 28.3312 34.5968 28.2434 34.7531 28.0871C34.9094 27.9309 34.9971 27.7189 34.9971 27.4979V19.1653C34.9971 18.9443 34.9094 18.7324 34.7531 18.5761C34.5968 18.4198 34.3849 18.332 34.1639 18.332H30.8308ZM33.3306 26.6647H31.6641V19.9986H33.3306V26.6647Z" fill="black"/>
<path d="M38.3303 14.1655C38.1093 14.1655 37.8974 14.2533 37.7411 14.4096C37.5849 14.5659 37.4971 14.7778 37.4971 14.9988V27.4978C37.4971 27.7188 37.5849 27.9307 37.7411 28.087C37.8974 28.2432 38.1093 28.331 38.3303 28.331H41.6634C41.8844 28.331 42.0963 28.2432 42.2526 28.087C42.4089 27.9307 42.4967 27.7188 42.4967 27.4978V14.9988C42.4967 14.7778 42.4089 14.5659 42.2526 14.4096C42.0963 14.2533 41.8844 14.1655 41.6634 14.1655H38.3303ZM40.8301 26.6645H39.1636V15.8321H40.8301V26.6645Z" fill="black"/>
<path d="M15.832 8.67761L21.0757 13.9213C21.232 14.0776 21.4439 14.1653 21.6648 14.1653C21.8858 14.1653 22.0977 14.0776 22.2539 13.9213L31.664 4.51129L38.5742 11.4216C38.7305 11.5778 38.9424 11.6655 39.1634 11.6655C39.3843 11.6655 39.5962 11.5778 39.7525 11.4216L48.3293 2.84476V4.99959H49.9958V0.833264C49.9958 0.612269 49.908 0.400325 49.7517 0.244057C49.5955 0.0877901 49.3835 0 49.1625 0H44.9962V1.66653H47.151L39.1634 9.6542L32.2531 2.74394C32.0968 2.58773 31.8849 2.49997 31.664 2.49997C31.443 2.49997 31.2311 2.58773 31.0749 2.74394L21.6648 12.154L16.4211 6.91026C16.2648 6.75405 16.0529 6.66629 15.832 6.66629C15.611 6.66629 15.3991 6.75405 15.2428 6.91026L3.57715 18.576L4.75538 19.7542L15.832 8.67761Z" fill="black"/>
</svg>
