<svg width="30" height="30" viewBox="0 0 30 30" xmlns="http://www.w3.org/2000/svg">
    <g fill="none" fill-rule="evenodd">
        <path d="M15 0c8.284 0 15 6.716 15 15 0 8.284-6.716 15-15 15-8.284 0-15-6.716-15-15C0 6.716 6.716 0 15 0" fill="#FFF"/>
        <g fill-rule="nonzero">
            <path d="M16.465 10.28s1.437-1.865 1.024-2.4c-.14-.182-.26.065-.552.065-.343 0-.343-.224-.685-.224s-.342.224-.684.224c-.343 0-.343-.224-.685-.224s-.342.224-.684.224c-.292 0-.412-.25-.553-.068-.414.532 1.003 2.404 1.003 2.404-6.256 4.112-4.239 9.704-.546 9.704h2.93c3.704 0 5.708-5.579-.568-9.704z" fill="#EABC6B"/>
            <path d="M16.465 10.28s1.437-1.865 1.024-2.4c-.14-.182-.26.065-.552.065-.343 0-.343-.224-.685-.224s-.342.224-.684.224c-.017 0-.033 0-.048-.002-.137.59-.757 1.508-1.112 2 .14.205.24.338.24.338l-.245.165c5.976 4.108 3.977 9.539.322 9.539h2.307c3.705 0 5.709-5.579-.567-9.704z" fill="#E8AE4D"/>
            <path d="M16.732 10.944a5 5 0 0 1-2.495 0c-.291-.073-.456-.4-.351-.697 0-.004.002-.007.003-.01a.492.492 0 0 1 .58-.328 4.063 4.063 0 0 0 2.03 0 .492.492 0 0 1 .58.328l.004.01c.105.297-.06.624-.35.697z" fill="#FFE07D"/>
            <g>
                <path d="m8.88 20.945 3.18 1.183c.27.1.556.152.844.152h3.278c.46 0 .908-.13 1.296-.375l4.104-2.601a.72.72 0 0 0 .117-.944c-.223-.328-.591-.385-.997-.193l-3.996 1.76.005-.649a1.16 1.16 0 0 0-.992-1.034l-2.434-.28c-.561-.08-.842-.267-1.33-.554a4.361 4.361 0 0 0-2.203-.597h-.873v4.132z" fill="#FFDDCE"/>
                <path d="m8.88 20.945 3.18 1.183c.27.1.556.152.844.152h3.278c.46 0 .908-.13 1.296-.375l4.104-2.601a.72.72 0 0 0 .117-.944c-.223-.328-.591-.385-.997-.193l-3.996 1.76.005-.649a1.16 1.16 0 0 0-.992-1.034l-2.434-.28c-.561-.08-.842-.267-1.33-.554a4.361 4.361 0 0 0-2.203-.597h-.873v4.132z" fill="#FFDDCE"/>
                <path d="M21.7 18.36c-.223-.328-.592-.385-.998-.193l-1.1.484.096.152a.72.72 0 0 1-.117.944l-2.391 1.515a2.42 2.42 0 0 1-1.008.22h-3.278a2.42 2.42 0 0 1-.844-.152l-3.18-1.184v.799l3.18 1.183c.27.101.556.152.844.152h3.279c.458 0 .907-.13 1.295-.375l4.104-2.601a.72.72 0 0 0 .117-.944z" fill="#FFCBBE"/>
                <path d="M16.436 18.627v.053l.034-.015c-.01-.013-.023-.025-.034-.038z" fill="#F5DBCC"/>
                <path d="M9.564 21.578c0 .23-.187.418-.418.418H8.138a.418.418 0 0 1-.418-.418v-5.117c0-.23.187-.417.418-.417h1.008c.23 0 .418.187.418.417v5.117z" fill="#407093"/>
            </g>
            <g fill="#000">
                <path d="M21.881 18.236c-.28-.41-.754-.511-1.27-.269l-.273.12c.43-.918.484-1.942.27-2.909-.247-1.11-.842-2.186-1.77-3.198a.22.22 0 1 0-.323.297c.874.954 1.434 1.962 1.664 2.996.241 1.09.1 2.214-.516 3.112l-2.735 1.204.003-.309c0-.008 0-.016-.002-.023a1.377 1.377 0 0 0-1.185-1.231l-2.43-.28c-.935-.133-1.176-.693-2.442-1.012-.087-.742.03-1.533.349-2.325.481-1.193 1.423-2.352 2.728-3.36.486.345 2.656.387 3.142-.057.249.189.486.383.707.58a.219.219 0 0 0 .31-.018.22.22 0 0 0-.018-.31c-.242-.216-.503-.429-.776-.635a.782.782 0 0 0-.263-.78c.688-1.043.888-1.725.612-2.083-.19-.246-.426-.13-.527-.081-.17.083-.264.088-.421-.015a.79.79 0 0 0-.925 0c-.16.104-.285.104-.444 0a.79.79 0 0 0-.925 0c-.16.104-.253.097-.421.014-.1-.05-.337-.168-.528.078-.27.348-.09 1.01.552 2.017a.715.715 0 0 0-.111.075c-.256-.27-.674-.55-1.278-.483a1.61 1.61 0 0 1-1.093-.259.22.22 0 0 0-.245.365c.283.19.753.401 1.387.33.467-.052.784.187.98.43a.743.743 0 0 0-.007.028 3.77 3.77 0 0 0-.696.076c-.666.138-1.16.455-1.43.915a.22.22 0 0 0 .38.222c.4-.685 1.378-.768 1.766-.774l.006.015c-1.386 1.069-2.351 2.261-2.87 3.546-.327.812-.458 1.625-.391 2.399a4.572 4.572 0 0 0-.638-.05v-.133a.638.638 0 0 0-.638-.637H8.138a.638.638 0 0 0-.638.637v5.117c0 .351.286.637.638.637h1.008a.638.638 0 0 0 .638-.637v-.063l2.2.82c.295.11.605.165.92.165h3.278c.502 0 .99-.142 1.413-.41 4.373-2.772 4.108-2.6 4.133-2.622a.942.942 0 0 0 .153-1.232zm-5.203-7.505a4.762 4.762 0 0 1-2.388 0c-.344-.087-.244-.702.126-.609.719.18 1.418.18 2.137 0 .364-.091.476.52.125.61zM13.8 8.055l.005.002c.298.148.558.156.857-.04.375-.245.415.148.907.148a.763.763 0 0 0 .462-.148c.16-.104.285-.104.444 0 .3.197.555.187.86.04.046.163-.056.648-.708 1.618-.323-.005-.793.312-2.122.017-.65-.983-.75-1.473-.705-1.637zm7.65 11.074-4.089 2.59c-.353.224-.76.342-1.178.342h-3.278c-.262 0-.52-.047-.767-.138l-2.353-.876V18.68a.22.22 0 1 0-.44 0v2.897c0 .11-.089.198-.198.198H8.138a.198.198 0 0 1-.199-.198v-5.117c0-.109.09-.198.199-.198h1.008c.11 0 .198.09.198.198v1.193a.22.22 0 1 0 .44 0v-.62c1.817.014 2.225.972 3.47 1.148h.006l2.43.28c.426.062.754.4.801.827l-.003.418h-2.267a.22.22 0 0 0 0 .44h2.485c.028 0 .06-.007.088-.019l3.997-1.76c.287-.127.549-.146.727.116a.502.502 0 0 1-.07.645z"/>
                <path d="M15.542 17.467a.22.22 0 0 0 .22-.22v-.363c.617-.1.977-.6 1.055-1.065.098-.582-.207-1.088-.776-1.29-.101-.035-.194-.069-.279-.102v-1.4c.26.043.416.177.427.187a.22.22 0 0 0 .297-.324 1.362 1.362 0 0 0-.724-.307v-.313a.22.22 0 1 0-.44 0v.33a1.062 1.062 0 0 0-.89.874c-.068.365.048.716.303.916.146.115.33.22.588.332v1.738c-.254-.01-.41-.059-.684-.237a.22.22 0 1 0-.24.368c.358.234.598.295.924.308v.349c0 .121.098.22.22.22zm-.536-3.423c-.126-.098-.18-.285-.142-.488.036-.189.165-.417.422-.495l.037-.01v1.187a1.853 1.853 0 0 1-.317-.194zm.888.9c.547.193.513.663.49.802a.856.856 0 0 1-.622.689v-1.539l.132.048z"/>
            </g>
        </g>
        <path d="M6 13.113a7.113 7.113 0 1 0 14.226 0 7.113 7.113 0 0 0-14.226 0" fill="#E9EAEB"/>
        <path d="M16.742 11.226a2.323 2.323 0 1 1-4.645 0 2.323 2.323 0 0 1 4.645 0" fill="#A3D4FF"/>
        <path d="M16.742 11.226a2.323 2.323 0 1 1-4.645 0 2.323 2.323 0 0 1 4.645 0z" stroke="#2A5082" stroke-linecap="round"/>
        <path d="M14.42 12.968c-.913 0-2.468.332-3.471.966-1.016-.833-2.338-.96-2.54-.707-.17.215.364 1.148.729 1.782-.522.354-.943.86-1.211 1.462-.32.15-.724.23-1.312.226-.509-.004-.28 1.407.188 2.299.427.814 3.186 2.49 3.552 2.554l.29 2.45h.871l.669-1.464c.68.209 1.754.303 2.525.303.854 0 1.754-.018 2.592-.273L18.194 24h.87l.56-2.802c.905-.866 1.473-1.922 1.473-3.295 0-2.747-3.278-4.935-6.678-4.935" fill="#FFF"/>
        <path d="M11.476 14.471c-1.007-1.304-2.828-1.545-3.067-1.244-.17.215.364 1.148.729 1.782-.522.354-.942.86-1.211 1.462-.32.15-.724.23-1.312.226-.51-.003-.28 1.407.188 2.299.427.814 3.186 2.49 3.552 2.554l.29 2.45h.871l.67-1.464c.678.21 1.753.303 2.524.303.854 0 1.754-.018 2.592-.273L18.194 24h.87l.56-2.802c.905-.866 1.473-1.922 1.473-3.295 0-2.747-3.278-4.935-6.678-4.935-.912 0-2.474.325-3.478.96M9.484 16.452h.581M21.097 17.613l.617-.306c.2-.145.474-.044.55.204.086.279.414.362.606.154l.259-.28" stroke="#2A5082" stroke-linecap="round"/>
        <path d="M13.258 15.871a.87.87 0 1 0 0 1.742.87.87 0 0 0 0-1.742zM16.161 19.935h0a.87.87 0 1 1 0-1.741.87.87 0 0 1 0 1.741zM12.968 19.935l3.484-4.064" stroke="#2A5082" stroke-linecap="round"/>
        <path stroke="#BCC0C4" d="m8.903 10.065-.58.58M10.355 8.613l-.581.581M9.774 10.065l.581.58M8.323 8.613l.58.581M21.968 12.968v.58M21.968 14.129v.581M21.677 13.839h-.58M22.839 13.839h-.581M19.935 10.065v.58M19.935 11.226v.58M19.645 10.935h-.58M20.806 10.935h-.58"/>
    </g>
</svg>
