<svg width="16" height="16" viewBox="0 0 16 16" xmlns="http://www.w3.org/2000/svg">
    <g fill="#E02020" fill-rule="nonzero">
        <path d="M13.644 2.273A8.042 8.042 0 0 0 2.273 13.644a8.053 8.053 0 0 0 8 2.018.785.785 0 0 0-.452-1.505A6.475 6.475 0 0 1 1.488 7.96a6.478 6.478 0 0 1 6.47-6.471 6.478 6.478 0 0 1 6.472 6.47 6.442 6.442 0 0 1-1.059 3.55.785.785 0 0 0 1.313.863 8.044 8.044 0 0 0-1.04-10.098z"/>
        <path d="M7.173 4.126v4.995a.785.785 0 1 0 1.571 0V4.126a.785.785 0 0 0-1.57 0zM7.959 12.576a.785.785 0 1 1 0-1.57.785.785 0 0 1 0 1.57z"/>
    </g>
</svg>
