<svg width="51" height="50" viewBox="0 0 51 50" fill="none" xmlns="http://www.w3.org/2000/svg">
<path d="M4.32881 45.0042H5.99542V46.6595C5.98224 47.5383 6.32445 48.3852 6.94455 49.0085C7.57306 49.6465 8.43267 50.0041 9.32863 50.0002H36.8276C38.6685 50.0002 40.1608 48.509 40.1608 46.6695V36.6775C40.1608 36.2176 39.7877 35.8448 39.3275 35.8448C38.8673 35.8448 38.4942 36.2176 38.4942 36.6775V46.6695C38.4942 47.5893 37.748 48.3349 36.8276 48.3349H9.32863C8.87803 48.337 8.44575 48.1568 8.13034 47.8353C7.82291 47.5259 7.65396 47.1054 7.66202 46.6695V45.0042H31.8278C33.6687 45.0042 35.161 43.513 35.161 41.6735V38.5593C35.161 38.0994 34.7879 37.7266 34.3277 37.7266C33.8675 37.7266 33.4944 38.0994 33.4944 38.5593V41.6735C33.4944 42.5932 32.7482 43.3388 31.8278 43.3388H4.32881C3.40837 43.3388 2.66221 42.5932 2.66221 41.6735V3.37072C2.66221 2.45097 3.40837 1.70538 4.32881 1.70538H31.8278C32.7482 1.70538 33.4944 2.45097 33.4944 3.37072V10.0321C33.4944 10.4919 33.8675 10.8647 34.3277 10.8647C34.7879 10.8647 35.161 10.4919 35.161 10.0321V3.37072C35.161 1.53123 33.6687 0.0400391 31.8278 0.0400391H4.32881C2.48793 0.0400391 0.995605 1.53123 0.995605 3.37072V41.6735C0.995605 43.513 2.48793 45.0042 4.32881 45.0042Z" fill="black"/>
<path d="M5.16192 5.03564C4.7017 5.03564 4.32861 5.40844 4.32861 5.86831V13.3623C4.32861 13.8222 4.7017 14.195 5.16192 14.195H8.49512C8.95534 14.195 9.32843 13.8222 9.32843 13.3623C9.32843 12.9025 8.95534 12.5297 8.49512 12.5297H5.99522V5.86831C5.99522 5.40844 5.62214 5.03564 5.16192 5.03564Z" fill="black"/>
<path d="M16.828 9.61533C16.828 7.04737 15.3639 5.03564 13.4948 5.03564C11.6257 5.03564 10.1616 7.04737 10.1616 9.61533C10.1616 12.1833 11.6257 14.195 13.4948 14.195C15.3639 14.195 16.828 12.1833 16.828 9.61533ZM11.8282 9.61533C11.8282 7.89836 12.7065 6.70098 13.4948 6.70098C14.2831 6.70098 15.1614 7.89836 15.1614 9.61533C15.1614 11.3323 14.2831 12.5297 13.4948 12.5297C12.7065 12.5297 11.8282 11.3331 11.8282 9.61533Z" fill="black"/>
<path d="M21.7857 5.60538C21.6733 5.26368 21.354 5.03271 20.9941 5.03271C20.6341 5.03271 20.3148 5.26368 20.2024 5.60538L17.7025 13.0994C17.5571 13.5363 17.7936 14.0082 18.2309 14.1536C18.6681 14.2989 19.1404 14.0625 19.2858 13.6257L19.6516 12.5299H22.3382L22.704 13.6257C22.7981 13.9083 23.0359 14.1193 23.3279 14.1791C23.6199 14.239 23.9216 14.1387 24.1195 13.916C24.3174 13.6933 24.3814 13.382 24.2873 13.0994L21.7857 5.60538ZM20.2066 10.8645L20.9949 8.50141L21.7832 10.8645H20.2066Z" fill="black"/>
<path d="M27.6612 13.3625V9.08172L30.2661 13.7672C30.4132 14.0313 30.6919 14.1952 30.9944 14.1951C31.065 14.1953 31.1353 14.1863 31.2036 14.1685C31.5711 14.0733 31.8277 13.7419 31.8277 13.3625V5.86845C31.8277 5.40858 31.4547 5.03578 30.9944 5.03578C30.5342 5.03578 30.1611 5.40858 30.1611 5.86845V10.1492L27.5562 5.46378C27.3717 5.13219 26.9863 4.96715 26.6187 5.06239C26.2512 5.15762 25.9946 5.48907 25.9946 5.86845V13.3625C25.9946 13.8223 26.3677 14.1951 26.8279 14.1951C27.2882 14.1951 27.6612 13.8223 27.6612 13.3625V13.3625Z" fill="black"/>
<path d="M5.16192 20.0237H15.9948C16.4551 20.0237 16.8281 19.6509 16.8281 19.1911C16.8281 18.7312 16.4551 18.3584 15.9948 18.3584H5.16192C4.7017 18.3584 4.32861 18.7312 4.32861 19.1911C4.32861 19.6509 4.7017 20.0237 5.16192 20.0237Z" fill="black"/>
<path d="M5.16192 24.1873H15.9948C16.4551 24.1873 16.8281 23.8145 16.8281 23.3546C16.8281 22.8948 16.4551 22.522 15.9948 22.522H5.16192C4.7017 22.522 4.32861 22.8948 4.32861 23.3546C4.32861 23.8145 4.7017 24.1873 5.16192 24.1873Z" fill="black"/>
<path d="M5.16192 28.3504H15.9948C16.4551 28.3504 16.8281 27.9776 16.8281 27.5177C16.8281 27.0579 16.4551 26.6851 15.9948 26.6851H5.16192C4.7017 26.6851 4.32861 27.0579 4.32861 27.5177C4.32861 27.9776 4.7017 28.3504 5.16192 28.3504Z" fill="black"/>
<path d="M19.3286 19.1911C19.3286 19.6509 19.7017 20.0237 20.1619 20.0237H27.945C28.4052 20.0237 28.7783 19.6509 28.7783 19.1911C28.7783 18.7312 28.4052 18.3584 27.945 18.3584H20.1619C19.7017 18.3584 19.3286 18.7312 19.3286 19.1911V19.1911Z" fill="black"/>
<path d="M20.1619 24.1873H23.3951C23.8553 24.1873 24.2284 23.8145 24.2284 23.3546C24.2284 22.8948 23.8553 22.522 23.3951 22.522H20.1619C19.7017 22.522 19.3286 22.8948 19.3286 23.3546C19.3286 23.8145 19.7017 24.1873 20.1619 24.1873Z" fill="black"/>
<path d="M20.1619 28.3504H23.5535C24.0137 28.3504 24.3868 27.9776 24.3868 27.5177C24.3868 27.0579 24.0137 26.6851 23.5535 26.6851H20.1619C19.7017 26.6851 19.3286 27.0579 19.3286 27.5177C19.3286 27.9776 19.7017 28.3504 20.1619 28.3504Z" fill="black"/>
<path d="M5.16192 32.514H15.9948C16.4551 32.514 16.8281 32.1412 16.8281 31.6813C16.8281 31.2214 16.4551 30.8486 15.9948 30.8486H5.16192C4.7017 30.8486 4.32861 31.2214 4.32861 31.6813C4.32861 32.1412 4.7017 32.514 5.16192 32.514Z" fill="black"/>
<path d="M25.8867 31.6813C25.8867 31.2214 25.5136 30.8486 25.0534 30.8486H20.1619C19.7017 30.8486 19.3286 31.2214 19.3286 31.6813C19.3286 32.1412 19.7017 32.514 20.1619 32.514H25.0534C25.5136 32.514 25.8867 32.1412 25.8867 31.6813Z" fill="black"/>
<path d="M5.9959 39.1754H8.60664C9.36566 39.1779 10.0601 38.7491 10.3974 38.0696C10.4544 37.9403 10.5908 37.865 10.7307 37.8856C10.8705 37.8933 10.9889 37.9913 11.0224 38.1271L11.1699 38.6408C11.3788 39.3939 12.0121 39.9532 12.7856 40.068C12.8907 40.0846 12.9968 40.0929 13.1031 40.093C13.7706 40.0942 14.3935 39.7588 14.7597 39.2012L15.7189 37.764C15.7804 37.6698 15.8854 37.613 15.998 37.613C16.1106 37.613 16.2156 37.6698 16.2772 37.764L16.6238 38.2853C16.9952 38.8421 17.6208 39.1762 18.2904 39.1754H20.9953C21.4556 39.1754 21.8286 38.8026 21.8286 38.3427C21.8286 37.8829 21.4556 37.5101 20.9953 37.5101H18.2871C18.1752 37.5102 18.0706 37.4543 18.0088 37.361L17.6621 36.8439C17.2916 36.2858 16.6658 35.9502 15.9955 35.9502C15.3252 35.9502 14.6995 36.2858 14.3289 36.8439L13.3706 38.2778C13.2991 38.3882 13.1693 38.4463 13.0392 38.4259C12.9092 38.4056 12.8033 38.3107 12.769 38.1837L12.6223 37.6699C12.3972 36.8755 11.7062 36.3012 10.8834 36.2247C10.0607 36.1481 9.2755 36.5851 8.90746 37.3244C8.85101 37.4387 8.73421 37.5108 8.60664 37.5101H5.9959C5.53568 37.5101 5.1626 37.8829 5.1626 38.3427C5.1626 38.8026 5.53568 39.1754 5.9959 39.1754V39.1754Z" fill="black"/>
<path d="M24.3279 39.1753H28.9261H28.9394C29.2982 39.1747 29.6433 39.0381 29.9052 38.7931C31.8027 37.0445 35.6975 34.0927 40.4648 33.9952C41.2225 33.9921 41.8451 33.3967 41.8814 32.6405C41.8964 32.3341 42.2806 25.099 44.3813 21.1646L50.8978 8.94106C51.0377 8.67839 51.0267 8.36107 50.869 8.10865C50.7114 7.85622 50.4309 7.70704 50.1332 7.71729C49.8356 7.72754 49.5661 7.89568 49.4262 8.15836L43.3022 19.6492L40.1407 17.9672L35.9492 15.7348L43.6605 1.26386C43.8203 1.00014 43.8212 0.669807 43.6628 0.405252C43.5044 0.140697 43.2128 -0.0147879 42.9047 0.0011127C42.5966 0.0170133 42.3225 0.201697 42.1923 0.481147L34.0851 15.6824C31.9851 19.6192 26.1895 23.9691 25.9437 24.1523C25.3374 24.6052 25.1911 25.4526 25.6104 26.0824C28.2778 30.2391 27.8278 35.4524 27.5086 37.5099H24.3279C23.8677 37.5099 23.4946 37.8827 23.4946 38.3426C23.4946 38.8025 23.8677 39.1753 24.3279 39.1753V39.1753ZM27.117 25.353C28.1103 24.5927 32.8351 20.8757 35.1359 17.1928L39.994 19.7741L42.5456 21.1338C40.7665 25.0957 40.3107 31.0901 40.2332 32.3391C36.8279 32.5623 33.5655 33.7904 30.8594 35.8679L33.5543 30.7578C35.195 31.1661 36.8834 30.2908 37.4942 28.7153C38.105 27.1399 37.4473 25.3564 35.9596 24.5536C34.4719 23.7508 32.6187 24.1794 31.6353 25.5537C30.6519 26.9281 30.8454 28.8189 32.0868 29.966L29.4111 35.0303C29.617 31.6491 28.8189 28.2825 27.117 25.353V25.353ZM33.5443 28.9876C32.9495 28.6709 32.6041 28.0273 32.6692 27.357C32.7343 26.6867 33.1971 26.1215 33.8417 25.925C33.9993 25.8774 34.163 25.853 34.3276 25.8526C35.0211 25.8531 35.6419 26.2827 35.8862 26.9314C36.1305 27.58 35.9472 28.3121 35.426 28.7693C34.9048 29.2266 34.1547 29.3135 33.5426 28.9876H33.5443Z" fill="black"/>
</svg>
