<svg width="132" height="128" viewBox="0 0 132 128" xmlns="http://www.w3.org/2000/svg">
    <g fill="#1B8BC8" fill-rule="evenodd" opacity=".2">
        <path d="M4 2a2 2 0 1 1-4 0 2 2 0 0 1 4 0M16 2a2 2 0 1 1-4 0 2 2 0 0 1 4 0M27 2a2 2 0 1 1-4 0 2 2 0 0 1 4 0M39 2a2 2 0 1 1-4 0 2 2 0 0 1 4 0M50 2a2 2 0 1 1-4 0 2 2 0 0 1 4 0M4 13a2 2 0 1 1-4 0 2 2 0 0 1 4 0M16 13a2 2 0 1 1-4 0 2 2 0 0 1 4 0M27 13a2 2 0 1 1-4 0 2 2 0 0 1 4 0M39 13a2 2 0 1 1-4 0 2 2 0 0 1 4 0M50 13a2 2 0 1 1-4 0 2 2 0 0 1 4 0M4 25.5c0 1.38-.895 2.5-2 2.5s-2-1.12-2-2.5S.895 23 2 23s2 1.12 2 2.5M16 25.5c0 1.38-.895 2.5-2 2.5s-2-1.12-2-2.5.895-2.5 2-2.5 2 1.12 2 2.5M27 25.5c0 1.38-.895 2.5-2 2.5s-2-1.12-2-2.5.895-2.5 2-2.5 2 1.12 2 2.5M39 25.5c0 1.38-.895 2.5-2 2.5s-2-1.12-2-2.5.895-2.5 2-2.5 2 1.12 2 2.5M50 25.5c0 1.38-.895 2.5-2 2.5s-2-1.12-2-2.5.895-2.5 2-2.5 2 1.12 2 2.5M4 36.5c0 1.38-.895 2.5-2 2.5s-2-1.12-2-2.5S.895 34 2 34s2 1.12 2 2.5M16 36.5c0 1.38-.895 2.5-2 2.5s-2-1.12-2-2.5.895-2.5 2-2.5 2 1.12 2 2.5M27 36.5c0 1.38-.895 2.5-2 2.5s-2-1.12-2-2.5.895-2.5 2-2.5 2 1.12 2 2.5M39 36.5c0 1.38-.895 2.5-2 2.5s-2-1.12-2-2.5.895-2.5 2-2.5 2 1.12 2 2.5M50 36.5c0 1.38-.895 2.5-2 2.5s-2-1.12-2-2.5.895-2.5 2-2.5 2 1.12 2 2.5M4 48a2 2 0 1 1-4 0 2 2 0 0 1 4 0M16 48a2 2 0 1 1-4 0 2 2 0 0 1 4 0M27 48a2 2 0 1 1-4 0 2 2 0 0 1 4 0M39 48a2 2 0 1 1-4 0 2 2 0 0 1 4 0M50 48a2 2 0 1 1-4 0 2 2 0 0 1 4 0M4 59a2 2 0 1 1-4 0 2 2 0 0 1 4 0M16 59a2 2 0 1 1-4 0 2 2 0 0 1 4 0M27 59a2 2 0 1 1-4 0 2 2 0 0 1 4 0M39 59a2 2 0 1 1-4 0 2 2 0 0 1 4 0M50 59a2 2 0 1 1-4 0 2 2 0 0 1 4 0M62 2a2 2 0 1 1-4 0 2 2 0 0 1 4 0M62 13a2 2 0 1 1-4 0 2 2 0 0 1 4 0M62 25.5c0 1.38-.895 2.5-2 2.5s-2-1.12-2-2.5.895-2.5 2-2.5 2 1.12 2 2.5M62 36.5c0 1.38-.895 2.5-2 2.5s-2-1.12-2-2.5.895-2.5 2-2.5 2 1.12 2 2.5M62 48a2 2 0 1 1-4 0 2 2 0 0 1 4 0M62 59a2 2 0 1 1-4 0 2 2 0 0 1 4 0"/>
        <g>
            <path d="M4 69a2 2 0 1 1-4 0 2 2 0 0 1 4 0M16 69a2 2 0 1 1-4 0 2 2 0 0 1 4 0M27 69a2 2 0 1 1-4 0 2 2 0 0 1 4 0M39 69a2 2 0 1 1-4 0 2 2 0 0 1 4 0M50 69a2 2 0 1 1-4 0 2 2 0 0 1 4 0M4 80a2 2 0 1 1-4 0 2 2 0 0 1 4 0M16 80a2 2 0 1 1-4 0 2 2 0 0 1 4 0M27 80a2 2 0 1 1-4 0 2 2 0 0 1 4 0M39 80a2 2 0 1 1-4 0 2 2 0 0 1 4 0M50 80a2 2 0 1 1-4 0 2 2 0 0 1 4 0M4 92.5c0 1.38-.895 2.5-2 2.5s-2-1.12-2-2.5S.895 90 2 90s2 1.12 2 2.5M16 92.5c0 1.38-.895 2.5-2 2.5s-2-1.12-2-2.5.895-2.5 2-2.5 2 1.12 2 2.5M27 92.5c0 1.38-.895 2.5-2 2.5s-2-1.12-2-2.5.895-2.5 2-2.5 2 1.12 2 2.5M39 92.5c0 1.38-.895 2.5-2 2.5s-2-1.12-2-2.5.895-2.5 2-2.5 2 1.12 2 2.5M50 92.5c0 1.38-.895 2.5-2 2.5s-2-1.12-2-2.5.895-2.5 2-2.5 2 1.12 2 2.5M4 103.5c0 1.38-.895 2.5-2 2.5s-2-1.12-2-2.5.895-2.5 2-2.5 2 1.12 2 2.5M16 103.5c0 1.38-.895 2.5-2 2.5s-2-1.12-2-2.5.895-2.5 2-2.5 2 1.12 2 2.5M27 103.5c0 1.38-.895 2.5-2 2.5s-2-1.12-2-2.5.895-2.5 2-2.5 2 1.12 2 2.5M39 103.5c0 1.38-.895 2.5-2 2.5s-2-1.12-2-2.5.895-2.5 2-2.5 2 1.12 2 2.5M50 103.5c0 1.38-.895 2.5-2 2.5s-2-1.12-2-2.5.895-2.5 2-2.5 2 1.12 2 2.5M4 115a2 2 0 1 1-4 0 2 2 0 0 1 4 0M16 115a2 2 0 1 1-4 0 2 2 0 0 1 4 0M27 115a2 2 0 1 1-4 0 2 2 0 0 1 4 0M39 115a2 2 0 1 1-4 0 2 2 0 0 1 4 0M50 115a2 2 0 1 1-4 0 2 2 0 0 1 4 0M4 126a2 2 0 1 1-4 0 2 2 0 0 1 4 0M16 126a2 2 0 1 1-4 0 2 2 0 0 1 4 0M27 126a2 2 0 1 1-4 0 2 2 0 0 1 4 0M39 126a2 2 0 1 1-4 0 2 2 0 0 1 4 0M50 126a2 2 0 1 1-4 0 2 2 0 0 1 4 0M62 69a2 2 0 1 1-4 0 2 2 0 0 1 4 0M62 80a2 2 0 1 1-4 0 2 2 0 0 1 4 0M62 92.5c0 1.38-.895 2.5-2 2.5s-2-1.12-2-2.5.895-2.5 2-2.5 2 1.12 2 2.5M62 103.5c0 1.38-.895 2.5-2 2.5s-2-1.12-2-2.5.895-2.5 2-2.5 2 1.12 2 2.5M62 115a2 2 0 1 1-4 0 2 2 0 0 1 4 0M62 126a2 2 0 1 1-4 0 2 2 0 0 1 4 0"/>
        </g>
        <g>
            <path d="M74 2a2 2 0 1 1-4 0 2 2 0 0 1 4 0M86 2a2 2 0 1 1-4 0 2 2 0 0 1 4 0M97 2a2 2 0 1 1-4 0 2 2 0 0 1 4 0M109 2a2 2 0 1 1-4 0 2 2 0 0 1 4 0M120 2a2 2 0 1 1-4 0 2 2 0 0 1 4 0M74 13a2 2 0 1 1-4 0 2 2 0 0 1 4 0M86 13a2 2 0 1 1-4 0 2 2 0 0 1 4 0M97 13a2 2 0 1 1-4 0 2 2 0 0 1 4 0M109 13a2 2 0 1 1-4 0 2 2 0 0 1 4 0M120 13a2 2 0 1 1-4 0 2 2 0 0 1 4 0M74 25.5c0 1.38-.895 2.5-2 2.5s-2-1.12-2-2.5.895-2.5 2-2.5 2 1.12 2 2.5M86 25.5c0 1.38-.895 2.5-2 2.5s-2-1.12-2-2.5.895-2.5 2-2.5 2 1.12 2 2.5M97 25.5c0 1.38-.895 2.5-2 2.5s-2-1.12-2-2.5.895-2.5 2-2.5 2 1.12 2 2.5M109 25.5c0 1.38-.895 2.5-2 2.5s-2-1.12-2-2.5.895-2.5 2-2.5 2 1.12 2 2.5M120 25.5c0 1.38-.895 2.5-2 2.5s-2-1.12-2-2.5.895-2.5 2-2.5 2 1.12 2 2.5M74 36.5c0 1.38-.895 2.5-2 2.5s-2-1.12-2-2.5.895-2.5 2-2.5 2 1.12 2 2.5M86 36.5c0 1.38-.895 2.5-2 2.5s-2-1.12-2-2.5.895-2.5 2-2.5 2 1.12 2 2.5M97 36.5c0 1.38-.895 2.5-2 2.5s-2-1.12-2-2.5.895-2.5 2-2.5 2 1.12 2 2.5M109 36.5c0 1.38-.895 2.5-2 2.5s-2-1.12-2-2.5.895-2.5 2-2.5 2 1.12 2 2.5M120 36.5c0 1.38-.895 2.5-2 2.5s-2-1.12-2-2.5.895-2.5 2-2.5 2 1.12 2 2.5M74 48a2 2 0 1 1-4 0 2 2 0 0 1 4 0M86 48a2 2 0 1 1-4 0 2 2 0 0 1 4 0M97 48a2 2 0 1 1-4 0 2 2 0 0 1 4 0M109 48a2 2 0 1 1-4 0 2 2 0 0 1 4 0M120 48a2 2 0 1 1-4 0 2 2 0 0 1 4 0M74 59a2 2 0 1 1-4 0 2 2 0 0 1 4 0M86 59a2 2 0 1 1-4 0 2 2 0 0 1 4 0M97 59a2 2 0 1 1-4 0 2 2 0 0 1 4 0M109 59a2 2 0 1 1-4 0 2 2 0 0 1 4 0M120 59a2 2 0 1 1-4 0 2 2 0 0 1 4 0M132 2a2 2 0 1 1-4 0 2 2 0 0 1 4 0M132 13a2 2 0 1 1-4 0 2 2 0 0 1 4 0M132 25.5c0 1.38-.895 2.5-2 2.5s-2-1.12-2-2.5.895-2.5 2-2.5 2 1.12 2 2.5M132 36.5c0 1.38-.895 2.5-2 2.5s-2-1.12-2-2.5.895-2.5 2-2.5 2 1.12 2 2.5M132 48a2 2 0 1 1-4 0 2 2 0 0 1 4 0M132 59a2 2 0 1 1-4 0 2 2 0 0 1 4 0"/>
        </g>
        <g>
            <path d="M74 69a2 2 0 1 1-4 0 2 2 0 0 1 4 0M86 69a2 2 0 1 1-4 0 2 2 0 0 1 4 0M97 69a2 2 0 1 1-4 0 2 2 0 0 1 4 0M109 69a2 2 0 1 1-4 0 2 2 0 0 1 4 0M120 69a2 2 0 1 1-4 0 2 2 0 0 1 4 0M74 80a2 2 0 1 1-4 0 2 2 0 0 1 4 0M86 80a2 2 0 1 1-4 0 2 2 0 0 1 4 0M97 80a2 2 0 1 1-4 0 2 2 0 0 1 4 0M109 80a2 2 0 1 1-4 0 2 2 0 0 1 4 0M120 80a2 2 0 1 1-4 0 2 2 0 0 1 4 0M74 92.5c0 1.38-.895 2.5-2 2.5s-2-1.12-2-2.5.895-2.5 2-2.5 2 1.12 2 2.5M86 92.5c0 1.38-.895 2.5-2 2.5s-2-1.12-2-2.5.895-2.5 2-2.5 2 1.12 2 2.5M97 92.5c0 1.38-.895 2.5-2 2.5s-2-1.12-2-2.5.895-2.5 2-2.5 2 1.12 2 2.5M109 92.5c0 1.38-.895 2.5-2 2.5s-2-1.12-2-2.5.895-2.5 2-2.5 2 1.12 2 2.5M120 92.5c0 1.38-.895 2.5-2 2.5s-2-1.12-2-2.5.895-2.5 2-2.5 2 1.12 2 2.5M74 103.5c0 1.38-.895 2.5-2 2.5s-2-1.12-2-2.5.895-2.5 2-2.5 2 1.12 2 2.5M86 103.5c0 1.38-.895 2.5-2 2.5s-2-1.12-2-2.5.895-2.5 2-2.5 2 1.12 2 2.5M97 103.5c0 1.38-.895 2.5-2 2.5s-2-1.12-2-2.5.895-2.5 2-2.5 2 1.12 2 2.5M109 103.5c0 1.38-.895 2.5-2 2.5s-2-1.12-2-2.5.895-2.5 2-2.5 2 1.12 2 2.5M120 103.5c0 1.38-.895 2.5-2 2.5s-2-1.12-2-2.5.895-2.5 2-2.5 2 1.12 2 2.5M74 115a2 2 0 1 1-4 0 2 2 0 0 1 4 0M86 115a2 2 0 1 1-4 0 2 2 0 0 1 4 0M97 115a2 2 0 1 1-4 0 2 2 0 0 1 4 0M109 115a2 2 0 1 1-4 0 2 2 0 0 1 4 0M120 115a2 2 0 1 1-4 0 2 2 0 0 1 4 0M74 126a2 2 0 1 1-4 0 2 2 0 0 1 4 0M86 126a2 2 0 1 1-4 0 2 2 0 0 1 4 0M97 126a2 2 0 1 1-4 0 2 2 0 0 1 4 0M109 126a2 2 0 1 1-4 0 2 2 0 0 1 4 0M120 126a2 2 0 1 1-4 0 2 2 0 0 1 4 0M132 69a2 2 0 1 1-4 0 2 2 0 0 1 4 0M132 80a2 2 0 1 1-4 0 2 2 0 0 1 4 0M132 92.5c0 1.38-.895 2.5-2 2.5s-2-1.12-2-2.5.895-2.5 2-2.5 2 1.12 2 2.5M132 103.5c0 1.38-.895 2.5-2 2.5s-2-1.12-2-2.5.895-2.5 2-2.5 2 1.12 2 2.5M132 115a2 2 0 1 1-4 0 2 2 0 0 1 4 0M132 126a2 2 0 1 1-4 0 2 2 0 0 1 4 0"/>
        </g>
    </g>
</svg>
