<svg width="107" height="65" viewBox="0 0 107 65" fill="none" xmlns="http://www.w3.org/2000/svg">
    <path d="M3.129 56.681A46.731 46.731 0 0 1 16.876 23.59 47.004 47.004 0 0 1 50.064 9.882 47.003 47.003 0 0 1 83.25 23.589a46.731 46.731 0 0 1 13.747 33.092h-7.04a39.722 39.722 0 0 0-11.685-28.128 39.953 39.953 0 0 0-28.21-11.651 39.953 39.953 0 0 0-28.21 11.651A39.721 39.721 0 0 0 10.17 56.681h-7.04z" fill="#E3E3E3"/>
    <path d="M0 56.94a49.587 49.587 0 0 1 14.587-35.115A49.876 49.876 0 0 1 49.803 7.28v7.45a42.395 42.395 0 0 0-29.934 12.362A42.149 42.149 0 0 0 7.47 56.94H0z" fill="#F25950"/>
    <path d="M95.826 37.961a49.535 49.535 0 0 1 3.78 18.675l-7.471.045a42.106 42.106 0 0 0-3.213-15.873l6.904-2.847z" fill="#81CB46"/>
    <path d="M68.867 11.063a49.813 49.813 0 0 1 16.156 10.766l-5.283 5.267a42.34 42.34 0 0 0-13.733-9.152l2.86-6.881z" fill="#F1E46B"/>
    <path d="M49.803 7.28c6.54 0 13.017 1.285 19.059 3.78l-2.859 6.882a42.438 42.438 0 0 0-16.2-3.213V7.28z" fill="#FDAD64"/>
    <path d="M85.02 21.825a49.65 49.65 0 0 1 10.795 16.11l-6.902 2.851a42.203 42.203 0 0 0-9.176-13.694l5.282-5.267z" fill="#A5DA7C"/>
    <path d="M58.407 56.68c0-2.206-.879-4.322-2.444-5.883a8.356 8.356 0 0 0-5.9-2.437 8.356 8.356 0 0 0-5.9 2.437 8.308 8.308 0 0 0-2.444 5.883h16.688z" fill="#222"/>
    <path d="m79.99 45.874-30.07 10.72-1.42-5.426 31.49-5.294zM.764 61.68h.257c.127 0 .23-.021.313-.063a.43.43 0 0 0 .186-.174.502.502 0 0 0 .062-.25.621.621 0 0 0-.055-.275.366.366 0 0 0-.164-.168.6.6 0 0 0-.277-.057.578.578 0 0 0-.27.06.444.444 0 0 0-.246.427H.21c0-.145.036-.276.11-.395a.787.787 0 0 1 .306-.283.97.97 0 0 1 .46-.105c.173 0 .323.03.452.091.129.06.23.15.3.27a.844.844 0 0 1 .108.443.68.68 0 0 1-.205.457.796.796 0 0 1-.27.174c-.11.044-.243.066-.398.066H.764v-.218zm0 .297v-.217h.308c.181 0 .331.021.45.064a.71.71 0 0 1 .279.172c.069.072.117.15.144.236a.865.865 0 0 1-.025.607.721.721 0 0 1-.19.263.811.811 0 0 1-.285.162c-.11.036-.228.054-.357.054-.124 0-.24-.017-.35-.052a.904.904 0 0 1-.287-.153.713.713 0 0 1-.265-.586h.36a.457.457 0 0 0 .252.434c.083.04.18.06.29.06.11 0 .206-.018.285-.056a.41.41 0 0 0 .186-.176.592.592 0 0 0 .066-.295.522.522 0 0 0-.074-.29.436.436 0 0 0-.211-.17.817.817 0 0 0-.319-.057H.764zm3.507-.346v.434c0 .233-.02.43-.062.59-.042.16-.102.288-.18.386a.684.684 0 0 1-.283.213c-.11.043-.233.064-.371.064-.11 0-.21-.013-.303-.04a.718.718 0 0 1-.25-.131.793.793 0 0 1-.187-.239 1.278 1.278 0 0 1-.12-.355 2.56 2.56 0 0 1-.04-.488v-.434c0-.233.02-.428.062-.586.043-.158.104-.284.182-.379A.662.662 0 0 1 3 60.459c.11-.042.234-.063.371-.063.11 0 .212.014.305.041a.688.688 0 0 1 .435.358c.052.095.092.212.12.35.027.138.04.3.04.486zm-.363.492v-.553c0-.127-.008-.24-.023-.336a1.055 1.055 0 0 0-.065-.25.495.495 0 0 0-.11-.168.385.385 0 0 0-.15-.093.539.539 0 0 0-.189-.032.513.513 0 0 0-.228.05.411.411 0 0 0-.168.15.81.81 0 0 0-.102.271 2.027 2.027 0 0 0-.035.408v.553c0 .128.007.24.021.338.016.098.039.182.069.254.03.07.066.128.11.174a.41.41 0 0 0 .148.101.55.55 0 0 0 .189.032.505.505 0 0 0 .232-.051.42.42 0 0 0 .166-.158.824.824 0 0 0 .102-.28c.022-.114.033-.251.033-.41zm2.613-.492v.434c0 .233-.02.43-.062.59-.042.16-.102.288-.18.386a.684.684 0 0 1-.283.213c-.11.043-.233.064-.371.064-.11 0-.21-.013-.303-.04a.718.718 0 0 1-.25-.131.793.793 0 0 1-.187-.239 1.278 1.278 0 0 1-.12-.355 2.56 2.56 0 0 1-.04-.488v-.434c0-.233.02-.428.062-.586.043-.158.104-.284.182-.379a.662.662 0 0 1 .281-.207c.11-.042.234-.063.371-.063.11 0 .212.014.305.041a.688.688 0 0 1 .435.358c.052.095.092.212.12.35.027.138.04.3.04.486zm-.363.492v-.553c0-.127-.008-.24-.023-.336a1.055 1.055 0 0 0-.065-.25.495.495 0 0 0-.11-.168.385.385 0 0 0-.15-.093.539.539 0 0 0-.189-.032.513.513 0 0 0-.228.05.411.411 0 0 0-.168.15.81.81 0 0 0-.102.271 2.027 2.027 0 0 0-.035.408v.553c0 .128.007.24.021.338.016.098.039.182.069.254.03.07.066.128.11.174a.41.41 0 0 0 .148.101.55.55 0 0 0 .189.032.505.505 0 0 0 .232-.051.42.42 0 0 0 .166-.158.824.824 0 0 0 .102-.28c.022-.114.033-.251.033-.41zM94.335 62.51c0 .173-.04.32-.121.441a.758.758 0 0 1-.325.274 1.083 1.083 0 0 1-.459.093c-.17 0-.324-.03-.46-.093a.758.758 0 0 1-.325-.274.787.787 0 0 1-.119-.441c0-.113.022-.217.065-.31a.753.753 0 0 1 .185-.249.852.852 0 0 1 .285-.162c.11-.039.233-.059.365-.059.175 0 .33.034.467.102a.795.795 0 0 1 .323.275.7.7 0 0 1 .119.403zm-.364-.008a.558.558 0 0 0-.068-.28.484.484 0 0 0-.191-.19.579.579 0 0 0-.286-.07.575.575 0 0 0-.287.07.477.477 0 0 0-.185.19.571.571 0 0 0-.067.28c0 .11.022.203.065.281a.45.45 0 0 0 .187.178c.082.04.18.06.291.06a.64.64 0 0 0 .29-.06c.08-.042.142-.101.185-.178a.561.561 0 0 0 .066-.281zm.297-1.326a.662.662 0 0 1-.11.373.76.76 0 0 1-.298.261.94.94 0 0 1-.43.096.96.96 0 0 1-.435-.096.745.745 0 0 1-.297-.261.672.672 0 0 1-.107-.373c0-.166.035-.306.107-.422a.712.712 0 0 1 .299-.266.978.978 0 0 1 .431-.091c.163 0 .308.03.434.091.126.062.225.15.297.266.073.116.11.256.11.422zm-.361.006a.511.511 0 0 0-.06-.252.444.444 0 0 0-.169-.172.476.476 0 0 0-.25-.065.5.5 0 0 0-.25.06.42.42 0 0 0-.166.169.542.542 0 0 0-.058.26c0 .097.02.183.058.255a.43.43 0 0 0 .168.17.5.5 0 0 0 .25.061.49.49 0 0 0 .248-.06.43.43 0 0 0 .168-.17.52.52 0 0 0 .06-.256zm1.342.744-.29-.074.143-1.416h1.46v.334h-1.153l-.086.773c.052-.03.118-.058.197-.084a.9.9 0 0 1 .278-.04c.131 0 .249.024.353.07a.726.726 0 0 1 .266.19.85.85 0 0 1 .17.301c.039.118.058.248.058.393 0 .137-.019.262-.056.377a.847.847 0 0 1-.166.3.747.747 0 0 1-.282.198c-.112.047-.244.07-.396.07-.115 0-.224-.015-.326-.046a.84.84 0 0 1-.274-.147.79.79 0 0 1-.195-.246.987.987 0 0 1-.094-.348h.344a.673.673 0 0 0 .094.27.46.46 0 0 0 .183.166.617.617 0 0 0 .268.055.551.551 0 0 0 .228-.045.456.456 0 0 0 .168-.13.578.578 0 0 0 .104-.203.899.899 0 0 0 0-.517.574.574 0 0 0-.112-.201.487.487 0 0 0-.177-.133.57.57 0 0 0-.243-.049.612.612 0 0 0-.275.049 1.05 1.05 0 0 0-.19.133zm3.578-.295v.434c0 .233-.021.43-.063.59-.041.16-.101.288-.18.386a.683.683 0 0 1-.283.213c-.109.043-.233.064-.37.064-.11 0-.211-.013-.303-.04a.717.717 0 0 1-.25-.131.794.794 0 0 1-.188-.239 1.276 1.276 0 0 1-.119-.355 2.555 2.555 0 0 1-.041-.488v-.434c0-.233.02-.428.062-.586a1.01 1.01 0 0 1 .182-.379.662.662 0 0 1 .281-.207c.111-.042.235-.063.371-.063.111 0 .213.014.305.041a.687.687 0 0 1 .436.358c.052.095.091.212.119.35.027.138.04.3.04.486zm-.364.492v-.553c0-.127-.007-.24-.023-.336a1.051 1.051 0 0 0-.064-.25.495.495 0 0 0-.11-.168.386.386 0 0 0-.15-.093.54.54 0 0 0-.19-.032.513.513 0 0 0-.228.05.411.411 0 0 0-.168.15.811.811 0 0 0-.102.271 2.022 2.022 0 0 0-.035.408v.553c0 .128.007.24.022.338.015.098.038.182.068.254.03.07.066.128.11.174a.41.41 0 0 0 .148.101c.057.021.12.032.19.032a.505.505 0 0 0 .232-.051.42.42 0 0 0 .166-.158.825.825 0 0 0 .101-.28c.022-.114.033-.251.033-.41zM46.585 2.646l-.29-.074.143-1.416h1.46v.334h-1.153l-.086.774a.902.902 0 0 1 .475-.123c.131 0 .249.022.353.068a.724.724 0 0 1 .266.191.85.85 0 0 1 .17.301c.039.117.058.248.058.393 0 .136-.019.262-.056.377a.847.847 0 0 1-.166.3.747.747 0 0 1-.282.198c-.112.047-.244.07-.396.07-.115 0-.223-.016-.326-.047a.839.839 0 0 1-.274-.146.793.793 0 0 1-.195-.246.99.99 0 0 1-.094-.348h.344a.674.674 0 0 0 .094.27.46.46 0 0 0 .183.166.618.618 0 0 0 .268.054.55.55 0 0 0 .228-.045.455.455 0 0 0 .168-.129.578.578 0 0 0 .104-.203.9.9 0 0 0 0-.517.573.573 0 0 0-.112-.202.487.487 0 0 0-.177-.132.57.57 0 0 0-.242-.05.613.613 0 0 0-.276.05 1.052 1.052 0 0 0-.19.132zm3.18-1.494h.03v.307h-.03c-.192 0-.352.031-.481.094a.786.786 0 0 0-.307.248c-.075.103-.13.219-.164.347-.032.13-.049.26-.049.393v.418c0 .126.015.238.045.336.03.096.071.178.123.244.052.066.111.117.176.15a.508.508 0 0 0 .43.004.471.471 0 0 0 .164-.134.62.62 0 0 0 .104-.207.923.923 0 0 0 .035-.262.945.945 0 0 0-.032-.244.65.65 0 0 0-.095-.211.46.46 0 0 0-.39-.201.56.56 0 0 0-.282.074.64.64 0 0 0-.213.191.515.515 0 0 0-.094.256l-.191-.002c.018-.146.052-.27.101-.373a.797.797 0 0 1 .188-.254.71.71 0 0 1 .252-.144.932.932 0 0 1 .664.033.727.727 0 0 1 .254.215.896.896 0 0 1 .146.3 1.22 1.22 0 0 1-.008.719.89.89 0 0 1-.17.309.765.765 0 0 1-.275.207.916.916 0 0 1-.38.074.827.827 0 0 1-.403-.094.863.863 0 0 1-.285-.254 1.16 1.16 0 0 1-.17-.351 1.392 1.392 0 0 1-.057-.393v-.17c0-.2.02-.397.06-.59.041-.192.11-.367.21-.523.1-.156.239-.28.416-.373.177-.092.403-.139.677-.139zm2.648 1.2v.433c0 .233-.02.43-.063.59-.041.16-.101.29-.18.387a.684.684 0 0 1-.282.213c-.11.043-.234.064-.372.064-.109 0-.21-.014-.302-.04a.718.718 0 0 1-.25-.132.794.794 0 0 1-.188-.238 1.28 1.28 0 0 1-.119-.356 2.565 2.565 0 0 1-.041-.488v-.433c0-.234.02-.429.063-.586.042-.158.103-.284.181-.38a.66.66 0 0 1 .281-.206c.111-.042.235-.063.372-.063.11 0 .212.014.304.041a.689.689 0 0 1 .436.358c.052.095.091.211.119.35.027.137.04.3.04.486zm-.363.492V2.29c0-.128-.008-.24-.024-.336a1.052 1.052 0 0 0-.064-.25.495.495 0 0 0-.11-.168.386.386 0 0 0-.15-.094.54.54 0 0 0-.19-.03.513.513 0 0 0-.228.048.41.41 0 0 0-.168.15.812.812 0 0 0-.102.272 2.022 2.022 0 0 0-.035.408v.553c0 .127.008.24.022.338.015.097.038.182.068.254.03.07.067.128.11.173a.41.41 0 0 0 .148.102.55.55 0 0 0 .19.031.505.505 0 0 0 .232-.05.42.42 0 0 0 .166-.159.825.825 0 0 0 .101-.28c.023-.114.034-.25.034-.41zM70.46 4.791h.032v.307h-.031c-.192 0-.352.03-.48.093a.786.786 0 0 0-.307.248c-.076.103-.13.22-.164.348a1.6 1.6 0 0 0-.05.393v.418c0 .126.016.238.046.336.03.096.07.177.123.244.052.066.11.116.176.15a.508.508 0 0 0 .43.004.471.471 0 0 0 .163-.135.62.62 0 0 0 .104-.207.923.923 0 0 0 .035-.261.945.945 0 0 0-.031-.245.65.65 0 0 0-.096-.21.46.46 0 0 0-.39-.202c-.1 0-.194.025-.282.074a.64.64 0 0 0-.213.192.515.515 0 0 0-.093.256l-.192-.002c.018-.146.052-.27.102-.373a.797.797 0 0 1 .187-.254.71.71 0 0 1 .252-.145.932.932 0 0 1 .664.034.728.728 0 0 1 .254.214.898.898 0 0 1 .147.301c.032.11.048.225.048.342 0 .134-.018.26-.056.377a.89.89 0 0 1-.17.308.765.765 0 0 1-.276.208.916.916 0 0 1-.38.074.828.828 0 0 1-.403-.094.861.861 0 0 1-.285-.254 1.157 1.157 0 0 1-.17-.351 1.392 1.392 0 0 1-.056-.393v-.17c0-.2.02-.397.06-.59.04-.193.11-.367.21-.523.1-.157.238-.28.415-.373.177-.093.403-.139.678-.139zm1.321 1.494-.289-.074.143-1.416h1.459v.334H71.94l-.086.773c.052-.03.118-.058.198-.084a.903.903 0 0 1 .277-.039c.132 0 .25.023.353.069a.725.725 0 0 1 .266.191.85.85 0 0 1 .17.3c.04.118.059.249.059.393 0 .137-.02.263-.057.377a.847.847 0 0 1-.166.301.747.747 0 0 1-.281.197c-.112.047-.244.07-.397.07-.114 0-.223-.015-.326-.046a.839.839 0 0 1-.273-.147.791.791 0 0 1-.196-.246.987.987 0 0 1-.093-.347h.343a.673.673 0 0 0 .094.27.46.46 0 0 0 .184.165.618.618 0 0 0 .267.055.55.55 0 0 0 .229-.045.455.455 0 0 0 .168-.129.578.578 0 0 0 .103-.203.9.9 0 0 0 0-.518.574.574 0 0 0-.111-.2.488.488 0 0 0-.178-.134.57.57 0 0 0-.242-.048.613.613 0 0 0-.275.048 1.053 1.053 0 0 0-.19.133zm3.578-.295v.434c0 .233-.02.43-.062.59-.042.16-.102.289-.18.386a.684.684 0 0 1-.283.213c-.11.043-.233.065-.371.065-.11 0-.21-.014-.303-.041a.718.718 0 0 1-.25-.131.794.794 0 0 1-.187-.238 1.277 1.277 0 0 1-.12-.356 2.556 2.556 0 0 1-.04-.488V5.99c0-.233.02-.428.062-.586.043-.157.103-.284.182-.379a.662.662 0 0 1 .28-.207c.111-.041.235-.062.372-.062.11 0 .212.014.305.04a.688.688 0 0 1 .435.358c.052.095.092.212.12.35.027.138.04.3.04.486zm-.363.492V5.93c0-.128-.008-.24-.023-.336a1.052 1.052 0 0 0-.065-.25.495.495 0 0 0-.11-.168.386.386 0 0 0-.15-.094.54.54 0 0 0-.19-.031.513.513 0 0 0-.228.049.41.41 0 0 0-.168.15.812.812 0 0 0-.101.271 2.022 2.022 0 0 0-.035.409v.552c0 .128.007.24.021.338.016.098.039.183.069.254.03.07.066.128.109.174a.41.41 0 0 0 .148.102.55.55 0 0 0 .19.03.506.506 0 0 0 .232-.05.42.42 0 0 0 .166-.158.825.825 0 0 0 .102-.28c.022-.114.033-.25.033-.41zM89.686 16.233v.203l-1.178 2.641h-.38l1.175-2.547h-1.539v-.297h1.922zm2.197 1.196v.433c0 .233-.02.43-.062.59-.042.16-.102.29-.18.387a.684.684 0 0 1-.283.213 1.01 1.01 0 0 1-.371.064c-.11 0-.21-.014-.303-.04a.717.717 0 0 1-.25-.132.791.791 0 0 1-.188-.238 1.28 1.28 0 0 1-.119-.355 2.565 2.565 0 0 1-.04-.489v-.433c0-.233.02-.429.062-.586.043-.158.103-.284.181-.38a.662.662 0 0 1 .282-.206c.11-.042.234-.063.37-.063.112 0 .213.014.305.041a.688.688 0 0 1 .436.358c.052.095.092.211.12.35.026.137.04.3.04.486zm-.363.492v-.553c0-.127-.008-.24-.023-.336a1.057 1.057 0 0 0-.065-.25.492.492 0 0 0-.11-.168.385.385 0 0 0-.15-.094.54.54 0 0 0-.19-.03.512.512 0 0 0-.228.048.41.41 0 0 0-.168.15.811.811 0 0 0-.101.272 2.029 2.029 0 0 0-.035.408v.553c0 .128.007.24.021.338.016.097.038.182.068.254.03.07.067.128.11.173a.41.41 0 0 0 .148.102c.058.02.12.031.19.031a.506.506 0 0 0 .232-.05.419.419 0 0 0 .166-.159.824.824 0 0 0 .102-.279c.022-.114.033-.251.033-.41zm2.613-.492v.433c0 .233-.02.43-.062.59-.042.16-.102.29-.18.387a.684.684 0 0 1-.283.213 1.01 1.01 0 0 1-.371.064c-.11 0-.21-.014-.303-.04a.717.717 0 0 1-.25-.132.791.791 0 0 1-.188-.238 1.28 1.28 0 0 1-.119-.355 2.565 2.565 0 0 1-.04-.489v-.433c0-.233.02-.429.062-.586.043-.158.103-.284.181-.38a.662.662 0 0 1 .282-.206c.11-.042.234-.063.37-.063.112 0 .213.014.305.041a.688.688 0 0 1 .436.358c.052.095.092.211.12.35.026.137.04.3.04.486zm-.363.492v-.553c0-.127-.008-.24-.023-.336a1.057 1.057 0 0 0-.065-.25.492.492 0 0 0-.11-.168.385.385 0 0 0-.15-.094.54.54 0 0 0-.19-.03.512.512 0 0 0-.228.048.41.41 0 0 0-.168.15.811.811 0 0 0-.101.272 2.029 2.029 0 0 0-.035.408v.553c0 .128.007.24.021.338.016.097.038.182.068.254.03.07.067.128.11.173a.41.41 0 0 0 .148.102c.058.02.12.031.19.031a.506.506 0 0 0 .232-.05.419.419 0 0 0 .166-.159.824.824 0 0 0 .102-.279c.022-.114.033-.251.033-.41zM101.68 32.878v.203l-1.178 2.64h-.38l1.175-2.546h-1.539v-.297h1.922zm.869 1.49-.289-.074.143-1.416h1.459v.334h-1.153l-.085.773c.052-.03.117-.058.197-.084a.896.896 0 0 1 .277-.039c.132 0 .249.023.354.069a.723.723 0 0 1 .265.191.852.852 0 0 1 .17.3c.039.118.059.249.059.393 0 .137-.019.263-.057.377a.844.844 0 0 1-.166.301.746.746 0 0 1-.281.197c-.112.047-.244.07-.397.07a1.12 1.12 0 0 1-.326-.046.837.837 0 0 1-.273-.147.791.791 0 0 1-.196-.246.998.998 0 0 1-.093-.347h.343a.678.678 0 0 0 .094.27.459.459 0 0 0 .184.165.618.618 0 0 0 .267.055.554.554 0 0 0 .229-.045.46.46 0 0 0 .168-.129.577.577 0 0 0 .103-.203.89.89 0 0 0 .037-.268.804.804 0 0 0-.037-.25.552.552 0 0 0-.111-.2.48.48 0 0 0-.178-.134.568.568 0 0 0-.242-.048.61.61 0 0 0-.275.048 1.056 1.056 0 0 0-.19.133zm3.578-.295v.434c0 .233-.02.43-.062.59-.042.16-.102.289-.18.386a.68.68 0 0 1-.283.213 1.006 1.006 0 0 1-.371.065c-.109 0-.21-.014-.303-.041a.72.72 0 0 1-.25-.131.79.79 0 0 1-.187-.238 1.271 1.271 0 0 1-.119-.356 2.51 2.51 0 0 1-.041-.488v-.434c0-.233.02-.428.062-.586.043-.157.104-.284.182-.379a.661.661 0 0 1 .281-.207c.111-.041.234-.062.371-.062.111 0 .212.014.305.04a.694.694 0 0 1 .435.358c.052.095.092.212.119.35.028.138.041.3.041.486zm-.363.492v-.552c0-.128-.008-.24-.023-.336a1.07 1.07 0 0 0-.065-.25.488.488 0 0 0-.109-.168.384.384 0 0 0-.151-.094.54.54 0 0 0-.189-.031.51.51 0 0 0-.228.049.404.404 0 0 0-.168.15.786.786 0 0 0-.102.272 2.06 2.06 0 0 0-.035.408v.552c0 .128.007.24.021.338.016.098.039.183.069.254.03.07.066.129.109.174.043.046.092.08.148.102.058.02.121.03.19.03a.504.504 0 0 0 .232-.05.414.414 0 0 0 .166-.158.812.812 0 0 0 .102-.28c.022-.114.033-.25.033-.41z" fill="#222"/>
</svg>
