<svg width="54" height="30" viewBox="0 0 54 30" xmlns="http://www.w3.org/2000/svg">
    <g fill-rule="nonzero" fill="none">
        <path fill="#EFEDEE" d="M45.049 13.426 37.956 8.16l-9.62-1.896-15.8 3.512-6.673 9.059L10.27 29.21h11.183l5.513-2.756 5.513 2.756h11.183l4.617-4.688z"/>
        <path d="m37.956 8.16-9.62-1.896-15.8 3.51-6.672 9.06L10.27 29.21h2.634v-2.244c0-3.824 1.515-7.404 4.266-10.079a13.986 13.986 0 0 1 9.796-3.983c3.674 0 7.153 1.414 9.796 3.983 2.751 2.675 4.267 6.255 4.267 10.08v2.243h2.633l4.617-4.688-3.23-11.095-7.093-5.267z" fill="#D9D7D8"/>
        <path d="m12.535 9.775-3.91-1.486A26.098 26.098 0 0 0 .79 26.967v2.243h9.48v-2.244A16.65 16.65 0 0 1 15.335 15l-2.8-5.224z" fill="#FB7073"/>
        <path d="m41.397 9.775 3.91-1.486.169.167a26.098 26.098 0 0 1 7.666 18.51v2.244h-9.48v-2.244A16.65 16.65 0 0 0 38.598 15l2.8-5.224zM27.948 14.439a.989.989 0 0 0-1.964 0l-1.406 11.803h4.776L27.948 14.44z" fill="#5BB68D"/>
        <path d="M28.761 21.266a8.14 8.14 0 0 0-3.59 0l-.593 4.976h4.776l-.593-4.976z" fill="#51A27D"/>
        <path d="M21.453 29.21a5.513 5.513 0 0 1 11.026 0H21.453z" fill="#596673"/>
        <path d="m45.308 8.289-6.71 6.71a16.64 16.64 0 0 0-11.632-4.729A16.64 16.64 0 0 0 15.335 15l-6.71-6.71A26.1 26.1 0 0 1 26.966.79a26.1 26.1 0 0 1 18.342 7.499z" fill="#F9DB69"/>
        <path d="M19.405 7.686a.79.79 0 0 0 .79-.79V5.527a.79.79 0 1 0-1.58 0v1.369c0 .436.353.79.79.79zM34.528 7.686a.79.79 0 0 0 .79-.79V5.527a.79.79 0 0 0-1.58 0v1.369c0 .436.353.79.79.79zM26.966 8.416c.956 0 1.853-.399 2.461-1.096a.79.79 0 1 0-1.19-1.04 1.68 1.68 0 0 1-1.27.556c-.5 0-.964-.202-1.272-.555a.79.79 0 0 0-1.19 1.04 3.257 3.257 0 0 0 2.461 1.095z" fill="#000"/>
        <path d="M.79 30h52.352a.79.79 0 0 0 .79-.79v-2.244a27.02 27.02 0 0 0-3.174-12.7.79.79 0 0 0-1.393.744 25.434 25.434 0 0 1 2.987 11.956v1.454h-7.9c0-2.303-.107-4.529-.811-6.742a17.682 17.682 0 0 0-3.9-6.64l-.03-.035 5.593-5.593a25.62 25.62 0 0 1 2.495 3.049.79.79 0 1 0 1.296-.904 28.366 28.366 0 0 0-3.234-3.83A26.818 26.818 0 0 0 26.966 0 26.82 26.82 0 0 0 8.071 7.725c-3.11 3.05-5.484 6.881-6.798 11.037a.79.79 0 0 0 1.505.48 25.495 25.495 0 0 1 5.85-9.832l5.595 5.593a17.518 17.518 0 0 0-3.368 5.148 17.502 17.502 0 0 0-1.375 6.815v1.454h-7.9v-1.454c0-1.592.15-3.193.447-4.757a.79.79 0 1 0-1.553-.294A27.201 27.201 0 0 0 0 26.966v2.244c0 .436.354.79.79.79zm10.843-7.286a15.994 15.994 0 0 1 4.253-7.148 15.817 15.817 0 0 1 11.08-4.506 16 16 0 0 1 11.08 4.506c3.567 3.465 4.826 8.013 4.826 12.854h-9.654a6.316 6.316 0 0 0-3.383-4.819l-1.103-9.256a1.78 1.78 0 0 0-3.532 0l-1.102 9.256a6.313 6.313 0 0 0-3.383 4.819H11.06c0-1.941.05-3.822.573-5.706zm14.125.31 1.011-8.492a.199.199 0 0 1 .394 0l1.012 8.491c-.07-.013-.141-.025-.212-.036a6.125 6.125 0 0 0-1.698-.04c-.17.019-.34.044-.507.076zm-.451 1.764a4.752 4.752 0 0 1 3.146-.06 4.737 4.737 0 0 1 3.17 3.692H22.31a4.737 4.737 0 0 1 2.997-3.632zm1.66-23.208a25.237 25.237 0 0 1 17.21 6.723l-5.6 5.599-.03-.027a17.53 17.53 0 0 0-11.58-4.395c-4.25 0-8.436 1.603-11.612 4.422l-5.599-5.6a25.237 25.237 0 0 1 17.21-6.722z" fill="#000"/>
    </g>
</svg>
