<svg width="36" height="40" viewBox="0 0 36 40" fill="none" xmlns="http://www.w3.org/2000/svg">
    <path fill-rule="evenodd" clip-rule="evenodd" d="M34.421 16.146H7.767L33.368 8.73a.783.783 0 0 0 .534-.968l-1.34-4.624A4.373 4.373 0 0 0 28.379 0c-.406 0-.81.058-1.203.171L3.139 7.134A4.318 4.318 0 0 0 .544 9.215a4.318 4.318 0 0 0-.372 3.305l1.31 4.519v18.613A4.353 4.353 0 0 0 5.828 40h9.388a.781.781 0 1 0 0-1.563H5.829a2.788 2.788 0 0 1-2.785-2.785V25.02H33.64v10.632a2.788 2.788 0 0 1-2.785 2.785h-9.388a.781.781 0 0 0 0 1.563h9.388a4.353 4.353 0 0 0 4.347-4.348V16.928a.781.781 0 0 0-.78-.782zm-13.776 7.312 3.32-5.749h4.317l-3.32 5.749h-4.317zm-6.122 0 3.32-5.749h4.317l-3.32 5.749h-4.317zm-6.121 0 3.319-5.749h4.317l-3.319 5.749H8.402zm2.904-10.114L5.748 8.005 9.913 6.8c.029.043.063.083.102.12l5.559 5.34-4.165 1.206a.771.771 0 0 0-.103-.12zm10.47-9.831 5.558 5.339-4.165 1.206a.76.76 0 0 0-.103-.12l-5.558-5.34 4.165-1.206c.029.043.063.083.102.12zm-5.88 1.703 5.557 5.339-4.164 1.207a.769.769 0 0 0-.103-.121l-5.558-5.339 4.165-1.206c.03.042.063.083.102.12zM27.61 1.672c.25-.073.51-.11.768-.11 1.236 0 2.34.827 2.682 2.01l1.123 3.875-3.135.907a.792.792 0 0 0-.103-.12l-5.558-5.338 4.223-1.224zM1.913 9.97c.36-.654.95-1.128 1.66-1.334l.46-.133c.03.043.063.084.102.12l5.559 5.34-6.898 1.998-1.123-3.874a2.766 2.766 0 0 1 .24-2.117zm1.13 7.74h6.874l-3.32 5.749H3.045v-5.749zm23.724 5.749 3.319-5.749h3.554v5.749h-6.873z" fill="#9E1A22"/>
    <path fill-rule="evenodd" clip-rule="evenodd" d="M23.745 31.65a.781.781 0 0 0-.391-.677L16.49 27.01a.781.781 0 0 0-1.172.676v7.926a.78.78 0 0 0 1.172.676l6.864-3.962a.78.78 0 0 0 .39-.677zm-6.864 2.609v-5.22l4.52 2.61-4.52 2.61zM18.342 38.438a.783.783 0 0 0-.781.78c0 .431.35.782.78.782.431 0 .782-.351.782-.781 0-.43-.35-.782-.781-.782z" fill="#9E1A22"/>
</svg>
