<svg id="Capa_1" enable-background="new 0 0 512 512" height="512" viewBox="0 0 512 512" width="512" xmlns="http://www.w3.org/2000/svg"><g><g><path d="m115.718 401.182 180.282-48.306-136.875-136.875-48.306 180.282c-.797 2.974 1.924 5.696 4.899 4.899z" fill="#e4f6ff"/></g><g><path d="m262.88 319.756-141.731 37.977-10.323 38.526c-.8 2.985 1.932 5.717 4.917 4.917l180.257-48.3z" fill="#cbe2ff"/></g><g><path d="m227.629 284.505-115.694 115.694c.955.912 2.349 1.367 3.807.976l180.257-48.3z" fill="#cbe2ff"/></g><g><path d="m262.88 319.756-96.306 25.805-54.638 54.638c.955.912 2.349 1.367 3.807.976l180.257-48.3z" fill="#9dc6fb"/></g><g><path d="m506.961.141-462.653 123.967c-2.974.797-3.97 4.515-1.793 6.692l137.5 137.5 40.167 19.496 23.518 44.189 137.5 137.5c2.177 2.177 5.895 1.181 6.692-1.793l123.967-462.652c.797-2.974-1.924-5.696-4.898-4.899z" fill="#e4f6ff"/></g><g><path d="m506.936.147-59.578 15.964-109.79 409.742 43.614 43.614c2.185 2.185 5.917 1.185 6.716-1.8l123.955-462.603c.8-2.985-1.932-5.716-4.917-4.917z" fill="#cbe2ff"/></g><g><path d="m511.852 2.97c-.382-1.392-1.507-2.49-2.91-2.84l-328.927 268.171 63.685 63.685 64.049-78.586 26.564-47.587 40.701-34.946z" fill="#9dc6fb"/></g><g><path d="m508.941.129-111.644 91.023-177.115 217.316 23.518 23.518 64.049-78.586 26.564-47.587 40.701-34.946 136.838-167.897c-.382-1.392-1.507-2.491-2.911-2.841z" fill="#80b4fb"/></g><g><g><path d="m60.078 512c-1.926 0-3.853-.735-5.322-2.204-2.94-2.94-2.94-7.706 0-10.646l55.591-55.591c2.939-2.938 7.706-2.938 10.645 0 2.94 2.94 2.94 7.706 0 10.646l-55.591 55.591c-1.47 1.469-3.396 2.204-5.323 2.204z" fill="#dde9f7"/></g><g><path d="m7.527 459.449c-1.926 0-3.853-.735-5.322-2.204-2.94-2.94-2.94-7.706 0-10.646l55.591-55.591c2.939-2.938 7.706-2.938 10.645 0 2.94 2.94 2.94 7.706 0 10.646l-55.591 55.591c-1.47 1.469-3.396 2.204-5.323 2.204z" fill="#dde9f7"/></g><g><path d="m8.892 510.636c-1.926 0-3.853-.735-5.322-2.204-2.94-2.94-2.94-7.706 0-10.646l55.591-55.591c2.939-2.938 7.706-2.938 10.645 0 2.94 2.94 2.94 7.706 0 10.646l-55.591 55.591c-1.471 1.469-3.397 2.204-5.323 2.204z" fill="#dde9f7"/></g></g><g><path d="m375.313 163.453c0-51.711-41.92-93.632-93.632-93.632-51.711 0-93.632 41.92-93.632 93.632s41.92 93.632 93.632 93.632c9.048 0 17.794-1.287 26.07-3.682l67.269-82.53c.193-2.449.293-4.923.293-7.42z" fill="#ffe07d"/></g><g><path d="m375.313 163.453c0-33.184-17.264-62.335-43.299-78.964 9.285 14.536 14.667 31.806 14.667 50.333 0 51.711-41.921 93.632-93.632 93.632-18.527 0-35.797-5.383-50.333-14.667 16.63 26.035 45.78 43.299 78.964 43.299 9.048 0 17.794-1.287 26.07-3.682l67.269-82.53c.194-2.45.294-4.924.294-7.421z" fill="#ffd064"/></g><path d="m294.301 155.793c-1.878-.664-3.796-1.357-5.711-2.078v-31.522c4.535 1.251 7.228 3.52 7.486 3.745 3.057 2.766 7.78 2.555 10.579-.481 2.819-3.056 2.627-7.818-.429-10.636-.395-.363-6.93-6.246-17.636-8.011v-6.172c0-4.158-3.37-7.527-7.527-7.527s-7.527 3.37-7.527 7.527v6.731c-.889.206-1.787.434-2.703.71-10.118 3.048-17.676 11.699-19.726 22.58-1.873 9.939 1.324 19.535 8.344 25.041 3.594 2.819 8.04 5.401 14.085 8.115v40.444c-5.116-.454-8.508-1.809-14.178-5.518-3.479-2.276-8.144-1.301-10.42 2.178s-1.301 8.145 2.178 10.42c8.751 5.724 14.789 7.52 22.42 8.014v6.915c0 4.158 3.37 7.527 7.527 7.527s7.527-3.37 7.527-7.527v-7.542c15.508-3.269 24.573-16.154 26.598-28.202 2.636-15.681-5.563-29.314-20.887-34.731zm-25.56-11.939c-2.542-1.994-3.658-6.079-2.841-10.408.707-3.753 3.083-8.215 7.635-10.32v23.868c-1.787-1.01-3.412-2.056-4.794-3.14zm31.601 44.175c-.995 5.915-4.986 12.187-11.752 14.964v-33.255c.234.083.456.165.694.249 12.341 4.362 11.583 14.912 11.058 18.042z" fill="#ebb044"/></g></svg>