<svg width="14" height="16" viewBox="0 0 14 16" xmlns="http://www.w3.org/2000/svg">
    <g fill="#000" fill-rule="nonzero" opacity=".8">
        <path d="M11.53 8.112a.615.615 0 1 0-.865.874 5.5 5.5 0 0 1 1.643 3.937c0 .753-2.158 1.846-5.539 1.846-3.38 0-5.538-1.094-5.538-1.847a5.5 5.5 0 0 1 1.621-3.916.615.615 0 1 0-.87-.87A6.724 6.724 0 0 0 0 12.923C0 14.922 3.487 16 6.77 16c3.281 0 6.769-1.078 6.769-3.077a6.72 6.72 0 0 0-2.008-4.811z"/>
        <path d="M6.77 8.615A4.308 4.308 0 1 0 6.77 0a4.308 4.308 0 0 0 0 8.615zm0-7.384a3.077 3.077 0 1 1 0 6.154 3.077 3.077 0 0 1 0-6.154z"/>
    </g>
</svg>
