<svg width="16" height="16" viewBox="0 0 16 16" xmlns="http://www.w3.org/2000/svg">
    <g fill-rule="nonzero" fill="none">
        <path d="m15.353 11.03-3.906 3.965a1.043 1.043 0 0 1-1.474 0l-6.98-6.862 7.028 4.059a1.043 1.043 0 0 0 1.426-.383l2.244-3.881 1.652 1.624a1.044 1.044 0 0 1 .01 1.478z" fill="#BEC6C6"/>
        <path d="m14.23 6.992-2.783 4.835a1.043 1.043 0 0 1-1.426.382L.98 6.992A1.739 1.739 0 0 0 .349 4.6L2.436.986c.832.48 1.895.195 2.376-.637l9.042 5.217c.497.29.665.929.376 1.426z" fill="#F8F9F9"/>
        <path d="M9.848 12.494.805 7.277a.348.348 0 0 1-.108-.476 1.391 1.391 0 0 0-.521-1.899.348.348 0 0 1-.13-.476L2.135.812A.348.348 0 0 1 2.61.697 1.391 1.391 0 0 0 4.523.176a.348.348 0 0 1 .476-.13l9.043 5.218a1.391 1.391 0 0 1 .511 1.902l-2.782 4.817a1.391 1.391 0 0 1-1.923.511zM1.435 6.836l8.76 5.057c.33.181.745.067.936-.258l2.782-4.817a.696.696 0 0 0-.254-.95L4.912.813a2.087 2.087 0 0 1-2.333.623L.809 4.499c.685.566.936 1.504.626 2.337z" fill="#414141"/>
        <circle fill="#1B1DC7" cx="6.957" cy="4.871" r="1"/>
        <circle fill="#1B1DC7" cx="7.653" cy="7.653" r="1"/>
        <path d="M5.518 7.128a.35.35 0 1 1-.09-.696l3.8-1.005a.348.348 0 0 1 .425.244.348.348 0 0 1-.261.427c-4.048 1.089-3.808 1.03-3.874 1.03z" fill="#1B1DC7"/>
        <path d="M9.082 9.99a.348.348 0 0 1-.299-.522l2.087-3.613a.348.348 0 1 1 .602.348l-2.08 3.613a.348.348 0 0 1-.31.174zM10.29 10.686a.348.348 0 0 1-.303-.522l2.086-3.613a.348.348 0 1 1 .602.347l-2.087 3.614a.348.348 0 0 1-.299.174z" fill="#BEC6C6"/>
        <g transform="translate(.005 3.48)" fill="#414141">
            <circle cx="3.475" cy=".696" r="1"/>
            <path d="M3.475 12.52c-5.464 0-3.721-12.172 0-12.172a.348.348 0 0 1 0 .695c-1.43 0-2.782 3.044-2.782 6.26 0 2.783 1.067 4.522 2.782 4.522 1.523 0 2.553-1.391 2.747-3.68a.349.349 0 0 1 .696.06c-.275 3.182-1.958 4.315-3.443 4.315z"/>
            <path d="M9.735 11.773 2.745 4.9a.348.348 0 1 1 .486-.493l6.98 6.872a.696.696 0 0 0 .985 0l3.906-3.975a.696.696 0 0 0 0-.988l-1.66-1.62a.348.348 0 1 1 .487-.495l1.652 1.624a1.391 1.391 0 0 1 0 1.969l-3.891 3.965a1.391 1.391 0 0 1-1.955.014z"/>
        </g>
    </g>
</svg>
