<svg width="50" height="50" viewBox="0 0 50 50" fill="none" xmlns="http://www.w3.org/2000/svg">
<path d="M21.2158 36.2715C21.0342 36.0889 20.7822 35.9854 20.5244 35.9854C20.2676 35.9854 20.0166 36.0889 19.834 36.2715C19.6523 36.4531 19.5488 36.7041 19.5488 36.9619C19.5488 37.2188 19.6523 37.4707 19.834 37.6522C20.0166 37.8339 20.2676 37.9385 20.5244 37.9385C20.7822 37.9385 21.0332 37.834 21.2158 37.6522C21.3975 37.4707 21.502 37.2188 21.502 36.9619C21.502 36.704 21.3975 36.4531 21.2158 36.2715Z" fill="black"/>
<path d="M42.8685 16.8239H39.5012C40.7144 15.6138 41.4662 13.9412 41.4662 12.0963V4.3252V0.976562C41.4662 0.437207 41.029 0 40.4896 0H32.892C30.2522 0 28.1047 2.14756 28.1047 4.7873V7.99717C28.1047 8.004 28.1056 8.01055 28.1057 8.01729C28.1056 8.02402 28.1047 8.03066 28.1047 8.0374V12.0963C28.1047 13.9412 28.8565 15.6137 30.0697 16.8239H19.5364C20.7496 15.6138 21.5015 13.9412 21.5015 12.0963V4.3252V0.976562C21.5015 0.437207 21.0643 0 20.5249 0H12.9272C10.2875 0 8.13994 2.14756 8.13994 4.7873V7.99717C8.13994 8.004 8.14082 8.01055 8.14092 8.01729C8.14082 8.02402 8.13994 8.03066 8.13994 8.0374V12.0963C8.13994 13.9412 8.8918 15.6137 10.105 16.8239H7.90088C3.54434 16.8239 0 20.3683 0 24.7249V36.9616C0 37.5009 0.437207 37.9382 0.976562 37.9382H16.4062C16.9456 37.9382 17.3828 37.5009 17.3828 36.9616C17.3828 36.4224 16.9456 35.9851 16.4062 35.9851H6.36836V29.6803C6.36836 29.141 5.93115 28.7037 5.3918 28.7037C4.85244 28.7037 4.41523 29.141 4.41523 29.6803V35.9851H1.95312V24.7249C1.95312 21.4453 4.62129 18.7771 7.90098 18.7771H10.6413L13.8441 23.5686V29.3891C13.8441 29.9283 14.2813 30.3656 14.8207 30.3656C15.3601 30.3656 15.7973 29.9283 15.7973 29.3891V23.5944L19.3643 18.7771H22.9038C25.7592 18.7771 28.0822 21.1001 28.0822 23.9555V27.9617C28.0822 28.501 28.5194 28.9383 29.0588 28.9383C29.5981 28.9383 30.0354 28.501 30.0354 27.9617V23.9555C30.0354 21.9175 29.1747 20.0778 27.7994 18.7771H30.4091L33.7767 23.8149C33.9532 24.0792 34.2474 24.2409 34.565 24.2485C34.573 24.2487 34.5808 24.2488 34.5886 24.2488C34.8976 24.2488 35.189 24.1024 35.3733 23.8534L39.132 18.7771H42.8685C45.7238 18.7771 48.0469 21.1002 48.0469 23.9556V27.9618C48.0469 28.5011 48.4841 28.9384 49.0234 28.9384C49.5628 28.9384 50 28.5011 50 27.9618V23.9556C50 20.0231 46.8008 16.8239 42.8685 16.8239ZM10.0932 4.7873C10.0932 3.22451 11.3646 1.95312 12.9273 1.95312H19.5484V4.3252C19.5484 5.81143 18.3394 7.02061 16.853 7.02061H10.0932V4.7873V4.7873ZM14.8615 21.5761L12.9905 18.7771H16.934L14.8615 21.5761ZM14.8208 16.824C12.214 16.824 10.0932 14.7032 10.0932 12.0964V8.97373H16.853C17.8573 8.97373 18.7875 8.65254 19.5484 8.10889V12.0964C19.5484 14.7032 17.4276 16.824 14.8208 16.824ZM30.0577 4.7873C30.0578 3.22451 31.3293 1.95312 32.892 1.95312H39.5131V4.3252C39.5131 5.81143 38.304 7.02061 36.8177 7.02061H30.0577V4.7873V4.7873ZM34.6293 21.5761L32.7583 18.7771H36.7018L34.6293 21.5761ZM34.7855 16.824C32.1787 16.824 30.0578 14.7032 30.0578 12.0964V8.97373H36.8178C37.8221 8.97373 38.7522 8.65254 39.5132 8.10889V12.0964C39.5132 14.7032 37.3924 16.824 34.7855 16.824Z" fill="black"/>
<path d="M46.4264 30.5164H41.8841V28.6384C41.8841 27.3541 40.8392 26.3091 39.5548 26.3091H34.4688C33.1844 26.3091 32.1395 27.354 32.1395 28.6384V30.5164H27.5972C25.6267 30.5164 24.0234 32.1195 24.0234 34.0901V46.4265C24.0235 48.3971 25.6268 50.0002 27.5973 50.0002H46.4265C48.3969 50.0002 50.0001 48.3971 50.0001 46.4265V34.0901C50.0001 32.1195 48.3969 30.5164 46.4264 30.5164ZM34.4688 28.2622H39.5549C39.7623 28.2622 39.9311 28.431 39.9311 28.6384V30.5164H34.0928V28.6384H34.0927C34.0927 28.431 34.2614 28.2622 34.4688 28.2622ZM48.047 46.4265C48.047 47.3201 47.32 48.0471 46.4264 48.0471H27.5973C26.7037 48.0471 25.9767 47.3201 25.9767 46.4265V39.3682H34.412V39.5279C34.412 40.9614 35.5782 42.1276 37.0118 42.1276C38.4454 42.1276 39.6116 40.9614 39.6116 39.5279V39.3682H48.047V46.4265ZM36.3651 39.5279V38.2319H37.6585V39.5279C37.6585 39.8844 37.3685 40.1745 37.0118 40.1745C36.6552 40.1745 36.3651 39.8844 36.3651 39.5279ZM48.047 37.415H39.6116V37.2554C39.6116 36.7161 39.1744 36.2788 38.6351 36.2788H35.3887C34.8493 36.2788 34.4121 36.7161 34.4121 37.2554V37.415H25.9767V34.0901C25.9767 33.1966 26.7036 32.4695 27.5973 32.4695H33.1161H40.9075H46.4264C47.3199 32.4695 48.047 33.1965 48.047 34.0901V37.415Z" fill="black"/>
</svg>
