<svg width="19" height="16" viewBox="0 0 19 16" xmlns="http://www.w3.org/2000/svg">
    <g fill="#414141" fill-rule="nonzero">
        <path d="M4.165 4.847A1.86 1.86 0 0 0 6.022 2.99a1.86 1.86 0 0 0-1.857-1.857A1.86 1.86 0 0 0 2.308 2.99a1.86 1.86 0 0 0 1.857 1.857z"/>
        <path d="M8.408 2.837c-.2 0-.392.076-.538.214l-.718.675a5.76 5.76 0 0 1-.568.456l-1.445.982H2.976c-.365 0-.555.107-.704.294L1.33 6.634c-.152.19-.394.507-.54.705l-.638.87a.78.78 0 0 0-.143.584.78.78 0 0 0 .777.667.79.79 0 0 0 .634-.322l.638-.87.01-.014-.134 1.507L.83 15a.823.823 0 0 0 .117.623.823.823 0 0 0 .695.376c.39 0 .73-.277.81-.658l1.033-4.904h.268l.148 1.656c.018.198.027.548.019.747l-.087 2.299a.823.823 0 0 0 .22.595.823.823 0 0 0 .609.265c.447 0 .81-.35.827-.798l.087-2.298c.01-.269 0-.69-.024-.958l-.22-2.474-.004-.02.24-2.68 1.9-1.29c.226-.154.56-.423.761-.61l.718-.677a.787.787 0 0 0-.539-1.358zM14.159 4.274a1.86 1.86 0 0 0 1.857-1.857A1.86 1.86 0 0 0 14.159.559a1.86 1.86 0 0 0-1.857 1.858 1.86 1.86 0 0 0 1.857 1.857z"/>
        <path d="M16.985 8.565a.79.79 0 0 0 1.098.169.78.78 0 0 0 .312-.514.78.78 0 0 0-.143-.585l-.638-.87a25.393 25.393 0 0 0-.54-.704l-.941-1.176a.707.707 0 0 0-.614-.295h-2.334l-1.445-.982a5.034 5.034 0 0 1-.484-.376l-.228-.215a.783.783 0 0 0-1.11.034.78.78 0 0 0-.214.562c.006.21.094.405.247.549l.227.214c.156.146.447.375.678.532l1.9 1.291.24 2.679c-.001.007-.003.013-.003.02l-.22 2.475c-.033.363.043.87.181 1.208l.659 1.612a.826.826 0 0 0 1.08.453.823.823 0 0 0 .451-.446.823.823 0 0 0 .003-.634l-.659-1.612a1.35 1.35 0 0 1-.065-.434l.147-1.655h.27l.392 1.866a1.2 1.2 0 0 0 .59.806c.173.096.372.147.574.147.143 0 .285-.025.421-.075l.868-.318a.83.83 0 0 0-.57-1.556l-.37.136-.355-1.684-.146-1.63.103.138.638.87zM10.13 1.65a.269.269 0 0 0 .328-.194c.086-.34.303-.858.486-.943a.269.269 0 1 0-.228-.488c-.486.227-.735 1.122-.78 1.299-.036.144.05.29.195.326zM8.89.944a.269.269 0 0 0-.227.488c.181.085.399.602.486.943a.269.269 0 0 0 .52-.132C9.626 2.066 9.378 1.17 8.89.944z"/>
    </g>
</svg>
