<svg width="131" height="138" viewBox="0 0 131 138" xmlns="http://www.w3.org/2000/svg" xmlns:xlink="http://www.w3.org/1999/xlink">
    <defs>
        <filter x="-7%" y="-6.2%" width="114.1%" height="112.4%" filterUnits="objectBoundingBox" id="stom4zu8jc">
            <feGaussianBlur stdDeviation="2" in="SourceGraphic"/>
        </filter>
        <path id="ig9612ozna" d="M0 0h130.023v127.341H0z"/>
    </defs>
    <g fill="none" fill-rule="evenodd">
        <g>
            <mask id="xddjtbtbab" fill="#fff">
                <use xlink:href="#ig9612ozna"/>
            </mask>
            <path d="M129.45 39.85C124.57 10.424 90.286-5.063 61.065 1.49 28.656 8.756 12.525 40.877 9.869 46.417c-9.239 19.274-17.166 54.33 1.38 71.911 20.613 19.54 58.72 3.08 77.196-9.602 4.844-3.325 46.947-33.04 41.005-68.875" fill="#F6F7F8" mask="url(#xddjtbtbab)"/>
        </g>
        <path d="M83.17 17.439 26.932 2.887a5.163 5.163 0 0 0-6.285 3.701L1.969 78.77a5.164 5.164 0 0 0 3.701 6.285L61.91 99.607a5.163 5.163 0 0 0 6.285-3.701L86.87 23.724a5.163 5.163 0 0 0-3.7-6.285" fill="#232323" opacity=".3" filter="url(#stom4zu8jc)" transform="translate(33.582 31.27)"/>
        <path d="M37.623 112.924a4.456 4.456 0 0 1-3.198-5.43L53.103 35.31a4.457 4.457 0 0 1 5.43-3.198l56.24 14.552a4.456 4.456 0 0 1 3.197 5.431l-18.677 72.182a4.456 4.456 0 0 1-5.431 3.198l-56.239-14.552z" fill="#FFF"/>
        <path d="M58.358 32.792a3.76 3.76 0 0 0-4.576 2.695l-18.678 72.182a3.76 3.76 0 0 0 2.695 4.576l56.238 14.552a3.76 3.76 0 0 0 4.577-2.695L117.29 51.92a3.76 3.76 0 0 0-2.694-4.576L58.358 32.792zm35.328 95.363-56.238-14.552a5.164 5.164 0 0 1-3.701-6.286l18.677-72.181a5.163 5.163 0 0 1 6.285-3.702l56.239 14.553a5.163 5.163 0 0 1 3.701 6.285l-18.678 72.182a5.164 5.164 0 0 1-6.285 3.7z" fill="#759EDD"/>
        <path d="M96.792 68.928c-2.575 9.155-12.084 14.49-21.238 11.914-9.155-2.574-14.49-12.083-11.914-21.238 2.575-9.155 12.083-14.489 21.238-11.914 9.155 2.575 14.489 12.084 11.914 21.238" stroke="#E6EBF3" fill="#E8F1FF"/>
        <path d="M85.466 78.99a14.559 14.559 0 0 1-8.105.835c-.035-.005-.072-.014-.11-.024a13.83 13.83 0 0 1-1.861-.482c-.038-.01-.075-.023-.113-.033a12.276 12.276 0 0 1-.659-.242 13.584 13.584 0 0 1-1.114-.49 14.636 14.636 0 0 1-4.976-3.999 8.272 8.272 0 0 1 5.865-2.66c0-.005.005-.004.005-.004.383-.008.772.012 1.16.058.017 0 .034.005.048.004.342.044.688.11 1.028.199l2.89.747c.345.09.676.198.997.325.011.008.028.012.04.02.365.148.71.318 1.046.512l.004.001-.001.005a8.252 8.252 0 0 1 3.856 5.228" fill="#306CC4"/>
        <path d="m80.935 71.8-.71 2.74c-.3 1.162-1.671 1.822-3.047 1.466-1.375-.356-2.255-1.598-1.954-2.76l.709-2.74c.124-.479.43-.873.845-1.145a2.586 2.586 0 0 1 .968-.376c.39-.067.812-.053 1.234.056.422.11.798.301 1.107.55a2.575 2.575 0 0 1 .664.798c.23.439.307.932.184 1.411" fill="#B3CEF6"/>
        <path d="m87.694 63.356-1.032 3.99c-.725 2.804-3.14 4.744-5.873 5.016l-.272 1.052a6.669 6.669 0 0 1-2.336-.18l-.535-.14a6.659 6.659 0 0 1-2.13-.974l.271-1.053c-2.258-1.562-3.428-4.43-2.703-7.234l1.032-3.99a6.714 6.714 0 0 1 3.328-4.207 6.703 6.703 0 0 1 4.873-.597l.535.138a6.698 6.698 0 0 1 3.686 2.472h.001a6.737 6.737 0 0 1 1.155 5.707" fill="#88ADD8"/>
        <path d="m87.959 62.333-1.297 5.013a6.695 6.695 0 0 1-2.851 3.95 6.76 6.76 0 0 1-3.021 1.065 6.657 6.657 0 0 1-2.337-.18l-.535-.139a6.645 6.645 0 0 1-2.13-.975c-2.258-1.562-3.43-4.43-2.704-7.234l1.29-4.985a6.726 6.726 0 0 1 3.57-4.382 6.677 6.677 0 0 1 4.645-.48l.535.138a6.689 6.689 0 0 1 3.594 2.354 6.733 6.733 0 0 1 1.24 5.855" fill="#DDEBFF"/>
        <path d="M89.888 65.65a2.699 2.699 0 0 1-3.288 1.936l1.352-5.225c.362.094.688.257.967.471l.004.004a2.699 2.699 0 0 1 .965 2.813" fill="#B3CEF6"/>
        <path d="M88.893 65.392a1.671 1.671 0 0 1-2.036 1.199l.837-3.235a1.671 1.671 0 0 1 1.2 2.036" fill="#88ADD8"/>
        <path d="m81.611 73.757-.001.005-3.677 6.157a12.34 12.34 0 0 1-.572-.094c-.035-.005-.072-.014-.11-.024a13.853 13.853 0 0 1-1.861-.482c-.038-.01-.075-.023-.113-.033a12.377 12.377 0 0 1-.659-.242l-.225-7.15v-.004l1.379.357.04.069 1.595 2.81 2.753-1.686.069-.04 1.382.357zM74.373 58.848l-1.351 5.225a2.698 2.698 0 0 1 1.351-5.225" fill="#B3CEF6"/>
        <path d="M72.08 61.042a1.671 1.671 0 0 0 1.2 2.037l.837-3.236a1.671 1.671 0 0 0-2.037 1.2" fill="#88ADD8"/>
        <path d="m73.703 77.785-.2.769c-.823-.402-1.6-.88-2.317-1.42l2.517.65z" fill="#175DAF"/>
        <path d="m87.959 62.333-1.297 5.013a6.695 6.695 0 0 1-2.851 3.95c1.963-2.77 3.316-8.331 3.214-10.477-.128-2.676-4.407-2.568-7.905-3.382-2.587-.602-1.775-2.186-1.176-2.972.211-.277.396-.455.396-.455l.41.121 7.968 2.347a6.733 6.733 0 0 1 1.24 5.855" fill="#B7D5F8"/>
        <path d="M82.473 51.434c-3.965-.52-1.503-3.309-1.503-3.309-2.088.57-5.245 3.162-4.607 5.9-1.563.742-2.276 3.512-2.276 3.512l-.317 1.226c.197-.002.604.085.604.085.58-2.244 2.587-3.653 2.587-3.653v-.002c1.541 1.752 5.421 1.893 8.505 2.18 3.618.338 2.486 4.988 2.486 4.988.658.242.97.474.97.474 3.646-8.04-2.485-10.881-6.45-11.401" fill="#306CC4"/>
        <path d="m77.798 77.06-.437 2.765a.947.947 0 0 1-.11-.024 13.855 13.855 0 0 1-1.861-.482l.959-2.633-.022-.02-.003-.005a.24.24 0 0 1-.067-.071.886.886 0 0 1-.136-.98l.028-.056v-.005c.008-.011.015-.018.017-.027a.92.92 0 0 1 1-.4l.68.176c.114.03.213.078.303.146h.005c.192.14.325.354.362.592a.84.84 0 0 1-.007.303.34.34 0 0 1-.013.068c0 .005 0 .005-.002.009a.904.904 0 0 1-.696.644" fill="#363636"/>
        <path d="M77.25 79.8a13.824 13.824 0 0 1-1.86-.48c-.038-.01-.075-.024-.113-.034l.976-2.68.004-.016.292-.798 1.285.332-.136.857-.447 2.82z" fill="#306CC4"/>
        <path d="m77.292 76.972-.682-.176a.91.91 0 0 1-.65-1.105.91.91 0 0 1 1.105-.651l.681.176a.91.91 0 0 1 .651 1.105.91.91 0 0 1-1.105.651" fill="#306CC4"/>
        <path fill="#363636" d="m77.404 75.127 1.585 1.879 2.622-3.249z"/>
        <path fill="#F9F9F9" d="m81.61 73.757-2.621 3.111-1.585-1.74 2.827-1.728.368-.224z"/>
        <path fill="#363636" d="m74.393 71.89.698 4.107 2.313-.87z"/>
        <path fill="#F9F9F9" d="m77.404 75.127-2.227.755-.784-3.992 1.166-.018.213.375z"/>
        <path d="m67.42 88.746-17.738-4.59a1.54 1.54 0 0 1-1.102-1.872 1.54 1.54 0 0 1 1.872-1.102l17.738 4.59a1.54 1.54 0 0 1 1.102 1.871 1.54 1.54 0 0 1-1.872 1.103" fill="#52D1BD"/>
        <path d="m71.508 96.699-23.498-6.08a1.54 1.54 0 0 1-1.102-1.873 1.54 1.54 0 0 1 1.872-1.102l23.498 6.08a1.54 1.54 0 0 1 1.102 1.872 1.54 1.54 0 0 1-1.872 1.103M81.808 106.26l-35.47-9.18a1.54 1.54 0 0 1-1.103-1.871 1.54 1.54 0 0 1 1.872-1.102l35.471 9.178a1.54 1.54 0 0 1 1.102 1.872 1.54 1.54 0 0 1-1.872 1.102M91.813 115.743l-47.148-12.2a1.54 1.54 0 0 1-1.102-1.871 1.54 1.54 0 0 1 1.872-1.103l47.148 12.2a1.54 1.54 0 0 1 1.102 1.872 1.54 1.54 0 0 1-1.872 1.102M95.157 102.818l-18.054-4.672a1.54 1.54 0 0 1-1.102-1.871 1.54 1.54 0 0 1 1.872-1.103l18.054 4.672a1.54 1.54 0 0 1 1.102 1.872 1.54 1.54 0 0 1-1.872 1.102" fill="#ECF3FE"/>
        <path d="M100.477 87.3c-7.838 2.1-12.49 10.158-10.39 17.996 2.1 7.839 10.158 12.49 17.996 10.39 7.838-2.1 12.49-10.157 10.39-17.996-2.1-7.838-10.158-12.49-17.996-10.39" fill="#232323" opacity=".1"/>
        <path d="M117.645 95.69c2.1 7.838-2.551 15.895-10.39 17.995-7.838 2.1-15.895-2.551-17.995-10.39-2.1-7.838 2.551-15.895 10.39-17.995 7.838-2.1 15.895 2.551 17.995 10.39" fill="#F46969" fill-rule="nonzero"/>
        <path d="M103.739 100.455a4.428 4.428 0 0 1-6.133-1.229 4.428 4.428 0 0 1 1.229-6.132 4.428 4.428 0 0 1 6.132 1.228c1.352 2.03.801 4.78-1.228 6.133m2.676-7.097a6.17 6.17 0 0 0-8.545-1.712 6.17 6.17 0 0 0-1.712 8.545c1.66 2.49 4.831 3.382 7.496 2.272l4.287 6.434a1.07 1.07 0 0 0 1.479.296l.194-.129a1.07 1.07 0 0 0 .297-1.48l-4.287-6.433c2.051-2.032 2.45-5.302.791-7.793" fill="#FFF"/>
        <path d="M13.736 28.447a3.71 3.71 0 1 1-7.421 0 3.71 3.71 0 0 1 7.421 0" fill="#0075F2"/>
        <path d="M34.357 126.427a3.71 3.71 0 1 1-7.422 0 3.71 3.71 0 0 1 7.422 0M100.508 15.304a2.49 2.49 0 1 1-4.98 0 2.49 2.49 0 0 1 4.98 0" fill="#52D1BD"/>
    </g>
</svg>
