<svg xmlns="http://www.w3.org/2000/svg" xmlns:xlink="http://www.w3.org/1999/xlink" width="268" height="240" version="1.1" viewBox="0 0 268 240"><defs><path d="M0 0h70.036v64.964H0z" id="a"/><path d="M0 0h59.026v72.928H0z" id="c"/><path d="M0 0h11.231v10.943H0z" id="e"/></defs><g fill="none" fill-rule="evenodd" stroke="none" stroke-width="1"><g fill="#E9EDF7"><path d="M32.593 220.626c0-2.517 12.417-4.558 27.734-4.558 15.317 0 27.734 2.04 27.734 4.558s-12.417 4.559-27.734 4.559c-15.317 0-27.734-2.041-27.734-4.559m123.519-21.115c0-1.639 17.01-2.968 37.993-2.968 20.984 0 37.994 1.329 37.994 2.968 0 1.64-17.01 2.969-37.994 2.969-20.983 0-37.993-1.33-37.993-2.969m6.457 10.599c0-1.19 11.512-2.155 25.712-2.155 14.201 0 25.713.965 25.713 2.155s-11.512 2.155-25.713 2.155c-14.2 0-25.712-.964-25.712-2.155"/><path d="M48.069 211.73c0-5.252 29.432-9.51 65.738-9.51 36.305 0 65.737 4.258 65.737 9.51 0 5.251-29.432 9.509-65.737 9.509-36.306 0-65.738-4.258-65.738-9.51"/></g><path d="M208.745 132.212c11.098-.647 15.741-9.995 13.179-22.888-9.9 2.594-18.945 12.145-13.18 22.888m1.451 32.34c-1.45 13.633 8.898 21.16 24.968 20.631-1.141-12.566-10.849-25.488-24.968-20.631" fill="#807DFB"/><path d="M231.987 183.212a.406.406 0 0 1-.242-.08c-3.853-2.855-8.667-7.065-12.915-10.78-3.49-3.051-6.786-5.934-8.876-7.469a.412.412 0 0 1-.09-.573.408.408 0 0 1 .572-.09c2.118 1.556 5.427 4.45 8.93 7.514 4.237 3.704 9.037 7.902 12.864 10.737a.412.412 0 0 1-.243.74" fill="#6B67E9"/><g transform="translate(197.618 104.895)"><mask fill="#fff" id="b"><use xlink:href="#a"/></mask><path d="M6.26 59.844C1.207 56.238-1.763 46.31 1.144 40.933c2.906-5.377 8.546-4.072 9.315-7.423.768-3.351-3.118-9.562-.226-13.243 5.14-6.54 14.201 3.746 18.48-.683 4.279-4.43-1.132-9.84 2.221-14.61 3.353-4.769 10.342 4.157 16.353.38C53.3 1.579 67.514-4.1 69.794 4.533c1.802 6.823-7.006 5.48-8.158 8.3-1.314 3.216 2.548 5.378.327 8.604-3.138 4.557-9.905 1.784-11.865 5.95-1.96 4.168 2.894 7.812-2.238 11.036-6.353 3.991-12.132-6.377-17.176 2.118-5.045 8.495 7.553 10.047 5.176 15.732-2.595 6.205-13.183.324-13.913 4.848-.993 6.155-7.851 4.317-15.687-1.276" fill="#362E94" mask="url(#b)"/></g><path d="M202.617 164.08a.411.411 0 0 1-.363-.598c.207-.405.357-1.113.53-1.932.411-1.939.973-4.594 2.951-5.837 1.018-.639 2.144-1.128 3.232-1.6 1.774-.77 3.608-1.567 5.051-3.044 2.978-3.047 3.635-6.415 4.215-9.387.442-2.263.858-4.4 2.253-5.97 1.294-1.459 2.662-1.386 4.11-1.31 1.358.073 2.762.147 4.48-.931 1.648-1.036 1.987-1.95 2.379-3.008.446-1.203.952-2.568 3.442-4.132 2.132-1.34 3.598-1.248 5.017-1.16 1.37.086 2.665.166 4.678-.97 3.91-2.206 5.234-5.216 6.201-7.414.625-1.42 1.119-2.543 2.074-3.076 2.175-1.215 3.744-.058 3.81-.008.18.137.216.394.08.575a.408.408 0 0 1-.572.08c-.047-.034-1.226-.877-2.92.07-.716.4-1.16 1.41-1.724 2.69-1.013 2.304-2.401 5.459-6.548 7.799-2.223 1.255-3.701 1.163-5.13 1.074-1.35-.084-2.623-.164-4.532 1.036-2.255 1.416-2.69 2.589-3.11 3.723-.407 1.098-.828 2.233-2.712 3.416-1.936 1.217-3.541 1.13-4.956 1.057-1.354-.072-2.424-.13-3.457 1.034-1.245 1.403-1.623 3.34-2.06 5.583-.603 3.085-1.285 6.582-4.434 9.804-1.556 1.592-3.465 2.42-5.31 3.222-1.11.482-2.158.937-3.123 1.543-1.684 1.059-2.184 3.417-2.585 5.312-.186.876-.346 1.633-.603 2.136a.409.409 0 0 1-.364.223" fill="#5652CC"/><path d="M54.9 110.958c2.41-3.918-.249-7.345-1.993-9.241-.646 1.254-2.965 6.484 1.994 9.24" fill="#9F9CFF"/><path d="M71.083 148.49a.407.407 0 0 1-.315-.15c-6.036-7.332-13.527-21.164-16.447-37.997a.41.41 0 1 1 .805-.141c2.894 16.675 10.304 30.364 16.272 37.616a.411.411 0 0 1-.315.672m-5.393-4.313c-8.185-4.344-12.662.798-16.232 4.584 2.605 1.139 11.372 5.823 16.233-4.584m-4.804-7.49c-5.5-5.019-10.005-1.92-13.533.308 1.799 1.408 7.683 6.808 13.533-.308m-3.516-9.035c-3.59-5.305-7.975-3.625-11.37-2.477 1.221 1.54 5.057 7.24 11.37 2.477m-2.684-8.986c-1.228-3.791-4.135-3.55-6.359-3.455.463 1.13 1.77 5.201 6.36 3.455M69.253 140.9c-1.68-8.028 3.751-10.592 7.816-12.714.33 2.496 2.156 11.102-7.816 12.714" fill="#9F9CFF"/><path d="M64.181 132.655c-2.505-6.613 1.78-9.53 4.96-11.887.614 2.082 3.322 9.17-4.96 11.888m-4.51-10.606c-.4-4.82 2.963-5.921 5.494-6.864.011 1.483.455 6.65-5.494 6.864m-2.538-7.362c-.742-2.717 1.067-3.709 2.416-4.52.165.848.97 3.76-2.416 4.52" fill="#9F9CFF"/><path d="M218.124 64.854c.035-1.86.677-3.717 1.821-3.615 1.09.097 1.39 1.915 1.242 3.705 1.297-.952 2.761-1.438 3.365-.628 1.184 1.59-3.517 5.003-5.107 4.85-2.117.134-5.827-4.149-4.327-5.45.711-.62 1.93.072 3.006 1.138" fill="#CED3F8"/><path d="M209.168 82.141a.412.412 0 0 1-.216-.76c6.037-3.769 9.96-10.066 10.084-12.24a.41.41 0 1 1 .816.047c-.15 2.624-4.402 9.103-10.469 12.891a.406.406 0 0 1-.215.062" fill="#807DFB"/><path d="M218.063 67.608c.316-.037.65.186.932.412.079-.497.5-1.164 1.025-1.003.374.114.227.762.011 1.306.16-.074.348-.159.577-.198 1.634-.276-.316 1.48-1.19 1.29-.188-.042-.538-.178-.89-.353-.739-.367-1.076-1.38-.465-1.454" fill="#807DFB"/><path d="M52.5 186.287c-9.931-11.943-24.208-9.406-36.46 4.175 11.11 8.98 29.265 11.224 36.46-4.175" fill="#5652CC"/><path d="M20.48 190.15a.41.41 0 0 1-.067-.815c5.355-.904 12.568-1.525 18.933-2.073 5.238-.451 10.185-.877 13.085-1.38a.41.41 0 0 1 .139.809c-2.934.508-7.898.936-13.154 1.389-6.35.547-13.545 1.166-18.867 2.064a.418.418 0 0 1-.068.006" fill="#6B67E9"/><g transform="translate(0 111.531)"><mask fill="#fff" id="d"><use xlink:href="#c"/></mask><path d="M53.432 72.702c2.186-.917 8.268-22.649 4.256-24.073-3.125-1.11-4.377 2.235-4.739 3.486-.568 1.97-1.63 6.797-2.997 6.149-2.475-1.172 1.745-13.042 2.598-15.996.852-2.955 1.719-8.923-.482-11.473-2.2-2.55-3.383-3.325-4.593 1.928-1.21 5.252-2.323 15.891-4.585 12.708-2.262-3.184.495-11.25.404-16.45-.09-5.199-2-15.055-5.125-12.762-2.794 2.051-.375 17.197-2.914 16.458-2.032-.591-1.14-4.95-1.869-11.752-.729-6.802-1.484-13.215-5.51-13.122-3.234.076-1.86 4.325-1.513 7.998.346 3.673.638 8.807-1.133 7.738-1.771-1.07-1.755-19.205-6.997-20.266-3.467-.7-2.257 3.162-2.091 7.46.166 4.298-.09 5.824-.937 5.577-.846-.245-2-6.001-2.55-9.178-.55-3.179-2.412-7.54-5.353-7.101-2.939.437-1.537 5.434-.597 7.155.941 1.72 1.114 3.773.605 4.055-.51.283-4.014-5.17-6.51-2.879-2.496 2.291 1.356 7.17 4.574 8.105 3.215.937 7.527 2.315 7.183 3.507-.343 1.193-4.068.11-7.002-.744-2.935-.854-4.298-.511-4.527.284-.765 2.65 2.408 5.997 4.553 6.621 2.143.624 14.621 2.532 14.113 4.293-.508 1.761-5.111.545-7.481-.145-2.37-.69-7.9-2.3-8.753.655-.853 2.955 6.137 6.713 10.733 7.743 4.596 1.03 12.171 2.125 11.778 3.489-.394 1.363-6.618 1.523-9.496.685-2.878-.838-7.586-3.81-8.636-.173-1.05 3.637 3.131 5.654 8.782 7.298 2.36.687 8.222 2.328 11.974 1.233 4.271-1.247 6.597-1.16 6.925-.167.653 1.976-3.248 2.565-6.12 2.345-2.873-.22-11.755-1.45-11.356 3.1.4 4.551 7.806 3.688 10.817 3.641 3.01-.048 13.606-1.153 13.845 1.197.24 2.348-5.487 1.42-7.294 1.326-1.808-.095-5.618.92-4.797 2.421.82 1.502 18.916 9.263 22.817 7.626" fill="#807DFB" mask="url(#d)"/></g><path d="M148.576 107.125c5.08-2.605 18.235-10.876 20.914-13.823 2.678-2.947 14.029-24.261 14.029-24.261l9.811 10.157s-12.955 18.244-17.057 21.612c-4.102 3.368-25.894 9.512-25.894 9.512l-1.803-3.197Z" fill="#C4CAE9"/><path d="M149.948 110.651c-1.03.67-3.408 2.488-4.97 3.094-1.562.606-2.76-5.842-1.865-6.152.895-.31 3.785-.055 5.138-.592.455.841 1.697 3.65 1.697 3.65" fill="#EDCAC3"/><path d="M122.5 9.989c-.06-.19-.343-.122-.311.075l.832 5.553c.022.093.318.102.66.02.343-.081.603-.223.581-.316L122.5 9.989Zm-20.812 42.592c-5.264 2.204-8.286 4.145-7.986 5.405.293 1.23 3.705 1.609 9.163 1.244a48.9 48.9 0 0 1-1.177-6.65" fill="#423EAF"/><path d="M119.46 46.602c-7.118 2.012-13.266 4.092-17.772 5.979a48.95 48.95 0 0 0 1.177 6.65c4.902-.328 11.455-1.255 18.887-2.705-.95-3.42-1.71-6.744-2.293-9.924" fill="#5652CC"/><path d="M159.968 38.672c5.692-.41 9.264-.042 9.564 1.217.293 1.23-2.58 3.11-7.615 5.249a48.954 48.954 0 0 0-1.949-6.466" fill="#423EAF"/><path d="M141.414 41.363c7.258-1.42 13.683-2.34 18.554-2.69a48.957 48.957 0 0 1 1.95 6.465c-4.523 1.922-10.789 4.054-18.075 6.116a113.207 113.207 0 0 0-2.43-9.891" fill="#5652CC"/><path d="M141.414 41.363a275.42 275.42 0 0 0-11.03 2.4 275.268 275.268 0 0 0-10.925 2.84c.582 3.18 1.342 6.503 2.293 9.923 3.53-.69 7.256-1.496 11.099-2.413 3.842-.917 7.532-1.88 10.992-2.86a113.207 113.207 0 0 0-2.43-9.89" fill="#423EAF"/><path d="m145.427 104.134-1.241.296-15.064-63.211 1.241-.296z" fill="#5652CC"/><path d="M144.22 119.897a5.765 5.765 0 0 1-6.631-2.696c-.41-.726.025-1.644.835-1.837.536-.128 1.113.092 1.383.573a3.21 3.21 0 0 0 3.943 1.426c1.524-.577 2.322-2.263 1.944-3.849l-2.129-8.936 2.483-.592 2.116 8.882c.718 3.013-.972 6.162-3.945 7.029" fill="#362E94"/><path d="M123.524 14.976c-14.4 3.437-23.79 19.121-21.836 37.605 4.506-1.887 10.654-3.967 17.771-5.979-3.171-17.333-1.066-30.402 4.065-31.625" fill="#5652CC"/><path d="M119.46 46.602c3.44-.972 7.106-1.929 10.924-2.84l-6.86-28.785c-5.131 1.224-7.236 14.293-4.065 31.626" fill="#5652CC"/><path d="M130.384 43.762a273.618 273.618 0 0 1 11.623-2.514c-4.735-16.223-12.604-27.675-18.483-26.272-5.879 1.403-7.737 15.176-4.646 31.791a273.682 273.682 0 0 1 11.506-3.005" fill="#807DFB"/><path d="M118.878 46.767c-3.09-16.615-1.233-30.388 4.646-31.79-14.95 3.567-24.044 19.909-21.394 37.42 4.336-1.785 10.107-3.735 16.75-5.63" fill="#9F9CFF"/><path d="M102.143 52.391c-2.645-17.508 6.434-33.848 21.381-37.414-20.94 4.996-34.292 24.252-29.822 43.009-.309-1.295 2.896-3.312 8.441-5.595" fill="#807DFB"/><path d="M142.007 41.247c-4.735-16.221-12.604-27.673-18.483-26.27 14.95-3.568 30.435 6.91 35.968 23.732-4.675.364-10.703 1.231-17.485 2.54" fill="#9F9CFF"/><path d="M159.477 38.709c-5.535-16.819-21.007-27.3-35.953-23.733 20.94-4.997 41.539 6.157 46.009 24.913-.31-1.295-4.078-1.647-10.056-1.18" fill="#807DFB"/><path d="M150.075 111.155s-1.868-4.133-2.03-4.385c.698-.62 2.425-1.56 2.444-1.639.457.714 2.808 4.848 2.775 4.989-.395.23-3.19 1.035-3.19 1.035" fill="#D1D7F3"/><path d="M179.108 109.684c0 10.876.038 59.63.038 81.9h3.95c2.217-5.52 17.003-71.397 18.503-81.9h-22.49Z" fill="#423EAF"/><path d="M183.095 193.03v-1.446h-3.949c-.05 1.348-.3 2.07-.452 2.63 1.026.394 2.528-.625 4.401-1.184" fill="#F0CCC0"/><path d="M183.095 193.03c-1.873.559-3.375 1.578-4.4 1.183-.545.395-8.553 3.278-9.369 3.835-.833.572-.712 1.459.171 1.459 1.291 0 11.925-.47 11.925-.47.216.235.39.47.39.47h2.431c.725-1.257.529-5.031-1.148-6.477" fill="#362E94"/><path d="M212.132 193.03v-1.446h-3.949c-.05 1.348-.301 2.07-.452 2.63 1.027.394 2.528-.625 4.401-1.184" fill="#F0CCC0"/><path d="M212.132 193.03c-1.873.559-3.374 1.578-4.401 1.183-.544.395-8.553 3.278-9.368 3.835-.834.572-.711 1.459.172 1.459 1.29 0 11.925-.47 11.925-.47.215.235.389.47.389.47h2.431c.725-1.257.528-5.031-1.148-6.477" fill="#362E94"/><path d="M208.234 109.684c.224 4.126 3.898 59.63 3.898 81.9h-3.948c-2.219-5.52-20.943-71.397-22.442-81.9h22.492Z" fill="#5652CC"/><path d="M208.234 109.684h-29.126c.759-10.536.988-37.334 5.817-43.23 5.714-6.976 9.812-6.172 15.413-.567 7.554 7.56 9.054 35.012 7.896 43.797" fill="#DDE2F8"/><path d="m184.443 109.692-.819-.017c.225-10.633.475-16.533.658-20.84.101-2.394.181-4.284.233-6.318.196-7.807 3.415-16.466 5.161-19.12l.685.45c-1.394 2.12-4.821 10.506-5.027 18.69a362.478 362.478 0 0 1-.234 6.332c-.182 4.304-.432 10.2-.657 20.823" fill="#C4CAE9"/><path d="M196.055 54.97c-.173 1.408-.239 6.763.954 8.296-.86.653-5.397 1.573-8.79.212.729-.899 1.882-1.505.952-3.101-1.012-1.739-2.727.598-4.085-2.25-1.584-3.323-2.062-9.875-.492-11.7 1.757-2.044 5.264-4.541 10.003-1.757 3.867 2.271 1.81 7.44 1.458 10.3" fill="#F8D8D0"/><path d="M192.488 51.755c-1.076.016-.526-2.808-1.317-3.48-.934-.795-4.058-1.255-7.086-.92-3.028.333-4.917-3.62-2.983-5.262 1.938-1.642 3.7.62 5.143.138 1.68-.561 1.385-2.615 3.884-2.4 2.308.198 1.26 2.348 2.728 2.73 1.512.392 3.734-1.616 5.582.756 1.37 1.76-.69 2.788-.47 4.746.136 1.223 3.179 4.831-.102 6.362-3.283 1.529-2.524-1.826-2.35-3.213.171-1.387-.455-2.3-1.149-2.328-.69-.03-.344 2.85-1.88 2.87" fill="#20196F"/><path d="M196.576 61.974c-.804.403-5.824 1.285-7.55.277-.36.428-.63.814-.807 1.227 1.203.721 5.716 1.487 8.87-.136-.2-.546-.513-1.368-.513-1.368" fill="#C4CAE9"/><path d="M200.194 65.667c5.29 4.443 16.103 18.379 16.103 28.629s-8.664 19.96-11.508 22.805l-3.454-3.456c2.105-2.106 7.692-16.028 6.656-19.944-1.036-3.916-5.965-8.158-10.338-12.535-4.374-4.376-4.796-8.062-4.028-10.826.767-2.764 4.362-6.527 6.569-4.673" fill="#E7EEFF"/><path d="M201.335 113.645c-.997 0-1.65.038-2.531.92.882.462 5.985 2.536 5.985 2.536l-3.454-3.456Z" fill="#F7D3C9"/><path d="M204.816 117.306s-3.708-3.878-3.988-4.096c.537-.965 1.613-2.462 1.987-2.888.79.617 4.867 4.135 4.885 4.305-.35.412-2.884 2.679-2.884 2.679" fill="#D1D7F3"/><path d="M148.21 107.016c-.813-.174-3.862-1.633-3.463.309s1.829 4.122 2.362 2.543c.534-1.578 1.101-2.852 1.101-2.852" fill="#EDCAC3"/><path d="M143.611 107.491c.84 1.024 2.18.553 2.44 1.097.261.545 1.698.47 2.193 1.603.494 1.134.291 1.438.291 1.438-.573.392-1.844 1.269-3.103 1.916-.65-1.47-1.82-6.054-1.82-6.054" fill="#EDCAC3"/><path d="M121.869 194.272c-.001-1.841 2.273-3.683 6.82-5.09 4.548-1.405 10.507-2.108 16.468-2.108 5.959 0 11.918.703 16.464 2.109 4.547 1.406 6.823 3.247 6.823 5.09.002 1.842-2.273 3.685-6.823 5.09-4.545 1.406-10.504 2.109-16.463 2.109-5.96 0-11.92-.703-16.467-2.11-4.548-1.404-6.82-3.247-6.822-5.09" fill="#FFD03E"/><path d="M161.621 199.362c-4.545 1.407-10.504 2.11-16.463 2.11-5.96 0-11.92-.703-16.467-2.11-4.548-1.404-6.82-3.247-6.822-5.09v6.418c.001 1.842 2.274 3.684 6.822 5.09 4.547 1.405 10.506 2.108 16.467 2.108 5.96 0 11.918-.702 16.463-2.108 4.55-1.405 6.825-3.248 6.823-5.091v-6.416c.002 1.842-2.273 3.685-6.823 5.09" fill="#ED9F00"/><path d="m157.297 191.25-1.669-.582-1.367.361c-1.777-.564-3.696-.899-5.75-1-2.056-.1-3.87.058-5.443.474-1.579.418-2.308.89-2.2 1.422.113.53.91 1.204 2.377 2.02l-5.3 1.403c-1.293-.607-2.008-1.342-2.138-2.204l-4.283-.035c.17 1.12 1.314 2.128 3.445 3.027l-1.996.528 1.668.582 1.967-.52c1.863.594 3.834.947 5.918 1.058 2.084.111 3.915-.044 5.512-.467 1.591-.421 2.346-.908 2.24-1.457-.095-.549-.902-1.238-2.41-2.065l-.08-.028 5.135-1.36c1.14.52 1.855 1.093 2.145 1.72l4.214-.073c-.48-.918-1.61-1.731-3.376-2.436l1.391-.368Zm-10.689 1.805c-.649-.427-.962-.748-.958-.965.005-.214.316-.402.927-.564.61-.162 1.344-.218 2.194-.173.856.046 1.71.195 2.568.45l-4.73 1.252Zm-7.079 2.898 4.925-1.304c.718.451 1.072.793 1.09 1.026.005.232-.312.433-.947.601-.642.17-1.41.225-2.319.164-.902-.059-1.82-.22-2.749-.487Z" fill="#FFE357"/><path d="M161.621 189.182c-4.546-1.405-10.505-2.108-16.464-2.108-5.96 0-11.92.703-16.467 2.109-4.548 1.406-6.822 3.248-6.821 5.09 0 .94.598 1.881 1.784 2.764l39.561-7.31a27.047 27.047 0 0 0-1.593-.544" fill="#4C4C4C"/><path d="M148.495 201.398a75.32 75.32 0 0 1-3.337.074c-5.96 0-11.92-.703-16.467-2.11-4.548-1.404-6.82-3.247-6.822-5.09v6.418c.001 1.842 2.274 3.684 6.822 5.09 4.547 1.405 10.506 2.108 16.467 2.108 1.115 0 2.23-.025 3.337-.074v-6.416Z" fill="#FCBA06"/><path d="M125.207 185.36c0-1.841 2.273-3.684 6.82-5.09 4.548-1.405 10.507-2.108 16.468-2.108 5.959 0 11.918.703 16.465 2.108 4.546 1.406 6.823 3.248 6.823 5.09 0 1.843-2.274 3.686-6.823 5.09-4.545 1.407-10.505 2.11-16.464 2.11-5.96 0-11.92-.703-16.467-2.11-4.548-1.404-6.82-3.247-6.822-5.09" fill="#FFD03E"/><path d="M164.959 190.451c-4.544 1.406-10.504 2.108-16.463 2.108-5.96 0-11.92-.702-16.467-2.108-4.548-1.405-6.82-3.248-6.822-5.09v6.416c.001 1.843 2.274 3.685 6.822 5.09 4.547 1.406 10.507 2.109 16.467 2.109 5.96 0 11.919-.702 16.464-2.108 4.55-1.405 6.824-3.248 6.822-5.091v-6.417c.002 1.843-2.273 3.686-6.822 5.09" fill="#ED9F00"/><path d="m160.635 182.337-1.669-.582-1.367.362c-1.777-.564-3.695-.899-5.75-1-2.056-.1-3.87.057-5.443.474-1.578.418-2.308.89-2.2 1.422.113.53.91 1.204 2.377 2.02l-5.3 1.403c-1.293-.607-2.007-1.342-2.137-2.204l-4.283-.035c.17 1.12 1.314 2.128 3.444 3.027l-1.996.528 1.669.582 1.966-.52c1.863.594 3.834.947 5.918 1.058 2.084.11 3.915-.045 5.513-.467 1.59-.421 2.345-.908 2.239-1.457-.095-.549-.902-1.239-2.41-2.065l-.08-.028 5.135-1.36c1.14.52 1.855 1.093 2.146 1.72l4.214-.073c-.482-.918-1.611-1.731-3.377-2.436l1.391-.369Zm-10.688 1.806c-.65-.427-.963-.748-.959-.965.005-.214.316-.402.927-.564.61-.162 1.344-.218 2.194-.174.856.047 1.71.196 2.568.45l-4.73 1.253Zm-7.08 2.897 4.925-1.303c.718.45 1.072.793 1.09 1.026.006.232-.312.433-.947.601-.641.17-1.41.224-2.318.164a12.909 12.909 0 0 1-2.75-.488Z" fill="#FFE357"/><path d="M164.959 180.271c-4.546-1.406-10.505-2.11-16.464-2.11-5.96 0-11.92.704-16.467 2.11-4.548 1.405-6.822 3.248-6.82 5.09 0 .94.597 1.881 1.784 2.764l39.56-7.31a27.047 27.047 0 0 0-1.592-.544" fill="#4C4C4C"/><path d="M151.833 192.485c-1.106.05-2.222.074-3.337.074-5.96 0-11.92-.702-16.467-2.108-4.548-1.406-6.82-3.248-6.822-5.09v6.416c.001 1.843 2.274 3.685 6.822 5.09 4.547 1.406 10.507 2.109 16.467 2.109 1.115 0 2.23-.025 3.337-.074v-6.417Z" fill="#FCBA06"/><path d="M118.519 176.618c0-1.842 2.273-3.684 6.82-5.09 4.548-1.405 10.508-2.11 16.468-2.11 5.96 0 11.918.705 16.465 2.11 4.546 1.406 6.823 3.248 6.823 5.09 0 1.842-2.274 3.685-6.823 5.09-4.545 1.406-10.505 2.109-16.464 2.109-5.96 0-11.92-.703-16.467-2.109-4.548-1.405-6.82-3.248-6.822-5.09" fill="#FFD03E"/><path d="M158.272 181.708c-4.545 1.406-10.505 2.109-16.464 2.109-5.96 0-11.92-.703-16.467-2.109-4.548-1.405-6.82-3.248-6.822-5.09v6.417c.001 1.842 2.274 3.684 6.822 5.09 4.547 1.406 10.507 2.108 16.467 2.108 5.96 0 11.919-.702 16.464-2.108 4.55-1.405 6.824-3.248 6.823-5.09v-6.417c0 1.842-2.274 3.685-6.823 5.09" fill="#ED9F00"/><path d="m153.947 173.595-1.668-.583-1.368.362c-1.776-.564-3.695-.9-5.75-1-2.056-.101-3.87.057-5.442.473-1.58.418-2.309.891-2.201 1.422.114.53.91 1.205 2.377 2.02l-5.3 1.403c-1.293-.607-2.007-1.342-2.137-2.204l-4.283-.035c.17 1.12 1.314 2.128 3.444 3.027l-1.996.529 1.669.582 1.966-.52c1.863.593 3.834.947 5.918 1.058 2.084.11 3.916-.045 5.513-.468 1.59-.42 2.345-.908 2.239-1.457-.095-.549-.902-1.238-2.41-2.065l-.08-.028 5.135-1.36c1.14.52 1.856 1.093 2.145 1.721l4.215-.074c-.482-.917-1.611-1.73-3.377-2.436l1.391-.368Zm-10.688 1.805c-.65-.426-.963-.747-.958-.965.004-.213.315-.402.926-.564.61-.161 1.344-.217 2.194-.173.856.046 1.71.195 2.568.45l-4.73 1.252Zm-7.08 2.898 4.925-1.304c.719.451 1.072.793 1.09 1.026.006.232-.312.433-.947.601-.641.17-1.41.225-2.318.164a12.952 12.952 0 0 1-2.75-.487Z" fill="#FFE357"/><path d="M158.272 171.528c-4.547-1.405-10.506-2.109-16.465-2.109-5.96 0-11.92.704-16.467 2.109-4.548 1.406-6.822 3.248-6.821 5.09 0 .941.598 1.882 1.784 2.765l39.562-7.31a27.047 27.047 0 0 0-1.593-.545" fill="#4C4C4C"/><path d="M145.145 183.742c-1.106.05-2.222.075-3.337.075-5.96 0-11.92-.703-16.467-2.109-4.548-1.405-6.82-3.248-6.822-5.09v6.417c.001 1.842 2.274 3.684 6.822 5.09 4.548 1.406 10.507 2.108 16.467 2.108 1.115 0 2.23-.025 3.337-.074v-6.416Z" fill="#FCBA06"/><path d="M125.701 166.211c-.001-1.842 2.273-3.684 6.82-5.09 4.548-1.405 10.508-2.109 16.468-2.109 5.959 0 11.918.704 16.464 2.109 4.547 1.406 6.823 3.248 6.823 5.09.002 1.842-2.273 3.685-6.823 5.09-4.545 1.406-10.504 2.109-16.463 2.109-5.96 0-11.92-.703-16.467-2.109-4.548-1.405-6.82-3.248-6.822-5.09" fill="#FFD03E"/><path d="M165.453 171.302c-4.545 1.405-10.504 2.108-16.463 2.108-5.96 0-11.92-.703-16.467-2.109-4.548-1.405-6.821-3.248-6.822-5.09v6.417c.001 1.842 2.274 3.684 6.822 5.09 4.547 1.405 10.506 2.108 16.467 2.108 5.959 0 11.918-.702 16.463-2.108 4.55-1.405 6.825-3.248 6.823-5.09v-6.418c.002 1.842-2.273 3.685-6.823 5.09" fill="#ED9F00"/><path d="m161.129 163.188-1.669-.582-1.367.362c-1.777-.564-3.696-.9-5.75-1-2.056-.101-3.87.057-5.443.473-1.579.418-2.308.89-2.2 1.422.113.53.91 1.204 2.377 2.02l-5.3 1.403c-1.293-.607-2.008-1.342-2.138-2.204l-4.283-.035c.17 1.12 1.314 2.128 3.445 3.027l-1.996.529 1.668.582 1.966-.52c1.864.593 3.835.947 5.919 1.058 2.084.11 3.915-.045 5.512-.468 1.591-.421 2.346-.907 2.24-1.457-.095-.549-.902-1.238-2.41-2.065l-.08-.028 5.135-1.36c1.14.52 1.855 1.093 2.145 1.721l4.214-.074c-.48-.918-1.61-1.73-3.376-2.436l1.39-.368Zm-10.69 1.804c-.649-.427-.962-.747-.958-.965.005-.214.315-.402.927-.564.61-.161 1.344-.217 2.194-.173.856.046 1.71.195 2.568.45l-4.73 1.252Zm-7.078 2.9 4.925-1.304c.718.451 1.071.794 1.09 1.026.005.232-.312.433-.947.601-.642.17-1.41.225-2.319.164-.902-.058-1.82-.22-2.749-.487Z" fill="#FFE357"/><path d="M152.327 173.336c-1.106.05-2.222.074-3.337.074-5.96 0-11.92-.703-16.467-2.109-4.548-1.405-6.821-3.248-6.822-5.09v6.417c.001 1.842 2.274 3.684 6.822 5.09 4.547 1.405 10.506 2.108 16.467 2.108 1.115 0 2.23-.025 3.337-.074v-6.416Z" fill="#FCBA06"/><path d="m186.35 207.114-4.122 2.62c-1.53.971-3.349 1.544-5.399 1.616-7.96.276-16.44-7.12-18.898-16.483-1.825-6.954.173-13.069 4.581-15.87l4.123-2.62c-4.41 2.802-6.407 8.917-4.582 15.869 2.459 9.364 10.94 16.761 18.9 16.484 2.049-.071 3.868-.644 5.397-1.616" fill="#E19100"/><path d="M172.033 174.76c7.96-.276 16.44 7.12 18.898 16.484 2.46 9.363-2.02 17.21-9.978 17.486-7.96.277-16.441-7.12-18.9-16.484-2.458-9.363 2.019-17.21 9.98-17.486" fill="#FCBA06"/><path d="m174.818 178.319.598 2.27c2.418.573 4.713 2.891 5.46 5.735l-2.447.084c-.458-1.75-2.041-3.13-3.53-3.08-1.483.052-2.317 1.516-1.858 3.269.222.84.711 1.628 1.377 2.208.666.58 1.423.887 2.145.862 2.838-.098 5.857 2.536 6.734 5.873.745 2.835-.304 5.277-2.382 5.997l.551 2.098-2.448.086-.55-2.099c-2.408-.563-4.708-2.89-5.454-5.725l2.448-.085c.457 1.743 2.04 3.124 3.522 3.072 1.489-.053 2.324-1.516 1.867-3.26-.461-1.75-2.044-3.13-3.533-3.078-1.37.047-2.824-.532-4.098-1.642a8.542 8.542 0 0 1-2.625-4.223c-.747-2.844.303-5.277 2.373-6.005l-.597-2.272 2.447-.085Z" fill="#FFE357"/><path d="M83.624 120.757c5.076-6.533 11.386-9.597 21.83-7.52a730.863 730.863 0 0 0 18.493 3.438c.87 7.577-.565 22.046-11.814 25.494-6.463-6.798-28.51-21.412-28.51-21.412" fill="#E9EDF7"/><path d="M124.12 118.88c-.59 6.829-9.831 2.266-10.593 5.94-.54 2.61 5.144 4.937.902 9.515-1.46 1.575-13.436-12.154-17.386-13.578l-4.041 6.421c6.82 4.79 15.473 11.142 19.132 14.99 10.235-3.136 12.345-15.395 11.986-23.287" fill="#CED3F8"/><path d="M49.483 214.115c-7.54-3.75-6.616-10.855-4.61-17.484 2.004-6.628 30.876-79.24 45.252-79.632 14.377-.393 44.74 71.346 48.22 79.632 3.48 8.286 2.591 14.125-6.102 19.276-12.54 7.43-64.432 7.32-82.761-1.792" fill="#E9EDF7"/><path d="M98.308 145.183a.409.409 0 0 1-.326-.162c-3.059-4.027-2.7-8.309-2.353-12.449.413-4.918.802-9.563-4.052-13.98a.41.41 0 0 1 .55-.608c5.154 4.69 4.729 9.757 4.318 14.657-.35 4.17-.68 8.107 2.188 11.883a.41.41 0 0 1-.325.658" fill="#6B67E9"/><path d="M82.287 138.037a.41.41 0 0 1-.398-.508c.777-3.162 3.656-4.764 6.44-6.313 2.523-1.405 4.906-2.731 5.499-5.085.485-1.93-.274-4.423-2.32-7.622a.41.41 0 0 1 .689-.442c2.175 3.4 2.968 6.103 2.424 8.265-.678 2.697-3.33 4.173-5.895 5.6-2.63 1.465-5.35 2.978-6.042 5.793a.41.41 0 0 1-.397.312" fill="#6B67E9"/><path d="M97.042 121.168a.406.406 0 0 1-.264-.097c-1.774-1.507-5.62-3.745-11.44-1.801a.41.41 0 0 1-.26-.779c6.202-2.07 10.324.335 12.23 1.954a.41.41 0 0 1-.266.723" fill="#807DFB"/><path d="M138.346 196.631c-1.783-4.246-10.628-25.156-20.762-44.482 3.263 8.729 24.487 47.97 13.597 56.472-5.56 4.34-13.3.11-16.372.436-3.071.327-6.23 6.105-18.603 6.759-12.168.643-17.51-4.36-21.866-5.015-2.698-.405-18.721 11.273-30.827-5.088.299 3.376 1.9 6.378 5.97 8.402 18.33 9.113 70.222 9.222 82.761 1.792 8.693-5.15 9.582-10.99 6.102-19.276" fill="#D1D7F3"/><path d="M98.675 163.917c-1.27 0-3.503-1.694-6.084-1.688-2.955.006-5.264 1.855-10.304 1.47s-6.02-1.787-7.416-2.314c-1.74-.657-3.238-.273-5.059 0-.798 1.846-2.771 8.034-3.709 11.025 1.82-.273 3.319-.657 5.059 0 1.396.526 2.376 1.929 7.416 2.314 5.04.385 7.36-1.73 10.304-1.47 5.081.446 8.835 3.553 8.835 3.553s1.25-10.819.958-12.89" fill="#FFF"/><path d="m60.367 187.29 3.77 5.187c3.17 4.362 2.705 11.222-1.861 17.878-6.43 9.367-18.59 14.831-27.108 12.19-2.469-.767-4.366-2.13-5.66-3.91l-3.769-5.189c1.292 1.777 3.19 3.141 5.658 3.91 8.524 2.64 20.682-2.823 27.112-12.19 4.564-6.654 5.027-13.514 1.858-17.877" fill="#ED9F00"/><path d="M54.714 183.381c8.518 2.644 10.22 12.417 3.795 21.786-6.43 9.367-18.588 14.83-27.112 12.19-8.517-2.643-10.226-12.409-3.799-21.777 6.429-9.368 18.593-14.842 27.116-12.199" fill="#FFD03E"/><path d="m52.116 187.588-1.535 2.29c1.992 1.385 2.189 4.337.27 7.191l-2.644-.803c1.183-1.756.836-3.587-.772-4.076-1.608-.488-3.876.546-5.054 2.3-.574.857-.812 1.752-.667 2.523.146.77.655 1.324 1.436 1.56 3.062.934 3.718 4.425 1.466 7.78-1.924 2.864-5.336 4.705-8.206 4.623l-1.418 2.112-2.642-.804 1.417-2.113c-1.987-1.394-2.177-4.334-.253-7.198l2.634.802c-1.186 1.764-.843 3.594.766 4.083 1.608.488 3.876-.547 5.06-2.311 1.177-1.756.834-3.586-.774-4.073-1.479-.45-2.443-1.512-2.721-2.985-.28-1.462.173-3.166 1.267-4.797 1.919-2.857 5.33-4.712 8.195-4.618l1.534-2.29 2.64.804Z" fill="#FFE357"/><g transform="translate(203.586 229.057)"><mask fill="#fff" id="f"><use xlink:href="#e"/></mask><path d="M6.9.02 2.31.954a1.025 1.025 0 0 0-.768.68L.053 6.078c-.116.347-.039.73.204 1.005l3.102 3.513c.243.275.613.399.972.326l4.59-.932c.359-.073.652-.332.768-.68l1.489-4.445a1.027 1.027 0 0 0-.204-1.006L7.872.346A1.025 1.025 0 0 0 6.9.021" fill="#6B67E9" mask="url(#f)"/></g><path d="m35.708 61.967-5.693 4.553a1.027 1.027 0 0 0 .267 1.757l6.785 2.659a1.025 1.025 0 0 0 1.387-1.11l-1.092-7.21a1.025 1.025 0 0 0-1.654-.649" fill="#6B67E9"/><path d="m225.124 1.237 1.489 7.14a1.025 1.025 0 0 0 1.686.555l5.433-4.86a1.027 1.027 0 0 0-.363-1.74l-6.922-2.28a1.026 1.026 0 0 0-1.323 1.185" fill="#FFD03E"/></g></svg>