<svg xmlns="http://www.w3.org/2000/svg" xmlns:xlink="http://www.w3.org/1999/xlink" width="580" height="450" xmlns:v="https://vecta.io/nano"><style><![CDATA[.B{fill:#807dfb}.C{fill:#5652cc}.D{fill:#ffd03e}.E{fill:#ffe357}.F{fill:#6b67e9}.G{fill:#ed9f00}.H{fill:#fcba06}.I{fill:#362e94}.J{fill:#423eaf}.K{fill:#e9edf7}.L{fill:#9f9cff}.M{fill:#c4cae9}.N{fill:#d1d7f3}.O{fill:#4c4c4c}]]></style><defs><path id="A" d="M0 0h90.679v83.76H0z"/><path id="B" d="M0 0h76.424v94.028H0z"/><path id="C" d="M0 0h14.52v14.134H0z"/><linearGradient x1="23.959%" y1="40.48%" x2="295.885%" y2="38.309%" id="D"><stop stop-color="#f3f2fc" offset="0"/><stop stop-color="#fff" offset="100%"/></linearGradient><filter x="0" y="0" width="100%" height="100%" id="E"><feGaussianBlur in="SourceGraphic"/></filter><path id="F" d="M361.852 266.618c-.002-2.405 2.951-4.81 8.855-6.646s13.64-2.754 21.378-2.754 15.474.919 21.376 2.754 8.858 4.24 8.858 6.646-2.951 4.812-8.858 6.647c-5.9 1.836-13.637 2.754-21.374 2.754s-15.475-.918-21.379-2.754-8.855-4.241-8.856-6.647"/></defs><g fill="none" fill-rule="evenodd"><path d="M570 1v286.58L418.574 311l-281.318-26.555-53.76-3.276-36.083-36.036c-44.55-44.51-44.55-116.644.0-161.138L135.521 1H570z" fill="#fff"/><path fill="#beb9e4" opacity=".4" d="M259 450h-3.137L124 318l3.61.463z"/><path fill="#b4afdc" d="M275 450h-3.132L149 330l3.605.462z"/><g fill="#7c70d8"><path d="M35.845 245.975c-43.614-44.447-43.614-116.756.0-161.187L123 0h-4.435L33.628 82.529c-44.837 45.677-44.837 120.012.0 165.706L43.214 258h4.435l-11.804-12.025z"/><path d="M49 256.5a4.5 4.5.0 11-9 0 4.5 4.5.0 019 0"/></g><path d="M580 0v450H338.527L191.17 335.19l-51.612-50.236-67.337-65.54c-30.961-30.136-30.961-78.984.0-109.12L189.646.0H580z" fill="url(#D)" filter="url(#E)"/><g class="K"><path d="M242.892 312.34c0-3.332 16.005-6.033 35.748-6.033s35.747 2.701 35.747 6.033-16.004 6.032-35.747 6.032-35.748-2.7-35.748-6.032M402.1 284.397c0-2.17 21.926-3.928 48.973-3.928s48.972 1.759 48.972 3.928-21.926 3.928-48.972 3.928-48.972-1.758-48.972-3.928m8.323 14.026c0-1.575 14.838-2.851 33.142-2.851s33.142 1.276 33.142 2.851-14.838 2.852-33.142 2.852-33.142-1.277-33.142-2.852"/><path d="M262.84 300.566c0-6.95 37.936-12.584 84.732-12.584s84.732 5.634 84.732 12.584-37.936 12.584-84.732 12.584-84.732-5.634-84.732-12.584"/></g><path d="M470.271 197.823c14.37-.833 20.382-12.886 17.063-29.509-12.817 3.344-24.527 15.658-17.063 29.51m1.878 41.696c-1.877 17.578 11.52 27.282 32.327 26.601-1.477-16.202-14.046-32.863-32.327-26.6" class="B"/><path d="M500.364 263.58a.527.527.0 01-.314-.104c-4.989-3.68-11.221-9.109-16.72-13.898-4.52-3.935-8.788-7.652-11.494-9.63a.53.53.0 11.625-.855c2.742 2.006 7.027 5.737 11.563 9.687 5.484 4.776 11.7 10.19 16.655 13.844a.53.53.0 01-.315.955" class="F"/><g transform="translate(455.865 162.604)"><mask id="G" fill="#fff"><use xlink:href="#A"/></mask><path d="M8.105 77.158C1.563 72.51-2.282 59.708 1.48 52.776s11.066-5.25 12.06-9.57-4.036-12.33-.292-17.075c6.656-8.434 18.387 4.83 23.927-.88S35.71 12.564 40.051 6.414s13.39 5.359 21.173.49 26.188-12.19 29.14-1.06c2.334 8.796-9.07 7.066-10.562 10.7-1.701 4.147 3.3 6.935.424 11.093-4.064 5.876-12.825 2.3-15.363 7.674s3.747 10.07-2.897 14.227c-8.226 5.146-15.709-8.221-22.24 2.731s9.78 12.954 6.702 20.284c-3.36 8-17.068.418-18.013 6.25-1.286 7.936-10.165 5.567-20.311-1.645" mask="url(#G)" class="I"/></g><path d="M462.338 238.912a.53.53.0 01-.47-.772c.268-.522.462-1.434.686-2.49.532-2.5 1.26-5.923 3.821-7.525 1.318-.825 2.775-1.455 4.184-2.064 2.297-.993 4.671-2.02 6.54-3.924 3.855-3.928 4.706-8.271 5.457-12.104.572-2.917 1.112-5.672 2.917-7.698 1.675-1.88 3.447-1.786 5.322-1.687 1.757.093 3.576.19 5.8-1.201 2.134-1.335 2.572-2.514 3.08-3.878.578-1.552 1.232-3.31 4.457-5.328 2.76-1.726 4.659-1.609 6.495-1.495 1.775.11 3.451.214 6.058-1.25 5.062-2.845 6.777-6.726 8.028-9.56.81-1.832 1.449-3.278 2.685-3.966 2.816-1.567 4.848-.074 4.934-.01a.53.53.0 01-.638.845c-.06-.045-1.587-1.131-3.781.09-.927.515-1.503 1.818-2.231 3.469-1.313 2.97-3.11 7.037-8.479 10.054-2.878 1.618-4.792 1.5-6.641 1.384-1.747-.107-3.397-.21-5.869 1.336-2.92 1.827-3.482 3.338-4.026 4.8-.527 1.416-1.072 2.88-3.51 4.406-2.508 1.568-4.586 1.457-6.418 1.361-1.754-.092-3.139-.166-4.476 1.334-1.612 1.81-2.102 4.307-2.668 7.198-.78 3.978-1.663 8.487-5.74 12.641-2.014 2.052-4.486 3.121-6.876 4.155-1.436.62-2.793 1.207-4.042 1.989-2.182 1.365-2.828 4.405-3.348 6.848-.24 1.13-.447 2.106-.78 2.754a.53.53.0 01-.471.288" class="C"/><g class="L"><path d="M271.083 170.42c3.118-5.05-.323-9.47-2.582-11.915-.836 1.618-3.839 8.361 2.582 11.915"/><path d="M292.035 218.811a.528.528 0 0 1-.408-.192c-7.816-9.454-17.514-27.289-21.295-48.991a.529.529 0 1 1 1.042-.182c3.746 21.499 13.34 39.15 21.068 48.499a.529.529 0 0 1-.407.866m-6.982-5.56c-10.599-5.6-16.396 1.029-21.018 5.91 3.373 1.468 14.724 7.508 21.018-5.91m-6.22-9.657c-7.121-6.471-12.953-2.475-17.522.397 2.33 1.815 9.948 8.778 17.522-.397m-4.552-11.65c-4.649-6.84-10.325-4.674-14.721-3.193 1.58 1.985 6.547 9.336 14.721 3.193m-3.475-11.585c-1.59-4.888-5.354-4.578-8.233-4.455.6 1.458 2.29 6.706 8.233 4.455m18.859 28.667c-2.175-10.35 4.857-13.658 10.12-16.393.426 3.219 2.791 14.314-10.12 16.393m-6.567-10.63c-3.243-8.527 2.304-12.289 6.423-15.327.794 2.684 4.3 11.822-6.423 15.327m-5.839-13.675c-.518-6.213 3.836-7.634 7.114-8.85.014 1.913.589 8.575-7.114 8.85m-3.286-9.491c-.96-3.503 1.382-4.782 3.128-5.83.213 1.095 1.255 4.849-3.128 5.83"/></g><path d="M482.415 110.977c.045-2.397.876-4.793 2.358-4.66 1.41.125 1.799 2.469 1.608 4.776 1.679-1.227 3.575-1.854 4.357-.809 1.533 2.05-4.554 6.45-6.613 6.252-2.74.174-7.544-5.349-5.602-7.027.921-.798 2.5.094 3.892 1.468" fill="#ced3f8"/><g class="B"><path d="M470.819 133.266a.528.528.0 01-.28-.98c7.817-4.86 12.896-12.979 13.057-15.78a.529.529.0 111.057.06c-.194 3.382-5.7 11.736-13.555 16.62a.528.528.0 01-.28.08"/><path d="M482.336 114.528c.41-.048.841.24 1.207.532.101-.642.647-1.502 1.326-1.294.484.148.295.983.015 1.684a2.9 2.9.0 01.747-.255c2.116-.356-.41 1.909-1.54 1.662-.244-.053-.698-.23-1.153-.455-.957-.473-1.393-1.78-.602-1.874"/></g><path d="M267.974 267.544c-12.858-15.399-31.343-12.126-47.206 5.384 14.383 11.578 37.89 14.47 47.206-5.384" class="C"/><path d="M226.517 272.524a.529.529.0 01-.087-1.05c6.933-1.165 16.272-1.966 24.513-2.673 6.782-.581 13.187-1.13 16.941-1.778a.53.53.0 01.18 1.043c-3.798.655-10.226 1.206-17.03 1.79-8.221.705-17.538 1.504-24.428 2.661a.544.544.0 01-.089.007" class="F"/><g transform="translate(200 171.159)"><mask id="H" fill="#fff"><use xlink:href="#B"/></mask><path d="M69.18 93.737c2.832-1.183 10.706-29.202 5.51-31.039-4.044-1.43-5.666 2.883-6.134 4.495-.736 2.54-2.11 8.764-3.881 7.928-3.205-1.51 2.26-16.815 3.364-20.624s2.225-11.504-.624-14.792-4.38-4.287-5.946 2.486-3.009 20.489-5.937 16.384.64-14.504.523-21.208-2.59-19.412-6.635-16.456c-3.618 2.645-.486 22.173-3.774 21.22-2.63-.762-1.476-6.383-2.42-15.152s-1.921-17.038-7.135-16.918c-4.186.098-2.408 5.576-1.958 10.311s.826 11.356-1.467 9.978-2.272-24.763-9.058-26.13c-4.49-.904-2.924 4.076-2.708 9.618s-.117 7.51-1.213 7.191-2.589-7.737-3.303-11.834-3.122-9.72-6.93-9.156-1.99 7.007-.772 9.226 1.442 4.864.782 5.229-5.197-6.667-8.428-3.712 1.756 9.243 5.921 10.45 9.747 2.984 9.301 4.521-5.267.142-9.066-.959-5.564-.659-5.862.366c-.99 3.418 3.119 7.732 5.895 8.537s18.932 3.264 18.274 5.534-6.618.703-9.687-.186-10.228-2.965-11.333.844 7.946 8.656 13.897 9.983 15.759 2.74 15.25 4.499-8.57 1.963-12.295.884-9.822-4.912-11.182-.224 4.055 7.29 11.371 9.41c3.057.886 10.646 3.001 15.503 1.589 5.53-1.608 8.542-1.494 8.966-.215.846 2.548-4.206 3.307-7.924 3.024s-15.219-1.87-14.702 3.997 10.106 4.755 14.005 4.694 17.616-1.486 17.925 1.543-7.103 1.832-9.444 1.71-7.274 1.187-6.21 3.121S64.13 95.847 69.18 93.737" mask="url(#H)" class="B"/></g><path d="M391.565 165.403c6.56-3.363 23.554-14.039 27.014-17.843s18.121-31.316 18.121-31.316l12.674 13.11s-16.734 23.55-22.032 27.897-33.448 12.278-33.448 12.278l-2.33-4.126z" class="M"/><path d="M393.336 169.954c-1.331.866-4.402 3.211-6.42 3.994s-3.565-7.541-2.409-7.941 4.89-.071 6.638-.764c.587 1.085 2.191 4.71 2.191 4.71" fill="#edcac3"/><path d="M357.882 40.02a.21.21 0 0 0-.403.096l1.075 7.169c.029.12.411.131.854.026s.778-.289.75-.409l-2.276-6.882zm-26.884 54.977c-6.8 2.846-10.703 5.352-10.315 6.977.378 1.587 4.786 2.077 11.835 1.607a63.079 63.079 0 0 1-1.52-8.584" class="J"/><path d="M353.954 87.28c-9.194 2.597-17.136 5.282-22.956 7.717.299 2.818.8 5.685 1.52 8.584 6.333-.422 14.797-1.619 24.397-3.492a146.013 146.013.0 01-2.961-12.809" class="C"/><path d="M406.28 77.044c7.353-.529 11.967-.055 12.354 1.571.379 1.587-3.334 4.013-9.837 6.775a63.157 63.157.0 00-2.517-8.346" class="J"/><path d="M382.313 80.517c9.376-1.831 17.675-3.02 23.967-3.473a63.16 63.16.0 012.517 8.346c-5.841 2.481-13.935 5.233-23.346 7.894a146.042 146.042.0 00-3.138-12.767" class="C"/><path d="M382.313 80.517c-4.533.886-9.317 1.921-14.248 3.097a355.775 355.775.0 00-14.111 3.666 146.013 146.013.0 002.961 12.81c4.56-.89 9.373-1.931 14.337-3.115a355.53 355.53.0 0014.199-3.69 146.042 146.042.0 00-3.138-12.768" class="J"/><path d="m387.497 161.542-1.604.383-19.458-81.594 1.604-.382z" class="C"/><path d="M385.936 181.889a7.45 7.45 0 0 1-8.564-3.48c-.53-.937.033-2.122 1.079-2.37.693-.166 1.437.117 1.786.738a4.147 4.147 0 0 0 5.093 1.841c1.968-.745 3-2.921 2.512-4.968l-2.75-11.534 3.206-.765 2.734 11.464c.928 3.89-1.256 7.955-5.096 9.074" class="I"/><g class="C"><path d="M359.204 46.457c-18.602 4.436-30.73 24.682-28.206 48.54 5.82-2.435 13.762-5.12 22.956-7.717-4.097-22.374-1.378-39.242 5.25-40.823"/><path d="M353.954 87.28a356.04 356.04 0 0 1 14.111-3.666l-8.86-37.157c-6.629 1.58-9.348 18.45-5.251 40.823"/></g><path d="M368.065 83.614a353.656 353.656.0 0115.014-3.245c-6.116-20.941-16.281-35.723-23.875-33.912s-9.993 19.59-6.001 41.036a353.724 353.724.0 0114.862-3.879" class="B"/><path d="M353.203 87.493c-3.992-21.447-1.593-39.225 6.001-41.036-19.31 4.605-31.057 25.7-27.636 48.303 5.601-2.305 13.055-4.82 21.635-7.267" class="L"/><path d="M331.586 94.753c-3.417-22.6 8.31-43.691 27.618-48.296-27.048 6.45-44.295 31.306-38.521 55.517-.4-1.672 3.74-4.274 10.903-7.221" class="B"/><path d="M383.078 80.369c-6.116-20.941-16.28-35.723-23.874-33.912 19.31-4.605 39.314 8.918 46.46 30.633-6.038.47-13.825 1.59-22.586 3.279" class="L"/><path d="M405.645 77.092c-7.15-21.71-27.133-35.24-46.44-30.635 27.048-6.45 53.655 7.947 59.43 32.158-.4-1.672-5.268-2.126-12.99-1.523" class="B"/><path d="M393.5 170.605l-2.622-5.66c.902-.8 3.132-2.013 3.157-2.115.59.921 3.628 6.257 3.584 6.439-.509.297-4.119 1.336-4.119 1.336" class="N"/><path d="M431.003 168.706l.05 105.717h5.1c2.866-7.127 21.965-92.16 23.902-105.717h-29.052z" class="J"/><path d="M436.154 276.29v-1.867h-5.101c-.066 1.74-.39 2.672-.585 3.394 1.326.51 3.266-.806 5.686-1.528" fill="#f0ccc0"/><path d="M436.154 276.29c-2.42.72-4.36 2.036-5.686 1.527-.703.51-11.047 4.23-12.1 4.95-1.077.738-.92 1.882.22 1.882 1.669.0 15.405-.605 15.405-.605.279.302.504.605.504.605h3.14c.936-1.622.682-6.493-1.483-8.36" class="I"/><path d="M473.661 276.29v-1.867h-5.1c-.067 1.74-.39 2.672-.585 3.394 1.326.51 3.266-.806 5.685-1.528" fill="#f0ccc0"/><path d="M473.661 276.29c-2.42.72-4.359 2.036-5.685 1.527-.703.51-11.048 4.23-12.101 4.95-1.077.738-.919 1.882.222 1.882 1.666.0 15.404-.605 15.404-.605.277.302.503.605.503.605h3.14c.936-1.622.682-6.493-1.483-8.36" class="I"/><path d="M468.626 168.706c.29 5.326 5.035 76.972 5.035 105.717h-5.1c-2.866-7.127-27.052-92.16-28.988-105.717h29.053z" class="C"/><path d="M468.626 168.706h-37.623c.98-13.6 1.276-48.19 7.514-55.801 7.382-9.005 12.675-7.967 19.91-.732 9.757 9.757 11.694 45.193 10.2 56.533" fill="#dde2f8"/><path d="M437.895 168.717l-1.058-.023.85-26.9.3-8.155c.254-10.078 4.411-21.255 6.668-24.68l.883.582c-1.8 2.734-6.227 13.56-6.493 24.125l-.302 8.172-.848 26.879" class="M"/><path d="M452.894 98.082c-.224 1.817-.309 8.729 1.232 10.707-1.11.844-6.97 2.03-11.354.275.941-1.161 2.43-1.943 1.23-4.004-1.308-2.244-3.523.773-5.277-2.905-2.046-4.287-2.664-12.745-.635-15.101 2.269-2.638 6.799-5.862 12.92-2.268 4.996 2.932 2.338 9.603 1.884 13.296" fill="#f8d8d0"/><path d="M448.286 93.93c-1.39.022-.68-3.623-1.7-4.49-1.207-1.026-5.242-1.62-9.154-1.188s-6.352-4.672-3.853-6.793 4.779.802 6.643.18c2.171-.726 1.789-3.377 5.017-3.1 2.982.257 1.629 3.032 3.524 3.524 1.953.507 4.823-2.085 7.21.977 1.77 2.271-.891 3.599-.608 6.126.177 1.578 4.108 6.236-.13 8.212s-3.26-2.358-3.037-4.148-.587-2.97-1.483-3.005-.444 3.679-2.429 3.706" fill="#20196f"/><path d="M453.567 107.122c-1.04.52-7.523 1.658-9.753.357-.464.553-.813 1.051-1.042 1.585 1.554.93 7.384 1.919 11.458-.177l-.663-1.765" class="M"/><path d="M458.24 111.888c6.833 5.736 20.8 23.724 20.8 36.955s-11.19 25.764-14.864 29.437l-4.461-4.461c2.719-2.72 9.935-20.69 8.597-25.744s-7.705-10.53-13.354-16.18-6.195-10.406-5.204-13.974 5.636-8.425 8.486-6.033" fill="#e7eeff"/><path d="M459.715 173.819c-1.288.0-2.131.049-3.27 1.188 1.139.595 7.73 3.273 7.73 3.273l-4.46-4.461z" fill="#f7d3c9"/><path d="M464.211 178.545l-5.151-5.288c.693-1.245 2.083-3.177 2.565-3.728 1.022.797 6.288 5.339 6.311 5.558-.453.531-3.725 3.458-3.725 3.458" class="N"/><g fill="#edcac3"><path d="M391.092 165.262c-1.051-.224-4.99-2.108-4.474.399s2.363 5.32 3.052 3.283l1.422-3.682"/><path d="M385.151 165.876c1.086 1.321 2.816.713 3.153 1.416s2.192.605 2.83 2.068.377 1.857.377 1.857l-4.008 2.473c-.84-1.898-2.352-7.814-2.352-7.814"/></g><path d="M357.518 278.256c-.001-2.405 2.951-4.81 8.855-6.646s13.64-2.754 21.379-2.754 15.473.918 21.375 2.754 8.858 4.24 8.858 6.646-2.951 4.812-8.858 6.647c-5.9 1.836-13.637 2.754-21.374 2.754s-15.475-.918-21.379-2.754-8.854-4.241-8.856-6.647" class="D"/><path d="M409.127 284.903c-5.9 1.836-13.637 2.753-21.374 2.753s-15.475-.917-21.379-2.753-8.855-4.241-8.856-6.647v8.38c.001 2.405 2.953 4.811 8.856 6.646s13.64 2.753 21.38 2.753 15.473-.916 21.373-2.752c5.907-1.835 8.86-4.242 8.858-6.648v-8.379c.002 2.406-2.951 4.812-8.858 6.647" class="G"/><path d="M403.513 274.308l-2.167-.76-1.775.473c-2.306-.737-4.797-1.174-7.465-1.306s-5.024.075-7.066.618c-2.05.546-2.997 1.164-2.857 1.857.148.692 1.182 1.573 3.086 2.639l-6.88 1.831c-1.679-.792-2.606-1.753-2.775-2.878l-5.56-.046c.22 1.463 1.705 2.78 4.471 3.953l-2.591.69 2.166.76 2.553-.68c2.419.777 4.977 1.238 7.683 1.383s5.083-.058 7.157-.61c2.065-.55 3.045-1.186 2.906-1.903-.122-.717-1.17-1.617-3.127-2.697l-.105-.037 6.668-1.775c1.48.68 2.408 1.427 2.784 2.247l5.472-.097c-.625-1.198-2.092-2.26-4.384-3.18l1.806-.482zm-13.877 2.358c-.843-.557-1.25-.976-1.244-1.26s.41-.525 1.203-.736 1.745-.285 2.85-.227 2.22.255 3.333.588l-6.142 1.635zm-9.19 3.784l6.393-1.702c.933.589 1.391 1.035 1.415 1.34.008.302-.405.565-1.23.784-.832.222-1.83.294-3.01.214a16.688 16.688 0 0 1-3.568-.636z" class="E"/><path d="M409.127 271.61c-5.902-1.836-13.639-2.754-21.375-2.754s-15.475.918-21.379 2.754-8.856 4.24-8.855 6.646c0 1.229.776 2.457 2.316 3.61l51.361-9.545a34.975 34.975 0 0 0-2.068-.711" class="O"/><path d="M392.085 287.56a97.22 97.22 0 0 1-4.332.097c-7.738 0-15.475-.918-21.379-2.754s-8.855-4.241-8.856-6.647v8.38c.001 2.405 2.952 4.81 8.856 6.646s13.64 2.753 21.38 2.753a97.41 97.41 0 0 0 4.331-.096v-8.379z" class="H"/><use xlink:href="#F" class="D"/><path d="M413.46 273.265c-5.9 1.836-13.636 2.754-21.373 2.754s-15.475-.918-21.379-2.754-8.855-4.241-8.856-6.647v8.38c.001 2.405 2.952 4.811 8.856 6.646s13.64 2.753 21.379 2.753 15.473-.916 21.374-2.752c5.907-1.835 8.86-4.242 8.858-6.648v-8.379c.002 2.406-2.951 4.812-8.858 6.647" class="G"/><path d="M407.847 262.67l-2.167-.76-1.775.473c-2.307-.736-4.798-1.174-7.466-1.305s-5.023.074-7.065.618c-2.05.545-2.997 1.163-2.857 1.857.148.691 1.182 1.572 3.086 2.638l-6.88 1.831c-1.679-.792-2.607-1.752-2.775-2.878l-5.56-.046c.22 1.463 1.705 2.78 4.471 3.953l-2.592.69 2.167.76 2.552-.68c2.42.777 4.978 1.238 7.684 1.383s5.083-.058 7.157-.61c2.065-.55 3.044-1.186 2.906-1.903-.122-.717-1.17-1.617-3.128-2.696l-.105-.037 6.668-1.776c1.48.68 2.409 1.427 2.785 2.247l5.472-.096c-.626-1.199-2.092-2.26-4.385-3.181l1.807-.481zm-13.877 2.358c-.843-.557-1.25-.976-1.244-1.26s.41-.525 1.203-.736 1.745-.285 2.849-.227a14.34 14.34 0 0 1 3.334.588l-6.142 1.635zm-9.19 3.784l6.393-1.702c.933.589 1.391 1.036 1.414 1.34.008.303-.404.565-1.229.784-.832.222-1.83.294-3.01.214a16.67 16.67 0 0 1-3.568-.636z" class="E"/><path d="M413.46 259.972c-5.901-1.835-13.638-2.754-21.375-2.754s-15.474.919-21.378 2.754-8.857 4.241-8.855 6.646c0 1.229.776 2.458 2.316 3.61l51.36-9.545a34.975 34.975 0 0 0-2.067-.711" class="O"/><path d="M396.42 275.922a96.901 96.901 0 0 1-4.333.097c-7.738 0-15.475-.918-21.379-2.754s-8.855-4.241-8.856-6.647v8.38c.001 2.405 2.952 4.811 8.856 6.646s13.64 2.753 21.379 2.753a97.22 97.22 0 0 0 4.332-.096v-8.379z" class="H"/><path d="M353.169 255.202c-.001-2.405 2.951-4.81 8.855-6.647s13.64-2.754 21.379-2.754 15.473.92 21.375 2.754 8.858 4.241 8.858 6.647-2.95 4.812-8.858 6.647c-5.9 1.836-13.637 2.753-21.374 2.753s-15.475-.917-21.379-2.753-8.854-4.241-8.856-6.647" class="D"/><path d="M404.778 261.85c-5.9 1.835-13.637 2.752-21.374 2.752s-15.475-.917-21.379-2.753-8.854-4.241-8.856-6.647v8.38c.002 2.405 2.953 4.81 8.856 6.646s13.641 2.753 21.38 2.753 15.473-.917 21.373-2.752c5.907-1.835 8.86-4.242 8.858-6.648v-8.38c.002 2.407-2.951 4.813-8.858 6.648" class="G"/><path d="M399.164 251.254l-2.166-.76-1.775.473c-2.307-.737-4.798-1.174-7.466-1.306s-5.024.075-7.065.618c-2.05.546-2.997 1.164-2.858 1.857.148.692 1.182 1.573 3.087 2.639l-6.88 1.831c-1.68-.792-2.607-1.753-2.776-2.878l-5.56-.046c.22 1.463 1.705 2.779 4.471 3.953l-2.591.69 2.166.76 2.553-.68c2.419.777 4.977 1.238 7.683 1.383s5.083-.059 7.157-.61c2.065-.55 3.045-1.186 2.907-1.903-.123-.717-1.17-1.618-3.128-2.697l-.105-.037 6.668-1.775c1.48.68 2.408 1.427 2.785 2.247l5.47-.097c-.624-1.198-2.09-2.26-4.383-3.18l1.806-.482zm-13.877 2.358c-.842-.557-1.25-.976-1.243-1.26s.409-.525 1.202-.737 1.746-.284 2.85-.226c1.11.06 2.22.255 3.333.588l-6.142 1.635zm-9.19 3.784l6.393-1.703c.933.59 1.392 1.036 1.415 1.34.008.303-.405.566-1.23.785-.832.222-1.83.293-3.01.214a16.688 16.688 0 0 1-3.568-.636z" class="E"/><path d="M404.778 248.555c-5.902-1.835-13.639-2.754-21.375-2.754s-15.475.92-21.379 2.754-8.856 4.242-8.855 6.647c.001 1.229.776 2.457 2.317 3.61l51.36-9.545a34.975 34.975 0 0 0-2.068-.712" class="O"/><path d="M387.736 264.506a96.901 96.901 0 0 1-4.332.096c-7.738 0-15.474-.917-21.379-2.753s-8.854-4.241-8.856-6.647v8.38c.002 2.405 2.953 4.81 8.856 6.646s13.641 2.753 21.38 2.753a97.22 97.22 0 0 0 4.331-.096v-8.38z" class="H"/><use xlink:href="#F" x="0.641" y="-25.006" class="D"/><path d="M414.102 248.26c-5.9 1.835-13.637 2.753-21.374 2.753s-15.475-.918-21.379-2.754-8.855-4.241-8.856-6.647v8.38c.001 2.405 2.953 4.811 8.856 6.646s13.64 2.753 21.379 2.753 15.473-.916 21.374-2.752c5.907-1.835 8.86-4.242 8.858-6.648v-8.38c.002 2.407-2.951 4.813-8.858 6.648" class="G"/><path d="M408.488 237.665l-2.167-.76-1.775.472c-2.306-.736-4.797-1.174-7.466-1.306s-5.023.075-7.065.618c-2.05.546-2.997 1.164-2.857 1.857.148.692 1.182 1.573 3.086 2.639l-6.88 1.832c-1.679-.793-2.607-1.753-2.775-2.879l-5.56-.046c.22 1.463 1.705 2.78 4.471 3.953l-2.591.69 2.166.76 2.552-.68c2.42.777 4.978 1.238 7.684 1.383s5.083-.058 7.157-.61c2.065-.55 3.045-1.186 2.907-1.903-.123-.717-1.171-1.617-3.128-2.697l-.105-.036 6.667-1.776c1.48.68 2.409 1.427 2.785 2.247l5.471-.097c-.624-1.198-2.09-2.26-4.384-3.18l1.807-.481zm-13.877 2.357c-.843-.557-1.25-.976-1.244-1.26s.41-.525 1.203-.736 1.745-.285 2.85-.227 2.22.255 3.333.588l-6.142 1.635zm-9.19 3.784l6.393-1.702c.933.589 1.391 1.035 1.415 1.34.007.302-.405.565-1.23.785-.832.221-1.83.292-3.01.213a16.688 16.688 0 0 1-3.568-.636z" class="E"/><path d="M397.06 250.916a96.908 96.908 0 0 1-4.332.097c-7.738 0-15.475-.918-21.379-2.754s-8.855-4.241-8.856-6.647v8.38c.001 2.405 2.953 4.81 8.856 6.646s13.64 2.753 21.379 2.753a97.42 97.42 0 0 0 4.332-.096v-8.379z" class="H"/><path d="m441.231 295.024-5.352 3.421c-1.984 1.27-4.346 2.017-7.008 2.111-10.335.36-21.343-9.297-24.535-21.524-2.37-9.08.225-17.065 5.948-20.724l5.352-3.422c-5.724 3.66-8.318 11.645-5.948 20.724 3.192 12.227 14.201 21.887 24.536 21.525 2.66-.093 5.023-.841 7.007-2.11" fill="#e19100"/><path d="M422.644 252.776c10.335-.361 21.345 9.298 24.535 21.526s-2.622 22.472-12.955 22.833-21.344-9.298-24.536-21.525 2.62-22.473 12.956-22.834" class="H"/><path d="m426.26 257.423.776 2.965c3.14.748 6.12 3.775 7.09 7.488l-3.179.11c-.594-2.285-2.65-4.087-4.582-4.021-1.925.068-3.008 1.98-2.412 4.267a5.853 5.853.0 001.787 2.884c.866.759 1.848 1.158 2.785 1.126 3.684-.129 7.604 3.31 8.743 7.669.966 3.702-.394 6.891-3.093 7.831l.716 2.74-3.178.112-.714-2.74c-3.127-.736-6.113-3.774-7.08-7.477l3.176-.11c.594 2.276 2.65 4.078 4.573 4.01 1.933-.068 3.017-1.979 2.424-4.256-.599-2.285-2.653-4.087-4.586-4.02-1.78.062-3.667-.695-5.321-2.144a11.164 11.164.0 01-3.408-5.515c-.97-3.713.394-6.89 3.082-7.841l-.776-2.967 3.176-.111z" class="E"/><path d="M307.876 182.72c6.561-8.427 14.717-12.38 28.216-9.7l23.905 4.435c1.125 9.775-.73 28.44-15.27 32.888-8.353-8.77-36.851-27.622-36.851-27.622" class="K"/><path d="M360.22 180.3c-.763 8.809-12.707 2.922-13.692 7.663-.699 3.367 6.65 6.368 1.165 12.274-1.887 2.032-17.366-15.679-22.472-17.516l-5.223 8.284c8.816 6.177 20 14.372 24.73 19.338 13.23-4.048 15.956-19.862 15.493-30.043" fill="#ced3f8"/><path d="M263.747 303.154c-9.747-4.836-8.552-14.002-5.96-22.554s39.91-102.221 58.494-102.728 57.83 92.04 62.327 102.728 3.35 18.222-7.887 24.867c-16.208 9.584-83.282 9.444-106.974-2.313" class="K"/><g class="F"><path d="M326.856 214.23a.528.528.0 01-.421-.208c-3.954-5.195-3.49-10.718-3.041-16.059.533-6.345 1.036-12.337-5.238-18.036a.53.53.0 01.711-.783c6.662 6.05 6.112 12.586 5.582 18.908-.452 5.378-.88 10.458 2.828 15.329a.529.529.0 01-.42.85"/><path d="M306.148 205.013a.53.53.0 01-.514-.656c1.004-4.079 4.725-6.146 8.323-8.144 3.262-1.812 6.343-3.523 7.108-6.56.627-2.488-.354-5.705-2.999-9.832a.529.529.0 11.891-.57c2.812 4.386 3.837 7.873 3.134 10.661-.877 3.48-4.305 5.385-7.62 7.226-3.4 1.888-6.915 3.841-7.81 7.472a.53.53.0 01-.513.403"/></g><path d="M325.22 183.251a.526.526.0 01-.341-.125c-2.293-1.944-7.263-4.832-14.788-2.324a.53.53.0 01-.334-1.004c8.016-2.672 13.343.433 15.806 2.52a.53.53.0 01-.343.933" class="B"/><path d="M378.608 280.6c-2.305-5.478-13.737-32.451-26.836-57.383 4.218 11.26 31.65 61.883 17.574 72.85-7.185 5.6-17.19.142-21.16.563s-8.053 7.875-24.046 8.719c-15.729.83-22.633-5.625-28.264-6.469-3.488-.522-24.199 14.542-39.846-6.564.386 4.356 2.456 8.228 7.716 10.838 23.693 11.757 90.767 11.897 106.975 2.313 11.237-6.645 12.385-14.178 7.887-24.867" class="N"/><path d="M327.331 238.399c-1.643 0-4.528-2.186-7.865-2.179-3.82.008-6.803 2.394-13.318 1.897s-7.782-2.306-9.586-2.985c-2.25-.847-4.185-.352-6.539 0-1.032 2.381-3.582 10.364-4.794 14.222 2.354-.352 4.29-.847 6.54 0 1.803.68 3.07 2.489 9.585 2.986s9.514-2.231 13.318-1.897c6.568.576 11.42 4.584 11.42 4.584s1.617-13.957 1.24-16.628" fill="#fff"/><path d="m279.042 269.233 4.93 6.661c4.149 5.602 3.54 14.412-2.433 22.96-8.41 12.028-24.318 19.045-35.462 15.653-3.23-.985-5.712-2.736-7.405-5.022l-4.93-6.662c1.69 2.283 4.174 4.035 7.402 5.02 11.15 3.392 27.056-3.623 35.467-15.652 5.971-8.545 6.577-17.354 2.431-22.958" class="G"/><path d="M271.646 264.214c11.144 3.396 13.371 15.945 4.965 27.977s-24.316 19.044-35.467 15.653c-11.142-3.394-13.378-15.934-4.97-27.964s24.323-19.06 35.472-15.666" class="D"/><path d="M268.248 269.617l-2.008 2.94c2.606 1.78 2.863 5.57.352 9.235l-3.457-1.032c1.546-2.254 1.093-4.605-1.01-5.234s-5.07.7-6.612 2.955c-.75 1.099-1.062 2.25-.872 3.238s.856 1.701 1.878 2.003c4.006 1.2 4.864 5.684 1.918 9.991-2.518 3.678-6.98 6.043-10.735 5.938l-1.856 2.712-3.455-1.032 1.853-2.714c-2.599-1.79-2.848-5.565-.331-9.243l3.446 1.029c-1.552 2.266-1.103 4.615 1.002 5.244s5.071-.703 6.62-2.968c1.539-2.255 1.09-4.605-1.013-5.23-1.934-.579-3.196-1.943-3.56-3.834-.367-1.877.226-4.066 1.658-6.16 2.51-3.669 6.973-6.05 10.72-5.93l2.007-2.94 3.455 1.032z" class="E"/><g transform="translate(463.558 323.866)"><mask id="I" fill="#fff"><use xlink:href="#C"/></mask><path d="M8.92.027 2.986 1.23a1.325 1.325.0 00-.993.878L.07 7.85c-.15.45-.05.945.263 1.3l4.011 4.537c.314.354.793.515 1.257.42l5.934-1.204c.464-.094.842-.429.993-.878l1.924-5.741c.15-.45.05-.944-.264-1.3L10.177.449A1.325 1.325.0 008.92.027" mask="url(#I)" class="F"/></g><path d="m246.517 108.041-7.36 5.88a1.325 1.325.0 00.345 2.27l8.772 3.434a1.325 1.325.0 001.794-1.433l-1.413-9.314a1.325 1.325.0 00-2.138-.837" class="F"/><path d="m491.404 29.598 1.925 9.222a1.325 1.325.0 002.18.717l7.025-6.278c.76-.68.5-1.929-.47-2.248l-8.949-2.943a1.325 1.325.0 00-1.711 1.53" class="D"/><path fill="#7c70d8" d="M286.465 450 171 335.095l15.333-.032L223.01 335l115.517 115z"/></g></svg>