<svg xmlns="http://www.w3.org/2000/svg" xmlns:xlink="http://www.w3.org/1999/xlink" width="271" height="243" xmlns:v="https://vecta.io/nano"><style><![CDATA[.B{fill:#807dfb}.C{fill:#5652cc}.D{fill:#ffd03e}.E{fill:#ffe357}.F{fill:#6b67e9}.G{fill:#ed9f00}.H{fill:#fcba06}.I{fill:#362e94}.J{fill:#423eaf}.K{fill:#e9edf7}.L{fill:#9f9cff}.M{fill:#c4cae9}.N{fill:#d1d7f3}.O{fill:#4c4c4c}]]></style><defs><path id="A" d="M0 0h70.911v65.776H0z"/><path id="B" d="M0 0h59.764v73.839H0z"/><path id="C" d="M0 0h11.371v11.079H0z"/></defs><g fill="none" fill-rule="evenodd"><g class="K"><path d="M33 223.384c0-2.549 12.572-4.616 28.081-4.616s28.081 2.066 28.081 4.616S76.59 228 61.081 228 33 225.934 33 223.384m125.062-21.379c0-1.66 17.223-3.005 38.469-3.005S235 200.346 235 202.005s-17.223 3.005-38.469 3.005-38.469-1.345-38.469-3.005m6.539 10.732c0-1.205 11.656-2.182 26.034-2.182s26.034.977 26.034 2.182-11.656 2.182-26.034 2.182-26.034-.977-26.034-2.182"/><path d="M48.67 214.376c0-5.317 29.799-9.628 66.559-9.628s66.559 4.311 66.559 9.628-29.799 9.628-66.559 9.628-66.559-4.311-66.559-9.628"/></g><g transform="translate(0 62)"><path d="M211.354 71.864c11.237-.654 15.938-10.119 13.344-23.173-10.023 2.626-19.181 12.296-13.344 23.173m1.468 32.744c-1.468 13.804 9.009 21.424 25.28 20.889-1.155-12.723-10.984-25.807-25.28-20.889" class="B"/><path d="M234.887 123.501a.41.41 0 0 1-.245-.081c-3.901-2.89-8.776-7.153-13.076-10.914-3.534-3.09-6.871-6.009-8.987-7.563-.185-.135-.225-.395-.09-.581s.394-.226.578-.09c2.145 1.575 5.495 4.505 9.042 7.607 4.289 3.75 9.15 8.001 13.024 10.871.184.136.223.396.087.581-.081.11-.206.169-.333.169" class="F"/><g transform="translate(200.089 44.206)"><mask id="D" fill="#fff"><use xlink:href="#A"/></mask><path d="M6.338 60.592c-5.115-3.651-8.123-13.703-5.18-19.147s8.653-4.123 9.431-7.516-3.157-9.682-.228-13.408c5.204-6.623 14.378 3.793 18.711-.692s-1.146-9.963 2.249-14.792 10.471 4.208 16.558.384 20.479-9.573 22.788-.833c1.825 6.908-7.093 5.549-8.26 8.404-1.33 3.256 2.58 5.446.331 8.711-3.178 4.614-10.029 1.806-12.014 6.026s2.93 7.909-2.266 11.173c-6.433 4.041-12.285-6.457-17.392 2.144s7.648 10.173 5.241 15.929c-2.627 6.283-13.348.328-14.086 4.908-1.006 6.232-7.95 4.371-15.884-1.292" mask="url(#D)" class="I"/></g><path d="M205.15 104.13c-.064 0-.128-.015-.189-.046-.203-.105-.283-.356-.179-.56.21-.41.362-1.126.537-1.955.416-1.963.985-4.651 2.988-5.91 1.03-.647 2.17-1.142 3.272-1.62 1.796-.78 3.653-1.586 5.115-3.082 3.015-3.085 3.68-6.496 4.267-9.505.447-2.291.869-4.455 2.281-6.045 1.31-1.476 2.695-1.403 4.162-1.325 1.375.073 2.796.148 4.536-.944 1.669-1.048 2.012-1.974 2.409-3.045.452-1.219.964-2.6 3.485-4.184 2.158-1.356 3.643-1.264 5.08-1.174 1.387.086 2.699.168 4.737-.982 3.959-2.234 5.299-5.281 6.278-7.507.633-1.438 1.133-2.575 2.099-3.115 2.202-1.231 3.791-.058 3.859-.008.182.138.218.399.081.582s-.397.219-.58.081c-.048-.035-1.241-.888-2.957.071-.724.405-1.175 1.428-1.745 2.724-1.026 2.332-2.431 5.526-6.63 7.896-2.251 1.27-3.747 1.177-5.194 1.087-1.366-.085-2.656-.165-4.589 1.049-2.283 1.434-2.723 2.621-3.148 3.77-.412 1.112-.838 2.261-2.745 3.459-1.961 1.232-3.586 1.145-5.018 1.069-1.372-.073-2.455-.13-3.5 1.048-1.261 1.421-1.643 3.382-2.087 5.652-.61 3.124-1.301 6.665-4.489 9.927-1.575 1.611-3.508 2.451-5.377 3.262-1.123.488-2.184.948-3.161 1.562-1.706 1.072-2.211 3.46-2.617 5.378-.188.888-.35 1.654-.61 2.163-.073.143-.218.226-.368.226" class="C"/><g class="L"><path d="M55.587 50.344c2.438-3.966-.253-7.437-2.019-9.356-.654 1.27-3.002 6.565 2.019 9.356"/><path d="M71.972 88.345a.41.41 0 0 1-.319-.151C65.541 80.77 57.957 66.765 55 49.722c-.039-.226.111-.441.337-.481s.439.112.479.338c2.929 16.883 10.431 30.744 16.475 38.086.146.177.121.439-.055.585a.41.41 0 0 1-.263.095m-5.461-4.366c-8.288-4.398-12.821.808-16.436 4.641 2.638 1.153 11.514 5.896 16.436-4.641m-4.864-7.584c-5.569-5.082-10.13-1.943-13.703.312 1.822 1.425 7.78 6.893 13.703-.312m-3.56-9.148c-3.636-5.372-8.075-3.671-11.512-2.508 1.236 1.559 5.12 7.332 11.512 2.508m-2.717-9.098c-1.244-3.839-4.187-3.595-6.439-3.498.469 1.145 1.791 5.266 6.439 3.498"/><path d="M70.119 80.661c-1.701-8.128 3.798-10.725 7.913-12.873.333 2.528 2.183 11.241-7.913 12.873m-5.136-8.347c-2.536-6.697 1.802-9.651 5.022-12.036.621 2.108 3.363 9.284-5.022 12.036m-4.566-10.739c-.405-4.879 3-5.995 5.563-6.949.011 1.502.461 6.733-5.563 6.949m-2.57-7.454c-.751-2.751 1.08-3.755 2.446-4.577.166.859.981 3.807-2.446 4.577"/></g><path d="M220.85 3.664c.035-1.882.685-3.764 1.844-3.66 1.103.098 1.406 1.939 1.257 3.751 1.313-.964 2.796-1.456 3.407-.636 1.199 1.61-3.561 5.065-5.172 4.91-2.143.136-5.899-4.2-4.381-5.518.721-.627 1.955.074 3.044 1.153" fill="#ced3f8"/><g class="B"><path d="M211.782 21.167c-.138 0-.273-.069-.352-.196-.121-.195-.061-.451.133-.572 6.113-3.817 10.085-10.193 10.211-12.393.013-.229.208-.401.437-.391s.403.21.389.439c-.152 2.656-4.457 9.216-10.6 13.051a.41.41 0 0 1-.218.063"/><path d="M220.789 6.453c.32-.038.658.188.944.417.079-.504.506-1.179 1.037-1.016.379.116.23.772.012 1.323.163-.075.352-.161.584-.201 1.655-.279-.32 1.499-1.205 1.306-.191-.042-.546-.18-.901-.357-.748-.371-1.089-1.397-.471-1.472"/></g><path d="M53.156 126.615c-10.055-12.093-24.51-9.523-36.915 4.228 11.248 9.093 29.631 11.364 36.915-4.228" class="C"/><path d="M20.737 130.526c-.198 0-.374-.144-.408-.347-.038-.226.114-.44.339-.479 5.421-.914 12.725-1.543 19.169-2.098 5.303-.457 10.313-.888 13.248-1.397.225-.039.439.113.478.339s-.112.441-.338.48c-2.97.514-7.997.947-13.318 1.406-6.428.554-13.714 1.181-19.103 2.09-.023.004-.046.006-.069.006" class="F"/><g transform="translate(0 50.924)"><mask id="E" fill="#fff"><use xlink:href="#B"/></mask><path d="M54.1 73.611c2.214-.929 8.372-22.932 4.309-24.375-3.163-1.123-4.431 2.264-4.798 3.53-.575 1.995-1.65 6.882-3.035 6.225-2.506-1.186 1.768-13.204 2.631-16.196s1.74-9.034-.488-11.616-3.426-3.367-4.65 1.952-2.352 16.09-4.642 12.867.5-11.391.409-16.655S41.81 14.1 38.647 16.422c-2.829 2.077-.38 17.412-2.951 16.664-2.057-.599-1.154-5.013-1.892-11.9s-1.503-13.38-5.58-13.285c-3.274.077-1.883 4.379-1.532 8.098s.646 8.918-1.147 7.835-1.777-19.446-7.084-20.519c-3.511-.71-2.286 3.201-2.118 7.553s-.092 5.897-.949 5.647-2.024-6.076-2.583-9.293S10.371-.413 7.394.031s-1.556 5.502-.604 7.245 1.128 3.82.612 4.106S3.337 6.147.81 8.467s1.373 7.259 4.63 8.206 7.622 2.343 7.273 3.551-4.119.112-7.09-.753-4.351-.518-4.584.287c-.774 2.684 2.438 6.072 4.61 6.704s14.805 2.563 14.29 4.346-5.175.552-7.575-.146-7.998-2.328-8.862.663 6.214 6.797 10.867 7.84 12.323 2.151 11.925 3.532-6.701 1.542-9.614.694S9 39.534 7.937 43.216s3.171 5.725 8.892 7.389c2.39.696 8.325 2.357 12.123 1.248 4.325-1.263 6.68-1.173 7.012-.169.661 2.001-3.289 2.597-6.197 2.374S17.866 52.59 18.27 57.198s7.903 3.734 10.952 3.686 13.776-1.167 14.018 1.212-5.555 1.438-7.386 1.342-5.688.932-4.857 2.452S50.15 75.268 54.1 73.611" mask="url(#E)" class="B"/></g></g><path d="M150.433 108.464c5.143-2.638 18.463-11.012 21.175-13.996s14.205-24.564 14.205-24.564l9.934 10.284s-13.117 18.472-17.27 21.882-26.218 9.631-26.218 9.631l-1.826-3.236z" class="M"/><path d="M151.822 112.033c-1.044.679-3.451 2.519-5.032 3.133s-2.795-5.915-1.888-6.229 3.833-.056 5.203-.6c.46.852 1.718 3.695 1.718 3.695" fill="#edcac3"/><path d="M124.031 10.114c-.061-.192-.347-.124-.316.075l.843 5.623c.022.094.322.103.669.02s.61-.226.588-.32l-1.784-5.398zm-21.072 43.124c-5.33 2.232-8.39 4.198-8.086 5.473.297 1.245 3.751 1.629 9.277 1.26a49.51 49.51 0 0 1-1.191-6.733" class="J"/><path d="M120.952 47.184c-7.206 2.037-13.432 4.143-17.993 6.053.234 2.21.627 4.459 1.191 6.733 4.964-.331 11.599-1.27 19.123-2.738a114.6 114.6 0 0 1-2.321-10.047" class="C"/><path d="M161.967 39.155c5.763-.415 9.38-.043 9.684 1.232.297 1.245-2.613 3.148-7.711 5.314-.521-2.284-1.185-4.468-1.973-6.546" class="J"/><path d="M143.181 41.88c7.349-1.437 13.854-2.369 18.786-2.724a49.57 49.57 0 0 1 1.973 6.546c-4.579 1.946-10.923 4.105-18.3 6.192-.703-3.525-1.534-6.875-2.46-10.014" class="C"/><path d="M143.181 41.88a278.86 278.86 0 0 0-11.168 2.429 278.71 278.71 0 0 0-11.061 2.876 114.6 114.6 0 0 0 2.321 10.047 278.18 278.18 0 0 0 11.238-2.443c3.89-.928 7.626-1.904 11.13-2.895-.703-3.525-1.534-6.875-2.46-10.014" class="J"/><path d="M147.244 105.435l-1.257.3-15.252-64.002 1.257-.3z" class="C"/><path d="M146.021 121.395c-2.675.78-5.421-.443-6.713-2.73-.415-.735.026-1.664.846-1.859.543-.13 1.127.093 1.4.58a3.25 3.25 0 0 0 3.992 1.444c1.543-.584 2.352-2.291 1.969-3.897l-2.156-9.047 2.514-.6 2.143 8.993c.727 3.052-.985 6.24-3.994 7.117" class="I"/><g class="C"><path d="M125.068 15.163c-14.581 3.48-24.087 19.36-22.109 38.075 4.562-1.911 10.787-4.016 17.993-6.053-3.211-17.55-1.08-30.782 4.115-32.022"/><path d="M120.952 47.184c3.484-.985 7.196-1.953 11.061-2.876l-6.946-29.146c-5.195 1.24-7.326 14.471-4.115 32.022"/></g><path d="M132.013 44.309c4.084-.975 8.038-1.826 11.768-2.546-4.794-16.426-12.761-28.021-18.714-26.6s-7.833 15.366-4.704 32.189c3.653-1.042 7.566-2.068 11.65-3.043" class="B"/><path d="M120.364 47.351c-3.129-16.823-1.249-30.768 4.704-32.189-15.136 3.612-24.344 20.159-21.662 37.889 4.39-1.808 10.233-3.781 16.958-5.7" class="L"/><path d="M103.42 53.046c-2.679-17.727 6.514-34.271 21.648-37.883-21.202 5.06-34.72 24.557-30.195 43.548-.313-1.312 2.932-3.353 8.547-5.664" class="B"/><path d="M143.781 41.763c-4.794-16.426-12.761-28.021-18.713-26.6 15.136-3.612 30.815 6.996 36.417 24.029-4.733.369-10.837 1.247-17.704 2.572" class="L"/><path d="M161.47 39.192c-5.604-17.029-21.268-27.641-36.402-24.03 21.202-5.06 42.058 6.234 46.584 25.225-.313-1.312-4.128-1.668-10.181-1.195" class="B"/><path d="M151.95 112.544l-2.055-4.44c.706-.627 2.455-1.579 2.474-1.659.463.723 2.844 4.909 2.81 5.051-.399.233-3.228 1.048-3.228 1.048" class="N"/><path d="M181.346 111.054l.039 82.924h3.998c2.246-5.59 17.216-72.29 18.735-82.924h-22.772z" class="J"/><path d="M185.383 195.442v-1.464h-3.998c-.051 1.365-.305 2.096-.458 2.662 1.039.4 2.56-.632 4.456-1.198" fill="#f0ccc0"/><path d="M185.383 195.442c-1.896.566-3.417 1.598-4.456 1.198-.551.4-8.659 3.319-9.485 3.883-.844.579-.721 1.477.173 1.477 1.307 0 12.074-.475 12.074-.475a6.55 6.55 0 0 1 .395.475h2.461c.734-1.273.535-5.093-1.162-6.558" class="I"/><path d="M214.783 195.442v-1.464h-3.998c-.051 1.365-.305 2.096-.458 2.662 1.04.4 2.56-.632 4.456-1.198" fill="#f0ccc0"/><path d="M214.783 195.442c-1.896.566-3.417 1.598-4.456 1.198-.551.4-8.659 3.319-9.485 3.883-.844.579-.72 1.477.174 1.477 1.306 0 12.074-.475 12.074-.475a6.74 6.74 0 0 1 .394.475h2.462c.733-1.273.534-5.093-1.163-6.558" class="I"/><path d="M210.837 111.054c.227 4.178 3.946 60.377 3.946 82.924h-3.998c-2.246-5.59-21.204-72.29-22.722-82.924h22.773z" class="C"/><path d="M210.837 111.054h-29.49c.768-10.667 1-37.801 5.89-43.77 5.786-7.064 9.935-6.249 15.606-.574 7.649 7.653 9.167 35.45 7.995 44.344" fill="#dde2f8"/><path d="M186.749 111.063l-.829-.018.665-21.101.236-6.396c.199-7.905 3.458-16.672 5.226-19.359l.693.457c-1.411 2.145-4.881 10.636-5.09 18.923l-.236 6.41-.665 21.084" class="M"/><path d="M198.505 55.657c-.175 1.426-.242 6.847.966 8.399-.871.662-5.464 1.593-8.899.215.737-.91 1.905-1.523.964-3.14-1.025-1.76-2.761.606-4.136-2.279-1.604-3.363-2.088-9.997-.498-11.845 1.779-2.069 5.329-4.598 10.128-1.779 3.916 2.3 1.832 7.532 1.476 10.429" fill="#f8d8d0"/><path d="M194.894 52.401c-1.089.016-.533-2.842-1.333-3.523-.946-.805-4.108-1.27-7.175-.931s-4.979-3.665-3.02-5.328 3.746.628 5.207.14c1.702-.569 1.402-2.649 3.932-2.43 2.337.201 1.277 2.377 2.762 2.763 1.531.398 3.781-1.635 5.652.767 1.388 1.782-.699 2.823-.477 4.805.139 1.238 3.22 4.892-.102 6.441s-2.556-1.849-2.38-3.254-.461-2.329-1.163-2.357-.348 2.886-1.904 2.907" fill="#20196f"/><path d="M199.033 62.748c-.814.408-5.896 1.301-7.644.28-.364.433-.638.824-.817 1.243 1.218.73 5.787 1.505 8.981-.138l-.52-1.385" class="M"/><path d="M202.696 66.487C208.052 70.986 219 85.096 219 95.474s-8.772 20.209-11.652 23.091l-3.497-3.5c2.131-2.133 7.788-16.229 6.739-20.193s-6.04-8.26-10.468-12.691-4.856-8.163-4.078-10.961 4.417-6.609 6.652-4.732" fill="#e7eeff"/><path d="M203.852 115.065c-1.01 0-1.67.038-2.563.932.893.467 6.06 2.567 6.06 2.567l-3.497-3.5z" fill="#f7d3c9"/><path d="M207.376 118.772l-4.038-4.147a24.02 24.02 0 0 1 2.011-2.924c.801.625 4.929 4.187 4.946 4.36-.355.417-2.92 2.712-2.92 2.712" class="N"/><g fill="#edcac3"><path d="M150.062 108.353c-.824-.176-3.911-1.653-3.507.313s1.852 4.174 2.392 2.576l1.115-2.889"/><path d="M145.406 108.834c.851 1.037 2.207.559 2.471 1.111s1.719.475 2.219 1.622.295 1.456.295 1.456l-3.142 1.94c-.659-1.488-1.844-6.129-1.844-6.129"/></g><path d="M123.392 196.701c-.001-1.865 2.302-3.73 6.906-5.153s10.638-2.135 16.673-2.135 12.068.712 16.671 2.135 6.908 3.288 6.908 5.153-2.302 3.731-6.908 5.154-10.636 2.135-16.669 2.135-12.069-.711-16.673-2.135-6.906-3.289-6.907-5.154" class="D"/><path d="M163.641 201.855c-4.602 1.424-10.636 2.135-16.669 2.135s-12.069-.711-16.673-2.135-6.906-3.289-6.907-5.154v6.497c.001 1.865 2.303 3.731 6.907 5.153s10.638 2.135 16.673 2.135 12.068-.711 16.669-2.134 6.909-3.289 6.908-5.155v-6.497c.001 1.865-2.302 3.731-6.908 5.154" class="G"/><path d="M159.263 193.641l-1.69-.589-1.384.366c-1.799-.571-3.742-.911-5.823-1.012s-3.918.058-5.51.479c-1.599.423-2.337.902-2.228 1.44.115.536.921 1.219 2.407 2.046l-5.366 1.42c-1.31-.615-2.033-1.359-2.165-2.232l-4.337-.036c.172 1.134 1.33 2.155 3.488 3.065l-2.021.535 1.69.589 1.991-.527c1.887.602 3.882.959 5.992 1.072s3.965-.045 5.582-.473c1.611-.426 2.375-.919 2.267-1.475-.096-.556-.913-1.254-2.439-2.091l-.082-.029 5.2-1.376c1.154.527 1.878 1.106 2.172 1.742l4.267-.075c-.487-.929-1.631-1.752-3.419-2.466l1.409-.373zm-10.822 1.828c-.657-.432-.975-.757-.97-.977s.319-.407.938-.571 1.361-.22 2.222-.176a11.23 11.23 0 0 1 2.6.456l-4.79 1.268zm-7.167 2.934l4.986-1.32c.727.457 1.085.803 1.103 1.039.006.235-.316.439-.959.609-.649.172-1.428.227-2.347.166-.914-.059-1.844-.222-2.783-.494z" class="E"/><path d="M163.641 191.548c-4.603-1.423-10.637-2.135-16.67-2.135s-12.069.712-16.673 2.135-6.907 3.289-6.906 5.153c.001.953.605 1.905 1.807 2.8l40.056-7.401c-.502-.19-1.039-.374-1.613-.552" class="O"/><path d="M150.35 203.915l-3.379.075c-6.035 0-12.069-.711-16.673-2.135s-6.906-3.289-6.907-5.154v6.497c.001 1.865 2.303 3.731 6.907 5.153s10.638 2.135 16.673 2.135a76.01 76.01 0 0 0 3.379-.075v-6.496z" class="H"/><path d="M126.772 187.678c-.001-1.865 2.302-3.73 6.906-5.153s10.638-2.135 16.673-2.135 12.068.713 16.67 2.135 6.908 3.288 6.908 5.153-2.302 3.731-6.908 5.154-10.635 2.135-16.669 2.135-12.069-.711-16.673-2.135-6.906-3.289-6.907-5.154" class="D"/><path d="M167.021 192.832c-4.602 1.423-10.635 2.135-16.669 2.135s-12.069-.711-16.673-2.135-6.906-3.289-6.907-5.154v6.497c.001 1.865 2.303 3.731 6.907 5.153s10.638 2.135 16.673 2.135 12.068-.711 16.669-2.134 6.91-3.289 6.908-5.154v-6.497c.001 1.865-2.301 3.731-6.908 5.154" class="G"/><path d="M162.643 184.617l-1.69-.589-1.384.366c-1.799-.571-3.742-.911-5.823-1.012s-3.918.058-5.51.479c-1.599.423-2.337.902-2.228 1.44.115.536.921 1.219 2.407 2.046l-5.366 1.42c-1.31-.614-2.033-1.359-2.165-2.232l-4.337-.036c.172 1.134 1.33 2.155 3.488 3.065l-2.021.535 1.69.589 1.991-.527c1.887.602 3.882.959 5.992 1.072s3.964-.045 5.582-.473c1.611-.426 2.375-.919 2.267-1.475-.096-.556-.913-1.254-2.439-2.091l-.082-.029 5.2-1.376c1.154.526 1.878 1.106 2.172 1.742l4.267-.075c-.487-.929-1.631-1.753-3.419-2.466l1.409-.373zm-10.822 1.828c-.657-.432-.975-.757-.97-.977s.319-.407.938-.571 1.361-.221 2.222-.176c.867.047 1.731.198 2.6.456l-4.79 1.268zm-7.167 2.934l4.986-1.32c.727.457 1.085.803 1.103 1.039.006.235-.315.439-.959.609-.649.172-1.428.227-2.347.166a13.07 13.07 0 0 1-2.783-.494z" class="E"/><path d="M167.021 182.524c-4.603-1.423-10.637-2.135-16.67-2.135s-12.069.713-16.673 2.135-6.907 3.289-6.906 5.153c.001.953.605 1.905 1.807 2.799l40.055-7.401c-.502-.19-1.039-.374-1.613-.552" class="O"/><path d="M153.73 194.892l-3.379.075c-6.035 0-12.069-.711-16.673-2.135s-6.906-3.289-6.907-5.154v6.497c.001 1.865 2.303 3.731 6.907 5.153s10.638 2.135 16.673 2.135a76.26 76.26 0 0 0 3.379-.075v-6.497z" class="H"/><path d="M120 178.826c-.001-1.865 2.302-3.73 6.906-5.153s10.638-2.135 16.673-2.135 12.068.713 16.671 2.135 6.908 3.288 6.908 5.153-2.302 3.731-6.908 5.154-10.636 2.135-16.669 2.135-12.069-.711-16.673-2.135-6.906-3.289-6.907-5.154" class="D"/><path d="M160.25 183.98c-4.602 1.423-10.636 2.135-16.669 2.135s-12.069-.711-16.673-2.135-6.906-3.289-6.907-5.154v6.497c.001 1.865 2.303 3.73 6.907 5.153s10.638 2.135 16.673 2.135 12.068-.711 16.669-2.134 6.909-3.289 6.908-5.155v-6.497c.001 1.865-2.302 3.731-6.908 5.154" class="G"/><path d="M155.871 175.765l-1.69-.589-1.384.366c-1.799-.571-3.742-.911-5.823-1.012s-3.918.058-5.51.479c-1.599.423-2.337.902-2.228 1.44.115.536.921 1.219 2.407 2.046l-5.366 1.42c-1.31-.614-2.033-1.359-2.165-2.232l-4.337-.036c.172 1.135 1.33 2.155 3.488 3.065l-2.021.535 1.69.589 1.991-.527c1.887.602 3.882.959 5.992 1.072s3.965-.045 5.582-.473c1.611-.427 2.375-.919 2.267-1.475-.096-.556-.913-1.254-2.439-2.091l-.082-.029 5.2-1.376c1.154.526 1.878 1.106 2.172 1.742l4.267-.075c-.487-.929-1.631-1.753-3.419-2.466l1.409-.373zm-10.822 1.828c-.657-.432-.975-.757-.97-.977s.319-.407.938-.571 1.361-.22 2.222-.176a11.23 11.23 0 0 1 2.6.456l-4.79 1.268zm-7.167 2.934l4.986-1.32c.727.457 1.085.803 1.103 1.039.006.235-.316.439-.959.609-.649.172-1.428.227-2.347.166-.914-.059-1.844-.222-2.783-.494z" class="E"/><path d="M160.25 173.672c-4.603-1.423-10.637-2.135-16.67-2.135s-12.069.713-16.673 2.135-6.907 3.289-6.906 5.153c.001.953.605 1.905 1.807 2.799l40.056-7.401c-.502-.19-1.039-.374-1.613-.552" class="O"/><path d="M146.959 186.04l-3.379.075c-6.035 0-12.069-.711-16.673-2.135s-6.906-3.289-6.907-5.154v6.497c.001 1.865 2.303 3.73 6.907 5.153s10.638 2.135 16.673 2.135a76.26 76.26 0 0 0 3.379-.075v-6.497z" class="H"/><path d="M127.272 168.289c-.001-1.865 2.302-3.73 6.906-5.153S144.816 161 150.85 161s12.068.713 16.671 2.135 6.908 3.288 6.908 5.153-2.302 3.731-6.908 5.154-10.636 2.135-16.669 2.135-12.069-.711-16.673-2.135-6.906-3.289-6.907-5.154" class="D"/><path d="M167.521 173.443c-4.602 1.423-10.636 2.135-16.669 2.135s-12.069-.711-16.673-2.135-6.906-3.289-6.907-5.154v6.497c.001 1.865 2.303 3.731 6.907 5.153s10.638 2.135 16.673 2.135 12.067-.711 16.669-2.134 6.91-3.289 6.908-5.155v-6.497c.001 1.865-2.302 3.731-6.908 5.154" class="G"/><path d="M163.143 165.228l-1.69-.589-1.384.366c-1.799-.571-3.742-.911-5.823-1.013s-3.918.058-5.51.479c-1.599.423-2.337.902-2.228 1.44.115.536.921 1.219 2.407 2.046l-5.366 1.42c-1.31-.615-2.033-1.359-2.165-2.232l-4.337-.036c.172 1.135 1.33 2.155 3.488 3.065l-2.021.535 1.69.589 1.991-.527c1.887.602 3.882.959 5.992 1.072s3.965-.045 5.582-.473c1.611-.427 2.375-.919 2.267-1.475-.096-.556-.913-1.254-2.439-2.091l-.082-.029 5.2-1.376c1.154.527 1.878 1.106 2.172 1.742l4.267-.075c-.487-.929-1.631-1.752-3.419-2.466l1.409-.373zm-10.822 1.828c-.657-.432-.975-.757-.97-.977s.319-.407.938-.571 1.361-.22 2.222-.176c.867.047 1.731.198 2.6.456l-4.79 1.268zm-7.167 2.934l4.986-1.32c.727.457 1.085.803 1.103 1.039.006.235-.316.439-.959.609-.649.172-1.428.227-2.347.166-.914-.059-1.844-.222-2.783-.494z" class="E"/><path d="M154.23 175.503l-3.379.075c-6.035 0-12.069-.711-16.673-2.135s-6.906-3.289-6.907-5.154v6.497c.001 1.865 2.303 3.731 6.907 5.153s10.638 2.135 16.673 2.135a76.27 76.27 0 0 0 3.379-.075v-6.497z" class="H"/><path d="M188.679 209.703l-4.174 2.652c-1.548.984-3.39 1.564-5.466 1.637-8.06.279-16.645-7.209-19.135-16.69-1.848-7.04.175-13.231 4.639-16.069l4.174-2.653c-4.464 2.837-6.487 9.029-4.639 16.068 2.489 9.481 11.076 16.971 19.136 16.69 2.075-.073 3.917-.652 5.465-1.637" fill="#e19100"/><path d="M174.183 176.945c8.06-.28 16.646 7.209 19.134 16.691s-2.045 17.424-10.103 17.704-16.646-7.209-19.136-16.69 2.044-17.424 10.105-17.705" class="H"/><path d="M177.002 180.548l.605 2.299c2.448.58 4.772 2.927 5.529 5.806l-2.479.086c-.464-1.772-2.066-3.17-3.574-3.118-1.501.052-2.346 1.535-1.881 3.309.224.851.72 1.649 1.393 2.236s1.441.898 2.172.873c2.874-.099 5.931 2.567 6.819 5.946.754 2.871-.308 5.343-2.412 6.072l.558 2.124-2.478.086-.557-2.125c-2.439-.57-4.768-2.926-5.522-5.797l2.478-.086c.463 1.765 2.066 3.163 3.566 3.11 1.507-.053 2.353-1.535 1.89-3.3-.467-1.772-2.069-3.169-3.576-3.117-1.388.048-2.86-.538-4.15-1.662a8.65 8.65 0 0 1-2.658-4.276c-.756-2.879.307-5.343 2.403-6.08l-.605-2.3 2.477-.086z" class="E"/><path d="M84.669 122.266c5.14-6.615 11.528-9.717 22.103-7.614l18.725 3.481c.881 7.672-.572 22.321-11.961 25.813-6.544-6.883-28.866-21.68-28.866-21.68" class="K"/><path d="M125.672 120.366c-.599 6.914-9.955 2.294-10.726 6.014-.547 2.642 5.209 4.998.913 9.634-1.478 1.595-13.603-12.306-17.603-13.748l-4.092 6.502c6.906 4.849 15.667 11.281 19.371 15.178 10.363-3.177 12.499-15.589 12.136-23.58" fill="#ced3f8"/><path d="M50.101 216.791c-7.635-3.796-6.699-10.99-4.668-17.702s31.263-80.231 45.82-80.628 45.299 72.238 48.822 80.628 2.624 14.302-6.178 19.517c-12.696 7.523-65.237 7.412-83.796-1.815" class="K"/><g class="F"><path d="M99.537 146.997c-.125 0-.249-.056-.33-.164-3.097-4.077-2.734-8.412-2.382-12.604.417-4.98.812-9.683-4.103-14.156-.169-.154-.182-.417-.028-.587s.416-.182.585-.028c5.218 4.748 4.788 9.879 4.372 14.84-.354 4.221-.688 8.208 2.216 12.031.139.183.103.443-.079.582a.41.41 0 0 1-.251.085"/><path d="M83.315 139.762c-.033 0-.066-.004-.099-.012-.222-.055-.358-.28-.303-.503.787-3.201 3.701-4.824 6.52-6.392 2.555-1.422 4.968-2.765 5.568-5.148.491-1.954-.277-4.478-2.349-7.717-.124-.193-.067-.45.125-.574s.449-.068.573.126c2.202 3.443 3.005 6.18 2.455 8.368-.687 2.732-3.372 4.226-5.969 5.671-2.663 1.482-5.417 3.015-6.117 5.865-.047.189-.216.316-.402.316"/></g><path d="M98.255 122.682a.41.41 0 0 1-.268-.099c-1.796-1.526-5.689-3.792-11.583-1.824-.217.072-.452-.045-.524-.263s.045-.453.262-.525c6.279-2.097 10.452.34 12.381 1.978.175.148.196.41.048.585-.082.097-.199.147-.316.147" class="B"/><path d="M140.075 199.089c-1.806-4.299-10.76-25.47-21.021-45.039 3.304 8.838 24.793 48.57 13.766 57.179-5.628 4.394-13.466.11-16.576.442s-6.308 6.181-18.835 6.843c-12.321.651-17.729-4.415-22.14-5.077-2.732-.41-18.955 11.413-31.212-5.152.303 3.418 1.924 6.458 6.045 8.507 18.559 9.227 71.1 9.337 83.796 1.815 8.802-5.215 9.701-11.127 6.178-19.517" class="N"/><path d="M99.909 165.966c-1.287 0-3.547-1.715-6.161-1.71-2.992.006-5.33 1.879-10.433 1.489s-6.096-1.81-7.509-2.343c-1.762-.665-3.279-.276-5.122 0-.808 1.869-2.806 8.134-3.755 11.163 1.843-.276 3.36-.665 5.122 0 1.413.533 2.405 1.953 7.509 2.343s7.452-1.751 10.433-1.489c5.145.452 8.945 3.598 8.945 3.598s1.267-10.954.971-13.051" fill="#fff"/><path d="M61.122 189.631l3.816 5.252c3.21 4.417 2.74 11.363-1.883 18.102-6.51 9.484-18.822 15.017-27.447 12.342-2.499-.777-4.42-2.157-5.731-3.959l-3.815-5.253c1.308 1.8 3.23 3.181 5.728 3.959 8.63 2.674 20.941-2.857 27.451-12.342 4.622-6.737 5.091-13.683 1.882-18.101" class="G"/><path d="M55.397 185.674c8.625 2.677 10.349 12.572 3.843 22.058s-18.82 15.016-27.451 12.342c-8.624-2.676-10.354-12.563-3.846-22.048s18.825-15.028 27.454-12.352" class="D"/><path d="M52.767 189.933l-1.554 2.318c2.017 1.403 2.216 4.391.273 7.281l-2.676-.813c1.197-1.778.846-3.631-.782-4.127s-3.924.553-5.117 2.33c-.581.867-.822 1.774-.675 2.553s.663 1.341 1.453 1.579c3.1.946 3.764 4.481 1.484 7.877-1.949 2.9-5.402 4.765-8.308 4.682l-1.436 2.138-2.674-.814 1.434-2.14c-2.012-1.412-2.204-4.388-.257-7.288l2.667.812c-1.201 1.787-.853 3.639.776 4.135s3.925-.555 5.124-2.34c1.191-1.778.844-3.631-.784-4.124-1.497-.456-2.473-1.531-2.755-3.022-.284-1.48.175-3.206 1.283-4.857 1.942-2.893 5.397-4.77 8.297-4.676l1.553-2.317 2.674.814z" class="E"/><g transform="translate(30)"><g transform="translate(176.13 231.921)"><mask id="F" fill="#fff"><use xlink:href="#C"/></mask><path d="M6.986.021L2.339.965a1.04 1.04 0 0 0-.778.688L.054 6.154A1.04 1.04 0 0 0 .26 7.172l3.141 3.557c.245.278.621.404.984.33l4.647-.944a1.04 1.04 0 0 0 .778-.688l1.507-4.501a1.04 1.04 0 0 0-.207-1.018L7.97.351c-.246-.278-.621-.404-.984-.33" mask="url(#F)" class="F"/></g><path d="M6.154 62.742L.39 67.352a1.04 1.04 0 0 0 .27 1.779l6.87 2.692a1.04 1.04 0 0 0 1.405-1.123l-1.106-7.301a1.04 1.04 0 0 0-1.674-.656" class="F"/><path d="M197.937 1.253l1.508 7.229a1.04 1.04 0 0 0 1.708.562l5.501-4.921a1.04 1.04 0 0 0-.367-1.762L199.278.053a1.04 1.04 0 0 0-1.34 1.199" class="D"/></g></g></svg>