<svg width="60" height="60" viewBox="0 0 60 60" fill="none" xmlns="http://www.w3.org/2000/svg">
    <g clip-path="url(#a)">
        <path d="M60 5.948v48.104a4.138 4.138 0 0 1-4.138 4.138H4.138A4.139 4.139 0 0 1 0 54.052V5.948a4.138 4.138 0 0 1 4.138-4.137h51.724A4.138 4.138 0 0 1 60 5.948z" fill="#B9CAED"/>
        <path d="M60 5.948v5.044H0V5.948a4.138 4.138 0 0 1 4.138-4.137h51.724A4.138 4.138 0 0 1 60 5.948z" fill="#203B74"/>
        <path d="M34.396 19.138v16.293a2.068 2.068 0 0 1-2.07 2.07H9.18a2.068 2.068 0 0 1-2.069-2.07V19.138c0-1.143.926-2.069 2.07-2.069h23.146c1.143 0 2.069.926 2.069 2.07z" fill="#EEF7FF"/>
        <path d="M15.646 25.216v4.138c0 .286.231.517.517.517H33.88c.285 0 .517.232.517.517v1.035a.517.517 0 0 1-.517.517H16.163a.517.517 0 0 0-.517.517v4.526a.517.517 0 0 1-.517.517h-1.035a.517.517 0 0 1-.517-.517v-4.526a.517.517 0 0 0-.517-.517H7.629a.517.517 0 0 1-.518-.517v-1.035c0-.285.232-.517.518-.517h5.43a.517.517 0 0 0 .518-.517v-4.138a.517.517 0 0 0-.517-.517H7.629a.517.517 0 0 1-.518-.518v-1.034c0-.286.232-.517.518-.517h5.43a.517.517 0 0 0 .518-.518v-4.525c0-.286.231-.518.517-.518h1.035c.285 0 .517.232.517.518v4.525c0 .286.231.518.517.518H33.88c.285 0 .517.231.517.517v1.034a.517.517 0 0 1-.517.518H16.163a.517.517 0 0 0-.517.517z" fill="#B5D5F5"/>
        <path d="M54.41 37.486c.097-.396-.05-.79-.333-1.032-.16-.137.022-.037-3.998-1.838a1.035 1.035 0 0 0-.846 1.888l1.784.8-16.737 8.579-4.526-2.32a1.035 1.035 0 0 0-.944 0L18.415 48.89l-3.549-1.82a1.033 1.033 0 0 0-.944 0l-7.281 3.732a1.035 1.035 0 1 0 .944 1.842l6.81-3.49 3.548 1.819c.296.152.647.152.944 0l10.395-5.329 4.526 2.32c.296.153.647.153.944 0l16.902-8.664-.526 1.631a1.035 1.035 0 0 0 1.97.635c1.315-4.08 1.294-4.008 1.312-4.081z" fill="#5DC196"/>
    </g>
    <defs>
        <clipPath id="a">
            <path fill="#fff" d="M0 0h60v60H0z"/>
        </clipPath>
    </defs>
</svg>
