<svg width="60" height="60" viewBox="0 0 60 60" fill="none" xmlns="http://www.w3.org/2000/svg">
    <path d="M49.291 33.015c.52-5.245-6.552-6.814-12.11 5.486-1.845-.013-3.93-.267-6.46-.352-1.37-.045-2.94-.002-3.094-.002 2.449-1.867 3.646-3.913 3.195-5.632a3.618 3.618 0 0 0-.565-1.22l-.005-.006c-3.042-4.15-14.69.585-18.608 8.157-2.255 4.359-1.412 8.639-.737 10.855h-.95c-1.142 0-2.068.926-2.068 2.07v5.56c0 1.143.926 2.069 2.069 2.069h23.276a2.068 2.068 0 0 0 2.069-2.07v-5.56a2.068 2.068 0 0 0-2.07-2.069H31.7c-.015-.812.147-1.766.79-2.61 3.41-4.475 14.031 1.6 19.38-10.69.86-1.978-.694-3.62-2.578-3.986z" fill="#FFEBD2"/>
    <path d="M28.768 38.123c.733-.006 1.07.915.5 1.376-1.07.869-2.398 1.717-4.012 2.516a1.034 1.034 0 1 1-.922-1.852c1.34-.658 2.445-1.337 3.345-2.017.372-.013.735-.02 1.09-.023zM37.18 38.5c5.557-12.3 12.63-10.73 12.11-5.485-1.256-.244-2.659.079-3.589 1.247-2.837 3.565-5.317 4.263-8.521 4.239z" fill="#FFD9AD"/>
    <path d="M35.303 52.37v5.561A2.068 2.068 0 0 1 33.233 60H9.959a2.068 2.068 0 0 1-2.07-2.069v-5.56c0-1.143.927-2.07 2.07-2.07h23.276c1.143 0 2.069.927 2.069 2.07z" fill="#5DC196"/>
    <path d="M40.829 13.862h-.126V2.52A2.52 2.52 0 0 0 38.183 0H26.212a2.52 2.52 0 0 0-2.52 2.52v11.342h-.126c-1.832 0-2.76 2.205-1.48 3.515l8.309 8.502a2.52 2.52 0 0 0 3.605 0l8.31-8.502c1.28-1.31.351-3.515-1.481-3.515z" fill="#B9CAED"/>
    <path d="M36.68 6.51a1.034 1.034 0 0 0-1.464 0l-7.5 7.5c-.653.654-.182 1.766.732 1.766.264 0 .53-.1.731-.303l7.5-7.5a1.035 1.035 0 0 0 0-1.463zM35.43 15.646a1.552 1.552 0 1 0 0-3.103 1.552 1.552 0 0 0 0 3.103zM29.095 9.31a1.552 1.552 0 1 0 0-3.103 1.552 1.552 0 0 0 0 3.103z" fill="#203B74"/>
</svg>
