<svg width="66" height="60" viewBox="0 0 66 60" fill="none" xmlns="http://www.w3.org/2000/svg">
    <path d="M62.264 0H3.396A3.397 3.397 0 0 0 0 3.396v53.208A3.397 3.397 0 0 0 3.396 60h58.868a3.397 3.397 0 0 0 3.396-3.396V3.396A3.397 3.397 0 0 0 62.264 0z" fill="#B9CAED"/>
    <path d="M3.396 0A3.397 3.397 0 0 0 0 3.396v53.208A3.397 3.397 0 0 0 3.396 60h7.642V0H3.396z" fill="#203B74"/>
    <path d="M59.434 32.12v18.538a2.264 2.264 0 0 1-2.264 2.264H20.094a2.264 2.264 0 0 1-2.264-2.264V32.121a2.264 2.264 0 0 1 2.264-2.265H57.17a2.264 2.264 0 0 1 2.264 2.265z" fill="#CEECDF"/>
    <path d="M59.43 42.486v8.175a2.264 2.264 0 0 1-2.264 2.264H20.091c-.39 0-.758-.1-1.077-.272 1.443-3.55 3.655-7.663 6.506-7.74 1.928-.052 2.48 1.785 4.338 1.79 4.484.014 6.225-10.68 10.248-10.7 3.069-.014 4.21 6.204 7.716 6.07 2.406-.09 3.123-3.066 5.79-3.277 2.351-.185 4.44 1.92 5.818 3.69z" fill="#5DC196"/>
    <path d="M59.434 9.62v10.472a2.264 2.264 0 0 1-2.264 2.264h-8.066a2.264 2.264 0 0 1-2.264-2.264V9.621a2.264 2.264 0 0 1 2.264-2.265h8.066a2.264 2.264 0 0 1 2.264 2.265zM38.632 9.62v10.472a2.264 2.264 0 0 1-2.264 2.264H20.094a2.263 2.263 0 0 1-2.264-2.264V9.621a2.264 2.264 0 0 1 2.264-2.265h16.274a2.264 2.264 0 0 1 2.264 2.265z" fill="#203B74"/>
    <path d="M59.433 40.669v3.583a1.162 1.162 0 0 1-.177-.194c-2.04-2.849-3.956-4.275-5.54-4.134-2.047.184-2.9 3.17-5.849 3.28-2.428.095-3.854-1.89-5.114-3.64-.639-.89-1.657-2.43-2.639-2.429-1.295.003-2.647 2.424-3.842 4.557-1.69 3.021-3.438 6.144-6.403 6.144-1.182 0-1.957-.484-2.813-1.116-.609-.452-.951-.685-1.509-.674-.995.02-2.987.968-5.45 6.879-.837 0-1.579-.45-1.972-1.146 2.261-5.321 4.681-7.939 7.374-7.997 2.31-.053 3.076 1.788 4.364 1.79 1.761.002 3.41-3.16 4.434-4.985 1.394-2.49 3.101-5.716 5.821-5.716 3.79 0 5.025 6.168 7.665 6.072 1.764-.067 2.69-2.996 5.73-3.274 1.96-.179 3.91.806 5.92 3zM4.529 9.482h1.98a1.132 1.132 0 0 0 0-2.264H4.53a1.132 1.132 0 0 0 0 2.264zM6.51 14.293H4.529a1.132 1.132 0 0 0 0 2.264h1.98a1.132 1.132 0 0 0 0-2.264zM6.51 21.37H4.529a1.132 1.132 0 0 0 0 2.264h1.98a1.132 1.132 0 0 0 0-2.264zM5.52 55.048a2.123 2.123 0 1 0 0-4.245 2.123 2.123 0 0 0 0 4.245zM33.823 15.99h-.529a1.132 1.132 0 1 1 0-2.264h.53a1.132 1.132 0 0 1 0 2.264zM28.726 15.99h-5.944a1.132 1.132 0 1 1 0-2.264h5.944a1.132 1.132 0 0 1 0 2.264z" fill="#EEF7FF"/>
</svg>
