<svg width="60" height="60" viewBox="0 0 60 60" fill="none" xmlns="http://www.w3.org/2000/svg">
    <path d="M59.992 4.137v45.505a4.137 4.137 0 0 1-4.137 4.137H4.145a4.137 4.137 0 0 1-4.137-4.137V4.137A4.137 4.137 0 0 1 4.145 0h51.71a4.137 4.137 0 0 1 4.137 4.137z" fill="#B9CAED"/>
    <path d="M59.992 4.137v5.042H.008V4.137A4.137 4.137 0 0 1 4.145 0h51.71a4.137 4.137 0 0 1 4.137 4.137z" fill="#203B74"/>
    <path d="M54 18.133v9.734C54 29.045 52.172 30 49.915 30h-39.83C7.828 30 6 29.045 6 27.867v-9.734C6 16.955 7.828 16 10.085 16h39.83c2.257 0 4.085.955 4.085 2.133z" fill="#5DC196"/>
    <path d="M21.688 21.11h-1.774V26h-.98v-4.89h-1.758v-.797h4.512v.796zm2.84 2.699h-1.102V26h-.988v-5.688h2c.656 0 1.162.148 1.519.442.357.294.535.72.535 1.277 0 .38-.092.7-.277.957a1.744 1.744 0 0 1-.766.59l1.278 2.371V26h-1.059l-1.14-2.191zm-1.102-.793h1.015c.334 0 .594-.084.782-.25.187-.17.28-.4.28-.692 0-.305-.086-.54-.26-.707-.173-.166-.43-.252-.774-.258h-1.043v1.907zm7.187 1.66H28.41L27.95 26h-1.028l2.148-5.688h.887L32.109 26h-1.03l-.466-1.324zm-1.925-.797h1.648l-.824-2.36-.825 2.36zm8.324.27c-.058.606-.282 1.08-.672 1.421-.39.339-.91.508-1.559.508-.453 0-.853-.107-1.199-.32a2.132 2.132 0 0 1-.797-.918c-.187-.396-.285-.856-.293-1.38v-.53c0-.537.095-1.01.285-1.418.19-.41.463-.724.817-.946a2.293 2.293 0 0 1 1.234-.332c.628 0 1.133.17 1.516.512.383.341.605.823.668 1.445h-.985c-.047-.408-.166-.703-.359-.882-.19-.183-.47-.274-.84-.274-.43 0-.76.158-.992.473-.23.312-.346.772-.352 1.379v.504c0 .614.11 1.083.328 1.406.222.323.545.484.97.484.387 0 .679-.087.874-.261.196-.175.32-.465.371-.872h.985zm2.52-.606-.645.684V26h-.989v-5.688h.989v2.668l.547-.675 1.664-1.992h1.195l-2.113 2.519L42.414 26h-1.172l-1.71-2.457zM21.21 46.023H7.507a1.034 1.034 0 0 1 0-2.069H21.21a1.034 1.034 0 0 1 0 2.069zM14.746 39.3h-7.24a1.034 1.034 0 0 1 0-2.069h7.24a1.034 1.034 0 0 1 0 2.069z" fill="#fff"/>
    <path d="M59.993 38.452v7.84c0 8.352-7.495 15.305-16.741 13.387-6.314-1.31-10.795-6.951-10.795-13.4v-2.774a5.493 5.493 0 0 1 5.43-5.493V25.268a2.775 2.775 0 0 1 2.774-2.774 2.774 2.774 0 0 1 2.785 2.774c0 12.651-.01 12.204.003 12.204.076-1.52 1.4-2.7 2.957-2.564 1.305.114 2.47 1.197 2.47 2.9 0-1.312.872-2.42 2.068-2.775 1.846-.559 3.49.916 3.49 2.674v.887c0-1.353.931-2.474 2.068-2.759a2.727 2.727 0 0 1 3.49 2.617z" fill="#FFEBD2"/>
    <path d="M45.513 37.516v3.687c0 .551-.416 1.032-.966 1.068a1.034 1.034 0 0 1-1.102-1.032c0-3.94-.01-3.767.003-3.767.07-1.375 2.065-1.28 2.065.044zM50.942 37.71v3.493c0 .551-.416 1.032-.966 1.067a1.034 1.034 0 0 1-1.103-1.032c0-3.729-.002-3.483.006-3.613.082-1.319 2.063-1.236 2.063.086zM56.502 38.499v2.963c0 .551-.416 1.032-.966 1.068a1.034 1.034 0 0 1-1.102-1.032c0-3.155-.002-2.954.006-3.083.08-1.32 2.062-1.239 2.062.084z" fill="#FFDFBA"/>
</svg>
