<svg width="65" height="60" viewBox="0 0 65 60" fill="none" xmlns="http://www.w3.org/2000/svg">
    <path d="M65 55V9.61H0v45.402A4.99 4.99 0 0 0 5 60h55a5 5 0 0 0 5-5z" fill="#B9CAED"/>
    <path d="M64.99 4.683v5.708H.008V4.683C.008 2.097 2.015 0 4.489 0h56.02c2.475 0 4.481 2.097 4.481 4.683z" fill="#203B74"/>
    <path d="M38.297 19.222c-1.784-1.084-4.4-.45-5.855 1.749-1.456-2.2-4.072-2.833-5.855-1.749-2.087 1.269-2.387 4.63.05 6.757.473.412 1.18.352 1.58-.14a1.19 1.19 0 0 0-.136-1.636c-1.258-1.098-1.084-2.538-.36-2.978.507-.308 1.26-.255 1.918.136 1.069.634 1.682 1.994 1.682 3.73 0 .641.502 1.161 1.12 1.161.62 0 1.122-.52 1.122-1.16 0-1.737.613-3.096 1.682-3.73.658-.391 1.412-.445 1.918-.137.72.438.901 1.877-.36 2.978a1.19 1.19 0 0 0-.136 1.636 1.094 1.094 0 0 0 1.58.14c2.43-2.121 2.142-5.485.05-6.757z" fill="#5DC196"/>
    <path d="M47.596 26.83v11.901c0 1.283-1.002 2.322-2.24 2.322H19.578c-1.238 0-2.241-1.039-2.241-2.322V26.83c0-1.283 1.003-2.322 2.241-2.322h25.776c1.239 0 2.242 1.039 2.242 2.322z" fill="#203B74"/>
    <path d="M47.596 30.72v1.16c0 .321-.25.581-.56.581H33.588v6.531c0 .32-.251.58-.56.58h-1.121a.57.57 0 0 1-.56-.58v-6.53H17.898a.57.57 0 0 1-.56-.581v-1.162c0-.32.25-.58.56-.58h13.448V26.84c0-.618.451-1.158 1.047-1.198.653-.043 1.195.492 1.195 1.159v3.338h13.448c.31 0 .56.26.56.58z" fill="#5DC196"/>
    <path d="M43.233 46.47h-3.821c-.62 0-1.121-.52-1.121-1.16 0-.642.502-1.162 1.12-1.162h3.822c.62 0 1.12.52 1.12 1.161 0 .642-.5 1.162-1.12 1.162zM34.268 46.47H22.78c-.62 0-1.12-.52-1.12-1.16 0-.642.5-1.162 1.12-1.162h11.487c.619 0 1.12.52 1.12 1.161 0 .642-.501 1.162-1.12 1.162z" fill="#203B74"/>
</svg>
