<?xml version="1.0" encoding="UTF-8"?>
<svg width="206px" height="102px" viewBox="0 0 206 102" version="1.1" xmlns="http://www.w3.org/2000/svg" xmlns:xlink="http://www.w3.org/1999/xlink">
    <title>pie chart</title>
    <defs>
        <path d="M0.025262956,201.970443 C0.0169950795,201.970443 0.00872720298,201.970443 0,201.970443 L0,167.479159 C36.7240702,167.486049 66.5003681,137.721234 66.5067986,100.997164 C66.5136885,64.2735533 36.7488738,34.4972554 0.0248036295,34.4908248 L0,34.4908248 L0,2.26163478e-15 L0.0248036295,2.26163478e-15 C55.794846,-0.00275595884 101.007269,45.2055335 101.010485,100.975576 C101.010485,156.75802 55.7976019,201.970443 0.025262956,201.970443 Z" id="path-1"></path>
    </defs>
    <g id="Page-1" stroke="none" stroke-width="1" fill="none" fill-rule="evenodd">
        <g id="13_Urban-Money_Home-Loan-Calculators" transform="translate(-915.000000, -356.000000)">
            <g id="Group-23-Copy" transform="translate(155.000000, 280.000000)">
                <g id="Group-36" transform="translate(734.000000, 26.000000)">
                    <g id="pie-chart" transform="translate(129.005242, 101.000000) scale(1, -1) rotate(90.000000) translate(-129.005242, -101.000000) translate(78.500000, -1.500000)">
                        <path d="M100.985222,37.5208408 L100.985222,3.02955665 C45.2128827,3.02955665 0,48.24198 0,104.014778 C0,159.787577 45.2128827,205 100.985222,205 L100.985222,170.508716 C64.2616108,170.508716 34.4908248,140.738389 34.4908248,104.014319 C34.4908248,67.2902488 64.2616108,37.5208408 100.985222,37.5208408 Z" id="Path" fill="#EEEFEE" fill-rule="nonzero" transform="translate(50.492611, 104.014778) scale(1, -1) rotate(180.000000) translate(-50.492611, -104.014778) "></path>
                        <g id="Rectangle" transform="translate(0.000000, 0.000000)">
                            <mask id="mask-2" fill="white">
                                <use xlink:href="#path-1"></use>
                            </mask>
                            <use id="Mask" fill="#EF5261" fill-rule="nonzero" xlink:href="#path-1"></use>
                            <path d="M18.200049,50.332898 C25.5376101,16.7776327 38.6581192,1.43508631e-14 57.5615764,1.43508631e-14 C76.0333239,1.43508631e-14 94.7674879,14.1294429 113.764068,42.3883286 C114.649552,43.7076098 115.122918,45.260446 115.123153,46.8493397 L115.123153,218.206897 C115.123153,222.625175 111.541431,226.206897 107.123153,226.206897 L7.55725581,226.206897 C3.31572328,226.206897 -0.188571716,222.89654 -0.429796028,218.661872 L-4.02677739,155.517241 L-4.02677739,155.517241 L18.1892934,50.3822194 C18.1928522,50.365773 18.1963892,50.3493221 18.200049,50.332898 Z" fill="#3B419E" mask="url(#mask-2)"></path>
                        </g>
                    </g>
                </g>
            </g>
        </g>
    </g>
</svg>