<svg width="19" height="19" viewBox="0 0 19 19" xmlns="http://www.w3.org/2000/svg">
    <g fill="none" fill-rule="evenodd">
        <path d="M1 7.113a7.113 7.113 0 1 0 14.226 0A7.113 7.113 0 0 0 1 7.113" fill="#E9EAEB"/>
        <path d="M11.742 5.226a2.323 2.323 0 1 1-4.645 0 2.323 2.323 0 0 1 4.645 0" fill="#A3D4FF"/>
        <path d="M11.742 5.226a2.323 2.323 0 1 1-4.645 0 2.323 2.323 0 0 1 4.645 0z" stroke="#2A5082" stroke-linecap="round"/>
        <path d="M9.42 6.968c-.913 0-2.468.332-3.471.966-1.016-.833-2.338-.96-2.54-.707-.17.215.364 1.148.729 1.782-.522.354-.943.86-1.211 1.462-.32.15-.724.23-1.312.226-.509-.004-.28 1.407.188 2.299.427.814 3.186 2.49 3.552 2.554l.29 2.45h.871l.669-1.464c.68.209 1.754.303 2.525.303.854 0 1.754-.018 2.592-.273L13.194 18h.87l.56-2.802c.905-.866 1.473-1.922 1.473-3.295 0-2.747-3.278-4.935-6.678-4.935" fill="#FFF"/>
        <path d="M6.476 8.471C5.469 7.167 3.648 6.926 3.409 7.227c-.17.215.364 1.148.729 1.782-.522.354-.942.86-1.211 1.462-.32.15-.724.23-1.312.226-.51-.003-.28 1.407.188 2.299.427.814 3.186 2.49 3.552 2.554l.29 2.45h.871l.67-1.464c.678.21 1.753.303 2.524.303.854 0 1.754-.018 2.592-.273L13.194 18h.87l.56-2.802c.905-.866 1.473-1.922 1.473-3.295 0-2.747-3.278-4.935-6.678-4.935-.912 0-2.474.325-3.478.96M4.484 10.452h.581M16.097 11.613l.617-.306c.2-.145.474-.044.55.204.086.279.414.362.606.154l.259-.28" stroke="#2A5082" stroke-linecap="round"/>
        <path d="M8.258 9.871a.87.87 0 1 0 0 1.742.87.87 0 0 0 0-1.742zM11.161 13.935h0a.87.87 0 1 1 0-1.741.87.87 0 0 1 0 1.741zM7.968 13.935l3.484-4.064" stroke="#2A5082" stroke-linecap="round"/>
        <path stroke="#BCC0C4" d="m3.903 4.065-.58.58M5.355 2.613l-.581.581M4.774 4.065l.581.58M3.323 2.613l.58.581M16.968 6.968v.58M16.968 8.129v.581M16.677 7.839h-.58M17.839 7.839h-.581M14.935 4.065v.58M14.935 5.226v.58M14.645 4.935h-.58M15.806 4.935h-.58"/>
    </g>
</svg>
