<svg width="51" height="51" viewBox="0 0 51 51" xmlns="http://www.w3.org/2000/svg" xmlns:xlink="http://www.w3.org/1999/xlink">
    <defs>
        <path id="p30bgyuata" d="M0 0h39.522v24.446H0z"/>
    </defs>
    <g fill="none" fill-rule="evenodd">
        <path d="M.522 25.19c0 13.77 11.164 24.934 24.935 24.934 13.77 0 24.935-11.164 24.935-24.935C50.392 11.42 39.228.254 25.457.254 11.686.254.522 11.418.522 25.19" fill="#FF8DC4"/>
        <g transform="matrix(-1 0 0 1 44.843 15.9)">
            <mask id="7fga4evjwb" fill="#fff">
                <use xlink:href="#p30bgyuata"/>
            </mask>
            <path d="M16.89 18.701c-.05-.418-.269-.756-.624-.906-.382-.162-.783-.08-1.084.258a57.1 57.1 0 0 0-1.4 1.643c-.385.468-.346 1.019.072 1.376.404.346.982.293 1.37-.147.467-.531.928-1.068 1.37-1.62.136-.17.2-.401.296-.604zm2.342 1.993c-.05-.42-.27-.758-.628-.912-.38-.164-.787-.085-1.085.25-.47.529-.926 1.069-1.378 1.613-.397.48-.372 1.052.045 1.409.42.36.984.298 1.395-.17.449-.513.895-1.028 1.32-1.56.145-.183.222-.42.331-.63zm-8.099-2.35c.058.412.291.76.643.903.389.158.778.075 1.082-.27.477-.539.945-1.087 1.4-1.644.377-.46.33-1.03-.088-1.376-.415-.343-.975-.284-1.37.165a43.612 43.612 0 0 0-1.345 1.589c-.145.181-.217.42-.322.633zM8.808 16.34c.045.44.268.775.65.926.382.152.776.061 1.078-.282.467-.53.927-1.069 1.374-1.615.387-.473.355-1.015-.057-1.379-.412-.363-.987-.306-1.396.16a44.926 44.926 0 0 0-1.345 1.59c-.137.171-.205.398-.304.6zM8.32 2.41 5.127 1.15 1.152 11.244l3.195 1.259L8.32 2.41zm.694 1.4-3.366 8.55 3.113 1.979c.327-.378.622-.752.952-1.094.577-.596 1.288-.788 2.084-.566.797.223 1.289.762 1.486 1.57.027.11.059.217.089.326.597-.015 1.116.132 1.561.508.454.383.664.895.756 1.455 1.395.09 1.97.58 2.345 1.98 2.057-.055 3.044 2.212 1.62 3.757.415.247.796.542 1.225.714.508.203 1.084-.098 1.32-.591.239-.495.117-.98-.331-1.329-.315-.244-.637-.48-.942-.738-.283-.24-.316-.56-.11-.82.202-.256.519-.29.826-.08.116.079.224.172.337.257.543.411 1.074.843 1.635 1.228.55.376 1.25.233 1.608-.282.354-.51.235-1.153-.292-1.562-.487-.378-.981-.75-1.464-1.134-.303-.242-.355-.582-.15-.847.21-.271.53-.303.854-.067.322.235.631.487.949.728.42.32.827.658 1.267.947.537.354 1.228.21 1.578-.288.365-.52.253-1.152-.277-1.56-.57-.44-1.147-.873-1.708-1.325-.39-.313-.336-.814.087-1.008.277-.128.493-.005.706.159.786.604 1.567 1.213 2.365 1.8.19.14.425.254.655.295.498.089.99-.212 1.188-.668a1.171 1.171 0 0 0-.393-1.416 395.75 395.75 0 0 0-4.44-3.278c-.118-.086-.313-.112-.465-.098-2.504.231-4.626-.593-6.416-2.322-.238-.229-.377-.247-.629-.023-.878.785-1.834 1.457-2.97 1.82-1.142.365-2.234.297-3.23-.432-1.106-.81-1.057-1.956.05-2.756 1.105-.797 2.158-1.664 3.232-2.503.082-.065.147-.153.22-.23l-.03-.134c-1.33-.079-2.661-.198-3.993-.22-.8-.013-1.559-.103-2.283-.447-.184-.088-.377-.157-.619-.256zM0 10.905c.227-.541.464-1.079.68-1.625C1.77 6.518 2.856 3.752 3.943.987 4.31.054 4.871-.197 5.796.165 6.73.529 7.66.9 8.592 1.265c.578.227.884.63.882 1.267 0 .092.092.227.178.269.733.361 1.49.54 2.33.555 1.613.03 3.245 0 4.814.51.093.03.242-.022.33-.085.144-.104.263-.245.388-.374.785-.817 1.736-1.105 2.845-.917.62.106 1.242.2 1.864.3.418.067.65.314.617.651-.037.358-.33.561-.77.5-.699-.098-1.396-.215-2.094-.324a1.685 1.685 0 0 0-1.517.492c-1.673 1.665-3.439 3.217-5.409 4.527-.344.229-.343.445-.027.706.669.554 1.425.601 2.22.362 1.033-.31 1.875-.944 2.677-1.638.753-.651 1.4-.638 2.098.049 1.623 1.597 3.55 2.318 5.825 2.005.335-.046.59.037.855.234 1.524 1.14 3.059 2.267 4.614 3.416l2.483-1.597a54567.82 54567.82 0 0 1-3.291-8.36c-.378.136-.736.239-1.071.39-1.156.524-2.346.627-3.579.348-.3-.068-.609-.096-.912-.15-.392-.07-.595-.314-.557-.658.036-.337.299-.536.697-.49.42.048.842.11 1.256.197.805.17 1.581.115 2.343-.203.39-.164.797-.289 1.186-.455a.354.354 0 0 0 .175-.264c.003-.615.281-1.019.853-1.242.993-.386 1.98-.791 2.973-1.178.717-.279 1.346-.01 1.632.704.494 1.23.977 2.464 1.459 3.697.16.409.037.737-.303.865-.32.12-.612-.04-.771-.44-.442-1.111-.878-2.225-1.317-3.338-.056-.142-.119-.28-.188-.443-1.065.422-2.111.837-3.182 1.26l3.973 10.092 3.194-1.258-1.206-3.069c-.08-.203-.172-.403-.238-.611-.102-.32.034-.63.31-.743.302-.124.625-.004.76.33.499 1.242.994 2.484 1.463 3.736.197.53-.05 1.154-.565 1.374a86.41 86.41 0 0 1-3.365 1.337c-.369.14-.73.04-1.062-.186-.092-.062-.274-.1-.355-.05-.69.422-1.366.867-2.04 1.3.428 2.208-.577 3.414-2.692 3.256-.445 1.604-1.047 2.072-2.775 2.127-.071.754-.37 1.402-1.024 1.838-.64.425-1.336.495-2.092.267-.223 1.073-.817 1.774-1.895 2.006-1.097.236-1.855-.416-2.669-1.046-.154.177-.303.347-.45.518-.579.674-1.3.961-2.17.743-.868-.217-1.38-.795-1.574-1.67-.02-.093-.138-.232-.215-.236-1.263-.057-1.934-.764-2.171-1.95-1.49-.195-2.075-.698-2.322-1.989-2.032-.338-2.792-1.538-2.025-3.27-.13-.097-.266-.208-.412-.301-.748-.477-1.494-.957-2.254-1.415-.11-.067-.289-.03-.435-.026-.336.013-.706.136-1 .035-1.056-.364-2.084-.806-3.126-1.21-.392-.151-.585-.475-.766-.817v-.619z" fill="#FFF" mask="url(#7fga4evjwb)"/>
        </g>
    </g>
</svg>
