<svg xmlns="http://www.w3.org/2000/svg" width="16" height="16" viewBox="0 0 16 16"><g opacity=".8"><path d="M8.5 3.3125C8.5 2.53576659 7.84069825 1.90625 7.0625 1.90625 6.28710938 1.90625 5.65625 2.53710938 5.65625 3.3125 5.65625 4.08789062 6.28710938 4.71875 7.0625 4.71875 7.83947753 4.71875 8.5 4.09069825 8.5 3.3125ZM7.0625 3.78125C6.80407716 3.78125 6.59375 3.57092284 6.59375 3.3125 6.59375 3.05407716 6.80407716 2.84375 7.0625 2.84375 7.32885744 2.84375 7.5625 3.06274413 7.5625 3.3125 7.5625 3.56225587 7.32885744 3.78125 7.0625 3.78125ZM9.4375 6.125C9.4375 5.34960938 8.80664062 4.71875 8.03125 4.71875L6.125 4.71875C5.34960938 4.71875 4.71875 5.34960938 4.71875 6.125L4.71875 8.03125C4.71875 8.29016113 4.92858887 8.5 5.1875 8.5L8.96875 8.5C9.22766113 8.5 9.4375 8.29016112 9.4375 8.03125L9.4375 6.125ZM8.5 7.5625 5.65625 7.5625 5.65625 6.125C5.65625 5.86657716 5.86657716 5.65625 6.125 5.65625L8.03125 5.65625C8.28967284 5.65625 8.5 5.86657716 8.5 6.125L8.5 7.5625ZM10.3741455 9.90625C10.3741455 10.1651611 10.1641846 10.375 9.9053955 10.375 9.64648438 10.375 9.4366455 10.1651611 9.4366455 9.90625 9.4366455 9.64733888 9.64648438 9.4375 9.9053955 9.4375 10.1641846 9.4375 10.3741455 9.64733888 10.3741455 9.90625ZM10.3741455 11.78125C10.3741455 12.0401611 10.1641846 12.25 9.9053955 12.25 9.64648438 12.25 9.4366455 12.0401611 9.4366455 11.78125 9.4366455 11.5223389 9.64648438 11.3125 9.9053955 11.3125 10.1641846 11.3125 10.3741455 11.5223389 10.3741455 11.78125Z"/><path d="M15.53125,4.71875 L14.125,4.71875 L14.125,1.40625 C14.125,0.630859375 13.4941406,0 12.71875,0 L3.28125,0 C2.50585938,0 1.875,0.630859375 1.875,1.40625 L1.875,13.1875 L0.46875,13.1875 C0.209838875,13.1875 0,13.3973389 0,13.65625 L0,14.125 C0,15.1589356 0.841064438,16 1.875,16 L10.375,16 C11.4089356,16 12.25,15.1589356 12.25,14.125 C12.25,13.6917725 12.25,11.6546631 12.25,11.3125 L14.59375,11.3125 C15.3691406,11.3125 16,10.6816406 16,9.90625 L16,5.1875 C16,4.92858887 15.7901611,4.71875 15.53125,4.71875 Z M0.9375,14.125 L8.5,14.125 C8.5,14.4664307 8.59216309,14.786499 8.75219725,15.0625 L1.875,15.0625 C1.35803222,15.0625 0.9375,14.6419678 0.9375,14.125 Z M10.375,15.0625 C9.85803222,15.0625 9.4375,14.6419678 9.4375,14.125 L9.4375,13.65625 C9.4375,13.3973389 9.22766112,13.1875 8.96875,13.1875 L2.8125,13.1875 L2.8125,1.40625 C2.8125,1.14782716 3.02282716,0.937133781 3.28125,0.937133781 L11.3930664,0.937133781 C11.3410644,1.08386231 11.3125,1.24157716 11.3125,1.40588378 L11.3125,14.125 C11.3125,14.6419678 10.8919678,15.0625 10.375,15.0625 Z M12.25,1.40625 C12.25,1.14782716 12.4603272,0.9375 12.71875,0.9375 C12.9771728,0.9375 13.1875,1.14782716 13.1875,1.40625 L13.1875,9.90625 C13.1875,10.0705566 13.2160644,10.2282715 13.2680664,10.375 L12.25,10.375 L12.25,1.40625 Z M15.0625,9.90625 C15.0625,10.1646728 14.8521728,10.375 14.59375,10.375 C14.3353272,10.375 14.125,10.1646728 14.125,9.90625 L14.125,5.65625 L15.0625,5.65625 L15.0625,9.90625 Z"/><path d="M8.03125 9.4375 4.21875 9.4375C3.95983887 9.4375 3.75 9.64733888 3.75 9.90625 3.75 10.1651611 3.95983887 10.375 4.21875 10.375L8.03125 10.375C8.29016113 10.375 8.5 10.1651611 8.5 9.90625 8.5 9.64733888 8.29016112 9.4375 8.03125 9.4375ZM8.03125 11.3125 4.21875 11.3125C3.95983887 11.3125 3.75 11.5223389 3.75 11.78125 3.75 12.0401611 3.95983887 12.25 4.21875 12.25L8.03125 12.25C8.29016113 12.25 8.5 12.0401611 8.5 11.78125 8.5 11.5223389 8.29016112 11.3125 8.03125 11.3125Z"/></g></svg>