<svg width="40" height="40" viewBox="0 0 40 40" fill="none" xmlns="http://www.w3.org/2000/svg">
    <path d="m39.686 17.622-.78-1.506a.798.798 0 0 0-.475-.405.712.712 0 0 0-.593.087l-7.892 5.071H10.053l-7.891-5.071a.713.713 0 0 0-.593-.087c-.2.06-.37.205-.474.405l-.781 1.506c-.647 1.246-.262 2.845.857 3.564l7.892 5.071v11.134c0 1.439 1.051 2.609 2.344 2.609h17.187c1.292 0 2.343-1.17 2.343-2.609V26.257l7.892-5.071c.54-.348.928-.91 1.09-1.585a2.85 2.85 0 0 0-.233-1.979zM19.655 38.261l9.72-10.82v4.497l-5.68 6.323h-4.04zm9.72-13.28-11.93 13.28h-4.04l14.062-15.653h1.908v2.374zm-16.617-2.373-2.133 2.374v-2.374h2.133zM1.952 19.68a.857.857 0 0 1-.362-.529.95.95 0 0 1 .077-.66l.39-.752 7.006 4.502v2.008l-7.11-4.57zm8.673 14.718 2.81-3.128a.94.94 0 0 0 0-1.23.726.726 0 0 0-1.104 0l-1.706 1.898v-4.497l4.342-4.833h4.04l-1.705 1.898a.94.94 0 0 0 0 1.23.74.74 0 0 0 .553.255c.2 0 .4-.085.552-.255l2.81-3.128h4.04L11.219 38.234c-.34-.094-.594-.436-.594-.843v-2.993zm17.968 3.863h-2.689l3.47-3.863v2.993c0 .48-.35.87-.78.87zm9.817-19.11a.858.858 0 0 1-.363.529l-7.11 4.569v-2.008l7.006-4.502.39.753c.104.2.13.433.077.66zM16.39 7.377 16.161 9.3c-.06.367-.015.738.132 1.075.27.618.828.977 1.407.977.23 0 .462-.056.681-.175l1.6-.866 1.644.872c.275.146.582.199.887.152.852-.131 1.45-1.01 1.332-1.96l-.247-1.963 1.209-1.418c.238-.257.395-.585.452-.95a1.884 1.884 0 0 0-.26-1.3 1.543 1.543 0 0 0-1.008-.712l-1.752-.346-.87-1.781a1.652 1.652 0 0 0-.636-.702c-.76-.45-1.706-.13-2.11.715l-.837 1.748-1.757.364a1.499 1.499 0 0 0-.834.463c-.3.321-.47.754-.478 1.218-.008.464.147.903.436 1.238l1.236 1.427zm-.087-2.634 2.138-.443a.793.793 0 0 0 .547-.446l1.01-2.114 1.048 2.146a.791.791 0 0 0 .55.44l2.124.418a.819.819 0 0 0-.034.038l-1.48 1.738a.934.934 0 0 0-.207.72l.3 2.375-1.985-1.053a.71.71 0 0 0-.678.003l-1.937 1.05.01-.062.278-2.365a.933.933 0 0 0-.212-.717l-1.498-1.723.026-.005z" fill="#9E1A22"/>
    <path d="M19.26 13.708v4.031c0 .48.35.87.782.87.431 0 .781-.39.781-.87v-4.03c0-.48-.35-.87-.781-.87-.432 0-.781.39-.781.87zM9.804 11.078c-.216.416-.088.948.286 1.188 1.661 1.067 2.748 3.645 2.84 5.52.023.464.367.823.78.823.014 0 .028 0 .042-.002.431-.026.761-.436.738-.915-.115-2.363-1.395-5.503-3.619-6.932-.373-.24-.851-.098-1.067.318zM2.852 9.052l1.619.7.628 1.8c.144.415.44.745.814.906.168.072.34.106.51.106.571 0 1.11-.385 1.328-1.01l.628-1.802 1.618-.7c.373-.16.67-.49.813-.905a1.737 1.737 0 0 0-.026-1.21 1.49 1.49 0 0 0-.786-.836L8.38 5.4 7.751 3.6a1.514 1.514 0 0 0-.814-.905c-.73-.315-1.555.092-1.837.904L4.47 5.4l-1.617.7c-.373.16-.67.49-.813.905-.137.394-.128.824.026 1.21.153.387.433.684.786.836zm2.505-2.169a.83.83 0 0 0 .445-.495l.623-1.784.623 1.784a.83.83 0 0 0 .445.495l1.603.693-1.603.693a.83.83 0 0 0-.445.496l-.623 1.784-.623-1.784a.83.83 0 0 0-.445-.496l-1.602-.693 1.602-.693zM26.247 18.607l.043.002c.412 0 .757-.36.78-.823.09-1.875 1.178-4.453 2.84-5.52.373-.24.5-.772.285-1.188-.216-.416-.694-.558-1.067-.318-2.224 1.429-3.504 4.569-3.619 6.932-.023.48.307.89.738.915zM30.002 9.052l1.62.7.628 1.8c.218.627.757 1.012 1.327 1.012.17 0 .343-.034.512-.106.372-.16.668-.49.812-.904l.63-1.802 1.617-.7c.73-.314 1.096-1.232.813-2.046a1.514 1.514 0 0 0-.812-.905l-1.619-.7-.628-1.8c-.283-.815-1.107-1.22-1.839-.906-.372.16-.668.49-.813.904L31.621 5.4l-1.617.7c-.731.314-1.096 1.232-.814 2.046.144.415.44.745.812.905zm2.506-2.169a.83.83 0 0 0 .445-.495l.623-1.784.622 1.784a.83.83 0 0 0 .446.495l1.602.693-1.602.693a.83.83 0 0 0-.446.496l-.622 1.784-.623-1.784a.83.83 0 0 0-.445-.496l-1.603-.693 1.603-.693zM15.37 28.758c.43 0 .78-.39.78-.87s-.35-.87-.78-.87h-.001c-.432 0-.781.39-.781.87s.35.87.781.87z" fill="#9E1A22"/>
</svg>
