<svg width="51" height="51" viewBox="0 0 51 51" xmlns="http://www.w3.org/2000/svg" xmlns:xlink="http://www.w3.org/1999/xlink">
    <defs>
        <path id="ob1wz5dyfa" d="M0 0h11.142v18.175H0z"/>
        <path id="7j26ukknhc" d="M0 0h11.132v18.166H0z"/>
    </defs>
    <g fill="none" fill-rule="evenodd">
        <path d="M50.829 25.72c0 13.772-11.164 24.936-24.935 24.936C12.123 50.656.96 39.492.96 25.72.96 11.95 12.123.786 25.894.786 39.665.786 50.83 11.95 50.83 25.721" fill="#83B9F4"/>
        <path d="M32.162 17.175h.054c0-.897-.006-1.795.005-2.693.002-.2-.054-.275-.256-.319-2.114-.463-4.224-.941-6.338-1.407a1.136 1.136 0 0 0-.475.004c-2.104.464-4.205.942-6.31 1.4-.236.05-.276.146-.275.36.008 1.517-.002 3.036.007 4.554.003.476.006.959.076 1.428.594 3.956 2.703 6.786 6.332 8.482.283.132.527.161.804.007.283-.157.59-.27.871-.43 3.227-1.853 5.096-4.62 5.49-8.325.107-1.01.015-2.04.015-3.06zm-6.597-5.633c.816.19 1.63.385 2.447.569 1.571.352 3.144.697 4.716 1.047.511.114.634.268.634.786 0 1.824.012 3.647-.005 5.47-.045 4.793-3.165 9.206-7.663 10.838a.954.954 0 0 1-.626-.015c-4.196-1.695-6.69-4.786-7.501-9.228-.114-.625-.13-1.273-.136-1.91-.018-1.709-.006-3.417-.006-5.126 0-.565.11-.694.69-.823 2.316-.516 4.633-1.032 6.949-1.55.054-.012.105-.038.157-.058h.344z" fill="#FFF"/>
        <g transform="translate(26.807 22.702)">
            <mask id="oz6me05jvb" fill="#fff">
                <use xlink:href="#ob1wz5dyfa"/>
            </mask>
            <path d="M6.298 7.963c.307-.29.41-.642.408-1.042a759.854 759.854 0 0 1 0-4.926C6.71.986 7.316.232 8.255.038c1.054-.218 2.134.53 2.248 1.6.19 1.784.348 3.57.52 5.356.03.314.05.628.093.94.1.748-.073 1.407-.541 2.01-1.522 1.96-3.024 3.935-4.543 5.897a.959.959 0 0 0-.224.677c.017.343.008.687.003 1.031-.006.375-.233.623-.564.626-.325.003-.573-.25-.578-.615-.009-.526-.02-1.052.007-1.575.01-.175.1-.37.21-.513a838.324 838.324 0 0 1 4.743-6.175c.298-.384.398-.778.35-1.25-.198-1.985-.38-3.97-.57-5.956a2.855 2.855 0 0 0-.048-.34.748.748 0 0 0-.797-.594.746.746 0 0 0-.701.671c-.012.114-.011.23-.011.344 0 1.575-.006 3.15.002 4.725a2.652 2.652 0 0 1-.586 1.722c-.674.853-1.33 1.723-1.99 2.587-.154.202-.336.346-.603.308-.44-.063-.636-.545-.365-.922.302-.417.631-.815.934-1.231.332-.457.11-1.035-.425-1.125a.63.63 0 0 0-.635.246c-.84 1.1-1.686 2.194-2.5 3.313-.36.494-.523 1.08-.527 1.698-.008 1.279-.006 2.558-.008 3.837 0 .095.003.192-.006.286-.036.337-.27.562-.577.56-.32-.004-.558-.242-.559-.6-.002-1.44-.021-2.883.02-4.323.028-.93.41-1.755.974-2.493.713-.932 1.423-1.868 2.133-2.802.893-1.178 2.253-1.186 3.165.005" fill="#FFF" mask="url(#oz6me05jvb)"/>
        </g>
        <g transform="translate(12.693 22.71)">
            <mask id="148mbljwcd" fill="#fff">
                <use xlink:href="#7j26ukknhc"/>
            </mask>
            <path d="M4.827 7.957c.318-.46.73-.777 1.295-.86.678-.1 1.267.096 1.687.63a106.753 106.753 0 0 1 2.541 3.354c.56.771.778 1.67.78 2.619.004 1.25.002 2.5 0 3.751 0 .086-.005.173-.022.257a.56.56 0 0 1-.573.458.554.554 0 0 1-.537-.5c-.016-.14-.012-.285-.012-.428-.001-1.155-.004-2.31 0-3.466a3.707 3.707 0 0 0-.798-2.364c-.725-.935-1.437-1.88-2.15-2.825-.179-.236-.393-.396-.7-.36-.536.061-.792.652-.471 1.103.288.404.61.784.897 1.188a.898.898 0 0 1 .169.468c.006.249-.15.424-.396.5-.262.082-.472-.012-.631-.216-.458-.588-.908-1.18-1.361-1.771-.221-.288-.434-.582-.665-.861-.422-.508-.608-1.082-.602-1.743.015-1.575.005-3.15.004-4.726 0-.114 0-.23-.016-.343-.057-.406-.364-.676-.758-.675-.396 0-.71.27-.754.678-.102.958-.19 1.918-.282 2.877-.109 1.13-.207 2.262-.328 3.391-.045.423.04.781.303 1.122 1.6 2.069 3.186 4.147 4.784 6.218.16.208.237.42.23.684-.014.467-.001.935-.005 1.403-.004.393-.234.648-.573.646-.337-.001-.564-.26-.572-.651v-.029c-.01-.466.085-.968-.06-1.387-.14-.411-.524-.74-.803-1.103-1.203-1.567-2.373-3.161-3.623-4.69-.687-.84-.922-1.711-.79-2.78.236-1.92.386-3.854.57-5.782C.7.754 1.493.011 2.472 0 3.478-.01 4.3.704 4.404 1.7c.032.312.023.63.024.944.002 1.432.006 2.864-.002 4.296-.002.394.108.73.401 1.017" fill="#FFF" mask="url(#148mbljwcd)"/>
        </g>
        <path d="M30.096 15.922c-1.56-.347-3.085-.689-4.612-1.02-.113-.026-.245.007-.363.033-1.573.349-3.143.708-4.719 1.046-.19.04-.424.02-.601-.057-.216-.093-.29-.325-.245-.562.048-.249.208-.402.456-.458l2.176-.49c.958-.213 1.915-.437 2.877-.63.243-.049.514-.038.757.014 1.603.346 3.202.71 4.802 1.068.492.11.618.264.617.768 0 1.27.049 2.542-.012 3.81-.185 3.868-2.036 6.688-5.461 8.484a.739.739 0 0 1-.733.006c-2.994-1.527-4.793-3.938-5.372-7.25a9.017 9.017 0 0 1-.108-1.081c-.02-.381.226-.654.56-.658.321-.003.56.248.58.617.154 2.616 1.25 4.747 3.3 6.376.387.307.825.549 1.25.803a.362.362 0 0 0 .305 0c2.433-1.338 3.944-3.37 4.407-6.108.164-.97.107-1.977.136-2.968.016-.572.003-1.144.003-1.743" fill="#FFF"/>
        <path d="m24.255 20.978 2.166-1.957c.488-.442.974-.886 1.464-1.325.312-.278.655-.289.886-.037.238.259.201.597-.11.879-1.334 1.21-2.67 2.42-4.01 3.627-.336.304-.647.285-.94-.055-.453-.528-.902-1.06-1.348-1.595-.252-.302-.234-.64.034-.86.257-.211.579-.172.832.118.339.387.667.783 1.026 1.205M20.689 17.474a.588.588 0 0 1-.551.588.577.577 0 0 1-.59-.573.56.56 0 0 1 .56-.567.574.574 0 0 1 .58.552" fill="#FFF"/>
    </g>
</svg>
