<svg width="36" height="36" viewBox="0 0 36 36" fill="none" xmlns="http://www.w3.org/2000/svg">
    <path d="M4.648 11.032a.58.58 0 1 0 0 1.161h8.132a.58.58 0 1 0 0-1.161h-1.162V7.548h1.162a.581.581 0 0 0 .377-1.021L9.091 3.043a.58.58 0 0 0-.755 0L4.27 6.527a.58.58 0 0 0 .378 1.02h1.161v3.485H4.648zm4.066-6.784 2.497 2.139H6.216l2.498-2.139zm-1.743 3.3h3.485v3.484H6.971V7.548zM4.648 16.258h17.425a.58.58 0 1 0 0-1.161H4.648a.58.58 0 1 0 0 1.161zM4.648 20.899h10.455a.58.58 0 1 0 0-1.162H4.648a.58.58 0 1 0 0 1.162zM17.427 24.386H4.647a.58.58 0 1 0 0 1.161h12.78a.58.58 0 1 0 0-1.161zM9.875 29.031H4.648a.58.58 0 1 0 0 1.162h5.227a.58.58 0 1 0 0-1.162zM19.168 19.737h-2.323a.58.58 0 1 0 0 1.162h2.323a.58.58 0 1 0 0-1.162z" fill="#fff"/>
    <path d="M35.715 8.826 32.805 7.1a.579.579 0 0 0-.797.203l-5.289 8.914V7.548a.581.581 0 0 0-.044-.217.519.519 0 0 0-.047-.076.558.558 0 0 0-.062-.099L20.177.188l-.01-.007a.608.608 0 0 0-.144-.103c-.016-.008-.028-.022-.044-.03A.584.584 0 0 0 19.75 0H.581A.58.58 0 0 0 0 .58v34.84c0 .32.26.58.58.58H26.14c.32 0 .58-.26.58-.58V25.118l9.2-15.497a.581.581 0 0 0-.204-.796zm-2.278 2.7-9.232 15.552-.445-.26 9.232-15.554.445.261zM21.95 27.105l1.366.799-1.62 1.087.254-1.886zm.806-.873-.465-.274 9.234-15.566.469.279-9.238 15.56zM20.33 2.073l4.488 4.895H20.33V2.073zm5.228 32.766H1.162V1.16h18.006v6.387c0 .321.26.581.581.581h5.809V18a.583.583 0 0 0 .026.13l-4.592 7.739a.535.535 0 0 0-.036.104.593.593 0 0 0-.038.111l-.545 4.028a.58.58 0 0 0 .9.56l3.463-2.322c.007-.005.01-.014.016-.018a.584.584 0 0 0 .155-.164l.005-.004.646-1.088v7.763zm8.472-24.311-.942-.559-.967-.575.593-.998 1.911 1.134-.595.998z" fill="#fff"/>
</svg>
