<svg width="187" height="92" viewBox="0 0 187 92" xmlns="http://www.w3.org/2000/svg">
    <g fill="none" fill-rule="evenodd">
        <path d="M106.841 63.532c0-3.899 3.34-7.06 7.46-7.06h38.545c4.12 0 7.459-3.16 7.459-7.058 0-3.899-3.34-7.06-7.46-7.06h-7.502c-4.12 0-7.459-3.16-7.459-7.058 0-3.9 3.34-7.06 7.46-7.06h25.696c4.12 0 7.46-3.16 7.46-7.059 0-3.898-3.34-7.059-7.46-7.059h-41.736c-4.12 0-7.459-3.16-7.459-7.059S118.505 0 114.386 0H22.463c-4.12 0-7.459 3.16-7.459 7.059s3.34 7.06 7.46 7.06h41.735c4.12 0 7.46 3.16 7.46 7.058 0 3.899-3.34 7.06-7.46 7.06H38.502c-4.12 0-7.459 3.16-7.459 7.059 0 3.898 3.34 7.059 7.46 7.059h7.502c4.12 0 7.459 3.16 7.459 7.059 0 3.898-3.34 7.059-7.46 7.059H7.46C3.34 56.473 0 59.633 0 63.532s3.34 7.06 7.46 7.06h65.19c4.12 0 7.46 3.16 7.46 7.058 0 3.899 3.339 7.06 7.458 7.06h91.923c4.12 0 7.46-3.161 7.46-7.06 0-3.898-3.34-7.059-7.46-7.059h-65.19c-4.12 0-7.46-3.16-7.46-7.059" fill="#F2F5EE"/>
        <g transform="translate(56 32)">
            <circle fill="#00B200" cx="30" cy="30" r="27.676"/>
            <path d="M30 60C13.46 60 0 46.543 0 30 0 13.46 13.46 0 30 0c16.543 0 30 13.46 30 30 0 16.543-13.457 30-30 30zm0-55.352C16.02 4.648 4.648 16.02 4.648 30S16.02 55.352 30 55.352 55.352 43.978 55.352 30C55.352 16.02 43.98 4.648 30 4.648z" fill="#F6FFEF"/>
        </g>
        <path d="M82.375 73.038a2.321 2.321 0 0 1-1.657-.695l-8.575-8.714a2.323 2.323 0 1 1 3.314-3.258l6.85 6.962L96.48 51.724a2.325 2.325 0 0 1 3.281-.158c.95.862 1.02 2.331.158 3.284L84.095 72.278a2.324 2.324 0 0 1-1.674.762c-.016-.002-.03-.002-.046-.002z" fill="#FFF" fill-rule="nonzero"/>
        <path d="M126.621 40.598a4.13 4.13 0 0 1-.035.52l.036-.271c-.046.32-.131.63-.254.928l.103-.244a3.86 3.86 0 0 1-.34.633c-.034.05-.07.098-.104.146-.098.138.182-.223.022-.031a3.813 3.813 0 0 1-.473.473c-.192.16.17-.12.031-.022-.048.034-.096.07-.146.103-.2.134-.412.246-.633.34l.244-.103a3.895 3.895 0 0 1-.928.255l.271-.037a3.948 3.948 0 0 1-1.04 0l.272.037a3.895 3.895 0 0 1-.929-.255c.082.035.163.07.245.103a3.86 3.86 0 0 1-.634-.34c-.05-.033-.097-.069-.146-.103-.138-.099.223.182.031.022a3.78 3.78 0 0 1-.472-.473c-.16-.192.12.17.021.031-.034-.048-.07-.096-.103-.146a3.86 3.86 0 0 1-.34-.633l.103.244a3.898 3.898 0 0 1-.255-.928l.037.271a3.947 3.947 0 0 1 0-1.04l-.037.272c.047-.32.132-.63.255-.929l-.103.245a3.86 3.86 0 0 1 .34-.634c.034-.05.069-.097.103-.146.099-.138-.182.223-.021.032a3.748 3.748 0 0 1 .472-.473c.192-.16-.169.12-.031.022.049-.035.097-.07.146-.103.2-.134.413-.247.634-.341l-.245.103c.3-.123.609-.208.929-.254l-.272.036a3.948 3.948 0 0 1 1.04 0l-.271-.036c.32.046.63.13.928.254l-.244-.103c.221.094.433.207.633.34.05.034.098.069.146.104.138.098-.223-.182-.03-.022a3.813 3.813 0 0 1 .472.473c.16.191-.12-.17-.022-.032.035.049.07.097.103.146.134.2.246.413.34.634l-.102-.245c.123.3.208.609.254.929l-.036-.272c.023.173.034.346.035.52.004.535.468 1.047 1.023 1.022.55-.024 1.026-.449 1.022-1.022-.006-.944-.282-1.916-.834-2.69a4.975 4.975 0 0 0-2.364-1.811c-1.793-.664-3.99-.072-5.2 1.41a4.955 4.955 0 0 0-1.13 2.781 4.71 4.71 0 0 0 .66 2.756c.477.792 1.203 1.48 2.05 1.859a4.973 4.973 0 0 0 3.046.358c1.844-.362 3.406-1.964 3.693-3.825.043-.278.077-.556.08-.838.002-.535-.474-1.047-1.023-1.022-.557.025-1.02.45-1.023 1.022" fill="#6DD400"/>
        <path d="M32.01 19.73h-2.875c-.914 0-1.655-.742-1.655-1.656V15.2c0-.352-.256-.67-.606-.704a.672.672 0 0 0-.735.668v2.91c0 .914-.741 1.655-1.655 1.655h-2.875c-.352 0-.67.256-.704.606a.672.672 0 0 0 .668.735h2.91c.915 0 1.656.74 1.656 1.655v2.874c0 .352.255.67.606.704a.672.672 0 0 0 .735-.667v-2.911c0-.914.74-1.655 1.655-1.655h2.91c.39 0 .706-.338.668-.735-.033-.35-.351-.606-.703-.606" fill="#B7D697"/>
        <path d="M93.346 9.447h-2.875c-.914 0-1.655-.741-1.655-1.655V4.917c0-.352-.255-.67-.606-.703a.672.672 0 0 0-.734.667v2.91c0 .915-.741 1.656-1.655 1.656h-2.875c-.353 0-.67.255-.704.606a.672.672 0 0 0 .667.734h2.912c.914 0 1.655.741 1.655 1.655v2.875c0 .352.255.67.606.703a.672.672 0 0 0 .734-.667v-2.911c0-.914.741-1.655 1.655-1.655h2.912c.39 0 .704-.337.667-.734-.033-.35-.351-.606-.704-.606" fill="#B9E788"/>
        <path d="m101.277 22.208-1.587 1.587a1.263 1.263 0 0 1-1.786 0l-1.587-1.587a.526.526 0 0 0-.643-.087.518.518 0 0 0-.098.808l1.597 1.597a1.262 1.262 0 0 1 0 1.785l-1.587 1.587a.526.526 0 0 0-.087.643.518.518 0 0 0 .808.098l1.597-1.597a1.263 1.263 0 0 1 1.786 0l1.587 1.587c.17.17.439.214.644.087a.518.518 0 0 0 .097-.808l-1.597-1.597a1.262 1.262 0 0 1 0-1.785l1.597-1.597a.518.518 0 0 0-.097-.808.526.526 0 0 0-.644.087" fill="#DBE7CD"/>
        <path d="M117.77 10.14a3.06 3.06 0 1 1-6.121-.001 3.06 3.06 0 0 1 6.12 0" fill="#79D680"/>
        <path d="M128.544 76.242a2.204 2.204 0 1 1-4.408 0 2.204 2.204 0 0 1 4.408 0" fill="#A1B679"/>
        <path d="m132.885 21.608-.051.052a.447.447 0 0 1-.63 0l-2.578-2.577a.447.447 0 0 1 0-.63l.052-.052a.447.447 0 0 1 .63 0l2.578 2.577a.447.447 0 0 1 0 .63M134.4 20.592h-.147a.41.41 0 0 1-.408-.409v-3.718a.41.41 0 0 1 .408-.409h.148a.41.41 0 0 1 .409.409v3.718a.41.41 0 0 1-.41.41M134.4 30.01h-.147a.41.41 0 0 1-.408-.409v-3.718a.41.41 0 0 1 .408-.409h.148a.41.41 0 0 1 .409.409v3.718a.41.41 0 0 1-.41.41M140.964 23.164v.148a.41.41 0 0 1-.409.408h-3.719a.41.41 0 0 1-.409-.408v-.148a.41.41 0 0 1 .41-.409h3.718a.41.41 0 0 1 .409.41M131.818 23.164v.148a.41.41 0 0 1-.41.408h-3.718a.41.41 0 0 1-.41-.408v-.148a.41.41 0 0 1 .41-.409h3.719a.41.41 0 0 1 .409.41M136.094 21.182l-.052-.052a.447.447 0 0 1 0-.63l2.577-2.577a.447.447 0 0 1 .631 0l.052.052a.447.447 0 0 1 0 .63l-2.578 2.577a.447.447 0 0 1-.63 0M129.362 27.965l-.104-.104a.41.41 0 0 1 0-.578l2.63-2.63a.41.41 0 0 1 .578 0l.105.104a.41.41 0 0 1 0 .579l-2.63 2.63a.41.41 0 0 1-.579-.001M139.208 27.98a.484.484 0 0 1-.683.001l-2.526-2.525a.484.484 0 0 1 0-.683.484.484 0 0 1 .683 0l2.526 2.526a.484.484 0 0 1 0 .682M48.655 50.987l-.052.052a.447.447 0 0 1-.63 0l-2.578-2.577a.447.447 0 0 1 0-.63l.052-.052a.447.447 0 0 1 .63 0l2.578 2.577a.447.447 0 0 1 0 .63" fill="#B8D8C6"/>
        <path d="M50.17 49.971h-.147a.41.41 0 0 1-.41-.409v-3.718a.41.41 0 0 1 .41-.409h.147a.41.41 0 0 1 .409.409v3.718a.41.41 0 0 1-.409.41M50.17 59.39h-.147a.41.41 0 0 1-.41-.41v-3.718a.41.41 0 0 1 .41-.409h.147a.41.41 0 0 1 .409.409v3.718a.41.41 0 0 1-.409.41M56.733 52.543v.148a.41.41 0 0 1-.409.408h-3.719a.41.41 0 0 1-.409-.408v-.148a.41.41 0 0 1 .41-.409h3.718a.41.41 0 0 1 .41.41M47.587 52.543v.148a.41.41 0 0 1-.41.408H43.46a.41.41 0 0 1-.409-.408v-.148a.41.41 0 0 1 .409-.409h3.719a.41.41 0 0 1 .409.41M51.863 50.561l-.052-.052a.447.447 0 0 1 0-.63l2.577-2.577a.447.447 0 0 1 .631 0l.052.052a.447.447 0 0 1 0 .63l-2.577 2.577a.447.447 0 0 1-.631 0M45.132 57.344l-.105-.104a.41.41 0 0 1 0-.578l2.63-2.63a.41.41 0 0 1 .578 0l.105.104a.41.41 0 0 1 0 .579l-2.63 2.629a.41.41 0 0 1-.578 0M54.977 57.36a.484.484 0 0 1-.683 0l-2.525-2.525a.484.484 0 0 1 0-.683.484.484 0 0 1 .682 0l2.526 2.526a.484.484 0 0 1 0 .682" fill="#E5E5E5"/>
    </g>
</svg>
