<?xml version="1.0" encoding="UTF-8"?>
<svg width="361px" height="480px" viewBox="0 0 361 480" version="1.1" xmlns="http://www.w3.org/2000/svg" xmlns:xlink="http://www.w3.org/1999/xlink">
    <title>top-banner mobile</title>
    <defs>
        <linearGradient x1="100%" y1="46.6099094%" x2="0%" y2="53.3900906%" id="linearGradient-1">
            <stop stop-color="#F7B500" offset="0%"></stop>
            <stop stop-color="#B620E0" offset="48.7416107%"></stop>
            <stop stop-color="#32C5FF" offset="100%"></stop>
        </linearGradient>
        <path d="M0,79.5085379 C25.1463361,57.7318172 54.3175732,45.4866068 87.5137113,42.7729065 C136.124436,38.7991029 147.661955,47.7555209 230.933825,57.8855412 C285.366318,64.5072522 328.72171,45.2120718 361,0 L361,473 L0,473 L0,79.5085379 Z" id="path-2"></path>
        <polygon id="path-4" points="0.216171807 39.4494238 0 39.2334132 39.2623634 0 39.4788531 0.216487157"></polygon>
        <linearGradient x1="100%" y1="0.0745166312%" x2="0%" y2="99.9254834%" id="linearGradient-6">
            <stop stop-color="#F7B500" offset="0%"></stop>
            <stop stop-color="#B620E0" offset="48.7416107%"></stop>
            <stop stop-color="#32C5FF" offset="100%"></stop>
        </linearGradient>
        <polygon id="path-7" points="0.145026655 26.4660691 0 26.3211506 26.3405729 0 26.4858128 0.145238219"></polygon>
        <linearGradient x1="100%" y1="0.0745166312%" x2="0%" y2="99.9254834%" id="linearGradient-9">
            <stop stop-color="#F7B500" offset="0%"></stop>
            <stop stop-color="#B620E0" offset="48.7416107%"></stop>
            <stop stop-color="#32C5FF" offset="100%"></stop>
        </linearGradient>
        <polygon id="path-10" points="0.0670800354 12.234315 0 12.1674402 12.1762047 0 12.2434418 0.0670317512"></polygon>
        <linearGradient x1="98.6071573%" y1="1.46475486%" x2="-0.59998332%" y2="100.526586%" id="linearGradient-12">
            <stop stop-color="#628CFF" offset="0%"></stop>
            <stop stop-color="#628CFF" offset="100%"></stop>
        </linearGradient>
        <linearGradient x1="100%" y1="0.0745166312%" x2="0%" y2="99.9254834%" id="linearGradient-13">
            <stop stop-color="#32C5FF" offset="0%"></stop>
            <stop stop-color="#B620E0" offset="51.2583893%"></stop>
            <stop stop-color="#F7B500" offset="100%"></stop>
        </linearGradient>
        <filter x="-128.8%" y="-128.9%" width="357.6%" height="357.8%" filterUnits="objectBoundingBox" id="filter-14">
            <feGaussianBlur stdDeviation="50" in="SourceGraphic"></feGaussianBlur>
        </filter>
    </defs>
    <g id="Page-1" stroke="none" stroke-width="1" fill="none" fill-rule="evenodd">
        <g id="top-banner-mobile">
            <path d="M359.77292,388.947194 C356.887293,404.81702 348.649993,417.977094 335.070205,428.432619 C320.538703,439.620899 299.916322,447.713772 273.218546,452.741902 C255.678851,456.045244 227.290444,452.438357 195.220397,448.386476 C166.874291,444.805094 135.661798,440.863736 106.489368,440.957678 C81.5966025,441.037839 34.2166344,449.090579 1.77836744,477.660958 L0.824,478.511 L0.817200368,478.365704 C0.780182361,477.555496 0.75863523,476.433269 0.752117739,475.000079 L0.750801228,474.635304 L0.750799007,473.385744 C0.752753046,472.582819 0.758290071,471.706666 0.771508519,470.752004 C24.3325463,441.742383 52.9277186,425.844825 86.5706534,423.086557 C118.087038,420.502638 134.316808,423.270281 163.79261,428.288502 C180.714025,431.169352 201.988081,434.791144 232.981347,438.5725 C260.935928,441.983119 285.625977,439.337601 307.054684,430.656084 C327.630994,422.319904 345.206392,408.418587 359.77292,388.947194 Z" id="Rectangle-7-Copy" stroke="url(#linearGradient-1)" stroke-width="1.5" opacity="0.25" fill-rule="nonzero" transform="translate(180.500000, 433.000000) scale(1, -1) translate(-180.500000, -433.000000) "></path>
            <g id="Group-327">
                <mask id="mask-3" fill="white">
                    <use xlink:href="#path-2" transform="translate(180.500000, 236.500000) scale(1, -1) translate(-180.500000, -236.500000) "></use>
                </mask>
                <use id="grey-bg" fill="#F6F8FF" transform="translate(180.500000, 236.500000) scale(1, -1) translate(-180.500000, -236.500000) " xlink:href="#path-2"></use>
                <g id="Group-58" opacity="0.04" mask="url(#mask-3)">
                    <g transform="translate(260.500000, 354.000000) scale(-1, 1) translate(-260.500000, -354.000000) translate(154.000000, 253.000000)">
                        <g id="Group-19" transform="translate(25.000000, 0.000000)">
                            <path d="M28.1839808,42.5001142 C28.1839808,34.5934935 34.593518,28.1842021 42.4999315,28.1842021 C50.4070304,28.1842021 56.8165676,34.5934935 56.8165676,42.5001142 C56.8165676,50.4069635 50.4070304,56.8164834 42.4999315,56.8164834 C34.593518,56.8164834 28.1839808,50.4069635 28.1839808,42.5001142 Z" id="Stroke-1" stroke="#638DFF" stroke-width="2"></path>
                            <path d="M60.3394252,42.5001142 C60.3394252,52.3526004 52.3528097,60.339423 42.5000685,60.339423 C32.6477844,60.339423 24.6609404,52.3526004 24.6609404,42.5001142 C24.6609404,32.6478566 32.6477844,24.661034 42.5000685,24.661034 C52.3528097,24.661034 60.3394252,32.6478566 60.3394252,42.5001142 Z" id="Stroke-3" stroke="#638DFF" stroke-width="1.796"></path>
                            <path d="M63.8623514,42.5001142 C63.8623514,54.2982374 54.298429,63.8623625 42.5000457,63.8623625 C30.7021194,63.8623625 21.138197,54.2982374 21.138197,42.5001142 C21.138197,30.7022196 30.7021194,21.1380945 42.5000457,21.1380945 C54.298429,21.1380945 63.8623514,30.7022196 63.8623514,42.5001142 Z" id="Stroke-5" stroke="#638DFF" stroke-width="1.592"></path>
                            <path d="M67.3853005,42.5001142 C67.3853005,56.2438743 56.2438427,67.3853021 42.5000457,67.3853021 C28.7562487,67.3853021 17.6150194,56.2438743 17.6150194,42.5001142 C17.6150194,28.7563542 28.7562487,17.6151549 42.5000457,17.6151549 C56.2438427,17.6151549 67.3853005,28.7563542 67.3853005,42.5001142 Z" id="Stroke-7" stroke="#638DFF" stroke-width="1.388"></path>
                            <path d="M70.9082495,42.5001142 C70.9082495,58.1897398 58.1897134,70.9082417 42.5000457,70.9082417 C26.810835,70.9082417 14.0920704,58.1897398 14.0920704,42.5001142 C14.0920704,26.8107172 26.810835,14.0919868 42.5000457,14.0919868 C58.1897134,14.0919868 70.9082495,26.8107172 70.9082495,42.5001142 Z" id="Stroke-9" stroke="#638DFF" stroke-width="1.184"></path>
                            <path d="M74.4311757,42.5001142 C74.4311757,60.1353767 60.1355612,74.4311813 42.5000228,74.4311813 C24.8649415,74.4311813 10.5690985,60.1353767 10.5690985,42.5001142 C10.5690985,24.8650803 24.8649415,10.5690472 42.5000228,10.5690472 C60.1355612,10.5690472 74.4311757,24.8650803 74.4311757,42.5001142 Z" id="Stroke-11" stroke="#638DFF" stroke-width="0.98"></path>
                            <path d="M77.9541248,42.5001142 C77.9541248,62.0810137 62.0809749,77.9543493 42.5000228,77.9543493 C22.9192993,77.9543493 7.04592095,62.0810137 7.04592095,42.5001142 C7.04592095,22.9192148 22.9192993,7.04610765 42.5000228,7.04610765 C62.0809749,7.04610765 77.9541248,22.9192148 77.9541248,42.5001142 Z" id="Stroke-13" stroke="#638DFF" stroke-width="0.776"></path>
                            <path d="M81.4770738,42.5001142 C81.4770738,64.0266506 64.0266171,81.4770604 42.5000228,81.4770604 C20.9736571,81.4770604 3.5229719,64.0266506 3.5229719,42.5001142 C3.5229719,20.9735779 20.9736571,3.52316807 42.5000228,3.52316807 C64.0266171,3.52316807 81.4770738,20.9735779 81.4770738,42.5001142 Z" id="Stroke-15" stroke="#638DFF" stroke-width="0.572"></path>
                            <path d="M0,42.5001142 C0,19.0277124 19.0277636,0 42.5,0 C65.9724649,0 85,19.0277124 85,42.5001142 C85,65.9725161 65.9724649,85 42.5,85 C19.0277636,85 0,65.9725161 0,42.5001142 Z" id="Stroke-17" stroke="#638DFF" stroke-width="0.368"></path>
                        </g>
                        <g id="Group-38" transform="translate(0.000000, 90.000000)">
                            <path d="M37.1365921,56.0001142 C37.1365921,45.581908 45.5820009,37.1365163 56,37.1365163 C66.4184559,37.1365163 74.8640932,45.581908 74.8640932,56.0001142 C74.8640932,66.4183205 66.4184559,74.8639405 56,74.8639405 C45.5820009,74.8639405 37.1365921,66.4183205 37.1365921,56.0001142 Z" id="Stroke-20" stroke="#638DFF" stroke-width="2.636"></path>
                            <path d="M79.5059845,56.0001142 C79.5059845,68.982043 68.9822293,79.5057766 56.0000457,79.5057766 C43.0183189,79.5057766 32.4945637,68.982043 32.4945637,56.0001142 C32.4945637,43.017957 43.0183189,32.4944518 56.0000457,32.4944518 C68.9822293,32.4944518 79.5059845,43.017957 79.5059845,56.0001142 Z" id="Stroke-22" stroke="#638DFF" stroke-width="2.367"></path>
                            <path d="M84.1481042,56.0001142 C84.1481042,71.5459939 71.5460027,84.1478412 56.0000914,84.1478412 C40.4544084,84.1478412 27.8525354,71.5459939 27.8525354,56.0001142 C27.8525354,40.4542345 40.4544084,27.8523872 56.0000914,27.8523872 C71.5460027,27.8523872 84.1481042,40.4542345 84.1481042,56.0001142 Z" id="Stroke-24" stroke="#638DFF" stroke-width="2.098"></path>
                            <path d="M88.7900183,56.0001142 C88.7900183,74.109488 74.1095706,88.7901341 55.9999315,88.7901341 C37.8907492,88.7901341 23.2105299,74.109488 23.2105299,56.0001142 C23.2105299,37.890512 37.8907492,23.2103227 55.9999315,23.2103227 C74.1095706,23.2103227 88.7900183,37.890512 88.7900183,56.0001142 Z" id="Stroke-26" stroke="#638DFF" stroke-width="1.829"></path>
                            <path d="M93.432138,56.0001142 C93.432138,76.6734389 76.6735724,93.4319703 55.9999772,93.4319703 C35.3268387,93.4319703 18.5682732,76.6734389 18.5682732,56.0001142 C18.5682732,35.3267895 35.3268387,18.5682582 55.9999772,18.5682582 C76.6735724,18.5682582 93.432138,35.3267895 93.432138,56.0001142 Z" id="Stroke-28" stroke="#638DFF" stroke-width="1.561"></path>
                            <path d="M98.0740521,56.0001142 C98.0740521,79.236933 79.2371402,98.0738064 56.0000457,98.0738064 C32.7631795,98.0738064 13.9262677,79.236933 13.9262677,56.0001142 C13.9262677,32.763067 32.7631795,13.9261936 56.0000457,13.9261936 C79.2371402,13.9261936 98.0740521,32.763067 98.0740521,56.0001142 Z" id="Stroke-30" stroke="#638DFF" stroke-width="1.292"></path>
                            <path d="M102.715966,56.0001142 C102.715966,81.8006555 81.8009365,102.715871 55.9998858,102.715871 C30.1995203,102.715871 9.28403381,81.8006555 9.28403381,56.0001142 C9.28403381,30.1991161 30.1995203,9.28412908 55.9998858,9.28412908 C81.8009365,9.28412908 102.715966,30.1991161 102.715966,56.0001142 Z" id="Stroke-32" stroke="#638DFF" stroke-width="1.023"></path>
                            <path d="M107.358086,56.0001142 C107.358086,84.3646064 84.3647099,107.358164 55.9999315,107.358164 C27.6358383,107.358164 4.6422339,84.3646064 4.6422339,56.0001142 C4.6422339,27.6353936 27.6358383,4.64206454 55.9999315,4.64206454 C84.3647099,4.64206454 107.358086,27.6353936 107.358086,56.0001142 Z" id="Stroke-34" stroke="#638DFF" stroke-width="0.754"></path>
                            <path d="M-1.55324715e-15,56.0001142 C-1.55324715e-15,25.0716711 25.0721791,0 56,0 C86.9282778,0 112,25.0716711 112,56.0001142 C112,86.9281005 86.9282778,112 56,112 C25.0721791,112 -1.55324715e-15,86.9281005 -1.55324715e-15,56.0001142 Z" id="Stroke-36" stroke="#638DFF" stroke-width="0.485"></path>
                        </g>
                        <g id="Group-57" transform="translate(152.000000, 70.000000)">
                            <path d="M20.226352,30.4997704 C20.226352,24.825827 24.8259893,20.2259775 30.5001836,20.2259775 C36.174378,20.2259775 40.7742448,24.825827 40.7742448,30.4997704 C40.7742448,36.174173 36.174378,40.7740225 30.5001836,40.7740225 C24.8259893,40.7740225 20.226352,36.174173 20.226352,30.4997704 Z" id="Stroke-39" stroke="#638DFF" stroke-width="1.5"></path>
                            <path d="M43.3024499,30.4997704 C43.3024499,37.5705641 37.5706366,43.3023558 30.5000459,43.3023558 C23.4296848,43.3023558 17.6981011,37.5705641 17.6981011,30.4997704 C17.6981011,23.4294359 23.4296848,17.6976442 30.5000459,17.6976442 C37.5706366,17.6976442 43.3024499,23.4294359 43.3024499,30.4997704 Z" id="Stroke-41" stroke="#638DFF" stroke-width="1.345"></path>
                            <path d="M45.8307238,30.4997704 C45.8307238,38.9667256 38.9671936,45.8304595 30.5002066,45.8304595 C22.0332196,45.8304595 15.169919,38.9667256 15.169919,30.4997704 C15.169919,22.0330448 22.0332196,15.1695405 30.5002066,15.1695405 C38.9671936,15.1695405 45.8307238,22.0330448 45.8307238,30.4997704 Z" id="Stroke-43" stroke="#638DFF" stroke-width="1.191"></path>
                            <path d="M48.3589977,30.4997704 C48.3589977,40.3631167 40.3632915,48.3587928 30.5001377,48.3587928 C20.6369839,48.3587928 12.6415073,40.3631167 12.6415073,30.4997704 C12.6415073,20.6368833 20.6369839,12.6412072 30.5001377,12.6412072 C40.3632915,12.6412072 48.3589977,20.6368833 48.3589977,30.4997704 Z" id="Stroke-45" stroke="#638DFF" stroke-width="1.036"></path>
                            <path d="M50.8870421,30.4997704 C50.8870421,41.7595078 41.759619,50.8868965 30.5000689,50.8868965 C19.2407483,50.8868965 10.1133252,41.7595078 10.1133252,30.4997704 C10.1133252,19.2404922 19.2407483,10.112874 30.5000689,10.112874 C41.759619,10.112874 50.8870421,19.2404922 50.8870421,30.4997704 Z" id="Stroke-47" stroke="#638DFF" stroke-width="0.881"></path>
                            <path d="M53.415293,30.4997704 C53.415293,43.1556693 43.1561531,53.4152297 30.5002066,53.4152297 C17.8442601,53.4152297 7.58489062,43.1556693 7.58489062,30.4997704 C7.58489062,17.8441012 17.8442601,7.58477026 30.5002066,7.58477026 C43.1561531,7.58477026 53.415293,17.8441012 53.415293,30.4997704 Z" id="Stroke-49" stroke="#638DFF" stroke-width="0.727"></path>
                            <path d="M55.9435669,30.4997704 C55.9435669,44.5520604 44.552251,55.943563 30.5001377,55.943563 C16.4480245,55.943563 5.05647897,44.5520604 5.05647897,30.4997704 C5.05647897,16.4477101 16.4480245,5.05643698 30.5001377,5.05643698 C44.552251,5.05643698 55.9435669,16.4477101 55.9435669,30.4997704 Z" id="Stroke-51" stroke="#638DFF" stroke-width="0.572"></path>
                            <path d="M58.4718179,30.4997704 C58.4718179,45.9482219 45.9485555,58.4718963 30.5000459,58.4718963 C15.0517659,58.4718963 2.52827392,45.9482219 2.52827392,30.4997704 C2.52827392,15.0515486 15.0517659,2.52810371 30.5000459,2.52810371 C45.9485555,2.52810371 58.4718179,15.0515486 58.4718179,30.4997704 Z" id="Stroke-53" stroke="#638DFF" stroke-width="0.417"></path>
                            <path d="M0,30.4997704 C0,13.6551575 13.6552089,0 30.5001148,0 C47.3450207,0 61,13.6551575 61,30.4997704 C61,47.344613 47.3450207,61 30.5001148,61 C13.6552089,61 0,47.344613 0,30.4997704 Z" id="Stroke-55" stroke="#638DFF" stroke-width="0.263"></path>
                        </g>
                    </g>
                </g>
                <g id="Group-16" opacity="0.5" mask="url(#mask-3)">
                    <g transform="translate(-63.248260, 117.010243)">
                        <g id="Group-9" transform="translate(199.643061, 0.000000)">
                            <mask id="mask-5" fill="white">
                                <use xlink:href="#path-4"></use>
                            </mask>
                            <g id="Clip-8"></g>
                            <path d="" id="Fill-7" stroke="url(#linearGradient-6)" stroke-width="1.5" opacity="0.25" fill-rule="nonzero" mask="url(#mask-5)"></path>
                        </g>
                        <g id="Group-9-Copy-2" transform="translate(94.699274, 32.957746)">
                            <mask id="mask-8" fill="white">
                                <use xlink:href="#path-7"></use>
                            </mask>
                            <g id="Clip-8"></g>
                            <path d="" id="Fill-7" stroke="url(#linearGradient-9)" stroke-width="1.5" opacity="0.25" fill-rule="nonzero" mask="url(#mask-8)"></path>
                        </g>
                        <g id="Group-15" transform="translate(130.430135, 132.080666)">
                            <mask id="mask-11" fill="white">
                                <use xlink:href="#path-10"></use>
                            </mask>
                            <g id="Clip-14"></g>
                            <polygon id="Fill-13" fill="url(#linearGradient-12)" mask="url(#mask-11)" points="0.0670800354 12.234315 0 12.1674402 12.1762047 0 12.2434418 0.0670317512"></polygon>
                        </g>
                    </g>
                </g>
                <g id="Group-15" mask="url(#mask-3)" fill-rule="nonzero">
                    <g transform="translate(113.297396, 363.308995) scale(-1, -1) rotate(-100.000000) translate(-113.297396, -363.308995) translate(66.093422, 308.797675)">
                        <ellipse id="Oval-Copy" stroke="url(#linearGradient-13)" stroke-width="1" fill="none" opacity="0.231073289" cx="77.7512323" cy="100.152602" rx="8.37665555" ry="8.3700385"></ellipse>
                        <ellipse id="Oval-Copy-14" stroke="none" fill="#C6CAFF" opacity="0.800000012" cx="89.9080929" cy="66.9912311" rx="4.49985439" ry="4.4965"></ellipse>
                        <ellipse id="Oval-Copy-15" stroke="#BFC3EB" stroke-width="1" fill="none" opacity="0.200000003" cx="20.7388912" cy="20.7234315" rx="20.2388912" ry="20.2234315"></ellipse>
                    </g>
                </g>
                <ellipse id="blur" fill="#FFFFFF" fill-rule="nonzero" opacity="0.600000024" filter="url(#filter-14)" mask="url(#mask-3)" cx="32.2006126" cy="336.283611" rx="58.218815" ry="58.1754161"></ellipse>
            </g>
        </g>
    </g>
</svg>