<svg width="51" height="51" viewBox="0 0 51 51" xmlns="http://www.w3.org/2000/svg" xmlns:xlink="http://www.w3.org/1999/xlink">
    <defs>
        <path id="ojbf63lp5a" d="M0 0h15.5v15.526H0z"/>
    </defs>
    <g fill="none" fill-rule="evenodd">
        <path d="M50.386 25.613c0 13.77-11.164 24.935-24.935 24.935-13.77 0-24.935-11.164-24.935-24.935C.516 11.842 11.68.678 25.451.678c13.771 0 24.935 11.164 24.935 24.935" fill="#B295E3"/>
        <path d="M25.798 39.791c-.095-.058-.195-.11-.284-.175-.407-.298-.462-.87-.115-1.263.105-.12.238-.215.358-.321-.01-.027-.022-.052-.033-.079l-.577-.04c-5.532-.367-10.27-4.35-11.543-9.758-.223-.949-.28-1.94-.371-2.916-.053-.565.34-.972.847-.974.502-.002.839.375.86.94.167 4.408 2.186 7.68 6.04 9.796 1.424.781 2.979 1.144 4.599 1.221.043.002.086 0 .128 0l.066-.089c-.117-.092-.248-.172-.35-.28a.854.854 0 1 1 1.207-1.21c.615.601 1.222 1.209 1.82 1.823.364.373.374.858.015 1.231a94.296 94.296 0 0 1-1.839 1.844c-.104.103-.246.168-.37.25h-.458z" fill="#FFF"/>
        <g transform="translate(23.325 10.456)">
            <mask id="xhv2if9bib" fill="#fff">
                <use xlink:href="#ojbf63lp5a"/>
            </mask>
            <path d="M2.931 0c.087.053.178.102.262.16.416.285.49.853.157 1.258-.108.13-.232.247-.383.407.433.038.826.061 1.216.109 5.548.675 9.957 4.738 11.065 10.232.16.79.195 1.608.25 2.416.038.544-.352.943-.85.944-.492 0-.843-.372-.857-.914-.1-3.747-1.644-6.753-4.655-8.975C7.364 4.33 5.347 3.672 3.15 3.568c-.042-.002-.085 0-.192 0 .145.152.25.257.35.367.334.37.333.878 0 1.212a.854.854 0 0 1-1.21 0C1.478 4.54.864 3.925.26 3.302c-.337-.346-.35-.836-.013-1.187C.86 1.476 1.492.854 2.124.231c.098-.096.232-.155.35-.231h.457z" fill="#FFF" mask="url(#xhv2if9bib)"/>
        </g>
        <path d="M20.457 25.11a5.579 5.579 0 0 0 5.57 5.595c3.072 0 5.558-2.487 5.57-5.568a5.576 5.576 0 0 0-5.571-5.595c-3.071.001-5.558 2.487-5.57 5.568m-1.715.02c-.007-4.028 3.261-7.307 7.286-7.307 4.024 0 7.293 3.278 7.285 7.307a7.295 7.295 0 0 1-7.27 7.294c-4.014.018-7.293-3.258-7.3-7.294" fill="#FFF"/>
        <path d="M26.912 21.497c.046.005.092.008.137.016.466.077.774.445.75.895a.858.858 0 0 1-.842.813c-.447.016-.895.002-1.343.006-.345.003-.55.182-.56.476-.013.314.215.547.556.56.409.015.825-.022 1.226.04 1.052.166 1.827 1.032 1.878 2.043.056 1.112-.607 2.03-1.68 2.328l-.106.027c-.19.721-.457.986-.962.956-.443-.027-.723-.33-.816-.898-.366-.032-.673-.178-.83-.54-.24-.56.158-1.17.788-1.194.428-.016.858-.001 1.286-.004.386-.003.614-.204.607-.528-.006-.31-.233-.5-.6-.51-.408-.012-.824.015-1.224-.052a2.22 2.22 0 0 1-1.838-2.053c-.05-1.082.587-1.987 1.608-2.299.086-.026.2-.113.216-.19.112-.519.42-.81.885-.8.45.009.751.303.838.816.004.027.015.053.026.092" fill="#FFF"/>
    </g>
</svg>
