<svg width="52" height="16" viewBox="0 0 52 16" fill="none" xmlns="http://www.w3.org/2000/svg">
    <rect y=".616" width="15.13" height="14.773" rx="3" fill="#231F20"/>
    <path d="M3.85 10.36A2.475 2.475 0 0 1 1.411 7.9V6.434c0-.373.31-.676.692-.676a.7.7 0 0 1 .49.198c.13.127.203.299.203.478v1.473c0 .59.474 1.094 1.079 1.102.294.006.579-.103.79-.304.211-.2.332-.474.334-.762V6.42c0-.373.31-.676.692-.676a.7.7 0 0 1 .49.198c.13.127.203.299.202.478v1.52a2.402 2.402 0 0 1-.748 1.727 2.522 2.522 0 0 1-1.785.692M5.11 10.347h.853c.278 0 .503-.22.504-.492v-.95a2.734 2.734 0 0 1-1.358 1.442M11.15 5.745a2.51 2.51 0 0 0-1.796.75 2.475 2.475 0 0 0-1.795-.75c-.312 0-.62.06-.909.175v1.65c.27-.394.772-.57 1.237-.433.464.136.783.554.785 1.028v1.497a.697.697 0 0 0 .646.697.702.702 0 0 0 .517-.18.668.668 0 0 0 .219-.493V8.2a1.106 1.106 0 0 1 1.869-.799c.211.2.332.475.335.762V9.67c0 .18.073.352.202.479a.7.7 0 0 0 .98 0 .668.668 0 0 0 .202-.479V8.163c-.005-1.34-1.12-2.422-2.493-2.42" fill="#fff"/>
    <path d="M22.517 6.545h-.103c-.342.52-.855.78-1.538.78-.629 0-1.097-.196-1.405-.59-.308-.394-.462-.91-.461-1.552V2.26h1.537v2.753c-.01.234.059.464.195.656.13.17.331.255.605.255.348 0 .613-.13.795-.39.181-.26.272-.601.273-1.021V2.26h1.538v4.906h-1.434l-.002-.622zM25.1 2.26h1.434v.622h.103c.148-.226.348-.414.584-.551a1.698 1.698 0 0 1 1.323-.164c.119.036.233.085.341.147l-.4 1.339a1.386 1.386 0 0 0-.282-.111 1.529 1.529 0 0 0-.385-.04c-.382 0-.675.13-.876.39-.202.26-.302.601-.302 1.021v2.253H25.1V2.261z" fill="#231F20"/>
    <path fill-rule="evenodd" clip-rule="evenodd" d="M29.553 7.168h1.433l.002-.546h.102c.132.209.318.38.539.495.242.137.548.206.918.206a2.364 2.364 0 0 0 1.697-.723c.227-.24.407-.52.528-.826.259-.685.259-1.438 0-2.122-.121-.306-.3-.586-.529-.827a2.384 2.384 0 0 0-.774-.533 2.31 2.31 0 0 0-.922-.19c-.37 0-.676.07-.918.206a1.42 1.42 0 0 0-.539.495h-.102l.102-.7V0h-1.537v7.168zm3.12-1.324a1.29 1.29 0 0 1-.467.085 1.29 1.29 0 0 1-.467-.085 1.22 1.22 0 0 1-.389-.24 1.102 1.102 0 0 1-.267-.38c-.066-.161-.1-.333-.097-.506a1.16 1.16 0 0 1 .753-1.126c.3-.114.634-.114.934 0a1.177 1.177 0 0 1 .656.625c.067.159.1.33.097.5.003.174-.03.346-.097.506a1.1 1.1 0 0 1-.267.381 1.22 1.22 0 0 1-.39.24zM38.736 6.725h.103v.435h1.537V4.257c0-.73-.208-1.272-.626-1.627-.418-.355-1.037-.533-1.856-.533a3.142 3.142 0 0 0-1.256.245c-.387.17-.73.425-1 .746l1.046.72c.322-.355.705-.532 1.149-.532.306 0 .55.074.733.225.172.13.273.332.273.545v.133a4.364 4.364 0 0 0-.539-.14 4.028 4.028 0 0 0-.764-.06 2.503 2.503 0 0 0-.794.12c-.23.074-.444.189-.63.34a1.62 1.62 0 0 0-.421.526c-.104.21-.157.442-.154.676-.003.237.046.473.144.69.091.203.226.385.394.534.171.149.37.264.585.34.228.081.47.122.713.12.327 0 .596-.056.804-.17.209-.113.398-.259.56-.43zm-.363-1.634c.158.035.314.082.466.14a.958.958 0 0 1-.6.887c-.144.059-.3.088-.456.085a.799.799 0 0 1-.512-.155.503.503 0 0 1-.195-.416.52.52 0 0 1 .205-.425c.136-.11.34-.166.614-.166.16 0 .32.017.477.05z" fill="#231F20"/>
    <path d="M42.88 2.882h.103c.341-.522.854-.782 1.538-.781.629 0 1.097.196 1.404.59.308.394.462.91.462 1.552v2.923h-1.538V4.413a1.053 1.053 0 0 0-.195-.656c-.13-.17-.332-.255-.605-.255-.349 0-.614.13-.794.39-.181.26-.272.601-.273 1.021v2.253h-1.537V2.261h1.433l.002.62zM19.05 8.932h1.434v.62h.102c.158-.24.375-.439.631-.576.28-.142.592-.212.907-.205.383 0 .702.089.956.267a1.5 1.5 0 0 1 .533.615c.167-.249.387-.459.646-.615.28-.178.633-.267 1.057-.267.27-.006.539.044.789.145.216.09.408.23.558.406.153.183.266.394.334.62.078.257.116.524.113.791v3.104h-1.538v-2.812a.988.988 0 0 0-.18-.616c-.119-.157-.295-.235-.527-.235a.845.845 0 0 0-.759.395c-.17.264-.257.616-.257 1.056v2.212h-1.537v-2.812a.95.95 0 0 0-.19-.616c-.127-.157-.323-.236-.59-.235a.771.771 0 0 0-.707.395c-.157.264-.236.616-.236 1.056v2.212h-1.538V8.932z" fill="#231F20"/>
    <path fill-rule="evenodd" clip-rule="evenodd" d="M31.72 8.969a2.94 2.94 0 0 0-1.082-.195 2.937 2.937 0 0 0-1.081.195c-.321.123-.614.307-.862.54a2.388 2.388 0 0 0-.565.826 2.872 2.872 0 0 0 0 2.103c.127.31.32.592.565.825.248.234.54.418.861.542.697.26 1.467.26 2.163 0 .321-.124.614-.308.862-.541.245-.234.437-.515.564-.826a2.863 2.863 0 0 0 0-2.103 2.384 2.384 0 0 0-.564-.825 2.646 2.646 0 0 0-.862-.541zm-.637 3.542a1.18 1.18 0 0 1-.445.084 1.179 1.179 0 0 1-.815-.325 1.08 1.08 0 0 1-.257-.38 1.322 1.322 0 0 1-.092-.506 1.287 1.287 0 0 1 .092-.5 1.15 1.15 0 0 1 .257-.381 1.18 1.18 0 0 1 1.638 0c.11.109.197.238.256.38.064.16.095.33.092.5.002.174-.03.345-.095.507a1.08 1.08 0 0 1-.256.38 1.202 1.202 0 0 1-.375.24z" fill="#231F20"/>
    <path d="M35.539 9.552h.102c.342-.52.855-.78 1.539-.78.628 0 1.096.197 1.404.59.308.395.461.912.46 1.553v2.923h-1.537v-2.753a1.048 1.048 0 0 0-.194-.656c-.13-.17-.332-.255-.605-.255-.349 0-.614.13-.795.39-.182.26-.273.6-.273 1.021v2.253h-1.537V8.933h1.434l.002.62z" fill="#231F20"/>
    <path fill-rule="evenodd" clip-rule="evenodd" d="M44.044 13.64c.404-.245.738-.586.97-.992l-1.25-.607a1.353 1.353 0 0 1-.447.46 1.3 1.3 0 0 1-.712.18 1.43 1.43 0 0 1-.78-.22c-.232-.147-.386-.38-.46-.701h3.7c0-.043.003-.087.01-.13a1.37 1.37 0 0 0 .015-.14c.005-.053.005-.107.005-.16a2.98 2.98 0 0 0-.163-1 2.334 2.334 0 0 0-.483-.811 2.237 2.237 0 0 0-.794-.545 2.82 2.82 0 0 0-1.103-.2 2.654 2.654 0 0 0-1.06.21 2.779 2.779 0 0 0-.852.566 2.56 2.56 0 0 0-.774 1.837c-.004.358.065.714.205 1.046.132.31.328.592.575.826.249.236.543.421.866.546.344.133.711.199 1.081.195.568 0 1.051-.12 1.451-.36zm-.492-3.167c.046.081.079.17.096.26h-2.216a1.176 1.176 0 0 1 1.12-.78c.153-.002.304.023.447.075.123.044.237.108.338.19.087.07.16.158.215.255z" fill="#231F20"/>
    <path d="m47.453 13.628-2.13-4.695h1.774l1.16 2.702h.103l1.107-2.702H51.2L48.048 16h-1.681l1.086-2.372z" fill="#231F20"/>
</svg>
