<svg width="40" height="40" viewBox="0 0 40 40" fill="none" xmlns="http://www.w3.org/2000/svg">
    <path fill-rule="evenodd" clip-rule="evenodd" d="M19.687 0c.939 0 1.587.74 2.228 1.474.38.435.757.865.987.907.236.043.743-.238 1.247-.519.833-.463 1.662-.924 2.51-.607.859.32 1.18 1.22 1.5 2.117.19.53.379 1.06.56 1.166.18.106.736.009 1.291-.089.932-.163 1.863-.326 2.554.257.687.58.683 1.528.679 2.476-.003.56-.006 1.119.13 1.279.135.16.685.253 1.236.346.936.158 1.872.316 2.33 1.098.458.781.143 1.672-.174 2.566-.19.536-.38 1.074-.304 1.28.077.207.565.49 1.055.776.83.483 1.666.97 1.832 1.882.163.898-.43 1.644-1.028 2.397-.366.462-.736.928-.736 1.194 0 .266.37.732.736 1.195.598.752 1.19 1.498 1.028 2.396-.166.912-1.002 1.399-1.832 1.882-.49.285-.978.57-1.055.776-.076.206.114.744.304 1.28.317.894.632 1.785.175 2.566-.459.783-1.395.94-2.33 1.098-.552.093-1.102.186-1.237.346-.136.16-.133.72-.13 1.28.004.947.008 1.894-.68 2.475-.69.583-1.62.42-2.553.257-.555-.097-1.11-.195-1.292-.089-.18.106-.369.635-.558 1.166-.32.898-.642 1.798-1.5 2.118-.849.316-1.678-.145-2.511-.608-.504-.28-1.01-.562-1.247-.519-.23.042-.607.472-.987.907-.641.733-1.289 1.474-2.228 1.474-.938 0-1.586-.74-2.228-1.474-.38-.435-.756-.866-.987-.907-.236-.043-.742.238-1.246.519-.834.463-1.662.924-2.51.607-.86-.32-1.18-1.22-1.5-2.117-.19-.53-.38-1.06-.56-1.166-.18-.106-.736-.009-1.292.089-.931.163-1.862.326-2.553-.257-.688-.58-.683-1.528-.679-2.476.003-.56.005-1.119-.13-1.279-.135-.16-.685-.253-1.237-.346-.935-.158-1.872-.316-2.33-1.098-.457-.781-.142-1.672.175-2.566.19-.536.38-1.074.303-1.28-.076-.207-.564-.49-1.054-.776-.83-.483-1.666-.97-1.832-1.882-.162-.898.43-1.644 1.027-2.397.367-.462.737-.928.737-1.194 0-.266-.37-.732-.737-1.195-.597-.753-1.19-1.498-1.027-2.396.166-.913 1.001-1.399 1.832-1.882.49-.286.978-.57 1.054-.775.077-.207-.113-.745-.303-1.281-.317-.894-.632-1.785-.175-2.566.458-.783 1.395-.94 2.33-1.098.552-.093 1.102-.186 1.237-.346.135-.16.133-.72.13-1.28-.004-.947-.009-1.895.679-2.475.69-.583 1.622-.42 2.553-.257.556.097 1.112.195 1.292.089.18-.106.37-.635.56-1.166.32-.897.641-1.798 1.5-2.118.848-.316 1.676.145 2.51.608.504.28 1.01.562 1.246.519.231-.042.608-.472.987-.907C18.101.741 18.75 0 19.687 0zm9.674 10.092a.78.78 0 0 0-.596 1.286l.003.002A12.486 12.486 0 0 1 32.203 20c0 3.459-1.4 6.59-3.666 8.857a12.47 12.47 0 0 1-8.85 3.668 12.482 12.482 0 0 1-4.289-.755h-.002a.782.782 0 1 0-.449 1.496c1.481.53 3.077.82 4.74.82 3.887 0 7.406-1.578 9.953-4.126A14.046 14.046 0 0 0 33.761 20c0-3.722-1.443-7.106-3.798-9.624a.78.78 0 0 0-.603-.284zm-2.356-1.983a.781.781 0 1 0 .001 1.562.781.781 0 0 0 0-1.562zm-2.533-1.36a14.039 14.039 0 0 0-4.785-.834 14.025 14.025 0 0 0-9.952 4.125A14.047 14.047 0 0 0 5.613 20c0 3.714 1.436 7.092 3.783 9.608a.78.78 0 0 0 1.38-.5.777.777 0 0 0-.183-.503l-.003-.004A12.487 12.487 0 0 1 7.172 20c0-3.459 1.4-6.59 3.666-8.857a12.47 12.47 0 0 1 8.85-3.668c1.493 0 2.925.262 4.253.742a.78.78 0 1 0 .53-1.468zM12.369 30.33a.781.781 0 1 0 .001 1.562.781.781 0 0 0 0-1.562zm2.774-18.007a3.23 3.23 0 0 0-2.293.95 3.236 3.236 0 0 0-.949 2.293c0 .896.363 1.707.95 2.294a3.23 3.23 0 0 0 2.291.95 3.23 3.23 0 0 0 2.292-.95c.587-.587.95-1.398.95-2.294 0-.895-.363-1.706-.95-2.293a3.23 3.23 0 0 0-2.292-.95zm1.19 2.053a1.677 1.677 0 0 0-1.19-.493 1.679 1.679 0 0 0-1.682 1.684 1.68 1.68 0 0 0 1.682 1.683 1.68 1.68 0 0 0 1.682-1.683c0-.466-.189-.886-.493-1.191zm7.25-1.7-9.09 13.797a.777.777 0 0 0 1.298.853l9.09-13.797a.777.777 0 0 0-1.297-.853zm.65 8.516a3.23 3.23 0 0 0-2.292.95 3.236 3.236 0 0 0-.95 2.294c0 .895.363 1.706.95 2.293a3.23 3.23 0 0 0 2.292.95 3.23 3.23 0 0 0 2.291-.95c.587-.587.95-1.398.95-2.294 0-.895-.363-1.706-.95-2.293a3.23 3.23 0 0 0-2.291-.95zm1.189 2.053a1.677 1.677 0 0 0-1.19-.493 1.68 1.68 0 0 0-1.682 1.683 1.68 1.68 0 0 0 1.683 1.684c.464 0 .885-.188 1.189-.493.304-.305.493-.725.493-1.19 0-.465-.189-.886-.493-1.191zM20.746 2.498c-.408-.466-.82-.938-1.058-.938-.239 0-.65.472-1.06.938-.558.64-1.113 1.273-1.881 1.413-.781.142-1.53-.275-2.276-.69-.52-.289-1.037-.576-1.214-.51-.174.065-.374.626-.574 1.185-.284.795-.566 1.587-1.241 1.983-.68.398-1.513.252-2.345.106-.575-.1-1.15-.201-1.28-.09-.137.115-.134.698-.132 1.28.004.848.008 1.695-.495 2.292-.502.595-1.335.736-2.169.876-.577.097-1.156.195-1.246.349-.09.153.106.706.303 1.26.283.8.567 1.602.291 2.342-.272.731-1 1.154-1.73 1.58-.522.303-1.047.609-1.083.81-.037.203.338.676.717 1.153.536.676 1.078 1.357 1.078 2.163 0 .806-.542 1.487-1.078 2.164-.379.476-.754.949-.717 1.153.036.2.561.506 1.083.81.73.425 1.458.848 1.73 1.579.276.74-.008 1.542-.291 2.341-.197.555-.393 1.108-.303 1.261.09.154.669.252 1.246.349.834.14 1.667.28 2.169.876.503.597.5 1.444.495 2.291-.002.583-.005 1.166.131 1.281.132.111.706.01 1.28-.09.833-.146 1.667-.292 2.346.106.675.396.957 1.188 1.241 1.983.2.559.4 1.12.574 1.185.177.066.694-.221 1.214-.51.745-.415 1.495-.832 2.276-.69.769.14 1.323.773 1.882 1.413.408.467.82.938 1.059.938.238 0 .65-.471 1.058-.938.56-.64 1.114-1.273 1.882-1.413.78-.142 1.53.275 2.276.69.52.289 1.037.576 1.214.51.174-.065.375-.626.574-1.185.284-.795.567-1.587 1.24-1.983.68-.398 1.514-.252 2.346-.106.575.1 1.15.201 1.281.09.136-.115.133-.698.13-1.28-.003-.848-.007-1.695.496-2.292.502-.595 1.335-.735 2.169-.876.577-.097 1.156-.195 1.246-.349.09-.153-.106-.706-.303-1.26-.283-.8-.567-1.601-.291-2.342.272-.731 1-1.154 1.73-1.58.522-.303 1.046-.609 1.083-.81.037-.203-.338-.676-.717-1.152-.536-.677-1.078-1.358-1.078-2.164s.542-1.487 1.078-2.163c.379-.477.754-.95.717-1.153-.037-.201-.561-.507-1.083-.81-.73-.426-1.458-.849-1.73-1.58-.276-.74.008-1.542.291-2.341.197-.555.393-1.108.303-1.261-.09-.154-.669-.252-1.246-.349-.834-.14-1.667-.28-2.169-.876-.503-.597-.5-1.444-.495-2.291.002-.583.005-1.166-.13-1.28-.133-.112-.707-.011-1.282.09-.832.145-1.666.29-2.345-.107-.674-.396-.957-1.188-1.241-1.983-.2-.559-.4-1.12-.574-1.185-.177-.066-.694.221-1.214.51-.746.415-1.495.832-2.276.69-.769-.14-1.323-.773-1.882-1.413z" fill="#9E1A22"/>
</svg>
